<?xml version="1.0" encoding="UTF-8" standalone="no"?>
<!-- Created with Inkscape (http://www.inkscape.org/) -->

<svg
   width="280.74686mm"
   height="193.17276mm"
   viewBox="0 0 280.74685 193.17276"
   version="1.1"
   id="svg2224"
   xml:space="preserve"
   inkscape:version="1.2.2 (1:1.2.2+202212051552+b0a8486541)"
   sodipodi:docname="akhi-in-place.svg"
   inkscape:export-filename="../../temp.png"
   inkscape:export-xdpi="370.57999"
   inkscape:export-ydpi="370.57999"
   xmlns:inkscape="http://www.inkscape.org/namespaces/inkscape"
   xmlns:sodipodi="http://sodipodi.sourceforge.net/DTD/sodipodi-0.dtd"
   xmlns="http://www.w3.org/2000/svg"
   xmlns:svg="http://www.w3.org/2000/svg"><sodipodi:namedview
     id="namedview2226"
     pagecolor="#ffffff"
     bordercolor="#666666"
     borderopacity="1.0"
     inkscape:showpageshadow="2"
     inkscape:pageopacity="0.0"
     inkscape:pagecheckerboard="0"
     inkscape:deskcolor="#d1d1d1"
     inkscape:document-units="mm"
     showgrid="false"
     inkscape:zoom="0.51213161"
     inkscape:cx="622.88676"
     inkscape:cy="261.65149"
     inkscape:window-width="1883"
     inkscape:window-height="1029"
     inkscape:window-x="26"
     inkscape:window-y="23"
     inkscape:window-maximized="0"
     inkscape:current-layer="layer1" /><defs
     id="defs2221"><style
       type="text/css"
       id="style2347">
.state {fill:#D0D0D0}                        /* default color for all states not specified below */
.borders {stroke:#FFFFFF; stroke-width:1}    /* color and width of borders between states */
.dccircle {display:yes}                      /* set display to yes to show the circle for the District of Columbia, or none to hide it */
.separator1 {stroke:#B0B0B0; stroke-width:2} /* color and width of lines around Alaska and Hawaii */

/* Individual states can be colored as follows:
.ks,.mt,.pa {fill:#0000FF}
.ca,.de {fill:#FF0000}
In this example, Kansas, Montana and Pennsylvania are colored blue, and California and Delaware are colored red.
Place this code in the empty space below. */



</style></defs><g
     inkscape:label="Layer 1"
     inkscape:groupmode="layer"
     id="layer1"
     transform="translate(44.371052,-47.378822)"><rect
       style="fill:#8ab7ff;fill-opacity:1;stroke:none;stroke-width:2.02826;stop-color:#000000"
       id="rect3288"
       width="280.74686"
       height="193.17276"
       x="-44.371052"
       y="47.378822" /><g
       id="g2998"
       transform="matrix(0.26458333,0,0,0.26458333,-25.32632,70.525834)"><g
         class="state"
         id="g2555"
         style="fill:#7e9f76;fill-opacity:1"><path
           class="al"
           d="m 643,467.4 0.4,-7.3 -0.9,-1.2 -1.7,-0.7 -2.5,-2.8 0.5,-2.9 48.8,-5.1 -0.7,-2.2 -1.5,-1.5 -0.5,-1.4 0.6,-6.3 -2.4,-5.7 0.5,-2.6 0.3,-3.7 2.2,-3.8 -0.2,-1.1 -1.7,-1 v -3.2 l -1.8,-1.9 -2.9,-6.1 -12.9,-45.8 -45.7,4 1.3,2 -1.3,67 4.4,33.2 0.9,-0.5 1.3,0.1 0.6,0.4 0.8,-0.1 2,-3.8 v -2.3 l 1.1,-1.1 1.4,0.5 3.4,6.4 v 0.9 l -3.3,2.2 3.5,-0.4 4.9,-1.6 z"
           id="path2353"
           style="fill:#7e9f76;fill-opacity:1"><title
             id="title2351">Alabama</title></path><!-- The scale of Alaska is 42% that of the contiguous United States, so its area is reduced to about 17.6%. The Islands of Four Mountains, Andreanof Islands, Rat Islands and Near Islands are not shown. --><path
           class="ak"
           d="m 15.8,572 h 2.4 l 0.7,0.7 -1,1.2 -1.9,0.2 -2.5,1.3 -3.7,-0.1 2.2,-0.9 0.3,-1.1 2.5,-0.3 z m 8.3,-1.7 1.3,0.5 h 0.9 l 0.5,1.2 0.3,-0.6 0.9,0.2 1.1,1.5 v 0.5 l -4.2,1.9 -2.4,-0.1 -1,-0.5 -1.1,0.7 h -2 l -1.1,-1.4 4.7,-0.5 z m 5.4,-0.1 1,0.1 0.7,0.7 v 1 L 29.9,572.1 29,571 Z m 2.5,0.3 1.3,-0.1 -0.1,1 -1.1,0.6 z m 0.3,2.2 3.4,-0.1 0.2,1.1 -1.3,0.1 -0.3,-0.5 -0.8,0.6 -0.4,-0.6 -0.9,-0.2 z m 166.3,7.6 2.1,0.1 -1,1.9 -1.1,-0.1 -0.4,-0.8 0.5,-1.3 m -1.1,-2.9 0.6,-1.3 -0.2,-2.3 2.4,-0.5 4.5,4.4 1.3,3.4 1.9,1.6 0.3,5.1 H 207 l -1.3,-2.3 -3.1,-2.4 H 202 l 1.1,2.8 1.7,0.2 0.2,2.1 -0.9,0.1 -4.1,-4.4 -0.1,-0.9 1.9,-1 v -1 l -0.5,-0.8 -1.6,-0.6 -1.7,-1.3 1.4,0.1 0.5,-0.4 -0.6,-0.9 -0.6,0.5 z m -3.6,-9.1 1.3,0.1 2.4,2.5 -0.2,0.8 -0.8,-0.1 -0.1,1.8 0.5,0.5 v 1.5 l -0.8,0.3 -0.4,1.2 -0.8,-0.4 -0.4,-2.2 1.1,-1.4 -2.1,-2.2 0.1,-1.2 z m 1.5,-1.5 1.9,0.2 2.5,0.1 3.4,3.2 -0.2,0.5 -1.1,0.6 -1.1,-0.2 -0.1,-0.7 -1.2,-1.6 -0.3,0.7 1,1.3 -0.2,1.2 -0.8,-0.1 -1.3,0.2 -0.1,-1.7 -2.6,-2.8 z m -12.7,-8.9 0.9,-0.4 h 1.6 l 0.7,-0.5 4.1,2.2 0.1,1.5 -0.5,0.5 h -0.8 l -1.4,-0.7 1.1,1.3 h 1.8 l 0.5,2 H 190 l -2.2,-1.5 -1.1,-0.2 0.6,1.3 0.1,0.9 0.8,-0.6 1.7,1.2 1.3,-0.1 -0.2,0.8 1.9,4.3 v 3.4 l 0.4,2.1 -0.8,0.3 -1.2,-2 -0.5,-1.5 -1.6,-1.6 -0.2,-2.7 -0.6,-1.7 h -0.7 l 0.3,1.1 v 0.5 l -1.4,1 0.1,-3.3 -1.6,-1.6 -1.3,-2.3 -1.2,-1.2 z m 7.2,-2.3 1.1,1.8 2.4,-0.1 1,2.1 -0.6,0.6 2,3.2 v 1.3 l -1.2,0.8 v 0.7 l -2,1.9 -0.5,-1.4 -0.1,-1.3 0.6,-0.7 v -1.1 l -1.5,-1.9 -0.5,-3.7 -0.9,-1.5 z m -56.7,-18.3 -4,4.1 v 1.6 l 2.1,-0.8 0.8,-1.9 2.2,-2.4 z m -31.6,16.6 v 0.6 l 1.8,1.2 0.2,-1.4 0.6,0.9 3.5,0.1 0.7,-0.6 0.2,-1.8 -0.5,-0.7 h -1.4 v -0.8 l 0.4,-0.6 v -0.4 l -1.5,-0.3 -3.3,3.6 z m -8.1,6.2 1.5,5.8 h 2.1 l 2.4,-2.5 0.3,1.2 6.3,-4 0.7,-1 -1,-1.1 v -0.7 l 0.5,-1.3 -0.9,-0.1 -2,1 V 556 l -2.7,-0.6 -2.4,0.3 -0.2,3.4 -0.8,-2 -1.5,-0.1 -1,0.6 z m -2.2,8.2 0.1,-0.7 2.1,-1.3 0.6,0.3 1.3,0.2 1.3,1.2 -2.2,-0.2 -0.4,-0.6 -1,0.6 z m -5.2,3.3 -1.1,0.8 1.5,1.4 0.8,-0.7 -0.1,-1.3 z m -6.3,-7.9 1.4,0.1 0.4,0.6 -1.8,0.1 z M 66,575.4 v 0.5 l 0.7,0.1 -0.1,-0.6 z m -0.4,-3.2 -1,1 v 0.5 l 0.7,1.1 1,-1 -0.7,-0.1 z m -2,-0.8 -0.3,1 -1.3,0.1 -0.4,0.2 v 1.3 l -0.5,0.9 h 0.6 l 0.7,-0.9 0.8,-0.1 0.9,-1 0.2,-1.3 z m -4.4,-2 -0.2,1.8 1.4,0.8 1.2,-0.6 v -1 l 1.7,-0.3 -0.1,-0.6 -0.9,-0.2 -0.7,0.6 -0.9,-0.5 z m -4.9,-0.1 1,0.7 -0.3,1.2 -1.4,-1.1 z m -4.2,1.3 1.4,0.1 -0.7,0.8 z m -3.5,3 1.8,1.1 -1.7,0.1 z m -25.4,-31.2 1.2,0.6 -0.8,0.6 z m -0.7,-6.3 0.4,1.2 0.8,-1.2 z m 24.3,-19.3 1.5,-0.1 0.9,0.4 1.1,-0.5 1.3,-0.1 1.6,0.8 0.8,1.9 -0.1,0.9 -1.2,2 -2.4,-0.2 -2.1,-1.8 -1,-0.4 -1.1,-2 z m -21.1,-14.4 0.1,1.9 2,2 v 0.5 L 25,506.6 23.3,505.8 23,504.7 22.7,503.1 Z M 42,479.1 v 1.2 l 1.9,1.8 h 2.3 l 0.6,1.1 v 1.6 l 2.1,1.9 1.8,1.2 -0.1,0.7 -0.7,1.1 -1.4,-1.2 -2.1,0.1 -0.8,-0.8 -0.9,-2.1 -1.5,-2.2 -2.6,-0.1 -1,-0.7 1,-2.1 z m 16.8,-4.5 h 1 l 0.1,1.1 h -1 z m 16.2,19.7 0.9,0.1 v 1.2 l -1.7,-0.5 z m 127.8,77.7 -1.2,0.4 -0.1,1.1 h 1.2 z m -157.6,-4.5 -1.3,-0.4 -4.1,0.6 -2.8,1.4 -0.1,1.9 1.9,0.7 1.5,-0.9 1.7,-0.1 4.7,1.4 0.1,-1.3 -1.6,-1.1 z m 2.1,2.3 -0.4,-1.4 1.2,0.2 0.1,1.4 H 50 l 0.4,-2.5 0.3,2.4 2.5,-0.1 3.2,-3.3 0.8,0.1 -0.7,1.3 1.4,0.9 4.2,-0.2 2.6,-1.2 1.4,-0.1 0.3,1.5 0.6,-0.5 0.4,-1.4 5.9,0.2 1.9,-1.6 -1.3,-1.1 0.6,-1.2 2.6,0.2 -0.2,-1.2 2.5,0.2 0.7,-1.1 1.1,0.2 4.6,-1.9 0.2,-1.7 5.6,-2.4 2,-1.9 1.2,-0.6 1.3,0.8 2.3,-0.9 1.1,-1.9 0.5,-1.3 1.7,-0.9 1.5,-0.7 0.4,-1.4 -1.1,-1.7 -2.2,-0.2 -0.2,-1.3 0.8,-1.6 1.4,-0.2 1.3,-1.5 1.9,-0.1 3.4,-3.2 0.4,-1.4 1.5,-2.3 3.8,-4.1 2.5,-0.9 1.9,-0.9 2.1,0.8 1.4,2.6 H 121 l -1.4,-1.5 -3,2 -1.7,0.1 -0.2,3.1 -3.1,4.9 0.6,2 h 2.3 l -0.6,1 -1.4,0.1 -2.4,1.8 v 0.9 l 1.9,1 3.4,-0.6 1.4,-1.7 1.4,0.1 3,-1.7 0.5,-2.3 1.6,-0.1 6.3,0.8 1,-1.1 1,-4.5 -1.6,1.1 0.6,-2.2 -1.6,-1.4 0.8,-1.5 0.1,1.5 h 3.4 l 0.7,-1 1.6,-0.1 -0.3,1.7 1.9,0.1 -1.9,1.3 4.1,1.1 -3.5,0.4 -1.3,1.2 0.9,1.4 4.6,-1.7 2.3,1.7 0.7,-0.9 0.6,1.4 4,2.3 h 2.9 l 3.9,-0.5 4.3,1.1 2,1.9 4.5,0.4 1.8,-1.5 0.8,2.4 -1.8,0.7 1.2,1.2 7.4,3.8 1.4,2.5 5.4,4.1 3.3,-2 -0.6,-2.2 -3.5,-2 3.1,1.2 0.5,-0.7 0.9,1.3 v 2.7 l 2.1,-0.6 2.1,1.8 -2.5,-9.8 1.2,1.3 1.4,6 2.2,2.5 2.4,-0.4 1.8,3.5 h 0.9 l 0.6,5.6 3.4,0.5 1.6,2.2 1.8,1.1 0.4,2.8 -1.8,2.6 2.9,1.6 1.2,-2.4 -0.2,3.1 -0.8,0.9 1.4,1.7 0.7,-2.4 -0.2,-1.2 0.8,0.2 0.6,2.3 -1,1.4 0.6,2.6 0.5,0.4 0.3,-1.6 0.7,0.6 -0.3,2 1.2,0.2 -0.4,0.9 1.7,-0.1 v -1 h -1 l 0.1,-1.7 -0.8,-0.6 1.7,-0.3 0.5,-0.8 v -1.6 l 0.5,1.3 -0.6,1.8 1.2,3.9 1.8,0.1 2.2,-4.2 0.1,-1.9 -1.3,-4 -0.1,-1.2 0.5,-1.2 -0.7,-0.7 -1.7,0.1 -2.5,-2 h -1.7 l -2,-1.4 h -1.5 l -0.5,-1.6 -1.4,-0.3 -0.2,-1.5 -1,-0.5 0.1,-1.7 -5.1,-7.4 -1.8,-1.5 V 554 l -4.3,-3.5 -0.7,-1.1 -1.6,-2 -1.9,-0.6 v -2.2 l -1.2,-1.3 -1.7,-0.7 -2.1,1.3 -1.6,2.1 -0.4,2.4 -1.5,0.1 -2.5,2.7 -0.8,-0.3 v -2.5 l -2.4,-2.2 -2.3,-2 -0.5,-2 -2.5,-1.3 0.2,-2.2 -2.8,-0.1 -0.7,1.1 h -1.2 l -0.7,-0.7 -1.2,0.8 -1.8,-1.2 v -85.8 l -6.9,-4.1 -1.8,-0.5 -2.2,1.1 -2.2,0.1 -2.3,-1.6 -4.3,-0.6 -5.8,-3.6 -5.7,-0.4 -2,0.5 -0.2,-1.8 -1.8,-0.7 1.1,-1 -0.2,-0.9 -3.2,-1.1 h -2.4 l -0.4,0.4 -0.9,-0.6 0.1,-2.6 -0.8,-0.9 -2.5,2.9 -0.8,-0.1 v -0.8 l 1.7,-0.8 v -0.8 l -1.9,-2.4 -1.1,-0.1 -4.5,3.1 h -3.9 l 0.4,-0.9 -1.8,-0.1 -5.2,3.4 h -1.8 l -0.6,-0.8 -2.7,1.5 -3.6,3.7 -2.8,2.7 -1.5,1.2 -2.6,0.1 -2.2,-0.4 -2.3,-1.3 v 0 l -2.8,3.9 -0.1,2.4 2.6,2.4 2.1,4.5 0.2,5.3 2.9,2 3.4,0.4 0.7,0.8 -1.5,2.3 0.7,2.7 -1.7,-2.6 v -2.4 l -1.5,-0.3 0.1,1.2 0.7,2.1 2.9,3.7 h -1.4 l -2.2,1.1 -6.2,-2.5 -0.1,-2 1.4,-1.3 v -1.4 l -2.1,-0.5 -2.3,0.2 -4.8,0.2 1.5,2.3 -1.9,-1.8 -8.4,1.2 -0.8,1.5 4.9,4.7 -0.8,1.4 -0.3,2 -0.7,0.8 -0.1,1.9 4.4,3.6 4.1,0.2 4.6,1.9 h 2 l 0.8,-0.6 3.8,0.1 0.1,-0.8 1.2,1.1 0.1,2 -2.5,-0.1 0.1,3.3 0.5,3.2 -2.9,2.7 -1.9,-0.1 -2,-0.8 -1,0.1 -3.1,2.1 -1.7,0.2 -1.4,-2.8 H 66 l -2.2,2 -0.5,1.8 -3.3,1.8 -5.3,4.3 -0.3,3.1 0.7,2.2 1,1.2 1,-0.4 0.9,1 -0.8,0.6 -1.5,0.9 1.1,1.5 -2.6,1.1 0.8,2.2 1.7,2.3 0.8,4.1 4,1.5 2.6,-0.8 1.7,-1.1 0.5,2.1 0.3,4.4 -1.9,1.4 v 4.4 l -0.6,0.9 h -1.7 l 1.7,1.2 2.1,-0.1 0.4,-1 4.6,-0.6 2,2.6 1.3,-0.7 1.3,5.1 1,0.5 1,-0.7 0.1,-2.4 0.9,-1 0.7,1.1 0.2,1.6 1.6,0.4 4.7,-1.2 0.2,1.2 -2,1.1 -1.6,1.7 -2.8,7 -4.3,2 -1.4,1.5 -0.3,1.4 -1,-0.6 -9.3,3.3 -1.8,4.1 -1.3,-0.4 0.5,-1.1 -1.5,-1.4 -3.5,-0.2 -5.3,3.2 -2.2,1.3 h -2.3 l -0.5,2.4 z"
           id="path2357"
           style="fill:#7e9f76;fill-opacity:1"><title
             id="title2355">Alaska</title></path><path
           class="az"
           d="m 139.6,387.6 3,-2.2 0.8,-2.4 -1,-1.6 -1.8,-0.2 -1.1,-1.6 1.1,-6.9 1.6,-0.3 2.4,-3.2 1.6,-7 2.4,-3.6 4.8,-1.7 1.3,-1.3 -0.4,-1.9 -2.3,-2.5 -1.2,-5.8 -1.4,-1.8 -1.3,-3.4 0.9,-2.1 1.4,-3 0.5,-2.9 -0.5,-4.9 1,-13.6 3.5,-0.6 3.7,1.4 1.2,2.7 h 2 l 2.4,-2.9 3.4,-17.5 46.2,8.2 40,6 -17.4,124.1 -37.3,-5.4 -64.2,-37.5 0.5,-2.9 2,-1.8 z"
           id="path2361"
           style="fill:#7e9f76;fill-opacity:1"><title
             id="title2359">Arizona</title></path><path
           class="ar"
           d="m 584.2,367 0.9,-2.2 1.2,0.5 0.7,-1 -0.8,-0.7 0.3,-1.5 -1.1,-0.9 0.6,-1 -0.1,-1.5 -1.1,-0.1 0.8,-0.8 1.3,0.8 0.3,-1.4 -0.4,-1.1 0.1,-0.7 2,0.6 -0.4,-1.5 1.6,-1.3 -0.5,-0.9 -1.1,0.1 -0.6,-0.9 0.9,-0.9 1.6,-0.2 0.5,-0.8 1.4,-0.2 -0.1,-0.8 -0.9,-0.9 v -0.5 h 1.5 l 0.4,-0.7 -1.4,-1 -0.1,-0.6 -11.2,0.8 2.8,-5.1 1.7,-1.5 v -2.2 l -1.6,-2.5 -39.8,2 -39.1,0.7 4.1,24.4 -0.7,39 2.6,2.3 2.8,-1.3 3.2,0.8 0.2,11.9 52.3,-1.3 1.2,-1.5 0.5,-3 -1.5,-2.3 -0.5,-2.2 0.9,-0.7 v -0.8 l -1.7,-1.1 -0.1,-0.7 1.6,-0.9 -1.2,-1.1 1.7,-7.1 3.4,-1.6 v -0.8 l -1.1,-1.4 2.9,-5.4 h 1.9 l 1.5,-1.2 -0.3,-5.2 3.1,-4.5 1.8,-0.6 -0.5,-3.1 z"
           id="path2365"
           style="fill:#7e9f76;fill-opacity:1"><title
             id="title2363">Arkansas</title></path><path
           class="ca"
           d="m 69.4,365.6 3.4,5.2 -1.4,0.1 -1.8,-1.9 z m 1.9,-9.8 1.8,4.1 2.6,1 0.7,-0.6 -1.3,-2.5 -2.6,-2.4 z m -19.9,-19 v 2.4 l 2,1.2 4.4,-0.2 1,-1 -3.1,-0.2 z m -5.9,0.1 3.3,0.5 1.4,2.2 h -3.8 z m 47.9,45.5 -1,-3 0.2,-3 -0.4,-7.9 -1.8,-4.8 -1.2,-1.4 -0.6,-1.5 -7,-8.6 -3.6,0.1 -2,-1.9 1.1,-1.8 -0.7,-3.7 -2.2,-1.2 -3.9,-0.6 -2.8,-1.3 -1.5,-1.9 -4.5,-6.6 -2.7,-2.2 -3.7,-0.5 -3.1,-2.3 -4.7,-1.5 -2.8,-0.3 -2.5,-2.5 0.2,-2.8 0.8,-4.8 1.8,-5.1 -1.4,-1.6 -4,-9.4 -2.7,-3.7 -0.4,-3 -1.6,-2.3 0.2,-2.5 -2,-5 -2.9,-2.7 0.6,-7.1 2.4,-0.8 1.8,-3.1 -0.4,-3.2 -1,-0.9 h -2.5 l -2.5,-3.3 -1.5,-3.5 v -7.5 l 1.2,-4.2 0.2,-2.1 2.5,0.2 -0.1,1.6 -0.8,0.7 v 2.5 l 3.7,3.2 v -4.7 l -1.4,-3.4 0.5,-1.1 -1,-1.7 2.8,-1.5 -1.9,-3 -1.4,0.5 -1.5,3.8 0.5,1.3 -0.8,1 -0.9,-0.1 -5.4,-6.1 0.7,-5.6 -1.1,-3.9 -6.5,-12.8 0.8,-10.7 2.3,-3.6 0.2,-6.4 -5.5,-11.1 0.3,-5.2 6.9,-7.5 1.7,-2.4 -0.1,-1.4 4,-9.2 0.1,-8.4 0.9,-2.5 66.1,18.6 -16.4,63.1 1.1,3.5 70.4,105 -0.9,2.1 1.3,3.4 1.4,1.8 1.2,5.8 2.3,2.5 0.4,1.9 -1.3,1.3 -4.8,1.7 -2.4,3.6 -1.6,7 -2.4,3.2 -1.6,0.3 -1.1,6.9 1.1,1.6 1.8,0.2 1,1.6 -0.8,2.4 -3,2.2 -2.2,-0.1 z"
           id="path2369"
           style="fill:#7e9f76;fill-opacity:1"><title
             id="title2367">California</title></path><path
           class="co"
           d="m 374.6,323.3 -16.5,-1 -51.7,-4.8 -52.6,-6.5 11.5,-88.3 44.9,5.7 37.5,3.4 33.1,2.4 -1.4,22.1 z"
           id="path2373"
           style="fill:#7e9f76;fill-opacity:1"><title
             id="title2371">Colorado</title></path><path
           class="ct"
           d="m 873.5,178.9 0.4,-1.1 -3.2,-12.3 -0.1,-0.3 -14.9,3.4 v 0.7 l -0.9,0.3 -0.5,-0.7 -10.5,2.4 2.8,16.3 1.8,1.5 -3.5,3.4 1.7,2.2 5.4,-4.5 1.7,-1.3 h 0.8 l 2.4,-3.1 1.4,0.1 2.9,-1.1 h 2.1 l 5.3,-2.7 2.8,-0.9 1,-1 1.5,0.5 z"
           id="path2377"
           style="fill:#7e9f76;fill-opacity:1"><title
             id="title2375">Connecticut</title></path><path
           class="de"
           d="m 822.2,226.6 -1.6,0.3 -1.5,1.1 -1.2,2.1 7.6,27.1 10.9,-2.3 -2.2,-7.6 -1.1,0.5 -3.3,-2.6 -0.5,-1.7 -1.8,-1 -0.2,-3.7 -2.1,-2.2 -1.1,-0.8 -1.2,-1.1 -0.4,-3.2 0.3,-2.1 1,-2.2 z"
           id="path2381"
           style="fill:#7e9f76;fill-opacity:1"><title
             id="title2379">Delaware</title></path><path
           class="fl"
           d="m 751.7,445.1 -4,-0.7 -1.7,-0.9 -2.2,1.4 v 2.5 l 1.4,2.1 -0.5,4.3 -2.1,0.6 -1,-1.1 -0.6,-3.2 -50.1,3.3 -3.3,-6 -48.8,5.1 -0.5,2.9 2.5,2.8 1.7,0.7 0.9,1.2 -0.4,7.3 -1.1,0.6 0.5,0.4 1,-0.3 0.7,-0.8 10.5,-2.7 9.2,-0.5 8.1,1.9 8.5,5 2.4,0.8 2.2,2 -0.1,2.7 h 2.4 l 1.9,-1 2.5,0.1 2,-0.8 2.9,-2 3.1,-2.9 1.1,-0.4 0.6,0.5 h 1.4 l 0.5,-0.8 -0.5,-1.2 -0.6,-0.6 0.2,-0.8 2,-1.1 5,-0.4 0.8,1 1,0.1 2.3,1 3,1.8 1.2,1.7 1.1,1.2 2.8,1.4 v 2.4 l 2.8,1.9 1,0.1 1.6,1.4 0.7,1.6 1,0.2 0.8,2.1 0.7,0.6 1,-1.1 2.9,0.1 0.5,1.4 1.1,0.9 v 1.3 l 2.9,2.2 0.2,9.6 -1.8,5.8 1,1.2 -0.2,3.4 -0.8,1.4 0.7,1.2 2.3,2.3 0.3,1.5 0.8,1 -0.4,-1.9 1.3,-0.6 0.8,-3.6 -3,-1.2 0.1,-0.6 2.6,-0.4 0.9,2.6 1.1,0.6 0.1,-2 1.1,0.3 0.6,0.8 -0.1,0.7 -2.9,4.2 -0.2,1.1 -1.7,1.9 v 1.1 l 3.7,3.8 5.3,7.9 1.8,2.1 v 1.8 l 2.8,4.6 2.3,0.6 0.7,-1.2 -2.1,0.3 -3,-4.5 0.2,-1.4 1.5,-0.8 v -1.5 l -0.6,-1.3 0.9,-0.9 0.4,0.9 0.7,0.5 v 4 l -1.2,-0.6 -0.8,0.9 1.4,1.6 1,2.6 1.2,-0.6 2.3,1.2 2.1,2.2 1.6,5.1 3.1,4.8 0.8,-1.3 2.8,-0.5 3.2,1.3 0.3,1.7 3.3,3.8 0.1,1.1 2.2,2.7 -0.7,0.5 v 2.7 l 2.7,1.4 h 1.5 l 2.7,-1.8 1.5,0.3 1.1,0.4 2.3,-1.7 0.2,-0.7 1.2,0.3 2.4,-1.7 1.3,-2.3 -0.7,-3.2 -0.2,-1.3 1.1,-4 0.6,-0.2 0.6,1.6 0.8,-1.8 -0.8,-7.2 -0.4,-10.5 -1,-6.8 -0.7,-1.7 -6.6,-11.1 -5.2,-9.1 -2.2,-3.3 -1.3,-3.6 -0.2,-3.4 0.9,-0.3 v -0.9 l -1.1,-2.2 -4,-4 -7.6,-9.7 -5.7,-10.4 -4.3,-10.7 -0.6,-3.7 -1.2,-1 -0.5,-3.8 z m 9.2,134.5 1.7,-0.1 -0.7,-1 z m 7.3,-1.1 v -0.7 l 1.6,-0.2 3.7,-3.3 1.5,-0.6 2.4,-0.9 0.3,1.3 1.7,0.8 -2.6,1.2 h -2.4 l -3.9,2.5 z m 17.2,-7.6 -3,1.4 -1,1.3 1.1,0.1 z m 3.8,-2.9 -1.1,0.3 -1.4,2 1.1,-0.2 1.5,-1.6 z m 8.3,-15.7 -1.7,5.6 -0.8,1 -1,2.6 -1.2,1.6 -0.7,1.7 -1.9,2.2 v 0.9 l 2.7,-2.8 2.4,-3.5 0.6,-2 2.1,-4.9 z"
           id="path2385"
           style="fill:#7e9f76;fill-opacity:1"><title
             id="title2383">Florida</title></path><path
           class="ga"
           d="m 761.8,414.1 v 1.4 l -4.2,6.2 -1.2,0.2 1.5,0.5 v 2 l -0.9,1.1 -0.6,6 -2.3,6.2 0.5,2 0.7,5.1 -3.6,0.3 -4,-0.7 -1.7,-0.9 -2.2,1.4 v 2.5 l 1.4,2.1 -0.5,4.3 -2.1,0.6 -1,-1.1 -0.6,-3.2 -50.1,3.3 -3.3,-6 -0.7,-2.2 -1.5,-1.5 -0.5,-1.4 0.6,-6.3 -2.4,-5.7 0.5,-2.6 0.3,-3.7 2.2,-3.8 -0.2,-1.1 -1.7,-1 v -3.2 l -1.8,-1.9 -2.9,-6.1 -12.9,-45.8 22.9,-2.9 21.4,-3 -0.1,1.9 -1.9,1 -1.4,3.2 0.2,1.3 6.1,3.8 2.6,-0.3 3.1,4 0.4,1.7 4.2,5.1 2.6,1.7 1.4,0.2 2.2,1.6 1.1,2.2 2,1.6 1.8,0.5 2.7,2.7 0.1,1.4 2.6,2.8 5,2.3 3.6,6.7 0.3,2.7 3.9,2.1 2.5,4.8 0.8,3.1 4.2,0.4 z"
           id="path2389"
           style="fill:#7e9f76;fill-opacity:1"><title
             id="title2387">Georgia</title></path><!-- Hawaii is shown in the same scale as the contiguous United States. The Northwestern Hawaiian Islands are not shown. --><path
           class="hi"
           d="m 317,553.7 -0.2,3.2 1.7,1.9 0.1,1.2 -4.8,4.5 -0.1,1.2 1.9,3.2 1.7,4.2 v 2.6 l -0.5,1.2 0.1,3.4 4.1,2.1 1.1,1.1 1.2,-1.1 2.1,-3.6 4.5,-2.9 3.3,-0.5 2.5,-1 1.7,-1.2 3.2,-3.5 -2.8,-1.1 -1.4,-1.4 0.1,-1.7 -0.5,-0.6 h -2 l 0.2,-2.5 -0.7,-1.2 -2.6,-2.3 -4.5,-1.9 -2.8,-0.2 -3.3,-2.7 -1.2,-0.6 z m -15.3,-17 -1.1,1.5 -0.1,1.7 2.7,2.4 1.9,0.5 0.6,1 0.4,3 3.6,0.2 5.3,-2.6 -0.1,-2.5 -1.4,-0.5 -3.5,-2.6 -1.8,-0.3 -2.9,1.3 -1.5,-2.7 z m -1.5,11.5 0.9,-1.4 2.5,-0.3 0.6,1.8 z m -7,-8.7 1.7,4 3.1,-0.6 0.3,-2 -1.4,-1.5 z m -4.1,-6.7 -1.1,2.4 h 5 l 4.8,1.6 2.5,-1.6 0.2,-1.5 -4.8,0.2 z m -16,-10.6 -1.9,2.1 -2.9,0.6 0.8,2.2 2.2,2.8 0.1,1 2.1,-0.3 2.3,0.1 1.7,1.2 3.5,-0.8 v -0.7 l -1,-0.8 -0.5,-2.1 -0.8,-0.3 -0.5,1 -1.2,-1.3 0.2,-1.4 -1.8,-3.3 -1.1,-0.7 z m -31.8,-12.4 -4.2,2.9 0.2,2.3 2.4,1.2 1.9,1.3 2.7,0.4 2.6,-2.2 -0.2,-1.9 0.8,-1.7 v -1.4 l -1,-0.9 z m -10.8,4.8 -0.3,1.2 -1.9,0.9 -0.6,1.8 1,0.8 1.1,-1.5 1.9,-0.6 0.4,-2.6 z"
           id="path2393"
           style="fill:#7e9f76;fill-opacity:1"><title
             id="title2391">Hawaii</title></path><path
           class="id"
           d="m 165.3,183.1 -24.4,-5.4 8.5,-37.3 2.9,-5.8 0.4,-2.1 0.8,-0.9 -0.9,-2 -2.9,-1.2 0.2,-4.2 4,-5.8 2.5,-0.8 1.6,-2.3 -0.1,-1.6 1.8,-1.6 3.2,-5.5 4.2,-4.8 -0.5,-3.2 -3.5,-3.1 -1.6,-3.6 1.1,-4.3 -0.7,-4 12.7,-56.1 14.2,3 -4.8,22 3.7,7.4 -1.6,4.8 3.6,4.8 1.9,0.7 3.9,8.3 v 2.1 l 2.3,3 h 0.9 l 1.4,2.1 h 3.2 v 1.6 l -7.1,17 -0.5,4.1 1.4,0.5 1.6,2.6 2.8,-1.4 3.6,-2.4 1.9,1.9 0.5,2.5 -0.5,3.2 2.5,9.7 2.6,3.5 2.3,1.4 0.4,3 v 4.1 l 2.3,2.3 1.6,-2.3 6.9,1.6 2.1,-1.2 9,1.7 2.8,-3.3 1.8,-0.6 1.2,1.8 1.6,4.1 0.9,0.1 -8.5,54.8 -47.9,-8.2 z"
           id="path2397"
           style="fill:#7e9f76;fill-opacity:1"><title
             id="title2395">Idaho</title></path><path
           class="il"
           d="m 623.5,265.9 -1,5.2 v 2 l 2.4,3.5 v 0.7 l -0.3,0.9 0.9,1.9 -0.3,2.4 -1.6,1.8 -1.3,4.2 -3.8,5.3 -0.1,7 h -1 l 0.9,1.9 v 0.9 l -2.2,2.7 0.1,1.1 1.5,2.2 -0.1,0.9 -3.7,0.6 -0.6,1.2 -1.2,-0.6 -1,0.5 -0.4,3.3 1.7,1.8 -0.4,2.4 -1.5,0.3 -6.9,-3 -4,3.7 0.3,1.8 h -2.8 l -1.4,-1.5 -1.8,-3.8 v -1.9 l 0.8,-0.6 0.1,-1.3 -1.7,-1.9 -0.9,-2.5 -2.7,-4.1 -4.8,-1.3 -7.4,-7.1 -0.4,-2.4 2.8,-7.6 -0.4,-1.9 1.2,-1.1 v -1.3 l -2.8,-1.5 -3,-0.7 -3.4,1.2 -1.3,-2.3 0.6,-1.9 -0.7,-2.4 -8.6,-8.4 -2.2,-1.5 -2.5,-5.9 -1.2,-5.4 1.4,-3.7 0.7,-0.7 0.1,-2.3 -0.7,-0.9 1,-1.5 1.8,-0.6 0.9,-0.3 1,-1.2 v -2.4 l 1.7,-2.4 0.5,-0.5 0.1,-3.5 -0.9,-1.4 -1,-0.3 -1.1,-1.6 1,-4 3,-0.8 h 2.4 l 4.2,-1.8 1.7,-2.2 0.1,-2.4 1.1,-1.3 1.3,-3.2 -0.1,-2.6 -2.8,-3.5 h -1.2 l -0.9,-1.1 0.2,-1.6 -1.7,-1.7 -2.5,-1.3 0.5,-0.6 45.9,-2.8 0.1,4.6 3.4,4.6 1.2,4.1 1.6,3.2 z"
           id="path2401"
           style="fill:#7e9f76;fill-opacity:1"><title
             id="title2399">Illinois</title></path><path
           class="in"
           d="m 629.2,214.8 -5.1,2.3 -4.7,-1.4 4.1,50.2 -1,5.2 v 2 l 2.4,3.5 v 0.7 l -0.3,0.9 0.9,1.9 -0.3,2.4 -1.6,1.8 -1.3,4.2 -3.8,5.3 -0.1,7 h -1 l 0.9,1.9 1.1,0.8 0.6,-1 -0.7,-1.7 4.6,-0.5 0.2,1.2 1.1,0.2 0.4,-0.9 -0.6,-1.3 0.3,-0.8 1.3,0.8 1.7,-0.4 1.7,0.6 3.4,2.1 1.8,-2.8 3.5,-2.2 3,3.3 1.6,-2.1 0.3,-2.7 3.8,-2.3 0.2,1.3 1.9,1.2 3,-0.2 1.2,-0.7 0.1,-3.4 2.5,-3.7 4.6,-4.4 -0.1,-1.7 1.2,-3.8 2.2,1 6.7,-4.5 -0.4,-1.7 -1.5,-2.1 1,-1.9 -6.6,-57.2 -0.1,-1.4 -32.4,3.4 z"
           id="path2405"
           style="fill:#7e9f76;fill-opacity:1"><title
             id="title2403">Indiana</title></path><path
           class="ia"
           d="m 556.9,183 2.1,1.6 0.6,1.1 -1.6,3.3 -0.1,2.5 2,5.5 2.7,1.5 3.3,0.7 1.3,2.8 -0.5,0.6 2.5,1.3 1.7,1.7 -0.2,1.6 0.9,1.1 h 1.2 l 2.8,3.5 0.1,2.6 -1.3,3.2 -1.1,1.3 -0.1,2.4 -1.7,2.2 -4.2,1.8 h -2.4 l -3,0.8 -1,4 1.1,1.6 1,0.3 0.9,1.4 -0.1,3.5 -0.5,0.5 -1.7,2.4 v 2.4 l -1,1.2 -0.9,0.3 -1.8,0.6 -1,1.5 0.7,0.9 -0.1,2.3 -0.7,0.7 -1.5,-0.8 -1.1,-1.1 -0.6,-1.6 -1.7,-1.3 -14.3,0.8 -27.2,1.2 -25.9,-0.1 -1.8,-4.4 0.7,-2.2 -0.8,-3.3 0.2,-2.9 -1.3,-0.7 -0.4,-6.1 -2.8,-5 -0.2,-3.7 -2.2,-4.3 -1.3,-3.7 v -1.4 l -0.6,-1.7 v -2.3 l -0.5,-0.9 -0.7,-1.7 -0.3,-1.3 -1.3,-1.2 1,-4.3 1.7,-5.1 -0.7,-2 -1.3,-0.4 -0.4,-1.6 1,-0.5 0.1,-1.1 -1.3,-1.5 0.1,-1.6 2.2,0.1 h 28.2 l 36.3,-0.9 18.6,-0.7 z"
           id="path2409"
           style="fill:#7e9f76;fill-opacity:1"><title
             id="title2407">Iowa</title></path><path
           class="ks"
           d="m 459.1,259.5 -43.7,-1.2 -36,-2 -4.8,67 67.7,2.9 62,0.1 -0.5,-48.1 -3.2,-0.7 -2.6,-4.7 -2.5,-2.5 0.5,-2.3 2.7,-2.6 0.1,-1.2 -1.5,-2.1 -0.9,1 -2,-0.6 -2.9,-3 z"
           id="path2413"
           style="fill:#7e9f76;fill-opacity:1"><title
             id="title2411">Kansas</title></path><path
           class="ky"
           d="m 692.1,322.5 -20.5,1.4 -5.2,0.8 -17.4,1 -2.6,0.8 -22.6,2 -0.7,-0.6 h -3.7 l 1.2,3.2 -0.6,0.9 -23.3,1.5 1,-2.7 1.4,0.9 0.7,-0.4 1.2,-4.1 -1,-1 1,-2 0.2,-0.9 -1.3,-0.8 -0.3,-1.8 4,-3.7 6.9,3 1.5,-0.3 0.4,-2.4 -1.7,-1.8 0.4,-3.3 1,-0.5 1.2,0.6 0.6,-1.2 3.7,-0.6 0.1,-0.9 -1.5,-2.2 -0.1,-1.1 2.2,-2.7 v -0.9 l 1.1,0.8 0.6,-1 -0.7,-1.7 4.6,-0.5 0.2,1.2 1.1,0.2 0.4,-0.9 -0.6,-1.3 0.3,-0.8 1.3,0.8 1.7,-0.4 1.7,0.6 3.4,2.1 1.8,-2.8 3.5,-2.2 3,3.3 1.6,-2.1 0.3,-2.7 3.8,-2.3 0.2,1.3 1.9,1.2 3,-0.2 1.2,-0.7 0.1,-3.4 2.5,-3.7 4.6,-4.4 -0.1,-1.7 1.2,-3.8 2.2,1 6.7,-4.5 -0.4,-1.7 -1.5,-2.1 1,-1.9 1.3,0.5 2.2,0.1 1.9,-0.8 2.9,1.2 2.2,3.4 v 1 l 4.1,0.7 2.3,-0.2 1.9,2.1 2.2,0.2 v -1 l 1.9,-0.8 3,0.8 1.2,0.8 1.3,-0.7 h 0.9 l 0.6,-1.7 3.4,-1.8 0.5,0.8 0.8,2.9 3.5,1.4 1.2,2.1 -0.1,1.1 0.6,1 -0.6,3.6 1.9,1.6 0.8,1.1 1,0.6 -0.1,0.9 4.4,5.6 h 1.4 l 1.5,1.8 1.2,0.3 1.4,-0.1 -4.9,6.6 -2.9,1 -3,3 -0.4,2.2 -2.1,1.3 -0.1,1.7 -1.4,1.4 -1.8,0.5 -0.5,1.9 -1,0.4 -6.9,4.2 z m -98,11.3 -0.7,-0.7 0.2,-1 h 1.1 l 0.7,0.7 -0.3,1 z"
           id="path2417"
           style="fill:#7e9f76;fill-opacity:1"><title
             id="title2415">Kentucky</title></path><path
           class="la"
           d="m 602.5,472.8 -1.2,-1.8 0.3,-1.3 -4.8,-6.8 0.9,-4.6 1,-1.4 0.1,-1.4 -36,2 1.7,-11.9 2.4,-4.8 6,-8.4 -1.8,-2.5 h 2 v -3.3 l -2.4,-2.5 0.5,-1.7 -1.2,-1 -1.6,-7.1 0.6,-1.4 -52.3,1.3 0.5,19.9 0.7,3.4 2.6,2.8 0.7,5.4 3.8,4.6 0.8,4.3 h 1 l -0.1,7.3 -3.3,6.4 1.3,2.3 -1.3,1.5 0.7,3 -0.1,4.3 -2.2,3.5 -0.1,0.8 -1.7,1.2 1,1.8 1.2,1.1 1.6,-1.3 5.3,-0.9 6.1,-0.1 9.6,3.8 8,1 1.5,-1.4 1.8,-0.2 4.8,2.2 1.6,-0.4 1.1,-1.5 -4.2,-1.8 -2.2,1 -1.1,-0.2 -1.4,-2 3.3,-2.2 1.6,-0.1 v 1.7 l 1.5,-0.1 3.4,-0.3 0.4,2.3 1.1,0.4 0.6,1.9 4.8,1 1.7,1.6 v 0.7 h -1.2 l -1.5,1.7 1.7,1.2 5.4,1 2.7,2.8 4.4,-1 -3.7,0.2 -0.1,-0.6 2.8,-0.7 0.2,-1.8 1.2,-0.3 V 494 l 1.1,0.1 v 1.6 l 2.5,0.1 0.8,-1.9 0.9,0.3 0.2,2.5 1.2,0.2 -1.8,2 2.6,-0.9 2,-1.1 2.9,-3.3 h -0.7 l -1.3,1.2 -0.4,-0.1 -0.5,-0.8 0.9,-1.2 v -2.3 l 1.1,-0.8 0.7,0.7 1,-0.8 1,-0.1 0.6,1.3 -0.6,1.9 h 2.4 l 5.1,1.7 0.5,1.3 1.6,1.4 2.8,0.1 1.3,0.7 1.8,-1 0.9,-1.7 v -1.7 h -1.4 l -1.2,-1.4 -1.1,-1.1 -3.2,-0.9 -2.6,0.2 -4.2,-2.4 v -2.3 l 1.3,-1 2.4,0.6 -3.1,-1.6 0.2,-0.8 h 3.6 l 2.6,-3.5 -2.6,-1.8 0.8,-1.5 -1.2,-0.8 h -0.8 l -2,2.1 v 2.1 l -0.6,0.7 -1.1,-0.1 -1.6,-1.4 h -1.3 V 477 l 0.6,-0.7 0.8,0.7 1.7,-1.6 0.7,-1.6 0.8,-0.3 z m -10.3,-2.7 1.9,1 0.8,1.1 2.5,0.1 1.5,0.8 0.2,1.4 -0.4,0.6 -0.9,-1.5 -1.4,1.2 -0.9,1.4 -2.8,0.8 -1.6,0.1 -3.7,-1 0.1,-1.7 2,-2 1.1,-2.4 z m -4.7,1.2 v 1.1 l -1.8,2 h -1.2 v -2.2 l 1.6,-1.5 z"
           id="path2421"
           style="fill:#7e9f76;fill-opacity:1"><title
             id="title2419">Louisiana</title></path><path
           class="me"
           d="m 875,128.7 0.6,4 3.2,2 0.8,2.2 2.3,1.4 1.4,-0.3 1,-3 -0.8,-2.9 1.6,-0.9 0.5,-2.8 -0.6,-1.3 3.3,-1.9 -2.2,-2.3 0.9,-2.4 1.4,-2.2 0.5,3.2 1.6,-2 1.3,0.9 1.2,-0.8 v -1.7 l 3.2,-1.3 0.3,-2.9 2.5,-0.2 2.7,-3.7 v -0.7 l -0.9,-0.5 -0.1,-3.3 0.6,-1.1 0.2,1.6 1,-0.5 -0.2,-3.2 -0.9,0.3 -0.1,1.2 -1.2,-1.4 0.9,-1.4 0.6,0.1 1.1,-0.4 0.5,2.8 2,-0.3 2.9,0.7 v -1 l -1.1,-1.2 1.3,0.1 0.1,-2.3 0.6,0.8 0.3,1.9 2.1,1.5 0.2,-1 0.9,-0.2 -0.3,-0.8 0.8,-0.6 -0.1,-1.6 -1.6,-0.2 -2,0.7 1.4,-1.6 0.7,-0.8 1.3,-0.2 0.4,1.3 1.7,1.6 0.4,-2.1 2.3,-1.2 -0.9,-1.3 0.1,-1.7 1.1,0.5 h 0.7 l 1.7,-1.4 0.4,-2.3 2.2,0.3 0.1,-0.7 0.2,-1.6 0.5,1.4 1.5,-1 2.3,-4.1 -0.1,-2.2 -1.4,-2 -3,-3.2 H 921 l -0.8,2.2 -2.9,-3 0.3,-0.8 v -1.5 l -1.6,-4.5 -0.8,-0.2 -0.7,0.4 h -4.8 l -0.3,-3.6 -8.1,-26 -7.3,-3.7 -2.9,-0.1 -6.7,6.6 -2.7,-1 -1,-3.9 H 878 l -6.9,19.5 0.7,6.2 -1.7,2.4 -0.4,4.6 1.3,3.7 0.8,0.2 v 1.6 l -1.6,4.5 -1.5,1.4 -1.3,2.2 -0.4,7.8 -2.4,-1 -1.5,0.4 z m 34.6,-24.7 -1,0.8 v 1.3 l 0.7,-0.8 0.9,0.8 0.4,-0.5 1.1,0.2 -1,-0.8 0.4,-0.8 z m -1.7,2.6 -1,1.1 0.5,0.4 -0.1,1 h 1.1 v -1.8 z m -3,-1.6 0.9,1.3 1,0.5 0.3,-1 V 104 l -1.3,-0.7 -0.4,1.2 z m -1,5 -1.7,-1.7 1.6,-2.4 0.8,0.3 0.2,1.1 1,0.8 v 1.1 l -1,1 z"
           id="path2425"
           style="fill:#7e9f76;fill-opacity:1"><title
             id="title2423">Maine</title></path><path
           class="md"
           d="m 822.9,269.3 v -1.7 h -0.8 v 1.8 z m 11.8,-3.9 1.2,-2.2 0.1,-2.5 -0.6,-0.6 -0.7,0.9 -0.2,2.1 -0.8,1.4 -0.3,1.1 -4.6,1.6 -0.7,0.8 -1.3,0.2 -0.4,0.9 -1.3,0.6 -0.3,-2.5 0.4,-0.7 -0.8,-0.5 0.2,-1.5 -1.6,1 v -2 l 1.2,-0.3 -1.9,-0.4 -0.7,-0.8 0.4,-1.3 -0.8,-0.6 -0.7,1.6 0.5,0.8 -0.7,0.6 -1.1,0.5 -2,-1 -0.2,-1.2 -1,-1.1 -1.4,-1.7 1.5,-0.8 -1,-0.6 v -0.9 l 0.6,-1 1.7,-0.3 -1.4,-0.6 -0.1,-0.7 -1.3,-0.1 -0.4,1.1 -0.6,0.3 0.1,-3.4 1,-1 0.8,0.7 0.1,-1.6 -1,-0.9 -0.9,1.1 -1,1.4 -0.6,-1 0.2,-2.4 0.9,-1 0.9,0.9 1.2,-0.7 -0.4,-1.7 -1,1 -0.9,-2.1 -0.2,-1.7 1.1,-2.4 1.1,-1.4 1.4,-0.2 -0.5,-0.8 0.5,-0.6 -0.3,-0.7 0.2,-2.1 -1.5,0.4 -0.8,1.1 1,1.3 -2.6,3.6 -0.9,-0.4 -0.7,0.9 -0.6,2.2 -1.8,0.5 1.3,0.6 1.3,1.3 -0.2,0.7 0.9,1.2 -1.1,1 0.5,0.3 -0.5,1.3 v 2.1 l -0.5,1.3 0.9,1.1 0.7,3.4 1.3,1.4 1.6,1.4 0.4,2.8 1.6,2 0.4,1.4 v 1 h -0.7 l -1.5,-1.2 -0.4,0.2 -1.2,-0.2 -1.7,-1.4 -1.4,-0.3 -1,0.5 -1.2,-0.3 -0.4,0.2 -1.7,-0.8 -1,-1 -1,-1.3 -0.6,-0.2 -0.8,0.7 -1.6,1.3 -1.1,-0.8 -0.4,-2.3 0.8,-2.1 -0.3,-0.5 0.3,-0.4 -0.7,-1 1,-0.1 1,-0.9 0.4,-1.8 1.7,-2.6 -2.6,-1.8 -1,1.7 -0.6,-0.6 h -1 l -0.6,-0.1 -0.4,-0.4 0.1,-0.5 -1.7,-0.6 -0.8,0.3 -1.2,-0.1 -0.7,-0.7 -0.5,-0.2 -0.2,-0.7 0.6,-0.8 v -0.9 l -1.2,-0.2 -1,-0.9 -0.9,0.1 -1.6,-0.3 -0.9,-0.4 0.2,-1.6 -1,-0.5 -0.2,-0.7 h -0.7 l -0.8,-1.2 0.2,-1 -2.6,0.4 -2.2,-1.6 -1.4,0.3 -0.9,1.4 h -1.3 l -1.7,2.9 -3.3,0.4 -1.9,-1 -2.6,3.8 -2.2,-0.3 -3.1,3.9 -0.9,1.6 -1.8,1.6 -1.7,-11.4 60.5,-11.8 7.6,27.1 10.9,-2.3 v 5.3 l -0.1,3.1 -1,1.8 z m -13.4,-1.8 -1.3,0.9 0.8,1.8 1.7,0.8 -0.4,-1.6 z"
           id="path2429"
           style="fill:#7e9f76;fill-opacity:1"><title
             id="title2427">Maryland</title></path><path
           class="ma"
           d="m 899.9,174.2 h 3.4 l 0.9,-0.6 0.1,-1.3 -1.9,-1.8 0.4,1 -1.5,1.5 H 899 l 0.1,0.8 z m -9,1.8 -1.2,-0.6 1,-0.8 0.6,-2.1 1.2,-1 0.8,-0.2 0.6,0.9 1.1,0.2 0.6,-0.6 0.5,1.9 -1.3,0.3 -2.8,0.7 z m -34.9,-23.4 18.4,-3.8 1,-1.5 0.3,-1.7 1.9,-0.6 0.5,-1.1 1.7,-1.1 1.3,0.3 1.7,3.3 1,0.4 1.1,-1.3 0.8,1.3 v 1.1 l -3,2.4 0.2,0.8 -0.9,1 0.4,0.8 -1.3,0.3 0.9,1.2 -0.8,0.7 0.6,1 0.9,-0.2 0.3,-0.8 1.1,0.6 h 1.8 l 2.5,2.6 0.2,2.6 1.8,0.1 0.8,1.1 0.6,2 1,0.7 h 1.9 l 1.9,-0.1 0.8,-0.9 1.6,-1.2 1.1,-0.3 -1.2,-2.1 -0.3,0.9 -1.5,-3.6 h -0.8 l -0.4,0.9 -1.2,-1 1.3,-1.1 1.8,0.4 2.3,2.1 1.3,2.7 1.2,3.3 -1,2.8 v -1.8 l -0.7,-1 -3.5,2.3 -0.9,-0.3 -1.6,1 -0.1,1.2 -2.2,1.2 -2,2.1 -2,1.9 h -1.2 l 3.3,-3.3 0.5,-1.9 -0.5,-0.6 -0.3,-1.3 -0.9,-0.1 -0.1,1.3 -1,1.2 h -1.2 l -0.3,1.1 0.4,1.2 -1.2,1.1 -1.1,-0.2 -0.4,1 -1.4,-3 -1.3,-1.1 -2.6,-1.3 -0.6,-2.2 h -0.8 l -0.7,-2.6 -6.5,2 -0.1,-0.3 -14.9,3.4 v 0.7 l -0.9,0.3 -0.5,-0.7 -10.5,2.4 -0.7,-1 0.5,-15 z"
           id="path2433"
           style="fill:#7e9f76;fill-opacity:1"><title
             id="title2431">Massachusetts</title></path><path
           class="mi"
           d="m 663.3,209.8 0.1,1.4 21.4,-3.5 0.5,-1.2 3.9,-5.9 v -4.3 l 0.8,-2.1 2.2,-0.8 2,-7.8 1,-0.5 1,0.6 -0.2,0.6 -1.1,0.8 0.3,0.9 0.8,0.4 1.9,-1.4 0.4,-9.8 -1.6,-2.3 -1.2,-3.7 v -2.5 l -2.3,-4.4 v -1.8 l -1.2,-3.3 -2.3,-3 -2.9,-1 -4.8,3 -2.5,4.6 -0.2,0.9 -3,3.5 -1.5,-0.2 -2.9,-2.8 -0.1,-3.4 1.5,-1.9 2,-0.2 1.2,-1.7 0.2,-4 0.8,-0.8 1.1,-0.1 0.9,-1.7 -0.2,-9.6 -0.3,-1.3 -1.2,-1.2 -1.7,-1 -0.1,-1.8 0.7,-0.6 1.8,0.8 -0.3,-1.7 -1.9,-2.7 -0.7,-1.6 -1.1,-1.1 h -2.2 l -8.1,-2.9 -1.4,-1.7 -3.1,-0.3 -1.2,0.3 -4.4,-2.3 h -1.4 l 0.5,1 -2.7,-0.1 0.1,0.6 0.6,0.6 -2.5,2.1 0.1,1.8 1.5,2.3 1.5,0.2 v 0.6 l -1.5,0.5 -2.1,-0.1 -2.8,2.5 0.1,2.5 0.4,5.8 -2.2,3.4 0.8,-4.5 -0.8,-0.6 -0.9,5.3 -1,-2.3 0.5,-2.3 -0.5,-1 0.6,-1.3 -0.6,-1.1 1,-1 v -1.2 l -1.3,0.6 -1.3,3.1 -0.7,0.7 -1.3,2.4 -1.7,-0.2 -0.1,1.2 h -1.6 l 0.2,1.5 0.2,2 -3,1.2 0.1,1.3 1,1.7 -0.1,5.2 -1.3,4.4 -1.7,2.5 1.2,1.4 0.8,3.5 -1,2.5 -0.2,2.1 1.7,3.4 2.5,4.9 1.2,1.9 1.6,6.9 -0.1,8.8 -0.9,3.9 -2,3.2 -0.9,3.7 -2,3 -1.2,1 z m -95.8,-96.8 3,3.8 17,3.8 1.4,1 4,0.8 0.7,0.5 2.8,-0.2 4.9,0.8 1.4,1.5 -1,1 0.8,0.8 3.8,0.7 1.2,1.2 0.1,4.4 -1.3,2.8 2,0.1 1,-0.8 0.9,0.8 -1.1,3.1 1,1.6 1.2,0.3 0.8,-1.8 2.9,-4.6 1.6,-6 2.3,-2 -0.5,-1.6 0.5,-0.9 1,1.6 -0.3,2.2 2.9,-2.2 0.2,-2.3 2.1,0.6 0.8,-1.6 0.7,0.6 -0.7,1.5 -1,0.5 -1,2 1.4,1.8 1.1,-0.5 -0.5,-0.7 1,-1.5 1.9,-1.7 h 0.8 l 0.2,-2.6 2,-1.8 7.9,-0.5 1.9,-3.1 3.8,-0.3 3.8,1.2 4.2,2.7 0.7,-0.2 -0.2,-3.5 0.7,-0.2 4.5,1.1 1.5,-0.2 2.9,-0.7 1.7,0.4 1.8,0.1 v -1.1 l -0.7,-0.9 -1.5,-0.2 -1.1,-0.8 0.5,-1.4 -0.8,-0.3 -2.6,0.1 -0.1,-1 1.1,-0.8 0.6,0.8 0.5,-1.8 -0.7,-0.7 0.7,-0.2 -1.4,-1.3 0.3,-1.3 0.1,-1.9 h -1.3 l -1.5,1 -1.9,0.1 -0.5,1.8 -1.9,0.2 -0.3,-1.2 -2.2,0.1 -1,1.2 -0.7,-0.1 -0.2,-0.8 -2.6,0.4 -0.1,-4.8 1,-2 -0.7,-0.1 -1.8,1.1 h -2.2 l -3.8,2.7 -6.2,0.3 -4.1,0.8 -1.9,1.5 -1.4,1.3 -2.5,1.7 -0.3,0.8 -0.6,-1.7 -1.3,-0.6 v 0.6 l 0.7,0.7 v 1.3 l -1.5,-0.6 h -0.6 l -0.3,1.2 -2,-1.9 -1.3,-0.2 -1.3,1.5 -3.2,-0.1 -0.5,-1.4 -2,-1.9 -1.3,-1.6 v -0.7 l -1.1,-1.4 -2.6,-1.2 -3.3,-0.1 -1.1,-0.9 h -1.4 l -0.7,0.4 -2.2,2.2 -0.7,1.1 -1,-0.7 0.2,-1 0.8,-2.1 3.2,-5 0.8,-0.2 1.7,-1.9 0.7,-1.6 3,-0.6 0.8,-0.6 -0.1,-1 -0.5,-0.5 -4.5,0.2 -2,0.5 -2.6,1.2 -1.2,1.2 -1.7,2.2 -1.8,1 -3.3,3.4 -0.4,1.6 -7.4,4.6 -4,0.5 -1.8,0.4 -2.3,3 -1.8,0.7 -4.4,2.3 z m 100.7,3.8 3.8,0.1 0.6,-0.5 -0.2,-2 -1.7,-1.8 -1.9,0.1 -0.1,0.5 1.1,0.4 -1.6,0.8 -0.3,1 -0.6,-0.6 -0.4,0.8 z m -75.1,-41.9 -2.3,0.2 -2.7,1.9 -7.1,5.3 0.8,1 1.8,0.3 2.8,-2 -1.1,-0.5 2.3,-1.6 h 1 l 3,-1.9 -0.1,-0.9 z m 41.1,62.8 v 1 l 2.1,1.6 -0.2,-2.4 z m -0.7,2.8 1.1,0.1 v 0.9 h -1 z m 21.4,-21.3 v 0.9 l 0.8,-0.2 v -0.5 z m 4.7,3.1 -0.1,-1.1 -1.6,-0.2 -0.6,-0.4 h -0.9 l -0.4,0.3 0.9,0.4 1.1,1.1 z m -18,1.2 -0.1,1.1 -0.3,0.7 0.2,2.2 0.4,0.3 0.7,0.1 0.5,-0.9 0.1,-1.6 -0.3,-0.6 -0.1,-1.1 z"
           id="path2437"
           style="fill:#7e9f76;fill-opacity:1"><title
             id="title2435">Michigan</title></path><path
           class="mn"
           d="m 464.7,68.6 -1.1,2.8 0.8,1.4 -0.3,5.1 -0.5,1.1 2.7,9.1 1.3,2.5 0.7,14 1,2.7 -0.4,5.8 2.9,7.4 0.3,5.8 -0.1,2.1 -0.1,2.2 -0.9,2 -3.1,1.9 -0.3,1.2 1.7,2.5 0.4,1.8 2.6,0.6 1.5,1.9 -0.2,39.5 h 28.2 l 36.3,-0.9 18.6,-0.7 -1.1,-4.5 -0.2,-3 -2.2,-3 -2.8,-0.7 -5.2,-3.6 -0.6,-3.3 -6.3,-3.1 -0.2,-1.3 h -3.3 l -2.2,-2.6 -2,-1.3 0.7,-5.1 -0.9,-1.6 0.5,-5.4 1,-1.8 -0.3,-2.7 -1.2,-1.3 -1.8,-0.3 v -1.7 l 2.8,-5.8 5.9,-3.9 -0.4,-13 0.9,0.4 0.6,-0.5 0.1,-1.1 0.9,-0.6 1.4,1.2 0.7,-0.1 v 0 l -1.2,-2.2 4.3,-3.1 3.1,-3.7 1.6,-0.8 4.7,-5.9 6.3,-5.8 3.9,-2.1 6.3,-2.7 7.6,-4.5 -0.6,-0.4 -3.7,0.7 -2.8,0.1 -1,-1.6 -1.4,-0.9 -9.8,1.2 -1,-2.8 -1.6,-0.1 -1.7,0.8 -3.7,3.1 h -4.1 l -2.1,-1 -0.3,-1.7 -3.9,-0.8 -0.6,-1.6 -0.7,-1.3 -1,0.9 -2.6,0.1 -9.9,-5.5 h -2.9 l -0.8,-0.7 -3.1,1.3 -0.8,1.3 -3.3,0.8 -1.3,-0.2 V 69.9 L 512.7,69 h -5.9 l -0.4,-1.4 h -2.6 l -1.1,0.4 -2.4,-1.7 0.3,-1.4 -0.6,-2.4 -0.7,-1.1 -0.2,-3 -1,-3.1 -2.1,-1.6 h -2.9 l 0.1,8 -30.9,-0.4 z"
           id="path2441"
           style="fill:#7e9f76;fill-opacity:1"><title
             id="title2439">Minnesota</title></path><path
           class="ms"
           d="m 623.8,468.6 -5,0.1 -2.4,-1.5 -7.9,2.5 -0.9,-0.7 -0.5,0.2 -0.1,1.6 -0.6,0.1 -2.6,2.7 -0.7,-0.1 -0.6,-0.7 -1.2,-1.8 0.3,-1.3 -4.8,-6.8 0.9,-4.6 1,-1.4 0.1,-1.4 -36,2 1.7,-11.9 2.4,-4.8 6,-8.4 -1.8,-2.5 h 2 v -3.3 l -2.4,-2.5 0.5,-1.7 -1.2,-1 -1.6,-7.1 0.6,-1.4 1.2,-1.5 0.5,-3 -1.5,-2.3 -0.5,-2.2 0.9,-0.7 v -0.8 l -1.7,-1.1 -0.1,-0.7 1.6,-0.9 -1.2,-1.1 1.7,-7.1 3.4,-1.6 v -0.8 l -1.1,-1.4 2.9,-5.4 h 1.9 l 1.5,-1.2 -0.3,-5.2 3.1,-4.5 1.8,-0.6 -0.5,-3.1 38.3,-2.6 1.3,2 -1.3,67 4.4,33.2 z"
           id="path2445"
           style="fill:#7e9f76;fill-opacity:1"><title
             id="title2443">Mississippi</title></path><path
           class="mo"
           d="m 555.3,248.9 -1.1,-1.1 -0.6,-1.6 -1.7,-1.3 -14.3,0.8 -27.2,1.2 -25.9,-0.1 1.3,1.3 -0.3,1.4 2.1,3.7 3.9,6.3 2.9,3 2,0.6 0.9,-1 1.5,2.1 -0.1,1.2 -2.7,2.6 -0.5,2.3 2.5,2.5 2.6,4.7 3.2,0.7 0.5,48.1 0.2,10.8 39.1,-0.7 39.8,-2 1.6,2.5 v 2.2 l -1.7,1.5 -2.8,5.1 11.2,-0.8 1,-2 1.2,-0.5 v -0.7 l -1.2,-1.1 -0.6,-1 1.7,0.2 0.8,-0.7 -1.4,-1.5 1.4,-0.5 0.1,-1 -0.6,-1 v -1.3 l -0.7,-0.7 0.2,-1 h 1.1 l 0.7,0.7 -0.3,1 0.8,0.7 0.8,-1 1,-2.7 1.4,0.9 0.7,-0.4 1.2,-4.1 -1,-1 1,-2 0.2,-0.9 -1.3,-0.8 h -2.8 l -1.4,-1.5 -1.8,-3.8 v -1.9 l 0.8,-0.6 0.1,-1.3 -1.7,-1.9 -0.9,-2.5 -2.7,-4.1 -4.8,-1.3 -7.4,-7.1 -0.4,-2.4 2.8,-7.6 -0.4,-1.9 1.2,-1.1 v -1.3 l -2.8,-1.5 -3,-0.7 -3.4,1.2 -1.3,-2.3 0.6,-1.9 -0.7,-2.4 -8.6,-8.4 -2.2,-1.5 -2.5,-5.9 -1.2,-5.4 1.4,-3.7 z"
           id="path2449"
           style="fill:#7e9f76;fill-opacity:1"><title
             id="title2447">Missouri</title></path><path
           class="mt"
           d="m 247,130.5 57.3,7.9 51,5.3 2,-20.7 5.2,-66.7 L 309,50.7 254.7,43 188.8,30.5 l -4.8,22 3.7,7.4 -1.6,4.8 3.6,4.8 1.9,0.7 3.9,8.3 v 2.1 l 2.3,3 h 0.9 l 1.4,2.1 h 3.2 v 1.6 l -7.1,17 -0.5,4.1 1.4,0.5 1.6,2.6 2.8,-1.4 3.6,-2.4 1.9,1.9 0.5,2.5 -0.5,3.2 2.5,9.7 2.6,3.5 2.3,1.4 0.4,3 v 4.1 l 2.3,2.3 1.6,-2.3 6.9,1.6 2.1,-1.2 9,1.7 2.8,-3.3 1.8,-0.6 1.2,1.8 1.6,4.1 0.9,0.1 z"
           id="path2453"
           style="fill:#7e9f76;fill-opacity:1"><title
             id="title2451">Montana</title></path><path
           class="ne"
           d="m 402.5,191.1 38,1.6 3.4,3.2 1.7,0.2 2.1,2 1.8,-0.1 1.8,-2 1.5,0.6 1,-0.7 0.7,0.5 0.9,-0.4 0.7,0.4 0.9,-0.4 1,0.5 1.4,-0.6 2,0.6 0.6,1.1 6.1,2.2 1.2,1.3 0.9,2.6 1.8,0.7 1.5,-0.2 0.5,0.9 v 2.3 l 0.6,1.7 v 1.4 l 1.3,3.7 2.2,4.3 0.2,3.7 2.8,5 0.4,6.1 1.3,0.7 -0.2,2.9 0.8,3.3 -0.7,2.2 1.8,4.4 1.3,1.3 -0.3,1.4 2.1,3.7 3.9,6.3 h -32.4 l -43.7,-1.2 -36,-2 1.4,-22.1 -33.1,-2.4 3.7,-44.2 z"
           id="path2457"
           style="fill:#7e9f76;fill-opacity:1"><title
             id="title2455">Nebraska</title></path><path
           class="nv"
           d="m 167.6,296.8 -3.4,17.5 -2.4,2.9 h -2 l -1.2,-2.7 -3.7,-1.4 -3.5,0.6 -1,13.6 0.5,4.9 -0.5,2.9 -1.4,3 -70.4,-105 -1.1,-3.5 16.4,-63.1 47,11.2 24.4,5.4 23.3,4.7 z"
           id="path2461"
           style="fill:#7e9f76;fill-opacity:1"><title
             id="title2459">Nevada</title></path><path
           class="nh"
           d="m 862.6,93.6 -1.3,0.1 -1,-1.1 -1.9,1.4 -0.5,6.1 1.2,2.3 -1.1,3.5 2.1,2.8 -0.4,1.7 0.1,1.3 -1.1,2.1 -1.4,0.4 -0.6,1.3 -2.1,1 -0.7,1.5 1.4,3.4 -0.5,2.5 0.5,1.5 -1,1.9 0.4,1.9 -1.3,1.9 0.2,2.2 -0.7,1.1 0.7,4.5 0.7,1.5 -0.5,2.6 0.9,1.8 -0.2,2.5 -0.5,1.3 -0.1,1.4 2.1,2.6 18.4,-3.8 1,-1.5 0.3,-1.7 1.9,-0.6 0.5,-1.1 1.7,-1.1 1.3,0.3 0.8,-4.8 -2.3,-1.4 -0.8,-2.2 -3.2,-2 -0.6,-4 -11.9,-36.8 z"
           id="path2465"
           style="fill:#7e9f76;fill-opacity:1"><title
             id="title2463">New Hampshire</title></path><path
           class="nj"
           d="m 842.5,195.4 -14.6,-4.9 -1.8,2.5 0.1,2.2 -3,5.4 1.5,1.8 -0.7,2 -1,1 0.5,3.6 2.7,0.9 1,2.8 2.1,1.1 4.2,3.2 -3.3,2.6 -1.6,2.3 -1.8,3 -1.6,0.6 -1.4,1.7 -1,2.2 -0.3,2.1 0.8,0.9 0.4,2.3 1.2,0.6 2.4,1.5 1.8,0.8 1.6,0.8 0.1,1.1 0.8,0.1 1.1,-1.2 0.8,0.4 2.1,0.2 -0.2,2.9 0.2,2.5 1.8,-0.7 1.5,-3.9 1.6,-4.8 2.9,-2.8 0.6,-3.5 -0.6,-1.2 1.7,-2.9 v -1.2 l -0.7,-1.1 1.2,-2.7 -0.3,-3.6 -0.6,-8.2 -1.2,-1.4 v 1.4 l 0.5,0.6 h -1.1 l -0.6,-0.4 -1.3,-0.2 -0.9,0.6 -1.2,-1.6 0.7,-1.7 v -1 l 1.7,-0.7 0.8,-2.1 z"
           id="path2469"
           style="fill:#7e9f76;fill-opacity:1"><title
             id="title2467">New Jersey</title></path><path
           class="nm"
           d="m 357.5,332.9 h -0.8 l -7.9,99.3 -31.8,-2.6 -34.4,-3.6 -0.3,3 2,2.2 -30.8,-4.1 -1.4,10.2 -15.7,-2.2 17.4,-124.1 52.6,6.5 51.7,4.8 z"
           id="path2473"
           style="fill:#7e9f76;fill-opacity:1"><title
             id="title2471">New Mexico</title></path><path
           class="ny"
           d="m 872.9,181.6 -1.3,0.1 -0.5,1 z m -30.6,22.7 0.7,0.6 1.3,-0.3 1.1,0.3 0.9,-1.3 h 1.9 l 2.4,-0.9 5.1,-2.1 -0.5,-0.5 -1.9,0.8 -2,0.9 0.2,-0.8 2.6,-1.1 0.8,-1 1.2,0.1 4.1,-2.3 v 0.7 l -4.2,3 4.5,-2.8 1.7,-2.2 1.5,-0.1 4.5,-3.1 3.2,-3.1 3,-2.3 1,-1.2 -1.7,-0.1 -1,1.2 -0.2,0.7 -0.9,0.7 -0.8,-1.1 -1.7,1 -0.1,0.9 -0.9,-0.2 0.5,-0.9 -1.2,-0.7 -0.6,0.9 0.9,0.3 0.2,0.5 -0.3,0.5 -1.4,2.6 h -1.9 l 0.9,-1.8 0.9,-0.6 0.3,-1.7 1.4,-1.6 0.9,-0.8 1.5,-0.7 -1.2,-0.2 -0.7,0.9 h -0.7 l -1.1,0.8 -0.2,1 -2.2,2.1 -0.4,0.9 -1.4,0.9 -7.7,1.9 0.2,0.9 -0.9,0.7 -2,0.3 -1,-0.6 -0.2,1.1 -1.1,-0.4 0.1,1 -1.2,-0.1 -1.2,0.5 -0.2,1.1 h -1 l 0.2,1 h -0.7 l 0.2,1 -1.8,0.4 -1.5,2.3 z m -0.8,-0.4 -1.6,0.4 v 1 l -0.7,1.6 0.6,0.7 2.4,-2.3 -0.1,-0.9 z m -10.1,-95.2 -0.6,1.9 1.4,0.9 -0.4,1.5 0.5,3.2 2.2,2.3 -0.4,2.2 0.6,2 -0.4,1 -0.3,3.8 3.1,6.7 -0.8,1.8 0.9,2.2 0.9,-1.6 1.9,1.5 3,14.2 -0.5,2 1.1,1 -0.5,15 0.7,1 2.8,16.3 1.8,1.5 -3.5,3.4 1.7,2.2 -1.3,3.3 -1.5,1.7 -1.5,2.3 -0.2,-0.7 0.4,-5.9 -14.6,-4.9 -1.6,-1.1 -1.9,0.3 -3,-2.2 -3,-5.8 h -2 l -0.4,-1.5 -1.7,-1.1 -70.5,13.9 -0.8,-6 4.3,-3.9 0.6,-1.7 3.9,-2.5 0.6,-2.4 2.3,-2 0.8,-1.1 -1.7,-3.3 -1.7,-0.5 -1.8,-3 -0.2,-3.2 7.6,-3.9 8.2,-1.6 h 4.4 l 3.2,1.6 0.9,-0.1 1.8,-1.6 3.4,-0.7 h 3 l 2.6,-1.3 2.5,-2.6 2.4,-3.1 1.9,-0.4 1.1,-0.5 0.4,-3.2 -1.4,-2.7 -1.2,-0.7 2,-1.3 -0.1,-1.8 h -1.5 l -2.3,-1.4 -0.1,-3.1 6.2,-6.1 0.7,-2.4 3.7,-6.3 5.9,-6.4 2.1,-1.7 2.5,0.1 20.6,-5.2 z"
           id="path2477"
           style="fill:#7e9f76;fill-opacity:1"><title
             id="title2475">New York</title></path><path
           class="nc"
           d="m 829,300.1 -29.1,6.1 -39.4,7.3 -29.4,3.5 v 5.2 l -1.5,-0.1 -1.4,1.2 -2.4,5.2 -2.6,-1.1 -3.5,2.5 -0.7,2.1 -1.5,1.2 -0.8,-0.8 -0.1,-1.5 -0.8,-0.2 -4,3.3 -0.6,3.4 -4.7,2.4 -0.5,1.2 -3.2,2.6 -3.6,0.5 -4.6,3 -0.8,4.1 -1.3,0.9 -1.5,-0.1 -1.4,1.3 -0.1,4.9 21.4,-3 4.4,-1.9 1.3,-0.1 7.3,-4.3 23.2,-2.2 0.4,0.5 -0.2,1.4 0.7,0.3 1.2,-1.5 3.3,3 0.1,2.6 19.7,-2.8 24.5,17.1 4,-2.2 3,-0.7 h 1.7 l 1.1,1.1 0.8,-2 0.6,-5 1.7,-3.9 5.4,-6.1 4.1,-3.5 5.4,-2.3 2.5,-0.4 1.3,0.4 0.7,1.1 3.3,-6.6 3.3,-5.3 -0.7,-0.3 -4.4,6.8 -0.5,-0.8 2,-2.2 -0.4,-1.5 -2,-0.5 1,1.3 -1.2,0.1 -1.2,-1.8 -1.2,2 -1.6,0.2 1,-2.7 0.7,-1.7 -0.2,-2.9 -2.2,-0.1 0.9,-0.9 1.1,0.3 2.7,0.1 0.8,-0.5 h 2.3 l 2,-1.9 0.2,-3.2 1.3,-1.4 1.2,-0.2 1.3,-1 -0.5,-3.7 -2.2,-3.8 -2.7,-0.2 -0.9,1.6 -0.5,-1 -2.7,0.2 -1.2,0.4 -1.9,1.2 -0.3,-0.4 h -0.9 l -1.8,1.2 -2.6,0.5 v -1.3 l 0.8,-1 1,0.7 h 1 l 1.7,-2.1 3.7,-1.7 2,-2.2 h 2.4 l 0.8,1.3 1.7,0.8 -0.5,-1.5 -0.3,-1.6 -2.8,-3.1 -0.3,-1.4 -0.4,1 -0.9,-1.3 z m 7,31 2.7,-2.5 4.6,-3.3 v -3.7 l -0.4,-3.1 -1.7,-4.2 1.5,1.4 1,3.2 0.4,7.6 -1.7,0.4 -3.1,2.4 -3.2,3.2 z m 1.9,-19.3 -0.9,-0.2 v 1 l 2.5,2.2 -0.2,-1.4 z m 2.9,2.1 -1.4,-2.8 -2.2,-3.4 -2.4,-3 -2.2,-4.3 -0.8,-0.7 2.2,4.3 0.3,1.3 3.4,5.5 1.8,2.1 z"
           id="path2481"
           style="fill:#7e9f76;fill-opacity:1"><title
             id="title2479">North Carolina</title></path><path
           class="nd"
           d="m 464.7,68.6 -1.1,2.8 0.8,1.4 -0.3,5.1 -0.5,1.1 2.7,9.1 1.3,2.5 0.7,14 1,2.7 -0.4,5.8 2.9,7.4 0.3,5.8 -0.1,2.1 -29.5,-0.4 -46,-2.1 -39.2,-2.9 5.2,-66.7 44.5,3.4 55.3,1.6 z"
           id="path2485"
           style="fill:#7e9f76;fill-opacity:1"><title
             id="title2483">North Dakota</title></path><path
           class="oh"
           d="m 685.7,208.8 1.9,-0.4 3,1.3 2.1,0.6 0.7,0.9 h 1 l 1,-1.5 1.3,0.8 h 1.5 l -0.1,1 -3.1,0.5 -2,1.1 1.9,0.8 1.6,-1.5 2.4,-0.4 2.2,1.5 1.5,-0.1 2.5,-1.7 3.6,-2.1 5.2,-0.3 4.9,-5.9 3.8,-3.1 9.3,-5.1 4.9,29.9 -2.2,1.2 1.4,2.1 -0.1,2.2 0.6,2 -1.1,3.4 -0.1,5.4 -1,3.6 0.5,1.1 -0.4,2.2 -1.1,0.5 -2,3.3 -1.8,2 h -0.6 l -1.8,1.7 -1.3,-1.2 -1.5,1.8 -0.3,1.2 h -1.3 l -1.3,2.2 0.1,2.1 -1,0.5 1.4,1.1 v 1.9 l -1,0.2 -0.7,0.8 -1,0.5 -0.6,-2.1 -1.6,-0.5 -1,2.3 -0.3,2.2 -1.1,1.3 1.3,3.6 -1.5,0.8 -0.4,3.5 h -1.5 l -3.2,1.4 -1.2,-2.1 -3.5,-1.4 -0.8,-2.9 -0.5,-0.8 -3.4,1.8 -0.6,1.7 h -0.9 l -1.3,0.7 -1.2,-0.8 -3,-0.8 -1.9,0.8 v 1 l -2.2,-0.2 -1.9,-2.1 -2.3,0.2 -4.1,-0.7 v -1 l -2.2,-3.4 -2.9,-1.2 -1.9,0.8 -2.2,-0.1 -1.3,-0.5 -6.6,-57.2 21.4,-3.5 z"
           id="path2489"
           style="fill:#7e9f76;fill-opacity:1"><title
             id="title2487">Ohio</title></path><path
           class="ok"
           d="m 501.5,398.6 -4.6,-3.8 -2.2,-0.9 -0.5,1.6 -5.1,0.3 -0.6,-1.5 -5,2.5 -1.6,-0.7 -3.7,0.3 -0.6,1.7 -3.6,0.9 -1.3,-1.2 -1.2,0.1 -2,-1.8 -2.1,0.7 -2,-0.5 -1.8,-2 -2.5,4.2 -1.2,0.8 -1,-1.8 0.3,-2 -1.2,-0.7 -2.3,2.5 -1.7,-1.2 -0.1,-1.5 -1.3,0.5 -2.6,-1.7 -3,2.6 -2.3,-1.1 0.7,-2.1 -2.3,0.1 -1.9,-3 -3.5,-1.1 -2,2.3 -2.3,-2.2 -1.4,0.4 -2,0.1 -3.5,-1.9 -2.3,0.1 -1.2,-0.7 -0.5,-2.9 -2.3,-1.7 -1.1,1.5 -1.4,-1 -1.2,-0.4 -1.1,1 -1.5,-0.3 -2.5,-3 -2.7,-1.3 1.4,-42.7 -52.6,-3.2 0.6,-10.6 16.5,1 67.7,2.9 62,0.1 0.2,10.8 4.1,24.4 -0.7,39 z"
           id="path2493"
           style="fill:#7e9f76;fill-opacity:1"><title
             id="title2491">Oklahoma</title></path><path
           class="or"
           d="m 93.9,166.5 47,11.2 8.5,-37.3 2.9,-5.8 0.4,-2.1 0.8,-0.9 -0.9,-2 -2.9,-1.2 0.2,-4.2 4,-5.8 2.5,-0.8 1.6,-2.3 -0.1,-1.6 1.8,-1.6 3.2,-5.5 4.2,-4.8 -0.5,-3.2 -3.5,-3.1 -1.6,-3.6 -30.3,-7.3 -2.8,1 -5.4,-0.9 -1.8,-0.9 -1.5,1.2 -3.3,-0.4 -4.5,0.5 -0.9,0.7 -4.2,-0.4 -0.8,-1.6 -1.2,-0.2 -4.4,1.3 -1.6,-1.1 -2.2,0.8 -0.2,-1.8 -2.3,-1.2 -1.5,-0.2 -1,-1.1 -3,0.3 -1.2,-0.8 h -1.2 l -1.2,0.9 -5.5,0.7 -6.6,-4.2 1.1,-5.6 -0.4,-4.1 -3.2,-3.7 -3.7,0.1 -0.4,-1.1 0.4,-1.2 -0.7,-0.8 -1,0.1 -1.1,1.3 -1.5,-0.2 -0.5,-1.1 -1,-0.1 -0.7,0.6 -2,-1.9 v 4.3 l -1.3,1.3 -1.1,3.5 -0.1,2.3 -4.5,12.3 -13.2,31.3 -3.2,4.6 -1.6,-0.1 0.1,2.1 -5.2,7.1 -0.3,3.3 1,1.3 0.1,2.4 -1.2,1.1 -1.2,3 0.1,5.7 1.2,2.9 z"
           id="path2497"
           style="fill:#7e9f76;fill-opacity:1"><title
             id="title2495">Oregon</title></path><path
           class="pa"
           d="m 826.3,189.4 -1.9,0.3 -3,-2.2 -3,-5.8 h -2 l -0.4,-1.5 -1.7,-1.1 -70.5,13.9 -0.8,-6 -4.2,3.4 -0.9,0.1 -2.7,3 -3.3,1.7 4.9,29.9 3.2,19.7 17.4,-2.9 60.5,-11.8 1.2,-2.1 1.5,-1.1 1.6,-0.3 1.6,0.6 1.4,-1.7 1.6,-0.6 1.8,-3 1.6,-2.3 3.3,-2.6 -4.2,-3.2 -2.1,-1.1 -1,-2.8 -2.7,-0.9 -0.5,-3.6 1,-1 0.7,-2 -1.5,-1.8 3,-5.4 -0.1,-2.2 1.8,-2.5 z"
           id="path2501"
           style="fill:#7e9f76;fill-opacity:1"><title
             id="title2499">Pennsylvania</title></path><path
           class="ri"
           d="m 883.2,170.7 -1.3,-1.1 -2.6,-1.3 -0.6,-2.2 h -0.8 l -0.7,-2.6 -6.5,2 3.2,12.3 -0.4,1.1 0.4,1.8 5.6,-3.6 0.1,-3 -0.8,-0.8 0.4,-0.6 -0.1,-1.3 -0.9,-0.7 1.2,-0.4 -0.9,-1.6 1.8,0.7 0.3,1.4 0.7,1.2 -1.4,-0.8 1.1,1.7 -0.3,1.2 -0.6,-1.1 v 2.5 l 0.6,-0.9 0.4,0.9 1.3,-1.5 -0.2,-2.5 1.4,3.1 1,-0.9 z m -4.7,12.2 h 0.9 l 0.5,-0.6 -0.8,-1.3 -0.7,0.7 z"
           id="path2505"
           style="fill:#7e9f76;fill-opacity:1"><title
             id="title2503">Rhode Island</title></path><path
           class="sc"
           d="m 772.3,350.2 -19.7,2.8 -0.1,-2.6 -3.3,-3 -1.2,1.5 -0.7,-0.3 0.2,-1.4 -0.4,-0.5 -23.2,2.2 -7.3,4.3 -1.3,0.1 -4.4,1.9 -0.1,1.9 -1.9,1 -1.4,3.2 0.2,1.3 6.1,3.8 2.6,-0.3 3.1,4 0.4,1.7 4.2,5.1 2.6,1.7 1.4,0.2 2.2,1.6 1.1,2.2 2,1.6 1.8,0.5 2.7,2.7 0.1,1.4 2.6,2.8 5,2.3 3.6,6.7 0.3,2.7 3.9,2.1 2.5,4.8 0.8,3.1 4.2,0.4 0.8,-1.5 h 0.6 l 1.8,-1.5 0.5,-2 3.2,-2.1 0.3,-2.4 -1.2,-0.9 0.8,-0.7 0.8,0.4 1.3,-0.4 1.8,-2.1 3.8,-1.8 1.6,-2.4 0.1,-0.7 4.8,-4.4 -0.1,-0.5 -0.9,-0.8 1.1,-1.5 h 0.8 l 0.4,0.5 0.7,-0.8 h 1.3 l 0.6,-1.5 2.3,-2.1 -0.3,-5.4 0.8,-2.3 3.6,-6.2 2.4,-2.2 2.2,-1.1 z"
           id="path2509"
           style="fill:#7e9f76;fill-opacity:1"><title
             id="title2507">South Carolina</title></path><path
           class="sd"
           d="m 396.5,125.9 46,2.1 29.5,0.4 -0.1,2.2 -0.9,2 -3.1,1.9 -0.3,1.2 1.7,2.5 0.4,1.8 2.6,0.6 1.5,1.9 -0.2,39.5 -2.2,-0.1 -0.1,1.6 1.3,1.5 -0.1,1.1 -1,0.5 0.4,1.6 1.3,0.4 0.7,2 -1.7,5.1 -1,4.3 1.3,1.2 0.3,1.3 0.7,1.7 -1.5,0.2 -1.8,-0.7 -0.9,-2.6 -1.2,-1.3 -6.1,-2.2 -0.6,-1.1 -2,-0.6 -1.4,0.6 -1,-0.5 -0.9,0.4 -0.7,-0.4 -0.9,0.4 -0.7,-0.5 -1,0.7 -1.5,-0.6 -1.8,2 -1.8,0.1 -2.1,-2 -1.7,-0.2 -3.4,-3.2 -38,-1.6 -51.1,-3.5 3.9,-43.9 2,-20.7 z"
           id="path2513"
           style="fill:#7e9f76;fill-opacity:1"><title
             id="title2511">South Dakota</title></path><path
           class="tn"
           d="m 620.9,365.1 45.7,-4 22.9,-2.9 0.1,-4.9 1.4,-1.3 1.5,0.1 1.3,-0.9 0.8,-4.1 4.6,-3 3.6,-0.5 3.2,-2.6 0.5,-1.2 4.7,-2.4 0.6,-3.4 4,-3.3 0.8,0.2 0.1,1.5 0.8,0.8 1.5,-1.2 0.7,-2.1 3.5,-2.5 2.6,1.1 2.4,-5.2 1.4,-1.2 1.5,0.1 V 317 l 0.3,-0.7 -4.6,0.5 -0.2,1 -28.9,3.3 -5.6,1.4 -20.5,1.4 -5.2,0.8 -17.4,1 -2.6,0.8 -22.6,2 -0.7,-0.6 h -3.7 l 1.2,3.2 -0.6,0.9 -23.3,1.5 -0.8,1 -0.8,-0.7 h -1 v 1.3 l 0.6,1 -0.1,1 -1.4,0.5 1.4,1.5 -0.8,0.7 -1.7,-0.2 0.6,1 1.2,1.1 v 0.7 l -1.2,0.5 -1,2 0.1,0.6 1.4,1 -0.4,0.7 h -1.5 v 0.5 l 0.9,0.9 0.1,0.8 -1.4,0.2 -0.5,0.8 -1.6,0.2 -0.9,0.9 0.6,0.9 1.1,-0.1 0.5,0.9 -1.6,1.3 0.4,1.5 -2,-0.6 -0.1,0.7 0.4,1.1 -0.3,1.4 -1.3,-0.8 -0.8,0.8 1.1,0.1 0.1,1.5 -0.6,1 1.1,0.9 -0.3,1.5 0.8,0.7 -0.7,1 -1.2,-0.5 -0.9,2.2 -1.6,0.7 z"
           id="path2517"
           style="fill:#7e9f76;fill-opacity:1"><title
             id="title2515">Tennessee</title></path><path
           class="tx"
           d="m 282.3,429 0.3,-3 34.4,3.6 31.8,2.6 7.9,-99.3 h 0.8 l 52.6,3.2 -1.4,42.7 2.7,1.3 2.5,3 1.5,0.3 1.1,-1 1.2,0.4 1.4,1 1.1,-1.5 2.3,1.7 0.5,2.9 1.2,0.7 2.3,-0.1 3.5,1.9 2,-0.1 1.4,-0.4 2.3,2.2 2,-2.3 3.5,1.1 1.9,3 2.3,-0.1 -0.7,2.1 2.3,1.1 3,-2.6 2.6,1.7 1.3,-0.5 0.1,1.5 1.7,1.2 2.3,-2.5 1.2,0.7 -0.3,2 1,1.8 1.2,-0.8 2.5,-4.2 1.8,2 2,0.5 2.1,-0.7 2,1.8 1.2,-0.1 1.3,1.2 3.6,-0.9 0.6,-1.7 3.7,-0.3 1.6,0.7 5,-2.5 0.6,1.5 5.1,-0.3 0.5,-1.6 2.2,0.9 4.6,3.8 6.4,1.9 2.6,2.3 2.8,-1.3 3.2,0.8 0.2,11.9 0.5,19.9 0.7,3.4 2.6,2.8 0.7,5.4 3.8,4.6 0.8,4.3 h 1 l -0.1,7.3 -3.3,6.4 1.3,2.3 -1.3,1.5 0.7,3 -0.1,4.3 -2.2,3.5 -0.1,0.8 -1.7,1.2 1,1.8 1.2,1.1 -3.5,0.3 -8.4,3.9 -3.5,1.4 -1.8,1.8 -0.7,-0.5 2.1,-2.3 1.8,-0.7 0.5,-0.9 -2.9,-0.1 -0.7,-0.8 0.8,-2 -0.9,-1.8 h -0.6 l -2.4,1.3 -1.9,2.6 0.3,1.7 3.3,3.4 1.3,0.3 v 0.8 l -2.3,1.6 -4.9,4 -4,3.9 -3.2,1.4 -5,3 -3.7,2 -4.5,1.9 -4.1,2.5 3.2,-3 v -1.1 l 0.6,-0.8 -0.2,-1.8 -1.5,-0.1 -1.1,1.5 -2.6,1.3 -1.8,-1.2 -0.3,-1.7 h -1.5 l 0.8,2.2 1.4,0.7 1.2,0.9 1.8,1.6 -0.7,0.8 -3.9,1.7 -1.7,0.1 -1.2,-1.2 -0.5,2.1 0.5,1.1 -2.7,2 -1.5,0.2 -0.8,0.7 -0.4,1.7 -1.8,3.3 -1.6,0.7 -1.6,-0.6 -1.8,1.1 0.3,1.4 1.3,0.8 1,0.8 -1.8,3.5 -0.3,2.8 -1,1.7 -1.4,1 -2.9,0.4 1.8,0.6 1.9,-0.6 -0.4,3.2 -1.1,-0.1 0.2,1.2 0.3,1.4 -1.3,0.9 v 3.1 l 1.6,1.4 0.6,3.1 -0.4,2.2 -1,0.4 0.4,1.5 1.1,0.4 0.8,1.7 v 2.6 l 1.1,2.1 2.2,2.6 -0.1,0.7 -2.2,-0.2 -1.6,1.4 0.2,1.4 -0.9,-0.3 -1.4,-0.2 -3.4,-3.7 -2.3,-0.6 h -7.1 l -2.8,-0.8 -3.6,-3 -1.7,-1 -2.1,0.1 -3.2,-2.6 -5.4,-1.6 v -1.3 l -1.4,-1.8 -0.9,-4.7 -1.1,-1.7 -1.7,-1.4 v -1.6 l -1.4,-0.6 0.6,-2.6 -0.3,-2.2 -1.3,-1.4 0.7,-3 -0.8,-3.2 -1.7,-1.4 h -1.1 l -4,-3.5 0.1,-1.9 -0.8,-1.7 -0.8,-0.2 -0.9,-2.4 -2,-1.6 -2.9,-2.5 -0.2,-2.1 -1,-0.7 0.2,-1.6 0.5,-0.7 -1.4,-1.5 0.1,-0.7 -2,-2.2 0.1,-2.1 -2.7,-4.9 -0.1,-1.7 -1.8,-3.1 -5.1,-4.8 v -1.1 l -3.3,-1.7 -0.1,-1.8 -1.2,-0.4 v -0.7 l -0.8,-0.2 -2.1,-2.8 h -0.8 l -0.7,-0.6 -1.3,1.1 h -2.2 l -2.6,-1.1 h -4.6 l -4.2,-2.1 -1.3,1.9 -2.2,-0.6 -3.3,1.2 -1.7,2.8 -2,3.2 -1.1,4.4 -1.4,1.2 -1.1,0.1 -0.9,1.6 -1.3,0.6 -0.1,1.8 -2.9,0.1 -1.8,-1.5 h -1 l -2,-2.9 -3.6,-0.5 -1.7,-2.3 -1.3,-0.2 -2.1,-0.8 -3.4,-3.4 0.2,-0.8 -1.6,-1.2 -1,-0.1 -3.4,-3.1 -0.1,-2 -2.3,-4 0.2,-1.6 -0.7,-1.3 0.8,-1.5 -0.1,-2.4 -2.6,-4.1 -0.6,-4.2 -1.6,-1.6 v -1 l -1.2,-0.2 -0.7,-1.1 -2.4,-1.7 -0.9,-0.1 -1.9,-1.6 v -1.1 l -2.9,-1.8 -0.6,-2.1 -2.6,-2.3 -3.2,-4.4 -3,-1.3 -2.1,-1.8 0.2,-1.2 -1.3,-1.4 -1.7,-3.7 -2.4,-1 z m 174.9,138.3 0.8,0.1 -0.6,-4.8 -3.5,-12.3 -0.2,-8.1 4.9,-10.5 6.1,-8.2 7.2,-5.1 v -0.7 h -0.8 l -2.6,1 -3.6,2.3 -0.7,1.5 -8.2,11.6 -2.8,7.9 v 8.8 l 3.6,12 z"
           id="path2521"
           style="fill:#7e9f76;fill-opacity:1"><title
             id="title2519">Texas</title></path><path
           class="ut"
           d="m 233.2,217.9 3.3,-21.9 -47.9,-8.2 -21,109 46.2,8.2 40,6 11.5,-88.3 z"
           id="path2525"
           style="fill:#7e9f76;fill-opacity:1"><title
             id="title2523">Utah</title></path><path
           class="vt"
           d="m 859.1,102.4 -1.1,3.5 2.1,2.8 -0.4,1.7 0.1,1.3 -1.1,2.1 -1.4,0.4 -0.6,1.3 -2.1,1 -0.7,1.5 1.4,3.4 -0.5,2.5 0.5,1.5 -1,1.9 0.4,1.9 -1.3,1.9 0.2,2.2 -0.7,1.1 0.7,4.5 0.7,1.5 -0.5,2.6 0.9,1.8 -0.2,2.5 -0.5,1.3 -0.1,1.4 2.1,2.6 -12.4,2.7 -1.1,-1 0.5,-2 -3,-14.2 -1.9,-1.5 -0.9,1.6 -0.9,-2.2 0.8,-1.8 -3.1,-6.7 0.3,-3.8 0.4,-1 -0.6,-2 0.4,-2.2 -2.2,-2.3 -0.5,-3.2 0.4,-1.5 -1.4,-0.9 0.6,-1.9 -0.8,-1.7 27.3,-6.9 z"
           id="path2529"
           style="fill:#7e9f76;fill-opacity:1"><title
             id="title2527">Vermont</title></path><path
           class="va"
           d="m 834.7,265.4 -1.1,2.8 0.5,1.1 0.4,-1.1 0.8,-3.1 z m -34.6,-7 -0.7,-1 1,-0.1 1,-0.9 0.4,-1.8 -0.2,-0.5 0.1,-0.5 -0.3,-0.7 -0.6,-0.5 -0.4,-0.1 -0.5,-0.4 -0.6,-0.6 h -1 l -0.6,-0.1 -0.4,-0.4 0.1,-0.5 -1.7,-0.6 -0.8,0.3 -1.2,-0.1 -0.7,-0.7 -0.5,-0.2 -0.2,-0.7 0.6,-0.8 v -0.9 l -1.2,-0.2 -1,-0.9 -0.9,0.1 -1.6,-0.3 -0.4,0.7 -0.4,1.6 -0.5,2.3 -10,-5.2 -0.2,0.9 0.9,1.6 -0.8,2.3 0.1,2.9 -1.2,0.8 -0.5,2.1 -0.9,0.8 -1.4,1.8 -0.9,0.8 -1,2.5 -2.4,-1.1 -2.3,8.5 -1.3,1.6 -2.8,-0.5 -1.3,-1.9 -2.3,-0.7 -0.1,4.7 -1.4,1.7 0.4,1.5 -2.1,2.2 0.4,1.9 -3.7,6.3 -1,3.3 1.5,1.2 -1.5,1.9 0.1,1.4 -2.3,2 -0.7,-1.1 -4.3,3.1 -1.5,-1 -0.6,1.4 0.8,0.5 -0.5,0.9 -5.5,2.4 -3,-1.8 -0.8,1.7 -1.9,1.8 -2.3,0.1 -4.4,-2.3 -0.1,-1.5 -1.5,-0.7 0.8,-1.2 -0.7,-0.6 -4.9,6.6 -2.9,1 -3,3 -0.4,2.2 -2.1,1.3 -0.1,1.7 -1.4,1.4 -1.8,0.5 -0.5,1.9 -1,0.4 -6.9,4.2 28.9,-3.3 0.2,-1 4.6,-0.5 -0.3,0.7 29.4,-3.5 39.4,-7.3 29.1,-6.1 -0.6,-1.2 0.4,-0.1 0.9,0.9 -0.1,-1.4 -0.3,-1.9 1.6,1.2 0.9,2.1 v -1.3 l -3.4,-5.5 v -1.2 l -0.7,-0.8 -1.3,0.7 0.5,1.4 h -0.8 l -0.4,-1 -0.6,0.9 -0.9,-1.1 -2.1,-0.1 -0.2,0.7 1.5,2.1 -1.4,-0.7 -0.5,-1 -0.4,0.8 -0.8,0.1 -1.5,1.7 0.3,-1.6 v -1.4 l -1.5,-0.7 -1.8,-0.5 -0.2,-1.7 -0.6,-1.3 -0.6,1.1 -1.7,-1 -2,0.3 0.2,-0.9 1.5,-0.2 0.9,0.5 1.7,-0.8 0.9,0.4 0.5,1 v 0.7 l 1.9,0.4 0.3,0.9 0.9,0.4 0.9,1.2 1.4,-1.6 h 0.6 l -0.1,-2.1 -1.3,1 -0.6,-0.9 1.5,-0.2 -1.2,-0.9 -1.2,0.6 -0.1,-1.7 -1.7,0.2 -2.2,-1.1 -1.8,-2.2 3.6,2.2 0.9,0.3 1.7,-0.8 -1.7,-0.9 0.6,-0.6 -1,-0.5 0.8,-0.2 -0.3,-0.9 1.1,0.9 0.4,-0.8 0.4,1.3 1.2,0.8 0.6,-0.5 -0.5,-0.6 -0.1,-2.5 -1.1,-0.1 -1.6,-0.8 0.9,-1.1 -2,-0.1 -0.4,-0.5 -1.4,0.6 -1.4,-0.8 -0.5,-1.2 -2.1,-1.2 -2.1,-1.8 -2.2,-1.9 3,1.3 0.9,1.2 2.1,0.7 2.3,2.5 0.2,-1.7 0.6,1.3 2.3,0.5 v -4 l -0.8,-1.1 1.1,0.4 0.1,-1.6 -3.1,-1.4 -1.6,-0.2 -1.3,-0.2 0.3,-1.2 -1.5,-0.3 -0.1,-0.6 h -1.8 l -0.2,0.8 -0.7,-1 h -2.7 l -1,-0.4 -0.2,-1 -1.2,-0.6 -0.4,-1.5 -0.6,-0.4 -0.7,1.1 -0.9,0.2 -0.9,0.7 h -1.5 l -0.9,-1.3 0.4,-3.1 0.5,-2.4 0.6,0.5 z m 21.9,11.6 0.9,-0.1 v -0.6 l -0.8,0.1 z m 7.5,14.2 -1,2.7 1.2,-1.3 z m -1.8,-15.3 0.7,0.3 -0.2,1.9 -0.5,-0.5 -1.3,1 1,0.4 -1.8,4.4 0.1,8.1 1.9,3.1 0.5,-1.5 0.4,-2.7 -0.3,-2.3 0.7,-0.9 -0.2,-1.4 1.2,-0.6 -0.6,-0.5 0.5,-0.7 0.8,1.1 -0.2,1.1 -0.4,3.9 1.1,-2.2 0.4,-3.1 0.1,-3 -0.3,-2 0.6,-2.3 1.1,-1.8 0.1,-2.2 0.3,-0.9 -4.6,1.6 -0.7,0.8 z"
           id="path2533"
           style="fill:#7e9f76;fill-opacity:1"><title
             id="title2531">Virginia</title></path><path
           class="wa"
           d="m 161.9,83.6 0.7,4 -1.1,4.3 -30.3,-7.3 -2.8,1 -5.4,-0.9 -1.8,-0.9 -1.5,1.2 -3.3,-0.4 -4.5,0.5 -0.9,0.7 -4.2,-0.4 -0.8,-1.6 -1.2,-0.2 -4.4,1.3 -1.6,-1.1 -2.2,0.8 -0.2,-1.8 -2.3,-1.2 -1.5,-0.2 -1,-1.1 -3,0.3 -1.2,-0.8 h -1.2 l -1.2,0.9 -5.5,0.7 -6.6,-4.2 1.1,-5.6 -0.4,-4.1 -3.2,-3.7 -3.7,0.1 -0.4,-1.1 0.4,-1.2 -0.7,-0.8 -1,0.1 -2.1,-1.5 -1.2,0.4 -2,-0.1 -0.7,-1.5 -1.6,-0.3 2.5,-7.5 -0.7,6 0.5,0.5 v -2 l 0.8,-0.2 1.1,2.3 -0.5,-2.2 1.2,-4.2 1.8,0.4 -1.1,-2 -1,0.3 -1.5,-0.4 0.2,-4.2 0.2,1.5 0.9,0.5 0.6,-1.6 h 3.2 l -2.2,-1.2 -1.7,-1.9 -1.4,1.6 1.2,-3.1 -0.3,-4.6 -0.2,-3.6 0.9,-6.1 -0.5,-2 -1.4,-2.1 0.1,-4 0.4,-2.7 2,-2.3 -0.7,-1.4 0.2,-0.6 0.9,0.1 7.8,7.6 4.7,1.9 5.1,2.5 3.2,-0.1 0.2,3 1,-1.6 h 0.7 l 0.6,2.7 0.5,-2.6 1.4,-0.2 0.5,0.7 -1.1,0.6 0.1,1.6 0.7,-1.5 h 1.1 l -0.4,2.6 -1.1,-0.8 0.4,1.4 -0.1,1.5 -0.8,0.7 -2.5,2.9 1.2,-3.4 -1.6,0.4 -0.4,2.1 -3.8,2.8 -0.4,1 -2.1,2.2 -0.1,1 h 2.2 l 2.4,-0.2 0.5,-0.9 -3.9,0.5 V 39 l 2.6,-2.8 1.8,-0.8 1.9,-0.2 1,-1.6 3,-2.3 v -1.4 h 1.1 l 0.1,4 h -1.5 l -0.6,0.8 -1.1,-0.9 0.3,1.1 v 1.7 l -0.7,0.7 -0.3,-1.6 -0.8,0.8 0.7,0.6 -0.9,1.1 h 1.3 l 0.7,-0.5 0.1,2 -1,1.9 -0.9,1 -0.1,1.8 -1,-0.2 -0.2,-1.4 0.9,-1.1 -0.8,-0.5 -0.8,0.7 -0.7,2.2 -0.8,0.9 -0.1,-2 0.8,-1.1 -0.2,-1.1 -1.2,1.2 0.1,2.2 -0.6,0.4 -2.1,-0.4 -1.3,1.2 2.2,-0.6 -0.2,2.2 1,-1.8 0.4,1.4 0.5,-1 0.7,1.8 h 0.7 l 0.7,-0.8 0.6,-0.1 2,-1.9 0.2,-1.2 0.8,0.6 0.3,0.9 0.7,-0.3 0.1,-1.2 h 1.3 l 0.2,-2.9 -0.1,-2.7 0.9,0.3 -0.7,-2.1 1.4,-0.8 0.2,-2.4 2.3,-2.2 1,0.1 0.3,-1.4 -1.2,-1.4 -0.1,-3.5 -0.8,0.9 0.7,2.9 -0.6,0.1 -0.6,-1.9 -0.6,-0.5 0.3,-2.3 1.8,-0.1 0.3,0.7 0.3,-1.6 -1.6,-1.7 -0.6,-1.6 -0.2,2 0.9,1.1 -0.7,0.4 -1,-0.8 -1.8,1.3 1.5,0.5 0.2,2.4 -0.3,1.8 0.9,-1.3 1.4,2.3 -0.4,1.9 h -1.5 v -1.2 l -1.5,-1.2 0.5,-3 -1.9,-2.6 2.7,-3 0.6,-4.1 h 0.9 l 1.4,3.2 v -2.6 l 1.2,0.3 v -3.3 l -0.9,-0.8 -1.2,2.5 -1,-3 L 93.5,12 92,7.1 93.9,6.5 119.3,14 151,22 174.6,27.5 Z M 83.2,44.2 h 0.5 l 0.1,0.8 -0.5,0.3 0.1,0.6 -0.7,0.4 L 82.5,45.4 83,45 Z m 5,-4.3 -1.2,1.9 -0.1,0.8 0.4,0.2 0.5,-0.6 1.1,0.1 z m -0.4,-21.6 0.5,0.6 1.3,-0.3 0.2,-1 1.2,-1.8 -1,-0.4 -0.7,1.6 -0.1,-1.6 -1.1,0.2 -0.7,1.4 z m 3.2,-5.5 0.7,1.5 -0.9,0.2 -0.8,0.4 -0.2,-2.4 z m -2.7,-1.6 -1.1,-0.2 0.5,1.4 z m -1,2.5 0.8,0.4 -0.4,1.1 1.7,-0.5 -0.2,-2.2 -0.9,-0.2 z m -2.7,-0.4 0.3,2.7 1.6,1.3 0.6,-1.9 -1.1,-2.2 z m 1.9,-1.1 -1.1,-1 -0.9,0.1 1.8,1.5 z m 3.2,-7 H 88.5 V 6 l 1.2,0.6 z M 88.8,37.7 89.2,35 h -1.1 l -0.2,1.9 z"
           id="path2537"
           style="fill:#7e9f76;fill-opacity:1"><title
             id="title2535">Washington</title></path><path
           class="wv"
           d="m 723.4,297.5 -0.8,1.2 1.5,0.7 0.1,1.5 4.4,2.3 2.3,-0.1 1.9,-1.8 0.8,-1.7 3,1.8 5.5,-2.4 0.5,-0.9 -0.8,-0.5 0.6,-1.4 1.5,1 4.3,-3.1 0.7,1.1 2.3,-2 -0.1,-1.4 1.5,-1.9 -1.5,-1.2 1,-3.3 3.7,-6.3 -0.4,-1.9 2.1,-2.2 -0.4,-1.5 1.4,-1.7 0.1,-4.7 2.3,0.7 1.3,1.9 2.8,0.5 1.3,-1.6 2.3,-8.5 2.4,1.1 1,-2.5 0.9,-0.8 1.4,-1.8 0.9,-0.8 0.5,-2.1 1.2,-0.8 -0.1,-2.9 0.8,-2.3 -0.9,-1.6 0.2,-0.9 10,5.2 0.5,-2.3 0.4,-1.6 0.4,-0.7 -0.9,-0.4 0.2,-1.6 -1,-0.5 -0.2,-0.7 h -0.7 l -0.8,-1.2 0.2,-1 -2.6,0.4 -2.2,-1.6 -1.4,0.3 -0.9,1.4 h -1.3 l -1.7,2.9 -3.3,0.4 -1.9,-1 -2.6,3.8 -2.2,-0.3 -3.1,3.9 -0.9,1.6 -1.8,1.6 -1.7,-11.4 -17.4,2.9 -3.2,-19.7 -2.2,1.2 1.4,2.1 -0.1,2.2 0.6,2 -1.1,3.4 -0.1,5.4 -1,3.6 0.5,1.1 -0.4,2.2 -1.1,0.5 -2,3.3 -1.8,2 h -0.6 l -1.8,1.7 -1.3,-1.2 -1.5,1.8 -0.3,1.2 h -1.3 l -1.3,2.2 0.1,2.1 -1,0.5 1.4,1.1 v 1.9 l -1,0.2 -0.7,0.8 -1,0.5 -0.6,-2.1 -1.6,-0.5 -1,2.3 -0.3,2.2 -1.1,1.3 1.3,3.6 -1.5,0.8 -0.4,3.5 h -1.5 l -3.2,1.4 -0.1,1.1 0.6,1 -0.6,3.6 1.9,1.6 0.8,1.1 1,0.6 -0.1,0.9 4.4,5.6 h 1.4 l 1.5,1.8 1.2,0.3 1.4,-0.1 z"
           id="path2541"
           style="fill:#7e9f76;fill-opacity:1"><title
             id="title2539">West Virginia</title></path><path
           class="wi"
           d="m 611,144 -2.9,0.8 0.2,2.3 -2.4,3.4 -0.2,3.1 0.6,0.7 0.8,-0.7 0.5,-1.6 2,-1.1 1.6,-4.2 3.5,-1.1 0.8,-3.3 0.7,-0.9 0.4,-2.1 1.8,-1.1 v -1.5 l 1,-0.9 1.4,0.1 v 2 l -1,0.1 0.5,1.2 -0.7,2.2 -0.6,0.1 -1.2,4.5 -0.7,0.5 -2.8,7.2 -0.3,4.2 0.6,2 0.1,1.3 -2.4,1.9 0.3,1.9 -0.9,3.1 0.3,1.6 0.4,3.7 -1.1,4.1 -1.5,5 1,1.5 -0.3,0.3 0.8,1.7 -0.5,1.1 1.1,0.9 v 2.7 l 1.3,1.5 -0.4,3 0.3,4 -45.9,2.8 -1.3,-2.8 -3.3,-0.7 -2.7,-1.5 -2,-5.5 0.1,-2.5 1.6,-3.3 -0.6,-1.1 -2.1,-1.6 -0.2,-2.6 -1.1,-4.5 -0.2,-3 -2.2,-3 -2.8,-0.7 -5.2,-3.6 -0.6,-3.3 -6.3,-3.1 -0.2,-1.3 h -3.3 l -2.2,-2.6 -2,-1.3 0.7,-5.1 -0.9,-1.6 0.5,-5.4 1,-1.8 -0.3,-2.7 -1.2,-1.3 -1.8,-0.3 v -1.7 l 2.8,-5.8 5.9,-3.9 -0.4,-13 0.9,0.4 0.6,-0.5 0.1,-1.1 0.9,-0.6 1.4,1.2 0.7,-0.1 h 2.6 l 6.8,-2.6 0.3,-1 h 1.2 l 0.7,-1.2 0.4,0.8 1.8,-0.9 1.8,-1.7 0.3,0.5 1,-1 2.2,1.6 -0.8,1.6 -1.2,1.4 0.5,1.5 -1.4,1.6 0.4,0.9 2.3,-1.1 v -1.4 l 3.3,1.9 1.9,0.7 1.9,0.7 3,3.8 17,3.8 1.4,1 4,0.8 0.7,0.5 2.8,-0.2 4.9,0.8 1.4,1.5 -1,1 0.8,0.8 3.8,0.7 1.2,1.2 0.1,4.4 -1.3,2.8 2,0.1 1,-0.8 0.9,0.8 -1.1,3.1 1,1.6 1.2,0.3 z m -49.5,-37.3 -0.5,0.1 -1.5,1.6 0.2,0.5 1.5,-0.6 v -0.6 l 0.9,-0.3 z m 1.6,-1.1 -1,0.3 -0.2,0.7 0.9,-0.1 z m -1.3,-1.6 -0.2,0.9 h 1.7 l 0.6,-0.4 0.1,-1 z m 2.8,-3 -0.3,1.9 1.2,-0.5 0.1,-1.4 z m 58.3,31.9 -2,0.3 -0.4,1.3 1.3,1.7 z"
           id="path2545"
           style="fill:#7e9f76;fill-opacity:1"><title
             id="title2543">Wisconsin</title></path><path
           class="wy"
           d="m 355.3,143.7 -51,-5.3 -57.3,-7.9 -2,10.7 -8.5,54.8 -3.3,21.9 32.1,4.8 44.9,5.7 37.5,3.4 3.7,-44.2 z"
           id="path2549"
           style="fill:#7e9f76;fill-opacity:1"><title
             id="title2547">Wyoming</title></path><path
           class="dc"
           d="m 803.5,252 -2.6,-1.8 -1,1.7 0.5,0.4 0.4,0.1 0.6,0.5 0.3,0.7 -0.1,0.5 0.2,0.5 z"
           id="path2553"
           style="fill:#7e9f76;fill-opacity:1"><title
             id="title2551">District of Columbia</title></path></g><text
         xml:space="preserve"
         style="font-size:13.3333px;line-height:1.25;font-family:Courier;-inkscape-font-specification:Courier;letter-spacing:0px;word-spacing:0px"
         x="81.638329"
         y="508.95197"
         id="text3818"><tspan
           sodipodi:role="line"
           id="tspan3816"
           x="81.638329"
           y="508.95197"
           style="font-style:normal;font-variant:normal;font-weight:normal;font-stretch:normal;font-family:'EB Garamond';-inkscape-font-specification:'EB Garamond'">Alaska Island</tspan></text><text
         xml:space="preserve"
         style="font-size:13.3333px;line-height:1.25;font-family:Courier;-inkscape-font-specification:Courier;letter-spacing:0px;word-spacing:0px"
         x="323.9968"
         y="546.84497"
         id="text3818-6"><tspan
           sodipodi:role="line"
           id="tspan3816-2"
           x="323.9968"
           y="546.84497"
           style="font-style:normal;font-variant:normal;font-weight:normal;font-stretch:normal;font-family:'EB Garamond';-inkscape-font-specification:'EB Garamond'">Hawaiian Sea</tspan></text><text
         xml:space="preserve"
         style="font-size:13.3333px;line-height:1.25;font-family:Courier;-inkscape-font-specification:Courier;letter-spacing:0px;word-spacing:0px"
         x="225.60187"
         y="462.87241"
         id="text3818-6-9"><tspan
           sodipodi:role="line"
           id="tspan3816-2-1"
           x="225.60187"
           y="462.87241"
           style="font-style:normal;font-variant:normal;font-weight:normal;font-stretch:normal;font-family:'EB Garamond';-inkscape-font-specification:'EB Garamond'">Chihuhua Bay</tspan></text><text
         xml:space="preserve"
         style="font-size:13.3333px;line-height:1.25;font-family:Courier;-inkscape-font-specification:Courier;letter-spacing:0px;word-spacing:0px"
         x="491.59454"
         y="539.39514"
         id="text3818-6-9-6"><tspan
           sodipodi:role="line"
           id="tspan3816-2-1-1"
           x="491.59454"
           y="539.39514"
           style="font-style:normal;font-variant:normal;font-weight:normal;font-stretch:normal;font-family:'EB Garamond';-inkscape-font-specification:'EB Garamond'">Gulf of Mexico</tspan></text><text
         xml:space="preserve"
         style="font-size:13.3333px;line-height:1.25;font-family:Courier;-inkscape-font-specification:Courier;letter-spacing:0px;word-spacing:0px"
         x="405.95718"
         y="506.54156"
         id="text3818-6-9-6-8"><tspan
           sodipodi:role="line"
           id="tspan3816-2-1-1-7"
           x="405.95718"
           y="506.54156"
           style="font-style:normal;font-variant:normal;font-weight:normal;font-stretch:normal;font-family:'EB Garamond';-inkscape-font-specification:'EB Garamond'">Texas Peninsula</tspan></text><text
         xml:space="preserve"
         style="font-size:13.3333px;line-height:1.25;font-family:Courier;-inkscape-font-specification:Courier;letter-spacing:0px;word-spacing:0px"
         x="749.73376"
         y="515.91919"
         id="text3818-6-9-6-8-9"><tspan
           sodipodi:role="line"
           id="tspan3816-2-1-1-7-2"
           x="749.73376"
           y="515.91919"
           style="font-style:normal;font-variant:normal;font-weight:normal;font-stretch:normal;font-family:'EB Garamond';-inkscape-font-specification:'EB Garamond'">Florida Peninsula</tspan></text><text
         xml:space="preserve"
         style="font-size:13.3333px;line-height:1.25;font-family:Courier;-inkscape-font-specification:Courier;letter-spacing:0px;word-spacing:0px"
         x="791.08478"
         y="288.27002"
         id="text3818-6-9-6-8-9-0"><tspan
           sodipodi:role="line"
           id="tspan3816-2-1-1-7-2-2"
           x="791.08478"
           y="288.27002"
           style="font-style:normal;font-variant:normal;font-weight:normal;font-stretch:normal;font-family:'EB Garamond';-inkscape-font-specification:'EB Garamond'">Cheseapeake Bay</tspan></text><text
         xml:space="preserve"
         style="font-size:13.3333px;line-height:1.25;font-family:Courier;-inkscape-font-specification:Courier;letter-spacing:0px;word-spacing:0px"
         x="817.75836"
         y="255.73914"
         id="text3818-6-9-6-8-9-0-3"><tspan
           sodipodi:role="line"
           id="tspan3816-2-1-1-7-2-2-7"
           x="817.75836"
           y="255.73914"
           style="font-style:normal;font-variant:normal;font-weight:normal;font-stretch:normal;font-family:'EB Garamond';-inkscape-font-specification:'EB Garamond'">Delmarva Peninsula</tspan></text><text
         xml:space="preserve"
         style="font-size:13.3333px;line-height:1.25;font-family:Courier;-inkscape-font-specification:Courier;letter-spacing:0px;word-spacing:0px"
         x="886.86743"
         y="144.07828"
         id="text3818-6-9-6-8-9-0-3-5"><tspan
           sodipodi:role="line"
           id="tspan3816-2-1-1-7-2-2-7-9"
           x="886.86743"
           y="144.07828"
           style="font-style:normal;font-variant:normal;font-weight:normal;font-stretch:normal;font-family:'EB Garamond';-inkscape-font-specification:'EB Garamond'">Boston Bay</tspan></text><text
         xml:space="preserve"
         style="font-size:13.3333px;line-height:1.25;font-family:Courier;-inkscape-font-specification:Courier;letter-spacing:0px;word-spacing:0px"
         x="850.61896"
         y="88.289848"
         id="text3818-6-9-6-8-9-0-3-5-2"><tspan
           sodipodi:role="line"
           id="tspan3816-2-1-1-7-2-2-7-9-2"
           x="850.61896"
           y="88.289848"
           style="font-style:normal;font-variant:normal;font-weight:normal;font-stretch:normal;font-family:'EB Garamond';-inkscape-font-specification:'EB Garamond'">Maine Peninsula</tspan></text><text
         xml:space="preserve"
         style="font-size:13.3333px;line-height:1.25;font-family:Courier;-inkscape-font-specification:Courier;letter-spacing:0px;word-spacing:0px"
         x="749.40833"
         y="166.76317"
         id="text3818-6-9-6-8-9-0-3-5-2-8"><tspan
           sodipodi:role="line"
           id="tspan3816-2-1-1-7-2-2-7-9-2-9"
           x="749.40833"
           y="166.76317"
           style="font-style:normal;font-variant:normal;font-weight:normal;font-stretch:normal;font-family:'EB Garamond';-inkscape-font-specification:'EB Garamond'">Bufallo Peninsula</tspan></text><text
         xml:space="preserve"
         style="font-size:13.3333px;line-height:1.25;font-family:Courier;-inkscape-font-specification:Courier;letter-spacing:0px;word-spacing:0px"
         x="624.05273"
         y="181.58324"
         id="text3818-6-9-6-8-9-0-3-5-2-8-7"><tspan
           sodipodi:role="line"
           id="tspan3816-2-1-1-7-2-2-7-9-2-9-3"
           x="624.05273"
           y="181.58324"
           style="font-style:normal;font-variant:normal;font-weight:normal;font-stretch:normal;font-family:'EB Garamond';-inkscape-font-specification:'EB Garamond'">Lower Peninsula</tspan></text><text
         xml:space="preserve"
         style="font-size:13.3333px;line-height:1.25;font-family:Courier;-inkscape-font-specification:Courier;letter-spacing:0px;word-spacing:0px"
         x="696.1593"
         y="112.474"
         id="text3818-6-9-6-8-9-0-3-5-2-8-7-3"><tspan
           sodipodi:role="line"
           id="tspan3816-2-1-1-7-2-2-7-9-2-9-3-19"
           x="696.1593"
           y="112.474"
           style="font-style:normal;font-variant:normal;font-weight:normal;font-stretch:normal;font-family:'EB Garamond';-inkscape-font-specification:'EB Garamond'">Gulf of Canada</tspan></text><text
         xml:space="preserve"
         style="font-size:13.3333px;line-height:1.25;font-family:Courier;-inkscape-font-specification:Courier;letter-spacing:0px;word-spacing:0px"
         x="590.53027"
         y="199.31854"
         id="text3818-6-9-6-8-9-0-3-5-2-8-7-3-4"><tspan
           sodipodi:role="line"
           id="tspan3816-2-1-1-7-2-2-7-9-2-9-3-19-7"
           x="590.53027"
           y="199.31854"
           style="font-style:normal;font-variant:normal;font-weight:normal;font-stretch:normal;font-family:'EB Garamond';-inkscape-font-specification:'EB Garamond'">Chicago Bay</tspan></text><text
         xml:space="preserve"
         style="font-size:13.3333px;line-height:1.25;font-family:Courier;-inkscape-font-specification:Courier;letter-spacing:0px;word-spacing:0px"
         x="681.75629"
         y="202.99777"
         id="text3818-6-9-6-8-9-0-3-5-2-8-7-3-8"><tspan
           sodipodi:role="line"
           id="tspan3816-2-1-1-7-2-2-7-9-2-9-3-19-4"
           x="681.75629"
           y="202.99777"
           style="font-style:normal;font-variant:normal;font-weight:normal;font-stretch:normal;font-family:'EB Garamond';-inkscape-font-specification:'EB Garamond'">Detroit Bay</tspan></text><text
         xml:space="preserve"
         style="font-size:13.3333px;line-height:1.25;font-family:Courier;-inkscape-font-specification:Courier;letter-spacing:0px;word-spacing:0px"
         x="93.834099"
         y="48.383709"
         id="text3818-6-9-6-8-9-0-3-5-2-8-7-3-8-5"><tspan
           sodipodi:role="line"
           id="tspan3816-2-1-1-7-2-2-7-9-2-9-3-19-4-0"
           x="93.834099"
           y="48.383709"
           style="font-style:normal;font-variant:normal;font-weight:normal;font-stretch:normal;font-family:'EB Garamond';-inkscape-font-specification:'EB Garamond'">Puget Sound</tspan></text><text
         xml:space="preserve"
         style="font-size:13.3333px;line-height:1.25;font-family:Courier;-inkscape-font-specification:Courier;letter-spacing:0px;word-spacing:0px"
         x="37.931969"
         y="242.44366"
         id="text3818-6-9-6-8-9-0-3-5-2-8-7-3-8-5-3"><tspan
           sodipodi:role="line"
           id="tspan3816-2-1-1-7-2-2-7-9-2-9-3-19-4-0-6"
           x="37.931969"
           y="242.44366"
           style="font-style:normal;font-variant:normal;font-weight:normal;font-stretch:normal;font-family:'EB Garamond';-inkscape-font-specification:'EB Garamond'">San Francisco Bay</tspan></text><text
         xml:space="preserve"
         style="font-size:13.3333px;line-height:1.25;font-family:Courier;-inkscape-font-specification:Courier;letter-spacing:0px;word-spacing:0px"
         x="575.24921"
         y="120.75929"
         id="text3818-6-9-6-8-9-0-3-5-2-8-7-6"><tspan
           sodipodi:role="line"
           id="tspan3816-2-1-1-7-2-2-7-9-2-9-3-1"
           x="575.24921"
           y="120.75929"
           style="font-style:normal;font-variant:normal;font-weight:normal;font-stretch:normal;font-family:'EB Garamond';-inkscape-font-specification:'EB Garamond'">Middle Peninsula</tspan></text><text
         xml:space="preserve"
         style="font-size:13.3333px;line-height:1.25;font-family:Courier;-inkscape-font-specification:Courier;letter-spacing:0px;word-spacing:0px"
         x="480.32407"
         y="87.944145"
         id="text3818-6-9-6-8-9-0-3-5-2-8-7-6-2"><tspan
           sodipodi:role="line"
           id="tspan3816-2-1-1-7-2-2-7-9-2-9-3-1-9"
           x="480.32407"
           y="87.944145"
           style="font-style:normal;font-variant:normal;font-weight:normal;font-stretch:normal;font-family:'EB Garamond';-inkscape-font-specification:'EB Garamond'">Upper Peninsula</tspan></text><text
         xml:space="preserve"
         style="font-size:13.3333px;line-height:1.25;font-family:Courier;-inkscape-font-specification:Courier;letter-spacing:0px;word-spacing:0px"
         x="46.247169"
         y="419.42685"
         id="text3818-6-9-0"><tspan
           sodipodi:role="line"
           id="tspan3816-2-1-9"
           x="46.247169"
           y="419.42685"
           style="font-style:normal;font-variant:normal;font-weight:normal;font-stretch:normal;font-family:'EB Garamond';-inkscape-font-specification:'EB Garamond'">Straits of California</tspan></text><text
         xml:space="preserve"
         style="font-size:13.3333px;line-height:1.25;font-family:Courier;-inkscape-font-specification:Courier;letter-spacing:0px;word-spacing:0px"
         x="365.80954"
         y="38.678814"
         id="text3818-6-9-0-0"><tspan
           sodipodi:role="line"
           id="tspan3816-2-1-9-62"
           x="365.80954"
           y="38.678814"
           style="font-style:normal;font-variant:normal;font-weight:normal;font-stretch:normal;font-family:'EB Garamond';-inkscape-font-specification:'EB Garamond'">Arctic Ocean</tspan></text><text
         xml:space="preserve"
         style="font-size:13.3333px;line-height:1.25;font-family:Courier;-inkscape-font-specification:Courier;letter-spacing:0px;word-spacing:0px"
         x="85.058258"
         y="591.0719"
         id="text3818-6-9-0-3"><tspan
           sodipodi:role="line"
           id="tspan3816-2-1-9-6"
           x="85.058258"
           y="591.0719"
           style="font-style:normal;font-variant:normal;font-weight:normal;font-stretch:normal;font-family:'EB Garamond';-inkscape-font-specification:'EB Garamond'">Southern Bay</tspan></text><text
         xml:space="preserve"
         style="font-size:13.3333px;line-height:1.25;font-family:Courier;-inkscape-font-specification:Courier;letter-spacing:0px;word-spacing:0px"
         x="168.93701"
         y="527.10895"
         id="text3818-6-9-2"><tspan
           sodipodi:role="line"
           id="tspan3816-2-1-7"
           x="168.93701"
           y="527.10895"
           style="font-style:normal;font-variant:normal;font-weight:normal;font-stretch:normal;font-family:'EB Garamond';-inkscape-font-specification:'EB Garamond'">Yukon Sea</tspan></text><text
         xml:space="preserve"
         style="font-size:13.3333px;line-height:1.25;font-family:Courier;-inkscape-font-specification:Courier;letter-spacing:0px;word-spacing:0px"
         x="139.77643"
         y="565.81812"
         id="text3818-3"><tspan
           sodipodi:role="line"
           id="tspan3816-5"
           x="139.77643"
           y="565.81812"
           style="font-style:normal;font-variant:normal;font-weight:normal;font-stretch:normal;font-family:'EB Garamond';-inkscape-font-specification:'EB Garamond'">Juneau Peninsula</tspan></text></g><text
       xml:space="preserve"
       style="font-size:3.52777px;line-height:1.25;font-family:Courier;-inkscape-font-specification:Courier;letter-spacing:0px;word-spacing:0px;stroke-width:0.264583"
       x="221.34995"
       y="239.05957"
       id="text8249"><tspan
         sodipodi:role="line"
         id="tspan8247"
         style="font-style:normal;font-variant:normal;font-weight:normal;font-stretch:normal;font-family:'EB Garamond';-inkscape-font-specification:'EB Garamond';stroke-width:0.264583"
         x="221.34995"
         y="239.05957">@notkavi</tspan></text><text
       xml:space="preserve"
       style="font-size:21.7697px;line-height:1.25;font-family:Courier;-inkscape-font-specification:Courier;letter-spacing:0px;word-spacing:0px;stroke-width:1.63273"
       x="1.9466236"
       y="69.881836"
       id="text3818-6-9-0-0-1"><tspan
         sodipodi:role="line"
         id="tspan3816-2-1-9-62-0"
         x="1.9466236"
         y="69.881836"
         style="font-style:normal;font-variant:normal;font-weight:normal;font-stretch:normal;font-family:'EB Garamond';-inkscape-font-specification:'EB Garamond';stroke-width:1.63273">Continent of America</tspan></text></g></svg>
