<?xml version="1.0" encoding="UTF-8" standalone="no"?>
<!-- Created with Inkscape (http://www.inkscape.org/) -->

<svg
   xmlns:dc="http://purl.org/dc/elements/1.1/"
   xmlns:cc="http://creativecommons.org/ns#"
   xmlns:rdf="http://www.w3.org/1999/02/22-rdf-syntax-ns#"
   xmlns:svg="http://www.w3.org/2000/svg"
   xmlns="http://www.w3.org/2000/svg"
   xmlns:sodipodi="http://sodipodi.sourceforge.net/DTD/sodipodi-0.dtd"
   xmlns:inkscape="http://www.inkscape.org/namespaces/inkscape"
   width="310.08783mm"
   height="195.41368mm"
   viewBox="0 0 310.08783 195.41368"
   version="1.1"
   id="svg8"
   inkscape:version="0.92.5 (2060ec1f9f, 2020-04-08)"
   sodipodi:docname="danger-presented-nd.svg">
  <defs
     id="defs2">
    <style
       id="style836"
       type="text/css">
.state {fill:#D0D0D0}                        /* default color for all states not specified below */
.borders {stroke:#FFFFFF; stroke-width:1}    /* color and width of borders between states */
.dccircle {display:yes}                      /* set display to yes to show the circle for the District of Columbia, or none to hide it */
.separator1 {stroke:#B0B0B0; stroke-width:2} /* color and width of lines around Alaska and Hawaii */

/* Individual states can be colored as follows:
.ks,.mt,.pa {fill:#0000FF}
.ca,.de {fill:#FF0000}
In this example, Kansas, Montana and Pennsylvania are colored blue, and California and Delaware are colored red.
Place this code in the empty space below. */



</style>
  </defs>
  <sodipodi:namedview
     id="base"
     pagecolor="#ffffff"
     bordercolor="#666666"
     borderopacity="1.0"
     inkscape:pageopacity="0.0"
     inkscape:pageshadow="2"
     inkscape:zoom="0.49497475"
     inkscape:cx="368.08147"
     inkscape:cy="315.05612"
     inkscape:document-units="mm"
     inkscape:current-layer="layer1"
     showgrid="false"
     inkscape:window-width="1848"
     inkscape:window-height="1016"
     inkscape:window-x="72"
     inkscape:window-y="27"
     inkscape:window-maximized="1" />
  <metadata
     id="metadata5">
    <rdf:RDF>
      <cc:Work
         rdf:about="">
        <dc:format>image/svg+xml</dc:format>
        <dc:type
           rdf:resource="http://purl.org/dc/dcmitype/StillImage" />
        <dc:title></dc:title>
      </cc:Work>
    </rdf:RDF>
  </metadata>
  <g
     inkscape:label="Layer 1"
     inkscape:groupmode="layer"
     id="layer1"
     transform="translate(65.382271,-9.7186852)">
    <rect
       style="color:#000000;overflow:visible;opacity:1;fill:#ffffff;fill-opacity:1;fill-rule:evenodd;stroke:none;stroke-width:1.90843654;stroke-miterlimit:4;stroke-dasharray:none;stroke-dashoffset:536.69293213;stroke-opacity:1"
       id="rect1517"
       width="310.08783"
       height="195.41368"
       x="-65.382271"
       y="9.7186852" />
    <g
       id="g1738"
       transform="translate(5.9307636,-5.6579315)">
      <g
         transform="matrix(0.26458333,0,0,0.26458333,-56.919433,41.643583)"
         id="g1489">
        <g
           style="fill:#d0d0d0"
           class="state"
           id="g1044">
          <path
             style="fill:#008000"
             inkscape:connector-curvature="0"
             class="al"
             d="m 643,467.4 0.4,-7.3 -0.9,-1.2 -1.7,-0.7 -2.5,-2.8 0.5,-2.9 48.8,-5.1 -0.7,-2.2 -1.5,-1.5 -0.5,-1.4 0.6,-6.3 -2.4,-5.7 0.5,-2.6 0.3,-3.7 2.2,-3.8 -0.2,-1.1 -1.7,-1 v -3.2 l -1.8,-1.9 -2.9,-6.1 -12.9,-45.8 -45.7,4 1.3,2 -1.3,67 4.4,33.2 0.9,-0.5 1.3,0.1 0.6,0.4 0.8,-0.1 2,-3.8 v -2.3 l 1.1,-1.1 1.4,0.5 3.4,6.4 v 0.9 l -3.3,2.2 3.5,-0.4 4.9,-1.6 z"
             id="path842">
            <title
               id="title840">Alabama</title>
          </path>
          <!-- The scale of Alaska is 42% that of the contiguous United States, so its area is reduced to about 17.6%. The Islands of Four Mountains, Andreanof Islands, Rat Islands and Near Islands are not shown. -->
          <path
             style="fill:#008000"
             inkscape:connector-curvature="0"
             class="ak"
             d="m 15.8,572 h 2.4 l 0.7,0.7 -1,1.2 -1.9,0.2 -2.5,1.3 -3.7,-0.1 2.2,-0.9 0.3,-1.1 2.5,-0.3 z m 8.3,-1.7 1.3,0.5 h 0.9 l 0.5,1.2 0.3,-0.6 0.9,0.2 1.1,1.5 v 0.5 l -4.2,1.9 -2.4,-0.1 -1,-0.5 -1.1,0.7 h -2 l -1.1,-1.4 4.7,-0.5 z m 5.4,-0.1 1,0.1 0.7,0.7 v 1 L 29.9,572.1 29,571 Z m 2.5,0.3 1.3,-0.1 -0.1,1 -1.1,0.6 z m 0.3,2.2 3.4,-0.1 0.2,1.1 -1.3,0.1 -0.3,-0.5 -0.8,0.6 -0.4,-0.6 -0.9,-0.2 z m 166.3,7.6 2.1,0.1 -1,1.9 -1.1,-0.1 -0.4,-0.8 0.5,-1.3 m -1.1,-2.9 0.6,-1.3 -0.2,-2.3 2.4,-0.5 4.5,4.4 1.3,3.4 1.9,1.6 0.3,5.1 H 207 l -1.3,-2.3 -3.1,-2.4 H 202 l 1.1,2.8 1.7,0.2 0.2,2.1 -0.9,0.1 -4.1,-4.4 -0.1,-0.9 1.9,-1 v -1 l -0.5,-0.8 -1.6,-0.6 -1.7,-1.3 1.4,0.1 0.5,-0.4 -0.6,-0.9 -0.6,0.5 z m -3.6,-9.1 1.3,0.1 2.4,2.5 -0.2,0.8 -0.8,-0.1 -0.1,1.8 0.5,0.5 v 1.5 l -0.8,0.3 -0.4,1.2 -0.8,-0.4 -0.4,-2.2 1.1,-1.4 -2.1,-2.2 0.1,-1.2 z m 1.5,-1.5 1.9,0.2 2.5,0.1 3.4,3.2 -0.2,0.5 -1.1,0.6 -1.1,-0.2 -0.1,-0.7 -1.2,-1.6 -0.3,0.7 1,1.3 -0.2,1.2 -0.8,-0.1 -1.3,0.2 -0.1,-1.7 -2.6,-2.8 z m -12.7,-8.9 0.9,-0.4 h 1.6 l 0.7,-0.5 4.1,2.2 0.1,1.5 -0.5,0.5 h -0.8 l -1.4,-0.7 1.1,1.3 h 1.8 l 0.5,2 H 190 l -2.2,-1.5 -1.1,-0.2 0.6,1.3 0.1,0.9 0.8,-0.6 1.7,1.2 1.3,-0.1 -0.2,0.8 1.9,4.3 v 3.4 l 0.4,2.1 -0.8,0.3 -1.2,-2 -0.5,-1.5 -1.6,-1.6 -0.2,-2.7 -0.6,-1.7 h -0.7 l 0.3,1.1 v 0.5 l -1.4,1 0.1,-3.3 -1.6,-1.6 -1.3,-2.3 -1.2,-1.2 z m 7.2,-2.3 1.1,1.8 2.4,-0.1 1,2.1 -0.6,0.6 2,3.2 v 1.3 l -1.2,0.8 v 0.7 l -2,1.9 -0.5,-1.4 -0.1,-1.3 0.6,-0.7 v -1.1 l -1.5,-1.9 -0.5,-3.7 -0.9,-1.5 z m -56.7,-18.3 -4,4.1 v 1.6 l 2.1,-0.8 0.8,-1.9 2.2,-2.4 z m -31.6,16.6 v 0.6 l 1.8,1.2 0.2,-1.4 0.6,0.9 3.5,0.1 0.7,-0.6 0.2,-1.8 -0.5,-0.7 h -1.4 v -0.8 l 0.4,-0.6 v -0.4 l -1.5,-0.3 -3.3,3.6 z m -8.1,6.2 1.5,5.8 h 2.1 l 2.4,-2.5 0.3,1.2 6.3,-4 0.7,-1 -1,-1.1 v -0.7 l 0.5,-1.3 -0.9,-0.1 -2,1 V 556 l -2.7,-0.6 -2.4,0.3 -0.2,3.4 -0.8,-2 -1.5,-0.1 -1,0.6 z m -2.2,8.2 0.1,-0.7 2.1,-1.3 0.6,0.3 1.3,0.2 1.3,1.2 -2.2,-0.2 -0.4,-0.6 -1,0.6 z m -5.2,3.3 -1.1,0.8 1.5,1.4 0.8,-0.7 -0.1,-1.3 z m -6.3,-7.9 1.4,0.1 0.4,0.6 -1.8,0.1 z M 66,575.4 v 0.5 l 0.7,0.1 -0.1,-0.6 z m -0.4,-3.2 -1,1 v 0.5 l 0.7,1.1 1,-1 -0.7,-0.1 z m -2,-0.8 -0.3,1 -1.3,0.1 -0.4,0.2 v 1.3 l -0.5,0.9 h 0.6 l 0.7,-0.9 0.8,-0.1 0.9,-1 0.2,-1.3 z m -4.4,-2 -0.2,1.8 1.4,0.8 1.2,-0.6 v -1 l 1.7,-0.3 -0.1,-0.6 -0.9,-0.2 -0.7,0.6 -0.9,-0.5 z m -4.9,-0.1 1,0.7 -0.3,1.2 -1.4,-1.1 z m -4.2,1.3 1.4,0.1 -0.7,0.8 z m -3.5,3 1.8,1.1 -1.7,0.1 z m -25.4,-31.2 1.2,0.6 -0.8,0.6 z m -0.7,-6.3 0.4,1.2 0.8,-1.2 z m 24.3,-19.3 1.5,-0.1 0.9,0.4 1.1,-0.5 1.3,-0.1 1.6,0.8 0.8,1.9 -0.1,0.9 -1.2,2 -2.4,-0.2 -2.1,-1.8 -1,-0.4 -1.1,-2 z m -21.1,-14.4 0.1,1.9 2,2 v 0.5 L 25,506.6 23.3,505.8 23,504.7 22.7,503.1 Z M 42,479.1 v 1.2 l 1.9,1.8 h 2.3 l 0.6,1.1 v 1.6 l 2.1,1.9 1.8,1.2 -0.1,0.7 -0.7,1.1 -1.4,-1.2 -2.1,0.1 -0.8,-0.8 -0.9,-2.1 -1.5,-2.2 -2.6,-0.1 -1,-0.7 1,-2.1 z m 16.8,-4.5 h 1 l 0.1,1.1 h -1 z m 16.2,19.7 0.9,0.1 v 1.2 l -1.7,-0.5 z m 127.8,77.7 -1.2,0.4 -0.1,1.1 h 1.2 z m -157.6,-4.5 -1.3,-0.4 -4.1,0.6 -2.8,1.4 -0.1,1.9 1.9,0.7 1.5,-0.9 1.7,-0.1 4.7,1.4 0.1,-1.3 -1.6,-1.1 z m 2.1,2.3 -0.4,-1.4 1.2,0.2 0.1,1.4 H 50 l 0.4,-2.5 0.3,2.4 2.5,-0.1 3.2,-3.3 0.8,0.1 -0.7,1.3 1.4,0.9 4.2,-0.2 2.6,-1.2 1.4,-0.1 0.3,1.5 0.6,-0.5 0.4,-1.4 5.9,0.2 1.9,-1.6 -1.3,-1.1 0.6,-1.2 2.6,0.2 -0.2,-1.2 2.5,0.2 0.7,-1.1 1.1,0.2 4.6,-1.9 0.2,-1.7 5.6,-2.4 2,-1.9 1.2,-0.6 1.3,0.8 2.3,-0.9 1.1,-1.9 0.5,-1.3 1.7,-0.9 1.5,-0.7 0.4,-1.4 -1.1,-1.7 -2.2,-0.2 -0.2,-1.3 0.8,-1.6 1.4,-0.2 1.3,-1.5 1.9,-0.1 3.4,-3.2 0.4,-1.4 1.5,-2.3 3.8,-4.1 2.5,-0.9 1.9,-0.9 2.1,0.8 1.4,2.6 H 121 l -1.4,-1.5 -3,2 -1.7,0.1 -0.2,3.1 -3.1,4.9 0.6,2 h 2.3 l -0.6,1 -1.4,0.1 -2.4,1.8 v 0.9 l 1.9,1 3.4,-0.6 1.4,-1.7 1.4,0.1 3,-1.7 0.5,-2.3 1.6,-0.1 6.3,0.8 1,-1.1 1,-4.5 -1.6,1.1 0.6,-2.2 -1.6,-1.4 0.8,-1.5 0.1,1.5 h 3.4 l 0.7,-1 1.6,-0.1 -0.3,1.7 1.9,0.1 -1.9,1.3 4.1,1.1 -3.5,0.4 -1.3,1.2 0.9,1.4 4.6,-1.7 2.3,1.7 0.7,-0.9 0.6,1.4 4,2.3 h 2.9 l 3.9,-0.5 4.3,1.1 2,1.9 4.5,0.4 1.8,-1.5 0.8,2.4 -1.8,0.7 1.2,1.2 7.4,3.8 1.4,2.5 5.4,4.1 3.3,-2 -0.6,-2.2 -3.5,-2 3.1,1.2 0.5,-0.7 0.9,1.3 v 2.7 l 2.1,-0.6 2.1,1.8 -2.5,-9.8 1.2,1.3 1.4,6 2.2,2.5 2.4,-0.4 1.8,3.5 h 0.9 l 0.6,5.6 3.4,0.5 1.6,2.2 1.8,1.1 0.4,2.8 -1.8,2.6 2.9,1.6 1.2,-2.4 -0.2,3.1 -0.8,0.9 1.4,1.7 0.7,-2.4 -0.2,-1.2 0.8,0.2 0.6,2.3 -1,1.4 0.6,2.6 0.5,0.4 0.3,-1.6 0.7,0.6 -0.3,2 1.2,0.2 -0.4,0.9 1.7,-0.1 v -1 h -1 l 0.1,-1.7 -0.8,-0.6 1.7,-0.3 0.5,-0.8 v -1.6 l 0.5,1.3 -0.6,1.8 1.2,3.9 1.8,0.1 2.2,-4.2 0.1,-1.9 -1.3,-4 -0.1,-1.2 0.5,-1.2 -0.7,-0.7 -1.7,0.1 -2.5,-2 h -1.7 l -2,-1.4 h -1.5 l -0.5,-1.6 -1.4,-0.3 -0.2,-1.5 -1,-0.5 0.1,-1.7 -5.1,-7.4 -1.8,-1.5 V 554 l -4.3,-3.5 -0.7,-1.1 -1.6,-2 -1.9,-0.6 v -2.2 l -1.2,-1.3 -1.7,-0.7 -2.1,1.3 -1.6,2.1 -0.4,2.4 -1.5,0.1 -2.5,2.7 -0.8,-0.3 v -2.5 l -2.4,-2.2 -2.3,-2 -0.5,-2 -2.5,-1.3 0.2,-2.2 -2.8,-0.1 -0.7,1.1 h -1.2 l -0.7,-0.7 -1.2,0.8 -1.8,-1.2 v -85.8 l -6.9,-4.1 -1.8,-0.5 -2.2,1.1 -2.2,0.1 -2.3,-1.6 -4.3,-0.6 -5.8,-3.6 -5.7,-0.4 -2,0.5 -0.2,-1.8 -1.8,-0.7 1.1,-1 -0.2,-0.9 -3.2,-1.1 h -2.4 l -0.4,0.4 -0.9,-0.6 0.1,-2.6 -0.8,-0.9 -2.5,2.9 -0.8,-0.1 v -0.8 l 1.7,-0.8 v -0.8 l -1.9,-2.4 -1.1,-0.1 -4.5,3.1 h -3.9 l 0.4,-0.9 -1.8,-0.1 -5.2,3.4 h -1.8 l -0.6,-0.8 -2.7,1.5 -3.6,3.7 -2.8,2.7 -1.5,1.2 -2.6,0.1 -2.2,-0.4 -2.3,-1.3 v 0 l -2.8,3.9 -0.1,2.4 2.6,2.4 2.1,4.5 0.2,5.3 2.9,2 3.4,0.4 0.7,0.8 -1.5,2.3 0.7,2.7 -1.7,-2.6 v -2.4 l -1.5,-0.3 0.1,1.2 0.7,2.1 2.9,3.7 h -1.4 l -2.2,1.1 -6.2,-2.5 -0.1,-2 1.4,-1.3 v -1.4 l -2.1,-0.5 -2.3,0.2 -4.8,0.2 1.5,2.3 -1.9,-1.8 -8.4,1.2 -0.8,1.5 4.9,4.7 -0.8,1.4 -0.3,2 -0.7,0.8 -0.1,1.9 4.4,3.6 4.1,0.2 4.6,1.9 h 2 l 0.8,-0.6 3.8,0.1 0.1,-0.8 1.2,1.1 0.1,2 -2.5,-0.1 0.1,3.3 0.5,3.2 -2.9,2.7 -1.9,-0.1 -2,-0.8 -1,0.1 -3.1,2.1 -1.7,0.2 -1.4,-2.8 H 66 l -2.2,2 -0.5,1.8 -3.3,1.8 -5.3,4.3 -0.3,3.1 0.7,2.2 1,1.2 1,-0.4 0.9,1 -0.8,0.6 -1.5,0.9 1.1,1.5 -2.6,1.1 0.8,2.2 1.7,2.3 0.8,4.1 4,1.5 2.6,-0.8 1.7,-1.1 0.5,2.1 0.3,4.4 -1.9,1.4 v 4.4 l -0.6,0.9 h -1.7 l 1.7,1.2 2.1,-0.1 0.4,-1 4.6,-0.6 2,2.6 1.3,-0.7 1.3,5.1 1,0.5 1,-0.7 0.1,-2.4 0.9,-1 0.7,1.1 0.2,1.6 1.6,0.4 4.7,-1.2 0.2,1.2 -2,1.1 -1.6,1.7 -2.8,7 -4.3,2 -1.4,1.5 -0.3,1.4 -1,-0.6 -9.3,3.3 -1.8,4.1 -1.3,-0.4 0.5,-1.1 -1.5,-1.4 -3.5,-0.2 -5.3,3.2 -2.2,1.3 h -2.3 l -0.5,2.4 z"
             id="path846">
            <title
               id="title844">Alaska</title>
          </path>
          <path
             style="fill:#008000"
             inkscape:connector-curvature="0"
             class="az"
             d="m 139.6,387.6 3,-2.2 0.8,-2.4 -1,-1.6 -1.8,-0.2 -1.1,-1.6 1.1,-6.9 1.6,-0.3 2.4,-3.2 1.6,-7 2.4,-3.6 4.8,-1.7 1.3,-1.3 -0.4,-1.9 -2.3,-2.5 -1.2,-5.8 -1.4,-1.8 -1.3,-3.4 0.9,-2.1 1.4,-3 0.5,-2.9 -0.5,-4.9 1,-13.6 3.5,-0.6 3.7,1.4 1.2,2.7 h 2 l 2.4,-2.9 3.4,-17.5 46.2,8.2 40,6 -17.4,124.1 -37.3,-5.4 -64.2,-37.5 0.5,-2.9 2,-1.8 z"
             id="path850">
            <title
               id="title848">Arizona</title>
          </path>
          <path
             style="fill:#008000"
             inkscape:connector-curvature="0"
             class="ar"
             d="m 584.2,367 0.9,-2.2 1.2,0.5 0.7,-1 -0.8,-0.7 0.3,-1.5 -1.1,-0.9 0.6,-1 -0.1,-1.5 -1.1,-0.1 0.8,-0.8 1.3,0.8 0.3,-1.4 -0.4,-1.1 0.1,-0.7 2,0.6 -0.4,-1.5 1.6,-1.3 -0.5,-0.9 -1.1,0.1 -0.6,-0.9 0.9,-0.9 1.6,-0.2 0.5,-0.8 1.4,-0.2 -0.1,-0.8 -0.9,-0.9 v -0.5 h 1.5 l 0.4,-0.7 -1.4,-1 -0.1,-0.6 -11.2,0.8 2.8,-5.1 1.7,-1.5 v -2.2 l -1.6,-2.5 -39.8,2 -39.1,0.7 4.1,24.4 -0.7,39 2.6,2.3 2.8,-1.3 3.2,0.8 0.2,11.9 52.3,-1.3 1.2,-1.5 0.5,-3 -1.5,-2.3 -0.5,-2.2 0.9,-0.7 v -0.8 l -1.7,-1.1 -0.1,-0.7 1.6,-0.9 -1.2,-1.1 1.7,-7.1 3.4,-1.6 v -0.8 l -1.1,-1.4 2.9,-5.4 h 1.9 l 1.5,-1.2 -0.3,-5.2 3.1,-4.5 1.8,-0.6 -0.5,-3.1 z"
             id="path854">
            <title
               id="title852">Arkansas</title>
          </path>
          <path
             style="fill:#008000"
             inkscape:connector-curvature="0"
             class="ca"
             d="m 69.4,365.6 3.4,5.2 -1.4,0.1 -1.8,-1.9 z m 1.9,-9.8 1.8,4.1 2.6,1 0.7,-0.6 -1.3,-2.5 -2.6,-2.4 z m -19.9,-19 v 2.4 l 2,1.2 4.4,-0.2 1,-1 -3.1,-0.2 z m -5.9,0.1 3.3,0.5 1.4,2.2 h -3.8 z m 47.9,45.5 -1,-3 0.2,-3 -0.4,-7.9 -1.8,-4.8 -1.2,-1.4 -0.6,-1.5 -7,-8.6 -3.6,0.1 -2,-1.9 1.1,-1.8 -0.7,-3.7 -2.2,-1.2 -3.9,-0.6 -2.8,-1.3 -1.5,-1.9 -4.5,-6.6 -2.7,-2.2 -3.7,-0.5 -3.1,-2.3 -4.7,-1.5 -2.8,-0.3 -2.5,-2.5 0.2,-2.8 0.8,-4.8 1.8,-5.1 -1.4,-1.6 -4,-9.4 -2.7,-3.7 -0.4,-3 -1.6,-2.3 0.2,-2.5 -2,-5 -2.9,-2.7 0.6,-7.1 2.4,-0.8 1.8,-3.1 -0.4,-3.2 -1,-0.9 h -2.5 l -2.5,-3.3 -1.5,-3.5 v -7.5 l 1.2,-4.2 0.2,-2.1 2.5,0.2 -0.1,1.6 -0.8,0.7 v 2.5 l 3.7,3.2 v -4.7 l -1.4,-3.4 0.5,-1.1 -1,-1.7 2.8,-1.5 -1.9,-3 -1.4,0.5 -1.5,3.8 0.5,1.3 -0.8,1 -0.9,-0.1 -5.4,-6.1 0.7,-5.6 -1.1,-3.9 -6.5,-12.8 0.8,-10.7 2.3,-3.6 0.2,-6.4 -5.5,-11.1 0.3,-5.2 6.9,-7.5 1.7,-2.4 -0.1,-1.4 4,-9.2 0.1,-8.4 0.9,-2.5 66.1,18.6 -16.4,63.1 1.1,3.5 70.4,105 -0.9,2.1 1.3,3.4 1.4,1.8 1.2,5.8 2.3,2.5 0.4,1.9 -1.3,1.3 -4.8,1.7 -2.4,3.6 -1.6,7 -2.4,3.2 -1.6,0.3 -1.1,6.9 1.1,1.6 1.8,0.2 1,1.6 -0.8,2.4 -3,2.2 -2.2,-0.1 z"
             id="path858">
            <title
               id="title856">California</title>
          </path>
          <path
             style="fill:#008000"
             inkscape:connector-curvature="0"
             class="co"
             d="m 374.6,323.3 -16.5,-1 -51.7,-4.8 -52.6,-6.5 11.5,-88.3 44.9,5.7 37.5,3.4 33.1,2.4 -1.4,22.1 z"
             id="path862">
            <title
               id="title860">Colorado</title>
          </path>
          <path
             style="fill:#008000"
             inkscape:connector-curvature="0"
             class="ct"
             d="m 873.5,178.9 0.4,-1.1 -3.2,-12.3 -0.1,-0.3 -14.9,3.4 v 0.7 l -0.9,0.3 -0.5,-0.7 -10.5,2.4 2.8,16.3 1.8,1.5 -3.5,3.4 1.7,2.2 5.4,-4.5 1.7,-1.3 h 0.8 l 2.4,-3.1 1.4,0.1 2.9,-1.1 h 2.1 l 5.3,-2.7 2.8,-0.9 1,-1 1.5,0.5 z"
             id="path866">
            <title
               id="title864">Connecticut</title>
          </path>
          <path
             style="fill:#008000"
             inkscape:connector-curvature="0"
             class="de"
             d="m 822.2,226.6 -1.6,0.3 -1.5,1.1 -1.2,2.1 7.6,27.1 10.9,-2.3 -2.2,-7.6 -1.1,0.5 -3.3,-2.6 -0.5,-1.7 -1.8,-1 -0.2,-3.7 -2.1,-2.2 -1.1,-0.8 -1.2,-1.1 -0.4,-3.2 0.3,-2.1 1,-2.2 z"
             id="path870">
            <title
               id="title868">Delaware</title>
          </path>
          <path
             style="fill:#008000"
             inkscape:connector-curvature="0"
             class="fl"
             d="m 751.7,445.1 -4,-0.7 -1.7,-0.9 -2.2,1.4 v 2.5 l 1.4,2.1 -0.5,4.3 -2.1,0.6 -1,-1.1 -0.6,-3.2 -50.1,3.3 -3.3,-6 -48.8,5.1 -0.5,2.9 2.5,2.8 1.7,0.7 0.9,1.2 -0.4,7.3 -1.1,0.6 0.5,0.4 1,-0.3 0.7,-0.8 10.5,-2.7 9.2,-0.5 8.1,1.9 8.5,5 2.4,0.8 2.2,2 -0.1,2.7 h 2.4 l 1.9,-1 2.5,0.1 2,-0.8 2.9,-2 3.1,-2.9 1.1,-0.4 0.6,0.5 h 1.4 l 0.5,-0.8 -0.5,-1.2 -0.6,-0.6 0.2,-0.8 2,-1.1 5,-0.4 0.8,1 1,0.1 2.3,1 3,1.8 1.2,1.7 1.1,1.2 2.8,1.4 v 2.4 l 2.8,1.9 1,0.1 1.6,1.4 0.7,1.6 1,0.2 0.8,2.1 0.7,0.6 1,-1.1 2.9,0.1 0.5,1.4 1.1,0.9 v 1.3 l 2.9,2.2 0.2,9.6 -1.8,5.8 1,1.2 -0.2,3.4 -0.8,1.4 0.7,1.2 2.3,2.3 0.3,1.5 0.8,1 -0.4,-1.9 1.3,-0.6 0.8,-3.6 -3,-1.2 0.1,-0.6 2.6,-0.4 0.9,2.6 1.1,0.6 0.1,-2 1.1,0.3 0.6,0.8 -0.1,0.7 -2.9,4.2 -0.2,1.1 -1.7,1.9 v 1.1 l 3.7,3.8 5.3,7.9 1.8,2.1 v 1.8 l 2.8,4.6 2.3,0.6 0.7,-1.2 -2.1,0.3 -3,-4.5 0.2,-1.4 1.5,-0.8 v -1.5 l -0.6,-1.3 0.9,-0.9 0.4,0.9 0.7,0.5 v 4 l -1.2,-0.6 -0.8,0.9 1.4,1.6 1,2.6 1.2,-0.6 2.3,1.2 2.1,2.2 1.6,5.1 3.1,4.8 0.8,-1.3 2.8,-0.5 3.2,1.3 0.3,1.7 3.3,3.8 0.1,1.1 2.2,2.7 -0.7,0.5 v 2.7 l 2.7,1.4 h 1.5 l 2.7,-1.8 1.5,0.3 1.1,0.4 2.3,-1.7 0.2,-0.7 1.2,0.3 2.4,-1.7 1.3,-2.3 -0.7,-3.2 -0.2,-1.3 1.1,-4 0.6,-0.2 0.6,1.6 0.8,-1.8 -0.8,-7.2 -0.4,-10.5 -1,-6.8 -0.7,-1.7 -6.6,-11.1 -5.2,-9.1 -2.2,-3.3 -1.3,-3.6 -0.2,-3.4 0.9,-0.3 v -0.9 l -1.1,-2.2 -4,-4 -7.6,-9.7 -5.7,-10.4 -4.3,-10.7 -0.6,-3.7 -1.2,-1 -0.5,-3.8 z m 9.2,134.5 1.7,-0.1 -0.7,-1 z m 7.3,-1.1 v -0.7 l 1.6,-0.2 3.7,-3.3 1.5,-0.6 2.4,-0.9 0.3,1.3 1.7,0.8 -2.6,1.2 h -2.4 l -3.9,2.5 z m 17.2,-7.6 -3,1.4 -1,1.3 1.1,0.1 z m 3.8,-2.9 -1.1,0.3 -1.4,2 1.1,-0.2 1.5,-1.6 z m 8.3,-15.7 -1.7,5.6 -0.8,1 -1,2.6 -1.2,1.6 -0.7,1.7 -1.9,2.2 v 0.9 l 2.7,-2.8 2.4,-3.5 0.6,-2 2.1,-4.9 z"
             id="path874">
            <title
               id="title872">Florida</title>
          </path>
          <path
             style="fill:#008000"
             inkscape:connector-curvature="0"
             class="ga"
             d="m 761.8,414.1 v 1.4 l -4.2,6.2 -1.2,0.2 1.5,0.5 v 2 l -0.9,1.1 -0.6,6 -2.3,6.2 0.5,2 0.7,5.1 -3.6,0.3 -4,-0.7 -1.7,-0.9 -2.2,1.4 v 2.5 l 1.4,2.1 -0.5,4.3 -2.1,0.6 -1,-1.1 -0.6,-3.2 -50.1,3.3 -3.3,-6 -0.7,-2.2 -1.5,-1.5 -0.5,-1.4 0.6,-6.3 -2.4,-5.7 0.5,-2.6 0.3,-3.7 2.2,-3.8 -0.2,-1.1 -1.7,-1 v -3.2 l -1.8,-1.9 -2.9,-6.1 -12.9,-45.8 22.9,-2.9 21.4,-3 -0.1,1.9 -1.9,1 -1.4,3.2 0.2,1.3 6.1,3.8 2.6,-0.3 3.1,4 0.4,1.7 4.2,5.1 2.6,1.7 1.4,0.2 2.2,1.6 1.1,2.2 2,1.6 1.8,0.5 2.7,2.7 0.1,1.4 2.6,2.8 5,2.3 3.6,6.7 0.3,2.7 3.9,2.1 2.5,4.8 0.8,3.1 4.2,0.4 z"
             id="path878">
            <title
               id="title876">Georgia</title>
          </path>
          <!-- Hawaii is shown in the same scale as the contiguous United States. The Northwestern Hawaiian Islands are not shown. -->
          <path
             style="fill:#008000"
             inkscape:connector-curvature="0"
             class="hi"
             d="m 317,553.7 -0.2,3.2 1.7,1.9 0.1,1.2 -4.8,4.5 -0.1,1.2 1.9,3.2 1.7,4.2 v 2.6 l -0.5,1.2 0.1,3.4 4.1,2.1 1.1,1.1 1.2,-1.1 2.1,-3.6 4.5,-2.9 3.3,-0.5 2.5,-1 1.7,-1.2 3.2,-3.5 -2.8,-1.1 -1.4,-1.4 0.1,-1.7 -0.5,-0.6 h -2 l 0.2,-2.5 -0.7,-1.2 -2.6,-2.3 -4.5,-1.9 -2.8,-0.2 -3.3,-2.7 -1.2,-0.6 z m -15.3,-17 -1.1,1.5 -0.1,1.7 2.7,2.4 1.9,0.5 0.6,1 0.4,3 3.6,0.2 5.3,-2.6 -0.1,-2.5 -1.4,-0.5 -3.5,-2.6 -1.8,-0.3 -2.9,1.3 -1.5,-2.7 z m -1.5,11.5 0.9,-1.4 2.5,-0.3 0.6,1.8 z m -7,-8.7 1.7,4 3.1,-0.6 0.3,-2 -1.4,-1.5 z m -4.1,-6.7 -1.1,2.4 h 5 l 4.8,1.6 2.5,-1.6 0.2,-1.5 -4.8,0.2 z m -16,-10.6 -1.9,2.1 -2.9,0.6 0.8,2.2 2.2,2.8 0.1,1 2.1,-0.3 2.3,0.1 1.7,1.2 3.5,-0.8 v -0.7 l -1,-0.8 -0.5,-2.1 -0.8,-0.3 -0.5,1 -1.2,-1.3 0.2,-1.4 -1.8,-3.3 -1.1,-0.7 z m -31.8,-12.4 -4.2,2.9 0.2,2.3 2.4,1.2 1.9,1.3 2.7,0.4 2.6,-2.2 -0.2,-1.9 0.8,-1.7 v -1.4 l -1,-0.9 z m -10.8,4.8 -0.3,1.2 -1.9,0.9 -0.6,1.8 1,0.8 1.1,-1.5 1.9,-0.6 0.4,-2.6 z"
             id="path882">
            <title
               id="title880">Hawaii</title>
          </path>
          <path
             style="fill:#008000"
             inkscape:connector-curvature="0"
             class="id"
             d="m 165.3,183.1 -24.4,-5.4 8.5,-37.3 2.9,-5.8 0.4,-2.1 0.8,-0.9 -0.9,-2 -2.9,-1.2 0.2,-4.2 4,-5.8 2.5,-0.8 1.6,-2.3 -0.1,-1.6 1.8,-1.6 3.2,-5.5 4.2,-4.8 -0.5,-3.2 -3.5,-3.1 -1.6,-3.6 1.1,-4.3 -0.7,-4 12.7,-56.1 14.2,3 -4.8,22 3.7,7.4 -1.6,4.8 3.6,4.8 1.9,0.7 3.9,8.3 v 2.1 l 2.3,3 h 0.9 l 1.4,2.1 h 3.2 v 1.6 l -7.1,17 -0.5,4.1 1.4,0.5 1.6,2.6 2.8,-1.4 3.6,-2.4 1.9,1.9 0.5,2.5 -0.5,3.2 2.5,9.7 2.6,3.5 2.3,1.4 0.4,3 v 4.1 l 2.3,2.3 1.6,-2.3 6.9,1.6 2.1,-1.2 9,1.7 2.8,-3.3 1.8,-0.6 1.2,1.8 1.6,4.1 0.9,0.1 -8.5,54.8 -47.9,-8.2 z"
             id="path886">
            <title
               id="title884">Idaho</title>
          </path>
          <path
             style="fill:#008000"
             inkscape:connector-curvature="0"
             class="il"
             d="m 623.5,265.9 -1,5.2 v 2 l 2.4,3.5 v 0.7 l -0.3,0.9 0.9,1.9 -0.3,2.4 -1.6,1.8 -1.3,4.2 -3.8,5.3 -0.1,7 h -1 l 0.9,1.9 v 0.9 l -2.2,2.7 0.1,1.1 1.5,2.2 -0.1,0.9 -3.7,0.6 -0.6,1.2 -1.2,-0.6 -1,0.5 -0.4,3.3 1.7,1.8 -0.4,2.4 -1.5,0.3 -6.9,-3 -4,3.7 0.3,1.8 h -2.8 l -1.4,-1.5 -1.8,-3.8 v -1.9 l 0.8,-0.6 0.1,-1.3 -1.7,-1.9 -0.9,-2.5 -2.7,-4.1 -4.8,-1.3 -7.4,-7.1 -0.4,-2.4 2.8,-7.6 -0.4,-1.9 1.2,-1.1 v -1.3 l -2.8,-1.5 -3,-0.7 -3.4,1.2 -1.3,-2.3 0.6,-1.9 -0.7,-2.4 -8.6,-8.4 -2.2,-1.5 -2.5,-5.9 -1.2,-5.4 1.4,-3.7 0.7,-0.7 0.1,-2.3 -0.7,-0.9 1,-1.5 1.8,-0.6 0.9,-0.3 1,-1.2 v -2.4 l 1.7,-2.4 0.5,-0.5 0.1,-3.5 -0.9,-1.4 -1,-0.3 -1.1,-1.6 1,-4 3,-0.8 h 2.4 l 4.2,-1.8 1.7,-2.2 0.1,-2.4 1.1,-1.3 1.3,-3.2 -0.1,-2.6 -2.8,-3.5 h -1.2 l -0.9,-1.1 0.2,-1.6 -1.7,-1.7 -2.5,-1.3 0.5,-0.6 45.9,-2.8 0.1,4.6 3.4,4.6 1.2,4.1 1.6,3.2 z"
             id="path890">
            <title
               id="title888">Illinois</title>
          </path>
          <path
             style="fill:#008000"
             inkscape:connector-curvature="0"
             class="in"
             d="m 629.2,214.8 -5.1,2.3 -4.7,-1.4 4.1,50.2 -1,5.2 v 2 l 2.4,3.5 v 0.7 l -0.3,0.9 0.9,1.9 -0.3,2.4 -1.6,1.8 -1.3,4.2 -3.8,5.3 -0.1,7 h -1 l 0.9,1.9 1.1,0.8 0.6,-1 -0.7,-1.7 4.6,-0.5 0.2,1.2 1.1,0.2 0.4,-0.9 -0.6,-1.3 0.3,-0.8 1.3,0.8 1.7,-0.4 1.7,0.6 3.4,2.1 1.8,-2.8 3.5,-2.2 3,3.3 1.6,-2.1 0.3,-2.7 3.8,-2.3 0.2,1.3 1.9,1.2 3,-0.2 1.2,-0.7 0.1,-3.4 2.5,-3.7 4.6,-4.4 -0.1,-1.7 1.2,-3.8 2.2,1 6.7,-4.5 -0.4,-1.7 -1.5,-2.1 1,-1.9 -6.6,-57.2 -0.1,-1.4 -32.4,3.4 z"
             id="path894">
            <title
               id="title892">Indiana</title>
          </path>
          <path
             style="fill:#008000"
             inkscape:connector-curvature="0"
             class="ia"
             d="m 556.9,183 2.1,1.6 0.6,1.1 -1.6,3.3 -0.1,2.5 2,5.5 2.7,1.5 3.3,0.7 1.3,2.8 -0.5,0.6 2.5,1.3 1.7,1.7 -0.2,1.6 0.9,1.1 h 1.2 l 2.8,3.5 0.1,2.6 -1.3,3.2 -1.1,1.3 -0.1,2.4 -1.7,2.2 -4.2,1.8 h -2.4 l -3,0.8 -1,4 1.1,1.6 1,0.3 0.9,1.4 -0.1,3.5 -0.5,0.5 -1.7,2.4 v 2.4 l -1,1.2 -0.9,0.3 -1.8,0.6 -1,1.5 0.7,0.9 -0.1,2.3 -0.7,0.7 -1.5,-0.8 -1.1,-1.1 -0.6,-1.6 -1.7,-1.3 -14.3,0.8 -27.2,1.2 -25.9,-0.1 -1.8,-4.4 0.7,-2.2 -0.8,-3.3 0.2,-2.9 -1.3,-0.7 -0.4,-6.1 -2.8,-5 -0.2,-3.7 -2.2,-4.3 -1.3,-3.7 v -1.4 l -0.6,-1.7 v -2.3 l -0.5,-0.9 -0.7,-1.7 -0.3,-1.3 -1.3,-1.2 1,-4.3 1.7,-5.1 -0.7,-2 -1.3,-0.4 -0.4,-1.6 1,-0.5 0.1,-1.1 -1.3,-1.5 0.1,-1.6 2.2,0.1 h 28.2 l 36.3,-0.9 18.6,-0.7 z"
             id="path898">
            <title
               id="title896">Iowa</title>
          </path>
          <path
             style="fill:#008000"
             inkscape:connector-curvature="0"
             class="ks"
             d="m 459.1,259.5 -43.7,-1.2 -36,-2 -4.8,67 67.7,2.9 62,0.1 -0.5,-48.1 -3.2,-0.7 -2.6,-4.7 -2.5,-2.5 0.5,-2.3 2.7,-2.6 0.1,-1.2 -1.5,-2.1 -0.9,1 -2,-0.6 -2.9,-3 z"
             id="path902">
            <title
               id="title900">Kansas</title>
          </path>
          <path
             style="fill:#008000"
             inkscape:connector-curvature="0"
             class="ky"
             d="m 692.1,322.5 -20.5,1.4 -5.2,0.8 -17.4,1 -2.6,0.8 -22.6,2 -0.7,-0.6 h -3.7 l 1.2,3.2 -0.6,0.9 -23.3,1.5 1,-2.7 1.4,0.9 0.7,-0.4 1.2,-4.1 -1,-1 1,-2 0.2,-0.9 -1.3,-0.8 -0.3,-1.8 4,-3.7 6.9,3 1.5,-0.3 0.4,-2.4 -1.7,-1.8 0.4,-3.3 1,-0.5 1.2,0.6 0.6,-1.2 3.7,-0.6 0.1,-0.9 -1.5,-2.2 -0.1,-1.1 2.2,-2.7 v -0.9 l 1.1,0.8 0.6,-1 -0.7,-1.7 4.6,-0.5 0.2,1.2 1.1,0.2 0.4,-0.9 -0.6,-1.3 0.3,-0.8 1.3,0.8 1.7,-0.4 1.7,0.6 3.4,2.1 1.8,-2.8 3.5,-2.2 3,3.3 1.6,-2.1 0.3,-2.7 3.8,-2.3 0.2,1.3 1.9,1.2 3,-0.2 1.2,-0.7 0.1,-3.4 2.5,-3.7 4.6,-4.4 -0.1,-1.7 1.2,-3.8 2.2,1 6.7,-4.5 -0.4,-1.7 -1.5,-2.1 1,-1.9 1.3,0.5 2.2,0.1 1.9,-0.8 2.9,1.2 2.2,3.4 v 1 l 4.1,0.7 2.3,-0.2 1.9,2.1 2.2,0.2 v -1 l 1.9,-0.8 3,0.8 1.2,0.8 1.3,-0.7 h 0.9 l 0.6,-1.7 3.4,-1.8 0.5,0.8 0.8,2.9 3.5,1.4 1.2,2.1 -0.1,1.1 0.6,1 -0.6,3.6 1.9,1.6 0.8,1.1 1,0.6 -0.1,0.9 4.4,5.6 h 1.4 l 1.5,1.8 1.2,0.3 1.4,-0.1 -4.9,6.6 -2.9,1 -3,3 -0.4,2.2 -2.1,1.3 -0.1,1.7 -1.4,1.4 -1.8,0.5 -0.5,1.9 -1,0.4 -6.9,4.2 z m -98,11.3 -0.7,-0.7 0.2,-1 h 1.1 l 0.7,0.7 -0.3,1 z"
             id="path906">
            <title
               id="title904">Kentucky</title>
          </path>
          <path
             style="fill:#008000"
             inkscape:connector-curvature="0"
             class="la"
             d="m 602.5,472.8 -1.2,-1.8 0.3,-1.3 -4.8,-6.8 0.9,-4.6 1,-1.4 0.1,-1.4 -36,2 1.7,-11.9 2.4,-4.8 6,-8.4 -1.8,-2.5 h 2 v -3.3 l -2.4,-2.5 0.5,-1.7 -1.2,-1 -1.6,-7.1 0.6,-1.4 -52.3,1.3 0.5,19.9 0.7,3.4 2.6,2.8 0.7,5.4 3.8,4.6 0.8,4.3 h 1 l -0.1,7.3 -3.3,6.4 1.3,2.3 -1.3,1.5 0.7,3 -0.1,4.3 -2.2,3.5 -0.1,0.8 -1.7,1.2 1,1.8 1.2,1.1 1.6,-1.3 5.3,-0.9 6.1,-0.1 9.6,3.8 8,1 1.5,-1.4 1.8,-0.2 4.8,2.2 1.6,-0.4 1.1,-1.5 -4.2,-1.8 -2.2,1 -1.1,-0.2 -1.4,-2 3.3,-2.2 1.6,-0.1 v 1.7 l 1.5,-0.1 3.4,-0.3 0.4,2.3 1.1,0.4 0.6,1.9 4.8,1 1.7,1.6 v 0.7 h -1.2 l -1.5,1.7 1.7,1.2 5.4,1 2.7,2.8 4.4,-1 -3.7,0.2 -0.1,-0.6 2.8,-0.7 0.2,-1.8 1.2,-0.3 V 494 l 1.1,0.1 v 1.6 l 2.5,0.1 0.8,-1.9 0.9,0.3 0.2,2.5 1.2,0.2 -1.8,2 2.6,-0.9 2,-1.1 2.9,-3.3 h -0.7 l -1.3,1.2 -0.4,-0.1 -0.5,-0.8 0.9,-1.2 v -2.3 l 1.1,-0.8 0.7,0.7 1,-0.8 1,-0.1 0.6,1.3 -0.6,1.9 h 2.4 l 5.1,1.7 0.5,1.3 1.6,1.4 2.8,0.1 1.3,0.7 1.8,-1 0.9,-1.7 v -1.7 h -1.4 l -1.2,-1.4 -1.1,-1.1 -3.2,-0.9 -2.6,0.2 -4.2,-2.4 v -2.3 l 1.3,-1 2.4,0.6 -3.1,-1.6 0.2,-0.8 h 3.6 l 2.6,-3.5 -2.6,-1.8 0.8,-1.5 -1.2,-0.8 h -0.8 l -2,2.1 v 2.1 l -0.6,0.7 -1.1,-0.1 -1.6,-1.4 h -1.3 V 477 l 0.6,-0.7 0.8,0.7 1.7,-1.6 0.7,-1.6 0.8,-0.3 z m -10.3,-2.7 1.9,1 0.8,1.1 2.5,0.1 1.5,0.8 0.2,1.4 -0.4,0.6 -0.9,-1.5 -1.4,1.2 -0.9,1.4 -2.8,0.8 -1.6,0.1 -3.7,-1 0.1,-1.7 2,-2 1.1,-2.4 z m -4.7,1.2 v 1.1 l -1.8,2 h -1.2 v -2.2 l 1.6,-1.5 z"
             id="path910">
            <title
               id="title908">Louisiana</title>
          </path>
          <path
             style="fill:#008000"
             inkscape:connector-curvature="0"
             class="me"
             d="m 875,128.7 0.6,4 3.2,2 0.8,2.2 2.3,1.4 1.4,-0.3 1,-3 -0.8,-2.9 1.6,-0.9 0.5,-2.8 -0.6,-1.3 3.3,-1.9 -2.2,-2.3 0.9,-2.4 1.4,-2.2 0.5,3.2 1.6,-2 1.3,0.9 1.2,-0.8 v -1.7 l 3.2,-1.3 0.3,-2.9 2.5,-0.2 2.7,-3.7 v -0.7 l -0.9,-0.5 -0.1,-3.3 0.6,-1.1 0.2,1.6 1,-0.5 -0.2,-3.2 -0.9,0.3 -0.1,1.2 -1.2,-1.4 0.9,-1.4 0.6,0.1 1.1,-0.4 0.5,2.8 2,-0.3 2.9,0.7 v -1 l -1.1,-1.2 1.3,0.1 0.1,-2.3 0.6,0.8 0.3,1.9 2.1,1.5 0.2,-1 0.9,-0.2 -0.3,-0.8 0.8,-0.6 -0.1,-1.6 -1.6,-0.2 -2,0.7 1.4,-1.6 0.7,-0.8 1.3,-0.2 0.4,1.3 1.7,1.6 0.4,-2.1 2.3,-1.2 -0.9,-1.3 0.1,-1.7 1.1,0.5 h 0.7 l 1.7,-1.4 0.4,-2.3 2.2,0.3 0.1,-0.7 0.2,-1.6 0.5,1.4 1.5,-1 2.3,-4.1 -0.1,-2.2 -1.4,-2 -3,-3.2 H 921 l -0.8,2.2 -2.9,-3 0.3,-0.8 v -1.5 l -1.6,-4.5 -0.8,-0.2 -0.7,0.4 h -4.8 l -0.3,-3.6 -8.1,-26 -7.3,-3.7 -2.9,-0.1 -6.7,6.6 -2.7,-1 -1,-3.9 H 878 l -6.9,19.5 0.7,6.2 -1.7,2.4 -0.4,4.6 1.3,3.7 0.8,0.2 v 1.6 l -1.6,4.5 -1.5,1.4 -1.3,2.2 -0.4,7.8 -2.4,-1 -1.5,0.4 z m 34.6,-24.7 -1,0.8 v 1.3 l 0.7,-0.8 0.9,0.8 0.4,-0.5 1.1,0.2 -1,-0.8 0.4,-0.8 z m -1.7,2.6 -1,1.1 0.5,0.4 -0.1,1 h 1.1 v -1.8 z m -3,-1.6 0.9,1.3 1,0.5 0.3,-1 V 104 l -1.3,-0.7 -0.4,1.2 z m -1,5 -1.7,-1.7 1.6,-2.4 0.8,0.3 0.2,1.1 1,0.8 v 1.1 l -1,1 z"
             id="path914">
            <title
               id="title912">Maine</title>
          </path>
          <path
             style="fill:#008000"
             inkscape:connector-curvature="0"
             class="md"
             d="m 822.9,269.3 v -1.7 h -0.8 v 1.8 z m 11.8,-3.9 1.2,-2.2 0.1,-2.5 -0.6,-0.6 -0.7,0.9 -0.2,2.1 -0.8,1.4 -0.3,1.1 -4.6,1.6 -0.7,0.8 -1.3,0.2 -0.4,0.9 -1.3,0.6 -0.3,-2.5 0.4,-0.7 -0.8,-0.5 0.2,-1.5 -1.6,1 v -2 l 1.2,-0.3 -1.9,-0.4 -0.7,-0.8 0.4,-1.3 -0.8,-0.6 -0.7,1.6 0.5,0.8 -0.7,0.6 -1.1,0.5 -2,-1 -0.2,-1.2 -1,-1.1 -1.4,-1.7 1.5,-0.8 -1,-0.6 v -0.9 l 0.6,-1 1.7,-0.3 -1.4,-0.6 -0.1,-0.7 -1.3,-0.1 -0.4,1.1 -0.6,0.3 0.1,-3.4 1,-1 0.8,0.7 0.1,-1.6 -1,-0.9 -0.9,1.1 -1,1.4 -0.6,-1 0.2,-2.4 0.9,-1 0.9,0.9 1.2,-0.7 -0.4,-1.7 -1,1 -0.9,-2.1 -0.2,-1.7 1.1,-2.4 1.1,-1.4 1.4,-0.2 -0.5,-0.8 0.5,-0.6 -0.3,-0.7 0.2,-2.1 -1.5,0.4 -0.8,1.1 1,1.3 -2.6,3.6 -0.9,-0.4 -0.7,0.9 -0.6,2.2 -1.8,0.5 1.3,0.6 1.3,1.3 -0.2,0.7 0.9,1.2 -1.1,1 0.5,0.3 -0.5,1.3 v 2.1 l -0.5,1.3 0.9,1.1 0.7,3.4 1.3,1.4 1.6,1.4 0.4,2.8 1.6,2 0.4,1.4 v 1 h -0.7 l -1.5,-1.2 -0.4,0.2 -1.2,-0.2 -1.7,-1.4 -1.4,-0.3 -1,0.5 -1.2,-0.3 -0.4,0.2 -1.7,-0.8 -1,-1 -1,-1.3 -0.6,-0.2 -0.8,0.7 -1.6,1.3 -1.1,-0.8 -0.4,-2.3 0.8,-2.1 -0.3,-0.5 0.3,-0.4 -0.7,-1 1,-0.1 1,-0.9 0.4,-1.8 1.7,-2.6 -2.6,-1.8 -1,1.7 -0.6,-0.6 h -1 l -0.6,-0.1 -0.4,-0.4 0.1,-0.5 -1.7,-0.6 -0.8,0.3 -1.2,-0.1 -0.7,-0.7 -0.5,-0.2 -0.2,-0.7 0.6,-0.8 v -0.9 l -1.2,-0.2 -1,-0.9 -0.9,0.1 -1.6,-0.3 -0.9,-0.4 0.2,-1.6 -1,-0.5 -0.2,-0.7 h -0.7 l -0.8,-1.2 0.2,-1 -2.6,0.4 -2.2,-1.6 -1.4,0.3 -0.9,1.4 h -1.3 l -1.7,2.9 -3.3,0.4 -1.9,-1 -2.6,3.8 -2.2,-0.3 -3.1,3.9 -0.9,1.6 -1.8,1.6 -1.7,-11.4 60.5,-11.8 7.6,27.1 10.9,-2.3 v 5.3 l -0.1,3.1 -1,1.8 z m -13.4,-1.8 -1.3,0.9 0.8,1.8 1.7,0.8 -0.4,-1.6 z"
             id="path918">
            <title
               id="title916">Maryland</title>
          </path>
          <path
             style="fill:#008000"
             inkscape:connector-curvature="0"
             class="ma"
             d="m 899.9,174.2 h 3.4 l 0.9,-0.6 0.1,-1.3 -1.9,-1.8 0.4,1 -1.5,1.5 H 899 l 0.1,0.8 z m -9,1.8 -1.2,-0.6 1,-0.8 0.6,-2.1 1.2,-1 0.8,-0.2 0.6,0.9 1.1,0.2 0.6,-0.6 0.5,1.9 -1.3,0.3 -2.8,0.7 z m -34.9,-23.4 18.4,-3.8 1,-1.5 0.3,-1.7 1.9,-0.6 0.5,-1.1 1.7,-1.1 1.3,0.3 1.7,3.3 1,0.4 1.1,-1.3 0.8,1.3 v 1.1 l -3,2.4 0.2,0.8 -0.9,1 0.4,0.8 -1.3,0.3 0.9,1.2 -0.8,0.7 0.6,1 0.9,-0.2 0.3,-0.8 1.1,0.6 h 1.8 l 2.5,2.6 0.2,2.6 1.8,0.1 0.8,1.1 0.6,2 1,0.7 h 1.9 l 1.9,-0.1 0.8,-0.9 1.6,-1.2 1.1,-0.3 -1.2,-2.1 -0.3,0.9 -1.5,-3.6 h -0.8 l -0.4,0.9 -1.2,-1 1.3,-1.1 1.8,0.4 2.3,2.1 1.3,2.7 1.2,3.3 -1,2.8 v -1.8 l -0.7,-1 -3.5,2.3 -0.9,-0.3 -1.6,1 -0.1,1.2 -2.2,1.2 -2,2.1 -2,1.9 h -1.2 l 3.3,-3.3 0.5,-1.9 -0.5,-0.6 -0.3,-1.3 -0.9,-0.1 -0.1,1.3 -1,1.2 h -1.2 l -0.3,1.1 0.4,1.2 -1.2,1.1 -1.1,-0.2 -0.4,1 -1.4,-3 -1.3,-1.1 -2.6,-1.3 -0.6,-2.2 h -0.8 l -0.7,-2.6 -6.5,2 -0.1,-0.3 -14.9,3.4 v 0.7 l -0.9,0.3 -0.5,-0.7 -10.5,2.4 -0.7,-1 0.5,-15 z"
             id="path922">
            <title
               id="title920">Massachusetts</title>
          </path>
          <path
             style="fill:#008000"
             inkscape:connector-curvature="0"
             class="mi"
             d="m 663.3,209.8 0.1,1.4 21.4,-3.5 0.5,-1.2 3.9,-5.9 v -4.3 l 0.8,-2.1 2.2,-0.8 2,-7.8 1,-0.5 1,0.6 -0.2,0.6 -1.1,0.8 0.3,0.9 0.8,0.4 1.9,-1.4 0.4,-9.8 -1.6,-2.3 -1.2,-3.7 v -2.5 l -2.3,-4.4 v -1.8 l -1.2,-3.3 -2.3,-3 -2.9,-1 -4.8,3 -2.5,4.6 -0.2,0.9 -3,3.5 -1.5,-0.2 -2.9,-2.8 -0.1,-3.4 1.5,-1.9 2,-0.2 1.2,-1.7 0.2,-4 0.8,-0.8 1.1,-0.1 0.9,-1.7 -0.2,-9.6 -0.3,-1.3 -1.2,-1.2 -1.7,-1 -0.1,-1.8 0.7,-0.6 1.8,0.8 -0.3,-1.7 -1.9,-2.7 -0.7,-1.6 -1.1,-1.1 h -2.2 l -8.1,-2.9 -1.4,-1.7 -3.1,-0.3 -1.2,0.3 -4.4,-2.3 h -1.4 l 0.5,1 -2.7,-0.1 0.1,0.6 0.6,0.6 -2.5,2.1 0.1,1.8 1.5,2.3 1.5,0.2 v 0.6 l -1.5,0.5 -2.1,-0.1 -2.8,2.5 0.1,2.5 0.4,5.8 -2.2,3.4 0.8,-4.5 -0.8,-0.6 -0.9,5.3 -1,-2.3 0.5,-2.3 -0.5,-1 0.6,-1.3 -0.6,-1.1 1,-1 v -1.2 l -1.3,0.6 -1.3,3.1 -0.7,0.7 -1.3,2.4 -1.7,-0.2 -0.1,1.2 h -1.6 l 0.2,1.5 0.2,2 -3,1.2 0.1,1.3 1,1.7 -0.1,5.2 -1.3,4.4 -1.7,2.5 1.2,1.4 0.8,3.5 -1,2.5 -0.2,2.1 1.7,3.4 2.5,4.9 1.2,1.9 1.6,6.9 -0.1,8.8 -0.9,3.9 -2,3.2 -0.9,3.7 -2,3 -1.2,1 z m -95.8,-96.8 3,3.8 17,3.8 1.4,1 4,0.8 0.7,0.5 2.8,-0.2 4.9,0.8 1.4,1.5 -1,1 0.8,0.8 3.8,0.7 1.2,1.2 0.1,4.4 -1.3,2.8 2,0.1 1,-0.8 0.9,0.8 -1.1,3.1 1,1.6 1.2,0.3 0.8,-1.8 2.9,-4.6 1.6,-6 2.3,-2 -0.5,-1.6 0.5,-0.9 1,1.6 -0.3,2.2 2.9,-2.2 0.2,-2.3 2.1,0.6 0.8,-1.6 0.7,0.6 -0.7,1.5 -1,0.5 -1,2 1.4,1.8 1.1,-0.5 -0.5,-0.7 1,-1.5 1.9,-1.7 h 0.8 l 0.2,-2.6 2,-1.8 7.9,-0.5 1.9,-3.1 3.8,-0.3 3.8,1.2 4.2,2.7 0.7,-0.2 -0.2,-3.5 0.7,-0.2 4.5,1.1 1.5,-0.2 2.9,-0.7 1.7,0.4 1.8,0.1 v -1.1 l -0.7,-0.9 -1.5,-0.2 -1.1,-0.8 0.5,-1.4 -0.8,-0.3 -2.6,0.1 -0.1,-1 1.1,-0.8 0.6,0.8 0.5,-1.8 -0.7,-0.7 0.7,-0.2 -1.4,-1.3 0.3,-1.3 0.1,-1.9 h -1.3 l -1.5,1 -1.9,0.1 -0.5,1.8 -1.9,0.2 -0.3,-1.2 -2.2,0.1 -1,1.2 -0.7,-0.1 -0.2,-0.8 -2.6,0.4 -0.1,-4.8 1,-2 -0.7,-0.1 -1.8,1.1 h -2.2 l -3.8,2.7 -6.2,0.3 -4.1,0.8 -1.9,1.5 -1.4,1.3 -2.5,1.7 -0.3,0.8 -0.6,-1.7 -1.3,-0.6 v 0.6 l 0.7,0.7 v 1.3 l -1.5,-0.6 h -0.6 l -0.3,1.2 -2,-1.9 -1.3,-0.2 -1.3,1.5 -3.2,-0.1 -0.5,-1.4 -2,-1.9 -1.3,-1.6 v -0.7 l -1.1,-1.4 -2.6,-1.2 -3.3,-0.1 -1.1,-0.9 h -1.4 l -0.7,0.4 -2.2,2.2 -0.7,1.1 -1,-0.7 0.2,-1 0.8,-2.1 3.2,-5 0.8,-0.2 1.7,-1.9 0.7,-1.6 3,-0.6 0.8,-0.6 -0.1,-1 -0.5,-0.5 -4.5,0.2 -2,0.5 -2.6,1.2 -1.2,1.2 -1.7,2.2 -1.8,1 -3.3,3.4 -0.4,1.6 -7.4,4.6 -4,0.5 -1.8,0.4 -2.3,3 -1.8,0.7 -4.4,2.3 z m 100.7,3.8 3.8,0.1 0.6,-0.5 -0.2,-2 -1.7,-1.8 -1.9,0.1 -0.1,0.5 1.1,0.4 -1.6,0.8 -0.3,1 -0.6,-0.6 -0.4,0.8 z m -75.1,-41.9 -2.3,0.2 -2.7,1.9 -7.1,5.3 0.8,1 1.8,0.3 2.8,-2 -1.1,-0.5 2.3,-1.6 h 1 l 3,-1.9 -0.1,-0.9 z m 41.1,62.8 v 1 l 2.1,1.6 -0.2,-2.4 z m -0.7,2.8 1.1,0.1 v 0.9 h -1 z m 21.4,-21.3 v 0.9 l 0.8,-0.2 v -0.5 z m 4.7,3.1 -0.1,-1.1 -1.6,-0.2 -0.6,-0.4 h -0.9 l -0.4,0.3 0.9,0.4 1.1,1.1 z m -18,1.2 -0.1,1.1 -0.3,0.7 0.2,2.2 0.4,0.3 0.7,0.1 0.5,-0.9 0.1,-1.6 -0.3,-0.6 -0.1,-1.1 z"
             id="path926">
            <title
               id="title924">Michigan</title>
          </path>
          <path
             style="fill:#008000"
             inkscape:connector-curvature="0"
             class="mn"
             d="m 464.7,68.6 -1.1,2.8 0.8,1.4 -0.3,5.1 -0.5,1.1 2.7,9.1 1.3,2.5 0.7,14 1,2.7 -0.4,5.8 2.9,7.4 0.3,5.8 -0.1,2.1 -0.1,2.2 -0.9,2 -3.1,1.9 -0.3,1.2 1.7,2.5 0.4,1.8 2.6,0.6 1.5,1.9 -0.2,39.5 h 28.2 l 36.3,-0.9 18.6,-0.7 -1.1,-4.5 -0.2,-3 -2.2,-3 -2.8,-0.7 -5.2,-3.6 -0.6,-3.3 -6.3,-3.1 -0.2,-1.3 h -3.3 l -2.2,-2.6 -2,-1.3 0.7,-5.1 -0.9,-1.6 0.5,-5.4 1,-1.8 -0.3,-2.7 -1.2,-1.3 -1.8,-0.3 v -1.7 l 2.8,-5.8 5.9,-3.9 -0.4,-13 0.9,0.4 0.6,-0.5 0.1,-1.1 0.9,-0.6 1.4,1.2 0.7,-0.1 v 0 l -1.2,-2.2 4.3,-3.1 3.1,-3.7 1.6,-0.8 4.7,-5.9 6.3,-5.8 3.9,-2.1 6.3,-2.7 7.6,-4.5 -0.6,-0.4 -3.7,0.7 -2.8,0.1 -1,-1.6 -1.4,-0.9 -9.8,1.2 -1,-2.8 -1.6,-0.1 -1.7,0.8 -3.7,3.1 h -4.1 l -2.1,-1 -0.3,-1.7 -3.9,-0.8 -0.6,-1.6 -0.7,-1.3 -1,0.9 -2.6,0.1 -9.9,-5.5 h -2.9 l -0.8,-0.7 -3.1,1.3 -0.8,1.3 -3.3,0.8 -1.3,-0.2 V 69.9 L 512.7,69 h -5.9 l -0.4,-1.4 h -2.6 l -1.1,0.4 -2.4,-1.7 0.3,-1.4 -0.6,-2.4 -0.7,-1.1 -0.2,-3 -1,-3.1 -2.1,-1.6 h -2.9 l 0.1,8 -30.9,-0.4 z"
             id="path930">
            <title
               id="title928">Minnesota</title>
          </path>
          <path
             style="fill:#008000"
             inkscape:connector-curvature="0"
             class="ms"
             d="m 623.8,468.6 -5,0.1 -2.4,-1.5 -7.9,2.5 -0.9,-0.7 -0.5,0.2 -0.1,1.6 -0.6,0.1 -2.6,2.7 -0.7,-0.1 -0.6,-0.7 -1.2,-1.8 0.3,-1.3 -4.8,-6.8 0.9,-4.6 1,-1.4 0.1,-1.4 -36,2 1.7,-11.9 2.4,-4.8 6,-8.4 -1.8,-2.5 h 2 v -3.3 l -2.4,-2.5 0.5,-1.7 -1.2,-1 -1.6,-7.1 0.6,-1.4 1.2,-1.5 0.5,-3 -1.5,-2.3 -0.5,-2.2 0.9,-0.7 v -0.8 l -1.7,-1.1 -0.1,-0.7 1.6,-0.9 -1.2,-1.1 1.7,-7.1 3.4,-1.6 v -0.8 l -1.1,-1.4 2.9,-5.4 h 1.9 l 1.5,-1.2 -0.3,-5.2 3.1,-4.5 1.8,-0.6 -0.5,-3.1 38.3,-2.6 1.3,2 -1.3,67 4.4,33.2 z"
             id="path934">
            <title
               id="title932">Mississippi</title>
          </path>
          <path
             style="fill:#008000"
             inkscape:connector-curvature="0"
             class="mo"
             d="m 555.3,248.9 -1.1,-1.1 -0.6,-1.6 -1.7,-1.3 -14.3,0.8 -27.2,1.2 -25.9,-0.1 1.3,1.3 -0.3,1.4 2.1,3.7 3.9,6.3 2.9,3 2,0.6 0.9,-1 1.5,2.1 -0.1,1.2 -2.7,2.6 -0.5,2.3 2.5,2.5 2.6,4.7 3.2,0.7 0.5,48.1 0.2,10.8 39.1,-0.7 39.8,-2 1.6,2.5 v 2.2 l -1.7,1.5 -2.8,5.1 11.2,-0.8 1,-2 1.2,-0.5 v -0.7 l -1.2,-1.1 -0.6,-1 1.7,0.2 0.8,-0.7 -1.4,-1.5 1.4,-0.5 0.1,-1 -0.6,-1 v -1.3 l -0.7,-0.7 0.2,-1 h 1.1 l 0.7,0.7 -0.3,1 0.8,0.7 0.8,-1 1,-2.7 1.4,0.9 0.7,-0.4 1.2,-4.1 -1,-1 1,-2 0.2,-0.9 -1.3,-0.8 h -2.8 l -1.4,-1.5 -1.8,-3.8 v -1.9 l 0.8,-0.6 0.1,-1.3 -1.7,-1.9 -0.9,-2.5 -2.7,-4.1 -4.8,-1.3 -7.4,-7.1 -0.4,-2.4 2.8,-7.6 -0.4,-1.9 1.2,-1.1 v -1.3 l -2.8,-1.5 -3,-0.7 -3.4,1.2 -1.3,-2.3 0.6,-1.9 -0.7,-2.4 -8.6,-8.4 -2.2,-1.5 -2.5,-5.9 -1.2,-5.4 1.4,-3.7 z"
             id="path938">
            <title
               id="title936">Missouri</title>
          </path>
          <path
             style="fill:#008000"
             inkscape:connector-curvature="0"
             class="mt"
             d="m 247,130.5 57.3,7.9 51,5.3 2,-20.7 5.2,-66.7 L 309,50.7 254.7,43 188.8,30.5 l -4.8,22 3.7,7.4 -1.6,4.8 3.6,4.8 1.9,0.7 3.9,8.3 v 2.1 l 2.3,3 h 0.9 l 1.4,2.1 h 3.2 v 1.6 l -7.1,17 -0.5,4.1 1.4,0.5 1.6,2.6 2.8,-1.4 3.6,-2.4 1.9,1.9 0.5,2.5 -0.5,3.2 2.5,9.7 2.6,3.5 2.3,1.4 0.4,3 v 4.1 l 2.3,2.3 1.6,-2.3 6.9,1.6 2.1,-1.2 9,1.7 2.8,-3.3 1.8,-0.6 1.2,1.8 1.6,4.1 0.9,0.1 z"
             id="path942">
            <title
               id="title940">Montana</title>
          </path>
          <path
             style="fill:#008000"
             inkscape:connector-curvature="0"
             class="ne"
             d="m 402.5,191.1 38,1.6 3.4,3.2 1.7,0.2 2.1,2 1.8,-0.1 1.8,-2 1.5,0.6 1,-0.7 0.7,0.5 0.9,-0.4 0.7,0.4 0.9,-0.4 1,0.5 1.4,-0.6 2,0.6 0.6,1.1 6.1,2.2 1.2,1.3 0.9,2.6 1.8,0.7 1.5,-0.2 0.5,0.9 v 2.3 l 0.6,1.7 v 1.4 l 1.3,3.7 2.2,4.3 0.2,3.7 2.8,5 0.4,6.1 1.3,0.7 -0.2,2.9 0.8,3.3 -0.7,2.2 1.8,4.4 1.3,1.3 -0.3,1.4 2.1,3.7 3.9,6.3 h -32.4 l -43.7,-1.2 -36,-2 1.4,-22.1 -33.1,-2.4 3.7,-44.2 z"
             id="path946">
            <title
               id="title944">Nebraska</title>
          </path>
          <path
             style="fill:#008000"
             inkscape:connector-curvature="0"
             class="nv"
             d="m 167.6,296.8 -3.4,17.5 -2.4,2.9 h -2 l -1.2,-2.7 -3.7,-1.4 -3.5,0.6 -1,13.6 0.5,4.9 -0.5,2.9 -1.4,3 -70.4,-105 -1.1,-3.5 16.4,-63.1 47,11.2 24.4,5.4 23.3,4.7 z"
             id="path950">
            <title
               id="title948">Nevada</title>
          </path>
          <path
             style="fill:#008000"
             inkscape:connector-curvature="0"
             class="nh"
             d="m 862.6,93.6 -1.3,0.1 -1,-1.1 -1.9,1.4 -0.5,6.1 1.2,2.3 -1.1,3.5 2.1,2.8 -0.4,1.7 0.1,1.3 -1.1,2.1 -1.4,0.4 -0.6,1.3 -2.1,1 -0.7,1.5 1.4,3.4 -0.5,2.5 0.5,1.5 -1,1.9 0.4,1.9 -1.3,1.9 0.2,2.2 -0.7,1.1 0.7,4.5 0.7,1.5 -0.5,2.6 0.9,1.8 -0.2,2.5 -0.5,1.3 -0.1,1.4 2.1,2.6 18.4,-3.8 1,-1.5 0.3,-1.7 1.9,-0.6 0.5,-1.1 1.7,-1.1 1.3,0.3 0.8,-4.8 -2.3,-1.4 -0.8,-2.2 -3.2,-2 -0.6,-4 -11.9,-36.8 z"
             id="path954">
            <title
               id="title952">New Hampshire</title>
          </path>
          <path
             style="fill:#008000"
             inkscape:connector-curvature="0"
             class="nj"
             d="m 842.5,195.4 -14.6,-4.9 -1.8,2.5 0.1,2.2 -3,5.4 1.5,1.8 -0.7,2 -1,1 0.5,3.6 2.7,0.9 1,2.8 2.1,1.1 4.2,3.2 -3.3,2.6 -1.6,2.3 -1.8,3 -1.6,0.6 -1.4,1.7 -1,2.2 -0.3,2.1 0.8,0.9 0.4,2.3 1.2,0.6 2.4,1.5 1.8,0.8 1.6,0.8 0.1,1.1 0.8,0.1 1.1,-1.2 0.8,0.4 2.1,0.2 -0.2,2.9 0.2,2.5 1.8,-0.7 1.5,-3.9 1.6,-4.8 2.9,-2.8 0.6,-3.5 -0.6,-1.2 1.7,-2.9 v -1.2 l -0.7,-1.1 1.2,-2.7 -0.3,-3.6 -0.6,-8.2 -1.2,-1.4 v 1.4 l 0.5,0.6 h -1.1 l -0.6,-0.4 -1.3,-0.2 -0.9,0.6 -1.2,-1.6 0.7,-1.7 v -1 l 1.7,-0.7 0.8,-2.1 z"
             id="path958">
            <title
               id="title956">New Jersey</title>
          </path>
          <path
             style="fill:#008000"
             inkscape:connector-curvature="0"
             class="nm"
             d="m 357.5,332.9 h -0.8 l -7.9,99.3 -31.8,-2.6 -34.4,-3.6 -0.3,3 2,2.2 -30.8,-4.1 -1.4,10.2 -15.7,-2.2 17.4,-124.1 52.6,6.5 51.7,4.8 z"
             id="path962">
            <title
               id="title960">New Mexico</title>
          </path>
          <path
             style="fill:#008000"
             inkscape:connector-curvature="0"
             class="ny"
             d="m 872.9,181.6 -1.3,0.1 -0.5,1 z m -30.6,22.7 0.7,0.6 1.3,-0.3 1.1,0.3 0.9,-1.3 h 1.9 l 2.4,-0.9 5.1,-2.1 -0.5,-0.5 -1.9,0.8 -2,0.9 0.2,-0.8 2.6,-1.1 0.8,-1 1.2,0.1 4.1,-2.3 v 0.7 l -4.2,3 4.5,-2.8 1.7,-2.2 1.5,-0.1 4.5,-3.1 3.2,-3.1 3,-2.3 1,-1.2 -1.7,-0.1 -1,1.2 -0.2,0.7 -0.9,0.7 -0.8,-1.1 -1.7,1 -0.1,0.9 -0.9,-0.2 0.5,-0.9 -1.2,-0.7 -0.6,0.9 0.9,0.3 0.2,0.5 -0.3,0.5 -1.4,2.6 h -1.9 l 0.9,-1.8 0.9,-0.6 0.3,-1.7 1.4,-1.6 0.9,-0.8 1.5,-0.7 -1.2,-0.2 -0.7,0.9 h -0.7 l -1.1,0.8 -0.2,1 -2.2,2.1 -0.4,0.9 -1.4,0.9 -7.7,1.9 0.2,0.9 -0.9,0.7 -2,0.3 -1,-0.6 -0.2,1.1 -1.1,-0.4 0.1,1 -1.2,-0.1 -1.2,0.5 -0.2,1.1 h -1 l 0.2,1 h -0.7 l 0.2,1 -1.8,0.4 -1.5,2.3 z m -0.8,-0.4 -1.6,0.4 v 1 l -0.7,1.6 0.6,0.7 2.4,-2.3 -0.1,-0.9 z m -10.1,-95.2 -0.6,1.9 1.4,0.9 -0.4,1.5 0.5,3.2 2.2,2.3 -0.4,2.2 0.6,2 -0.4,1 -0.3,3.8 3.1,6.7 -0.8,1.8 0.9,2.2 0.9,-1.6 1.9,1.5 3,14.2 -0.5,2 1.1,1 -0.5,15 0.7,1 2.8,16.3 1.8,1.5 -3.5,3.4 1.7,2.2 -1.3,3.3 -1.5,1.7 -1.5,2.3 -0.2,-0.7 0.4,-5.9 -14.6,-4.9 -1.6,-1.1 -1.9,0.3 -3,-2.2 -3,-5.8 h -2 l -0.4,-1.5 -1.7,-1.1 -70.5,13.9 -0.8,-6 4.3,-3.9 0.6,-1.7 3.9,-2.5 0.6,-2.4 2.3,-2 0.8,-1.1 -1.7,-3.3 -1.7,-0.5 -1.8,-3 -0.2,-3.2 7.6,-3.9 8.2,-1.6 h 4.4 l 3.2,1.6 0.9,-0.1 1.8,-1.6 3.4,-0.7 h 3 l 2.6,-1.3 2.5,-2.6 2.4,-3.1 1.9,-0.4 1.1,-0.5 0.4,-3.2 -1.4,-2.7 -1.2,-0.7 2,-1.3 -0.1,-1.8 h -1.5 l -2.3,-1.4 -0.1,-3.1 6.2,-6.1 0.7,-2.4 3.7,-6.3 5.9,-6.4 2.1,-1.7 2.5,0.1 20.6,-5.2 z"
             id="path966">
            <title
               id="title964">New York</title>
          </path>
          <path
             style="fill:#008000"
             inkscape:connector-curvature="0"
             class="nc"
             d="m 829,300.1 -29.1,6.1 -39.4,7.3 -29.4,3.5 v 5.2 l -1.5,-0.1 -1.4,1.2 -2.4,5.2 -2.6,-1.1 -3.5,2.5 -0.7,2.1 -1.5,1.2 -0.8,-0.8 -0.1,-1.5 -0.8,-0.2 -4,3.3 -0.6,3.4 -4.7,2.4 -0.5,1.2 -3.2,2.6 -3.6,0.5 -4.6,3 -0.8,4.1 -1.3,0.9 -1.5,-0.1 -1.4,1.3 -0.1,4.9 21.4,-3 4.4,-1.9 1.3,-0.1 7.3,-4.3 23.2,-2.2 0.4,0.5 -0.2,1.4 0.7,0.3 1.2,-1.5 3.3,3 0.1,2.6 19.7,-2.8 24.5,17.1 4,-2.2 3,-0.7 h 1.7 l 1.1,1.1 0.8,-2 0.6,-5 1.7,-3.9 5.4,-6.1 4.1,-3.5 5.4,-2.3 2.5,-0.4 1.3,0.4 0.7,1.1 3.3,-6.6 3.3,-5.3 -0.7,-0.3 -4.4,6.8 -0.5,-0.8 2,-2.2 -0.4,-1.5 -2,-0.5 1,1.3 -1.2,0.1 -1.2,-1.8 -1.2,2 -1.6,0.2 1,-2.7 0.7,-1.7 -0.2,-2.9 -2.2,-0.1 0.9,-0.9 1.1,0.3 2.7,0.1 0.8,-0.5 h 2.3 l 2,-1.9 0.2,-3.2 1.3,-1.4 1.2,-0.2 1.3,-1 -0.5,-3.7 -2.2,-3.8 -2.7,-0.2 -0.9,1.6 -0.5,-1 -2.7,0.2 -1.2,0.4 -1.9,1.2 -0.3,-0.4 h -0.9 l -1.8,1.2 -2.6,0.5 v -1.3 l 0.8,-1 1,0.7 h 1 l 1.7,-2.1 3.7,-1.7 2,-2.2 h 2.4 l 0.8,1.3 1.7,0.8 -0.5,-1.5 -0.3,-1.6 -2.8,-3.1 -0.3,-1.4 -0.4,1 -0.9,-1.3 z m 7,31 2.7,-2.5 4.6,-3.3 v -3.7 l -0.4,-3.1 -1.7,-4.2 1.5,1.4 1,3.2 0.4,7.6 -1.7,0.4 -3.1,2.4 -3.2,3.2 z m 1.9,-19.3 -0.9,-0.2 v 1 l 2.5,2.2 -0.2,-1.4 z m 2.9,2.1 -1.4,-2.8 -2.2,-3.4 -2.4,-3 -2.2,-4.3 -0.8,-0.7 2.2,4.3 0.3,1.3 3.4,5.5 1.8,2.1 z"
             id="path970">
            <title
               id="title968">North Carolina</title>
          </path>
          <path
             style="fill:#008000"
             inkscape:connector-curvature="0"
             class="oh"
             d="m 685.7,208.8 1.9,-0.4 3,1.3 2.1,0.6 0.7,0.9 h 1 l 1,-1.5 1.3,0.8 h 1.5 l -0.1,1 -3.1,0.5 -2,1.1 1.9,0.8 1.6,-1.5 2.4,-0.4 2.2,1.5 1.5,-0.1 2.5,-1.7 3.6,-2.1 5.2,-0.3 4.9,-5.9 3.8,-3.1 9.3,-5.1 4.9,29.9 -2.2,1.2 1.4,2.1 -0.1,2.2 0.6,2 -1.1,3.4 -0.1,5.4 -1,3.6 0.5,1.1 -0.4,2.2 -1.1,0.5 -2,3.3 -1.8,2 h -0.6 l -1.8,1.7 -1.3,-1.2 -1.5,1.8 -0.3,1.2 h -1.3 l -1.3,2.2 0.1,2.1 -1,0.5 1.4,1.1 v 1.9 l -1,0.2 -0.7,0.8 -1,0.5 -0.6,-2.1 -1.6,-0.5 -1,2.3 -0.3,2.2 -1.1,1.3 1.3,3.6 -1.5,0.8 -0.4,3.5 h -1.5 l -3.2,1.4 -1.2,-2.1 -3.5,-1.4 -0.8,-2.9 -0.5,-0.8 -3.4,1.8 -0.6,1.7 h -0.9 l -1.3,0.7 -1.2,-0.8 -3,-0.8 -1.9,0.8 v 1 l -2.2,-0.2 -1.9,-2.1 -2.3,0.2 -4.1,-0.7 v -1 l -2.2,-3.4 -2.9,-1.2 -1.9,0.8 -2.2,-0.1 -1.3,-0.5 -6.6,-57.2 21.4,-3.5 z"
             id="path978">
            <title
               id="title976">Ohio</title>
          </path>
          <path
             style="fill:#008000"
             inkscape:connector-curvature="0"
             class="ok"
             d="m 501.5,398.6 -4.6,-3.8 -2.2,-0.9 -0.5,1.6 -5.1,0.3 -0.6,-1.5 -5,2.5 -1.6,-0.7 -3.7,0.3 -0.6,1.7 -3.6,0.9 -1.3,-1.2 -1.2,0.1 -2,-1.8 -2.1,0.7 -2,-0.5 -1.8,-2 -2.5,4.2 -1.2,0.8 -1,-1.8 0.3,-2 -1.2,-0.7 -2.3,2.5 -1.7,-1.2 -0.1,-1.5 -1.3,0.5 -2.6,-1.7 -3,2.6 -2.3,-1.1 0.7,-2.1 -2.3,0.1 -1.9,-3 -3.5,-1.1 -2,2.3 -2.3,-2.2 -1.4,0.4 -2,0.1 -3.5,-1.9 -2.3,0.1 -1.2,-0.7 -0.5,-2.9 -2.3,-1.7 -1.1,1.5 -1.4,-1 -1.2,-0.4 -1.1,1 -1.5,-0.3 -2.5,-3 -2.7,-1.3 1.4,-42.7 -52.6,-3.2 0.6,-10.6 16.5,1 67.7,2.9 62,0.1 0.2,10.8 4.1,24.4 -0.7,39 z"
             id="path982">
            <title
               id="title980">Oklahoma</title>
          </path>
          <path
             style="fill:#008000"
             inkscape:connector-curvature="0"
             class="or"
             d="m 93.9,166.5 47,11.2 8.5,-37.3 2.9,-5.8 0.4,-2.1 0.8,-0.9 -0.9,-2 -2.9,-1.2 0.2,-4.2 4,-5.8 2.5,-0.8 1.6,-2.3 -0.1,-1.6 1.8,-1.6 3.2,-5.5 4.2,-4.8 -0.5,-3.2 -3.5,-3.1 -1.6,-3.6 -30.3,-7.3 -2.8,1 -5.4,-0.9 -1.8,-0.9 -1.5,1.2 -3.3,-0.4 -4.5,0.5 -0.9,0.7 -4.2,-0.4 -0.8,-1.6 -1.2,-0.2 -4.4,1.3 -1.6,-1.1 -2.2,0.8 -0.2,-1.8 -2.3,-1.2 -1.5,-0.2 -1,-1.1 -3,0.3 -1.2,-0.8 h -1.2 l -1.2,0.9 -5.5,0.7 -6.6,-4.2 1.1,-5.6 -0.4,-4.1 -3.2,-3.7 -3.7,0.1 -0.4,-1.1 0.4,-1.2 -0.7,-0.8 -1,0.1 -1.1,1.3 -1.5,-0.2 -0.5,-1.1 -1,-0.1 -0.7,0.6 -2,-1.9 v 4.3 l -1.3,1.3 -1.1,3.5 -0.1,2.3 -4.5,12.3 -13.2,31.3 -3.2,4.6 -1.6,-0.1 0.1,2.1 -5.2,7.1 -0.3,3.3 1,1.3 0.1,2.4 -1.2,1.1 -1.2,3 0.1,5.7 1.2,2.9 z"
             id="path986">
            <title
               id="title984">Oregon</title>
          </path>
          <path
             style="fill:#008000"
             inkscape:connector-curvature="0"
             class="pa"
             d="m 826.3,189.4 -1.9,0.3 -3,-2.2 -3,-5.8 h -2 l -0.4,-1.5 -1.7,-1.1 -70.5,13.9 -0.8,-6 -4.2,3.4 -0.9,0.1 -2.7,3 -3.3,1.7 4.9,29.9 3.2,19.7 17.4,-2.9 60.5,-11.8 1.2,-2.1 1.5,-1.1 1.6,-0.3 1.6,0.6 1.4,-1.7 1.6,-0.6 1.8,-3 1.6,-2.3 3.3,-2.6 -4.2,-3.2 -2.1,-1.1 -1,-2.8 -2.7,-0.9 -0.5,-3.6 1,-1 0.7,-2 -1.5,-1.8 3,-5.4 -0.1,-2.2 1.8,-2.5 z"
             id="path990">
            <title
               id="title988">Pennsylvania</title>
          </path>
          <path
             style="fill:#008000"
             inkscape:connector-curvature="0"
             class="ri"
             d="m 883.2,170.7 -1.3,-1.1 -2.6,-1.3 -0.6,-2.2 h -0.8 l -0.7,-2.6 -6.5,2 3.2,12.3 -0.4,1.1 0.4,1.8 5.6,-3.6 0.1,-3 -0.8,-0.8 0.4,-0.6 -0.1,-1.3 -0.9,-0.7 1.2,-0.4 -0.9,-1.6 1.8,0.7 0.3,1.4 0.7,1.2 -1.4,-0.8 1.1,1.7 -0.3,1.2 -0.6,-1.1 v 2.5 l 0.6,-0.9 0.4,0.9 1.3,-1.5 -0.2,-2.5 1.4,3.1 1,-0.9 z m -4.7,12.2 h 0.9 l 0.5,-0.6 -0.8,-1.3 -0.7,0.7 z"
             id="path994">
            <title
               id="title992">Rhode Island</title>
          </path>
          <path
             style="fill:#008000"
             inkscape:connector-curvature="0"
             class="sc"
             d="m 772.3,350.2 -19.7,2.8 -0.1,-2.6 -3.3,-3 -1.2,1.5 -0.7,-0.3 0.2,-1.4 -0.4,-0.5 -23.2,2.2 -7.3,4.3 -1.3,0.1 -4.4,1.9 -0.1,1.9 -1.9,1 -1.4,3.2 0.2,1.3 6.1,3.8 2.6,-0.3 3.1,4 0.4,1.7 4.2,5.1 2.6,1.7 1.4,0.2 2.2,1.6 1.1,2.2 2,1.6 1.8,0.5 2.7,2.7 0.1,1.4 2.6,2.8 5,2.3 3.6,6.7 0.3,2.7 3.9,2.1 2.5,4.8 0.8,3.1 4.2,0.4 0.8,-1.5 h 0.6 l 1.8,-1.5 0.5,-2 3.2,-2.1 0.3,-2.4 -1.2,-0.9 0.8,-0.7 0.8,0.4 1.3,-0.4 1.8,-2.1 3.8,-1.8 1.6,-2.4 0.1,-0.7 4.8,-4.4 -0.1,-0.5 -0.9,-0.8 1.1,-1.5 h 0.8 l 0.4,0.5 0.7,-0.8 h 1.3 l 0.6,-1.5 2.3,-2.1 -0.3,-5.4 0.8,-2.3 3.6,-6.2 2.4,-2.2 2.2,-1.1 z"
             id="path998">
            <title
               id="title996">South Carolina</title>
          </path>
          <path
             style="fill:#008000"
             inkscape:connector-curvature="0"
             class="sd"
             d="m 396.5,125.9 46,2.1 29.5,0.4 -0.1,2.2 -0.9,2 -3.1,1.9 -0.3,1.2 1.7,2.5 0.4,1.8 2.6,0.6 1.5,1.9 -0.2,39.5 -2.2,-0.1 -0.1,1.6 1.3,1.5 -0.1,1.1 -1,0.5 0.4,1.6 1.3,0.4 0.7,2 -1.7,5.1 -1,4.3 1.3,1.2 0.3,1.3 0.7,1.7 -1.5,0.2 -1.8,-0.7 -0.9,-2.6 -1.2,-1.3 -6.1,-2.2 -0.6,-1.1 -2,-0.6 -1.4,0.6 -1,-0.5 -0.9,0.4 -0.7,-0.4 -0.9,0.4 -0.7,-0.5 -1,0.7 -1.5,-0.6 -1.8,2 -1.8,0.1 -2.1,-2 -1.7,-0.2 -3.4,-3.2 -38,-1.6 -51.1,-3.5 3.9,-43.9 2,-20.7 z"
             id="path1002">
            <title
               id="title1000">South Dakota</title>
          </path>
          <path
             style="fill:#008000"
             inkscape:connector-curvature="0"
             class="tn"
             d="m 620.9,365.1 45.7,-4 22.9,-2.9 0.1,-4.9 1.4,-1.3 1.5,0.1 1.3,-0.9 0.8,-4.1 4.6,-3 3.6,-0.5 3.2,-2.6 0.5,-1.2 4.7,-2.4 0.6,-3.4 4,-3.3 0.8,0.2 0.1,1.5 0.8,0.8 1.5,-1.2 0.7,-2.1 3.5,-2.5 2.6,1.1 2.4,-5.2 1.4,-1.2 1.5,0.1 V 317 l 0.3,-0.7 -4.6,0.5 -0.2,1 -28.9,3.3 -5.6,1.4 -20.5,1.4 -5.2,0.8 -17.4,1 -2.6,0.8 -22.6,2 -0.7,-0.6 h -3.7 l 1.2,3.2 -0.6,0.9 -23.3,1.5 -0.8,1 -0.8,-0.7 h -1 v 1.3 l 0.6,1 -0.1,1 -1.4,0.5 1.4,1.5 -0.8,0.7 -1.7,-0.2 0.6,1 1.2,1.1 v 0.7 l -1.2,0.5 -1,2 0.1,0.6 1.4,1 -0.4,0.7 h -1.5 v 0.5 l 0.9,0.9 0.1,0.8 -1.4,0.2 -0.5,0.8 -1.6,0.2 -0.9,0.9 0.6,0.9 1.1,-0.1 0.5,0.9 -1.6,1.3 0.4,1.5 -2,-0.6 -0.1,0.7 0.4,1.1 -0.3,1.4 -1.3,-0.8 -0.8,0.8 1.1,0.1 0.1,1.5 -0.6,1 1.1,0.9 -0.3,1.5 0.8,0.7 -0.7,1 -1.2,-0.5 -0.9,2.2 -1.6,0.7 z"
             id="path1006">
            <title
               id="title1004">Tennessee</title>
          </path>
          <path
             style="fill:#008000"
             inkscape:connector-curvature="0"
             class="tx"
             d="m 282.3,429 0.3,-3 34.4,3.6 31.8,2.6 7.9,-99.3 h 0.8 l 52.6,3.2 -1.4,42.7 2.7,1.3 2.5,3 1.5,0.3 1.1,-1 1.2,0.4 1.4,1 1.1,-1.5 2.3,1.7 0.5,2.9 1.2,0.7 2.3,-0.1 3.5,1.9 2,-0.1 1.4,-0.4 2.3,2.2 2,-2.3 3.5,1.1 1.9,3 2.3,-0.1 -0.7,2.1 2.3,1.1 3,-2.6 2.6,1.7 1.3,-0.5 0.1,1.5 1.7,1.2 2.3,-2.5 1.2,0.7 -0.3,2 1,1.8 1.2,-0.8 2.5,-4.2 1.8,2 2,0.5 2.1,-0.7 2,1.8 1.2,-0.1 1.3,1.2 3.6,-0.9 0.6,-1.7 3.7,-0.3 1.6,0.7 5,-2.5 0.6,1.5 5.1,-0.3 0.5,-1.6 2.2,0.9 4.6,3.8 6.4,1.9 2.6,2.3 2.8,-1.3 3.2,0.8 0.2,11.9 0.5,19.9 0.7,3.4 2.6,2.8 0.7,5.4 3.8,4.6 0.8,4.3 h 1 l -0.1,7.3 -3.3,6.4 1.3,2.3 -1.3,1.5 0.7,3 -0.1,4.3 -2.2,3.5 -0.1,0.8 -1.7,1.2 1,1.8 1.2,1.1 -3.5,0.3 -8.4,3.9 -3.5,1.4 -1.8,1.8 -0.7,-0.5 2.1,-2.3 1.8,-0.7 0.5,-0.9 -2.9,-0.1 -0.7,-0.8 0.8,-2 -0.9,-1.8 h -0.6 l -2.4,1.3 -1.9,2.6 0.3,1.7 3.3,3.4 1.3,0.3 v 0.8 l -2.3,1.6 -4.9,4 -4,3.9 -3.2,1.4 -5,3 -3.7,2 -4.5,1.9 -4.1,2.5 3.2,-3 v -1.1 l 0.6,-0.8 -0.2,-1.8 -1.5,-0.1 -1.1,1.5 -2.6,1.3 -1.8,-1.2 -0.3,-1.7 h -1.5 l 0.8,2.2 1.4,0.7 1.2,0.9 1.8,1.6 -0.7,0.8 -3.9,1.7 -1.7,0.1 -1.2,-1.2 -0.5,2.1 0.5,1.1 -2.7,2 -1.5,0.2 -0.8,0.7 -0.4,1.7 -1.8,3.3 -1.6,0.7 -1.6,-0.6 -1.8,1.1 0.3,1.4 1.3,0.8 1,0.8 -1.8,3.5 -0.3,2.8 -1,1.7 -1.4,1 -2.9,0.4 1.8,0.6 1.9,-0.6 -0.4,3.2 -1.1,-0.1 0.2,1.2 0.3,1.4 -1.3,0.9 v 3.1 l 1.6,1.4 0.6,3.1 -0.4,2.2 -1,0.4 0.4,1.5 1.1,0.4 0.8,1.7 v 2.6 l 1.1,2.1 2.2,2.6 -0.1,0.7 -2.2,-0.2 -1.6,1.4 0.2,1.4 -0.9,-0.3 -1.4,-0.2 -3.4,-3.7 -2.3,-0.6 h -7.1 l -2.8,-0.8 -3.6,-3 -1.7,-1 -2.1,0.1 -3.2,-2.6 -5.4,-1.6 v -1.3 l -1.4,-1.8 -0.9,-4.7 -1.1,-1.7 -1.7,-1.4 v -1.6 l -1.4,-0.6 0.6,-2.6 -0.3,-2.2 -1.3,-1.4 0.7,-3 -0.8,-3.2 -1.7,-1.4 h -1.1 l -4,-3.5 0.1,-1.9 -0.8,-1.7 -0.8,-0.2 -0.9,-2.4 -2,-1.6 -2.9,-2.5 -0.2,-2.1 -1,-0.7 0.2,-1.6 0.5,-0.7 -1.4,-1.5 0.1,-0.7 -2,-2.2 0.1,-2.1 -2.7,-4.9 -0.1,-1.7 -1.8,-3.1 -5.1,-4.8 v -1.1 l -3.3,-1.7 -0.1,-1.8 -1.2,-0.4 v -0.7 l -0.8,-0.2 -2.1,-2.8 h -0.8 l -0.7,-0.6 -1.3,1.1 h -2.2 l -2.6,-1.1 h -4.6 l -4.2,-2.1 -1.3,1.9 -2.2,-0.6 -3.3,1.2 -1.7,2.8 -2,3.2 -1.1,4.4 -1.4,1.2 -1.1,0.1 -0.9,1.6 -1.3,0.6 -0.1,1.8 -2.9,0.1 -1.8,-1.5 h -1 l -2,-2.9 -3.6,-0.5 -1.7,-2.3 -1.3,-0.2 -2.1,-0.8 -3.4,-3.4 0.2,-0.8 -1.6,-1.2 -1,-0.1 -3.4,-3.1 -0.1,-2 -2.3,-4 0.2,-1.6 -0.7,-1.3 0.8,-1.5 -0.1,-2.4 -2.6,-4.1 -0.6,-4.2 -1.6,-1.6 v -1 l -1.2,-0.2 -0.7,-1.1 -2.4,-1.7 -0.9,-0.1 -1.9,-1.6 v -1.1 l -2.9,-1.8 -0.6,-2.1 -2.6,-2.3 -3.2,-4.4 -3,-1.3 -2.1,-1.8 0.2,-1.2 -1.3,-1.4 -1.7,-3.7 -2.4,-1 z m 174.9,138.3 0.8,0.1 -0.6,-4.8 -3.5,-12.3 -0.2,-8.1 4.9,-10.5 6.1,-8.2 7.2,-5.1 v -0.7 h -0.8 l -2.6,1 -3.6,2.3 -0.7,1.5 -8.2,11.6 -2.8,7.9 v 8.8 l 3.6,12 z"
             id="path1010">
            <title
               id="title1008">Texas</title>
          </path>
          <path
             style="fill:#008000"
             inkscape:connector-curvature="0"
             class="ut"
             d="m 233.2,217.9 3.3,-21.9 -47.9,-8.2 -21,109 46.2,8.2 40,6 11.5,-88.3 z"
             id="path1014">
            <title
               id="title1012">Utah</title>
          </path>
          <path
             style="fill:#008000"
             inkscape:connector-curvature="0"
             class="vt"
             d="m 859.1,102.4 -1.1,3.5 2.1,2.8 -0.4,1.7 0.1,1.3 -1.1,2.1 -1.4,0.4 -0.6,1.3 -2.1,1 -0.7,1.5 1.4,3.4 -0.5,2.5 0.5,1.5 -1,1.9 0.4,1.9 -1.3,1.9 0.2,2.2 -0.7,1.1 0.7,4.5 0.7,1.5 -0.5,2.6 0.9,1.8 -0.2,2.5 -0.5,1.3 -0.1,1.4 2.1,2.6 -12.4,2.7 -1.1,-1 0.5,-2 -3,-14.2 -1.9,-1.5 -0.9,1.6 -0.9,-2.2 0.8,-1.8 -3.1,-6.7 0.3,-3.8 0.4,-1 -0.6,-2 0.4,-2.2 -2.2,-2.3 -0.5,-3.2 0.4,-1.5 -1.4,-0.9 0.6,-1.9 -0.8,-1.7 27.3,-6.9 z"
             id="path1018">
            <title
               id="title1016">Vermont</title>
          </path>
          <path
             style="fill:#008000"
             inkscape:connector-curvature="0"
             class="va"
             d="m 834.7,265.4 -1.1,2.8 0.5,1.1 0.4,-1.1 0.8,-3.1 z m -34.6,-7 -0.7,-1 1,-0.1 1,-0.9 0.4,-1.8 -0.2,-0.5 0.1,-0.5 -0.3,-0.7 -0.6,-0.5 -0.4,-0.1 -0.5,-0.4 -0.6,-0.6 h -1 l -0.6,-0.1 -0.4,-0.4 0.1,-0.5 -1.7,-0.6 -0.8,0.3 -1.2,-0.1 -0.7,-0.7 -0.5,-0.2 -0.2,-0.7 0.6,-0.8 v -0.9 l -1.2,-0.2 -1,-0.9 -0.9,0.1 -1.6,-0.3 -0.4,0.7 -0.4,1.6 -0.5,2.3 -10,-5.2 -0.2,0.9 0.9,1.6 -0.8,2.3 0.1,2.9 -1.2,0.8 -0.5,2.1 -0.9,0.8 -1.4,1.8 -0.9,0.8 -1,2.5 -2.4,-1.1 -2.3,8.5 -1.3,1.6 -2.8,-0.5 -1.3,-1.9 -2.3,-0.7 -0.1,4.7 -1.4,1.7 0.4,1.5 -2.1,2.2 0.4,1.9 -3.7,6.3 -1,3.3 1.5,1.2 -1.5,1.9 0.1,1.4 -2.3,2 -0.7,-1.1 -4.3,3.1 -1.5,-1 -0.6,1.4 0.8,0.5 -0.5,0.9 -5.5,2.4 -3,-1.8 -0.8,1.7 -1.9,1.8 -2.3,0.1 -4.4,-2.3 -0.1,-1.5 -1.5,-0.7 0.8,-1.2 -0.7,-0.6 -4.9,6.6 -2.9,1 -3,3 -0.4,2.2 -2.1,1.3 -0.1,1.7 -1.4,1.4 -1.8,0.5 -0.5,1.9 -1,0.4 -6.9,4.2 28.9,-3.3 0.2,-1 4.6,-0.5 -0.3,0.7 29.4,-3.5 39.4,-7.3 29.1,-6.1 -0.6,-1.2 0.4,-0.1 0.9,0.9 -0.1,-1.4 -0.3,-1.9 1.6,1.2 0.9,2.1 v -1.3 l -3.4,-5.5 v -1.2 l -0.7,-0.8 -1.3,0.7 0.5,1.4 h -0.8 l -0.4,-1 -0.6,0.9 -0.9,-1.1 -2.1,-0.1 -0.2,0.7 1.5,2.1 -1.4,-0.7 -0.5,-1 -0.4,0.8 -0.8,0.1 -1.5,1.7 0.3,-1.6 v -1.4 l -1.5,-0.7 -1.8,-0.5 -0.2,-1.7 -0.6,-1.3 -0.6,1.1 -1.7,-1 -2,0.3 0.2,-0.9 1.5,-0.2 0.9,0.5 1.7,-0.8 0.9,0.4 0.5,1 v 0.7 l 1.9,0.4 0.3,0.9 0.9,0.4 0.9,1.2 1.4,-1.6 h 0.6 l -0.1,-2.1 -1.3,1 -0.6,-0.9 1.5,-0.2 -1.2,-0.9 -1.2,0.6 -0.1,-1.7 -1.7,0.2 -2.2,-1.1 -1.8,-2.2 3.6,2.2 0.9,0.3 1.7,-0.8 -1.7,-0.9 0.6,-0.6 -1,-0.5 0.8,-0.2 -0.3,-0.9 1.1,0.9 0.4,-0.8 0.4,1.3 1.2,0.8 0.6,-0.5 -0.5,-0.6 -0.1,-2.5 -1.1,-0.1 -1.6,-0.8 0.9,-1.1 -2,-0.1 -0.4,-0.5 -1.4,0.6 -1.4,-0.8 -0.5,-1.2 -2.1,-1.2 -2.1,-1.8 -2.2,-1.9 3,1.3 0.9,1.2 2.1,0.7 2.3,2.5 0.2,-1.7 0.6,1.3 2.3,0.5 v -4 l -0.8,-1.1 1.1,0.4 0.1,-1.6 -3.1,-1.4 -1.6,-0.2 -1.3,-0.2 0.3,-1.2 -1.5,-0.3 -0.1,-0.6 h -1.8 l -0.2,0.8 -0.7,-1 h -2.7 l -1,-0.4 -0.2,-1 -1.2,-0.6 -0.4,-1.5 -0.6,-0.4 -0.7,1.1 -0.9,0.2 -0.9,0.7 h -1.5 l -0.9,-1.3 0.4,-3.1 0.5,-2.4 0.6,0.5 z m 21.9,11.6 0.9,-0.1 v -0.6 l -0.8,0.1 z m 7.5,14.2 -1,2.7 1.2,-1.3 z m -1.8,-15.3 0.7,0.3 -0.2,1.9 -0.5,-0.5 -1.3,1 1,0.4 -1.8,4.4 0.1,8.1 1.9,3.1 0.5,-1.5 0.4,-2.7 -0.3,-2.3 0.7,-0.9 -0.2,-1.4 1.2,-0.6 -0.6,-0.5 0.5,-0.7 0.8,1.1 -0.2,1.1 -0.4,3.9 1.1,-2.2 0.4,-3.1 0.1,-3 -0.3,-2 0.6,-2.3 1.1,-1.8 0.1,-2.2 0.3,-0.9 -4.6,1.6 -0.7,0.8 z"
             id="path1022">
            <title
               id="title1020">Virginia</title>
          </path>
          <path
             style="fill:#008000"
             inkscape:connector-curvature="0"
             class="wa"
             d="m 161.9,83.6 0.7,4 -1.1,4.3 -30.3,-7.3 -2.8,1 -5.4,-0.9 -1.8,-0.9 -1.5,1.2 -3.3,-0.4 -4.5,0.5 -0.9,0.7 -4.2,-0.4 -0.8,-1.6 -1.2,-0.2 -4.4,1.3 -1.6,-1.1 -2.2,0.8 -0.2,-1.8 -2.3,-1.2 -1.5,-0.2 -1,-1.1 -3,0.3 -1.2,-0.8 h -1.2 l -1.2,0.9 -5.5,0.7 -6.6,-4.2 1.1,-5.6 -0.4,-4.1 -3.2,-3.7 -3.7,0.1 -0.4,-1.1 0.4,-1.2 -0.7,-0.8 -1,0.1 -2.1,-1.5 -1.2,0.4 -2,-0.1 -0.7,-1.5 -1.6,-0.3 2.5,-7.5 -0.7,6 0.5,0.5 v -2 l 0.8,-0.2 1.1,2.3 -0.5,-2.2 1.2,-4.2 1.8,0.4 -1.1,-2 -1,0.3 -1.5,-0.4 0.2,-4.2 0.2,1.5 0.9,0.5 0.6,-1.6 h 3.2 l -2.2,-1.2 -1.7,-1.9 -1.4,1.6 1.2,-3.1 -0.3,-4.6 -0.2,-3.6 0.9,-6.1 -0.5,-2 -1.4,-2.1 0.1,-4 0.4,-2.7 2,-2.3 -0.7,-1.4 0.2,-0.6 0.9,0.1 7.8,7.6 4.7,1.9 5.1,2.5 3.2,-0.1 0.2,3 1,-1.6 h 0.7 l 0.6,2.7 0.5,-2.6 1.4,-0.2 0.5,0.7 -1.1,0.6 0.1,1.6 0.7,-1.5 h 1.1 l -0.4,2.6 -1.1,-0.8 0.4,1.4 -0.1,1.5 -0.8,0.7 -2.5,2.9 1.2,-3.4 -1.6,0.4 -0.4,2.1 -3.8,2.8 -0.4,1 -2.1,2.2 -0.1,1 h 2.2 l 2.4,-0.2 0.5,-0.9 -3.9,0.5 V 39 l 2.6,-2.8 1.8,-0.8 1.9,-0.2 1,-1.6 3,-2.3 v -1.4 h 1.1 l 0.1,4 h -1.5 l -0.6,0.8 -1.1,-0.9 0.3,1.1 v 1.7 l -0.7,0.7 -0.3,-1.6 -0.8,0.8 0.7,0.6 -0.9,1.1 h 1.3 l 0.7,-0.5 0.1,2 -1,1.9 -0.9,1 -0.1,1.8 -1,-0.2 -0.2,-1.4 0.9,-1.1 -0.8,-0.5 -0.8,0.7 -0.7,2.2 -0.8,0.9 -0.1,-2 0.8,-1.1 -0.2,-1.1 -1.2,1.2 0.1,2.2 -0.6,0.4 -2.1,-0.4 -1.3,1.2 2.2,-0.6 -0.2,2.2 1,-1.8 0.4,1.4 0.5,-1 0.7,1.8 h 0.7 l 0.7,-0.8 0.6,-0.1 2,-1.9 0.2,-1.2 0.8,0.6 0.3,0.9 0.7,-0.3 0.1,-1.2 h 1.3 l 0.2,-2.9 -0.1,-2.7 0.9,0.3 -0.7,-2.1 1.4,-0.8 0.2,-2.4 2.3,-2.2 1,0.1 0.3,-1.4 -1.2,-1.4 -0.1,-3.5 -0.8,0.9 0.7,2.9 -0.6,0.1 -0.6,-1.9 -0.6,-0.5 0.3,-2.3 1.8,-0.1 0.3,0.7 0.3,-1.6 -1.6,-1.7 -0.6,-1.6 -0.2,2 0.9,1.1 -0.7,0.4 -1,-0.8 -1.8,1.3 1.5,0.5 0.2,2.4 -0.3,1.8 0.9,-1.3 1.4,2.3 -0.4,1.9 h -1.5 v -1.2 l -1.5,-1.2 0.5,-3 -1.9,-2.6 2.7,-3 0.6,-4.1 h 0.9 l 1.4,3.2 v -2.6 l 1.2,0.3 v -3.3 l -0.9,-0.8 -1.2,2.5 -1,-3 L 93.5,12 92,7.1 93.9,6.5 119.3,14 151,22 174.6,27.5 Z M 83.2,44.2 h 0.5 l 0.1,0.8 -0.5,0.3 0.1,0.6 -0.7,0.4 L 82.5,45.4 83,45 Z m 5,-4.3 -1.2,1.9 -0.1,0.8 0.4,0.2 0.5,-0.6 1.1,0.1 z m -0.4,-21.6 0.5,0.6 1.3,-0.3 0.2,-1 1.2,-1.8 -1,-0.4 -0.7,1.6 -0.1,-1.6 -1.1,0.2 -0.7,1.4 z m 3.2,-5.5 0.7,1.5 -0.9,0.2 -0.8,0.4 -0.2,-2.4 z m -2.7,-1.6 -1.1,-0.2 0.5,1.4 z m -1,2.5 0.8,0.4 -0.4,1.1 1.7,-0.5 -0.2,-2.2 -0.9,-0.2 z m -2.7,-0.4 0.3,2.7 1.6,1.3 0.6,-1.9 -1.1,-2.2 z m 1.9,-1.1 -1.1,-1 -0.9,0.1 1.8,1.5 z m 3.2,-7 H 88.5 V 6 l 1.2,0.6 z M 88.8,37.7 89.2,35 h -1.1 l -0.2,1.9 z"
             id="path1026">
            <title
               id="title1024">Washington</title>
          </path>
          <path
             style="fill:#008000"
             inkscape:connector-curvature="0"
             class="wv"
             d="m 723.4,297.5 -0.8,1.2 1.5,0.7 0.1,1.5 4.4,2.3 2.3,-0.1 1.9,-1.8 0.8,-1.7 3,1.8 5.5,-2.4 0.5,-0.9 -0.8,-0.5 0.6,-1.4 1.5,1 4.3,-3.1 0.7,1.1 2.3,-2 -0.1,-1.4 1.5,-1.9 -1.5,-1.2 1,-3.3 3.7,-6.3 -0.4,-1.9 2.1,-2.2 -0.4,-1.5 1.4,-1.7 0.1,-4.7 2.3,0.7 1.3,1.9 2.8,0.5 1.3,-1.6 2.3,-8.5 2.4,1.1 1,-2.5 0.9,-0.8 1.4,-1.8 0.9,-0.8 0.5,-2.1 1.2,-0.8 -0.1,-2.9 0.8,-2.3 -0.9,-1.6 0.2,-0.9 10,5.2 0.5,-2.3 0.4,-1.6 0.4,-0.7 -0.9,-0.4 0.2,-1.6 -1,-0.5 -0.2,-0.7 h -0.7 l -0.8,-1.2 0.2,-1 -2.6,0.4 -2.2,-1.6 -1.4,0.3 -0.9,1.4 h -1.3 l -1.7,2.9 -3.3,0.4 -1.9,-1 -2.6,3.8 -2.2,-0.3 -3.1,3.9 -0.9,1.6 -1.8,1.6 -1.7,-11.4 -17.4,2.9 -3.2,-19.7 -2.2,1.2 1.4,2.1 -0.1,2.2 0.6,2 -1.1,3.4 -0.1,5.4 -1,3.6 0.5,1.1 -0.4,2.2 -1.1,0.5 -2,3.3 -1.8,2 h -0.6 l -1.8,1.7 -1.3,-1.2 -1.5,1.8 -0.3,1.2 h -1.3 l -1.3,2.2 0.1,2.1 -1,0.5 1.4,1.1 v 1.9 l -1,0.2 -0.7,0.8 -1,0.5 -0.6,-2.1 -1.6,-0.5 -1,2.3 -0.3,2.2 -1.1,1.3 1.3,3.6 -1.5,0.8 -0.4,3.5 h -1.5 l -3.2,1.4 -0.1,1.1 0.6,1 -0.6,3.6 1.9,1.6 0.8,1.1 1,0.6 -0.1,0.9 4.4,5.6 h 1.4 l 1.5,1.8 1.2,0.3 1.4,-0.1 z"
             id="path1030">
            <title
               id="title1028">West Virginia</title>
          </path>
          <path
             style="fill:#008000"
             inkscape:connector-curvature="0"
             class="wi"
             d="m 611,144 -2.9,0.8 0.2,2.3 -2.4,3.4 -0.2,3.1 0.6,0.7 0.8,-0.7 0.5,-1.6 2,-1.1 1.6,-4.2 3.5,-1.1 0.8,-3.3 0.7,-0.9 0.4,-2.1 1.8,-1.1 v -1.5 l 1,-0.9 1.4,0.1 v 2 l -1,0.1 0.5,1.2 -0.7,2.2 -0.6,0.1 -1.2,4.5 -0.7,0.5 -2.8,7.2 -0.3,4.2 0.6,2 0.1,1.3 -2.4,1.9 0.3,1.9 -0.9,3.1 0.3,1.6 0.4,3.7 -1.1,4.1 -1.5,5 1,1.5 -0.3,0.3 0.8,1.7 -0.5,1.1 1.1,0.9 v 2.7 l 1.3,1.5 -0.4,3 0.3,4 -45.9,2.8 -1.3,-2.8 -3.3,-0.7 -2.7,-1.5 -2,-5.5 0.1,-2.5 1.6,-3.3 -0.6,-1.1 -2.1,-1.6 -0.2,-2.6 -1.1,-4.5 -0.2,-3 -2.2,-3 -2.8,-0.7 -5.2,-3.6 -0.6,-3.3 -6.3,-3.1 -0.2,-1.3 h -3.3 l -2.2,-2.6 -2,-1.3 0.7,-5.1 -0.9,-1.6 0.5,-5.4 1,-1.8 -0.3,-2.7 -1.2,-1.3 -1.8,-0.3 v -1.7 l 2.8,-5.8 5.9,-3.9 -0.4,-13 0.9,0.4 0.6,-0.5 0.1,-1.1 0.9,-0.6 1.4,1.2 0.7,-0.1 h 2.6 l 6.8,-2.6 0.3,-1 h 1.2 l 0.7,-1.2 0.4,0.8 1.8,-0.9 1.8,-1.7 0.3,0.5 1,-1 2.2,1.6 -0.8,1.6 -1.2,1.4 0.5,1.5 -1.4,1.6 0.4,0.9 2.3,-1.1 v -1.4 l 3.3,1.9 1.9,0.7 1.9,0.7 3,3.8 17,3.8 1.4,1 4,0.8 0.7,0.5 2.8,-0.2 4.9,0.8 1.4,1.5 -1,1 0.8,0.8 3.8,0.7 1.2,1.2 0.1,4.4 -1.3,2.8 2,0.1 1,-0.8 0.9,0.8 -1.1,3.1 1,1.6 1.2,0.3 z m -49.5,-37.3 -0.5,0.1 -1.5,1.6 0.2,0.5 1.5,-0.6 v -0.6 l 0.9,-0.3 z m 1.6,-1.1 -1,0.3 -0.2,0.7 0.9,-0.1 z m -1.3,-1.6 -0.2,0.9 h 1.7 l 0.6,-0.4 0.1,-1 z m 2.8,-3 -0.3,1.9 1.2,-0.5 0.1,-1.4 z m 58.3,31.9 -2,0.3 -0.4,1.3 1.3,1.7 z"
             id="path1034">
            <title
               id="title1032">Wisconsin</title>
          </path>
          <path
             style="fill:#008000"
             inkscape:connector-curvature="0"
             class="wy"
             d="m 355.3,143.7 -51,-5.3 -57.3,-7.9 -2,10.7 -8.5,54.8 -3.3,21.9 32.1,4.8 44.9,5.7 37.5,3.4 3.7,-44.2 z"
             id="path1038">
            <title
               id="title1036">Wyoming</title>
          </path>
          <path
             style="fill:#008000"
             inkscape:connector-curvature="0"
             class="dc"
             d="m 803.5,252 -2.6,-1.8 -1,1.7 0.5,0.4 0.4,0.1 0.6,0.5 0.3,0.7 -0.1,0.5 0.2,0.5 z"
             id="path1042">
            <title
               id="title1040">District of Columbia</title>
          </path>
        </g>
        <g
           style="fill:none;stroke:#ffffff;stroke-width:1"
           class="borders"
           id="g1260">
          <path
             inkscape:connector-curvature="0"
             class="al-fl"
             d="m 687.6,447.4 -48.8,5.1 -0.5,2.9 2.5,2.8 1.7,0.7 0.9,1.2 -0.4,7.3 -1.1,0.6"
             id="path1046" />
          <path
             inkscape:connector-curvature="0"
             class="al-ga"
             d="m 666.6,361.1 12.9,45.8 2.9,6.1 1.8,1.9 v 3.2 l 1.7,1 0.2,1.1 -2.2,3.8 -0.3,3.7 -0.5,2.6 2.4,5.7 -0.6,6.3 0.5,1.4 1.5,1.5 0.7,2.2"
             id="path1048" />
          <path
             inkscape:connector-curvature="0"
             class="al-ms"
             d="m 620.9,365.1 1.3,2 -1.3,67 4.4,33.2"
             id="path1050" />
          <path
             inkscape:connector-curvature="0"
             class="al-tn"
             d="m 620.9,365.1 45.7,-4"
             id="path1052" />
          <path
             inkscape:connector-curvature="0"
             class="ar-la"
             d="M 516.7,414.2 569,412.9"
             id="path1054" />
          <path
             inkscape:connector-curvature="0"
             class="ar-mo"
             d="m 591.7,344.9 -11.2,0.8 2.8,-5.1 1.7,-1.5 v -2.2 l -1.6,-2.5 -39.8,2 -39.1,0.7"
             id="path1056" />
          <path
             inkscape:connector-curvature="0"
             class="ar-ms"
             d="m 569,412.9 1.2,-1.5 0.5,-3 -1.5,-2.3 -0.5,-2.2 0.9,-0.7 v -0.8 l -1.7,-1.1 -0.1,-0.7 1.6,-0.9 -1.2,-1.1 1.7,-7.1 3.4,-1.6 v -0.8 l -1.1,-1.4 2.9,-5.4 h 1.9 l 1.5,-1.2 -0.3,-5.2 3.1,-4.5 1.8,-0.6 -0.5,-3.1"
             id="path1058" />
          <path
             inkscape:connector-curvature="0"
             class="ar-ok"
             d="m 507.9,400.5 0.7,-39 -4.1,-24.4"
             id="path1060" />
          <path
             inkscape:connector-curvature="0"
             class="ar-tn"
             d="m 582.6,367.7 1.6,-0.7 0.9,-2.2 1.2,0.5 0.7,-1 -0.8,-0.7 0.3,-1.5 -1.1,-0.9 0.6,-1 -0.1,-1.5 -1.1,-0.1 0.8,-0.8 1.3,0.8 0.3,-1.4 -0.4,-1.1 0.1,-0.7 2,0.6 -0.4,-1.5 1.6,-1.3 -0.5,-0.9 -1.1,0.1 -0.6,-0.9 0.9,-0.9 1.6,-0.2 0.5,-0.8 1.4,-0.2 -0.1,-0.8 -0.9,-0.9 v -0.5 h 1.5 l 0.4,-0.7 -1.4,-1 -0.1,-0.6"
             id="path1062" />
          <path
             inkscape:connector-curvature="0"
             class="ar-tx"
             d="m 507.9,400.5 2.6,2.3 2.8,-1.3 3.2,0.8 0.2,11.9"
             id="path1064" />
          <path
             inkscape:connector-curvature="0"
             class="az-ca"
             d="m 149,338.1 -0.9,2.1 1.3,3.4 1.4,1.8 1.2,5.8 2.3,2.5 0.4,1.9 -1.3,1.3 -4.8,1.7 -2.4,3.6 -1.6,7 -2.4,3.2 -1.6,0.3 -1.1,6.9 1.1,1.6 1.8,0.2 1,1.6 -0.8,2.4 -3,2.2 -2.2,-0.1"
             id="path1066" />
          <path
             inkscape:connector-curvature="0"
             class="az-nm"
             d="M 253.8,311 236.4,435.1"
             id="path1068" />
          <path
             inkscape:connector-curvature="0"
             class="az-nv"
             d="m 167.6,296.8 -3.4,17.5 -2.4,2.9 h -2 l -1.2,-2.7 -3.7,-1.4 -3.5,0.6 -1,13.6 0.5,4.9 -0.5,2.9 -1.4,3"
             id="path1070" />
          <path
             inkscape:connector-curvature="0"
             class="az-ut"
             d="m 167.6,296.8 46.2,8.2 40,6"
             id="path1072" />
          <path
             inkscape:connector-curvature="0"
             class="ca-nv"
             d="m 93.9,166.5 -16.4,63.1 1.1,3.5 70.4,105"
             id="path1074" />
          <path
             inkscape:connector-curvature="0"
             class="ca-or"
             d="m 27.8,147.9 66.1,18.6"
             id="path1076" />
          <path
             inkscape:connector-curvature="0"
             class="co-ks"
             d="m 379.4,256.3 -4.8,67"
             id="path1078" />
          <path
             inkscape:connector-curvature="0"
             class="co-ne"
             d="m 347.7,231.8 33.1,2.4 -1.4,22.1"
             id="path1080" />
          <path
             inkscape:connector-curvature="0"
             class="co-nm"
             d="m 253.8,311 52.6,6.5 51.7,4.8"
             id="path1082" />
          <path
             inkscape:connector-curvature="0"
             class="co-ok"
             d="m 358.1,322.3 16.5,1"
             id="path1084" />
          <path
             inkscape:connector-curvature="0"
             class="co-ut"
             d="M 265.3,222.7 253.8,311"
             id="path1086" />
          <path
             inkscape:connector-curvature="0"
             class="co-wy"
             d="m 265.3,222.7 44.9,5.7 37.5,3.4"
             id="path1088" />
          <path
             inkscape:connector-curvature="0"
             class="ct-ma"
             d="m 843.8,171.3 10.5,-2.4 0.5,0.7 0.9,-0.3 v -0.7 l 14.9,-3.4 0.1,0.3"
             id="path1090" />
          <path
             inkscape:connector-curvature="0"
             class="ct-ny"
             d="m 846.6,194.7 -1.7,-2.2 3.5,-3.4 -1.8,-1.5 -2.8,-16.3"
             id="path1092" />
          <path
             inkscape:connector-curvature="0"
             class="ct-ri"
             d="m 870.7,165.5 3.2,12.3 -0.4,1.1 0.4,1.8"
             id="path1094" />
          <path
             inkscape:connector-curvature="0"
             class="dc-md"
             d="m 801.8,254.6 1.7,-2.6 -2.6,-1.8 -1,1.7"
             id="path1096" />
          <path
             inkscape:connector-curvature="0"
             class="dc-va"
             d="m 799.9,251.9 0.5,0.4 0.4,0.1 0.6,0.5 0.3,0.7 -0.1,0.5 0.2,0.5"
             id="path1098" />
          <path
             inkscape:connector-curvature="0"
             class="de-md"
             d="m 817.9,230.1 7.6,27.1 10.9,-2.3"
             id="path1100" />
          <path
             inkscape:connector-curvature="0"
             class="de-nj"
             d="m 823.8,227.2 -1,2.2 -0.3,2.1"
             id="path1102" />
          <path
             inkscape:connector-curvature="0"
             class="de-pa"
             d="m 817.9,230.1 1.2,-2.1 1.5,-1.1 1.6,-0.3 1.6,0.6"
             id="path1104" />
          <path
             inkscape:connector-curvature="0"
             class="fl-ga"
             d="m 687.6,447.4 3.3,6 50.1,-3.3 0.6,3.2 1,1.1 2.1,-0.6 0.5,-4.3 -1.4,-2.1 v -2.5 l 2.2,-1.4 1.7,0.9 4,0.7 3.6,-0.3"
             id="path1106" />
          <path
             inkscape:connector-curvature="0"
             class="ga-nc"
             d="m 689.5,358.2 21.4,-3"
             id="path1108" />
          <path
             inkscape:connector-curvature="0"
             class="ga-sc"
             d="m 710.9,355.2 -0.1,1.9 -1.9,1 -1.4,3.2 0.2,1.3 6.1,3.8 2.6,-0.3 3.1,4 0.4,1.7 4.2,5.1 2.6,1.7 1.4,0.2 2.2,1.6 1.1,2.2 2,1.6 1.8,0.5 2.7,2.7 0.1,1.4 2.6,2.8 5,2.3 3.6,6.7 0.3,2.7 3.9,2.1 2.5,4.8 0.8,3.1 4.2,0.4"
             id="path1110" />
          <path
             inkscape:connector-curvature="0"
             class="ga-tn"
             d="m 666.6,361.1 22.9,-2.9"
             id="path1112" />
          <path
             inkscape:connector-curvature="0"
             class="ia-il"
             d="m 556.8,249.7 0.7,-0.7 0.1,-2.3 -0.7,-0.9 1,-1.5 1.8,-0.6 0.9,-0.3 1,-1.2 v -2.4 l 1.7,-2.4 0.5,-0.5 0.1,-3.5 -0.9,-1.4 -1,-0.3 -1.1,-1.6 1,-4 3,-0.8 h 2.4 l 4.2,-1.8 1.7,-2.2 0.1,-2.4 1.1,-1.3 1.3,-3.2 -0.1,-2.6 -2.8,-3.5 h -1.2 l -0.9,-1.1 0.2,-1.6 -1.7,-1.7 -2.5,-1.3 0.5,-0.6"
             id="path1114" />
          <path
             inkscape:connector-curvature="0"
             class="ia-mn"
             d="m 473.6,182 h 28.2 l 36.3,-0.9 18.6,-0.7"
             id="path1116" />
          <path
             inkscape:connector-curvature="0"
             class="ia-mo"
             d="m 484.5,246.8 25.9,0.1 27.2,-1.2 14.3,-0.8 1.7,1.3 0.6,1.6 1.1,1.1 1.5,0.8"
             id="path1118" />
          <path
             inkscape:connector-curvature="0"
             class="ia-ne"
             d="m 484.5,246.8 -1.8,-4.4 0.7,-2.2 -0.8,-3.3 0.2,-2.9 -1.3,-0.7 -0.4,-6.1 -2.8,-5 -0.2,-3.7 -2.2,-4.3 -1.3,-3.7 v -1.4 l -0.6,-1.7 v -2.3 l -0.5,-0.9"
             id="path1120" />
          <path
             inkscape:connector-curvature="0"
             class="ia-sd"
             d="m 473.5,204.2 -0.7,-1.7 -0.3,-1.3 -1.3,-1.2 1,-4.3 1.7,-5.1 -0.7,-2 -1.3,-0.4 -0.4,-1.6 1,-0.5 0.1,-1.1 -1.3,-1.5 0.1,-1.6 2.2,0.1"
             id="path1122" />
          <path
             inkscape:connector-curvature="0"
             class="ia-wi"
             d="m 567.2,202 -1.3,-2.8 -3.3,-0.7 -2.7,-1.5 -2,-5.5 0.1,-2.5 1.6,-3.3 -0.6,-1.1 -2.1,-1.6 -0.2,-2.6"
             id="path1124" />
          <path
             inkscape:connector-curvature="0"
             class="id-mt"
             d="m 188.8,30.5 -4.8,22 3.7,7.4 -1.6,4.8 3.6,4.8 1.9,0.7 3.9,8.3 v 2.1 l 2.3,3 h 0.9 l 1.4,2.1 h 3.2 v 1.6 l -7.1,17 -0.5,4.1 1.4,0.5 1.6,2.6 2.8,-1.4 3.6,-2.4 1.9,1.9 0.5,2.5 -0.5,3.2 2.5,9.7 2.6,3.5 2.3,1.4 0.4,3 v 4.1 l 2.3,2.3 1.6,-2.3 6.9,1.6 2.1,-1.2 9,1.7 2.8,-3.3 1.8,-0.6 1.2,1.8 1.6,4.1 0.9,0.1"
             id="path1126" />
          <path
             inkscape:connector-curvature="0"
             class="id-nv"
             d="m 140.9,177.7 24.4,5.4 23.3,4.7"
             id="path1128" />
          <path
             inkscape:connector-curvature="0"
             class="id-or"
             d="m 140.9,177.7 8.5,-37.3 2.9,-5.8 0.4,-2.1 0.8,-0.9 -0.9,-2 -2.9,-1.2 0.2,-4.2 4,-5.8 2.5,-0.8 1.6,-2.3 -0.1,-1.6 1.8,-1.6 3.2,-5.5 4.2,-4.8 -0.5,-3.2 -3.5,-3.1 -1.6,-3.6"
             id="path1130" />
          <path
             inkscape:connector-curvature="0"
             class="id-ut"
             d="m 236.5,196 -47.9,-8.2"
             id="path1132" />
          <path
             inkscape:connector-curvature="0"
             class="id-wa"
             d="m 174.6,27.5 -12.7,56.1 0.7,4 -1.1,4.3"
             id="path1134" />
          <path
             inkscape:connector-curvature="0"
             class="id-wy"
             d="M 245,141.2 236.5,196"
             id="path1136" />
          <path
             inkscape:connector-curvature="0"
             class="il-in"
             d="m 619.4,215.7 4.1,50.2 -1,5.2 v 2 l 2.4,3.5 v 0.7 l -0.3,0.9 0.9,1.9 -0.3,2.4 -1.6,1.8 -1.3,4.2 -3.8,5.3 -0.1,7 h -1 l 0.9,1.9"
             id="path1138" />
          <path
             inkscape:connector-curvature="0"
             class="il-ky"
             d="m 599.9,322.5 -0.3,-1.8 4,-3.7 6.9,3 1.5,-0.3 0.4,-2.4 -1.7,-1.8 0.4,-3.3 1,-0.5 1.2,0.6 0.6,-1.2 3.7,-0.6 0.1,-0.9 -1.5,-2.2 -0.1,-1.1 2.2,-2.7 v -0.9"
             id="path1140" />
          <path
             inkscape:connector-curvature="0"
             class="il-mo"
             d="m 599.9,322.5 h -2.8 l -1.4,-1.5 -1.8,-3.8 v -1.9 l 0.8,-0.6 0.1,-1.3 -1.7,-1.9 -0.9,-2.5 -2.7,-4.1 -4.8,-1.3 -7.4,-7.1 -0.4,-2.4 2.8,-7.6 -0.4,-1.9 1.2,-1.1 v -1.3 l -2.8,-1.5 -3,-0.7 -3.4,1.2 -1.3,-2.3 0.6,-1.9 -0.7,-2.4 -8.6,-8.4 -2.2,-1.5 -2.5,-5.9 -1.2,-5.4 1.4,-3.7"
             id="path1142" />
          <path
             inkscape:connector-curvature="0"
             class="il-wi"
             d="m 567.2,202 45.9,-2.8"
             id="path1144" />
          <path
             inkscape:connector-curvature="0"
             class="in-ky"
             d="m 618.3,302.7 1.1,0.8 0.6,-1 -0.7,-1.7 4.6,-0.5 0.2,1.2 1.1,0.2 0.4,-0.9 -0.6,-1.3 0.3,-0.8 1.3,0.8 1.7,-0.4 1.7,0.6 3.4,2.1 1.8,-2.8 3.5,-2.2 3,3.3 1.6,-2.1 0.3,-2.7 3.8,-2.3 0.2,1.3 1.9,1.2 3,-0.2 1.2,-0.7 0.1,-3.4 2.5,-3.7 4.6,-4.4 -0.1,-1.7 1.2,-3.8 2.2,1 6.7,-4.5 -0.4,-1.7 -1.5,-2.1 1,-1.9"
             id="path1146" />
          <path
             inkscape:connector-curvature="0"
             class="in-mi"
             d="m 630.9,213.2 32.4,-3.4 0.1,1.4"
             id="path1148" />
          <path
             inkscape:connector-curvature="0"
             class="in-oh"
             d="m 670,268.4 -6.6,-57.2"
             id="path1150" />
          <path
             inkscape:connector-curvature="0"
             class="ks-mo"
             d="m 504.3,326.3 -0.5,-48.1 -3.2,-0.7 -2.6,-4.7 -2.5,-2.5 0.5,-2.3 2.7,-2.6 0.1,-1.2 -1.5,-2.1 -0.9,1 -2,-0.6 -2.9,-3"
             id="path1152" />
          <path
             inkscape:connector-curvature="0"
             class="ks-ne"
             d="m 379.4,256.3 36,2 43.7,1.2 h 32.4"
             id="path1154" />
          <path
             inkscape:connector-curvature="0"
             class="ks-ok"
             d="m 374.6,323.3 67.7,2.9 62,0.1"
             id="path1156" />
          <path
             inkscape:connector-curvature="0"
             class="ky-mo"
             d="m 596.7,333.5 1,-2.7 1.4,0.9 0.7,-0.4 1.2,-4.1 -1,-1 1,-2 0.2,-0.9 -1.3,-0.8 m -5.8,11.3 -0.7,-0.7 0.2,-1 h 1.1 l 0.7,0.7 -0.3,1"
             id="path1158" />
          <path
             inkscape:connector-curvature="0"
             class="ky-oh"
             d="m 670,268.4 1.3,0.5 2.2,0.1 1.9,-0.8 2.9,1.2 2.2,3.4 v 1 l 4.1,0.7 2.3,-0.2 1.9,2.1 2.2,0.2 v -1 l 1.9,-0.8 3,0.8 1.2,0.8 1.3,-0.7 h 0.9 l 0.6,-1.7 3.4,-1.8 0.5,0.8 0.8,2.9 3.5,1.4 1.2,2.1"
             id="path1160" />
          <path
             inkscape:connector-curvature="0"
             class="ky-tn"
             d="m 596.7,333.5 23.3,-1.5 0.6,-0.9 -1.2,-3.2 h 3.7 l 0.7,0.6 22.6,-2 2.6,-0.8 17.4,-1 5.2,-0.8 20.5,-1.4 5.6,-1.4 m -103.6,12.7 h 1"
             id="path1162" />
          <path
             inkscape:connector-curvature="0"
             class="ky-va"
             d="m 697.7,321.1 6.9,-4.2 1,-0.4 0.5,-1.9 1.8,-0.5 1.4,-1.4 0.1,-1.7 2.1,-1.3 0.4,-2.2 3,-3 2.9,-1 4.9,-6.6"
             id="path1164" />
          <path
             inkscape:connector-curvature="0"
             class="ky-wv"
             d="m 709.3,279.4 -0.1,1.1 0.6,1 -0.6,3.6 1.9,1.6 0.8,1.1 1,0.6 -0.1,0.9 4.4,5.6 h 1.4 l 1.5,1.8 1.2,0.3 1.4,-0.1"
             id="path1166" />
          <path
             inkscape:connector-curvature="0"
             class="la-ms"
             d="m 569,412.9 -0.6,1.4 1.6,7.1 1.2,1 -0.5,1.7 2.4,2.5 v 3.3 h -2 l 1.8,2.5 -6,8.4 -2.4,4.8 -1.7,11.9 36,-2 -0.1,1.4 -1,1.4 -0.9,4.6 4.8,6.8 -0.3,1.3 1.2,1.8 0.6,0.7"
             id="path1168" />
          <path
             inkscape:connector-curvature="0"
             class="la-tx"
             d="m 516.7,414.2 0.5,19.9 0.7,3.4 2.6,2.8 0.7,5.4 3.8,4.6 0.8,4.3 h 1 l -0.1,7.3 -3.3,6.4 1.3,2.3 -1.3,1.5 0.7,3 -0.1,4.3 -2.2,3.5 -0.1,0.8 -1.7,1.2 1,1.8 1.2,1.1"
             id="path1170" />
          <path
             inkscape:connector-curvature="0"
             class="ma-nh"
             d="m 856,152.6 18.4,-3.8 1,-1.5 0.3,-1.7 1.9,-0.6 0.5,-1.1 1.7,-1.1 1.3,0.3"
             id="path1172" />
          <path
             inkscape:connector-curvature="0"
             class="ma-ny"
             d="m 843.8,171.3 -0.7,-1 0.5,-15"
             id="path1174" />
          <path
             inkscape:connector-curvature="0"
             class="ma-ri"
             d="m 870.7,165.5 6.5,-2 0.7,2.6 h 0.8 l 0.6,2.2 2.6,1.3 1.3,1.1 1.4,3"
             id="path1176" />
          <path
             inkscape:connector-curvature="0"
             class="ma-vt"
             d="M 843.6,155.3 856,152.6"
             id="path1178" />
          <path
             inkscape:connector-curvature="0"
             class="md-pa"
             d="m 757.4,241.9 60.5,-11.8"
             id="path1180" />
          <path
             inkscape:connector-curvature="0"
             class="md-va"
             d="m 822.9,269.3 -0.8,0.1 m 13.2,-4.3 -0.6,0.3 m -1.3,0.2 -4.6,1.6 -0.7,0.8 m -28.2,-16.1 -0.6,-0.6 h -1 l -0.6,-0.1 -0.4,-0.4 0.1,-0.5 -1.7,-0.6 -0.8,0.3 -1.2,-0.1 -0.7,-0.7 -0.5,-0.2 -0.2,-0.7 0.6,-0.8 v -0.9 l -1.2,-0.2 -1,-0.9 -0.9,0.1 -1.6,-0.3 m 11.6,13.5 0.3,-0.4 -0.7,-1 1,-0.1 1,-0.9 0.4,-1.8"
             id="path1182" />
          <path
             inkscape:connector-curvature="0"
             class="md-wv"
             d="m 757.4,241.9 1.7,11.4 1.8,-1.6 0.9,-1.6 3.1,-3.9 2.2,0.3 2.6,-3.8 1.9,1 3.3,-0.4 1.7,-2.9 h 1.3 l 0.9,-1.4 1.4,-0.3 2.2,1.6 2.6,-0.4 -0.2,1 0.8,1.2 h 0.7 l 0.2,0.7 1,0.5 -0.2,1.6 0.9,0.4"
             id="path1184" />
          <path
             inkscape:connector-curvature="0"
             class="me-nh"
             d="m 881.9,138.3 -2.3,-1.4 -0.8,-2.2 -3.2,-2 -0.6,-4 -11.9,-36.8"
             id="path1186" />
          <path
             inkscape:connector-curvature="0"
             class="mi-oh"
             d="m 663.4,211.2 21.4,-3.5"
             id="path1188" />
          <path
             inkscape:connector-curvature="0"
             class="mi-wi"
             d="m 565.6,112.3 1.9,0.7 3,3.8 17,3.8 1.4,1 4,0.8 0.7,0.5 2.8,-0.2 4.9,0.8 1.4,1.5 -1,1 0.8,0.8 3.8,0.7 1.2,1.2 0.1,4.4 -1.3,2.8 2,0.1 1,-0.8 0.9,0.8 -1.1,3.1 1,1.6 1.2,0.3"
             id="path1190" />
          <path
             inkscape:connector-curvature="0"
             class="mn-nd"
             d="m 462.3,61.3 2.4,7.3 -1.1,2.8 0.8,1.4 -0.3,5.1 -0.5,1.1 2.7,9.1 1.3,2.5 0.7,14 1,2.7 -0.4,5.8 2.9,7.4 0.3,5.8 -0.1,2.1"
             id="path1192" />
          <path
             inkscape:connector-curvature="0"
             class="mn-sd"
             d="m 473.6,182 0.2,-39.5 -1.5,-1.9 -2.6,-0.6 -0.4,-1.8 -1.7,-2.5 0.3,-1.2 3.1,-1.9 0.9,-2 0.1,-2.2"
             id="path1194" />
          <path
             inkscape:connector-curvature="0"
             class="mn-wi"
             d="m 556.7,180.4 -1.1,-4.5 -0.2,-3 -2.2,-3 -2.8,-0.7 -5.2,-3.6 -0.6,-3.3 -6.3,-3.1 -0.2,-1.3 h -3.3 l -2.2,-2.6 -2,-1.3 0.7,-5.1 -0.9,-1.6 0.5,-5.4 1,-1.8 -0.3,-2.7 -1.2,-1.3 -1.8,-0.3 v -1.7 l 2.8,-5.8 5.9,-3.9 -0.4,-13 0.9,0.4 0.6,-0.5 0.1,-1.1 0.9,-0.6 1.4,1.2 0.7,-0.1"
             id="path1196" />
          <path
             inkscape:connector-curvature="0"
             class="mo-ne"
             d="m 491.5,259.5 -3.9,-6.3 -2.1,-3.7 0.3,-1.4 -1.3,-1.3"
             id="path1198" />
          <path
             inkscape:connector-curvature="0"
             class="mo-ok"
             d="m 504.3,326.3 0.2,10.8"
             id="path1200" />
          <path
             inkscape:connector-curvature="0"
             class="mo-tn"
             d="m 591.7,344.9 1,-2 1.2,-0.5 v -0.7 l -1.2,-1.1 -0.6,-1 1.7,0.2 0.8,-0.7 -1.4,-1.5 1.4,-0.5 0.1,-1 -0.6,-1 v -1.3 m 1,0 0.8,0.7 0.8,-1"
             id="path1202" />
          <path
             inkscape:connector-curvature="0"
             class="ms-tn"
             d="m 582.6,367.7 38.3,-2.6"
             id="path1204" />
          <path
             inkscape:connector-curvature="0"
             class="mt-nd"
             d="M 362.5,56.3 357.3,123"
             id="path1206" />
          <path
             inkscape:connector-curvature="0"
             class="mt-sd"
             d="m 357.3,123 -2,20.7"
             id="path1208" />
          <path
             inkscape:connector-curvature="0"
             class="mt-wy"
             d="m 355.3,143.7 -51,-5.3 -57.3,-7.9 -2,10.7"
             id="path1210" />
          <path
             inkscape:connector-curvature="0"
             class="nc-sc"
             d="m 710.9,355.2 4.4,-1.9 1.3,-0.1 7.3,-4.3 23.2,-2.2 0.4,0.5 -0.2,1.4 0.7,0.3 1.2,-1.5 3.3,3 0.1,2.6 19.7,-2.8 24.5,17.1"
             id="path1212" />
          <path
             inkscape:connector-curvature="0"
             class="nc-tn"
             d="m 731.1,317 v 5.2 l -1.5,-0.1 -1.4,1.2 -2.4,5.2 -2.6,-1.1 -3.5,2.5 -0.7,2.1 -1.5,1.2 -0.8,-0.8 -0.1,-1.5 -0.8,-0.2 -4,3.3 -0.6,3.4 -4.7,2.4 -0.5,1.2 -3.2,2.6 -3.6,0.5 -4.6,3 -0.8,4.1 -1.3,0.9 -1.5,-0.1 -1.4,1.3 -0.1,4.9"
             id="path1214" />
          <path
             inkscape:connector-curvature="0"
             class="nc-va"
             d="m 731.1,317 29.4,-3.5 39.4,-7.3 29.1,-6.1"
             id="path1216" />
          <path
             inkscape:connector-curvature="0"
             class="nd-sd"
             d="m 357.3,123 39.2,2.9 46,2.1 29.5,0.4"
             id="path1218" />
          <path
             inkscape:connector-curvature="0"
             class="ne-sd"
             d="m 351.4,187.6 51.1,3.5 38,1.6 3.4,3.2 1.7,0.2 2.1,2 1.8,-0.1 1.8,-2 1.5,0.6 1,-0.7 0.7,0.5 0.9,-0.4 0.7,0.4 0.9,-0.4 1,0.5 1.4,-0.6 2,0.6 0.6,1.1 6.1,2.2 1.2,1.3 0.9,2.6 1.8,0.7 1.5,-0.2"
             id="path1220" />
          <path
             inkscape:connector-curvature="0"
             class="ne-wy"
             d="m 347.7,231.8 3.7,-44.2"
             id="path1222" />
          <path
             inkscape:connector-curvature="0"
             class="nh-vt"
             d="m 857.9,100.1 1.2,2.3 -1.1,3.5 2.1,2.8 -0.4,1.7 0.1,1.3 -1.1,2.1 -1.4,0.4 -0.6,1.3 -2.1,1 -0.7,1.5 1.4,3.4 -0.5,2.5 0.5,1.5 -1,1.9 0.4,1.9 -1.3,1.9 0.2,2.2 -0.7,1.1 0.7,4.5 0.7,1.5 -0.5,2.6 0.9,1.8 -0.2,2.5 -0.5,1.3 -0.1,1.4 2.1,2.6"
             id="path1224" />
          <path
             inkscape:connector-curvature="0"
             class="nj-ny"
             d="m 827.9,190.5 14.6,4.9 -0.4,5.9"
             id="path1226" />
          <path
             inkscape:connector-curvature="0"
             class="nj-pa"
             d="m 823.8,227.2 1.4,-1.7 1.6,-0.6 1.8,-3 1.6,-2.3 3.3,-2.6 -4.2,-3.2 -2.1,-1.1 -1,-2.8 -2.7,-0.9 -0.5,-3.6 1,-1 0.7,-2 -1.5,-1.8 3,-5.4 -0.1,-2.2 1.8,-2.5"
             id="path1228" />
          <path
             inkscape:connector-curvature="0"
             class="nm-ok"
             d="m 358.1,322.3 -0.6,10.6"
             id="path1230" />
          <path
             inkscape:connector-curvature="0"
             class="nm-tx"
             d="m 284.3,431.2 -2,-2.2 0.3,-3 34.4,3.6 31.8,2.6 7.9,-99.3 h 0.8"
             id="path1232" />
          <path
             inkscape:connector-curvature="0"
             class="nv-or"
             d="m 93.9,166.5 47,11.2"
             id="path1234" />
          <path
             inkscape:connector-curvature="0"
             class="nv-ut"
             d="m 188.6,187.8 -21,109"
             id="path1236" />
          <path
             inkscape:connector-curvature="0"
             class="ny-pa"
             d="m 827.9,190.5 -1.6,-1.1 -1.9,0.3 -3,-2.2 -3,-5.8 h -2 l -0.4,-1.5 -1.7,-1.1 -70.5,13.9 -0.8,-6"
             id="path1238" />
          <path
             inkscape:connector-curvature="0"
             class="ny-vt"
             d="m 843.6,155.3 -1.1,-1 0.5,-2 -3,-14.2 -1.9,-1.5 -0.9,1.6 -0.9,-2.2 0.8,-1.8 -3.1,-6.7 0.3,-3.8 0.4,-1 -0.6,-2 0.4,-2.2 -2.2,-2.3 -0.5,-3.2 0.4,-1.5 -1.4,-0.9 0.6,-1.9 -0.8,-1.7"
             id="path1240" />
          <path
             inkscape:connector-curvature="0"
             class="oh-pa"
             d="m 736.8,225.1 -4.9,-29.9"
             id="path1242" />
          <path
             inkscape:connector-curvature="0"
             class="oh-wv"
             d="m 709.3,279.4 3.2,-1.4 h 1.5 l 0.4,-3.5 1.5,-0.8 -1.3,-3.6 1.1,-1.3 0.3,-2.2 1,-2.3 1.6,0.5 0.6,2.1 1,-0.5 0.7,-0.8 1,-0.2 v -1.9 l -1.4,-1.1 1,-0.5 -0.1,-2.1 1.3,-2.2 h 1.3 l 0.3,-1.2 1.5,-1.8 1.3,1.2 1.8,-1.7 h 0.6 l 1.8,-2 2,-3.3 1.1,-0.5 0.4,-2.2 -0.5,-1.1 1,-3.6 0.1,-5.4 1.1,-3.4 -0.6,-2 0.1,-2.2 -1.4,-2.1 2.2,-1.2"
             id="path1244" />
          <path
             inkscape:connector-curvature="0"
             class="ok-tx"
             d="m 357.5,332.9 52.6,3.2 -1.4,42.7 2.7,1.3 2.5,3 1.5,0.3 1.1,-1 1.2,0.4 1.4,1 1.1,-1.5 2.3,1.7 0.5,2.9 1.2,0.7 2.3,-0.1 3.5,1.9 2,-0.1 1.4,-0.4 2.3,2.2 2,-2.3 3.5,1.1 1.9,3 2.3,-0.1 -0.7,2.1 2.3,1.1 3,-2.6 2.6,1.7 1.3,-0.5 0.1,1.5 1.7,1.2 2.3,-2.5 1.2,0.7 -0.3,2 1,1.8 1.2,-0.8 2.5,-4.2 1.8,2 2,0.5 2.1,-0.7 2,1.8 1.2,-0.1 1.3,1.2 3.6,-0.9 0.6,-1.7 3.7,-0.3 1.6,0.7 5,-2.5 0.6,1.5 5.1,-0.3 0.5,-1.6 2.2,0.9 4.6,3.8 6.4,1.9"
             id="path1246" />
          <path
             inkscape:connector-curvature="0"
             class="or-wa"
             d="m 161.5,91.9 -30.3,-7.3 -2.8,1 -5.4,-0.9 -1.8,-0.9 -1.5,1.2 -3.3,-0.4 -4.5,0.5 -0.9,0.7 -4.2,-0.4 -0.8,-1.6 -1.2,-0.2 -4.4,1.3 -1.6,-1.1 -2.2,0.8 -0.2,-1.8 -2.3,-1.2 -1.5,-0.2 -1,-1.1 -3,0.3 -1.2,-0.8 h -1.2 l -1.2,0.9 -5.5,0.7 -6.6,-4.2 1.1,-5.6 -0.4,-4.1 -3.2,-3.7 -3.7,0.1 -0.4,-1.1 0.4,-1.2 -0.7,-0.8 -1,0.1"
             id="path1248" />
          <path
             inkscape:connector-curvature="0"
             class="pa-wv"
             d="m 736.8,225.1 3.2,19.7 17.4,-2.9"
             id="path1250" />
          <path
             inkscape:connector-curvature="0"
             class="sd-wy"
             d="m 351.4,187.6 3.9,-43.9"
             id="path1252" />
          <path
             inkscape:connector-curvature="0"
             class="tn-va"
             d="m 697.7,321.1 28.9,-3.3 0.2,-1 4.6,-0.5 -0.3,0.7"
             id="path1254" />
          <path
             inkscape:connector-curvature="0"
             class="ut-wy"
             d="m 236.5,196 -3.3,21.9 32.1,4.8"
             id="path1256" />
          <path
             inkscape:connector-curvature="0"
             class="va-wv"
             d="m 722.7,296.9 0.7,0.6 -0.8,1.2 1.5,0.7 0.1,1.5 4.4,2.3 2.3,-0.1 1.9,-1.8 0.8,-1.7 3,1.8 5.5,-2.4 0.5,-0.9 -0.8,-0.5 0.6,-1.4 1.5,1 4.3,-3.1 0.7,1.1 2.3,-2 -0.1,-1.4 1.5,-1.9 -1.5,-1.2 1,-3.3 3.7,-6.3 -0.4,-1.9 2.1,-2.2 -0.4,-1.5 1.4,-1.7 0.1,-4.7 2.3,0.7 1.3,1.9 2.8,0.5 1.3,-1.6 2.3,-8.5 2.4,1.1 1,-2.5 0.9,-0.8 1.4,-1.8 0.9,-0.8 0.5,-2.1 1.2,-0.8 -0.1,-2.9 0.8,-2.3 -0.9,-1.6 0.2,-0.9 10,5.2 0.5,-2.3 0.4,-1.6 0.4,-0.7"
             id="path1258" />
        </g>
        <circle
           style="fill:#d0d0d0;stroke:#ffffff;stroke-width:1"
           class="state borders dccircle dc"
           cx="801.59998"
           cy="252.10001"
           r="5"
           id="circle1264">
          <title
             id="title1262">District of Columbia</title>
        </circle>
        <path
           style="fill:none;stroke:#b0b0b0;stroke-width:2"
           inkscape:connector-curvature="0"
           class="separator1"
           d="m 215,493 v 55 l 36,45 M 0,425 h 147 l 68,68 h 85 l 54,54 v 46"
           id="path1266" />
      </g>
      <text
         id="text1493"
         y="35.043091"
         x="-39.02816"
         style="font-weight:bold;font-size:10.58333302px;line-height:125%;font-family:Cantarell;-inkscape-font-specification:'Cantarell Bold';letter-spacing:0px;word-spacing:0px;fill:none;stroke:#000000;stroke-width:0.26458332px;stroke-linecap:butt;stroke-linejoin:miter;stroke-opacity:1"
         xml:space="preserve"><tspan
           style="font-weight:bold;fill:#000000;stroke:none;stroke-width:0.26458332px"
           y="35.043091"
           x="-39.02816"
           id="tspan1491"
           sodipodi:role="line">DANGER PRESENTED BY NORTH DAKOTA</tspan></text>
      <text
         id="text1493-3"
         y="153.14908"
         x="185.47215"
         style="font-weight:bold;font-size:3.67368913px;line-height:125%;font-family:Cantarell;-inkscape-font-specification:'Cantarell Bold';letter-spacing:0px;word-spacing:0px;fill:none;stroke:#000000;stroke-width:0.09184223px;stroke-linecap:butt;stroke-linejoin:miter;stroke-opacity:1"
         xml:space="preserve"><tspan
           style="font-weight:normal;fill:#000000;stroke:none;stroke-width:0.09184223px"
           y="153.14908"
           x="185.47215"
           id="tspan1491-6"
           sodipodi:role="line">There is no danger,</tspan><tspan
           id="tspan1513"
           style="font-weight:normal;fill:#000000;stroke:none;stroke-width:0.09184223px"
           y="157.7412"
           x="185.47215"
           sodipodi:role="line">North Dakota does not exist</tspan></text>
      <rect
         y="149.94833"
         x="175.98923"
         height="8.3154764"
         width="8.5044641"
         id="rect1515"
         style="color:#000000;overflow:visible;opacity:1;fill:#008000;fill-opacity:1;fill-rule:evenodd;stroke:none;stroke-width:2;stroke-miterlimit:4;stroke-dasharray:none;stroke-dashoffset:536.69293213;stroke-opacity:1" />
    </g>
    <text
       xml:space="preserve"
       style="font-weight:bold;font-size:3.3676331px;line-height:125%;font-family:Cantarell;-inkscape-font-specification:'Cantarell Bold';letter-spacing:0px;word-spacing:0px;fill:none;stroke:#000000;stroke-width:0.08419082px;stroke-linecap:butt;stroke-linejoin:miter;stroke-opacity:1"
       x="226.74861"
       y="202.20152"
       id="text1742"><tspan
         sodipodi:role="line"
         id="tspan1740"
         x="226.74861"
         y="202.20152"
         style="font-weight:normal;fill:#000000;stroke:none;stroke-width:0.08419082px">@notkavi</tspan></text>
  </g>
</svg>
