<?xml version="1.0" encoding="UTF-8" standalone="no"?>
<!-- Created with Inkscape (http://www.inkscape.org/) -->

<svg
   width="340.05511mm"
   height="234.21658mm"
   viewBox="0 0 340.05511 234.21658"
   version="1.1"
   id="svg5"
   inkscape:version="1.1 (ce6663b3b7, 2021-05-25)"
   sodipodi:docname="flippedstates.svg"
   inkscape:export-filename="/home/kavi/temp.png"
   inkscape:export-xdpi="305.92795"
   inkscape:export-ydpi="305.92795"
   xmlns:inkscape="http://www.inkscape.org/namespaces/inkscape"
   xmlns:sodipodi="http://sodipodi.sourceforge.net/DTD/sodipodi-0.dtd"
   xmlns="http://www.w3.org/2000/svg"
   xmlns:svg="http://www.w3.org/2000/svg">
  <sodipodi:namedview
     id="namedview7"
     pagecolor="#ffffff"
     bordercolor="#666666"
     borderopacity="1.0"
     inkscape:pageshadow="2"
     inkscape:pageopacity="0.0"
     inkscape:pagecheckerboard="0"
     inkscape:document-units="mm"
     showgrid="false"
     inkscape:zoom="0.77504209"
     inkscape:cx="-534.16454"
     inkscape:cy="209.02091"
     inkscape:window-width="3840"
     inkscape:window-height="2123"
     inkscape:window-x="0"
     inkscape:window-y="0"
     inkscape:window-maximized="1"
     inkscape:current-layer="layer1" />
  <defs
     id="defs2">
    <style
       type="text/css"
       id="style11">
.state {fill:#D0D0D0}                        /* default color for all states not specified below */
.borders {stroke:#FFFFFF; stroke-width:1}    /* color and width of borders between states */
.dccircle {display:yes}                      /* set display to yes to show the circle for the District of Columbia, or none to hide it */
.separator1 {stroke:#B0B0B0; stroke-width:2} /* color and width of lines around Alaska and Hawaii */

/* Individual states can be colored as follows:
.ks,.mt,.pa {fill:#0000FF}
.ca,.de {fill:#FF0000}
In this example, Kansas, Montana and Pennsylvania are colored blue, and California and Delaware are colored red.
Place this code in the empty space below. */



</style>
  </defs>
  <g
     inkscape:label="Layer 1"
     inkscape:groupmode="layer"
     id="layer1"
     transform="translate(84.348206,72.116234)">
    <rect
       style="color:#000000;overflow:visible;fill:#000000;fill-opacity:0.997222;fill-rule:evenodd;stroke:none;stroke-width:32.9575;stroke-linecap:round"
       id="rect29970"
       width="340.05511"
       height="234.21658"
       x="-255.70691"
       y="-72.116234"
       transform="scale(-1,1)" />
    <g
       id="g662"
       transform="matrix(0.349293,0,0,0.349293,-78.054644,-58.630023)">
      <g
         class="state"
         id="g219">
        <path
           class="al"
           d="m 665.2897,467.4 -0.4,-7.3 0.9,-1.2 1.7,-0.7 2.5,-2.8 -0.5,-2.9 -48.8,-5.1 0.7,-2.2 1.5,-1.5 0.5,-1.4 -0.6,-6.3 2.4,-5.7 -0.5,-2.6 -0.3,-3.7 -2.2,-3.8 0.2,-1.1 1.7,-1 v -3.2 l 1.8,-1.9 2.9,-6.1 12.9,-45.8 45.7,4 -1.3,2 1.3,67 -4.4,33.2 -0.9,-0.5 -1.3,0.1 -0.6,0.4 -0.8,-0.1 -2,-3.8 v -2.3 l -1.1,-1.1 -1.4,0.5 -3.4,6.4 v 0.9 l 3.3,2.2 -3.5,-0.4 -4.9,-1.6 z"
           id="path17"
           style="fill:#ff7518;fill-opacity:0.554975;stroke:#000000">
          <title
             id="title15">Alabama</title>
        </path>
        <!-- The scale of Alaska is 42% that of the contiguous United States, so its area is reduced to about 17.6%. The Islands of Four Mountains, Andreanof Islands, Rat Islands and Near Islands are not shown. -->
        <path
           class="ak"
           d="m 212.51487,572 h -2.4 l -0.7,0.7 1,1.2 1.9,0.2 2.5,1.3 3.7,-0.1 -2.2,-0.9 -0.3,-1.1 -2.5,-0.3 z m -8.3,-1.7 -1.3,0.5 h -0.9 l -0.5,1.2 -0.3,-0.6 -0.9,0.2 -1.1,1.5 v 0.5 l 4.2,1.9 2.4,-0.1 1,-0.5 1.1,0.7 h 2 l 1.1,-1.4 -4.7,-0.5 z m -5.4,-0.1 -1,0.1 -0.7,0.7 v 1 l 1.3,0.1 0.9,-1.1 z m -2.5,0.3 -1.3,-0.1 0.1,1 1.1,0.6 z m -0.3,2.2 -3.4,-0.1 -0.2,1.1 1.3,0.1 0.3,-0.5 0.8,0.6 0.4,-0.6 0.9,-0.2 z m -166.300003,7.6 -2.1,0.1 1,1.9 1.1,-0.1 0.4,-0.8 -0.5,-1.3 m 1.1,-2.9 -0.6,-1.3 0.2,-2.3 -2.4,-0.5 -4.5,4.4 -1.3,3.4 -1.9,1.6 -0.3,5.1 h 1.4 l 1.3,-2.3 3.1,-2.4 h 0.6 l -1.1,2.8 -1.7,0.2 -0.2,2.1 0.9,0.1 4.1,-4.4 0.1,-0.9 -1.9,-1 v -1 l 0.5,-0.8 1.6,-0.6 1.7,-1.3 -1.4,0.1 -0.5,-0.4 0.6,-0.9 0.6,0.5 z m 3.6,-9.1 -1.3,0.1 -2.4,2.5 0.2,0.8 0.8,-0.1 0.1,1.8 -0.5,0.5 v 1.5 l 0.8,0.3 0.4,1.2 0.8,-0.4 0.4,-2.2 -1.1,-1.4 2.1,-2.2 -0.1,-1.2 z m -1.5,-1.5 -1.9,0.2 -2.5,0.1 -3.4,3.2 0.2,0.5 1.1,0.6 1.1,-0.2 0.1,-0.7 1.2,-1.6 0.3,0.7 -1,1.3 0.2,1.2 0.8,-0.1 1.3,0.2 0.1,-1.7 2.6,-2.8 z m 12.7,-8.9 -0.9,-0.4 h -1.6 l -0.7,-0.5 -4.1,2.2 -0.1,1.5 0.5,0.5 h 0.8 l 1.4,-0.7 -1.1,1.3 h -1.8 l -0.5,2 h 0.9 l 2.2,-1.5 1.1,-0.2 -0.6,1.3 -0.1,0.9 -0.8,-0.6 -1.7,1.2 -1.3,-0.1 0.2,0.8 -1.9,4.3 v 3.4 l -0.4,2.1 0.8,0.3 1.2,-2 0.5,-1.5 1.6,-1.6 0.2,-2.7 0.6,-1.7 h 0.7 l -0.3,1.1 v 0.5 l 1.4,1 -0.1,-3.3 1.6,-1.6 1.3,-2.3 1.2,-1.2 z m -7.2,-2.3 -1.1,1.8 -2.4,-0.1 -1,2.1 0.6,0.6 -2,3.2 v 1.3 l 1.2,0.8 v 0.7 l 2,1.9 0.5,-1.4 0.1,-1.3 -0.6,-0.7 v -1.1 l 1.5,-1.9 0.5,-3.7 0.9,-1.5 z m 56.7,-18.3 4,4.1 v 1.6 l -2.1,-0.8 -0.8,-1.9 -2.2,-2.4 z m 31.600003,16.6 v 0.6 l -1.8,1.2 -0.2,-1.4 -0.6,0.9 -3.5,0.1 -0.7,-0.6 -0.2,-1.8 0.5,-0.7 h 1.4 v -0.8 l -0.4,-0.6 v -0.4 l 1.5,-0.3 3.3,3.6 z m 8.1,6.2 -1.5,5.8 h -2.1 l -2.4,-2.5 -0.3,1.2 -6.3,-4 -0.7,-1 1,-1.1 v -0.7 l -0.5,-1.3 0.9,-0.1 2,1 V 556 l 2.7,-0.6 2.4,0.3 0.2,3.4 0.8,-2 1.5,-0.1 1,0.6 z m 2.2,8.2 -0.1,-0.7 -2.1,-1.3 -0.6,0.3 -1.3,0.2 -1.3,1.2 2.2,-0.2 0.4,-0.6 1,0.6 z m 5.2,3.3 1.1,0.8 -1.5,1.4 -0.8,-0.7 0.1,-1.3 z m 6.3,-7.9 -1.4,0.1 -0.4,0.6 1.8,0.1 z m 13.9,11.9 v 0.5 l -0.7,0.1 0.1,-0.6 z m 0.4,-3.2 1,1 v 0.5 l -0.7,1.1 -1,-1 0.7,-0.1 z m 2,-0.8 0.3,1 1.3,0.1 0.4,0.2 v 1.3 l 0.5,0.9 h -0.6 l -0.7,-0.9 -0.8,-0.1 -0.9,-1 -0.2,-1.3 z m 4.4,-2 0.2,1.8 -1.4,0.8 -1.2,-0.6 v -1 l -1.7,-0.3 0.1,-0.6 0.9,-0.2 0.7,0.6 0.9,-0.5 z m 4.9,-0.1 -1,0.7 0.3,1.2 1.4,-1.1 z m 4.2,1.3 -1.4,0.1 0.7,0.8 z m 3.5,3 -1.8,1.1 1.7,0.1 z m 25.4,-31.2 -1.2,0.6 0.8,0.6 z m 0.7,-6.3 -0.4,1.2 -0.8,-1.2 z m -24.3,-19.3 -1.5,-0.1 -0.9,0.4 -1.1,-0.5 -1.3,-0.1 -1.6,0.8 -0.8,1.9 0.1,0.9 1.2,2 2.4,-0.2 2.1,-1.8 1,-0.4 1.1,-2 z m 21.1,-14.4 -0.1,1.9 -2,2 v 0.5 l 0.8,-0.2 1.7,-0.8 0.3,-1.1 0.3,-1.6 z m -18.3,-23.3 v 1.2 l -1.9,1.8 h -2.3 l -0.6,1.1 v 1.6 l -2.1,1.9 -1.8,1.2 0.1,0.7 0.7,1.1 1.4,-1.2 2.1,0.1 0.8,-0.8 0.9,-2.1 1.5,-2.2 2.6,-0.1 1,-0.7 -1,-2.1 z m -16.8,-4.5 h -1 l -0.1,1.1 h 1 z m -16.2,19.7 -0.9,0.1 v 1.2 l 1.7,-0.5 z M 25.514867,572 l 1.2,0.4 0.1,1.1 h -1.2 z m 157.600003,-4.5 1.3,-0.4 4.1,0.6 2.8,1.4 0.1,1.9 -1.9,0.7 -1.5,-0.9 -1.7,-0.1 -4.7,1.4 -0.1,-1.3 1.6,-1.1 z m -2.1,2.3 0.4,-1.4 -1.2,0.2 -0.1,1.4 h -1.8 l -0.4,-2.5 -0.3,2.4 -2.5,-0.1 -3.2,-3.3 -0.8,0.1 0.7,1.3 -1.4,0.9 -4.2,-0.2 -2.6,-1.2 -1.4,-0.1 -0.3,1.5 -0.6,-0.5 -0.4,-1.4 -5.9,0.2 -1.9,-1.6 1.3,-1.1 -0.6,-1.2 -2.6,0.2 0.2,-1.2 -2.5,0.2 -0.7,-1.1 -1.1,0.2 -4.6,-1.9 -0.2,-1.7 -5.6,-2.4 -2,-1.9 -1.2,-0.6 -1.3,0.8 -2.3,-0.9 -1.1,-1.9 -0.5,-1.3 -1.7,-0.9 -1.5,-0.7 -0.4,-1.4 1.1,-1.7 2.2,-0.2 0.2,-1.3 -0.8,-1.6 -1.4,-0.2 -1.3,-1.5 -1.9,-0.1 -3.4,-3.2 -0.4,-1.4 -1.5,-2.3 -3.8,-4.1 -2.5,-0.9 -1.9,-0.9 -2.1,0.8 -1.4,2.6 h 1.5 l 1.4,-1.5 3,2 1.7,0.1 0.2,3.1 3.1,4.9 -0.6,2 h -2.3 l 0.6,1 1.4,0.1 2.4,1.8 v 0.9 l -1.9,1 -3.4,-0.6 -1.4,-1.7 -1.4,0.1 -3,-1.7 -0.5,-2.3 -1.6,-0.1 -6.300003,0.8 -1,-1.1 -1,-4.5 1.6,1.1 -0.6,-2.2 1.6,-1.4 -0.8,-1.5 -0.1,1.5 h -3.4 l -0.7,-1 -1.6,-0.1 0.3,1.7 -1.9,0.1 1.9,1.3 -4.1,1.1 3.5,0.4 1.3,1.2 -0.9,1.4 -4.6,-1.7 -2.3,1.7 -0.7,-0.9 -0.6,1.4 -4,2.3 h -2.9 l -3.9,-0.5 -4.3,1.1 -2,1.9 -4.5,0.4 -1.8,-1.5 -0.8,2.4 1.8,0.7 -1.2,1.2 -7.4,3.8 -1.4,2.5 -5.4,4.1 -3.3,-2 0.6,-2.2 3.5,-2 -3.1,1.2 -0.5,-0.7 -0.9,1.3 v 2.7 l -2.1,-0.6 -2.1,1.8 2.5,-9.8 -1.2,1.3 -1.4,6 -2.2,2.5 -2.4,-0.4 -1.8,3.5 h -0.9 l -0.6,5.6 -3.4,0.5 -1.6,2.2 -1.8,1.1 -0.4,2.8 1.8,2.6 -2.9,1.6 -1.2,-2.4 0.2,3.1 0.8,0.9 -1.4,1.7 -0.7,-2.4 0.2,-1.2 -0.8,0.2 -0.6,2.3 1,1.4 -0.6,2.6 -0.5,0.4 -0.3,-1.6 -0.7,0.6 0.3,2 -1.2,0.2 0.4,0.9 -1.7,-0.1 v -1 h 1 l -0.1,-1.7 0.8,-0.6 -1.7,-0.3 -0.5,-0.8 v -1.6 l -0.5,1.3 0.6,1.8 -1.2,3.9 -1.8,0.1 -2.2,-4.2 -0.1,-1.9 1.3,-4 0.1,-1.2 -0.5,-1.2 0.7,-0.7 1.7,0.1 2.5,-2 h 1.7 l 2,-1.4 h 1.5 l 0.5,-1.6 1.4,-0.3 0.2,-1.5 1,-0.5 -0.1,-1.7 5.1,-7.4 1.8,-1.5 V 554 l 4.3,-3.5 0.7,-1.1 1.6,-2 1.9,-0.6 v -2.2 l 1.2,-1.3 1.7,-0.7 2.1,1.3 1.6,2.1 0.4,2.4 1.5,0.1 2.5,2.7 0.8,-0.3 v -2.5 l 2.4,-2.2 2.3,-2 0.5,-2 2.5,-1.3 -0.2,-2.2 2.8,-0.1 0.7,1.1 h 1.2 l 0.7,-0.7 1.2,0.8 1.8,-1.2 v -85.8 l 6.9,-4.1 1.8,-0.5 2.2,1.1 2.2,0.1 2.3,-1.6 4.3,-0.6 5.8,-3.6 5.7,-0.4 2.000003,0.5 0.2,-1.8 1.8,-0.7 -1.1,-1 0.2,-0.9 3.2,-1.1 h 2.4 l 0.4,0.4 0.9,-0.6 -0.1,-2.6 0.8,-0.9 2.5,2.9 0.8,-0.1 v -0.8 l -1.7,-0.8 v -0.8 l 1.9,-2.4 1.1,-0.1 4.5,3.1 h 3.9 l -0.4,-0.9 1.8,-0.1 5.2,3.4 h 1.8 l 0.6,-0.8 2.7,1.5 3.6,3.7 2.8,2.7 1.5,1.2 2.6,0.1 2.2,-0.4 2.3,-1.3 v 0 l 2.8,3.9 0.1,2.4 -2.6,2.4 -2.1,4.5 -0.2,5.3 -2.9,2 -3.4,0.4 -0.7,0.8 1.5,2.3 -0.7,2.7 1.7,-2.6 v -2.4 l 1.5,-0.3 -0.1,1.2 -0.7,2.1 -2.9,3.7 h 1.4 l 2.2,1.1 6.2,-2.5 0.1,-2 -1.4,-1.3 v -1.4 l 2.1,-0.5 2.3,0.2 4.8,0.2 -1.5,2.3 1.9,-1.8 8.4,1.2 0.8,1.5 -4.9,4.7 0.8,1.4 0.3,2 0.7,0.8 0.1,1.9 -4.4,3.6 -4.1,0.2 -4.6,1.9 h -2 l -0.8,-0.6 -3.8,0.1 -0.1,-0.8 -1.2,1.1 -0.1,2 2.5,-0.1 -0.1,3.3 -0.5,3.2 2.9,2.7 1.9,-0.1 2,-0.8 1,0.1 3.1,2.1 1.7,0.2 1.4,-2.8 h 3.1 l 2.2,2 0.5,1.8 3.3,1.8 5.3,4.3 0.3,3.1 -0.7,2.2 -1,1.2 -1,-0.4 -0.9,1 0.8,0.6 1.5,0.9 -1.1,1.5 2.6,1.1 -0.8,2.2 -1.7,2.3 -0.8,4.1 -4,1.5 -2.6,-0.8 -1.7,-1.1 -0.5,2.1 -0.3,4.4 1.9,1.4 v 4.4 l 0.6,0.9 h 1.7 l -1.7,1.2 -2.1,-0.1 -0.4,-1 -4.6,-0.6 -2,2.6 -1.3,-0.7 -1.3,5.1 -1,0.5 -1,-0.7 -0.1,-2.4 -0.9,-1 -0.7,1.1 -0.2,1.6 -1.6,0.4 -4.7,-1.2 -0.2,1.2 2,1.1 1.6,1.7 2.8,7 4.3,2 1.4,1.5 0.3,1.4 1,-0.6 9.3,3.3 1.8,4.1 1.3,-0.4 -0.5,-1.1 1.5,-1.4 3.5,-0.2 5.3,3.2 2.2,1.3 h 2.3 l 0.5,2.4 z"
           id="path21"
           style="fill:#ff7518;fill-opacity:0.554975;stroke:#000000">
          <title
             id="title19">Alaska</title>
        </path>
        <path
           class="az"
           d="m 249.11226,387.6 -3,-2.2 -0.8,-2.4 1,-1.6 1.8,-0.2 1.1,-1.6 -1.1,-6.9 -1.6,-0.3 -2.4,-3.2 -1.6,-7 -2.4,-3.6 -4.8,-1.7 -1.3,-1.3 0.4,-1.9 2.3,-2.5 1.2,-5.8 1.4,-1.8 1.3,-3.4 -0.9,-2.1 -1.4,-3 -0.5,-2.9 0.5,-4.9 -1,-13.6 -3.5,-0.6 -3.7,1.4 -1.2,2.7 h -2 l -2.4,-2.9 -3.4,-17.5 -46.2,8.2 -40,6 17.4,124.1 37.3,-5.4 64.2,-37.5 -0.5,-2.9 -2,-1.8 z"
           id="path25"
           style="fill:#ff7518;fill-opacity:0.554975;stroke:#000000">
          <title
             id="title23">Arizona</title>
        </path>
        <path
           class="ar"
           d="m 513.56903,367 -0.9,-2.2 -1.2,0.5 -0.7,-1 0.8,-0.7 -0.3,-1.5 1.1,-0.9 -0.6,-1 0.1,-1.5 1.1,-0.1 -0.8,-0.8 -1.3,0.8 -0.3,-1.4 0.4,-1.1 -0.1,-0.7 -2,0.6 0.4,-1.5 -1.6,-1.3 0.5,-0.9 1.1,0.1 0.6,-0.9 -0.9,-0.9 -1.6,-0.2 -0.5,-0.8 -1.4,-0.2 0.1,-0.8 0.9,-0.9 v -0.5 h -1.5 l -0.4,-0.7 1.4,-1 0.1,-0.6 11.2,0.8 -2.8,-5.1 -1.7,-1.5 v -2.2 l 1.6,-2.5 39.8,2 39.1,0.7 -4.1,24.4 0.7,39 -2.6,2.3 -2.8,-1.3 -3.2,0.8 -0.2,11.9 -52.3,-1.3 -1.2,-1.5 -0.5,-3 1.5,-2.3 0.5,-2.2 -0.9,-0.7 v -0.8 l 1.7,-1.1 0.1,-0.7 -1.6,-0.9 1.2,-1.1 -1.7,-7.1 -3.4,-1.6 v -0.8 l 1.1,-1.4 -2.9,-5.4 h -1.9 l -1.5,-1.2 0.3,-5.2 -3.1,-4.5 -1.8,-0.6 0.5,-3.1 z"
           id="path29"
           style="fill:#ff7518;fill-opacity:0.554975;stroke:#000000">
          <title
             id="title27">Arkansas</title>
        </path>
        <path
           class="ca"
           d="m 99.338278,365.6 -3.4,5.2 1.4,0.1 1.8,-1.9 z m -1.9,-9.8 -1.8,4.1 -2.6,1 -0.7,-0.6 1.3,-2.5 2.6,-2.4 z m 19.900002,-19 v 2.4 l -2,1.2 -4.4,-0.2 -1,-1 3.1,-0.2 z m 5.9,0.1 -3.3,0.5 -1.4,2.2 h 3.8 z m -47.900002,45.5 1,-3 -0.2,-3 0.4,-7.9 1.8,-4.8 1.2,-1.4 0.6,-1.5 7,-8.6 3.6,0.1 2,-1.9 -1.1,-1.8 0.7,-3.7 2.2,-1.2 3.9,-0.6 2.800002,-1.3 1.5,-1.9 4.5,-6.6 2.7,-2.2 3.7,-0.5 3.1,-2.3 4.7,-1.5 2.8,-0.3 2.5,-2.5 -0.2,-2.8 -0.8,-4.8 -1.8,-5.1 1.4,-1.6 4,-9.4 2.7,-3.7 0.4,-3 1.6,-2.3 -0.2,-2.5 2,-5 2.9,-2.7 -0.6,-7.1 -2.4,-0.8 -1.8,-3.1 0.4,-3.2 1,-0.9 h 2.5 l 2.5,-3.3 1.5,-3.5 v -7.5 l -1.2,-4.2 -0.2,-2.1 -2.5,0.2 0.1,1.6 0.8,0.7 v 2.5 l -3.7,3.2 v -4.7 l 1.4,-3.4 -0.5,-1.1 1,-1.7 -2.8,-1.5 1.9,-3 1.4,0.5 1.5,3.8 -0.5,1.3 0.8,1 0.9,-0.1 5.4,-6.1 -0.7,-5.6 1.1,-3.9 6.5,-12.8 -0.8,-10.7 -2.3,-3.6 -0.2,-6.4 5.5,-11.1 -0.3,-5.2 -6.9,-7.5 -1.7,-2.4 0.1,-1.4 -4,-9.2 -0.1,-8.4 -0.9,-2.5 -66.100002,18.6 16.4,63.1 -1.1,3.5 -70.4,105 0.9,2.1 -1.3,3.4 -1.4,1.8 -1.2,5.8 -2.3,2.5 -0.4,1.9 1.3,1.3 4.8,1.7 2.4,3.6 1.6,7 2.4,3.2 1.6,0.3 1.1,6.9 -1.1,1.6 -1.8,0.2 -1,1.6 0.8,2.4 3,2.2 2.2,-0.1 z"
           id="path33"
           style="fill:#ff7518;fill-opacity:0.554975;stroke:#000000">
          <title
             id="title31">California</title>
        </path>
        <path
           class="co"
           d="m 259.96951,323.3 16.5,-1 51.7,-4.8 52.6,-6.5 -11.5,-88.3 -44.9,5.7 -37.5,3.4 -33.1,2.4 1.4,22.1 z"
           id="path37"
           style="fill:#ff7518;fill-opacity:0.554975;stroke:#000000">
          <title
             id="title35">Colorado</title>
        </path>
        <path
           class="ct"
           d="m 844.30673,178.9 -0.4,-1.1 3.2,-12.3 0.1,-0.3 14.9,3.4 v 0.7 l 0.9,0.3 0.5,-0.7 10.5,2.4 -2.8,16.3 -1.8,1.5 3.5,3.4 -1.7,2.2 -5.4,-4.5 -1.7,-1.3 h -0.8 l -2.4,-3.1 -1.4,0.1 -2.9,-1.1 h -2.1 l -5.3,-2.7 -2.8,-0.9 -1,-1 -1.5,0.5 z"
           id="path41"
           style="fill:#ff7518;fill-opacity:0.554975;stroke:#000000">
          <title
             id="title39">Connecticut</title>
        </path>
        <path
           class="de"
           d="m 832.19205,226.6 1.6,0.3 1.5,1.1 1.2,2.1 -7.6,27.1 -10.9,-2.3 2.2,-7.6 1.1,0.5 3.3,-2.6 0.5,-1.7 1.8,-1 0.2,-3.7 2.1,-2.2 1.1,-0.8 1.2,-1.1 0.4,-3.2 -0.3,-2.1 -1,-2.2 z"
           id="path45"
           style="fill:#ff7518;fill-opacity:0.554975;stroke:#000000">
          <title
             id="title43">Delaware</title>
        </path>
        <path
           class="fl"
           d="m 684.58787,445.1 4,-0.7 1.7,-0.9 2.2,1.4 v 2.5 l -1.4,2.1 0.5,4.3 2.1,0.6 1,-1.1 0.6,-3.2 50.1,3.3 3.3,-6 48.8,5.1 0.5,2.9 -2.5,2.8 -1.7,0.7 -0.9,1.2 0.4,7.3 1.1,0.6 -0.5,0.4 -1,-0.3 -0.7,-0.8 -10.5,-2.7 -9.2,-0.5 -8.1,1.9 -8.5,5 -2.4,0.8 -2.2,2 0.1,2.7 h -2.4 l -1.9,-1 -2.5,0.1 -2,-0.8 -2.9,-2 -3.1,-2.9 -1.1,-0.4 -0.6,0.5 h -1.4 l -0.5,-0.8 0.5,-1.2 0.6,-0.6 -0.2,-0.8 -2,-1.1 -5,-0.4 -0.8,1 -1,0.1 -2.3,1 -3,1.8 -1.2,1.7 -1.1,1.2 -2.8,1.4 v 2.4 l -2.8,1.9 -1,0.1 -1.6,1.4 -0.7,1.6 -1,0.2 -0.8,2.1 -0.7,0.6 -1,-1.1 -2.9,0.1 -0.5,1.4 -1.1,0.9 v 1.3 l -2.9,2.2 -0.2,9.6 1.8,5.8 -1,1.2 0.2,3.4 0.8,1.4 -0.7,1.2 -2.3,2.3 -0.3,1.5 -0.8,1 0.4,-1.9 -1.3,-0.6 -0.8,-3.6 3,-1.2 -0.1,-0.6 -2.6,-0.4 -0.9,2.6 -1.1,0.6 -0.1,-2 -1.1,0.3 -0.6,0.8 0.1,0.7 2.9,4.2 0.2,1.1 1.7,1.9 v 1.1 l -3.7,3.8 -5.3,7.9 -1.8,2.1 v 1.8 l -2.8,4.6 -2.3,0.6 -0.7,-1.2 2.1,0.3 3,-4.5 -0.2,-1.4 -1.5,-0.8 v -1.5 l 0.6,-1.3 -0.9,-0.9 -0.4,0.9 -0.7,0.5 v 4 l 1.2,-0.6 0.8,0.9 -1.4,1.6 -1,2.6 -1.2,-0.6 -2.3,1.2 -2.1,2.2 -1.6,5.1 -3.1,4.8 -0.8,-1.3 -2.8,-0.5 -3.2,1.3 -0.3,1.7 -3.3,3.8 -0.1,1.1 -2.2,2.7 0.7,0.5 v 2.7 l -2.7,1.4 h -1.5 l -2.7,-1.8 -1.5,0.3 -1.1,0.4 -2.3,-1.7 -0.2,-0.7 -1.2,0.3 -2.4,-1.7 -1.3,-2.3 0.7,-3.2 0.2,-1.3 -1.1,-4 -0.6,-0.2 -0.6,1.6 -0.8,-1.8 0.8,-7.2 0.4,-10.5 1,-6.8 0.7,-1.7 6.6,-11.1 5.2,-9.1 2.2,-3.3 1.3,-3.6 0.2,-3.4 -0.9,-0.3 v -0.9 l 1.1,-2.2 4,-4 7.6,-9.7 5.7,-10.4 4.3,-10.7 0.6,-3.7 1.2,-1 0.5,-3.8 z m -9.2,134.5 -1.7,-0.1 0.7,-1 z m -7.3,-1.1 v -0.7 l -1.6,-0.2 -3.7,-3.3 -1.5,-0.6 -2.4,-0.9 -0.3,1.3 -1.7,0.8 2.6,1.2 h 2.4 l 3.9,2.5 z m -17.2,-7.6 3,1.4 1,1.3 -1.1,0.1 z m -3.8,-2.9 1.1,0.3 1.4,2 -1.1,-0.2 -1.5,-1.6 z m -8.3,-15.7 1.7,5.6 0.8,1 1,2.6 1.2,1.6 0.7,1.7 1.9,2.2 v 0.9 l -2.7,-2.8 -2.4,-3.5 -0.6,-2 -2.1,-4.9 z"
           id="path49"
           style="fill:#ff7518;fill-opacity:0.554975;stroke:#000000">
          <title
             id="title47">Florida</title>
        </path>
        <path
           class="ga"
           d="m 666.46137,414.1 v 1.4 l 4.2,6.2 1.2,0.2 -1.5,0.5 v 2 l 0.9,1.1 0.6,6 2.3,6.2 -0.5,2 -0.7,5.1 3.6,0.3 4,-0.7 1.7,-0.9 2.2,1.4 v 2.5 l -1.4,2.1 0.5,4.3 2.1,0.6 1,-1.1 0.6,-3.2 50.1,3.3 3.3,-6 0.7,-2.2 1.5,-1.5 0.5,-1.4 -0.6,-6.3 2.4,-5.7 -0.5,-2.6 -0.3,-3.7 -2.2,-3.8 0.2,-1.1 1.7,-1 v -3.2 l 1.8,-1.9 2.9,-6.1 12.9,-45.8 -22.9,-2.9 -21.4,-3 0.1,1.9 1.9,1 1.4,3.2 -0.2,1.3 -6.1,3.8 -2.6,-0.3 -3.1,4 -0.4,1.7 -4.2,5.1 -2.6,1.7 -1.4,0.2 -2.2,1.6 -1.1,2.2 -2,1.6 -1.8,0.5 -2.7,2.7 -0.1,1.4 -2.6,2.8 -5,2.3 -3.6,6.7 -0.3,2.7 -3.9,2.1 -2.5,4.8 -0.8,3.1 -4.2,0.4 z"
           id="path53"
           style="fill:#ff7518;fill-opacity:0.554975;stroke:#000000">
          <title
             id="title51">Georgia</title>
        </path>
        <!-- Hawaii is shown in the same scale as the contiguous United States. The Northwestern Hawaiian Islands are not shown. -->
        <path
           class="hi"
           d="m 251.57521,553.7 0.2,3.2 -1.7,1.9 -0.1,1.2 4.8,4.5 0.1,1.2 -1.9,3.2 -1.7,4.2 v 2.6 l 0.5,1.2 -0.1,3.4 -4.1,2.1 -1.1,1.1 -1.2,-1.1 -2.1,-3.6 -4.5,-2.9 -3.3,-0.5 -2.5,-1 -1.7,-1.2 -3.2,-3.5 2.8,-1.1 1.4,-1.4 -0.1,-1.7 0.5,-0.6 h 2 l -0.2,-2.5 0.7,-1.2 2.6,-2.3 4.5,-1.9 2.8,-0.2 3.3,-2.7 1.2,-0.6 z m 15.3,-17 1.1,1.5 0.1,1.7 -2.7,2.4 -1.9,0.5 -0.6,1 -0.4,3 -3.6,0.2 -5.3,-2.6 0.1,-2.5 1.4,-0.5 3.5,-2.6 1.8,-0.3 2.9,1.3 1.5,-2.7 z m 1.5,11.5 -0.9,-1.4 -2.5,-0.3 -0.6,1.8 z m 7,-8.7 -1.7,4 -3.1,-0.6 -0.3,-2 1.4,-1.5 z m 4.1,-6.7 1.1,2.4 h -5 l -4.8,1.6 -2.5,-1.6 -0.2,-1.5 4.8,0.2 z m 16,-10.6 1.9,2.1 2.9,0.6 -0.8,2.2 -2.2,2.8 -0.1,1 -2.1,-0.3 -2.3,0.1 -1.7,1.2 -3.5,-0.8 v -0.7 l 1,-0.8 0.5,-2.1 0.8,-0.3 0.5,1 1.2,-1.3 -0.2,-1.4 1.8,-3.3 1.1,-0.7 z m 31.8,-12.4 4.2,2.9 -0.2,2.3 -2.4,1.2 -1.9,1.3 -2.7,0.4 -2.6,-2.2 0.2,-1.9 -0.8,-1.7 v -1.4 l 1,-0.9 z m 10.8,4.8 0.3,1.2 1.9,0.9 0.6,1.8 -1,0.8 -1.1,-1.5 -1.9,-0.6 -0.4,-2.6 z"
           id="path57"
           style="fill:#ff7518;fill-opacity:0.554975;stroke:#000000">
          <title
             id="title55">Hawaii</title>
        </path>
        <path
           class="id"
           d="m 220.57482,183.1 24.4,-5.4 -8.5,-37.3 -2.9,-5.8 -0.4,-2.1 -0.8,-0.9 0.9,-2 2.9,-1.2 -0.2,-4.2 -4,-5.8 -2.5,-0.8 -1.6,-2.3 0.1,-1.6 -1.8,-1.6 -3.2,-5.5 -4.2,-4.8 0.5,-3.2 3.5,-3.1 1.6,-3.6 -1.1,-4.3 0.7,-4 -12.7,-56.1 -14.2,3 4.8,22 -3.7,7.4 1.6,4.8 -3.6,4.8 -1.9,0.7 -3.9,8.3 v 2.1 l -2.3,3 h -0.9 l -1.4,2.1 h -3.2 v 1.6 l 7.1,17 0.5,4.1 -1.4,0.5 -1.6,2.6 -2.8,-1.4 -3.6,-2.4 -1.9,1.9 -0.5,2.5 0.5,3.2 -2.5,9.7 -2.6,3.5 -2.3,1.4 -0.4,3 v 4.1 l -2.3,2.3 -1.6,-2.3 -6.9,1.6 -2.1,-1.2 -9,1.7 -2.8,-3.3 -1.8,-0.6 -1.2,1.8 -1.6,4.1 -0.9,0.1 8.5,54.8 47.9,-8.2 z"
           id="path61"
           style="fill:#ff7518;fill-opacity:0.554975;stroke:#000000">
          <title
             id="title59">Idaho</title>
        </path>
        <path
           class="il"
           d="m 557.39371,265.9 1,5.2 v 2 l -2.4,3.5 v 0.7 l 0.3,0.9 -0.9,1.9 0.3,2.4 1.6,1.8 1.3,4.2 3.8,5.3 0.1,7 h 1 l -0.9,1.9 v 0.9 l 2.2,2.7 -0.1,1.1 -1.5,2.2 0.1,0.9 3.7,0.6 0.6,1.2 1.2,-0.6 1,0.5 0.4,3.3 -1.7,1.8 0.4,2.4 1.5,0.3 6.9,-3 4,3.7 -0.3,1.8 h 2.8 l 1.4,-1.5 1.8,-3.8 v -1.9 l -0.8,-0.6 -0.1,-1.3 1.7,-1.9 0.9,-2.5 2.7,-4.1 4.8,-1.3 7.4,-7.1 0.4,-2.4 -2.8,-7.6 0.4,-1.9 -1.2,-1.1 v -1.3 l 2.8,-1.5 3,-0.7 3.4,1.2 1.3,-2.3 -0.6,-1.9 0.7,-2.4 8.6,-8.4 2.2,-1.5 2.5,-5.9 1.2,-5.4 -1.4,-3.7 -0.7,-0.7 -0.1,-2.3 0.7,-0.9 -1,-1.5 -1.8,-0.6 -0.9,-0.3 -1,-1.2 v -2.4 l -1.7,-2.4 -0.5,-0.5 -0.1,-3.5 0.9,-1.4 1,-0.3 1.1,-1.6 -1,-4 -3,-0.8 h -2.4 l -4.2,-1.8 -1.7,-2.2 -0.1,-2.4 -1.1,-1.3 -1.3,-3.2 0.1,-2.6 2.8,-3.5 h 1.2 l 0.9,-1.1 -0.2,-1.6 1.7,-1.7 2.5,-1.3 -0.5,-0.6 -45.9,-2.8 -0.1,4.6 -3.4,4.6 -1.2,4.1 -1.6,3.2 z"
           id="path65"
           style="fill:#ff7518;fill-opacity:0.554975;stroke:#000000">
          <title
             id="title63">Illinois</title>
        </path>
        <path
           class="in"
           d="m 658.87584,214.8 5.1,2.3 4.7,-1.4 -4.1,50.2 1,5.2 v 2 l -2.4,3.5 v 0.7 l 0.3,0.9 -0.9,1.9 0.3,2.4 1.6,1.8 1.3,4.2 3.8,5.3 0.1,7 h 1 l -0.9,1.9 -1.1,0.8 -0.6,-1 0.7,-1.7 -4.6,-0.5 -0.2,1.2 -1.1,0.2 -0.4,-0.9 0.6,-1.3 -0.3,-0.8 -1.3,0.8 -1.7,-0.4 -1.7,0.6 -3.4,2.1 -1.8,-2.8 -3.5,-2.2 -3,3.3 -1.6,-2.1 -0.3,-2.7 -3.8,-2.3 -0.2,1.3 -1.9,1.2 -3,-0.2 -1.2,-0.7 -0.1,-3.4 -2.5,-3.7 -4.6,-4.4 0.1,-1.7 -1.2,-3.8 -2.2,1 -6.7,-4.5 0.4,-1.7 1.5,-2.1 -1,-1.9 6.6,-57.2 0.1,-1.4 32.4,3.4 z"
           id="path69"
           style="fill:#ff7518;fill-opacity:0.554975;stroke:#000000">
          <title
             id="title67">Indiana</title>
        </path>
        <path
           class="ia"
           d="m 489.95087,183 -2.1,1.6 -0.6,1.1 1.6,3.3 0.1,2.5 -2,5.5 -2.7,1.5 -3.3,0.7 -1.3,2.8 0.5,0.6 -2.5,1.3 -1.7,1.7 0.2,1.6 -0.9,1.1 h -1.2 l -2.8,3.5 -0.1,2.6 1.3,3.2 1.1,1.3 0.1,2.4 1.7,2.2 4.2,1.8 h 2.4 l 3,0.8 1,4 -1.1,1.6 -1,0.3 -0.9,1.4 0.1,3.5 0.5,0.5 1.7,2.4 v 2.4 l 1,1.2 0.9,0.3 1.8,0.6 1,1.5 -0.7,0.9 0.1,2.3 0.7,0.7 1.5,-0.8 1.1,-1.1 0.6,-1.6 1.7,-1.3 14.3,0.8 27.2,1.2 25.9,-0.1 1.8,-4.4 -0.7,-2.2 0.8,-3.3 -0.2,-2.9 1.3,-0.7 0.4,-6.1 2.8,-5 0.2,-3.7 2.2,-4.3 1.3,-3.7 v -1.4 l 0.6,-1.7 v -2.3 l 0.5,-0.9 0.7,-1.7 0.3,-1.3 1.3,-1.2 -1,-4.3 -1.7,-5.1 0.7,-2 1.3,-0.4 0.4,-1.6 -1,-0.5 -0.1,-1.1 1.3,-1.5 -0.1,-1.6 -2.2,0.1 h -28.2 l -36.3,-0.9 -18.6,-0.7 z"
           id="path73"
           style="fill:#ff7518;fill-opacity:0.554975;stroke:#000000">
          <title
             id="title71">Iowa</title>
        </path>
        <path
           class="ks"
           d="m 419.76974,259.5 43.7,-1.2 36,-2 4.8,67 -67.7,2.9 -62,0.1 0.5,-48.1 3.2,-0.7 2.6,-4.7 2.5,-2.5 -0.5,-2.3 -2.7,-2.6 -0.1,-1.2 1.5,-2.1 0.9,1 2,-0.6 2.9,-3 z"
           id="path77"
           style="fill:#ff7518;fill-opacity:0.554975;stroke:#000000">
          <title
             id="title75">Kansas</title>
        </path>
        <path
           class="ky"
           d="m 624.50784,322.5 20.5,1.4 5.2,0.8 17.4,1 2.6,0.8 22.6,2 0.7,-0.6 h 3.7 l -1.2,3.2 0.6,0.9 23.3,1.5 -1,-2.7 -1.4,0.9 -0.7,-0.4 -1.2,-4.1 1,-1 -1,-2 -0.2,-0.9 1.3,-0.8 0.3,-1.8 -4,-3.7 -6.9,3 -1.5,-0.3 -0.4,-2.4 1.7,-1.8 -0.4,-3.3 -1,-0.5 -1.2,0.6 -0.6,-1.2 -3.7,-0.6 -0.1,-0.9 1.5,-2.2 0.1,-1.1 -2.2,-2.7 v -0.9 l -1.1,0.8 -0.6,-1 0.7,-1.7 -4.6,-0.5 -0.2,1.2 -1.1,0.2 -0.4,-0.9 0.6,-1.3 -0.3,-0.8 -1.3,0.8 -1.7,-0.4 -1.7,0.6 -3.4,2.1 -1.8,-2.8 -3.5,-2.2 -3,3.3 -1.6,-2.1 -0.3,-2.7 -3.8,-2.3 -0.2,1.3 -1.9,1.2 -3,-0.2 -1.2,-0.7 -0.1,-3.4 -2.5,-3.7 -4.6,-4.4 0.1,-1.7 -1.2,-3.8 -2.2,1 -6.7,-4.5 0.4,-1.7 1.5,-2.1 -1,-1.9 -1.3,0.5 -2.2,0.1 -1.9,-0.8 -2.9,1.2 -2.2,3.4 v 1 l -4.1,0.7 -2.3,-0.2 -1.9,2.1 -2.2,0.2 v -1 l -1.9,-0.8 -3,0.8 -1.2,0.8 -1.3,-0.7 h -0.9 l -0.6,-1.7 -3.4,-1.8 -0.5,0.8 -0.8,2.9 -3.5,1.4 -1.2,2.1 0.1,1.1 -0.6,1 0.6,3.6 -1.9,1.6 -0.8,1.1 -1,0.6 0.1,0.9 -4.4,5.6 h -1.4 l -1.5,1.8 -1.2,0.3 -1.4,-0.1 4.9,6.6 2.9,1 3,3 0.4,2.2 2.1,1.3 0.1,1.7 1.4,1.4 1.8,0.5 0.5,1.9 1,0.4 6.9,4.2 z m 98,11.3 0.7,-0.7 -0.2,-1 h -1.1 l -0.7,0.7 0.3,1 z"
           id="path81"
           style="fill:#ff7518;fill-opacity:0.554975;stroke:#000000">
          <title
             id="title79">Kentucky</title>
        </path>
        <path
           class="la"
           d="m 529.7876,472.8 1.2,-1.8 -0.3,-1.3 4.8,-6.8 -0.9,-4.6 -1,-1.4 -0.1,-1.4 36,2 -1.7,-11.9 -2.4,-4.8 -6,-8.4 1.8,-2.5 h -2 v -3.3 l 2.4,-2.5 -0.5,-1.7 1.2,-1 1.6,-7.1 -0.6,-1.4 52.3,1.3 -0.5,19.9 -0.7,3.4 -2.6,2.8 -0.7,5.4 -3.8,4.6 -0.8,4.3 h -1 l 0.1,7.3 3.3,6.4 -1.3,2.3 1.3,1.5 -0.7,3 0.1,4.3 2.2,3.5 0.1,0.8 1.7,1.2 -1,1.8 -1.2,1.1 -1.6,-1.3 -5.3,-0.9 -6.1,-0.1 -9.6,3.8 -8,1 -1.5,-1.4 -1.8,-0.2 -4.8,2.2 -1.6,-0.4 -1.1,-1.5 4.2,-1.8 2.2,1 1.1,-0.2 1.4,-2 -3.3,-2.2 -1.6,-0.1 v 1.7 l -1.5,-0.1 -3.4,-0.3 -0.4,2.3 -1.1,0.4 -0.6,1.9 -4.8,1 -1.7,1.6 v 0.7 h 1.2 l 1.5,1.7 -1.7,1.2 -5.4,1 -2.7,2.8 -4.4,-1 3.7,0.2 0.1,-0.6 -2.8,-0.7 -0.2,-1.8 -1.2,-0.3 V 494 l -1.1,0.1 v 1.6 l -2.5,0.1 -0.8,-1.9 -0.9,0.3 -0.2,2.5 -1.2,0.2 1.8,2 -2.6,-0.9 -2,-1.1 -2.9,-3.3 h 0.7 l 1.3,1.2 0.4,-0.1 0.5,-0.8 -0.9,-1.2 v -2.3 l -1.1,-0.8 -0.7,0.7 -1,-0.8 -1,-0.1 -0.6,1.3 0.6,1.9 h -2.4 l -5.1,1.7 -0.5,1.3 -1.6,1.4 -2.8,0.1 -1.3,0.7 -1.8,-1 -0.9,-1.7 v -1.7 h 1.4 l 1.2,-1.4 1.1,-1.1 3.2,-0.9 2.6,0.2 4.2,-2.4 v -2.3 l -1.3,-1 -2.4,0.6 3.1,-1.6 -0.2,-0.8 h -3.6 l -2.6,-3.5 2.6,-1.8 -0.8,-1.5 1.2,-0.8 h 0.8 l 2,2.1 v 2.1 l 0.6,0.7 1.1,-0.1 1.6,-1.4 h 1.3 V 477 l -0.6,-0.7 -0.8,0.7 -1.7,-1.6 -0.7,-1.6 -0.8,-0.3 z m 10.3,-2.7 -1.9,1 -0.8,1.1 -2.5,0.1 -1.5,0.8 -0.2,1.4 0.4,0.6 0.9,-1.5 1.4,1.2 0.9,1.4 2.8,0.8 1.6,0.1 3.7,-1 -0.1,-1.7 -2,-2 -1.1,-2.4 z m 4.7,1.2 v 1.1 l 1.8,2 h 1.2 v -2.2 l -1.6,-1.5 z"
           id="path85"
           style="fill:#ff7518;fill-opacity:0.554975;stroke:#000000">
          <title
             id="title83">Louisiana</title>
        </path>
        <path
           class="me"
           d="m 915.36815,128.7 -0.6,4 -3.2,2 -0.8,2.2 -2.3,1.4 -1.4,-0.3 -1,-3 0.8,-2.9 -1.6,-0.9 -0.5,-2.8 0.6,-1.3 -3.3,-1.9 2.2,-2.3 -0.9,-2.4 -1.4,-2.2 -0.5,3.2 -1.6,-2 -1.3,0.9 -1.2,-0.8 v -1.7 l -3.2,-1.3 -0.3,-2.9 -2.5,-0.2 -2.7,-3.7 v -0.7 l 0.9,-0.5 0.1,-3.3 -0.6,-1.1 -0.2,1.6 -1,-0.5 0.2,-3.2 0.9,0.3 0.1,1.2 1.2,-1.4 -0.9,-1.4 -0.6,0.1 -1.1,-0.4 -0.5,2.8 -2,-0.3 -2.9,0.7 v -1 l 1.1,-1.2 -1.3,0.1 -0.1,-2.3 -0.6,0.8 -0.3,1.9 -2.1,1.5 -0.2,-1 -0.9,-0.2 0.3,-0.8 -0.8,-0.6 0.1,-1.6 1.6,-0.2 2,0.7 -1.4,-1.6 -0.7,-0.8 -1.3,-0.2 -0.4,1.3 -1.7,1.6 -0.4,-2.1 -2.3,-1.2 0.9,-1.3 -0.1,-1.7 -1.1,0.5 h -0.7 l -1.7,-1.4 -0.4,-2.3 -2.2,0.3 -0.1,-0.7 -0.2,-1.6 -0.5,1.4 -1.5,-1 -2.3,-4.1 0.1,-2.2 1.4,-2 3,-3.2 h 1.9 l 0.8,2.2 2.9,-3 -0.3,-0.8 v -1.5 l 1.6,-4.5 0.8,-0.2 0.7,0.4 h 4.8 l 0.3,-3.6 8.1,-26 7.3,-3.7 2.9,-0.1 6.7,6.6 2.7,-1 1,-3.9 h 2.7 l 6.9,19.5 -0.7,6.2 1.7,2.4 0.4,4.6 -1.3,3.7 -0.8,0.2 v 1.6 l 1.6,4.5 1.5,1.4 1.3,2.2 0.4,7.8 2.4,-1 1.5,0.4 z m -34.6,-24.7 1,0.8 v 1.3 l -0.7,-0.8 -0.9,0.8 -0.4,-0.5 -1.1,0.2 1,-0.8 -0.4,-0.8 z m 1.7,2.6 1,1.1 -0.5,0.4 0.1,1 h -1.1 v -1.8 z m 3,-1.6 -0.9,1.3 -1,0.5 -0.3,-1 V 104 l 1.3,-0.7 0.4,1.2 z m 1,5 1.7,-1.7 -1.6,-2.4 -0.8,0.3 -0.2,1.1 -1,0.8 v 1.1 l 1,1 z"
           id="path89"
           style="fill:#ff7518;fill-opacity:0.554975;stroke:#000000">
          <title
             id="title87">Maine</title>
        </path>
        <path
           class="md"
           d="m 770.83494,269.3 v -1.7 h 0.8 v 1.8 z m -11.8,-3.9 -1.2,-2.2 -0.1,-2.5 0.6,-0.6 0.7,0.9 0.2,2.1 0.8,1.4 0.3,1.1 4.6,1.6 0.7,0.8 1.3,0.2 0.4,0.9 1.3,0.6 0.3,-2.5 -0.4,-0.7 0.8,-0.5 -0.2,-1.5 1.6,1 v -2 l -1.2,-0.3 1.9,-0.4 0.7,-0.8 -0.4,-1.3 0.8,-0.6 0.7,1.6 -0.5,0.8 0.7,0.6 1.1,0.5 2,-1 0.2,-1.2 1,-1.1 1.4,-1.7 -1.5,-0.8 1,-0.6 v -0.9 l -0.6,-1 -1.7,-0.3 1.4,-0.6 0.1,-0.7 1.3,-0.1 0.4,1.1 0.6,0.3 -0.1,-3.4 -1,-1 -0.8,0.7 -0.1,-1.6 1,-0.9 0.9,1.1 1,1.4 0.6,-1 -0.2,-2.4 -0.9,-1 -0.9,0.9 -1.2,-0.7 0.4,-1.7 1,1 0.9,-2.1 0.2,-1.7 -1.1,-2.4 -1.1,-1.4 -1.4,-0.2 0.5,-0.8 -0.5,-0.6 0.3,-0.7 -0.2,-2.1 1.5,0.4 0.8,1.1 -1,1.3 2.6,3.6 0.9,-0.4 0.7,0.9 0.6,2.2 1.8,0.5 -1.3,0.6 -1.3,1.3 0.2,0.7 -0.9,1.2 1.1,1 -0.5,0.3 0.5,1.3 v 2.1 l 0.5,1.3 -0.9,1.1 -0.7,3.4 -1.3,1.4 -1.6,1.4 -0.4,2.8 -1.6,2 -0.4,1.4 v 1 h 0.7 l 1.5,-1.2 0.4,0.2 1.2,-0.2 1.7,-1.4 1.4,-0.3 1,0.5 1.2,-0.3 0.4,0.2 1.7,-0.8 1,-1 1,-1.3 0.6,-0.2 0.8,0.7 1.6,1.3 1.1,-0.8 0.4,-2.3 -0.8,-2.1 0.3,-0.5 -0.3,-0.4 0.7,-1 -1,-0.1 -1,-0.9 -0.4,-1.8 -1.7,-2.6 2.6,-1.8 1,1.7 0.6,-0.6 h 1 l 0.6,-0.1 0.4,-0.4 -0.1,-0.5 1.7,-0.6 0.8,0.3 1.2,-0.1 0.7,-0.7 0.5,-0.2 0.2,-0.7 -0.6,-0.8 v -0.9 l 1.2,-0.2 1,-0.9 0.9,0.1 1.6,-0.3 0.9,-0.4 -0.2,-1.6 1,-0.5 0.2,-0.7 h 0.7 l 0.8,-1.2 -0.2,-1 2.6,0.4 2.2,-1.6 1.4,0.3 0.9,1.4 h 1.3 l 1.7,2.9 3.3,0.4 1.9,-1 2.6,3.8 2.2,-0.3 3.1,3.9 0.9,1.6 1.8,1.6 1.7,-11.4 -60.5,-11.8 -7.6,27.1 -10.9,-2.3 v 5.3 l 0.1,3.1 1,1.8 z m 13.4,-1.8 1.3,0.9 -0.8,1.8 -1.7,0.8 0.4,-1.6 z"
           id="path93"
           style="fill:#ff7518;fill-opacity:0.554975;stroke:#000000">
          <title
             id="title91">Maryland</title>
        </path>
        <path
           class="ma"
           d="m 847.51152,174.2 h -3.4 l -0.9,-0.6 -0.1,-1.3 1.9,-1.8 -0.4,1 1.5,1.5 h 2.3 l -0.1,0.8 z m 9,1.8 1.2,-0.6 -1,-0.8 -0.6,-2.1 -1.2,-1 -0.8,-0.2 -0.6,0.9 -1.1,0.2 -0.6,-0.6 -0.5,1.9 1.3,0.3 2.8,0.7 z m 34.9,-23.4 -18.4,-3.8 -1,-1.5 -0.3,-1.7 -1.9,-0.6 -0.5,-1.1 -1.7,-1.1 -1.3,0.3 -1.7,3.3 -1,0.4 -1.1,-1.3 -0.8,1.3 v 1.1 l 3,2.4 -0.2,0.8 0.9,1 -0.4,0.8 1.3,0.3 -0.9,1.2 0.8,0.7 -0.6,1 -0.9,-0.2 -0.3,-0.8 -1.1,0.6 h -1.8 l -2.5,2.6 -0.2,2.6 -1.8,0.1 -0.8,1.1 -0.6,2 -1,0.7 h -1.9 l -1.9,-0.1 -0.8,-0.9 -1.6,-1.2 -1.1,-0.3 1.2,-2.1 0.3,0.9 1.5,-3.6 h 0.8 l 0.4,0.9 1.2,-1 -1.3,-1.1 -1.8,0.4 -2.3,2.1 -1.3,2.7 -1.2,3.3 1,2.8 v -1.8 l 0.7,-1 3.5,2.3 0.9,-0.3 1.6,1 0.1,1.2 2.2,1.2 2,2.1 2,1.9 h 1.2 l -3.3,-3.3 -0.5,-1.9 0.5,-0.6 0.3,-1.3 0.9,-0.1 0.1,1.3 1,1.2 h 1.2 l 0.3,1.1 -0.4,1.2 1.2,1.1 1.1,-0.2 0.4,1 1.4,-3 1.3,-1.1 2.6,-1.3 0.6,-2.2 h 0.8 l 0.7,-2.6 6.5,2 0.1,-0.3 14.9,3.4 v 0.7 l 0.9,0.3 0.5,-0.7 10.5,2.4 0.7,-1 -0.5,-15 z"
           id="path97"
           style="fill:#ff7518;fill-opacity:0.554975;stroke:#000000">
          <title
             id="title95">Massachusetts</title>
        </path>
        <path
           class="mi"
           d="m 599.87539,209.8 -0.1,1.4 -21.4,-3.5 -0.5,-1.2 -3.9,-5.9 v -4.3 l -0.8,-2.1 -2.2,-0.8 -2,-7.8 -1,-0.5 -1,0.6 0.2,0.6 1.1,0.8 -0.3,0.9 -0.8,0.4 -1.9,-1.4 -0.4,-9.8 1.6,-2.3 1.2,-3.7 v -2.5 l 2.3,-4.4 v -1.8 l 1.2,-3.3 2.3,-3 2.9,-1 4.8,3 2.5,4.6 0.2,0.9 3,3.5 1.5,-0.2 2.9,-2.8 0.1,-3.4 -1.5,-1.9 -2,-0.2 -1.2,-1.7 -0.2,-4 -0.8,-0.8 -1.1,-0.1 -0.9,-1.7 0.2,-9.6 0.3,-1.3 1.2,-1.2 1.7,-1 0.1,-1.8 -0.7,-0.6 -1.8,0.8 0.3,-1.7 1.9,-2.7 0.7,-1.6 1.1,-1.1 h 2.2 l 8.1,-2.9 1.4,-1.7 3.1,-0.3 1.2,0.3 4.4,-2.3 h 1.4 l -0.5,1 2.7,-0.1 -0.1,0.6 -0.6,0.6 2.5,2.1 -0.1,1.8 -1.5,2.3 -1.5,0.2 v 0.6 l 1.5,0.5 2.1,-0.1 2.8,2.5 -0.1,2.5 -0.4,5.8 2.2,3.4 -0.8,-4.5 0.8,-0.6 0.9,5.3 1,-2.3 -0.5,-2.3 0.5,-1 -0.6,-1.3 0.6,-1.1 -1,-1 v -1.2 l 1.3,0.6 1.3,3.1 0.7,0.7 1.3,2.4 1.7,-0.2 0.1,1.2 h 1.6 l -0.2,1.5 -0.2,2 3,1.2 -0.1,1.3 -1,1.7 0.1,5.2 1.3,4.4 1.7,2.5 -1.2,1.4 -0.8,3.5 1,2.5 0.2,2.1 -1.7,3.4 -2.5,4.9 -1.2,1.9 -1.6,6.9 0.1,8.8 0.9,3.9 2,3.2 0.9,3.7 2,3 1.2,1 z m 95.8,-96.8 -3,3.8 -17,3.8 -1.4,1 -4,0.8 -0.7,0.5 -2.8,-0.2 -4.9,0.8 -1.4,1.5 1,1 -0.8,0.8 -3.8,0.7 -1.2,1.2 -0.1,4.4 1.3,2.8 -2,0.1 -1,-0.8 -0.9,0.8 1.1,3.1 -1,1.6 -1.2,0.3 -0.8,-1.8 -2.9,-4.6 -1.6,-6 -2.3,-2 0.5,-1.6 -0.5,-0.9 -1,1.6 0.3,2.2 -2.9,-2.2 -0.2,-2.3 -2.1,0.6 -0.8,-1.6 -0.7,0.6 0.7,1.5 1,0.5 1,2 -1.4,1.8 -1.1,-0.5 0.5,-0.7 -1,-1.5 -1.9,-1.7 h -0.8 l -0.2,-2.6 -2,-1.8 -7.9,-0.5 -1.9,-3.1 -3.8,-0.3 -3.8,1.2 -4.2,2.7 -0.7,-0.2 0.2,-3.5 -0.7,-0.2 -4.5,1.1 -1.5,-0.2 -2.9,-0.7 -1.7,0.4 -1.8,0.1 v -1.1 l 0.7,-0.9 1.5,-0.2 1.1,-0.8 -0.5,-1.4 0.8,-0.3 2.6,0.1 0.1,-1 -1.1,-0.8 -0.6,0.8 -0.5,-1.8 0.7,-0.7 -0.7,-0.2 1.4,-1.3 -0.3,-1.3 -0.1,-1.9 h 1.3 l 1.5,1 1.9,0.1 0.5,1.8 1.9,0.2 0.3,-1.2 2.2,0.1 1,1.2 0.7,-0.1 0.2,-0.8 2.6,0.4 0.1,-4.8 -1,-2 0.7,-0.1 1.8,1.1 h 2.2 l 3.8,2.7 6.2,0.3 4.1,0.8 1.9,1.5 1.4,1.3 2.5,1.7 0.3,0.8 0.6,-1.7 1.3,-0.6 v 0.6 l -0.7,0.7 v 1.3 l 1.5,-0.6 h 0.6 l 0.3,1.2 2,-1.9 1.3,-0.2 1.3,1.5 3.2,-0.1 0.5,-1.4 2,-1.9 1.3,-1.6 v -0.7 l 1.1,-1.4 2.6,-1.2 3.3,-0.1 1.1,-0.9 h 1.4 l 0.7,0.4 2.2,2.2 0.7,1.1 1,-0.7 -0.2,-1 -0.8,-2.1 -3.2,-5 -0.8,-0.2 -1.7,-1.9 -0.7,-1.6 -3,-0.6 -0.8,-0.6 0.1,-1 0.5,-0.5 4.5,0.2 2,0.5 2.6,1.2 1.2,1.2 1.7,2.2 1.8,1 3.3,3.4 0.4,1.6 7.4,4.6 4,0.5 1.8,0.4 2.3,3 1.8,0.7 4.4,2.3 z m -100.7,3.8 -3.8,0.1 -0.6,-0.5 0.2,-2 1.7,-1.8 1.9,0.1 0.1,0.5 -1.1,0.4 1.6,0.8 0.3,1 0.6,-0.6 0.4,0.8 z m 75.1,-41.9 2.3,0.2 2.7,1.9 7.1,5.3 -0.8,1 -1.8,0.3 -2.8,-2 1.1,-0.5 -2.3,-1.6 h -1 l -3,-1.9 0.1,-0.9 z m -41.1,62.8 v 1 l -2.1,1.6 0.2,-2.4 z m 0.7,2.8 -1.1,0.1 v 0.9 h 1 z m -21.4,-21.3 v 0.9 l -0.8,-0.2 v -0.5 z m -4.7,3.1 0.1,-1.1 1.6,-0.2 0.6,-0.4 h 0.9 l 0.4,0.3 -0.9,0.4 -1.1,1.1 z m 18,1.2 0.1,1.1 0.3,0.7 -0.2,2.2 -0.4,0.3 -0.7,0.1 -0.5,-0.9 -0.1,-1.6 0.3,-0.6 0.1,-1.1 z"
           id="path101"
           style="fill:#ff7518;fill-opacity:0.554975;stroke:#000000">
          <title
             id="title99">Michigan</title>
        </path>
        <path
           class="mn"
           d="m 575.94533,68.6 1.1,2.8 -0.8,1.4 0.3,5.1 0.5,1.1 -2.7,9.1 -1.3,2.5 -0.7,14 -1,2.7 0.4,5.8 -2.9,7.4 -0.3,5.8 0.1,2.1 0.1,2.2 0.9,2 3.1,1.9 0.3,1.2 -1.7,2.5 -0.4,1.8 -2.6,0.6 -1.5,1.9 0.2,39.5 h -28.2 l -36.3,-0.9 -18.6,-0.7 1.1,-4.5 0.2,-3 2.2,-3 2.8,-0.7 5.2,-3.6 0.6,-3.3 6.3,-3.1 0.2,-1.3 h 3.3 l 2.2,-2.6 2,-1.3 -0.7,-5.1 0.9,-1.6 -0.5,-5.4 -1,-1.8 0.3,-2.7 1.2,-1.3 1.8,-0.3 v -1.7 l -2.8,-5.8 -5.9,-3.9 0.4,-13 -0.9,0.4 -0.6,-0.5 -0.1,-1.1 -0.9,-0.6 -1.4,1.2 -0.7,-0.1 v 0 l 1.2,-2.2 -4.3,-3.1 -3.1,-3.7 -1.6,-0.8 -4.7,-5.9 -6.3,-5.8 -3.9,-2.1 -6.3,-2.7 -7.6,-4.5 0.6,-0.4 3.7,0.7 2.8,0.1 1,-1.6 1.4,-0.9 9.8,1.2 1,-2.8 1.6,-0.1 1.7,0.8 3.7,3.1 h 4.1 l 2.1,-1 0.3,-1.7 3.9,-0.8 0.6,-1.6 0.7,-1.3 1,0.9 2.6,0.1 9.9,-5.5 h 2.9 l 0.8,-0.7 3.1,1.3 0.8,1.3 3.3,0.8 1.3,-0.2 v -1.7 l 0.7,-0.9 h 5.9 l 0.4,-1.4 h 2.6 l 1.1,0.4 2.4,-1.7 -0.3,-1.4 0.6,-2.4 0.7,-1.1 0.2,-3 1,-3.1 2.1,-1.6 h 2.9 l -0.1,8 30.9,-0.4 z"
           id="path105"
           style="fill:#ff7518;fill-opacity:0.554975;stroke:#000000">
          <title
             id="title103">Minnesota</title>
        </path>
        <path
           class="ms"
           d="m 564.24983,468.6 5,0.1 2.4,-1.5 7.9,2.5 0.9,-0.7 0.5,0.2 0.1,1.6 0.6,0.1 2.6,2.7 0.7,-0.1 0.6,-0.7 1.2,-1.8 -0.3,-1.3 4.8,-6.8 -0.9,-4.6 -1,-1.4 -0.1,-1.4 36,2 -1.7,-11.9 -2.4,-4.8 -6,-8.4 1.8,-2.5 h -2 v -3.3 l 2.4,-2.5 -0.5,-1.7 1.2,-1 1.6,-7.1 -0.6,-1.4 -1.2,-1.5 -0.5,-3 1.5,-2.3 0.5,-2.2 -0.9,-0.7 v -0.8 l 1.7,-1.1 0.1,-0.7 -1.6,-0.9 1.2,-1.1 -1.7,-7.1 -3.4,-1.6 v -0.8 l 1.1,-1.4 -2.9,-5.4 h -1.9 l -1.5,-1.2 0.3,-5.2 -3.1,-4.5 -1.8,-0.6 0.5,-3.1 -38.3,-2.6 -1.3,2 1.3,67 -4.4,33.2 z"
           id="path109"
           style="fill:#ff7518;fill-opacity:0.554975;stroke:#000000">
          <title
             id="title107">Mississippi</title>
        </path>
        <path
           class="mo"
           d="m 529.75356,248.9 1.1,-1.1 0.6,-1.6 1.7,-1.3 14.3,0.8 27.2,1.2 25.9,-0.1 -1.3,1.3 0.3,1.4 -2.1,3.7 -3.9,6.3 -2.9,3 -2,0.6 -0.9,-1 -1.5,2.1 0.1,1.2 2.7,2.6 0.5,2.3 -2.5,2.5 -2.6,4.7 -3.2,0.7 -0.5,48.1 -0.2,10.8 -39.1,-0.7 -39.8,-2 -1.6,2.5 v 2.2 l 1.7,1.5 2.8,5.1 -11.2,-0.8 -1,-2 -1.2,-0.5 v -0.7 l 1.2,-1.1 0.6,-1 -1.7,0.2 -0.8,-0.7 1.4,-1.5 -1.4,-0.5 -0.1,-1 0.6,-1 v -1.3 l 0.7,-0.7 -0.2,-1 h -1.1 l -0.7,0.7 0.3,1 -0.8,0.7 -0.8,-1 -1,-2.7 -1.4,0.9 -0.7,-0.4 -1.2,-4.1 1,-1 -1,-2 -0.2,-0.9 1.3,-0.8 h 2.8 l 1.4,-1.5 1.8,-3.8 v -1.9 l -0.8,-0.6 -0.1,-1.3 1.7,-1.9 0.9,-2.5 2.7,-4.1 4.8,-1.3 7.4,-7.1 0.4,-2.4 -2.8,-7.6 0.4,-1.9 -1.2,-1.1 v -1.3 l 2.8,-1.5 3,-0.7 3.4,1.2 1.3,-2.3 -0.6,-1.9 0.7,-2.4 8.6,-8.4 2.2,-1.5 2.5,-5.9 1.2,-5.4 -1.4,-3.7 z"
           id="path113"
           style="fill:#ff7518;fill-opacity:0.554975;stroke:#000000">
          <title
             id="title111">Missouri</title>
        </path>
        <path
           class="mt"
           d="m 299.51022,130.5 -57.3,7.9 -51,5.3 -2,-20.7 -5.2,-66.7 53.5,-5.6 54.3,-7.7 65.9,-12.5 4.8,22 -3.7,7.4 1.6,4.8 -3.6,4.8 -1.9,0.7 -3.9,8.3 v 2.1 l -2.3,3 h -0.9 l -1.4,2.1 h -3.2 v 1.6 l 7.1,17 0.5,4.1 -1.4,0.5 -1.6,2.6 -2.8,-1.4 -3.6,-2.4 -1.9,1.9 -0.5,2.5 0.5,3.2 -2.5,9.7 -2.6,3.5 -2.3,1.4 -0.4,3 v 4.1 l -2.3,2.3 -1.6,-2.3 -6.9,1.6 -2.1,-1.2 -9,1.7 -2.8,-3.3 -1.8,-0.6 -1.2,1.8 -1.6,4.1 -0.9,0.1 z"
           id="path117"
           style="fill:#ff7518;fill-opacity:0.554975;stroke:#000000">
          <title
             id="title115">Montana</title>
        </path>
        <path
           class="ne"
           d="m 437.05714,191.1 -38,1.6 -3.4,3.2 -1.7,0.2 -2.1,2 -1.8,-0.1 -1.8,-2 -1.5,0.6 -1,-0.7 -0.7,0.5 -0.9,-0.4 -0.7,0.4 -0.9,-0.4 -1,0.5 -1.4,-0.6 -2,0.6 -0.6,1.1 -6.1,2.2 -1.2,1.3 -0.9,2.6 -1.8,0.7 -1.5,-0.2 -0.5,0.9 v 2.3 l -0.6,1.7 v 1.4 l -1.3,3.7 -2.2,4.3 -0.2,3.7 -2.8,5 -0.4,6.1 -1.3,0.7 0.2,2.9 -0.8,3.3 0.7,2.2 -1.8,4.4 -1.3,1.3 0.3,1.4 -2.1,3.7 -3.9,6.3 h 32.4 l 43.7,-1.2 36,-2 -1.4,-22.1 33.1,-2.4 -3.7,-44.2 z"
           id="path121"
           style="fill:#ff7518;fill-opacity:0.554975;stroke:#000000">
          <title
             id="title119">Nebraska</title>
        </path>
        <path
           class="nv"
           d="m 98.564734,296.8 3.399996,17.5 2.4,2.9 h 2 l 1.2,-2.7 3.7,-1.4 3.5,0.6 1,13.6 -0.5,4.9 0.5,2.9 1.4,3 70.4,-105 1.1,-3.5 -16.4,-63.1 -47,11.2 -24.4,5.4 -23.299996,4.7 z"
           id="path125"
           style="fill:#ff7518;fill-opacity:0.554975;stroke:#000000">
          <title
             id="title123">Nevada</title>
        </path>
        <path
           class="nh"
           d="m 872.22575,93.6 1.3,0.1 1,-1.1 1.9,1.4 0.5,6.1 -1.2,2.3 1.1,3.5 -2.1,2.8 0.4,1.7 -0.1,1.3 1.1,2.1 1.4,0.4 0.6,1.3 2.1,1 0.7,1.5 -1.4,3.4 0.5,2.5 -0.5,1.5 1,1.9 -0.4,1.9 1.3,1.9 -0.2,2.2 0.7,1.1 -0.7,4.5 -0.7,1.5 0.5,2.6 -0.9,1.8 0.2,2.5 0.5,1.3 0.1,1.4 -2.1,2.6 -18.4,-3.8 -1,-1.5 -0.3,-1.7 -1.9,-0.6 -0.5,-1.1 -1.7,-1.1 -1.3,0.3 -0.8,-4.8 2.3,-1.4 0.8,-2.2 3.2,-2 0.6,-4 11.9,-36.8 z"
           id="path129"
           style="fill:#ff7518;fill-opacity:0.554975;stroke:#000000">
          <title
             id="title127">New Hampshire</title>
        </path>
        <path
           class="nj"
           d="m 825.58114,195.4 14.6,-4.9 1.8,2.5 -0.1,2.2 3,5.4 -1.5,1.8 0.7,2 1,1 -0.5,3.6 -2.7,0.9 -1,2.8 -2.1,1.1 -4.2,3.2 3.3,2.6 1.6,2.3 1.8,3 1.6,0.6 1.4,1.7 1,2.2 0.3,2.1 -0.8,0.9 -0.4,2.3 -1.2,0.6 -2.4,1.5 -1.8,0.8 -1.6,0.8 -0.1,1.1 -0.8,0.1 -1.1,-1.2 -0.8,0.4 -2.1,0.2 0.2,2.9 -0.2,2.5 -1.8,-0.7 -1.5,-3.9 -1.6,-4.8 -2.9,-2.8 -0.6,-3.5 0.6,-1.2 -1.7,-2.9 v -1.2 l 0.7,-1.1 -1.2,-2.7 0.3,-3.6 0.6,-8.2 1.2,-1.4 v 1.4 l -0.5,0.6 h 1.1 l 0.6,-0.4 1.3,-0.2 0.9,0.6 1.2,-1.6 -0.7,-1.7 v -1 l -1.7,-0.7 -0.8,-2.1 z"
           id="path133"
           style="fill:#ff7518;fill-opacity:0.554975;stroke:#000000">
          <title
             id="title131">New Jersey</title>
        </path>
        <path
           class="nm"
           d="m 236.96187,332.9 h 0.8 l 7.9,99.3 31.8,-2.6 34.4,-3.6 0.3,3 -2,2.2 30.8,-4.1 1.4,10.2 15.7,-2.2 -17.4,-124.1 -52.6,6.5 -51.7,4.8 z"
           id="path137"
           style="fill:#ff7518;fill-opacity:0.554975;stroke:#000000">
          <title
             id="title135">New Mexico</title>
        </path>
        <path
           class="ny"
           d="m 745.98802,181.6 1.3,0.1 0.5,1 z m 30.6,22.7 -0.7,0.6 -1.3,-0.3 -1.1,0.3 -0.9,-1.3 h -1.9 l -2.4,-0.9 -5.1,-2.1 0.5,-0.5 1.9,0.8 2,0.9 -0.2,-0.8 -2.6,-1.1 -0.8,-1 -1.2,0.1 -4.1,-2.3 v 0.7 l 4.2,3 -4.5,-2.8 -1.7,-2.2 -1.5,-0.1 -4.5,-3.1 -3.2,-3.1 -3,-2.3 -1,-1.2 1.7,-0.1 1,1.2 0.2,0.7 0.9,0.7 0.8,-1.1 1.7,1 0.1,0.9 0.9,-0.2 -0.5,-0.9 1.2,-0.7 0.6,0.9 -0.9,0.3 -0.2,0.5 0.3,0.5 1.4,2.6 h 1.9 l -0.9,-1.8 -0.9,-0.6 -0.3,-1.7 -1.4,-1.6 -0.9,-0.8 -1.5,-0.7 1.2,-0.2 0.7,0.9 h 0.7 l 1.1,0.8 0.2,1 2.2,2.1 0.4,0.9 1.4,0.9 7.7,1.9 -0.2,0.9 0.9,0.7 2,0.3 1,-0.6 0.2,1.1 1.1,-0.4 -0.1,1 1.2,-0.1 1.2,0.5 0.2,1.1 h 1 l -0.2,1 h 0.7 l -0.2,1 1.8,0.4 1.5,2.3 z m 0.8,-0.4 1.6,0.4 v 1 l 0.7,1.6 -0.6,0.7 -2.4,-2.3 0.1,-0.9 z m 10.1,-95.2 0.6,1.9 -1.4,0.9 0.4,1.5 -0.5,3.2 -2.2,2.3 0.4,2.2 -0.6,2 0.4,1 0.3,3.8 -3.1,6.7 0.8,1.8 -0.9,2.2 -0.9,-1.6 -1.9,1.5 -3,14.2 0.5,2 -1.1,1 0.5,15 -0.7,1 -2.8,16.3 -1.8,1.5 3.5,3.4 -1.7,2.2 1.3,3.3 1.5,1.7 1.5,2.3 0.2,-0.7 -0.4,-5.9 14.6,-4.9 1.6,-1.1 1.9,0.3 3,-2.2 3,-5.8 h 2 l 0.4,-1.5 1.7,-1.1 70.5,13.9 0.8,-6 -4.3,-3.9 -0.6,-1.7 -3.9,-2.5 -0.6,-2.4 -2.3,-2 -0.8,-1.1 1.7,-3.3 1.7,-0.5 1.8,-3 0.2,-3.2 -7.6,-3.9 -8.2,-1.6 h -4.4 l -3.2,1.6 -0.9,-0.1 -1.8,-1.6 -3.4,-0.7 h -3 l -2.6,-1.3 -2.5,-2.6 -2.4,-3.1 -1.9,-0.4 -1.1,-0.5 -0.4,-3.2 1.4,-2.7 1.2,-0.7 -2,-1.3 0.1,-1.8 h 1.5 l 2.3,-1.4 0.1,-3.1 -6.2,-6.1 -0.7,-2.4 -3.7,-6.3 -5.9,-6.4 -2.1,-1.7 -2.5,0.1 -20.6,-5.2 z"
           id="path141"
           style="fill:#ff7518;fill-opacity:0.554975;stroke:#000000">
          <title
             id="title139">New York</title>
        </path>
        <path
           class="nc"
           d="m 704.6094,300.1 29.1,6.1 39.4,7.3 29.4,3.5 v 5.2 l 1.5,-0.1 1.4,1.2 2.4,5.2 2.6,-1.1 3.5,2.5 0.7,2.1 1.5,1.2 0.8,-0.8 0.1,-1.5 0.8,-0.2 4,3.3 0.6,3.4 4.7,2.4 0.5,1.2 3.2,2.6 3.6,0.5 4.6,3 0.8,4.1 1.3,0.9 1.5,-0.1 1.4,1.3 0.1,4.9 -21.4,-3 -4.4,-1.9 -1.3,-0.1 -7.3,-4.3 -23.2,-2.2 -0.4,0.5 0.2,1.4 -0.7,0.3 -1.2,-1.5 -3.3,3 -0.1,2.6 -19.7,-2.8 -24.5,17.1 -4,-2.2 -3,-0.7 h -1.7 l -1.1,1.1 -0.8,-2 -0.6,-5 -1.7,-3.9 -5.4,-6.1 -4.1,-3.5 -5.4,-2.3 -2.5,-0.4 -1.3,0.4 -0.7,1.1 -3.3,-6.6 -3.3,-5.3 0.7,-0.3 4.4,6.8 0.5,-0.8 -2,-2.2 0.4,-1.5 2,-0.5 -1,1.3 1.2,0.1 1.2,-1.8 1.2,2 1.6,0.2 -1,-2.7 -0.7,-1.7 0.2,-2.9 2.2,-0.1 -0.9,-0.9 -1.1,0.3 -2.7,0.1 -0.8,-0.5 h -2.3 l -2,-1.9 -0.2,-3.2 -1.3,-1.4 -1.2,-0.2 -1.3,-1 0.5,-3.7 2.2,-3.8 2.7,-0.2 0.9,1.6 0.5,-1 2.7,0.2 1.2,0.4 1.9,1.2 0.3,-0.4 h 0.9 l 1.8,1.2 2.6,0.5 v -1.3 l -0.8,-1 -1,0.7 h -1 l -1.7,-2.1 -3.7,-1.7 -2,-2.2 h -2.4 l -0.8,1.3 -1.7,0.8 0.5,-1.5 0.3,-1.6 2.8,-3.1 0.3,-1.4 0.4,1 0.9,-1.3 z m -7,31 -2.7,-2.5 -4.6,-3.3 v -3.7 l 0.4,-3.1 1.7,-4.2 -1.5,1.4 -1,3.2 -0.4,7.6 1.7,0.4 3.1,2.4 3.2,3.2 z m -1.9,-19.3 0.9,-0.2 v 1 l -2.5,2.2 0.2,-1.4 z m -2.9,2.1 1.4,-2.8 2.2,-3.4 2.4,-3 2.2,-4.3 0.8,-0.7 -2.2,4.3 -0.3,1.3 -3.4,5.5 -1.8,2.1 z"
           id="path145"
           style="fill:#ff7518;fill-opacity:0.554975;stroke:#000000">
          <title
             id="title143">North Carolina</title>
        </path>
        <path
           class="nd"
           d="m 364.66311,68.6 1.1,2.8 -0.8,1.4 0.3,5.1 0.5,1.1 -2.7,9.1 -1.3,2.5 -0.7,14 -1,2.7 0.4,5.8 -2.9,7.4 -0.3,5.8 0.1,2.1 29.5,-0.4 46,-2.1 39.2,-2.9 -5.2,-66.7 -44.5,3.4 -55.3,1.6 z"
           id="path149"
           style="fill:#ff7518;fill-opacity:0.554975;stroke:#000000">
          <title
             id="title147">North Dakota</title>
        </path>
        <path
           class="oh"
           d="m 714.4994,208.8 -1.9,-0.4 -3,1.3 -2.1,0.6 -0.7,0.9 h -1 l -1,-1.5 -1.3,0.8 h -1.5 l 0.1,1 3.1,0.5 2,1.1 -1.9,0.8 -1.6,-1.5 -2.4,-0.4 -2.2,1.5 -1.5,-0.1 -2.5,-1.7 -3.6,-2.1 -5.2,-0.3 -4.9,-5.9 -3.8,-3.1 -9.3,-5.1 -4.9,29.9 2.2,1.2 -1.4,2.1 0.1,2.2 -0.6,2 1.1,3.4 0.1,5.4 1,3.6 -0.5,1.1 0.4,2.2 1.1,0.5 2,3.3 1.8,2 h 0.6 l 1.8,1.7 1.3,-1.2 1.5,1.8 0.3,1.2 h 1.3 l 1.3,2.2 -0.1,2.1 1,0.5 -1.4,1.1 v 1.9 l 1,0.2 0.7,0.8 1,0.5 0.6,-2.1 1.6,-0.5 1,2.3 0.3,2.2 1.1,1.3 -1.3,3.6 1.5,0.8 0.4,3.5 h 1.5 l 3.2,1.4 1.2,-2.1 3.5,-1.4 0.8,-2.9 0.5,-0.8 3.4,1.8 0.6,1.7 h 0.9 l 1.3,0.7 1.2,-0.8 3,-0.8 1.9,0.8 v 1 l 2.2,-0.2 1.9,-2.1 2.3,0.2 4.1,-0.7 v -1 l 2.2,-3.4 2.9,-1.2 1.9,0.8 2.2,-0.1 1.3,-0.5 6.6,-57.2 -21.4,-3.5 z"
           id="path153"
           style="fill:#ff7518;fill-opacity:0.554975;stroke:#000000">
          <title
             id="title151">Ohio</title>
        </path>
        <path
           class="ok"
           d="m 364.57341,398.6 4.6,-3.8 2.2,-0.9 0.5,1.6 5.1,0.3 0.6,-1.5 5,2.5 1.6,-0.7 3.7,0.3 0.6,1.7 3.6,0.9 1.3,-1.2 1.2,0.1 2,-1.8 2.1,0.7 2,-0.5 1.8,-2 2.5,4.2 1.2,0.8 1,-1.8 -0.3,-2 1.2,-0.7 2.3,2.5 1.7,-1.2 0.1,-1.5 1.3,0.5 2.6,-1.7 3,2.6 2.3,-1.1 -0.7,-2.1 2.3,0.1 1.9,-3 3.5,-1.1 2,2.3 2.3,-2.2 1.4,0.4 2,0.1 3.5,-1.9 2.3,0.1 1.2,-0.7 0.5,-2.9 2.3,-1.7 1.1,1.5 1.4,-1 1.2,-0.4 1.1,1 1.5,-0.3 2.5,-3 2.7,-1.3 -1.4,-42.7 52.6,-3.2 -0.6,-10.6 -16.5,1 -67.7,2.9 -62,0.1 -0.2,10.8 -4.1,24.4 0.7,39 z"
           id="path157"
           style="fill:#ff7518;fill-opacity:0.554975;stroke:#000000">
          <title
             id="title155">Oklahoma</title>
        </path>
        <path
           class="or"
           d="m 99.728362,166.5 -47,11.2 -8.5,-37.3 -2.9,-5.8 -0.4,-2.1 -0.8,-0.9 0.9,-2 2.9,-1.2 -0.2,-4.2 -4,-5.8 -2.5,-0.8 -1.6,-2.3 0.1,-1.6 -1.8,-1.6 -3.2,-5.5 -4.2,-4.8 0.5,-3.2 3.5,-3.1 1.6,-3.6 30.3,-7.3 2.8,1 5.4,-0.9 1.8,-0.9 1.5,1.2 3.3,-0.4 4.5,0.5 0.9,0.7 4.2,-0.4 0.8,-1.6 1.2,-0.2 4.4,1.3 1.6,-1.1 2.2,0.8 0.2,-1.8 2.3,-1.2 1.499998,-0.2 1,-1.1 3,0.3 1.2,-0.8 h 1.2 l 1.2,0.9 5.5,0.7 6.6,-4.2 -1.1,-5.6 0.4,-4.1 3.2,-3.7 3.7,0.1 0.4,-1.1 -0.4,-1.2 0.7,-0.8 1,0.1 1.1,1.3 1.5,-0.2 0.5,-1.1 1,-0.1 0.7,0.6 2,-1.9 v 4.3 l 1.3,1.3 1.1,3.5 0.1,2.3 4.5,12.3 13.2,31.3 3.2,4.6 1.6,-0.1 -0.1,2.1 5.2,7.1 0.3,3.3 -1,1.3 -0.1,2.4 1.2,1.1 1.2,3 -0.1,5.7 -1.2,2.9 z"
           id="path161"
           style="fill:#ff7518;fill-opacity:0.554975;stroke:#000000">
          <title
             id="title159">Oregon</title>
        </path>
        <path
           class="pa"
           d="m 739.36411,189.4 1.9,0.3 3,-2.2 3,-5.8 h 2 l 0.4,-1.5 1.7,-1.1 70.5,13.9 0.8,-6 4.2,3.4 0.9,0.1 2.7,3 3.3,1.7 -4.9,29.9 -3.2,19.7 -17.4,-2.9 -60.5,-11.8 -1.2,-2.1 -1.5,-1.1 -1.6,-0.3 -1.6,0.6 -1.4,-1.7 -1.6,-0.6 -1.8,-3 -1.6,-2.3 -3.3,-2.6 4.2,-3.2 2.1,-1.1 1,-2.8 2.7,-0.9 0.5,-3.6 -1,-1 -0.7,-2 1.5,-1.8 -3,-5.4 0.1,-2.2 -1.8,-2.5 z"
           id="path165"
           style="fill:#ff7518;fill-opacity:0.554975;stroke:#000000">
          <title
             id="title163">Pennsylvania</title>
        </path>
        <path
           class="ri"
           d="m 872.10527,170.7 1.3,-1.1 2.6,-1.3 0.6,-2.2 h 0.8 l 0.7,-2.6 6.5,2 -3.2,12.3 0.4,1.1 -0.4,1.8 -5.6,-3.6 -0.1,-3 0.8,-0.8 -0.4,-0.6 0.1,-1.3 0.9,-0.7 -1.2,-0.4 0.9,-1.6 -1.8,0.7 -0.3,1.4 -0.7,1.2 1.4,-0.8 -1.1,1.7 0.3,1.2 0.6,-1.1 v 2.5 l -0.6,-0.9 -0.4,0.9 -1.3,-1.5 0.2,-2.5 -1.4,3.1 -1,-0.9 z m 4.7,12.2 h -0.9 l -0.5,-0.6 0.8,-1.3 0.7,0.7 z"
           id="path169"
           style="fill:#ff7518;fill-opacity:0.554975;stroke:#000000">
          <title
             id="title167">Rhode Island</title>
        </path>
        <path
           class="sc"
           d="m 732.45937,350.2 19.7,2.8 0.1,-2.6 3.3,-3 1.2,1.5 0.7,-0.3 -0.2,-1.4 0.4,-0.5 23.2,2.2 7.3,4.3 1.3,0.1 4.4,1.9 0.1,1.9 1.9,1 1.4,3.2 -0.2,1.3 -6.1,3.8 -2.6,-0.3 -3.1,4 -0.4,1.7 -4.2,5.1 -2.6,1.7 -1.4,0.2 -2.2,1.6 -1.1,2.2 -2,1.6 -1.8,0.5 -2.7,2.7 -0.1,1.4 -2.6,2.8 -5,2.3 -3.6,6.7 -0.3,2.7 -3.9,2.1 -2.5,4.8 -0.8,3.1 -4.2,0.4 -0.8,-1.5 h -0.6 l -1.8,-1.5 -0.5,-2 -3.2,-2.1 -0.3,-2.4 1.2,-0.9 -0.8,-0.7 -0.8,0.4 -1.3,-0.4 -1.8,-2.1 -3.8,-1.8 -1.6,-2.4 -0.1,-0.7 -4.8,-4.4 0.1,-0.5 0.9,-0.8 -1.1,-1.5 h -0.8 l -0.4,0.5 -0.7,-0.8 h -1.3 l -0.6,-1.5 -2.3,-2.1 0.3,-5.4 -0.8,-2.3 -3.6,-6.2 -2.4,-2.2 -2.2,-1.1 z"
           id="path173"
           style="fill:#ff7518;fill-opacity:0.554975;stroke:#000000">
          <title
             id="title171">South Carolina</title>
        </path>
        <path
           class="sd"
           d="m 428.78517,125.9 -46,2.1 -29.5,0.4 0.1,2.2 0.9,2 3.1,1.9 0.3,1.2 -1.7,2.5 -0.4,1.8 -2.6,0.6 -1.5,1.9 0.2,39.5 2.2,-0.1 0.1,1.6 -1.3,1.5 0.1,1.1 1,0.5 -0.4,1.6 -1.3,0.4 -0.7,2 1.7,5.1 1,4.3 -1.3,1.2 -0.3,1.3 -0.7,1.7 1.5,0.2 1.8,-0.7 0.9,-2.6 1.2,-1.3 6.1,-2.2 0.6,-1.1 2,-0.6 1.4,0.6 1,-0.5 0.9,0.4 0.7,-0.4 0.9,0.4 0.7,-0.5 1,0.7 1.5,-0.6 1.8,2 1.8,0.1 2.1,-2 1.7,-0.2 3.4,-3.2 38,-1.6 51.1,-3.5 -3.9,-43.9 -2,-20.7 z"
           id="path177"
           style="fill:#ff7518;fill-opacity:0.554975;stroke:#000000">
          <title
             id="title175">South Dakota</title>
        </path>
        <path
           class="tn"
           d="m 693.69623,365.1 -45.7,-4 -22.9,-2.9 -0.1,-4.9 -1.4,-1.3 -1.5,0.1 -1.3,-0.9 -0.8,-4.1 -4.6,-3 -3.6,-0.5 -3.2,-2.6 -0.5,-1.2 -4.7,-2.4 -0.6,-3.4 -4,-3.3 -0.8,0.2 -0.1,1.5 -0.8,0.8 -1.5,-1.2 -0.7,-2.1 -3.5,-2.5 -2.6,1.1 -2.4,-5.2 -1.4,-1.2 -1.5,0.1 V 317 l -0.3,-0.7 4.6,0.5 0.2,1 28.9,3.3 5.6,1.4 20.5,1.4 5.2,0.8 17.4,1 2.6,0.8 22.6,2 0.7,-0.6 h 3.7 l -1.2,3.2 0.6,0.9 23.3,1.5 0.8,1 0.8,-0.7 h 1 v 1.3 l -0.6,1 0.1,1 1.4,0.5 -1.4,1.5 0.8,0.7 1.7,-0.2 -0.6,1 -1.2,1.1 v 0.7 l 1.2,0.5 1,2 -0.1,0.6 -1.4,1 0.4,0.7 h 1.5 v 0.5 l -0.9,0.9 -0.1,0.8 1.4,0.2 0.5,0.8 1.6,0.2 0.9,0.9 -0.6,0.9 -1.1,-0.1 -0.5,0.9 1.6,1.3 -0.4,1.5 2,-0.6 0.1,0.7 -0.4,1.1 0.3,1.4 1.3,-0.8 0.8,0.8 -1.1,0.1 -0.1,1.5 0.6,1 -1.1,0.9 0.3,1.5 -0.8,0.7 0.7,1 1.2,-0.5 0.9,2.2 1.6,0.7 z"
           id="path181"
           style="fill:#ff7518;fill-opacity:0.554975;stroke:#000000">
          <title
             id="title179">Tennessee</title>
        </path>
        <path
           class="tx"
           d="m 526.78723,429 -0.3,-3 -34.4,3.6 -31.8,2.6 -7.9,-99.3 h -0.8 l -52.6,3.2 1.4,42.7 -2.7,1.3 -2.5,3 -1.5,0.3 -1.1,-1 -1.2,0.4 -1.4,1 -1.1,-1.5 -2.3,1.7 -0.5,2.9 -1.2,0.7 -2.3,-0.1 -3.5,1.9 -2,-0.1 -1.4,-0.4 -2.3,2.2 -2,-2.3 -3.5,1.1 -1.9,3 -2.3,-0.1 0.7,2.1 -2.3,1.1 -3,-2.6 -2.6,1.7 -1.3,-0.5 -0.1,1.5 -1.7,1.2 -2.3,-2.5 -1.2,0.7 0.3,2 -1,1.8 -1.2,-0.8 -2.5,-4.2 -1.8,2 -2,0.5 -2.1,-0.7 -2,1.8 -1.2,-0.1 -1.3,1.2 -3.6,-0.9 -0.6,-1.7 -3.7,-0.3 -1.6,0.7 -5,-2.5 -0.6,1.5 -5.1,-0.3 -0.5,-1.6 -2.2,0.9 -4.6,3.8 -6.4,1.9 -2.6,2.3 -2.8,-1.3 -3.2,0.8 -0.2,11.9 -0.5,19.9 -0.7,3.4 -2.6,2.8 -0.7,5.4 -3.8,4.6 -0.8,4.3 h -1 l 0.1,7.3 3.3,6.4 -1.3,2.3 1.3,1.5 -0.7,3 0.1,4.3 2.2,3.5 0.1,0.8 1.7,1.2 -1,1.8 -1.2,1.1 3.5,0.3 8.4,3.9 3.5,1.4 1.8,1.8 0.7,-0.5 -2.1,-2.3 -1.8,-0.7 -0.5,-0.9 2.9,-0.1 0.7,-0.8 -0.8,-2 0.9,-1.8 h 0.6 l 2.4,1.3 1.9,2.6 -0.3,1.7 -3.3,3.4 -1.3,0.3 v 0.8 l 2.3,1.6 4.9,4 4,3.9 3.2,1.4 5,3 3.7,2 4.5,1.9 4.1,2.5 -3.2,-3 v -1.1 l -0.6,-0.8 0.2,-1.8 1.5,-0.1 1.1,1.5 2.6,1.3 1.8,-1.2 0.3,-1.7 h 1.5 l -0.8,2.2 -1.4,0.7 -1.2,0.9 -1.8,1.6 0.7,0.8 3.9,1.7 1.7,0.1 1.2,-1.2 0.5,2.1 -0.5,1.1 2.7,2 1.5,0.2 0.8,0.7 0.4,1.7 1.8,3.3 1.6,0.7 1.6,-0.6 1.8,1.1 -0.3,1.4 -1.3,0.8 -1,0.8 1.8,3.5 0.3,2.8 1,1.7 1.4,1 2.9,0.4 -1.8,0.6 -1.9,-0.6 0.4,3.2 1.1,-0.1 -0.2,1.2 -0.3,1.4 1.3,0.9 v 3.1 l -1.6,1.4 -0.6,3.1 0.4,2.2 1,0.4 -0.4,1.5 -1.1,0.4 -0.8,1.7 v 2.6 l -1.1,2.1 -2.2,2.6 0.1,0.7 2.2,-0.2 1.6,1.4 -0.2,1.4 0.9,-0.3 1.4,-0.2 3.4,-3.7 2.3,-0.6 h 7.1 l 2.8,-0.8 3.6,-3 1.7,-1 2.1,0.1 3.2,-2.6 5.4,-1.6 v -1.3 l 1.4,-1.8 0.9,-4.7 1.1,-1.7 1.7,-1.4 v -1.6 l 1.4,-0.6 -0.6,-2.6 0.3,-2.2 1.3,-1.4 -0.7,-3 0.8,-3.2 1.7,-1.4 h 1.1 l 4,-3.5 -0.1,-1.9 0.8,-1.7 0.8,-0.2 0.9,-2.4 2,-1.6 2.9,-2.5 0.2,-2.1 1,-0.7 -0.2,-1.6 -0.5,-0.7 1.4,-1.5 -0.1,-0.7 2,-2.2 -0.1,-2.1 2.7,-4.9 0.1,-1.7 1.8,-3.1 5.1,-4.8 v -1.1 l 3.3,-1.7 0.1,-1.8 1.2,-0.4 v -0.7 l 0.8,-0.2 2.1,-2.8 h 0.8 l 0.7,-0.6 1.3,1.1 h 2.2 l 2.6,-1.1 h 4.6 l 4.2,-2.1 1.3,1.9 2.2,-0.6 3.3,1.2 1.7,2.8 2,3.2 1.1,4.4 1.4,1.2 1.1,0.1 0.9,1.6 1.3,0.6 0.1,1.8 2.9,0.1 1.8,-1.5 h 1 l 2,-2.9 3.6,-0.5 1.7,-2.3 1.3,-0.2 2.1,-0.8 3.4,-3.4 -0.2,-0.8 1.6,-1.2 1,-0.1 3.4,-3.1 0.1,-2 2.3,-4 -0.2,-1.6 0.7,-1.3 -0.8,-1.5 0.1,-2.4 2.6,-4.1 0.6,-4.2 1.6,-1.6 v -1 l 1.2,-0.2 0.7,-1.1 2.4,-1.7 0.9,-0.1 1.9,-1.6 v -1.1 l 2.9,-1.8 0.6,-2.1 2.6,-2.3 3.2,-4.4 3,-1.3 2.1,-1.8 -0.2,-1.2 1.3,-1.4 1.7,-3.7 2.4,-1 z m -174.9,138.3 -0.8,0.1 0.6,-4.8 3.5,-12.3 0.2,-8.1 -4.9,-10.5 -6.1,-8.2 -7.2,-5.1 v -0.7 h 0.8 l 2.6,1 3.6,2.3 0.7,1.5 8.2,11.6 2.8,7.9 v 8.8 l -3.6,12 z"
           id="path185"
           style="fill:#ff7518;fill-opacity:0.554975;stroke:#000000">
          <title
             id="title183">Texas</title>
        </path>
        <path
           class="ut"
           d="m 199.67222,217.9 -3.3,-21.9 47.9,-8.2 21,109 -46.2,8.2 -40,6 -11.5,-88.3 z"
           id="path189"
           style="fill:#ff7518;fill-opacity:0.554975;stroke:#000000">
          <title
             id="title187">Utah</title>
        </path>
        <path
           class="vt"
           d="m 831.42949,102.4 1.1,3.5 -2.1,2.8 0.4,1.7 -0.1,1.3 1.1,2.1 1.4,0.4 0.6,1.3 2.1,1 0.7,1.5 -1.4,3.4 0.5,2.5 -0.5,1.5 1,1.9 -0.4,1.9 1.3,1.9 -0.2,2.2 0.7,1.1 -0.7,4.5 -0.7,1.5 0.5,2.6 -0.9,1.8 0.2,2.5 0.5,1.3 0.1,1.4 -2.1,2.6 12.4,2.7 1.1,-1 -0.5,-2 3,-14.2 1.9,-1.5 0.9,1.6 0.9,-2.2 -0.8,-1.8 3.1,-6.7 -0.3,-3.8 -0.4,-1 0.6,-2 -0.4,-2.2 2.2,-2.3 0.5,-3.2 -0.4,-1.5 1.4,-0.9 -0.6,-1.9 0.8,-1.7 -27.3,-6.9 z"
           id="path193"
           style="fill:#ff7518;fill-opacity:0.554975;stroke:#000000">
          <title
             id="title191">Vermont</title>
        </path>
        <path
           class="va"
           d="m 698.79854,265.4 1.1,2.8 -0.5,1.1 -0.4,-1.1 -0.8,-3.1 z m 34.6,-7 0.7,-1 -1,-0.1 -1,-0.9 -0.4,-1.8 0.2,-0.5 -0.1,-0.5 0.3,-0.7 0.6,-0.5 0.4,-0.1 0.5,-0.4 0.6,-0.6 h 1 l 0.6,-0.1 0.4,-0.4 -0.1,-0.5 1.7,-0.6 0.8,0.3 1.2,-0.1 0.7,-0.7 0.5,-0.2 0.2,-0.7 -0.6,-0.8 v -0.9 l 1.2,-0.2 1,-0.9 0.9,0.1 1.6,-0.3 0.4,0.7 0.4,1.6 0.5,2.3 10,-5.2 0.2,0.9 -0.9,1.6 0.8,2.3 -0.1,2.9 1.2,0.8 0.5,2.1 0.9,0.8 1.4,1.8 0.9,0.8 1,2.5 2.4,-1.1 2.3,8.5 1.3,1.6 2.8,-0.5 1.3,-1.9 2.3,-0.7 0.1,4.7 1.4,1.7 -0.4,1.5 2.1,2.2 -0.4,1.9 3.7,6.3 1,3.3 -1.5,1.2 1.5,1.9 -0.1,1.4 2.3,2 0.7,-1.1 4.3,3.1 1.5,-1 0.6,1.4 -0.8,0.5 0.5,0.9 5.5,2.4 3,-1.8 0.8,1.7 1.9,1.8 2.3,0.1 4.4,-2.3 0.1,-1.5 1.5,-0.7 -0.8,-1.2 0.7,-0.6 4.9,6.6 2.9,1 3,3 0.4,2.2 2.1,1.3 0.1,1.7 1.4,1.4 1.8,0.5 0.5,1.9 1,0.4 6.9,4.2 -28.9,-3.3 -0.2,-1 -4.6,-0.5 0.3,0.7 -29.4,-3.5 -39.4,-7.3 -29.1,-6.1 0.6,-1.2 -0.4,-0.1 -0.9,0.9 0.1,-1.4 0.3,-1.9 -1.6,1.2 -0.9,2.1 v -1.3 l 3.4,-5.5 v -1.2 l 0.7,-0.8 1.3,0.7 -0.5,1.4 h 0.8 l 0.4,-1 0.6,0.9 0.9,-1.1 2.1,-0.1 0.2,0.7 -1.5,2.1 1.4,-0.7 0.5,-1 0.4,0.8 0.8,0.1 1.5,1.7 -0.3,-1.6 v -1.4 l 1.5,-0.7 1.8,-0.5 0.2,-1.7 0.6,-1.3 0.6,1.1 1.7,-1 2,0.3 -0.2,-0.9 -1.5,-0.2 -0.9,0.5 -1.7,-0.8 -0.9,0.4 -0.5,1 v 0.7 l -1.9,0.4 -0.3,0.9 -0.9,0.4 -0.9,1.2 -1.4,-1.6 h -0.6 l 0.1,-2.1 1.3,1 0.6,-0.9 -1.5,-0.2 1.2,-0.9 1.2,0.6 0.1,-1.7 1.7,0.2 2.2,-1.1 1.8,-2.2 -3.6,2.2 -0.9,0.3 -1.7,-0.8 1.7,-0.9 -0.6,-0.6 1,-0.5 -0.8,-0.2 0.3,-0.9 -1.1,0.9 -0.4,-0.8 -0.4,1.3 -1.2,0.8 -0.6,-0.5 0.5,-0.6 0.1,-2.5 1.1,-0.1 1.6,-0.8 -0.9,-1.1 2,-0.1 0.4,-0.5 1.4,0.6 1.4,-0.8 0.5,-1.2 2.1,-1.2 2.1,-1.8 2.2,-1.9 -3,1.3 -0.9,1.2 -2.1,0.7 -2.3,2.5 -0.2,-1.7 -0.6,1.3 -2.3,0.5 v -4 l 0.8,-1.1 -1.1,0.4 -0.1,-1.6 3.1,-1.4 1.6,-0.2 1.3,-0.2 -0.3,-1.2 1.5,-0.3 0.1,-0.6 h 1.8 l 0.2,0.8 0.7,-1 h 2.7 l 1,-0.4 0.2,-1 1.2,-0.6 0.4,-1.5 0.6,-0.4 0.7,1.1 0.9,0.2 0.9,0.7 h 1.5 l 0.9,-1.3 -0.4,-3.1 -0.5,-2.4 -0.6,0.5 z m -21.9,11.6 -0.9,-0.1 v -0.6 l 0.8,0.1 z m -7.5,14.2 1,2.7 -1.2,-1.3 z m 1.8,-15.3 -0.7,0.3 0.2,1.9 0.5,-0.5 1.3,1 -1,0.4 1.8,4.4 -0.1,8.1 -1.9,3.1 -0.5,-1.5 -0.4,-2.7 0.3,-2.3 -0.7,-0.9 0.2,-1.4 -1.2,-0.6 0.6,-0.5 -0.5,-0.7 -0.8,1.1 0.2,1.1 0.4,3.9 -1.1,-2.2 -0.4,-3.1 -0.1,-3 0.3,-2 -0.6,-2.3 -1.1,-1.8 -0.1,-2.2 -0.3,-0.9 4.6,1.6 0.7,0.8 z"
           id="path197"
           style="fill:#ff7518;fill-opacity:0.554975;stroke:#000000">
          <title
             id="title195">Virginia</title>
        </path>
        <path
           class="wa"
           d="m 70.04172,83.6 -0.7,4 1.1,4.3 30.3,-7.3 2.8,1 5.4,-0.9 1.8,-0.9 1.5,1.2 3.3,-0.4 4.5,0.5 0.9,0.7 4.2,-0.4 0.8,-1.6 1.2,-0.2 4.4,1.3 1.6,-1.1 2.2,0.8 0.2,-1.8 2.3,-1.2 1.5,-0.2 1,-1.1 3,0.3 1.2,-0.8 h 1.2 l 1.2,0.9 5.5,0.7 6.6,-4.2 -1.1,-5.6 0.4,-4.1 3.2,-3.7 3.7,0.1 0.4,-1.1 -0.4,-1.2 0.7,-0.8 1,0.1 2.1,-1.5 1.2,0.4 2,-0.1 0.7,-1.5 1.6,-0.3 -2.5,-7.5 0.7,6 -0.5,0.5 v -2 l -0.8,-0.2 -1.1,2.3 0.5,-2.2 -1.2,-4.2 -1.8,0.4 1.1,-2 1,0.3 1.5,-0.4 -0.2,-4.2 -0.2,1.5 -0.9,0.5 -0.6,-1.6 h -3.2 l 2.2,-1.2 1.7,-1.9 1.4,1.6 -1.2,-3.1 0.3,-4.6 0.2,-3.6 -0.9,-6.1 0.5,-2 1.4,-2.1 -0.1,-4 -0.4,-2.7 -2,-2.3 0.7,-1.4 -0.2,-0.6 -0.9,0.1 -7.8,7.6 -4.7,1.9 -5.1,2.5 -3.2,-0.1 -0.2,3 -1,-1.6 h -0.7 l -0.6,2.7 -0.5,-2.6 -1.4,-0.2 -0.5,0.7 1.1,0.6 -0.1,1.6 -0.7,-1.5 h -1.1 l 0.4,2.6 1.1,-0.8 -0.4,1.4 0.1,1.5 0.8,0.7 2.5,2.9 -1.2,-3.4 1.6,0.4 0.4,2.1 3.8,2.8 0.4,1 2.1,2.2 0.1,1 h -2.2 l -2.4,-0.2 -0.5,-0.9 3.9,0.5 V 39 l -2.6,-2.8 -1.8,-0.8 -1.9,-0.2 -1,-1.6 -3,-2.3 v -1.4 h -1.1 l -0.1,4 h 1.5 l 0.6,0.8 1.1,-0.9 -0.3,1.1 v 1.7 l 0.7,0.7 0.3,-1.6 0.8,0.8 -0.7,0.6 0.9,1.1 h -1.3 l -0.7,-0.5 -0.1,2 1,1.9 0.9,1 0.1,1.8 1,-0.2 0.2,-1.4 -0.9,-1.1 0.8,-0.5 0.8,0.7 0.7,2.2 0.8,0.9 0.1,-2 -0.8,-1.1 0.2,-1.1 1.2,1.2 -0.1,2.2 0.6,0.4 2.1,-0.4 1.3,1.2 -2.2,-0.6 0.2,2.2 -1,-1.8 -0.4,1.4 -0.5,-1 -0.7,1.8 h -0.7 l -0.7,-0.8 -0.6,-0.1 -2,-1.9 -0.2,-1.2 -0.8,0.6 -0.3,0.9 -0.7,-0.3 -0.1,-1.2 h -1.3 l -0.2,-2.9 0.1,-2.7 -0.9,0.3 0.7,-2.1 -1.4,-0.8 -0.2,-2.4 -2.3,-2.2 -1,0.1 -0.3,-1.4 1.2,-1.4 0.1,-3.5 0.8,0.9 -0.7,2.9 0.6,0.1 0.6,-1.9 0.6,-0.5 -0.3,-2.3 -1.8,-0.1 -0.3,0.7 -0.3,-1.6 1.6,-1.7 0.6,-1.6 0.2,2 -0.9,1.1 0.7,0.4 1,-0.8 1.8,1.3 -1.5,0.5 -0.2,2.4 0.3,1.8 -0.9,-1.3 -1.4,2.3 0.4,1.9 h 1.5 v -1.2 l 1.5,-1.2 -0.5,-3 1.9,-2.6 -2.7,-3 -0.6,-4.1 h -0.9 l -1.4,3.2 v -2.6 l -1.2,0.3 v -3.3 l 0.9,-0.8 1.2,2.5 1,-3 -1.3,-0.1 1.5,-4.9 -1.9,-0.6 -25.4,7.5 -31.7,8 -23.6,5.5 z m 78.7,-39.4 h -0.5 l -0.1,0.8 0.5,0.3 -0.1,0.6 0.7,0.4 0.2,-0.9 -0.5,-0.4 z m -5,-4.3 1.2,1.9 0.1,0.8 -0.4,0.2 -0.5,-0.6 -1.1,0.1 z m 0.4,-21.6 -0.5,0.6 -1.3,-0.3 -0.2,-1 -1.2,-1.8 1,-0.4 0.7,1.6 0.1,-1.6 1.1,0.2 0.7,1.4 z m -3.2,-5.5 -0.7,1.5 0.9,0.2 0.8,0.4 0.2,-2.4 z m 2.7,-1.6 1.1,-0.2 -0.5,1.4 z m 1,2.5 -0.8,0.4 0.4,1.1 -1.7,-0.5 0.2,-2.2 0.9,-0.2 z m 2.7,-0.4 -0.3,2.7 -1.6,1.3 -0.6,-1.9 1.1,-2.2 z m -1.9,-1.1 1.1,-1 0.9,0.1 -1.8,1.5 z m -3.2,-7 h 1.2 V 6 l -1.2,0.6 z m 0.9,32.5 -0.4,-2.7 h 1.1 l 0.2,1.9 z"
           id="path201"
           style="fill:#ff7518;fill-opacity:0.554975;stroke:#000000">
          <title
             id="title199">Washington</title>
        </path>
        <path
           class="wv"
           d="m 774.16853,297.5 0.8,1.2 -1.5,0.7 -0.1,1.5 -4.4,2.3 -2.3,-0.1 -1.9,-1.8 -0.8,-1.7 -3,1.8 -5.5,-2.4 -0.5,-0.9 0.8,-0.5 -0.6,-1.4 -1.5,1 -4.3,-3.1 -0.7,1.1 -2.3,-2 0.1,-1.4 -1.5,-1.9 1.5,-1.2 -1,-3.3 -3.7,-6.3 0.4,-1.9 -2.1,-2.2 0.4,-1.5 -1.4,-1.7 -0.1,-4.7 -2.3,0.7 -1.3,1.9 -2.8,0.5 -1.3,-1.6 -2.3,-8.5 -2.4,1.1 -1,-2.5 -0.9,-0.8 -1.4,-1.8 -0.9,-0.8 -0.5,-2.1 -1.2,-0.8 0.1,-2.9 -0.8,-2.3 0.9,-1.6 -0.2,-0.9 -10,5.2 -0.5,-2.3 -0.4,-1.6 -0.4,-0.7 0.9,-0.4 -0.2,-1.6 1,-0.5 0.2,-0.7 h 0.7 l 0.8,-1.2 -0.2,-1 2.6,0.4 2.2,-1.6 1.4,0.3 0.9,1.4 h 1.3 l 1.7,2.9 3.3,0.4 1.9,-1 2.6,3.8 2.2,-0.3 3.1,3.9 0.9,1.6 1.8,1.6 1.7,-11.4 17.4,2.9 3.2,-19.7 2.2,1.2 -1.4,2.1 0.1,2.2 -0.6,2 1.1,3.4 0.1,5.4 1,3.6 -0.5,1.1 0.4,2.2 1.1,0.5 2,3.3 1.8,2 h 0.6 l 1.8,1.7 1.3,-1.2 1.5,1.8 0.3,1.2 h 1.3 l 1.3,2.2 -0.1,2.1 1,0.5 -1.4,1.1 v 1.9 l 1,0.2 0.7,0.8 1,0.5 0.6,-2.1 1.6,-0.5 1,2.3 0.3,2.2 1.1,1.3 -1.3,3.6 1.5,0.8 0.4,3.5 h 1.5 l 3.2,1.4 0.1,1.1 -0.6,1 0.6,3.6 -1.9,1.6 -0.8,1.1 -1,0.6 0.1,0.9 -4.4,5.6 h -1.4 l -1.5,1.8 -1.2,0.3 -1.4,-0.1 z"
           id="path205"
           style="fill:#ff7518;fill-opacity:0.554975;stroke:#000000">
          <title
             id="title203">West Virginia</title>
        </path>
        <path
           class="wi"
           d="m 540.73219,144 2.9,0.8 -0.2,2.3 2.4,3.4 0.2,3.1 -0.6,0.7 -0.8,-0.7 -0.5,-1.6 -2,-1.1 -1.6,-4.2 -3.5,-1.1 -0.8,-3.3 -0.7,-0.9 -0.4,-2.1 -1.8,-1.1 v -1.5 l -1,-0.9 -1.4,0.1 v 2 l 1,0.1 -0.5,1.2 0.7,2.2 0.6,0.1 1.2,4.5 0.7,0.5 2.8,7.2 0.3,4.2 -0.6,2 -0.1,1.3 2.4,1.9 -0.3,1.9 0.9,3.1 -0.3,1.6 -0.4,3.7 1.1,4.1 1.5,5 -1,1.5 0.3,0.3 -0.8,1.7 0.5,1.1 -1.1,0.9 v 2.7 l -1.3,1.5 0.4,3 -0.3,4 45.9,2.8 1.3,-2.8 3.3,-0.7 2.7,-1.5 2,-5.5 -0.1,-2.5 -1.6,-3.3 0.6,-1.1 2.1,-1.6 0.2,-2.6 1.1,-4.5 0.2,-3 2.2,-3 2.8,-0.7 5.2,-3.6 0.6,-3.3 6.3,-3.1 0.2,-1.3 h 3.3 l 2.2,-2.6 2,-1.3 -0.7,-5.1 0.9,-1.6 -0.5,-5.4 -1,-1.8 0.3,-2.7 1.2,-1.3 1.8,-0.3 v -1.7 l -2.8,-5.8 -5.9,-3.9 0.4,-13 -0.9,0.4 -0.6,-0.5 -0.1,-1.1 -0.9,-0.6 -1.4,1.2 -0.7,-0.1 h -2.6 l -6.8,-2.6 -0.3,-1 h -1.2 l -0.7,-1.2 -0.4,0.8 -1.8,-0.9 -1.8,-1.7 -0.3,0.5 -1,-1 -2.2,1.6 0.8,1.6 1.2,1.4 -0.5,1.5 1.4,1.6 -0.4,0.9 -2.3,-1.1 v -1.4 l -3.3,1.9 -1.9,0.7 -1.9,0.7 -3,3.8 -17,3.8 -1.4,1 -4,0.8 -0.7,0.5 -2.8,-0.2 -4.9,0.8 -1.4,1.5 1,1 -0.8,0.8 -3.8,0.7 -1.2,1.2 -0.1,4.4 1.3,2.8 -2,0.1 -1,-0.8 -0.9,0.8 1.1,3.1 -1,1.6 -1.2,0.3 z m 49.5,-37.3 0.5,0.1 1.5,1.6 -0.2,0.5 -1.5,-0.6 v -0.6 l -0.9,-0.3 z m -1.6,-1.1 1,0.3 0.2,0.7 -0.9,-0.1 z m 1.3,-1.6 0.2,0.9 h -1.7 l -0.6,-0.4 -0.1,-1 z m -2.8,-3 0.3,1.9 -1.2,-0.5 -0.1,-1.4 z m -58.3,31.9 2,0.3 0.4,1.3 -1.3,1.7 z"
           id="path209"
           style="fill:#ff7518;fill-opacity:0.554975;stroke:#000000">
          <title
             id="title207">Wisconsin</title>
        </path>
        <path
           class="wy"
           d="m 233.17262,143.7 51,-5.3 57.3,-7.9 2,10.7 8.5,54.8 3.3,21.9 -32.1,4.8 -44.9,5.7 -37.5,3.4 -3.7,-44.2 z"
           id="path213"
           style="fill:#ff7518;fill-opacity:0.554975;stroke:#000000">
          <title
             id="title211">Wyoming</title>
        </path>
        <path
           class="dc"
           d="m 803.5,252 -2.6,-1.8 -1,1.7 0.5,0.4 0.4,0.1 0.6,0.5 0.3,0.7 -0.1,0.5 0.2,0.5 z"
           id="path217"
           style="fill:#ff7518;fill-opacity:0.554975;stroke:#000000">
          <title
             id="title215">District of Columbia</title>
        </path>
      </g>
      <ellipse
         class="state borders dccircle dc"
         cx="-801.59998"
         cy="252.10001"
         id="circle439"
         transform="scale(-1,1)"
         rx="4.9986687"
         ry="5"
         style="fill:#8e410d;fill-opacity:1;stroke:#000000;stroke-opacity:1">
        <title
           id="title437">District of Columbia</title>
      </ellipse>
    </g>
    <text
       xml:space="preserve"
       style="font-size:5.3111px;line-height:125%;font-family:'Ford Script';-inkscape-font-specification:'Ford Script';letter-spacing:0px;word-spacing:0px;fill:none;stroke:none;stroke-width:0.132778px;stroke-linecap:butt;stroke-linejoin:miter;stroke-opacity:1"
       x="228.60564"
       y="157.75536"
       id="text40357"><tspan
         sodipodi:role="line"
         id="tspan40355"
         style="font-style:normal;font-variant:normal;font-weight:normal;font-stretch:normal;font-family:Cantarell;-inkscape-font-specification:Cantarell;fill:#ff6600;stroke:none;stroke-width:0.132778px"
         x="228.60564"
         y="157.75536">@notkavi</tspan></text>
  </g>
</svg>
