<?xml version="1.0" encoding="UTF-8" standalone="no"?>
<svg
   width="1235"
   height="650"
   viewBox="0 0 7410 3900"
   version="1.1"
   id="svg33"
   sodipodi:docname="progressflagusa.svg"
   inkscape:version="1.2 (56b05e47e7, 2022-06-09, custom)"
   inkscape:export-filename="../../../../../home/kavi/temp2.png"
   inkscape:export-xdpi="318.36349"
   inkscape:export-ydpi="318.36349"
   xmlns:inkscape="http://www.inkscape.org/namespaces/inkscape"
   xmlns:sodipodi="http://sodipodi.sourceforge.net/DTD/sodipodi-0.dtd"
   xmlns="http://www.w3.org/2000/svg"
   xmlns:svg="http://www.w3.org/2000/svg"
   xmlns:rdf="http://www.w3.org/1999/02/22-rdf-syntax-ns#"
   xmlns:cc="http://creativecommons.org/ns#"
   xmlns:dc="http://purl.org/dc/elements/1.1/">
  <metadata
     id="metadata39">
    <rdf:RDF>
      <cc:Work
         rdf:about="">
        <dc:format>image/svg+xml</dc:format>
        <dc:type
           rdf:resource="http://purl.org/dc/dcmitype/StillImage" />
      </cc:Work>
    </rdf:RDF>
  </metadata>
  <defs
     id="defs37" />
  <sodipodi:namedview
     pagecolor="#ffffff"
     bordercolor="#666666"
     borderopacity="1"
     objecttolerance="10"
     gridtolerance="10"
     guidetolerance="10"
     inkscape:pageopacity="0"
     inkscape:pageshadow="2"
     inkscape:window-width="1884"
     inkscape:window-height="1037"
     id="namedview35"
     showgrid="false"
     showguides="false"
     inkscape:zoom="1.1932069"
     inkscape:cx="150.01589"
     inkscape:cy="240.52828"
     inkscape:window-x="72"
     inkscape:window-y="1086"
     inkscape:window-maximized="0"
     inkscape:current-layer="svg33"
     inkscape:showpageshadow="2"
     inkscape:pagecheckerboard="0"
     inkscape:deskcolor="#d1d1d1" />
  <rect
     width="7410"
     height="3900"
     fill="#b22234"
     id="rect2" />
  <path
     d="M0,450H7410m0,600H0m0,600H7410m0,600H0m0,600H7410m0,600H0"
     stroke="#fff"
     stroke-width="300"
     id="path4" />
  <path
     style="fill:#3c3b6e;fill-opacity:1;stroke:none;stroke-width:7.13678px;stroke-linecap:butt;stroke-linejoin:miter;stroke-opacity:1"
     d="M -0.6985764,-0.11699508 3139.2358,1950 -0.6985764,3900.117 Z"
     id="path620"
     sodipodi:nodetypes="cccc" />
  <g
     id="g1734"
     transform="matrix(0,1.1342348,-1.1342348,0,2633.5247,260.83673)">
    <path
       id="use16"
       d="m 247,1878 70.53423,217.082 -184.66101,-134.164 h 228.25356 l -184.66101,134.164 z"
       style="fill:#ffffff" />
    <path
       id="use16-8"
       d="m 522.99999,1878 70.53424,217.082 -184.66102,-134.164 h 228.25357 l -184.66102,134.164 z"
       style="fill:#ffffff;stroke-width:1" />
    <path
       id="use16-5"
       d="m 798.99999,1878 70.53424,217.082 -184.66102,-134.164 h 228.25357 l -184.66102,134.164 z"
       style="fill:#ffffff;stroke-width:1" />
    <path
       id="use16-8-5"
       d="m 1075,1878 70.5342,217.082 -184.661,-134.164 h 228.2536 l -184.661,134.164 z"
       style="fill:#ffffff;stroke-width:1" />
    <path
       id="use16-1"
       d="m 1351.2536,1878 70.5342,217.082 -184.661,-134.164 h 228.2536 l -184.661,134.164 z"
       style="fill:#ffffff;stroke-width:1" />
    <path
       id="use16-8-9"
       d="m 1627.2536,1878 70.5342,217.082 -184.661,-134.164 h 228.2536 l -184.6611,134.164 z"
       style="fill:#ffffff;stroke-width:1" />
    <path
       id="use16-5-7"
       d="m 1903.2536,1878 70.5342,217.082 -184.661,-134.164 h 228.2536 l -184.6611,134.164 z"
       style="fill:#ffffff;stroke-width:1" />
    <path
       id="use16-8-5-8"
       d="m 2179.2536,1878 70.5342,217.082 -184.661,-134.164 h 228.2536 l -184.6611,134.164 z"
       style="fill:#ffffff;stroke-width:1" />
    <path
       id="use16-5-7-5"
       d="m 2455.5072,1878 70.5342,217.082 -184.661,-134.164 h 228.2536 l -184.6611,134.164 z"
       style="fill:#ffffff;stroke-width:1" />
    <path
       id="use16-8-5-8-0"
       d="m 2731.5072,1878 70.5342,217.082 -184.661,-134.164 h 228.2536 l -184.6611,134.164 z"
       style="fill:#ffffff;stroke-width:1" />
    <g
       id="g1383"
       transform="translate(5.8732,144.02914)">
      <path
         id="use16-8-8"
         d="M 380.4658,1552.918 451.00004,1770 266.33902,1635.836 H 494.59259 L 309.93158,1770 Z"
         style="fill:#ffffff;stroke-width:1" />
      <path
         id="use16-5-1"
         d="M 656.46581,1552.918 727.00005,1770 542.33903,1635.836 H 770.5926 L 585.93158,1770 Z"
         style="fill:#ffffff;stroke-width:1" />
      <path
         id="use16-8-5-6"
         d="M 932.4658,1552.918 1003,1770 818.33902,1635.836 H 1046.5926 L 861.93162,1770 Z"
         style="fill:#ffffff;stroke-width:1" />
      <path
         id="use16-1-5"
         d="m 1208.7194,1552.918 70.5342,217.082 -184.661,-134.164 h 228.2536 L 1138.1852,1770 Z"
         style="fill:#ffffff;stroke-width:1" />
      <path
         id="use16-8-9-8"
         d="m 1484.7194,1552.918 70.5342,217.082 -184.661,-134.164 h 228.2536 L 1414.1851,1770 Z"
         style="fill:#ffffff;stroke-width:1" />
      <path
         id="use16-5-7-2"
         d="m 1760.7194,1552.918 70.5342,217.082 -184.661,-134.164 h 228.2536 L 1690.1851,1770 Z"
         style="fill:#ffffff;stroke-width:1" />
      <path
         id="use16-8-5-8-01"
         d="m 2036.7194,1552.918 70.5342,217.082 -184.661,-134.164 h 228.2536 L 1966.1851,1770 Z"
         style="fill:#ffffff;stroke-width:1" />
      <path
         id="use16-5-7-5-0"
         d="m 2312.973,1552.918 70.5342,217.082 -184.661,-134.164 h 228.2537 L 2242.4387,1770 Z"
         style="fill:#ffffff;stroke-width:1" />
      <path
         id="use16-8-5-8-0-3"
         d="m 2588.973,1552.918 70.5342,217.082 -184.661,-134.164 h 228.2537 L 2518.4388,1770 Z"
         style="fill:#ffffff;stroke-width:1" />
    </g>
    <g
       id="g1429"
       transform="translate(0,132.7778)">
      <path
         id="use16-8-2"
         d="m 525.67796,1346.7831 70.53424,217.082 -184.66102,-134.164 h 228.25357 l -184.66102,134.164 z"
         style="fill:#ffffff;stroke-width:1" />
      <path
         id="use16-5-8"
         d="m 801.678,1346.7831 70.5342,217.082 -184.66101,-134.164 H 915.8048 l -184.6611,134.164 z"
         style="fill:#ffffff;stroke-width:1" />
      <path
         id="use16-8-5-1"
         d="m 1077.678,1346.7831 70.5342,217.082 -184.661,-134.164 h 228.2536 l -184.661,134.164 z"
         style="fill:#ffffff;stroke-width:1" />
      <path
         id="use16-1-0"
         d="m 1353.9316,1346.7831 70.5342,217.082 -184.661,-134.164 h 228.2536 l -184.661,134.164 z"
         style="fill:#ffffff;stroke-width:1" />
      <path
         id="use16-8-9-4"
         d="m 1629.9316,1346.7831 70.5342,217.082 -184.661,-134.164 h 228.2536 l -184.6611,134.164 z"
         style="fill:#ffffff;stroke-width:1" />
      <path
         id="use16-5-7-25"
         d="m 1905.9316,1346.7831 70.5342,217.082 -184.661,-134.164 h 228.2536 l -184.6611,134.164 z"
         style="fill:#ffffff;stroke-width:1" />
      <path
         id="use16-8-5-8-8"
         d="m 2181.9316,1346.7831 70.5342,217.082 -184.661,-134.164 h 228.2536 l -184.6611,134.164 z"
         style="fill:#ffffff;stroke-width:1" />
      <path
         id="use16-5-7-5-3"
         d="m 2458.1852,1346.7831 70.5342,217.082 -184.661,-134.164 h 228.2537 l -184.6612,134.164 z"
         style="fill:#ffffff;stroke-width:1" />
    </g>
    <g
       id="g1504"
       transform="translate(-123.8048,251.12656)">
      <path
         id="use16-8-57"
         d="m 786.14381,1011.4926 70.5342,217.082 -184.661,-134.164 h 228.2536 l -184.661,134.164 z"
         style="fill:#ffffff;stroke-width:1" />
      <path
         id="use16-5-75"
         d="m 1062.1438,1011.4926 70.5343,217.082 -184.66109,-134.164 h 228.25359 l -184.66099,134.164 z"
         style="fill:#ffffff;stroke-width:1" />
      <path
         id="use16-8-5-61"
         d="m 1338.1438,1011.4926 70.5342,217.082 -184.661,-134.164 h 228.2536 l -184.661,134.164 z"
         style="fill:#ffffff;stroke-width:1" />
      <path
         id="use16-1-03"
         d="m 1614.3974,1011.4926 70.5342,217.082 -184.661,-134.164 h 228.2536 l -184.661,134.164 z"
         style="fill:#ffffff;stroke-width:1" />
      <path
         id="use16-8-9-0"
         d="m 1890.3974,1011.4926 70.5342,217.082 -184.661,-134.164 h 228.2536 l -184.6611,134.164 z"
         style="fill:#ffffff;stroke-width:1" />
      <path
         id="use16-5-7-20"
         d="m 2166.3974,1011.4926 70.5342,217.082 -184.661,-134.164 h 228.2536 l -184.6611,134.164 z"
         style="fill:#ffffff;stroke-width:1" />
      <path
         id="use16-8-5-8-2"
         d="m 2442.3974,1011.4926 70.5342,217.082 -184.661,-134.164 h 228.2536 l -184.6611,134.164 z"
         style="fill:#ffffff;stroke-width:1" />
    </g>
    <g
       id="g1542"
       transform="translate(-26.463,178.74466)">
      <path
         id="use16-5-3"
         d="m 828.14089,865.71046 70.5343,217.08204 -184.66103,-134.16404 h 228.25353 l -184.661,134.16404 z"
         style="fill:#ffffff;stroke-width:1" />
      <path
         id="use16-8-5-3"
         d="m 1104.141,865.71046 70.5342,217.08204 -184.66101,-134.16404 h 228.25361 l -184.661,134.16404 z"
         style="fill:#ffffff;stroke-width:1" />
      <path
         id="use16-1-54"
         d="m 1380.3946,865.71046 70.5342,217.08204 -184.661,-134.16404 h 228.2535 l -184.6609,134.16404 z"
         style="fill:#ffffff;stroke-width:1" />
      <path
         id="use16-8-9-81"
         d="m 1656.3946,865.71046 70.5342,217.08204 -184.661,-134.16404 h 228.2536 l -184.6612,134.16404 z"
         style="fill:#ffffff;stroke-width:1" />
      <path
         id="use16-5-7-1"
         d="m 1932.3946,865.71046 70.5342,217.08204 -184.661,-134.16404 h 228.2536 l -184.6611,134.16404 z"
         style="fill:#ffffff;stroke-width:1" />
      <path
         id="use16-8-5-8-27"
         d="m 2208.3946,865.71046 70.5342,217.08204 -184.661,-134.16404 h 228.2536 l -184.6611,134.16404 z"
         style="fill:#ffffff;stroke-width:1" />
    </g>
    <g
       id="g1576"
       transform="translate(90.038,195.64769)">
      <path
         id="use16-5-73"
         d="m 848.30083,630.64343 70.5343,217.082 -184.661,-134.164 h 228.2535 l -184.661,134.164 z"
         style="fill:#ffffff;stroke-width:1" />
      <path
         id="use16-8-5-0"
         d="m 1124.3009,630.64343 70.5342,217.082 -184.661,-134.164 h 228.2536 l -184.661,134.164 z"
         style="fill:#ffffff;stroke-width:1" />
      <path
         id="use16-1-02"
         d="m 1400.5545,630.64343 70.5342,217.082 -184.661,-134.164 h 228.2535 l -184.6609,134.164 z"
         style="fill:#ffffff;stroke-width:1" />
      <path
         id="use16-8-9-1"
         d="m 1676.5545,630.64343 70.5342,217.082 -184.661,-134.164 h 228.2536 l -184.6612,134.164 z"
         style="fill:#ffffff;stroke-width:1" />
      <path
         id="use16-5-7-3"
         d="m 1952.5545,630.64343 70.5342,217.082 -184.661,-134.164 h 228.2536 l -184.6611,134.164 z"
         style="fill:#ffffff;stroke-width:1" />
    </g>
    <g
       id="g1606"
       transform="translate(0,84)">
      <path
         id="use16-8-5-2"
         d="m 1074.9999,536.12712 70.5342,217.082 -184.661,-134.164 h 228.2536 l -184.661,134.164 z"
         style="fill:#ffffff;stroke-width:1" />
      <path
         id="use16-1-8"
         d="m 1351.2535,536.12712 70.5342,217.082 -184.661,-134.164 h 228.2536 l -184.661,134.164 z"
         style="fill:#ffffff;stroke-width:1" />
      <path
         id="use16-8-9-6"
         d="m 1627.2535,536.12712 70.5342,217.082 -184.661,-134.164 h 228.2536 l -184.6611,134.164 z"
         style="fill:#ffffff;stroke-width:1" />
      <path
         id="use16-5-7-7"
         d="m 1903.2535,536.12712 70.5342,217.082 -184.661,-134.164 h 228.2536 l -184.6611,134.164 z"
         style="fill:#ffffff;stroke-width:1" />
    </g>
    <g
       id="g1632"
       transform="translate(-48,72)">
      <path
         id="use16-1-7"
         d="m 1259.9146,329.96312 70.5342,217.082 -184.661,-134.164 h 228.2536 l -184.661,134.164 z"
         style="fill:#ffffff;stroke-width:1" />
      <path
         id="use16-8-9-10"
         d="m 1535.9146,329.96312 70.5342,217.082 -184.661,-134.164 h 228.2536 l -184.6611,134.164 z"
         style="fill:#ffffff;stroke-width:1" />
      <path
         id="use16-5-7-27"
         d="m 1811.9146,329.96312 70.5342,217.082 -184.661,-134.164 h 228.2536 l -184.6611,134.164 z"
         style="fill:#ffffff;stroke-width:1" />
    </g>
    <g
       id="g1654"
       transform="translate(-653.0364,-1.82509)">
      <path
         id="use16-1-1"
         d="m 2001.6121,185.62421 70.5342,217.082 -184.661,-134.164 h 228.2536 l -184.661,134.164 z"
         style="fill:#ffffff;stroke-width:1" />
      <path
         id="use16-8-9-69"
         d="m 2277.6121,185.62421 70.5342,217.082 -184.661,-134.164 h 228.2536 l -184.6611,134.164 z"
         style="fill:#ffffff;stroke-width:1" />
    </g>
    <path
       id="use16-1-70"
       d="m 1487.9147,1.63512 70.5342,217.082 -184.661,-134.164 h 228.2536 l -184.661,134.164 z"
       style="fill:#ffffff;stroke-width:1" />
  </g>
</svg>
