<?xml version="1.0" encoding="UTF-8" standalone="no"?>
<!-- Created with Inkscape (http://www.inkscape.org/) -->

<svg
   width="327.05475mm"
   height="286.72348mm"
   viewBox="0 0 327.05476 286.72348"
   version="1.1"
   id="svg5"
   xml:space="preserve"
   inkscape:version="1.2.2 (1:1.2.2+202212051552+b0a8486541)"
   sodipodi:docname="western-water-crisis.svg"
   inkscape:export-filename="../../temp.png"
   inkscape:export-xdpi="317.34"
   inkscape:export-ydpi="317.34"
   xmlns:inkscape="http://www.inkscape.org/namespaces/inkscape"
   xmlns:sodipodi="http://sodipodi.sourceforge.net/DTD/sodipodi-0.dtd"
   xmlns="http://www.w3.org/2000/svg"
   xmlns:svg="http://www.w3.org/2000/svg"
   xmlns:rdf="http://www.w3.org/1999/02/22-rdf-syntax-ns#"
   xmlns:cc="http://creativecommons.org/ns#"
   xmlns:dc="http://purl.org/dc/elements/1.1/"><metadata
     id="metadata411"><rdf:RDF><cc:Work
         rdf:about=""><dc:format>image/svg+xml</dc:format><dc:type
           rdf:resource="http://purl.org/dc/dcmitype/StillImage" /></cc:Work></rdf:RDF></metadata><sodipodi:namedview
     id="namedview7"
     pagecolor="#ffffff"
     bordercolor="#666666"
     borderopacity="1.0"
     inkscape:showpageshadow="2"
     inkscape:pageopacity="0.0"
     inkscape:pagecheckerboard="0"
     inkscape:deskcolor="#d1d1d1"
     inkscape:document-units="mm"
     showgrid="false"
     inkscape:zoom="0.64072545"
     inkscape:cx="683.60013"
     inkscape:cy="538.45216"
     inkscape:window-width="1883"
     inkscape:window-height="1029"
     inkscape:window-x="26"
     inkscape:window-y="23"
     inkscape:window-maximized="0"
     inkscape:current-layer="layer1"
     inkscape:pageshadow="2" /><defs
     id="defs2"><style
       type="text/css"
       id="style4918">
.state {fill:#D0D0D0}                        /* default color for all states not specified below */
.borders {stroke:#FFFFFF; stroke-width:1}    /* color and width of borders between states */
.dccircle {display:yes}                      /* set display to yes to show the circle for the District of Columbia, or none to hide it */
.separator1 {stroke:#B0B0B0; stroke-width:2} /* color and width of lines around Alaska and Hawaii */

/* Individual states can be colored as follows:
.ks,.mt,.pa {fill:#0000FF}
.ca,.de {fill:#FF0000}
In this example, Kansas, Montana and Pennsylvania are colored blue, and California and Delaware are colored red.
Place this code in the empty space below. */



</style><clipPath
       clipPathUnits="userSpaceOnUse"
       id="clipPath18386"><rect
         style="color:#000000;overflow:visible;fill:#800080;fill-opacity:1;fill-rule:evenodd;stroke:none;stroke-width:0.770181;stroke-dashoffset:536.69299316"
         id="rect18388"
         width="446"
         height="446"
         x="285.70569"
         y="5.3717713" /></clipPath><clipPath
       clipPathUnits="userSpaceOnUse"
       id="clipPath18386-5"><rect
         style="color:#000000;overflow:visible;fill:#800080;fill-opacity:1;fill-rule:evenodd;stroke:none;stroke-width:0.770181;stroke-dashoffset:536.69299316"
         id="rect18388-0"
         width="446"
         height="446"
         x="285.70569"
         y="5.3717713" /></clipPath></defs><g
     inkscape:label="Layer 1"
     inkscape:groupmode="layer"
     id="layer1"
     transform="translate(55.688907,-2.1229578)"><g
   id="g26608"><g
     id="g49310"
     transform="translate(-1.389789,2.3163176)"
     style="fill:#f1ebe1;fill-opacity:1"><rect
   style="color:#000000;overflow:visible;fill:#f4e6ca;fill-opacity:1;fill-rule:evenodd;stroke-width:0.791422;stroke-dashoffset:536.693;stroke:#f4e5c8;stroke-opacity:1"
   id="rect12469"
   width="327.05475"
   height="286.72348"
   x="-54.299118"
   y="-0.19335978" /><text
   xml:space="preserve"
   style="font-weight:bold;font-size:4.16323px;line-height:125%;font-family:Cantarell;-inkscape-font-specification:'Cantarell Bold';letter-spacing:0px;word-spacing:0px;fill:#f1ebe1;fill-opacity:1;stroke:none;stroke-width:0.104081px;stroke-linecap:butt;stroke-linejoin:miter;stroke-opacity:1"
   x="251.433"
   y="282.41684"
   id="text46141"><tspan
     sodipodi:role="line"
     id="tspan46139"
     style="font-weight:normal;fill:#f1ebe1;fill-opacity:1;stroke:none;stroke-width:0.104081px"
     x="251.433"
     y="282.41684">@notkavi</tspan></text>
</g><text
     id="text6015"
     y="287.0372"
     x="265.64413"
     style="font-size:8.45134px;line-height:1.25;font-family:Arial;-inkscape-font-specification:Arial;letter-spacing:0px;word-spacing:0px;stroke-width:0.633851"
     xml:space="preserve"
     transform="scale(1.0099529,0.99014518)"><tspan
       style="font-style:normal;font-variant:normal;font-weight:normal;font-stretch:normal;font-family:Cantarell;-inkscape-font-specification:Cantarell;text-align:end;text-anchor:end;stroke-width:0.633851"
       y="287.0372"
       x="265.64413"
       sodipodi:role="line"
       id="tspan6915">@notkavi</tspan></text></g><text
   xml:space="preserve"
   style="font-weight:bold;font-size:16.847px;line-height:125%;font-family:Cantarell;-inkscape-font-specification:'Cantarell Bold';letter-spacing:0px;word-spacing:0px;fill:#000000;stroke:none;stroke-width:0.421175px;stroke-linecap:butt;stroke-linejoin:miter;stroke-opacity:1"
   x="-36.262024"
   y="25.08547"
   id="text14572"><tspan
     sodipodi:role="line"
     id="tspan14570"
     x="-36.262024"
     y="25.08547"
     style="fill:#000000;stroke:none;stroke-width:0.421175px">The &quot;Western Water Crisis&quot; Is A Scam</tspan></text><text
   xml:space="preserve"
   style="font-weight:bold;font-size:9.59962px;line-height:125%;font-family:Cantarell;-inkscape-font-specification:'Cantarell Bold';letter-spacing:0px;word-spacing:0px;fill:#000000;stroke:none;stroke-width:0.239991px;stroke-linecap:butt;stroke-linejoin:miter;stroke-opacity:1"
   x="0.43803033"
   y="39.500401"
   id="text14572-2"><tspan
     sodipodi:role="line"
     id="tspan14570-3"
     x="0.43803033"
     y="39.500401"
     style="font-style:italic;font-weight:normal;fill:#000000;stroke:none;stroke-width:0.239991px">Agricultural Water Use By State, Colorado Basin</tspan></text><text
   xml:space="preserve"
   style="font-weight:bold;font-size:10.3835px;line-height:125%;font-family:Cantarell;-inkscape-font-specification:'Cantarell Bold';letter-spacing:0px;word-spacing:0px;fill:#000000;stroke:none;stroke-width:0.259587px;stroke-linecap:butt;stroke-linejoin:miter;stroke-opacity:1"
   x="-39.17831"
   y="271.57263"
   id="text14572-0"><tspan
     sodipodi:role="line"
     id="tspan14570-9"
     x="-39.17831"
     y="271.57263"
     style="font-style:italic;fill:#000000;stroke:none;stroke-width:0.259587px"><tspan
   style="fill:#ff0000;stroke-width:0.259587px"
   id="tspan7796">Agribusinesses</tspan> use <tspan
   style="fill:#0000ff;stroke-width:0.259587px"
   id="tspan7798">our subsidized water </tspan>to farm in the desert</tspan></text>

<g
   id="g12876"
   transform="translate(18.363276)"><g
     id="g15135"
     transform="matrix(0.66147563,0,0,0.66147563,-34.780092,-43.419441)"
     style="stroke:#ffffff"><path
       class="az"
       d="m 139.6,387.6 3,-2.2 0.8,-2.4 -1,-1.6 -1.8,-0.2 -1.1,-1.6 1.1,-6.9 1.6,-0.3 2.4,-3.2 1.6,-7 2.4,-3.6 4.8,-1.7 1.3,-1.3 -0.4,-1.9 -2.3,-2.5 -1.2,-5.8 -1.4,-1.8 -1.3,-3.4 0.9,-2.1 1.4,-3 0.5,-2.9 -0.5,-4.9 1,-13.6 3.5,-0.6 3.7,1.4 1.2,2.7 h 2 l 2.4,-2.9 3.4,-17.5 46.2,8.2 40,6 -17.4,124.1 -37.3,-5.4 -64.2,-37.5 0.5,-2.9 2,-1.8 z"
       id="path4932"
       style="fill:#e9de81;fill-opacity:1;stroke:#b2a592;stroke-opacity:1"
       inkscape:connector-curvature="0"><title
         id="title4930">Arizona</title></path><path
       class="ca"
       d="m 69.4,365.6 3.4,5.2 -1.4,0.1 -1.8,-1.9 z m 1.9,-9.8 1.8,4.1 2.6,1 0.7,-0.6 -1.3,-2.5 -2.6,-2.4 z m -19.9,-19 v 2.4 l 2,1.2 4.4,-0.2 1,-1 -3.1,-0.2 z m -5.9,0.1 3.3,0.5 1.4,2.2 h -3.8 z m 47.9,45.5 -1,-3 0.2,-3 -0.4,-7.9 -1.8,-4.8 -1.2,-1.4 -0.6,-1.5 -7,-8.6 -3.6,0.1 -2,-1.9 1.1,-1.8 -0.7,-3.7 -2.2,-1.2 -3.9,-0.6 -2.8,-1.3 -1.5,-1.9 -4.5,-6.6 -2.7,-2.2 -3.7,-0.5 -3.1,-2.3 -4.7,-1.5 -2.8,-0.3 -2.5,-2.5 0.2,-2.8 0.8,-4.8 1.8,-5.1 -1.4,-1.6 -4,-9.4 -2.7,-3.7 -0.4,-3 -1.6,-2.3 0.2,-2.5 -2,-5 -2.9,-2.7 0.6,-7.1 2.4,-0.8 1.8,-3.1 -0.4,-3.2 -1,-0.9 h -2.5 l -2.5,-3.3 -1.5,-3.5 v -7.5 l 1.2,-4.2 0.2,-2.1 2.5,0.2 -0.1,1.6 -0.8,0.7 v 2.5 l 3.7,3.2 v -4.7 l -1.4,-3.4 0.5,-1.1 -1,-1.7 2.8,-1.5 -1.9,-3 -1.4,0.5 -1.5,3.8 0.5,1.3 -0.8,1 -0.9,-0.1 -5.4,-6.1 0.7,-5.6 -1.1,-3.9 -6.5,-12.8 0.8,-10.7 2.3,-3.6 0.2,-6.4 -5.5,-11.1 0.3,-5.2 6.9,-7.5 1.7,-2.4 -0.1,-1.4 4,-9.2 0.1,-8.4 0.9,-2.5 66.1,18.6 -16.4,63.1 1.1,3.5 70.4,105 -0.9,2.1 1.3,3.4 1.4,1.8 1.2,5.8 2.3,2.5 0.4,1.9 -1.3,1.3 -4.8,1.7 -2.4,3.6 -1.6,7 -2.4,3.2 -1.6,0.3 -1.1,6.9 1.1,1.6 1.8,0.2 1,1.6 -0.8,2.4 -3,2.2 -2.2,-0.1 z"
       id="path4940"
       style="fill:#e9b381;fill-opacity:1;stroke:#b2a592;stroke-opacity:1"
       inkscape:connector-curvature="0"><title
         id="title4938">California</title></path><path
       class="co"
       d="m 374.6,323.3 -16.5,-1 -51.7,-4.8 -52.6,-6.5 11.5,-88.3 44.9,5.7 37.5,3.4 33.1,2.4 -1.4,22.1 z"
       id="path4944"
       style="fill:#e9b381;fill-opacity:1;stroke:#b2a592;stroke-opacity:1"
       inkscape:connector-curvature="0"><title
         id="title4942">Colorado</title></path><path
       class="nv"
       d="m 167.6,296.8 -3.4,17.5 -2.4,2.9 h -2 l -1.2,-2.7 -3.7,-1.4 -3.5,0.6 -1,13.6 0.5,4.9 -0.5,2.9 -1.4,3 -70.4,-105 -1.1,-3.5 16.4,-63.1 47,11.2 24.4,5.4 23.3,4.7 z"
       id="path5032"
       style="fill:#e9de81;fill-opacity:1;stroke:#b2a592;stroke-opacity:1"
       inkscape:connector-curvature="0"><title
         id="title5030">Nevada</title></path><path
       class="nm"
       d="m 357.5,332.9 h -0.8 l -7.9,99.3 -31.8,-2.6 -34.4,-3.6 -0.3,3 2,2.2 -30.8,-4.1 -1.4,10.2 -15.7,-2.2 17.4,-124.1 52.6,6.5 51.7,4.8 z"
       id="path5044"
       style="fill:#e9de81;fill-opacity:1;stroke:#b2a592;stroke-opacity:1"
       inkscape:connector-curvature="0"><title
         id="title5042">New Mexico</title></path><path
       class="ut"
       d="m 233.2,217.9 3.3,-21.9 -47.9,-8.2 -21,109 46.2,8.2 40,6 11.5,-88.3 z"
       id="path5096"
       style="fill:#e9de81;fill-opacity:1;stroke:#b2a592;stroke-opacity:1"
       inkscape:connector-curvature="0"><title
         id="title5094">Utah</title></path><path
       class="wy"
       d="m 355.3,143.7 -51,-5.3 -57.3,-7.9 -2,10.7 -8.5,54.8 -3.3,21.9 32.1,4.8 44.9,5.7 37.5,3.4 3.7,-44.2 z"
       id="path5120"
       style="fill:#e98181;fill-opacity:1;stroke:#b2a592;stroke-opacity:1"
       inkscape:connector-curvature="0"><title
         id="title5118">Wyoming</title></path><g
       class="borders"
       id="g5342"
       style="fill:none;stroke:#b2a592;stroke-width:1;stroke-opacity:1" /><text
       xml:space="preserve"
       style="font-size:12.6701px;line-height:1.25;font-family:Arial;-inkscape-font-specification:Arial;letter-spacing:0px;word-spacing:0px;fill:#000000;stroke:none;stroke-width:0.950263"
       x="50.969753"
       y="298.36859"
       id="text2689"><tspan
         sodipodi:role="line"
         id="tspan2687"
         style="font-style:normal;font-variant:normal;font-weight:normal;font-stretch:normal;font-family:Cantarell;-inkscape-font-specification:Cantarell;fill:#000000;stroke:none;stroke-width:0.950263"
         x="50.969753"
         y="298.36859">CA - 80%</tspan></text><text
       xml:space="preserve"
       style="font-size:12.6701px;line-height:1.25;font-family:Arial;-inkscape-font-specification:Arial;letter-spacing:0px;word-spacing:0px;fill:#000000;stroke:none;stroke-width:0.950263"
       x="108.65412"
       y="240.11855"
       id="text2689-3"><tspan
         sodipodi:role="line"
         id="tspan2687-6"
         style="font-style:normal;font-variant:normal;font-weight:normal;font-stretch:normal;font-family:Cantarell;-inkscape-font-specification:Cantarell;fill:#000000;stroke:none;stroke-width:0.950263"
         x="108.65412"
         y="240.11855">NV - 70%</tspan></text><text
       xml:space="preserve"
       style="font-size:12.6701px;line-height:1.25;font-family:Arial;-inkscape-font-specification:Arial;letter-spacing:0px;word-spacing:0px;fill:#000000;stroke:none;stroke-width:0.950263"
       x="167.88199"
       y="370.34079"
       id="text2689-3-7"><tspan
         sodipodi:role="line"
         id="tspan2687-6-5"
         style="font-style:normal;font-variant:normal;font-weight:normal;font-stretch:normal;font-family:Cantarell;-inkscape-font-specification:Cantarell;fill:#000000;stroke:none;stroke-width:0.950263"
         x="167.88199"
         y="370.34079">AZ - 70%</tspan></text><text
       xml:space="preserve"
       style="font-size:12.6701px;line-height:1.25;font-family:Arial;-inkscape-font-specification:Arial;letter-spacing:0px;word-spacing:0px;fill:#000000;stroke:none;stroke-width:0.950263"
       x="193.71597"
       y="268.29892"
       id="text2689-3-7-3"><tspan
         sodipodi:role="line"
         id="tspan2687-6-5-5"
         style="font-style:normal;font-variant:normal;font-weight:normal;font-stretch:normal;font-family:Cantarell;-inkscape-font-specification:Cantarell;fill:#000000;stroke:none;stroke-width:0.950263"
         x="193.71597"
         y="268.29892">UT - 70%</tspan></text><text
       xml:space="preserve"
       style="font-size:12.6701px;line-height:1.25;font-family:Arial;-inkscape-font-specification:Arial;letter-spacing:0px;word-spacing:0px;fill:#000000;stroke:none;stroke-width:0.950263"
       x="265.86798"
       y="185.53802"
       id="text2689-3-7-3-6"><tspan
         sodipodi:role="line"
         id="tspan2687-6-5-5-2"
         style="font-style:normal;font-variant:normal;font-weight:normal;font-stretch:normal;font-family:Cantarell;-inkscape-font-specification:Cantarell;fill:#000000;stroke:none;stroke-width:0.950263"
         x="265.86798"
         y="185.53802">WY - 95%</tspan></text><text
       xml:space="preserve"
       style="font-size:12.6701px;line-height:1.25;font-family:Arial;-inkscape-font-specification:Arial;letter-spacing:0px;word-spacing:0px;fill:#000000;stroke:none;stroke-width:0.950263"
       x="288.95959"
       y="278.57535"
       id="text2689-3-7-3-6-9"><tspan
         sodipodi:role="line"
         id="tspan2687-6-5-5-2-1"
         style="font-style:normal;font-variant:normal;font-weight:normal;font-stretch:normal;font-family:Cantarell;-inkscape-font-specification:Cantarell;fill:#000000;stroke:none;stroke-width:0.950263"
         x="288.95959"
         y="278.57535">CO - 85%</tspan></text><text
       xml:space="preserve"
       style="font-size:12.6701px;line-height:1.25;font-family:Arial;-inkscape-font-specification:Arial;letter-spacing:0px;word-spacing:0px;fill:#000000;stroke:none;stroke-width:0.950263"
       x="271.87155"
       y="383.96744"
       id="text2689-3-7-3-6-9-2"><tspan
         sodipodi:role="line"
         id="tspan2687-6-5-5-2-1-7"
         style="font-style:normal;font-variant:normal;font-weight:normal;font-stretch:normal;font-family:Cantarell;-inkscape-font-specification:Cantarell;fill:#000000;stroke:none;stroke-width:0.950263"
         x="271.87155"
         y="383.96744">NM - 75%</tspan></text></g><g
     id="g12834"><text
       xml:space="preserve"
       style="font-weight:bold;font-size:7.40383px;line-height:125%;font-family:Cantarell;-inkscape-font-specification:'Cantarell Bold';letter-spacing:0px;word-spacing:0px;fill:#000000;stroke:none;stroke-width:0.185096px;stroke-linecap:butt;stroke-linejoin:miter;stroke-opacity:1"
       x="-25.510687"
       y="224.38324"
       id="text14572-0-3"><tspan
         sodipodi:role="line"
         id="tspan14570-9-6"
         x="-25.510687"
         y="224.38324"
         style="font-style:normal;font-weight:normal;fill:#000000;stroke:none;stroke-width:0.185096px">70%+ Agricultural</tspan></text><rect
       style="fill:#e9de81;fill-opacity:1;stroke:#b2a592;stroke-width:0.998;stroke-opacity:1;stop-color:#000000"
       id="rect7273"
       width="10"
       height="10"
       x="-38.011242"
       y="217.48785" /><text
       xml:space="preserve"
       style="font-weight:bold;font-size:7.40383px;line-height:125%;font-family:Cantarell;-inkscape-font-specification:'Cantarell Bold';letter-spacing:0px;word-spacing:0px;fill:#000000;stroke:none;stroke-width:0.185096px;stroke-linecap:butt;stroke-linejoin:miter;stroke-opacity:1"
       x="-25.510687"
       y="237.47005"
       id="text14572-0-3-6"><tspan
         sodipodi:role="line"
         id="tspan14570-9-6-1"
         x="-25.510687"
         y="237.47005"
         style="font-style:normal;font-weight:normal;fill:#000000;stroke:none;stroke-width:0.185096px">80%+ Agricultural</tspan></text><rect
       style="fill:#e9b381;fill-opacity:1;stroke:#b2a592;stroke-width:0.998;stroke-opacity:1;stop-color:#000000"
       id="rect7273-8"
       width="10"
       height="10"
       x="-38.011242"
       y="230.57466" /><text
       xml:space="preserve"
       style="font-weight:bold;font-size:7.40383px;line-height:125%;font-family:Cantarell;-inkscape-font-specification:'Cantarell Bold';letter-spacing:0px;word-spacing:0px;fill:#000000;stroke:none;stroke-width:0.185096px;stroke-linecap:butt;stroke-linejoin:miter;stroke-opacity:1"
       x="-25.510687"
       y="250.55685"
       id="text14572-0-3-6-9"><tspan
         sodipodi:role="line"
         id="tspan14570-9-6-1-2"
         x="-25.510687"
         y="250.55685"
         style="font-style:normal;font-weight:normal;fill:#000000;stroke:none;stroke-width:0.185096px">90%+ Agricultural</tspan></text><rect
       style="fill:#e98181;fill-opacity:1;stroke:#b2a592;stroke-width:0.998;stroke-opacity:1;stop-color:#000000"
       id="rect7273-8-0"
       width="10"
       height="10"
       x="-38.011242"
       y="243.66147" /></g><text
     xml:space="preserve"
     style="font-size:3.52777px;line-height:1.25;font-family:Arial;-inkscape-font-specification:Arial;letter-spacing:0px;word-spacing:0px;stroke-width:0.264583"
     x="2.8569055"
     y="47.103138"
     id="text12947"><tspan
       sodipodi:role="line"
       id="tspan12945"
       style="stroke-width:0.264583"
       x="2.8569055"
       y="47.103138"></tspan></text></g><text
   xml:space="preserve"
   style="font-size:3.52777px;line-height:1.25;font-family:Arial;-inkscape-font-specification:Arial;letter-spacing:0px;word-spacing:0px;stroke-width:0.264583"
   x="-24.131001"
   y="223.20494"
   id="text8050"><tspan
     sodipodi:role="line"
     id="tspan8048"
     style="stroke-width:0.264583"
     x="-24.131001"
     y="223.20494" /></text></g><style
     type="text/css"
     id="style182">
	.st0{fill:#D0D0D0;}
	.st1{fill:none;stroke:#FFFFFF;}
	.st2{fill:none;stroke:#B0B0B0;stroke-width:2;}
	.st3{font-family:'MyriadPro-Regular';}
	.st4{font-size:12px;}
	.st5{fill:none;}
	.st6{fill:none;stroke:#000000;stroke-width:0.5;}
	.st7{fill:none;stroke:#000000;stroke-width:0.6176;}
	.st8{enable-background:new    ;}
	.st9{fill:none;stroke:#000000;stroke-width:0.5;stroke-miterlimit:10;}
</style></svg>
