<?xml version="1.0" encoding="UTF-8" standalone="no"?>
<!-- Created with Inkscape (http://www.inkscape.org/) -->

<svg
   xmlns:dc="http://purl.org/dc/elements/1.1/"
   xmlns:cc="http://creativecommons.org/ns#"
   xmlns:rdf="http://www.w3.org/1999/02/22-rdf-syntax-ns#"
   xmlns:svg="http://www.w3.org/2000/svg"
   xmlns="http://www.w3.org/2000/svg"
   xmlns:sodipodi="http://sodipodi.sourceforge.net/DTD/sodipodi-0.dtd"
   xmlns:inkscape="http://www.inkscape.org/namespaces/inkscape"
   width="225mm"
   height="112.5mm"
   viewBox="0 0 225 112.5"
   version="1.1"
   id="svg8"
   inkscape:version="0.92.5 (2060ec1f9f, 2020-04-08)"
   sodipodi:docname="bajor.svg">
  <defs
     id="defs2" />
  <sodipodi:namedview
     id="base"
     pagecolor="#ffffff"
     bordercolor="#666666"
     borderopacity="1.0"
     inkscape:pageopacity="0.0"
     inkscape:pageshadow="2"
     inkscape:zoom="0.98994949"
     inkscape:cx="360.74877"
     inkscape:cy="138.21944"
     inkscape:document-units="mm"
     inkscape:current-layer="g1341"
     showgrid="false"
     inkscape:window-width="1884"
     inkscape:window-height="1037"
     inkscape:window-x="72"
     inkscape:window-y="1085"
     inkscape:window-maximized="0" />
  <metadata
     id="metadata5">
    <rdf:RDF>
      <cc:Work
         rdf:about="">
        <dc:format>image/svg+xml</dc:format>
        <dc:type
           rdf:resource="http://purl.org/dc/dcmitype/StillImage" />
        <dc:title />
      </cc:Work>
    </rdf:RDF>
  </metadata>
  <g
     inkscape:label="Layer 1"
     inkscape:groupmode="layer"
     id="layer1"
     transform="translate(74.197016,-35.701617)">
    <g
       id="g1341"
       transform="rotate(90,117.62091,90.252844)">
      <rect
         style="opacity:1;fill:#800000;fill-opacity:1;stroke:none;stroke-width:0.95423198;stroke-miterlimit:4;stroke-dasharray:none;stroke-opacity:1"
         id="rect1347"
         width="225"
         height="112.5"
         x="-282.07077"
         y="63.069683"
         transform="rotate(-90)" />
      <g
         id="g1380"
         transform="matrix(0.97224591,0,0,0.97224591,0.28590254,15.89005)">
        <ellipse
           style="opacity:1;fill:#de9440;fill-opacity:1;stroke:none;stroke-width:8.42727184;stroke-miterlimit:4;stroke-dasharray:none;stroke-opacity:1"
           id="path1177-7"
           cx="122.43176"
           cy="197.30753"
           rx="30.789324"
           ry="52.447891" />
        <ellipse
           style="opacity:1;fill:#800000;fill-opacity:1;stroke:#77491b;stroke-width:5.64476061;stroke-miterlimit:4;stroke-dasharray:none;stroke-opacity:1"
           id="path1177"
           cx="122.43176"
           cy="206.23811"
           rx="19.923063"
           ry="36.365467" />
        <rect
           transform="rotate(-90)"
           y="118.00653"
           x="-229.71858"
           height="8.8504696"
           width="88.862137"
           id="rect1345"
           style="opacity:1;fill:#de9440;fill-opacity:1;stroke:#800000;stroke-width:3.08767581;stroke-miterlimit:4;stroke-dasharray:none;stroke-opacity:1" />
        <g
           id="g1262"
           transform="translate(32.592101,132.63111)">
          <circle
             r="19.233057"
             cy="94.647316"
             cx="89.839661"
             id="path1147-5"
             style="opacity:1;fill:#602114;fill-opacity:1;stroke:#602114;stroke-width:2.1961627;stroke-miterlimit:4;stroke-dasharray:none;stroke-opacity:1" />
          <circle
             r="17.668724"
             cy="94.647316"
             cx="89.839653"
             id="path1147"
             style="opacity:1;fill:#602114;fill-opacity:1;stroke:#df9440;stroke-width:2.0175364;stroke-miterlimit:4;stroke-dasharray:none;stroke-opacity:1" />
          <g
             style="stroke:#df9440;stroke-opacity:1"
             transform="matrix(1.4410975,0,0,1.4410975,50.12554,-93.204966)"
             id="g1145">
            <path
               style="fill:none;stroke:#df9440;stroke-width:0.26458332px;stroke-linecap:butt;stroke-linejoin:miter;stroke-opacity:1"
               d="m 27.558245,130.35363 c 1.19304,-0.8572 2.017508,-1.05095 2.108771,-2.02006 0.273254,-2.90167 -4.50726,-4.26187 -5.073848,-7.12078 -0.172949,-0.87267 0.258212,-1.74906 0.602729,-2.59998"
               id="path911"
               inkscape:connector-curvature="0"
               sodipodi:nodetypes="caac" />
            <path
               style="fill:none;stroke:#df9440;stroke-width:0.26458332px;stroke-linecap:butt;stroke-linejoin:miter;stroke-opacity:1"
               d="m 27.558245,130.35363 c 1.374248,-0.51921 2.220769,-0.49297 2.559746,-1.40544 1.014951,-2.73207 -3.250626,-5.28321 -3.057967,-8.19135 0.05881,-0.8877 0.702103,-1.62263 1.255116,-2.35539"
               id="path911-3"
               inkscape:connector-curvature="0"
               sodipodi:nodetypes="caac" />
            <path
               style="fill:none;stroke:#df9440;stroke-width:0.26458332px;stroke-linecap:butt;stroke-linejoin:miter;stroke-opacity:1"
               d="m 27.558245,130.35363 c 1.461803,-0.14584 2.272688,0.0986 2.836279,-0.69504 1.68748,-2.37629 -1.772466,-5.94452 -0.833691,-8.7037 0.286557,-0.84223 1.098148,-1.38562 1.821969,-1.95028"
               id="path911-7"
               inkscape:connector-curvature="0"
               sodipodi:nodetypes="caac" />
            <path
               style="fill:none;stroke:#df9440;stroke-width:0.26458332px;stroke-linecap:butt;stroke-linejoin:miter;stroke-opacity:1"
               d="m 27.558245,130.35363 c 1.449739,0.23747 2.169727,0.68346 2.919525,0.0627 2.245008,-1.85857 -0.17352,-6.20071 1.447398,-8.6229 0.494781,-0.73937 1.419354,-1.05419 2.264657,-1.41227"
               id="path911-3-5"
               inkscape:connector-curvature="0"
               sodipodi:nodetypes="caac" />
            <path
               style="fill:none;stroke:#df9440;stroke-width:0.26458332px;stroke-linecap:butt;stroke-linejoin:miter;stroke-opacity:1"
               d="m 27.558245,130.35363 c 1.338877,0.6046 1.918903,1.22174 2.803809,0.81622 2.649547,-1.21419 1.437257,-6.03434 3.629852,-7.95447 0.66928,-0.58612 1.643837,-0.65091 2.553013,-0.77801"
               id="path911-5"
               inkscape:connector-curvature="0"
               sodipodi:nodetypes="caac" />
            <path
               style="fill:none;stroke:#df9440;stroke-width:0.26458332px;stroke-linecap:butt;stroke-linejoin:miter;stroke-opacity:1"
               d="m 27.558245,130.35363 c 1.136773,0.93053 1.537309,1.67676 2.49702,1.51409 2.873517,-0.48707 2.950081,-5.45673 5.564933,-6.74396 0.798176,-0.39292 1.756291,-0.20327 2.667386,-0.0907"
               id="path911-3-6"
               inkscape:connector-curvature="0"
               sodipodi:nodetypes="caac" />
            <path
               style="fill:none;stroke:#df9440;stroke-width:0.26458332px;stroke-linecap:butt;stroke-linejoin:miter;stroke-opacity:1"
               d="m 27.558245,130.35363 c 0.857203,1.19304 1.050954,2.01751 2.020062,2.10877 2.901667,0.27326 4.261872,-4.50726 7.12078,-5.07385 0.872671,-0.17295 1.749056,0.25822 2.599976,0.60273"
               id="path911-7-2"
               inkscape:connector-curvature="0"
               sodipodi:nodetypes="caac" />
            <path
               style="fill:none;stroke:#df9440;stroke-width:0.26458332px;stroke-linecap:butt;stroke-linejoin:miter;stroke-opacity:1"
               d="m 27.558245,130.35363 c 0.519214,1.37425 0.49297,2.22077 1.405463,2.55973 2.732073,1.01495 5.283212,-3.25062 8.191349,-3.05796 0.887704,0.0588 1.622632,0.7021 2.35539,1.25511"
               id="path911-3-5-9"
               inkscape:connector-curvature="0"
               sodipodi:nodetypes="caac" />
            <path
               style="fill:none;stroke:#df9440;stroke-width:0.26458332px;stroke-linecap:butt;stroke-linejoin:miter;stroke-opacity:1"
               d="m 27.558245,130.35363 c 0.145837,1.4618 -0.0986,2.27269 0.695038,2.83628 2.376293,1.68748 5.944517,-1.77247 8.7037,-0.83369 0.842229,0.28655 1.385625,1.09815 1.950284,1.82197"
               id="path911-2"
               inkscape:connector-curvature="0"
               sodipodi:nodetypes="caac" />
            <path
               style="fill:none;stroke:#df9440;stroke-width:0.26458332px;stroke-linecap:butt;stroke-linejoin:miter;stroke-opacity:1"
               d="m 27.558245,130.35363 c -0.237475,1.44974 -0.68346,2.16973 -0.06273,2.91953 1.858566,2.245 6.200707,-0.17352 8.6229,1.44739 0.739366,0.49478 1.054188,1.41936 1.41227,2.26466"
               id="path911-3-7"
               inkscape:connector-curvature="0"
               sodipodi:nodetypes="caac" />
            <path
               style="fill:none;stroke:#df9440;stroke-width:0.26458332px;stroke-linecap:butt;stroke-linejoin:miter;stroke-opacity:1"
               d="m 27.558245,130.35363 c -0.6046,1.33888 -1.221734,1.91891 -0.816217,2.80381 1.214187,2.64955 6.034338,1.43726 7.954471,3.62985 0.586114,0.66928 0.650908,1.64384 0.778007,2.55301"
               id="path911-7-0"
               inkscape:connector-curvature="0"
               sodipodi:nodetypes="caac" />
            <path
               style="fill:none;stroke:#df9440;stroke-width:0.26458332px;stroke-linecap:butt;stroke-linejoin:miter;stroke-opacity:1"
               d="m 27.558245,130.35363 c -0.930525,1.13678 -1.676757,1.53731 -1.514062,2.49703 0.487065,2.87352 5.456732,2.95009 6.743951,5.56494 0.392923,0.79817 0.203278,1.75629 0.09073,2.66738"
               id="path911-3-5-93"
               inkscape:connector-curvature="0"
               sodipodi:nodetypes="caac" />
            <path
               style="fill:none;stroke:#df9440;stroke-width:0.26458332px;stroke-linecap:butt;stroke-linejoin:miter;stroke-opacity:1"
               d="m 27.558245,130.35363 c -1.193037,0.8572 -2.017509,1.05095 -2.108772,2.02006 -0.273254,2.90167 4.507263,4.26187 5.073847,7.12078 0.172955,0.87267 -0.258214,1.74906 -0.60273,2.59998"
               id="path911-5-6"
               inkscape:connector-curvature="0"
               sodipodi:nodetypes="caac" />
            <path
               style="fill:none;stroke:#df9440;stroke-width:0.26458332px;stroke-linecap:butt;stroke-linejoin:miter;stroke-opacity:1"
               d="m 27.558245,130.35363 c -1.374249,0.51921 -2.220771,0.49297 -2.55975,1.40544 -1.014944,2.73207 3.250626,5.28321 3.057974,8.19135 -0.05881,0.8877 -0.702109,1.62263 -1.255145,2.35538"
               id="path911-3-6-0"
               inkscape:connector-curvature="0"
               sodipodi:nodetypes="caac" />
            <path
               style="fill:none;stroke:#df9440;stroke-width:0.26458332px;stroke-linecap:butt;stroke-linejoin:miter;stroke-opacity:1"
               d="m 27.558245,130.35363 c -1.461804,0.14584 -2.272692,-0.0986 -2.836279,0.69504 -1.687484,2.37629 1.772465,5.94452 0.833693,8.7037 -0.286557,0.84223 -1.098153,1.38562 -1.821968,1.95028"
               id="path911-7-2-6"
               inkscape:connector-curvature="0"
               sodipodi:nodetypes="caac" />
            <path
               style="fill:none;stroke:#df9440;stroke-width:0.26458332px;stroke-linecap:butt;stroke-linejoin:miter;stroke-opacity:1"
               d="m 27.558245,130.35363 c -1.449742,-0.23747 -2.169728,-0.68346 -2.919523,-0.0627 -2.245009,1.85857 0.173514,6.20071 -1.447403,8.6229 -0.494774,0.73937 -1.419353,1.05419 -2.264652,1.41227"
               id="path911-3-5-9-2"
               inkscape:connector-curvature="0"
               sodipodi:nodetypes="caac" />
            <path
               style="fill:none;stroke:#df9440;stroke-width:0.26458332px;stroke-linecap:butt;stroke-linejoin:miter;stroke-opacity:1"
               d="m 27.558245,130.35363 c -1.338877,-0.6046 -1.918903,-1.22174 -2.803809,-0.81622 -2.649547,1.21419 -1.437257,6.03434 -3.629852,7.95447 -0.66928,0.58612 -1.643837,0.65091 -2.553013,0.77801"
               id="path911-2-1"
               inkscape:connector-curvature="0"
               sodipodi:nodetypes="caac" />
            <path
               style="fill:none;stroke:#df9440;stroke-width:0.26458332px;stroke-linecap:butt;stroke-linejoin:miter;stroke-opacity:1"
               d="m 27.558245,130.35363 c -1.136773,-0.93053 -1.537309,-1.67676 -2.49702,-1.51409 -2.873517,0.48707 -2.950081,5.45673 -5.564933,6.74396 -0.798176,0.39292 -1.756291,0.20327 -2.667386,0.0907"
               id="path911-3-7-8"
               inkscape:connector-curvature="0"
               sodipodi:nodetypes="caac" />
            <path
               style="fill:none;stroke:#df9440;stroke-width:0.26458332px;stroke-linecap:butt;stroke-linejoin:miter;stroke-opacity:1"
               d="m 27.558245,130.35363 c -0.857203,-1.19304 -1.050954,-2.01751 -2.020062,-2.10877 -2.901667,-0.27326 -4.261872,4.50726 -7.12078,5.07385 -0.872671,0.17295 -1.749056,-0.25822 -2.599976,-0.60273"
               id="path911-7-0-7"
               inkscape:connector-curvature="0"
               sodipodi:nodetypes="caac" />
            <path
               style="fill:none;stroke:#df9440;stroke-width:0.26458332px;stroke-linecap:butt;stroke-linejoin:miter;stroke-opacity:1"
               d="m 27.558245,130.35363 c -0.519214,-1.37425 -0.49297,-2.22077 -1.405463,-2.55973 -2.732073,-1.01495 -5.283212,3.25062 -8.191349,3.05796 -0.887704,-0.0588 -1.622632,-0.7021 -2.35539,-1.25511"
               id="path911-3-5-93-9"
               inkscape:connector-curvature="0"
               sodipodi:nodetypes="caac" />
            <path
               style="fill:none;stroke:#df9440;stroke-width:0.26458332px;stroke-linecap:butt;stroke-linejoin:miter;stroke-opacity:1"
               d="m 27.558245,130.35363 c -0.14584,-1.4618 0.09861,-2.27269 -0.695037,-2.83628 -2.376293,-1.68748 -5.94452,1.77247 -8.703699,0.83369 -0.842235,-0.28655 -1.385623,-1.09815 -1.950283,-1.82197"
               id="path911-5-6-2"
               inkscape:connector-curvature="0"
               sodipodi:nodetypes="caac" />
            <path
               style="fill:none;stroke:#df9440;stroke-width:0.26458332px;stroke-linecap:butt;stroke-linejoin:miter;stroke-opacity:1"
               d="m 27.558245,130.35363 c 0.237476,-1.44974 0.683462,-2.16973 0.06273,-2.91953 -1.858573,-2.245 -6.200707,0.17352 -8.622907,-1.44739 -0.739366,-0.49478 -1.054182,-1.41936 -1.412241,-2.26468"
               id="path911-3-6-0-0"
               inkscape:connector-curvature="0"
               sodipodi:nodetypes="caac" />
            <path
               style="fill:none;stroke:#df9440;stroke-width:0.26458332px;stroke-linecap:butt;stroke-linejoin:miter;stroke-opacity:1"
               d="m 27.558245,130.35363 c 0.604601,-1.33888 1.221738,-1.91891 0.816217,-2.80381 -1.214183,-2.64955 -6.034337,-1.43726 -7.954473,-3.62985 -0.586114,-0.66928 -0.650903,-1.64384 -0.778008,-2.55301"
               id="path911-7-2-6-2"
               inkscape:connector-curvature="0"
               sodipodi:nodetypes="caac" />
            <path
               style="fill:none;stroke:#df9440;stroke-width:0.26458332px;stroke-linecap:butt;stroke-linejoin:miter;stroke-opacity:1"
               d="m 27.558245,130.35363 c 0.930528,-1.13678 1.676758,-1.53731 1.51406,-2.49703 -0.487064,-2.87352 -5.456726,-2.95009 -6.743946,-5.56494 -0.39293,-0.79817 -0.203279,-1.75629 -0.09074,-2.66738"
               id="path911-3-5-9-2-3"
               inkscape:connector-curvature="0"
               sodipodi:nodetypes="caac" />
          </g>
        </g>
      </g>
    </g>
  </g>
</svg>
