<?xml version="1.0" encoding="UTF-8" standalone="no"?>
<!-- Created with Inkscape (http://www.inkscape.org/) -->

<svg
   xmlns:dc="http://purl.org/dc/elements/1.1/"
   xmlns:cc="http://creativecommons.org/ns#"
   xmlns:rdf="http://www.w3.org/1999/02/22-rdf-syntax-ns#"
   xmlns:svg="http://www.w3.org/2000/svg"
   xmlns="http://www.w3.org/2000/svg"
   xmlns:xlink="http://www.w3.org/1999/xlink"
   xmlns:sodipodi="http://sodipodi.sourceforge.net/DTD/sodipodi-0.dtd"
   xmlns:inkscape="http://www.inkscape.org/namespaces/inkscape"
   width="300mm"
   height="200mm"
   viewBox="0 0 300 200"
   version="1.1"
   id="svg40107"
   sodipodi:docname="berk-flag.svg"
   inkscape:version="0.92.5 (2060ec1f9f, 2020-04-08)"
   inkscape:export-filename="/home/kavi/temp.png"
   inkscape:export-xdpi="79.598381"
   inkscape:export-ydpi="79.598381">
  <metadata
     id="metadata2113">
    <rdf:RDF>
      <cc:Work
         rdf:about="">
        <dc:format>image/svg+xml</dc:format>
        <dc:type
           rdf:resource="http://purl.org/dc/dcmitype/StillImage" />
        <dc:title />
      </cc:Work>
    </rdf:RDF>
  </metadata>
  <sodipodi:namedview
     id="namedview40109"
     pagecolor="#ffffff"
     bordercolor="#666666"
     borderopacity="1.0"
     inkscape:pageshadow="2"
     inkscape:pageopacity="0.0"
     inkscape:pagecheckerboard="0"
     inkscape:document-units="mm"
     showgrid="false"
     inkscape:zoom="0.71225836"
     inkscape:cx="390.273"
     inkscape:cy="422.51712"
     inkscape:window-width="1884"
     inkscape:window-height="1037"
     inkscape:window-x="72"
     inkscape:window-y="1086"
     inkscape:window-maximized="0"
     inkscape:current-layer="layer1"
     fit-margin-top="0"
     fit-margin-left="0"
     fit-margin-right="0"
     fit-margin-bottom="0" />
  <defs
     id="defs40104">
    <style
       id="style9632">.a{fill:#fff;}.b{fill:#b71234;}.c{fill:#584528;}.d{fill:#008542;}.e{fill:#bd8a5e;}</style>
    <clipPath
       clipPathUnits="userSpaceOnUse"
       id="clipPath8770">
      <path
         style="fill:#000000;stroke:none;stroke-width:17.90430069"
         d="m -4501.9344,1666.5542 c 0,-3.6655 2.7783,-6.6645 6.1739,-6.6645 3.3956,0 6.1739,-3.0754 6.1739,-6.8344 0,-3.7591 -4.489,-5.1119 -9.9757,-3.0064 -6.7329,2.5836 -24.8864,-9.2282 -55.8439,-36.3352 -25.2276,-22.0899 -51.9938,-41.391 -59.4808,-42.8914 -66.0374,-13.2335 -87.4075,-7.5477 -114.1329,30.3681 -18.6185,26.4141 -34.0244,36.6186 -30.675,20.3182 0.9362,-4.5561 -11.8165,-10.2777 -32.413,-14.5416 -18.676,-3.8669 -47.2503,-11.5995 -63.4983,-17.1841 -16.248,-5.585 -36.2523,-10.154 -44.454,-10.154 -8.2017,0 -17.744,-4.8621 -21.2051,-10.8043 -5.8572,-10.0564 -6.306,-9.9899 -6.4807,0.9569 -0.1749,10.9664 -0.9444,11.0765 -11.3851,1.6278 -8.4586,-7.6553 -12.9393,-8.3918 -18.3193,-3.0116 -7.5837,7.5837 -7.0217,8.4699 -18.3246,-28.8991 -4.4894,-14.8431 -9.7984,-19.1352 -26.7282,-21.6087 -11.6194,-1.6979 -32.8848,-11.064 -47.2565,-20.8139 -17.5737,-11.9216 -30.612,-16.5546 -39.8166,-14.1476 -15.6256,4.0862 -56.6627,-18.1931 -50.846,-27.6046 2.2368,-3.6191 7.2898,-2.9466 12.9114,1.7191 7.892,6.5497 8.9352,5.037 7.1677,-10.3914 -2.0997,-18.3277 -8.2693,-22.0966 -49.9992,-30.5419 -14.8667,-3.0089 -16.5368,-5.5419 -12.985,-19.694 l 4.0762,-16.2404 -49.4306,3.3883 c -27.1866,1.8633 -52.8905,1.2495 -57.1198,-1.3643 -13.2656,-8.199 -15.6963,-81.1302 -3.4908,-104.7336 20.3411,-39.3352 29.7624,-81.1645 21.6819,-96.2633 -8.356,-15.6131 -6.0509,-20.1776 46.7066,-92.4822 17.3769,-23.8151 33.48,-50.8126 35.7844,-59.9942 4.9533,-19.7359 93.9694,-111.85207 133.7076,-138.36424 26.9853,-18.00392 95.6413,-58.29185 128.7506,-75.55229 8.9849,-4.68412 21.8927,-13.41506 28.684,-19.40286 39.2927,-34.64156 258.6216,-123.34181 304.9879,-123.34181 6.3526,0 25.066,-3.96048 41.5853,-8.80079 16.5191,-4.84058 49.4828,-13.40109 73.2523,-19.02427 23.7695,-5.62319 48.7738,-12.52546 55.5651,-15.33873 69.3353,-28.7225 97.0813,-48.85208 108.575,-78.77068 3.2647,-8.4982 10.5376,-13.89144 18.7329,-13.89144 7.3679,0 33.9114,-9.86726 58.9855,-21.92723 37.7569,-18.16066 52.9832,-22.06498 88.626,-22.72576 31.1123,-0.57696 43.0367,-3.05467 43.0367,-8.94189 0,-9.57612 9.9491,-10.84599 15.4347,-1.97004 2.0987,3.39582 13.695,6.17416 25.7698,6.17416 25.2178,0 131.6648,47.45648 131.6648,58.69922 0,4.01496 5.491,12.26925 12.2022,18.34282 6.7112,6.07358 10.8828,13.17758 9.2701,15.78716 -3.6363,5.88359 39.4019,31.91212 46.0118,27.82675 2.6384,-1.63058 7.8581,3.75344 11.5994,11.9647 4.4409,9.74655 15.2206,17.19589 31.0531,21.45924 13.338,3.59167 27.6929,10.67751 31.9,15.74665 4.2069,5.06913 13.0479,9.21653 19.6468,9.21653 6.5987,0 17.3715,2.87614 23.9396,6.39125 6.9862,3.73892 11.9419,3.99206 11.9419,0.60993 0,-3.17984 8.659,2.30756 19.2424,12.19381 10.5833,9.88598 25.8445,19.63197 33.9137,21.65734 8.0693,2.02508 13.0687,6.27558 11.1097,9.44536 -4.9705,8.0425 28.0176,32.79418 45.6642,34.26298 8.0154,0.6672 18.5101,4.47988 23.3216,8.47333 11.8175,9.80747 11.4264,26.6189 -0.5124,22.0376 -5.0935,-1.95468 -9.2608,-0.79405 -9.2608,2.57913 0,3.37319 6.9456,8.77369 15.4347,12.00131 8.4891,3.22733 15.4348,9.96309 15.4348,14.9674 0,13.3318 35.7513,37.63644 69.5751,47.29918 21.7808,6.22249 33.4312,14.16441 44.7608,30.51288 19.3031,27.85469 19.2173,31.8758 -0.5205,24.3717 -21.4852,-8.16879 -23.2175,-7.71141 -18.1194,4.78303 2.4245,5.94254 9.5121,31.28151 15.7501,56.30924 l 11.3418,45.50463 -16.633,18.7552 c -9.1483,10.3154 -33.4071,35.9349 -53.9085,56.932 -58.2277,59.6355 -89.4878,99.3062 -138.6495,175.9554 -25.0463,39.05 -60.5267,90.3216 -78.8452,113.9375 -40.8588,52.6737 -51.9749,73.4811 -46.6583,87.336 2.7083,7.0579 1.7412,9.2115 -2.8595,6.368 -10.258,-6.3398 -29.8069,25.6452 -21.0353,34.4167 4.9725,4.9725 3.6493,10.3146 -4.8916,19.7482 -6.4394,7.1127 -18.1274,20.744 -25.9734,30.2919 -21.6798,26.3828 -58.1631,29.245 -99.4445,7.8014 -17.6581,-9.1724 -36.9581,-19.955 -42.8887,-23.9613 -8.3323,-5.6285 -13.5753,-5.5402 -23.0684,0.3884 -16.493,10.2997 -18.6273,9.7641 -18.6273,-4.6755 0,-6.8598 4.116,-12.3478 9.2609,-12.3478 10.3194,0 10.8316,-3.5858 3.0869,-21.6087 -4.5372,-10.5585 -5.3689,-10.782 -5.7399,-1.5434 -0.3532,8.7989 -6.1925,10.8044 -31.4563,10.8044 -27.7179,0 -31.6716,1.7077 -37.1178,16.0322 -3.3524,8.8178 -11.6184,17.4767 -18.3689,19.2419 -6.7504,1.7652 -12.2735,5.961 -12.2735,9.3238 0,3.3629 -4.2647,4.478 -9.4771,2.4777 -7.2915,-2.7981 -9.0713,0.1928 -7.7174,12.9695 1.4885,14.0456 -0.784,16.8217 -14.7384,18.0042 -9.074,0.7689 -24.3544,5.4533 -33.9564,10.4101 -9.6021,4.9565 -42.1702,16.5435 -72.3736,25.7486 -57.9546,17.6627 -84.7638,17.7493 -118.238,0.3827 -9.5439,-4.9515 -19.6353,-7.5918 -22.4255,-5.8673 -9.2951,5.7447 -5.2347,15.0925 8.8182,20.3005 10.9784,4.0689 4.1818,6.6872 -32.413,12.4869 -25.4674,4.0362 -53.9445,8.7963 -63.2826,10.5781 -10.0367,1.9153 -16.9782,0.5149 -16.9782,-3.4249 z"
         id="path8772"
         inkscape:connector-curvature="0" />
    </clipPath>
    <clipPath
       clipPathUnits="userSpaceOnUse"
       id="clipPath12821">
      <path
         style="fill:#000000;stroke:#000000;stroke-width:1px;stroke-linecap:butt;stroke-linejoin:miter;stroke-opacity:1"
         d="m 1166.9098,-1467.5047 c -2.2921,-12.7792 -4.5836,-20.1834 0.314,-34.8761 7.6668,-23.0003 36.7353,-33.2359 48.6136,-53.033 4.4142,-7.357 5.3541,-17.4734 11.0485,-24.3068 5.097,-6.1163 15.706,-8.499 19.8874,-15.4679 6.4152,-10.6921 11.1891,-22.3314 17.6777,-33.1457 2.1437,-3.5728 6.3388,-5.5055 8.8388,-8.8388 2.9032,-3.8709 3.6086,-9.4825 6.6291,-13.2582 1.9522,-2.4403 4.8957,-4.029 6.6292,-6.6292 9.9754,-14.9631 14.4248,-36.003 24.3067,-50.7955 3.6516,-5.4662 9.2738,-10.1649 13.2302,-15.4402 3.8416,-5.122 0.8543,-4.8095 4.4195,-11.0485 5.4981,-9.6217 8.1329,-9.1202 15.4679,-17.6777 16.5795,-19.3427 -3.743,2.781 6.6291,-11.0485 6.9268,-9.2356 14.5743,-17.7399 22.0971,-26.5165 10.4714,-12.2166 17.3445,-28.3931 28.7262,-39.7748 11.1308,-11.1308 32.9646,-22.8723 46.4039,-30.9359 13.624,-8.1744 24.0543,-22.3561 37.6379,-30.9845 15.594,-9.9053 31.238,-17.79 45.4992,-29.6743 7.8329,-6.5274 19.6705,-17.2441 24.3068,-26.5165 4.3001,-8.6002 0.1714,-5.5561 4.4194,-15.468 1.0461,-2.441 3.3733,-4.1881 4.4194,-6.6291 13.0091,-30.3546 18.9539,-106.8208 8.8389,-137.166 -0.962,-2.8857 -5.3121,-5.5462 -6.6292,-8.8388 -7.7303,-19.3259 -29.4823,-32.6005 -48.6136,-39.7747 -9.6896,-3.6337 -21.85,-5.8566 -30.9359,-11.0486 -9.4609,-5.4062 -17.515,-13.8864 -26.5165,-19.8874 -6.5888,-4.3925 -13.368,-7.1369 -19.8874,-11.0485 -4.707,-2.8243 -9.3618,-9.3619 -13.2582,-13.2583 -10.7275,-10.7275 -22.8091,-22.5717 -35.3554,-30.9359 -4.8717,-3.2478 -14.0277,-17.2305 -17.6776,-22.0971 -8.5704,-11.4271 -38.5049,-46.8738 -50.8233,-53.033 -27.4386,-13.7191 -59.3255,-22.2469 -88.3884,-33.1456 -17.7457,-6.6547 -31.3902,-21.3448 -48.6136,-28.7262 -6.1876,-2.6519 -13.8529,-2.4079 -19.8873,-4.4194 -6.3911,-2.1304 -30.9128,-14.8982 -37.5651,-19.8874 -4.1667,-3.125 -6.9815,-7.7949 -11.0485,-11.0486 -28.9258,-23.1406 -56.7156,-48.6134 -86.1786,-70.7106 -4.9873,-3.7404 -10.4165,-5.4712 -15.468,-8.8389 -2.5497,-1.6998 -4.0795,-4.9293 -6.6291,-6.6291 -23.08037,-15.3869 -69.06549,-22.8777 -95.2813,-26.6228 -31.07368,-4.4391 -71.05945,1.5399 -101.59481,6.6291 -4.49596,-0.7674 -7.15902,3.6416 -11.04854,4.4195 -4.73374,0.9467 -10.97262,0.4115 -15.46796,2.2097 -2.46579,0.9863 -4.16334,3.4331 -6.62913,4.4194 -5.03646,2.0146 -12.17936,2.2201 -17.67767,4.4194 -9.53096,3.8124 -17.13571,11.4476 -26.5165,15.468 -7.52488,3.2249 -17.4957,3.7305 -24.3068,8.8388 -7.18336,5.3875 -13.84675,11.3428 -22.09708,15.468 -17.9137,8.9568 -38.21607,12.9557 -55.24272,24.3068 -6.62913,4.4194 4.41942,0 -6.62913,6.6291 -1.9973,1.1984 -4.63182,1.0113 -6.62912,2.2097 -5.84739,3.5084 -11.61118,10.225 -17.67767,13.2582 -1.31762,0.6588 -3.02188,-0.4658 -4.41942,0 -3.03721,1.0124 -3.18232,5.2875 -4.41942,6.5248 -1.01045,1.0106 -3.27153,-1.0053 -4.28724,0 -1.15526,1.1434 -1.05406,3.2038 -2.20971,4.3468 -5.19483,5.138 -17.56408,6.5149 -22.06904,11.0486 -1.15219,1.1595 -0.87397,3.4115 -2.18219,4.3916 -6.52879,4.8913 -16.97831,2.9649 -24.3068,6.6291 -20.61134,10.3057 6.13073,0.5417 -13.25825,4.4195 -8.46148,1.6923 -15.09876,9.5138 -24.30679,11.0485 -12.1085,2.0181 -25.67124,3.6557 -37.56505,6.6291 -2.52088,0.6302 -5.81271,3.6629 -8.83884,4.4194 -7.01292,1.7533 -14.99109,2.643 -22.09708,4.4195 -10.33395,2.5834 -20.24045,9.2659 -30.93593,11.0485 -19.32561,3.2209 10.73396,-5.9079 -17.67767,2.2097 -7.04836,2.0138 -14.65078,5.3881 -22.09708,6.6291 -2.17965,0.3633 -4.4854,-0.5359 -6.62913,0 -3.84812,0.9621 -7.20042,3.4574 -11.04854,4.4195 -2.14373,0.5359 -4.4854,-0.536 -6.62913,0 -4.28439,1.0711 -8.78219,4.7108 -13.25825,6.6291 -5.5828,2.3926 -11.91545,2.4987 -17.67767,4.4194 -10.13759,3.3792 -20.36243,8.9338 -30.93592,11.0485 -16.06576,3.2132 -32.34291,9.1807 -48.81212,13.2979 -5.55315,1.3883 -10.11487,5.2909 -15.46796,6.6292 -6.62762,1.6569 -15.77811,3.5153 -22.00646,6.6291 -5.13216,2.5658 -13.0435,8.686 -17.53201,10.9304 -1.3176,0.6588 -3.02187,-0.4658 -4.41942,0 -1.97642,0.6588 -2.55602,3.4877 -4.41941,4.4194 -5.02651,2.5133 -10.6695,3.4302 -15.46796,6.6291 -6.35205,4.2347 -12.90677,9.768 -19.88738,13.2583 -4.16667,2.0833 -9.09159,2.3361 -13.25825,4.4194 -16.699005,8.3495 -30.603518,21.4557 -46.403887,30.9359 -1.997305,1.1984 -4.765736,0.8122 -6.629126,2.2097 -1.317616,0.9883 -1.04509,3.2548 -2.209709,4.4195 -3.238693,3.2387 -9.578566,3.8693 -13.258252,6.6291 -3.333334,2.5 -5.505502,6.3389 -8.838835,8.8389 -6.974769,5.2311 -2.758795,-1.6607 -11.048544,6.6291 -1.877891,1.8778 -2.541526,4.7513 -4.419417,6.6291 -5.72349,5.7236 -14.1638875,9.7445 -19.8873776,15.468 -7.0223271,7.0223 -12.7224454,17.1422 -19.8593264,24.279 -4.318742,4.3188 -10.658204,7.4413 -15.467959,11.0486 -11.31451,8.4859 -18.38475,18.1396 -30.90841,26.4887 -3.83908,2.5594 -11.628881,4.0698 -15.467961,6.6291 -4.69471,3.1298 -8.55682,7.9143 -13.25825,11.0486 -2.74081,1.8272 -6.5096,2.0902 -8.838836,4.4194 -1.16462,1.1646 -0.94443,3.365 -2.20971,4.4194 -6.30338,5.2528 -16.10307,9.474 -22.01508,15.386 -1.16462,1.1646 -1.04509,3.2548 -2.20971,4.4194 -5.35111,2.6755 -3.2548,1.0451 -6.62913,4.4194 -3.45433,3.4543 -5.1316,7.3413 -8.81132,11.021 -8.15105,8.1511 -0.89164,-5.2916 -8.83883,6.6292 -4.48949,6.7342 -12.88849,12.7036 -17.67767,19.8873 -2.35828,3.5375 -4.08319,7.654 -6.62913,11.0486 -4.2842,5.7123 -10.64532,8.4356 -15.46796,13.2582 -3.52628,3.5263 -23.75565,26.3345 -26.51651,30.936 -1.19838,1.9973 -1.01132,4.6318 -2.2097,6.6291 -5.01937,8.3656 -13.82373,14.5175 -19.88738,22.0971 -5.46104,6.8263 -7.79722,15.2708 -13.25825,22.0971 -9.46246,11.828 -19.63155,23.2291 -28.72622,35.3553 -5.69387,7.5918 -6.16579,14.0528 -10.97571,22.0693 -1.07187,1.7864 -3.48772,2.556 -4.41942,4.4194 -0.65881,1.3176 0.28891,2.9749 0,4.4194 -1.41496,7.0749 -5.8027,13.8533 -8.83883,19.8874 -1.48856,2.9584 0.7849,9.1978 0,12.3374 -6.25281,25.0112 -2.20971,55.2917 -2.20971,81.5375 0,8.289 -8.73948,39.0027 -6.85787,43.4427 3.33386,7.8667 4.36031,15.0345 6.02437,23.3548 0.8614,4.307 4.8602,7.3788 6.62913,10.8223 1.66826,3.2475 1.16941,8.8533 1.86228,12.3176 1.40442,7.0221 7.30522,16.4359 10.30514,20.644 0.67126,0.9416 13.0971,0.5883 15.45016,0 3.19569,-0.7989 5.75453,-3.2628 8.83884,-4.4194 6.51418,-2.4428 11.83573,-0.319 17.67766,-2.2097 11.59641,-3.7531 38.3299,-14.9419 49.52586,-4.2735 4.21899,4.0202 -3.79513,20.1178 0,24.6839 0.45444,0.5468 2.98789,0.8286 3.4203,1.3765 6.10959,7.7413 10.78622,13.5709 19.68237,19.5016 5.3412,3.5608 14.95751,6.974 19.85987,11.0486 1.20284,0.9997 0.96373,2.5632 3.69867,3.8875 10.42359,5.047 22.99695,9.3787 33.14563,15.4679 6.96962,4.1818 26.058046,23.6177 30.908406,30.9082 1.96261,2.9499 4.14706,8.5665 6.62913,11.0485 4.0551,4.0551 12.444581,7.8974 17.650151,11.0208 3.86943,2.3216 8.87777,9.5768 13.21563,11.0275 1.39709,0.4672 3.10181,-0.6588 4.41942,0 0.65881,0.3294 -0.51756,1.6856 0,2.2097 0.94591,0.9578 3.15156,-1.0127 4.03855,0 8.34821,9.5309 30.045158,19.1479 44.06199941,23.8202 8.60254909,2.8675 21.79298259,4.7913 30.93592159,6.6291 0.09273,0.019 8.726636,-0.019 8.783269,0 4.357143,1.4524 10.169699,3.6625 15.46796,4.4194 9.052363,1.2932 17.771923,0.024 26.516505,2.2097 2.821372,0.7054 3.537816,2.9536 4.419417,4.3151 3.073918,4.7471 20.339741,6.1871 25.287031,8.661 9.89898,4.9501 -9.11965,-0.8357 6.54605,4.3642 2.06545,0.6855 4.41893,-0.5336 6.52878,0 10.57999,2.6753 20.17612,6.6868 30.93592,8.8388 3.5412,0.7082 7.50734,-0.7082 11.04854,0 2.83095,0.5662 33.3069,11.5816 35.05378,13.2175 0.4972,0.4656 -0.49721,1.5779 0,2.0436 0.29722,0.2783 17.22719,5.7031 19.57825,6.4934 6.84841,2.3021 40.6813,-1.4851 43.80629,-4.4194 5.24335,-4.9233 13.66246,-13.3929 21.96222,-17.5428 7.54132,-3.7707 16.38019,-4.3644 24.30679,-6.6291 3.47997,-0.9943 5.88993,-3.4354 8.78327,-4.3917 6.5171,-2.154 15.77393,2.6405 22.06957,0 12.19033,-5.1127 34.50421,-6.7609 48.7749,-3.786 16.74861,3.4914 27.00221,22.5737 35.16329,34.8153 2.60686,3.9103 8.3039,7.755 11.04854,11.0485 1.72289,2.0675 7.79506,12.6583 8.81078,13.2308 2.41942,1.3636 17.40107,5.926 21.48046,6.6059 19.35555,3.2259 35.57056,6.229 54.25763,0 5.10158,-1.7005 9.51128,-6.8869 15.36708,-8.8388 6.54349,-2.1812 13.46853,-2.8147 19.88738,-4.4195 13.56585,-3.3914 26.41927,-12.7031 41.82855,-8.8388 3.40996,0.8552 27.19349,16.1728 28.69816,17.6777 0.51425,0.5143 -0.51431,1.6676 0,2.1819 0.51438,0.5143 1.4548,0 2.1822,0 1.46397,0.7274 3.23598,1.0263 4.3919,2.1822 1.16462,1.1646 1.04509,3.2548 2.20971,4.4194 3.49386,3.4939 9.02133,4.087 13.25825,6.6291 1.78645,1.0719 2.55841,3.483 4.41942,4.4195 6.2203,3.13 22.92495,0 29.15456,0 5.23065,0 16.29649,1.8135 21.90773,0 5.80714,-1.8769 5.77413,-4.6159 13.06889,-6.4395 2.85831,-0.7146 5.94978,0.5778 8.83884,0 6.67859,-1.3358 19.75582,-5.4585 26.5165,-8.8389 9.28855,-4.6442 15.66952,-11.8523 26.51651,-15.4679 2.09631,-0.6988 4.46233,0.4333 6.62912,0 5.70436,-1.1409 3.03139,-2.0157 6.62913,-4.4195 6.89504,-4.6066 22.51667,-12.0359 30.88035,-13.2307 3.86837,-0.5526 27.80942,-4.6632 30.63328,-6.6291 1.26238,-0.8789 2.8628,-6.4005 3.68734,-7.225 1.16462,-1.1646 3.50582,-0.8393 4.41942,-2.2097 0.81715,-1.2257 -0.46585,-3.0219 0,-4.4194 1.17379,-3.5214 5.76327,-6.804 6.60107,-10.993 1.40745,-7.0372 1.16065,-15.5795 4.41942,-22.0971 6.17384,-12.3477 15.70774,-19.9726 21.63745,-32.3372 4.60806,-9.6087 3.45561,-5.9147 14.48557,-10.3267 15.2786,-6.1115 24.37543,-3.35 39.55141,1.8137 2.51419,0.8555 4.10967,3.5796 6.62913,4.4194 2.32445,0.7748 6.94449,0.4613 8.81132,2.2097 0.39322,0.3683 1.71258,3.9271 2.04409,4.0877 9.42045,4.5621 21.25723,7.8408 30.88035,11.0485 1.97642,0.6588 2.56382,3.4722 4.41942,4.4194 3.7314,1.9048 7.7966,3.6245 12.1631,5.8078 10.5336,5.2668 22.5113,7.5038 33.1456,11.0485 3,1 5.1696,3.5021 8.8389,4.4195 2.8583,0.7145 5.9497,-0.5779 8.8388,0 17.5001,3.5 35.8923,2.2097 53.928,2.2097 5.407,0 14.3703,1.0581 19.8598,0 1.8314,-0.353 4.1178,-3.2213 5.8124,-3.7861 15.083,-5.0277 18.1071,-0.031 21.4389,-17.8126 z"
         id="path12823"
         inkscape:connector-curvature="0" />
    </clipPath>
    <style
       id="style13501">.a{fill:#fff;}.b{fill:#b71234;}.c{fill:#584528;}.d{fill:#008542;}.e{fill:#bd8a5e;}</style>
    <linearGradient
       id="a">
      <stop
         stop-color="#fff"
         offset="0"
         id="stop55644" />
      <stop
         stop-color="#f15770"
         offset="1"
         id="stop55646" />
    </linearGradient>
    <radialGradient
       id="b"
       xlink:href="#a"
       gradientUnits="userSpaceOnUse"
       cx="842.31"
       cy="103.66"
       r="25.858999"
       gradientTransform="matrix(0.18574,0.04718,-0.04532,0.18635,233.798,198.77)" />
    <radialGradient
       id="c"
       xlink:href="#a"
       gradientUnits="userSpaceOnUse"
       cx="651.52002"
       cy="550.46002"
       r="25.858999"
       gradientTransform="matrix(-0.17642,-0.07067,0.06515,-0.16392,430.544,377.876)" />
    <radialGradient
       id="d"
       xlink:href="#a"
       gradientUnits="userSpaceOnUse"
       cx="380.84"
       cy="740.37"
       r="25.858999"
       gradientTransform="matrix(0.0989,0.0037,-0.0045,0.1943,442.362,123.304)" />
    <style
       id="style57185">.a{fill:#fff;}.b{fill:#b71234;}.c{fill:#584528;}.d{fill:#008542;}.e{fill:#bd8a5e;}</style>
    <clipPath
       clipPathUnits="userSpaceOnUse"
       id="clipPath58895">
      <path
         style="fill:#b3b3b3;stroke:#000000;stroke-width:1px;stroke-linecap:butt;stroke-linejoin:miter;stroke-opacity:1"
         d="m 211.48633,806.21235 c -0.128,0.71291 -0.50032,1.42382 -0.38399,2.13871 0.0714,0.43836 0.61764,0.64036 0.89294,0.98886 0.24789,0.3138 0.47938,0.64327 0.67288,0.99325 0.52525,0.94997 0.91026,1.97272 1.42929,2.92612 0.35931,0.66002 0.83308,1.26227 1.11855,1.95743 0.51058,1.24338 -0.0263,2.59977 0.24889,3.66571 0.12282,0.47574 0.49846,0.74011 0.78101,1.09767 0.91239,1.15467 0.0813,0.16537 0.67149,1.20889 0.26733,0.4726 0.75706,0.83331 1.00342,1.31671 0.47436,0.93077 0.57118,1.9943 0.90577,2.97297 0.20489,0.59928 0.50211,1.20259 0.78609,1.75985 0.21063,0.41327 0.60689,0.63745 0.89053,0.98647 0.62061,0.76368 1.52763,1.38365 2.1138,2.19112 0.81618,1.12428 -0.44416,-0.27321 0.55859,0.87864 0.54092,0.62135 1.07523,1.24007 1.45834,1.98375 0.28658,0.55628 0.55,1.18036 0.78757,1.76129 0.088,0.21535 0.0791,0.47991 0.2258,0.66047 0.0837,0.10294 0.23827,0.12511 0.33278,0.21818 0.17581,0.17312 0.594,0.76647 0.6698,0.98816 0.32466,0.94964 -0.85019,2.45986 -1.41096,3.10114 -1.45678,1.6659 -3.06628,3.11263 -5.20403,3.83462 -1.25638,0.42433 -0.4113,0.10456 -1.68463,0.36729 -1.10451,0.2279 -2.23939,0.55504 -3.31525,0.88597 -1.94601,0.59861 -3.59976,1.85687 -5.56379,2.36394 -0.31554,0.0814 -0.7828,0.006 -1.10084,0.008 -0.84571,0.006 -4.21951,-0.9323 -4.75704,-1.24844 -0.006,-0.004 -0.8917,-0.88002 -0.8936,-0.88192 -0.67311,-0.66993 -1.37762,-1.3422 -2.10249,-1.9548 -1.64539,-1.39055 -2.76301,-2.07841 -3.78536,-4.09904 -0.22166,-0.4381 -0.34368,-0.92139 -0.55754,-1.36335 -0.32112,-0.66361 -1.58683,-2.69826 -1.86685,-3.09366 -0.82972,-1.17158 -1.94941,-2.00376 -2.3739,-3.44609 -0.22922,-0.77884 -0.19427,-1.6178 -0.25264,-2.4125 -0.0212,-0.2884 -0.22022,-1.3652 -0.24637,-1.63691 -0.081,-0.84097 0.0333,-1.7029 -0.0196,-2.54636 -0.18811,-2.99953 -0.5355,-6.07856 0.61702,-8.9274 0.83168,-2.05579 2.8469,-3.57581 4.51364,-4.93033 0.42262,-0.34346 0.77872,-0.77491 1.2055,-1.11294 0.80993,-0.64149 1.77783,-1.14759 2.6867,-1.6108 0.0941,-0.048 0.25277,0.0288 0.35531,-0.003 1.79294,-0.54968 3.66566,-0.67895 5.49977,-1.03396 1.11585,-0.21598 2.21302,-0.48092 3.32777,-0.69121 0.65557,-0.12367 1.10952,-0.35461 1.76559,-0.26322 z"
         id="path58897"
         inkscape:connector-curvature="0" />
    </clipPath>
    <clipPath
       clipPathUnits="userSpaceOnUse"
       id="clipPath59333">
      <path
         class="e"
         d="m 303.79512,439.16115 c -0.71,-0.19 -1,-0.18 -1.05,0.05 -0.05,0.23 0.19,0.6 0.89,0.91 0.7,0.31 0.83,0.33 1.11,0.2 0.48,-0.22 -0.08,-0.92 -0.95,-1.16 z m 11.74,-13.23 c 0.28,0 0.81,-0.45 1.12,-0.95 0.18,-0.3 0.56,-0.84 0.84,-1.2 a 29.263,29.263 0 0 0 2,-2.84 9.577,9.577 0 0 1 1,-1.21 8.555,8.555 0 0 0 1,-1.26 7.714,7.714 0 0 1 0.66,-1 17.2,17.2 0 0 0 1.54,-2.82 6.748,6.748 0 0 0 0.23,-1.22 c 0.06,-0.77 0.06,-0.81 -0.2,-1 a 0.9,0.9 0 0 0 -0.41,-0.24 c -0.24,0 -0.54,0.43 -0.67,0.95 a 23.892,23.892 0 0 1 -2.84,5.18 l -1.2,1.38 c -0.32,0.38 -0.7,0.81 -0.84,1 a 5.858,5.858 0 0 0 -1,1.54 c -0.26,0.48 -0.66,1.15 -0.9,1.49 -0.91,1.25 -1,1.7 -0.68,2 a 0.738,0.738 0 0 0 0.35,0.2 z m 23.39,19.52 a 6.76,6.76 0 0 0 -0.64,0.81 c -0.25,0.36 -0.73,1 -1.08,1.45 a 6.024,6.024 0 0 0 -0.76,1.16 c -0.1,0.32 -0.09,0.42 0.12,0.82 0.3,0.6 0.23,0.83 -0.46,1.45 a 2.848,2.848 0 0 0 -0.56,0.6 c 0,0.14 -0.53,0.55 -1,0.74 -0.47,0.19 -0.85,0.58 -0.85,0.77 a 0.755,0.755 0 0 0 0.22,0.32 c 0.32,0.31 0.6,0.27 1.29,-0.2 0.33,-0.22 0.74,-0.47 0.9,-0.55 a 11.6,11.6 0 0 0 1.94,-1.85 c 0.2,-0.33 0.15,-0.42 -0.38,-0.78 -0.53,-0.36 -0.65,-0.66 -0.09,-1.28 0.23,-0.26 0.6,-0.72 0.82,-1 a 2.757,2.757 0 0 1 0.55,-0.63 1.784,1.784 0 0 0 0.39,-0.53 1,1 0 0 0 0.18,-0.84 c -0.07,-0.51 -0.31,-0.68 -0.59,-0.46 z m 18.69,-29.72 a 3.349,3.349 0 0 0 0.89,0.64 0.91,0.91 0 0 0 0.67,-0.69 c 0,-0.38 -0.7,-1 -1.27,-1.15 -0.57,-0.15 -0.83,0 -0.93,0.32 -0.1,0.32 -0.01,0.33 0.64,0.88 z m 159.43,66.74 a 6.479,6.479 0 0 0 -1.11,-1.52 c -0.34,-0.35 -0.4,-0.37 -0.83,-0.35 a 0.791,0.791 0 0 1 -0.73,-0.21 1.146,1.146 0 0 1 -0.32,-0.52 c -0.06,-0.26 -0.54,-0.74 -0.75,-0.74 a 7.139,7.139 0 0 1 -0.87,-0.86 9.135,9.135 0 0 1 -0.87,-1.84 5.557,5.557 0 0 1 -0.72,-0.87 c -0.91,-1.51 -0.29,-2.37 -0.69,-3.9 -0.07,-1 -0.22,-0.63 -0.55,-1.77 a 1.887,1.887 0 0 1 0,-1.55 c 0.2,-0.28 0.78,-0.51 0.94,-0.37 0.16,0.14 1,-0.06 1,-0.46 0,-0.2 -0.48,-0.73 -0.66,-0.73 a 1.207,1.207 0 0 1 -0.45,-0.29 c -0.61,-0.56 -0.26,-1.19 0.59,-1.06 a 0.573,0.573 0 0 0 0.53,-0.09 c 0.11,-0.09 0.11,-0.19 -0.14,-0.38 a 1,1 0 0 0 -0.46,-0.22 5.622,5.622 0 0 0 -1.07,0.42 c -0.7,0.34 -0.95,0.41 -1.19,0.37 -0.24,-0.04 -0.45,-0.22 -0.55,-0.75 a 0.739,0.739 0 0 1 0.19,-0.71 c 0.28,-0.38 0.27,-0.4 -0.42,-0.71 a 1.2,1.2 0 0 0 -1.28,0 c -0.31,0.22 -0.33,0.39 -0.11,0.88 a 1.75,1.75 0 0 1 -0.07,1.41 c 0,0.27 0.3,1.71 -0.16,2.06 -0.46,0.35 -0.88,0.25 -1.47,0.15 -0.21,0 -0.17,-0.54 -0.25,-0.75 -0.2,-0.52 -0.19,-0.88 0,-0.94 a 1.435,1.435 0 0 0 0.47,-0.37 c 0.26,-0.28 0.28,-0.35 0.22,-0.78 -0.06,-0.43 -0.59,-1.23 -0.92,-1.27 a 3.427,3.427 0 0 1 -1.39,-0.5 c -0.62,-0.44 -0.86,-0.49 -1.14,-0.24 -0.28,0.25 -0.23,0.28 -0.21,1.13 v 0.92 l 0.47,0.39 a 1.219,1.219 0 0 1 0.52,0.75 5.461,5.461 0 0 0 0.27,1 c -0.57,1.86 -1.79,0.87 -2.35,-0.07 a 1.747,1.747 0 0 0 -0.53,-1.55 1.316,1.316 0 0 1 -0.48,-0.85 c -0.16,-0.71 -0.44,-0.87 -0.81,-0.46 a 2.857,2.857 0 0 0 -0.57,1.53 c 0,0.37 -0.13,0.49 -0.51,0.77 -0.58,0.44 -0.67,0.79 -0.35,1.39 a 2.926,2.926 0 0 0 0.72,0.8 2.632,2.632 0 0 1 1,1.61 1.241,1.241 0 0 1 -0.72,1.07 c -0.52,-0.24 -0.65,-0.23 -0.91,0.07 -0.26,0.3 -0.24,0.41 0.31,1.56 0.41,0.86 0.52,1.51 0.27,1.69 a 2.7,2.7 0 0 1 -0.53,0.22 2.818,2.818 0 0 0 -0.49,0.18 c -0.17,0.13 -0.14,0.43 0.09,0.8 a 1.19,1.19 0 0 1 -0.1,1.55 c -0.64,0.86 -0.72,1.66 -0.2,2 0.52,0.34 1.24,-0.31 1.05,-1.08 -0.09,-0.36 -0.07,-0.46 0.16,-0.9 0.33,-0.62 0.67,-0.87 1.17,-0.87 0.5,0 0.4,0 0.75,0.57 0.49,0.74 0.53,1 0.27,1.42 -0.26,0.42 -0.26,0.55 0.05,1.36 a 2.3,2.3 0 0 1 0.23,1.11 v 0.42 a 5.729,5.729 0 0 1 0.63,-0.18 c 0.52,-0.14 0.61,-0.2 0.79,-0.53 0.18,-0.33 0.27,-0.36 0.49,-0.36 0.42,0 0.54,0.13 1.13,1.14 0.45,0.79 0.52,1 0.5,1.35 -0.02,0.35 0,0.43 -0.47,0.5 -0.47,0.07 -0.65,0.31 -0.34,0.54 0.31,0.23 0.23,0.25 0.2,0.71 -0.03,0.46 -0.06,0.55 -0.34,0.67 a 0.618,0.618 0 0 0 -0.45,0.66 1.419,1.419 0 0 0 0.46,1.17 c 0.23,0.14 0.27,0.14 0.5,0 a 0.532,0.532 0 0 0 0.26,-0.34 c 0.74,0 0.77,-0.46 1.59,-0.64 0.46,-0.42 0.89,-0.35 1.67,0.49 a 1.6,1.6 0 0 1 0.59,0.39 3.312,3.312 0 0 1 1.86,2.47 c -0.32,0.33 -0.37,0.43 -0.35,0.8 a 1.5,1.5 0 0 0 0.46,1.18 c 0.4,0.25 0.57,0.16 1.09,-0.56 a 4.275,4.275 0 0 1 0.63,-0.68 1.358,1.358 0 0 0 0.59,-1 c 0,-0.39 0.24,-0.57 0.75,-0.57 a 1.069,1.069 0 0 0 0.55,-0.11 1.219,1.219 0 0 0 0.12,-0.64 3.092,3.092 0 0 1 0.15,-0.91 c 0.93,-1.43 1.4,-2.14 2.59,-0.79 0.11,0.54 0,1.15 -0.19,1.25 a 2.965,2.965 0 0 1 -0.56,0.17 c -0.52,0.12 -0.84,0.54 -0.66,0.86 0.18,0.32 0.62,0.73 0.78,0.73 a 1.193,1.193 0 0 0 0.44,-0.21 0.532,0.532 0 0 0 0.3,-0.53 c 0,-0.46 0.21,-0.78 0.5,-0.8 0.75,-0.05 1,-1.29 0.72,-3.62 a 3.64,3.64 0 0 0 -0.32,-1.68 z m 145.97,-32.59 c -0.17,0 -0.62,0.39 -0.62,0.54 a 3.111,3.111 0 0 0 0.17,0.65 l 0.17,0.5 0.36,-0.06 c 0.41,-0.07 0.82,-0.45 0.82,-0.76 a 2,2 0 0 0 -0.9,-0.87 z m -167.09,22.96 a 0.508,0.508 0 0 0 -0.23,-0.44 c -0.2,-0.13 -0.24,-0.13 -0.41,0 a 0.662,0.662 0 0 0 -0.18,0.45 3.008,3.008 0 0 1 -0.26,0.92 c -0.29,0.71 -0.24,0.87 0.29,1.17 a 0.8,0.8 0 0 0 0.48,0.13 l 0.48,-0.15 c 0.18,0 0.33,-0.13 0.33,-0.19 a 6.129,6.129 0 0 0 -0.25,-0.86 4.624,4.624 0 0 1 -0.25,-1.03 z"
         id="path59335"
         inkscape:connector-curvature="0"
         style="fill:#bd8a5e" />
    </clipPath>
    <clipPath
       clipPathUnits="userSpaceOnUse"
       id="clipPath60290">
      <path
         style="fill:#808080;stroke:#000000;stroke-width:1px;stroke-linecap:butt;stroke-linejoin:miter;stroke-opacity:1"
         d="m 221.7376,821.66788 c -1.20303,0.036 -0.31532,-1.26316 -0.23876,-1.87787 0.0795,-0.63787 -0.11324,-1.39214 -0.43605,-1.92002 -0.19802,-0.32382 -0.91071,-0.15635 -0.95739,-0.23746 -0.59658,-1.0363 -0.54797,-2.12166 -0.55676,-3.2651 -0.003,-0.35009 0.10436,-0.96812 -0.01,-1.2676 -0.10104,-0.26519 -0.40826,-0.46326 -0.55165,-0.69814 -0.0428,-0.0702 -0.0532,-0.15567 -0.0798,-0.23351 -0.10597,-0.20793 -0.19408,-0.42597 -0.31791,-0.62379 -0.3122,-0.49875 -0.77687,-0.96018 -1.11943,-1.43834 -0.30098,-0.42013 -0.4042,-0.90961 -0.74887,-1.31148 -0.0196,-0.85372 -0.85955,-0.411 -1.18577,-0.74484 -0.46131,-0.47208 -0.30704,-0.87505 -0.45836,-1.3917 -0.25216,-0.86096 -0.46255,-1.80675 -0.53977,-2.70595 -0.2115,-2.46289 1.19936,-3.13175 2.18217,-5.09948 0.13712,-0.27455 0.21486,-0.57513 0.33419,-0.85787 0.60181,-1.42611 0.5564,-1.06012 0.98956,-2.59023 0.51371,-1.81464 0.45579,-3.57612 0.72159,-5.40388 0.13035,-0.89632 0.37786,-1.80518 0.61947,-2.67803 0.16448,-0.59424 0.49919,-1.86208 1.01999,-2.27519 0.10392,-0.0824 0.26284,-0.0419 0.38959,-0.081 0.88612,-0.27328 1.66918,-0.44383 2.61639,-0.56145 0.52827,-0.0655 4.42663,-0.28862 4.573,-0.14358 0.23013,0.22805 -0.15876,0.16371 0.31623,0.38886 1.96188,0.92995 1.05728,0.28377 3.46628,0.91755 1.23477,0.32487 2.46748,0.6744 3.65862,1.13416 0.65685,0.25353 2.79055,1.1762 3.05266,2.24604 0.0527,0.21505 0.003,0.4428 0.005,0.66421 0.01,1.24954 -0.13598,2.56274 0.12704,3.79292 0.0515,0.24083 0.70543,1.95752 0.72412,2.0124 0.30446,0.89395 0.56147,1.82291 0.62606,2.76929 0.0976,1.42972 -0.21296,2.72451 -0.46182,4.11959 -0.27643,1.54961 -0.20049,1.52279 -0.32381,3.17023 -0.0311,0.41601 -0.12535,0.82985 -0.10954,1.24673 0.006,0.17703 0.15615,0.32546 0.17582,0.50151 0.0831,0.74363 -0.0698,1.51573 0.0174,2.259 0.0154,0.13174 0.08,0.25695 0.081,0.38959 0.001,0.1571 -0.27209,0.49956 -0.30735,0.6267 -0.0612,0.22075 -0.0775,0.47515 -0.15069,0.70254 -0.16106,0.50031 -1.1171,1.17738 -1.55466,1.47088 -0.55856,0.37465 -1.03018,0.86905 -1.57421,1.24305 -0.0409,0.0281 -0.11435,-0.0346 -0.14871,0.001 -0.23798,0.24753 0.15488,0.1138 -0.31035,0.23651 -0.2991,0.0789 -0.72551,-0.0451 -1.02098,0.008 -0.83029,0.14883 -1.59045,0.93661 -2.24419,1.34468 -0.0928,0.0579 -0.22299,0.0277 -0.31767,0.0825 -0.40248,0.23303 -0.61995,0.76767 -0.90028,1.09655 -0.0848,0.0996 -0.21285,0.15261 -0.31136,0.23859 -0.45894,0.40052 -1.02243,0.83727 -1.33908,1.36177 -0.13909,0.2304 -0.15097,0.52023 -0.27488,0.75911 -0.12075,0.23281 -0.32645,0.41363 -0.45264,0.64354 -0.37016,0.67443 -1.07296,2.83648 -1.72525,3.16892 -0.27992,0.14265 -0.35366,0.0357 -0.6237,0.0828 -0.2065,0.0361 -0.19947,0.11753 -0.38958,0.081 -0.37409,-0.0718 -0.89899,-0.2657 -1.17476,-0.53726 -0.23708,-0.23347 -0.18403,-0.50019 -0.55009,-0.62011 -0.4532,-0.14847 -0.46347,-0.057 -0.93556,0.25244 -0.0587,0.0385 -1.07757,0.77243 -1.35344,0.57868 -0.0289,-0.0203 -0.0254,-0.38431 -0.003,-0.4321 0.0927,-0.20103 0.35527,0.0393 0.30325,0.0397 -0.0717,5.5e-4 0.0265,-0.14912 -0.002,-0.21499 -0.0635,-0.14814 -0.15975,-0.28002 -0.23963,-0.42003 z"
         id="path60292"
         mask="none"
         inkscape:connector-curvature="0" />
    </clipPath>
    <clipPath
       clipPathUnits="userSpaceOnUse"
       id="clipPath60754">
      <path
         style="fill:#ff2a2a;stroke:#000000;stroke-width:1px;stroke-linecap:butt;stroke-linejoin:miter;stroke-opacity:1"
         d="m 208.7453,893.67528 c -3.1452,-3.8983 -0.73085,-0.27886 -2.45528,-4.97431 -0.38979,-1.0614 -2.11951,-2.86297 -1.38822,-4.18252 0.48722,-0.87916 2.31884,-2.32515 2.84204,-3.02249 0.96588,-1.28735 1.60325,-2.82949 2.53532,-4.07619 1.06852,-1.42922 3.40955,-2.14126 4.8531,-3.10147 1.0725,-0.71341 0.60296,-1.00889 1.41215,-1.65778 1.527,-1.22448 6.13016,-2.86883 7.16522,-3.9222 0.42525,-0.43277 0.55042,-1.10494 0.97879,-1.53461 0.55236,-0.55403 0.66317,0.0874 0.97106,-0.8331 0.033,-0.0987 -0.17024,-0.18002 -0.13932,-0.27935 0.39442,-1.2662 3.11312,-5.46218 4.15142,-6.83628 0.87163,-1.15353 -0.28241,0.16621 0.004,-0.69098 0.39904,-1.19327 1.45893,-3.04819 1.8137,-4.03958 0.058,-0.16195 -0.30846,-0.30856 -0.2303,-0.46178 0.46718,-0.91586 -0.79389,-7.06161 -0.41073,-9.15669 0.0529,-0.2895 0.18671,-0.55821 0.28006,-0.83731 -0.0462,-0.32579 -0.16417,-0.64931 -0.13859,-0.97736 0.0624,-0.80061 0.57998,-1.73405 0.8402,-2.51196 1.91752,-5.73229 5.39072,-8.90837 10.20371,-12.40114 4.19588,-3.04495 4.52806,-2.37296 9.47213,-2.3617 0.71173,0.002 1.47424,-0.0982 2.2281,0.27973 0.54239,0.2719 0.99869,0.69437 1.53461,0.9788 0.70474,0.37403 2.42859,0.92459 2.9299,1.67823 0.48929,0.73558 2.64258,4.1643 2.78699,4.88892 1.69268,8.49361 -6.95285,17.67577 -10.39653,24.593 -0.82141,1.64995 -1.72485,3.28755 -2.22747,5.0608 -0.13113,0.46263 0.0438,0.96386 -0.002,1.44258 -0.1719,1.81315 -0.85924,3.26474 -1.40104,4.88459 -0.57964,1.73297 -0.11759,3.84 -0.70877,5.61138 -0.91381,2.73809 -2.07925,5.52046 -2.99616,8.26175 -0.119,0.35578 0.0457,0.79111 -0.14075,1.11666 -0.21324,0.37227 -0.6744,0.53355 -0.97807,0.8366 -1.1331,1.13076 -2.23861,2.54629 -3.52109,3.51384 -3.92052,2.95776 -9.76525,5.71289 -14.78192,5.53817 -2.11389,-0.0736 -4.97811,-1.20301 -6.63846,-1.95796 -0.12122,-0.0551 -0.5634,0.35082 -0.69966,0.34894 -1.0415,-0.0146 -2.53268,0.12018 -3.62482,0.41684 -0.95526,0.25946 -0.80573,0.81895 -1.58156,0.78874 -0.78449,-0.0306 -1.80561,-0.27496 -2.54245,-0.4228 z"
         id="path60756"
         inkscape:connector-curvature="0" />
    </clipPath>
  </defs>
  <g
     inkscape:label="Layer 1"
     inkscape:groupmode="layer"
     id="layer1"
     transform="translate(-299.76241,-564.14025)">
    <text
       xml:space="preserve"
       style="font-style:normal;font-variant:normal;font-weight:normal;font-stretch:normal;font-size:10.58329964px;line-height:1.25;font-family:'EB Garamond SC';-inkscape-font-specification:'EB Garamond SC';letter-spacing:0px;word-spacing:0px;fill:#000000;fill-opacity:1;stroke:none;stroke-width:0.26458299"
       x="-7.9467154"
       y="83.516083"
       id="text48434"><tspan
         sodipodi:role="line"
         id="tspan48432"
         style="stroke-width:0.26458299"
         x="-7.9467154"
         y="92.522469" /></text>
    <polygon
       style="fill:#584528"
       id="polygon13553"
       points=""
       class="c"
       transform="matrix(0.26458333,0,0,0.26458333,-19.900514,29.015204)" />
    <polygon
       style="fill:#584528"
       id="polygon13557"
       points=""
       class="c"
       transform="matrix(0.26458333,0,0,0.26458333,-19.900514,29.015204)" />
    <polygon
       style="fill:#584528"
       id="polygon13561"
       points=""
       class="c"
       transform="matrix(0.26458333,0,0,0.26458333,-19.900514,29.015204)" />
    <polygon
       style="fill:#ffffff"
       id="polygon13569"
       points=""
       class="a"
       transform="matrix(0.26458333,0,0,0.26458333,-19.900514,29.015204)" />
    <polygon
       style="fill:#ffffff"
       id="polygon13573"
       points=""
       class="a"
       transform="matrix(0.26458333,0,0,0.26458333,-19.900514,29.015204)" />
    <polygon
       style="fill:#ffffff"
       id="polygon13577"
       points=""
       class="a"
       transform="matrix(0.26458333,0,0,0.26458333,-19.900514,29.015204)" />
    <polygon
       style="fill:#bd8a5e"
       id="polygon13587"
       points=""
       class="e"
       transform="matrix(0.26458333,0,0,0.26458333,-19.900514,29.015204)" />
    <polygon
       style="fill:#bd8a5e"
       id="polygon13597"
       points=""
       class="e"
       transform="matrix(0.26458333,0,0,0.26458333,-19.900514,29.015204)" />
    <polygon
       style="fill:#584528"
       transform="matrix(0.26458333,0,0,0.26458333,-6.7731809,72.433633)"
       id="polygon57237"
       points=""
       class="c" />
    <polygon
       style="fill:#584528"
       transform="matrix(0.26458333,0,0,0.26458333,-6.7731809,72.433633)"
       id="polygon57241"
       points=""
       class="c" />
    <polygon
       style="fill:#584528"
       transform="matrix(0.26458333,0,0,0.26458333,-6.7731809,72.433633)"
       id="polygon57245"
       points=""
       class="c" />
    <polygon
       style="fill:#ffffff"
       transform="matrix(0.26458333,0,0,0.26458333,-6.7731809,72.433633)"
       id="polygon57253"
       points=""
       class="a" />
    <polygon
       style="fill:#ffffff"
       transform="matrix(0.26458333,0,0,0.26458333,-6.7731809,72.433633)"
       id="polygon57257"
       points=""
       class="a" />
    <polygon
       style="fill:#ffffff"
       transform="matrix(0.26458333,0,0,0.26458333,-6.7731809,72.433633)"
       id="polygon57261"
       points=""
       class="a" />
    <polygon
       style="fill:#bd8a5e"
       transform="matrix(0.26458333,0,0,0.26458333,-6.7731809,72.433633)"
       id="polygon57271"
       points=""
       class="e" />
    <polygon
       style="fill:#bd8a5e"
       transform="matrix(0.26458333,0,0,0.26458333,-6.7731809,72.433633)"
       id="polygon57281"
       points=""
       class="e" />
    <g
       style="fill:#ff6600"
       id="g1862"
       transform="matrix(0.3175,0,0,0.34769466,370.38686,302.86862)">
      <rect
         y="751.43988"
         x="-222.43921"
         height="575.21735"
         width="944.8819"
         id="rect1793"
         style="opacity:1;fill:#003262;fill-opacity:1;stroke:none;stroke-width:2.4703083;stroke-miterlimit:3.8636899;stroke-dasharray:none;stroke-opacity:1" />
      <rect
         y="1218.0262"
         x="-222.43921"
         height="108.63094"
         width="944.8819"
         id="rect1795"
         style="opacity:1;fill:#fdb515;fill-opacity:1;stroke:none;stroke-width:2.72070503;stroke-miterlimit:3.8636899;stroke-dasharray:none;stroke-opacity:1" />
    </g>
    <g
       aria-label="UNIVERSITY OF CALIFORNIA, BERKELEY"
       style="font-size:17.85898399px;line-height:1.25;font-family:Arial;-inkscape-font-specification:Arial;letter-spacing:0px;word-spacing:0px;fill:#fdb515;fill-opacity:1;stroke-width:1.33942389"
       id="text1854">
      <path
         d="m 331.31147,699.44613 v 10.02824 h 2.35446 v -10.02824 h 2.18005 v 10.94386 q 0,0.52321 -0.37497,0.89818 -0.36625,0.36625 -0.88946,0.36625 h -4.1857 q -0.52321,0 -0.89818,-0.36625 -0.36625,-0.37497 -0.36625,-0.89818 v -10.94386 z"
         style="font-style:normal;font-variant:normal;font-weight:normal;font-stretch:normal;font-family:'California Gothic';-inkscape-font-specification:'California Gothic';fill:#fdb515;fill-opacity:1;stroke-width:1.33942389"
         id="path2424" />
      <path
         d="m 342.29893,706.33509 v -6.88896 h 2.09285 v 12.20829 h -1.83124 l -2.96487,-6.57504 v 6.57504 h -2.00565 v -12.20829 h 1.83124 z"
         style="font-style:normal;font-variant:normal;font-weight:normal;font-stretch:normal;font-family:'California Gothic';-inkscape-font-specification:'California Gothic';fill:#fdb515;fill-opacity:1;stroke-width:1.33942389"
         id="path2426" />
      <path
         d="m 346.13582,699.44613 h 2.18006 v 12.20829 h -2.18006 z"
         style="font-style:normal;font-variant:normal;font-weight:normal;font-stretch:normal;font-family:'California Gothic';-inkscape-font-specification:'California Gothic';fill:#fdb515;fill-opacity:1;stroke-width:1.33942389"
         id="path2428" />
      <path
         d="m 353.5044,707.64312 1.87484,-8.19699 h 2.26726 l -2.96487,12.20829 h -2.35446 l -2.96487,-12.20829 h 2.26725 z"
         style="font-style:normal;font-variant:normal;font-weight:normal;font-stretch:normal;font-family:'California Gothic';-inkscape-font-specification:'California Gothic';fill:#fdb515;fill-opacity:1;stroke-width:1.33942389"
         id="path2430" />
      <path
         d="m 358.69292,711.65442 v -12.20829 h 6.19135 v 2.00565 h -4.0113 v 3.05207 h 3.31368 v 2.09285 h -3.31368 v 2.96487 h 4.02874 v 2.09285 z"
         style="font-style:normal;font-variant:normal;font-weight:normal;font-stretch:normal;font-family:'California Gothic';-inkscape-font-specification:'California Gothic';fill:#fdb515;fill-opacity:1;stroke-width:1.33942389"
         id="path2432" />
      <path
         d="m 368.8258,711.65442 h -2.18005 v -12.20829 h 4.66531 q 0.52322,0 0.88946,0.37497 0.37497,0.36625 0.37497,0.88946 v 4.4473 q 0,0.67146 -0.55809,1.04643 0.55809,0.37497 0.55809,1.04642 v 3.148 q 0,0.74122 0.65402,1.09875 0.0698,0.0436 0.0698,0.0872 0,0.0698 -0.0698,0.0698 h -1.49116 q -0.52321,0 -0.88946,-0.36625 -0.36625,-0.36625 -0.36625,-0.88946 v -3.2788 h -1.65684 z m 0,-6.45295 h 1.65684 v -3.57529 h -1.65684 z"
         style="font-style:normal;font-variant:normal;font-weight:normal;font-stretch:normal;font-family:'California Gothic';-inkscape-font-specification:'California Gothic';fill:#fdb515;fill-opacity:1;stroke-width:1.33942389"
         id="path2434" />
      <path
         d="m 374.3457,710.34639 v -2.72943 h 2.09285 v 1.76148 q 0,0.18313 0.18312,0.18313 h 1.901 q 0.18313,0 0.18313,-0.18313 v -2.59862 q 0,-0.18312 -0.18313,-0.18312 h -2.86894 q -0.54066,0 -0.92435,-0.38369 -0.38368,-0.39241 -0.38368,-0.93306 v -4.52579 q 0,-0.54065 0.38368,-0.92434 0.38369,-0.38369 0.92435,-0.38369 h 3.83689 q 0.54065,0 0.92434,0.38369 0.38369,0.38369 0.38369,0.92434 v 2.35446 h -2.09285 v -1.38652 q 0,-0.18312 -0.18313,-0.18312 h -1.901 q -0.18312,0 -0.18312,0.18312 v 2.59862 q 0,0.18313 0.18312,0.18313 h 2.86895 q 0.54065,0 0.92434,0.38369 0.38369,0.38369 0.38369,0.92434 v 4.53451 q 0,0.54065 -0.38369,0.92434 -0.38369,0.38369 -0.92434,0.38369 h -3.83689 q -0.54066,0 -0.92435,-0.38369 -0.38368,-0.38369 -0.38368,-0.92434 z"
         style="font-style:normal;font-variant:normal;font-weight:normal;font-stretch:normal;font-family:'California Gothic';-inkscape-font-specification:'California Gothic';fill:#fdb515;fill-opacity:1;stroke-width:1.33942389"
         id="path2436" />
      <path
         d="m 382.54269,699.44613 h 2.18005 v 12.20829 h -2.18005 z"
         style="font-style:normal;font-variant:normal;font-weight:normal;font-stretch:normal;font-family:'California Gothic';-inkscape-font-specification:'California Gothic';fill:#fdb515;fill-opacity:1;stroke-width:1.33942389"
         id="path2438" />
      <path
         d="m 388.34163,711.65442 v -10.11544 h -2.31086 v -2.09285 h 6.80176 v 2.09285 h -2.31085 v 10.11544 z"
         style="font-style:normal;font-variant:normal;font-weight:normal;font-stretch:normal;font-family:'California Gothic';-inkscape-font-specification:'California Gothic';fill:#fdb515;fill-opacity:1;stroke-width:1.33942389"
         id="path2440" />
      <path
         d="m 400.76793,699.44613 -2.39806,7.79586 v 4.41243 h -2.18005 v -4.41243 l -2.39806,-7.79586 h 2.18005 l 1.30803,5.14492 1.22083,-5.14492 z"
         style="font-style:normal;font-variant:normal;font-weight:normal;font-stretch:normal;font-family:'California Gothic';-inkscape-font-specification:'California Gothic';fill:#fdb515;fill-opacity:1;stroke-width:1.33942389"
         id="path2442" />
      <path
         d="m 413.67383,700.71056 v 9.67943 q 0,0.52321 -0.37497,0.89818 -0.36625,0.36625 -0.88946,0.36625 h -3.9241 q -0.52321,0 -0.89818,-0.36625 -0.36625,-0.37497 -0.36625,-0.89818 v -9.67943 q 0,-0.52321 0.36625,-0.88946 0.37497,-0.37497 0.89818,-0.37497 h 3.9241 q 0.52321,0 0.88946,0.37497 0.37497,0.36625 0.37497,0.88946 z m -4.2729,8.76381 h 2.09285 v -7.84819 h -2.09285 z"
         style="font-style:normal;font-variant:normal;font-weight:normal;font-stretch:normal;font-family:'California Gothic';-inkscape-font-specification:'California Gothic';fill:#fdb515;fill-opacity:1;stroke-width:1.33942389"
         id="path2444" />
      <path
         d="m 417.59793,711.65442 h -2.18006 v -12.20829 h 6.19135 v 2.00565 h -4.01129 v 3.05207 h 3.31367 v 2.09285 h -3.31367 z"
         style="font-style:normal;font-variant:normal;font-weight:normal;font-stretch:normal;font-family:'California Gothic';-inkscape-font-specification:'California Gothic';fill:#fdb515;fill-opacity:1;stroke-width:1.33942389"
         id="path2446" />
      <path
         d="m 427.97497,710.38999 v -9.67943 q 0,-0.52321 0.36625,-0.88946 0.37497,-0.37497 0.89818,-0.37497 h 3.66249 q 0.52321,0 0.88946,0.37497 0.37497,0.36625 0.37497,0.88946 v 2.61606 h -2.18005 v -1.6394 h -1.74404 v 7.69995 h 1.74404 v -1.61324 h 2.18005 v 2.61606 q 0,0.51449 -0.36625,0.88946 -0.36625,0.37497 -0.88074,0.37497 h -3.67993 q -0.52321,0 -0.89818,-0.36625 -0.36625,-0.37497 -0.36625,-0.89818 z"
         style="font-style:normal;font-variant:normal;font-weight:normal;font-stretch:normal;font-family:'California Gothic';-inkscape-font-specification:'California Gothic';fill:#fdb515;fill-opacity:1;stroke-width:1.33942389"
         id="path2448" />
      <path
         d="m 437.04399,711.65442 h -2.00565 l 3.05207,-12.20829 h 2.09285 l 3.05207,12.20829 h -2.00565 l -0.57553,-2.26725 h -3.03463 z m 1.0377,-4.0985 h 2.11029 l -1.05514,-4.1421 z"
         style="font-style:normal;font-variant:normal;font-weight:normal;font-stretch:normal;font-family:'California Gothic';-inkscape-font-specification:'California Gothic';fill:#fdb515;fill-opacity:1;stroke-width:1.33942389"
         id="path2450" />
      <path
         d="m 446.2874,709.43077 h 3.92409 v 2.22365 h -6.10414 v -12.20829 h 2.18005 z"
         style="font-style:normal;font-variant:normal;font-weight:normal;font-stretch:normal;font-family:'California Gothic';-inkscape-font-specification:'California Gothic';fill:#fdb515;fill-opacity:1;stroke-width:1.33942389"
         id="path2452" />
      <path
         d="m 451.78113,699.44613 h 2.18005 v 12.20829 h -2.18005 z"
         style="font-style:normal;font-variant:normal;font-weight:normal;font-stretch:normal;font-family:'California Gothic';-inkscape-font-specification:'California Gothic';fill:#fdb515;fill-opacity:1;stroke-width:1.33942389"
         id="path2454" />
      <path
         d="m 457.88528,711.65442 h -2.18005 v -12.20829 h 6.19134 v 2.00565 h -4.01129 v 3.05207 h 3.31368 v 2.09285 h -3.31368 z"
         style="font-style:normal;font-variant:normal;font-weight:normal;font-stretch:normal;font-family:'California Gothic';-inkscape-font-specification:'California Gothic';fill:#fdb515;fill-opacity:1;stroke-width:1.33942389"
         id="path2456" />
      <path
         d="m 469.65755,700.71056 v 9.67943 q 0,0.52321 -0.37496,0.89818 -0.36625,0.36625 -0.88947,0.36625 h -3.92409 q -0.52321,0 -0.89818,-0.36625 -0.36625,-0.37497 -0.36625,-0.89818 v -9.67943 q 0,-0.52321 0.36625,-0.88946 0.37497,-0.37497 0.89818,-0.37497 h 3.92409 q 0.52322,0 0.88947,0.37497 0.37496,0.36625 0.37496,0.88946 z m -4.2729,8.76381 h 2.09285 v -7.84819 h -2.09285 z"
         style="font-style:normal;font-variant:normal;font-weight:normal;font-stretch:normal;font-family:'California Gothic';-inkscape-font-specification:'California Gothic';fill:#fdb515;fill-opacity:1;stroke-width:1.33942389"
         id="path2458" />
      <path
         d="m 473.58166,711.65442 h -2.18005 v -12.20829 h 4.66531 q 0.52321,0 0.88946,0.37497 0.37497,0.36625 0.37497,0.88946 v 4.4473 q 0,0.67146 -0.55809,1.04643 0.55809,0.37497 0.55809,1.04642 v 3.148 q 0,0.74122 0.65401,1.09875 0.0698,0.0436 0.0698,0.0872 0,0.0698 -0.0698,0.0698 h -1.49115 q -0.52321,0 -0.88946,-0.36625 -0.36625,-0.36625 -0.36625,-0.88946 v -3.2788 h -1.65684 z m 0,-6.45295 h 1.65684 v -3.57529 h -1.65684 z"
         style="font-style:normal;font-variant:normal;font-weight:normal;font-stretch:normal;font-family:'California Gothic';-inkscape-font-specification:'California Gothic';fill:#fdb515;fill-opacity:1;stroke-width:1.33942389"
         id="path2460" />
      <path
         d="m 483.81046,706.33509 v -6.88896 h 2.09284 v 12.20829 h -1.83124 l -2.96487,-6.57504 v 6.57504 h -2.00565 v -12.20829 h 1.83125 z"
         style="font-style:normal;font-variant:normal;font-weight:normal;font-stretch:normal;font-family:'California Gothic';-inkscape-font-specification:'California Gothic';fill:#fdb515;fill-opacity:1;stroke-width:1.33942389"
         id="path2462" />
      <path
         d="m 487.64735,699.44613 h 2.18005 v 12.20829 h -2.18005 z"
         style="font-style:normal;font-variant:normal;font-weight:normal;font-stretch:normal;font-family:'California Gothic';-inkscape-font-specification:'California Gothic';fill:#fdb515;fill-opacity:1;stroke-width:1.33942389"
         id="path2464" />
      <path
         d="m 492.70506,711.65442 h -2.00564 l 3.05207,-12.20829 h 2.09285 l 3.05207,12.20829 h -2.00565 l -0.57553,-2.26725 h -3.03463 z m 1.03771,-4.0985 h 2.11029 l -1.05515,-4.1421 z"
         style="font-style:normal;font-variant:normal;font-weight:normal;font-stretch:normal;font-family:'California Gothic';-inkscape-font-specification:'California Gothic';fill:#fdb515;fill-opacity:1;stroke-width:1.33942389"
         id="path2466" />
      <path
         d="m 499.94283,713.39846 0.69762,-1.74404 h -0.87202 v -2.00565 h 2.00565 v 2.00565 l -0.95923,1.74404 z"
         style="font-style:normal;font-variant:normal;font-weight:normal;font-stretch:normal;font-family:'California Gothic';-inkscape-font-specification:'California Gothic';fill:#fdb515;fill-opacity:1;stroke-width:1.33942389"
         id="path2468" />
      <path
         d="m 508.57585,711.65442 v -12.20829 h 4.66531 q 0.52321,0 0.88946,0.37497 0.37497,0.36625 0.37497,0.88946 v 3.66249 q 0,0.39241 -0.22673,0.71505 -0.218,0.31393 -0.57553,0.46217 0.35753,0.13953 0.57553,0.46217 0.22673,0.32265 0.22673,0.71506 v 3.66249 q 0,0.52321 -0.37497,0.89818 -0.36625,0.36625 -0.88946,0.36625 z m 2.18005,-7.15057 h 1.74404 v -2.96487 h -1.74404 z m 0,5.05772 h 1.74404 v -2.96487 h -1.74404 z"
         style="font-style:normal;font-variant:normal;font-weight:normal;font-stretch:normal;font-family:'California Gothic';-inkscape-font-specification:'California Gothic';fill:#fdb515;fill-opacity:1;stroke-width:1.33942389"
         id="path2470" />
      <path
         d="m 516.24963,711.65442 v -12.20829 h 6.19135 v 2.00565 h -4.0113 v 3.05207 h 3.31368 v 2.09285 h -3.31368 v 2.96487 h 4.02874 v 2.09285 z"
         style="font-style:normal;font-variant:normal;font-weight:normal;font-stretch:normal;font-family:'California Gothic';-inkscape-font-specification:'California Gothic';fill:#fdb515;fill-opacity:1;stroke-width:1.33942389"
         id="path2472" />
      <path
         d="m 526.3825,711.65442 h -2.18005 v -12.20829 h 4.66531 q 0.52321,0 0.88946,0.37497 0.37497,0.36625 0.37497,0.88946 v 4.4473 q 0,0.67146 -0.55809,1.04643 0.55809,0.37497 0.55809,1.04642 v 3.148 q 0,0.74122 0.65402,1.09875 0.0698,0.0436 0.0698,0.0872 0,0.0698 -0.0698,0.0698 h -1.49116 q -0.52321,0 -0.88946,-0.36625 -0.36625,-0.36625 -0.36625,-0.88946 v -3.2788 h -1.65684 z m 0,-6.45295 h 1.65684 v -3.57529 h -1.65684 z"
         style="font-style:normal;font-variant:normal;font-weight:normal;font-stretch:normal;font-family:'California Gothic';-inkscape-font-specification:'California Gothic';fill:#fdb515;fill-opacity:1;stroke-width:1.33942389"
         id="path2474" />
      <path
         d="m 536.07938,705.42819 2.79919,6.22623 h -2.26726 l -2.37189,-5.25829 h -0.15697 v 5.25829 h -2.18005 v -12.20829 h 2.18005 v 5.11876 h 0.14825 l 2.20621,-5.11876 h 2.26725 z"
         style="font-style:normal;font-variant:normal;font-weight:normal;font-stretch:normal;font-family:'California Gothic';-inkscape-font-specification:'California Gothic';fill:#fdb515;fill-opacity:1;stroke-width:1.33942389"
         id="path2476" />
      <path
         d="m 540.1866,711.65442 v -12.20829 h 6.19134 v 2.00565 h -4.01129 v 3.05207 h 3.31368 v 2.09285 h -3.31368 v 2.96487 h 4.02873 v 2.09285 z"
         style="font-style:normal;font-variant:normal;font-weight:normal;font-stretch:normal;font-family:'California Gothic';-inkscape-font-specification:'California Gothic';fill:#fdb515;fill-opacity:1;stroke-width:1.33942389"
         id="path2478" />
      <path
         d="m 550.31947,709.43077 h 3.92409 v 2.22365 h -6.10414 v -12.20829 h 2.18005 z"
         style="font-style:normal;font-variant:normal;font-weight:normal;font-stretch:normal;font-family:'California Gothic';-inkscape-font-specification:'California Gothic';fill:#fdb515;fill-opacity:1;stroke-width:1.33942389"
         id="path2480" />
      <path
         d="m 555.8132,711.65442 v -12.20829 h 6.19135 v 2.00565 h -4.0113 v 3.05207 h 3.31368 v 2.09285 h -3.31368 v 2.96487 h 4.02874 v 2.09285 z"
         style="font-style:normal;font-variant:normal;font-weight:normal;font-stretch:normal;font-family:'California Gothic';-inkscape-font-specification:'California Gothic';fill:#fdb515;fill-opacity:1;stroke-width:1.33942389"
         id="path2482" />
      <path
         d="m 570.39339,699.44613 -2.39806,7.79586 v 4.41243 h -2.18005 v -4.41243 l -2.39806,-7.79586 h 2.18006 l 1.30803,5.14492 1.22083,-5.14492 z"
         style="font-style:normal;font-variant:normal;font-weight:normal;font-stretch:normal;font-family:'California Gothic';-inkscape-font-specification:'California Gothic';fill:#fdb515;fill-opacity:1;stroke-width:1.33942389"
         id="path2484" />
    </g>
    <g
       transform="matrix(0.3175,0,0,0.3175,385.84804,323.17821)"
       id="g1850">
      <g
         id="g1666"
         transform="matrix(0.125,0,0,-0.125,-134.4274,1382.7463)">
        <path
           inkscape:connector-curvature="0"
           d="m 2670.86,3913.2 192.81,-139.81 -76.89,232.98 206.58,148.55 -251.25,-0.3 -71.25,232.78 -75,-232.78 -247.5,0.3 206.59,-148.55 -76.9,-232.98 192.81,139.81 v 0"
           style="fill:#ffffff;fill-opacity:1;fill-rule:nonzero;stroke:none"
           id="path3267" />
        <path
           inkscape:connector-curvature="0"
           d="m 2652.11,4052.12 -297.5,102.5 h 236.25 l 61.25,-102.5 v 0"
           style="fill:#003262;fill-opacity:1;fill-rule:nonzero;stroke:none"
           id="path3269" />
        <path
           inkscape:connector-curvature="0"
           d="m 2669.61,4382.12 v -323.75 l 70.62,98.13 -70.62,225.62 v 0"
           style="fill:#003262;fill-opacity:1;fill-rule:nonzero;stroke:none"
           id="path3271" />
        <path
           inkscape:connector-curvature="0"
           d="m 2659.61,4039.62 -179.26,-263.93 76.13,227.68 103.13,36.25 v 0"
           style="fill:#003262;fill-opacity:1;fill-rule:nonzero;stroke:none"
           id="path3273" />
        <path
           inkscape:connector-curvature="0"
           d="m 2671.48,4037.12 188.75,-260.62 -188.75,141.87 v 118.75"
           style="fill:#003262;fill-opacity:1;fill-rule:nonzero;stroke:none"
           id="path3275" />
        <path
           inkscape:connector-curvature="0"
           d="m 2988.36,4155.25 -311.25,-109.38 105,-36.87 206.25,146.25 v 0"
           style="fill:#003262;fill-opacity:1;fill-rule:nonzero;stroke:none"
           id="path3277" />
        <path
           inkscape:connector-curvature="0"
           d="m 3337.11,4064.62 h -340 m -590,-141.87 -485,-155.63 m 465,67.5 -97.5,-60 m 305,-5 -6.88,-23.75 m 84.38,51.25 v -87.5 m -241.25,292.5 -723.75,-132.5 m 636.25,195.63 -353.75,-0.63 m 920,-62.5 755,-132.5 m -712.5,-35 97.5,-60 m -117.5,147.5 483.08,-150.97 m -666.83,-1.53 6.83,-23.47"
           style="fill:none;stroke:#ffffff;stroke-width:28.79999924;stroke-linecap:round;stroke-linejoin:miter;stroke-miterlimit:3.8636899;stroke-dasharray:none;stroke-opacity:1"
           id="path3133"
           sodipodi:nodetypes="cccccccccccccccccccccc" />
        <path
           inkscape:connector-curvature="0"
           d="m 2670.78,3913.55 192.81,-139.81 -76.9,232.98 206.59,148.55 -251.26,-0.3 -71.24,232.78 -75,-232.78 -247.5,0.3 206.58,-148.55 -76.89,-232.98 z"
           style="fill:none;stroke:#ffffff;stroke-width:28.79999924;stroke-linecap:round;stroke-linejoin:round;stroke-miterlimit:3.8636899;stroke-dasharray:none;stroke-opacity:1"
           id="path3279" />
      </g>
      <g
         transform="translate(-495.275,-75.794953)"
         id="g1638">
        <path
           inkscape:connector-curvature="0"
           d="m 829.39261,1034.2899 c -10.625,-2.8138 -16.24875,-7.5013 -24.375,-17.1888 -7.5,5.625 -15.89375,8.4025 -27.465,8.4025 -18.72625,0 -38.7,-6.2425 -47.43875,-6.2425 -13.39125,0 -27.865,3.9475 -32.3225,14.2488 -0.44625,1.03 -1.3675,4.92 -1.52375,7.0287 -0.235,-2.1487 -0.625,-4.9375 -1.5075,-6.99 -4.43625,-10.33 -18.93125,-14.2875 -32.33875,-14.2875 -8.73875,0 -28.71249,6.2425 -47.43874,6.2425 -11.5725,0 -27.46375,-8.4037 -27.46375,-8.4037 0,0 -6.20875,6.8487 -10.93875,10.3137 -4.6225,3.3863 -12.8125,7.1863 -12.8125,7.1863 v 163.2825 h 114.68749 c 0,0 0.70375,-0.9375 1.875,-2.655 h 32.8125 c 0.71875,1.41 1.5625,1.875 1.5625,1.875 h 114.6875 v -162.8125"
           style="fill:#ffffff;fill-opacity:1;fill-rule:nonzero;stroke:none;stroke-width:0.125"
           id="path3135"
           sodipodi:nodetypes="ccsscccsscccccccccc" />
        <path
           inkscape:connector-curvature="0"
           d="m 587.53637,1018.0386 c -0.12093,74.8369 5.50798,91.8738 -0.0187,159.5013 52.97739,-0.6622 61.24999,-10.6263 84.37499,-10.6263 11.235,0 21.39,9.3838 24.375,17.5 m 108.75,-167 v 159.1888 c -52.1875,1.7175 -61.25,-9.6888 -84.375,-9.6888 -11.23625,0 -21.25,9.3838 -24.235,17.5 m 120.7975,-155.125 v 158.5638 c -65.93171,-0.7804 -80.78125,-6.5625 -95.3125,-6.5625 -5.13875,0 -11.5625,4.3737 -13.125,7.5 M 575.64262,1028.6636 c 0,72.8125 0,87.625 0,160.4375 67.49124,-0.4415 82.81249,-7.8112 94.99999,-7.8112 5.1375,0 11.5625,4.3737 13.125,7.5 M 581.58012,1023.3511 c 0,72.6046 0,87.2092 0,159.8138 63.52051,-0.8829 68.43749,-8.7513 88.43749,-8.7513 11.47375,0 17.03125,7.0313 18.90625,10.7813 m 24.16,11.5225 c -0.38875,-0.76 -0.55,-1.8325 -0.87875,-2.9288 4.0625,-3.75 8.44,-4.9987 14.375,-4.9987 12.5,0 39.0625,5.4673 96.5625,5.3112 v -40.4375 M 569.39262,1032.1011 c 0,73.4379 0,88.8759 0,162.3138 66.75594,-0.4415 91.09374,-5.47 96.56249,-5.47 5.86,0 11.875,1.72 15.3125,4.8437 -0.2575,1.1825 -0.52625,2.1188 -0.9375,2.97 m 130.64375,-173.3287 -0.0188,156.8425 m 12.1875,-26.6088 v -121.25 m -120.15625,153.095 c 1.875,-3.75 8.0575,-11.095 19.53125,-11.095 17.71,0 23.12784,5.0107 68.7725,6.9275 l 19.665,-1.0687"
           style="fill:none;stroke:#003262;stroke-width:2.70000005;stroke-linecap:round;stroke-linejoin:round;stroke-miterlimit:3.8636899;stroke-dasharray:none;stroke-opacity:1"
           id="path3137"
           sodipodi:nodetypes="ccsccccccccccccccccccsccccccccsccccccc" />
        <path
           inkscape:connector-curvature="0"
           d="m 804.94511,1017.2924 c -1.25,2.5 -1.875,3.75 -4.5775,6.1362 -6.43,3.6863 -13.7475,5.5113 -23.1275,5.5113 -18.72625,0 -38.7,-6.2413 -47.43875,-6.2413 -13.39125,0 -27.865,3.9475 -32.32375,14.2475 -0.445,1.0313 -1.36625,4.92 -1.5225,7.03 -0.235,-2.1487 -0.625,-4.9375 -1.5075,-6.99 -4.43625,-10.33 -18.93,-14.2875 -32.34,-14.2875 -8.7375,0 -28.71249,6.2413 -47.43749,6.2413 -6.7325,0 -14.9275,-2.8438 -20.60375,-5.2225 -4.08125,-1.7113 -6.50875,-6.93 -6.50875,-6.93 0,0 -6.235,6.8475 -10.9775,10.3137 -4.62625,3.3813 -12.8125,7.1863 -12.8125,7.1863 v 163.2837 h 114.68749 c 0,0 0.70375,-0.9375 1.875,-2.6575 h 32.8125 c 0.71875,1.4113 1.5625,1.875 1.5625,1.875 h 114.6875 v -162.8112 c -10.625,-2.8138 -16.32125,-6.9988 -24.4475,-16.685 z"
           style="fill:none;stroke:#003262;stroke-width:2.26771641;stroke-linecap:round;stroke-linejoin:round;stroke-miterlimit:3.8636899;stroke-dasharray:none;stroke-opacity:1"
           id="path3139"
           sodipodi:nodetypes="ccsscccsscccccccccccc" />
        <path
           inkscape:connector-curvature="0"
           d="m 696.28636,1190.4136 -0.0138,-149.7775"
           style="fill:none;stroke:#003262;stroke-width:2.70000005;stroke-linecap:round;stroke-linejoin:round;stroke-miterlimit:3.8636899;stroke-dasharray:none;stroke-opacity:1"
           id="path3141"
           sodipodi:nodetypes="cc" />
        <path
           inkscape:connector-curvature="0"
           d="m 703.76761,1039.5386 c 3.8825,-6.655 9.95,-9.15 22.5,-9.6262"
           style="fill:none;stroke:#003262;stroke-width:2.70000005;stroke-linecap:round;stroke-linejoin:miter;stroke-miterlimit:3.8636899;stroke-dasharray:none;stroke-opacity:1"
           id="path3143" />
        <path
           inkscape:connector-curvature="0"
           d="m 733.14261,1030.2261 c 4.60375,1.51 15.9125,4.7613 33.1425,5.3125"
           style="fill:none;stroke:#003262;stroke-width:2.33999991;stroke-linecap:round;stroke-linejoin:miter;stroke-miterlimit:3.8636899;stroke-dasharray:none;stroke-opacity:1"
           id="path3145" />
        <path
           inkscape:connector-curvature="0"
           d="m 773.14136,1035.6536 c 5.515,0.019 11.915,-0.1262 19.37625,-0.49"
           style="fill:none;stroke:#003262;stroke-width:2.70000005;stroke-linecap:round;stroke-linejoin:miter;stroke-miterlimit:3.8636899;stroke-dasharray:none;stroke-opacity:1"
           id="path3147" />
        <path
           inkscape:connector-curvature="0"
           d="m 703.76761,1051.0386 c 4.375,-7.5 11.5225,-9.715 27.59625,-9.715 3.1325,0 5.29125,1.0075 9.13375,2.185"
           style="fill:none;stroke:#003262;stroke-width:2.33999991;stroke-linecap:round;stroke-linejoin:miter;stroke-miterlimit:3.8636899;stroke-dasharray:none;stroke-opacity:1"
           id="path3149" />
        <path
           inkscape:connector-curvature="0"
           d="m 703.76761,1075.7886 c 4.375,-7.5 11.5225,-9.715 27.59625,-9.715 2.9425,0 5.02625,0.89 8.45375,1.9738 m 47.07375,-8.455 c 1.805,-0.066 3.68,-0.1463 5.62625,-0.2413 m -60.3125,-4.75 c 8.4375,0.625 8.75,5.1838 47.8175,5.1838 m -76.255,3.9412 c 4.0075,-6.87 10.34125,-9.3062 23.73125,-9.6662 m 55.0075,-7.0175 c 3.10625,-0.08 6.43625,-0.2038 10.01125,-0.3788 m -44.9475,-1.4187 c 5.57375,1.0475 13.63,1.8975 26.19875,1.9112"
           style="fill:none;stroke:#003262;stroke-width:2.70000005;stroke-linecap:round;stroke-linejoin:miter;stroke-miterlimit:3.8636899;stroke-dasharray:none;stroke-opacity:1"
           id="path3151" />
        <path
           inkscape:connector-curvature="0"
           d="m 703.76761,1087.5386 c 2.27375,-3.8975 5.99125,-6.1512 10.625,-7.625 m 34.43,-9.6937 c 8.055,1.375 20.9375,2.3037 43.695,1.1937"
           style="fill:none;stroke:#003262;stroke-width:2.33999991;stroke-linecap:round;stroke-linejoin:miter;stroke-miterlimit:3.8636899;stroke-dasharray:none;stroke-opacity:1"
           id="path3153" />
        <path
           inkscape:connector-curvature="0"
           d="m 703.76761,1100.2886 c 4.375,-7.5 19.0625,-12.5625 32.1875,-8.5 m 46.55125,4.1738 c 2.9275,-0.08 6.67625,0.1137 10.01125,-0.049 m -37.5,-13.5 c 10.625,0.9375 23.165,1.45 37.5,0.75 m -72.5,-4.5 c 1.25,-0.625 2.8125,-0.84 8.75,-0.84 4.64125,0 10.3125,3.0275 20.625,3.965"
           style="fill:none;stroke:#003262;stroke-width:2.70000005;stroke-linecap:round;stroke-linejoin:miter;stroke-miterlimit:3.8636899;stroke-dasharray:none;stroke-opacity:1"
           id="path3155" />
        <path
           inkscape:connector-curvature="0"
           d="m 742.44136,1093.3224 c 5.1625,1.4087 13.82625,3.1537 33.82625,3.1537"
           style="fill:none;stroke:#003262;stroke-width:2.33999991;stroke-linecap:round;stroke-linejoin:miter;stroke-miterlimit:3.8636899;stroke-dasharray:none;stroke-opacity:1"
           id="path3157" />
        <path
           inkscape:connector-curvature="0"
           d="m 703.76761,1113.2886 c 3.815,-6.54 9.74,-9.0625 21.8525,-9.6"
           style="fill:none;stroke:#003262;stroke-width:2.70000005;stroke-linecap:round;stroke-linejoin:miter;stroke-miterlimit:3.8636899;stroke-dasharray:none;stroke-opacity:1"
           id="path3159" />
        <path
           inkscape:connector-curvature="0"
           d="m 731.36386,1103.5736 c 7.27,0 15.21625,5.8113 39.28125,5.8113"
           style="fill:none;stroke:#003262;stroke-width:2.33999991;stroke-linecap:round;stroke-linejoin:miter;stroke-miterlimit:3.8636899;stroke-dasharray:none;stroke-opacity:1"
           id="path3161" />
        <path
           inkscape:connector-curvature="0"
           d="m 703.76761,1126.0386 c 4.375,-7.5 11.5225,-9.715 27.59625,-9.715 4.09125,0 8.03125,1.61 15.61875,3.115 m 29.91,-10.15 c 3.6225,-0.075 11.335,-0.165 15.625,-0.375"
           style="fill:none;stroke:#003262;stroke-width:2.70000005;stroke-linecap:round;stroke-linejoin:miter;stroke-miterlimit:3.8636899;stroke-dasharray:none;stroke-opacity:1"
           id="path3163" />
        <path
           inkscape:connector-curvature="0"
           d="m 703.76761,1138.7886 c 2.7475,-4.7087 6.5875,-7.335 13.045,-8.6362 m 38.93875,-9.325 c 8.3925,1.0125 19.98,1.5925 36.76625,0.8362"
           style="fill:none;stroke:#003262;stroke-width:2.33999991;stroke-linecap:round;stroke-linejoin:miter;stroke-miterlimit:3.8636899;stroke-dasharray:none;stroke-opacity:1"
           id="path3165" />
        <path
           inkscape:connector-curvature="0"
           d="m 703.69511,1150.7299 c 4.375,-7.5 12.5,-9.715 23.125,-9.715 m 44.43125,-7.0138 c 5.9425,0.2575 4.12625,0.1663 12.44375,0.1663 m -59.30375,-4.9163 c 2.1175,-0.1225 4.4325,-0.1775 6.9725,-0.1775 6.62875,0 10.33875,3.0738 33.03125,4.5575"
           style="fill:none;stroke:#003262;stroke-width:2.70000005;stroke-linecap:round;stroke-linejoin:miter;stroke-miterlimit:3.8636899;stroke-dasharray:none;stroke-opacity:1"
           id="path3167" />
        <path
           inkscape:connector-curvature="0"
           d="m 735.68011,1142.3336 c 4.14375,0.8838 9.43875,2.0738 16.75,3.1225"
           style="fill:none;stroke:#003262;stroke-width:2.33999991;stroke-linecap:round;stroke-linejoin:miter;stroke-miterlimit:3.8636899;stroke-dasharray:none;stroke-opacity:1"
           id="path3169" />
        <path
           inkscape:connector-curvature="0"
           d="m 720.61761,1154.8399 c 2.04625,-0.1838 4.31,-0.2663 6.8275,-0.2663 7.40625,0 17.07375,5.1838 46.865,6.7625 m -70.615,2.9525 c 2.68,-4.595 6.065,-7.2062 11.3025,-8.5387 m 44.96875,-9.3588 c 8.0925,0.855 2.80875,0.9013 15.60375,0.9013"
           style="fill:none;stroke:#003262;stroke-width:2.70000005;stroke-linecap:round;stroke-linejoin:miter;stroke-miterlimit:3.8636899;stroke-dasharray:none;stroke-opacity:1"
           id="path3171"
           sodipodi:nodetypes="csccccc" />
        <path
           inkscape:connector-curvature="0"
           d="m 650.65886,1034.3749 c -6.26625,1.7887 -14.05624,1.4762 -20.95374,1.4762"
           style="fill:none;stroke:#003262;stroke-width:2.70000005;stroke-linecap:round;stroke-linejoin:miter;stroke-miterlimit:3.8636899;stroke-dasharray:none;stroke-opacity:1"
           id="path3177"
           sodipodi:nodetypes="cc" />
        <path
           inkscape:connector-curvature="0"
           d="m 640.66512,1046.3549 c -2.84875,0.34 -6.5825,0.5587 -10.0225,0.5587 m 58.12499,-7.375 c -4.375,-7.5 -13.75,-8.375 -23.75,-8.375 -2.49125,0 -5.2375,0.345 -8.19625,0.8388"
           style="fill:none;stroke:#003262;stroke-width:2.33999991;stroke-linecap:round;stroke-linejoin:miter;stroke-miterlimit:3.8636899;stroke-dasharray:none;stroke-opacity:1"
           id="path3179" />
        <path
           inkscape:connector-curvature="0"
           d="m 654.21136,1057.1111 c -6.095,1.2163 -14.03374,2.5525 -23.56874,2.5525 m 58.12499,-8.625 c -4.375,-7.5 -13.125,-8.625 -24.375,-8.625 -5.32,0 -9.6875,2.1875 -17.53,2.9738"
           style="fill:none;stroke:#003262;stroke-width:2.70000005;stroke-linecap:round;stroke-linejoin:miter;stroke-miterlimit:3.8636899;stroke-dasharray:none;stroke-opacity:1"
           id="path3181" />
        <path
           inkscape:connector-curvature="0"
           d="m 679.33011,1056.3699 c -3.325,-0.9713 -7.2425,-1.2063 -11.8125,-1.2063 -1.635,0 -5.4225,0.7438 -7.1875,1"
           style="fill:none;stroke:#003262;stroke-width:2.33999991;stroke-linecap:round;stroke-linejoin:miter;stroke-miterlimit:3.8636899;stroke-dasharray:none;stroke-opacity:1"
           id="path3183" />
        <path
           inkscape:connector-curvature="0"
           d="m 688.76761,1063.7886 c -1.01,-1.73 -2.15125,-3.1212 -3.435,-4.2362"
           style="fill:none;stroke:#003262;stroke-width:2.70000005;stroke-linecap:round;stroke-linejoin:miter;stroke-miterlimit:3.8636899;stroke-dasharray:none;stroke-opacity:1"
           id="path3185" />
        <path
           inkscape:connector-curvature="0"
           d="m 614.39512,1071.1974 c -4.33125,0.036 -9.105,0.029 -14.3775,-0.034"
           style="fill:none;stroke:#003262;stroke-width:2.33999991;stroke-linecap:round;stroke-linejoin:miter;stroke-miterlimit:3.8636899;stroke-dasharray:none;stroke-opacity:1"
           id="path3187" />
        <path
           inkscape:connector-curvature="0"
           d="m 615.64387,1095.5961 -15.62625,-0.1825 m 88.74999,-8.375 c -4.375,-7.5 -12.5,-8.625 -24.375,-8.625 -5.25375,0 -10.74,1.8975 -24.32999,3.1938 m 48.70499,-6.0688 c -1.46375,-2.5087 -5.51,-5.9087 -7.8125,-7.1875 m -5.865,-0.8575 c -3.1425,-0.4525 -6.70875,-0.58 -10.6975,-0.58 -7.385,0 -10.3225,3.48 -43.10999,4.1825"
           style="fill:none;stroke:#003262;stroke-width:2.70000005;stroke-linecap:round;stroke-linejoin:miter;stroke-miterlimit:3.8636899;stroke-dasharray:none;stroke-opacity:1"
           id="path3189" />
        <path
           inkscape:connector-curvature="0"
           d="m 671.28761,1091.2736 c -8.77,-1.36 -23.41875,3.7313 -49.37624,4.265"
           style="fill:none;stroke:#003262;stroke-width:2.33999991;stroke-linecap:round;stroke-linejoin:miter;stroke-miterlimit:3.8636899;stroke-dasharray:none;stroke-opacity:1"
           id="path3191" />
        <path
           inkscape:connector-curvature="0"
           d="m 610.33012,1082.7761 c -2.38625,-0.019 -7.6975,-0.056 -10.3125,-0.1125 m 88.74999,17.125 c -1.5625,-3.3125 -4.6875,-7.0625 -10.65375,-7.855"
           style="fill:none;stroke:#003262;stroke-width:2.70000005;stroke-linecap:round;stroke-linejoin:miter;stroke-miterlimit:3.8636899;stroke-dasharray:none;stroke-opacity:1"
           id="path3193" />
        <path
           inkscape:connector-curvature="0"
           d="m 618.76887,1108.8074 c -5.475,0.081 -11.6825,0.048 -18.75125,-0.1438 m 33.7325,-26.5475 c -5.04375,0.3375 -10.99875,0.5813 -18.11,0.6525"
           style="fill:none;stroke:#003262;stroke-width:2.33999991;stroke-linecap:round;stroke-linejoin:miter;stroke-miterlimit:3.8636899;stroke-dasharray:none;stroke-opacity:1"
           id="path3195" />
        <path
           inkscape:connector-curvature="0"
           d="m 633.77762,1120.6599 c -8.38875,0.5287 -19.2875,0.8612 -33.76,0.7537 m 88.74999,-8.375 c -4.375,-7.5 -12.1875,-10.3125 -24.375,-8.3125 m -6.875,0.5 c -6.04375,1.05 -18.43499,2.9888 -33.12374,3.4525"
           style="fill:none;stroke:#003262;stroke-width:2.70000005;stroke-linecap:round;stroke-linejoin:miter;stroke-miterlimit:3.8636899;stroke-dasharray:none;stroke-opacity:1"
           id="path3197" />
        <path
           inkscape:connector-curvature="0"
           d="m 672.36136,1116.7886 c -13.11125,0 -16.73125,2.1388 -33.61249,3.5138"
           style="fill:none;stroke:#003262;stroke-width:2.33999991;stroke-linecap:round;stroke-linejoin:miter;stroke-miterlimit:3.8636899;stroke-dasharray:none;stroke-opacity:1"
           id="path3199" />
        <path
           inkscape:connector-curvature="0"
           d="m 659.39261,1130.5386 c -6.6375,1.0925 -20.62499,3.4238 -41.86874,3.4238 m -5.63875,0.1125 c -3.6625,0.057 -7.60875,0.089 -11.8675,0.089 m 88.74999,-8.375 c -0.9375,-2.5938 -3.90625,-7.2813 -9.91,-8.2225"
           style="fill:none;stroke:#003262;stroke-width:2.70000005;stroke-linecap:round;stroke-linejoin:miter;stroke-miterlimit:3.8636899;stroke-dasharray:none;stroke-opacity:1"
           id="path3201" />
        <path
           inkscape:connector-curvature="0"
           d="m 688.76761,1138.5386 c -4.375,-7.5 -10,-10.1875 -22.5,-9"
           style="fill:none;stroke:#003262;stroke-width:2.33999991;stroke-linecap:round;stroke-linejoin:miter;stroke-miterlimit:3.8636899;stroke-dasharray:none;stroke-opacity:1"
           id="path3203" />
        <path
           inkscape:connector-curvature="0"
           d="m 625.53887,1146.7261 c -6.795,0.3838 -15.16125,0.6288 -25.59375,0.6288"
           style="fill:none;stroke:#003262;stroke-width:2.70000005;stroke-linecap:round;stroke-linejoin:miter;stroke-miterlimit:3.8636899;stroke-dasharray:none;stroke-opacity:1"
           id="path3205" />
        <path
           inkscape:connector-curvature="0"
           d="m 646.97636,1144.4174 c -4.84375,1.25 -9.94874,1.3987 -15.46874,1.875"
           style="fill:none;stroke:#003262;stroke-width:2.33999991;stroke-linecap:round;stroke-linejoin:miter;stroke-miterlimit:3.8636899;stroke-dasharray:none;stroke-opacity:1"
           id="path3207" />
        <path
           inkscape:connector-curvature="0"
           d="m 606.58137,1161.1074 c -2.12875,0.036 -4.33875,0.056 -6.63625,0.056 m 88.74999,-10.6838 c -4.375,-7.5 -9.53125,-9.5 -21.875,-9.5 -2.8525,0 -10.0775,1.42 -13.59375,2.1875"
           style="fill:none;stroke:#003262;stroke-width:2.70000005;stroke-linecap:round;stroke-linejoin:miter;stroke-miterlimit:3.8636899;stroke-dasharray:none;stroke-opacity:1"
           id="path3209" />
        <path
           inkscape:connector-curvature="0"
           d="m 643.11136,1158.2861 c -8.47874,1.94 -16.37624,2.2063 -28.77749,2.655"
           style="fill:none;stroke:#003262;stroke-width:2.33999991;stroke-linecap:round;stroke-linejoin:miter;stroke-miterlimit:3.8636899;stroke-dasharray:none;stroke-opacity:1"
           id="path3211" />
        <path
           inkscape:connector-curvature="0"
           d="m 688.69511,1164.0386 c -1.59,-2.725 -2.82125,-3.5862 -4.6875,-5.0625 m -4.6875,-2.6562 c -4.0625,-2.1875 -8.52125,-1.9963 -13.75,-1.9963 -3.99625,0 -8.78,1.43 -16.89625,2.9825"
           style="fill:none;stroke:#003262;stroke-width:2.70000005;stroke-linecap:round;stroke-linejoin:miter;stroke-miterlimit:3.8636899;stroke-dasharray:none;stroke-opacity:1"
           id="path3213"
           sodipodi:nodetypes="cccsc" />
        <path
           inkscape:connector-curvature="0"
           d="m 612.04887,1035.0699 c 8.125,0.3912 11.09375,-0.077 11.09375,7.3437 v 11.875 c 0,7.3438 -6.525,6.3088 -11.5625,5.9375 -5.16375,-0.3812 -11.01625,0.9375 -10.9375,-8.125 v -12.0312 c 0,-7.6563 7.3475,-5.195 11.40625,-5 z"
           style="fill:none;stroke:#003262;stroke-width:2.70000005;stroke-linecap:round;stroke-linejoin:round;stroke-miterlimit:10;stroke-dasharray:none;stroke-opacity:1"
           id="path3231" />
      </g>
    </g>
  </g>
</svg>
