<?xml version="1.0" encoding="UTF-8" standalone="no"?>
<!-- Created with Inkscape (http://www.inkscape.org/) -->

<svg
   xmlns:dc="http://purl.org/dc/elements/1.1/"
   xmlns:cc="http://creativecommons.org/ns#"
   xmlns:rdf="http://www.w3.org/1999/02/22-rdf-syntax-ns#"
   xmlns:svg="http://www.w3.org/2000/svg"
   xmlns="http://www.w3.org/2000/svg"
   xmlns:xlink="http://www.w3.org/1999/xlink"
   xmlns:sodipodi="http://sodipodi.sourceforge.net/DTD/sodipodi-0.dtd"
   xmlns:inkscape="http://www.inkscape.org/namespaces/inkscape"
   width="768.80359mm"
   height="512.53571mm"
   viewBox="0 0 768.80359 512.53571"
   version="1.1"
   id="svg8"
   inkscape:version="0.92.5 (2060ec1f9f, 2020-04-08)"
   sodipodi:docname="china-thin-blue-line.svg">
  <defs
     id="defs2">
    <path
       d="M 0,-1 0.587785,0.809017 -0.951057,-0.309017 H 0.951057 L -0.587785,0.809017 Z"
       id="s"
       inkscape:connector-curvature="0"
       style="fill:#ffffff" />
  </defs>
  <sodipodi:namedview
     id="base"
     pagecolor="#ffffff"
     bordercolor="#666666"
     borderopacity="1.0"
     inkscape:pageopacity="0.0"
     inkscape:pageshadow="2"
     inkscape:zoom="0.7"
     inkscape:cx="1016.2188"
     inkscape:cy="1337.1554"
     inkscape:document-units="mm"
     inkscape:current-layer="g891"
     showgrid="false"
     inkscape:window-width="1848"
     inkscape:window-height="1016"
     inkscape:window-x="72"
     inkscape:window-y="27"
     inkscape:window-maximized="1" />
  <metadata
     id="metadata5">
    <rdf:RDF>
      <cc:Work
         rdf:about="">
        <dc:format>image/svg+xml</dc:format>
        <dc:type
           rdf:resource="http://purl.org/dc/dcmitype/StillImage" />
        <dc:title />
      </cc:Work>
    </rdf:RDF>
  </metadata>
  <g
     inkscape:label="Layer 1"
     inkscape:groupmode="layer"
     id="layer1"
     transform="translate(451.49273,113.45988)">
    <g
       id="g891"
       transform="matrix(25.626786,0,0,25.626786,-451.49273,-113.45988)">
      <rect
         id="rect866"
         height="20"
         width="30"
         x="0"
         y="0"
         style="fill:#000000" />
      <use
         id="use868"
         transform="matrix(3,0,0,3,5,5)"
         xlink:href="#s"
         x="0"
         y="0"
         width="100%"
         height="100%"
         style="fill:#ffffff" />
      <path
         style="color:#000000;overflow:visible;opacity:1;fill:#0000ff;fill-opacity:1;fill-rule:evenodd;stroke:none;stroke-width:53.9932518;stroke-miterlimit:4;stroke-dasharray:none;stroke-dashoffset:536.69293213;stroke-opacity:1"
         d="m 976.13908,262.81069 c -6.97052,-11.68853 -14.75412,-24.53878 -17.29688,-28.55611 l -4.62321,-7.30425 -32.62738,7.55794 c -17.94505,4.15686 -32.75795,7.42735 -32.91754,7.26776 -0.15959,-0.15959 9.66215,-11.74573 21.82608,-25.74697 l 22.11625,-25.4568 -3.65151,-6.23084 c -2.00834,-3.42697 -9.7267,-16.3511 -17.15192,-28.72029 -7.42522,-12.3692 -13.32256,-22.66728 -13.10521,-22.88463 0.21735,-0.21735 13.05513,5.01099 28.52839,11.61853 15.47327,6.60754 29.36662,12.40518 30.8741,12.88364 2.20316,0.69925 7.01609,-4.04406 24.53274,-24.17787 11.98553,-13.77628 22.03041,-24.80923 22.32201,-24.51765 0.2916,0.29157 -0.7917,15.19399 -2.4073,33.1165 -1.6156,17.9225 -2.4492,33.0077 -1.8525,33.52267 0.5968,0.51497 14.451,6.61981 30.7873,13.56632 17.3555,7.37988 28.9354,13.04196 27.8572,13.62101 -1.0149,0.54504 -15.3452,4.047 -31.8452,7.78215 -16.5,3.73514 -30.41723,7.18687 -30.92715,7.67052 -0.50992,0.48365 -2.00739,14.05793 -3.32772,30.16507 -1.32033,16.10715 -2.85875,30.81335 -3.41873,32.68045 -0.88441,2.94882 -2.68278,0.60337 -13.69182,-17.85715 z"
         id="path827"
         inkscape:connector-curvature="0"
         transform="scale(0.01032448)" />
      <path
         style="color:#000000;overflow:visible;opacity:1;fill:#0000ff;fill-opacity:1;fill-rule:evenodd;stroke:none;stroke-width:53.9932518;stroke-miterlimit:4;stroke-dasharray:none;stroke-dashoffset:536.69293213;stroke-opacity:1"
         d="m 1110.3501,753.34454 c 2.2435,-6.53508 17.9259,-62.90645 17.5817,-63.1988 -0.235,-0.19961 -12.7799,-8.71573 -27.8774,-18.92471 l -27.4501,-18.56178 7.4501,-0.89494 c 4.0975,-0.49222 15.1644,-0.97567 24.5929,-1.07433 9.4286,-0.0987 21.301,-0.5864 26.383,-1.08385 l 9.2402,-0.90445 8.9746,-31.42857 c 4.936,-17.28572 9.141,-31.92853 9.3444,-32.5396 0.2035,-0.61106 5.4472,12.88894 11.6526,30 6.2055,17.11107 11.7229,31.62 12.2608,32.24208 0.5379,0.62207 16.0261,0.53249 34.4183,-0.19907 18.3922,-0.73157 33.5329,-1.24054 33.6458,-1.13105 0.113,0.10948 -11.9155,9.7053 -26.7299,21.32404 -26.39,20.69718 -26.9053,21.20344 -25.4445,25 8.5678,22.26735 21.1813,57.99605 20.6591,58.51825 -0.3644,0.36442 -12.5688,-7.44194 -27.1209,-17.34747 -14.552,-9.90552 -27.1831,-18.01004 -28.069,-18.01004 -0.8859,0 -13.0906,9 -27.1216,20 -14.031,11 -25.8467,20 -26.257,20 -0.4104,0 -0.4703,-0.80357 -0.1331,-1.78571 z"
         id="path831"
         inkscape:connector-curvature="0"
         transform="scale(0.01032448)" />
      <path
         style="color:#000000;overflow:visible;opacity:1;fill:#0000ff;fill-opacity:1;fill-rule:evenodd;stroke:none;stroke-width:53.9932518;stroke-miterlimit:4;stroke-dasharray:none;stroke-dashoffset:536.69293213;stroke-opacity:1"
         d="m 1141.1566,446.50075 c -2.6385,-18.8252 -5.1668,-34.22764 -5.6185,-34.22764 -1.3073,0 -59.0819,-9.95129 -63.0336,-10.85713 -2.9046,-0.66582 2.0964,-3.57637 26.7857,-15.58897 24.0217,-11.68777 30.3571,-15.3489 30.3571,-17.54272 0,-1.52484 -1.9706,-16.42339 -4.3791,-33.1079 -2.4085,-16.68451 -4.1088,-30.60585 -3.7783,-30.9363 0.3304,-0.33046 10.7282,10.02036 23.1062,23.00181 12.378,12.98145 23.4058,23.60264 24.5062,23.60264 1.1005,0 14.9212,-6.46635 30.7128,-14.36967 15.7916,-7.90332 28.9242,-14.15739 29.1837,-13.89794 0.2594,0.25945 -6.6119,13.82722 -15.2695,30.1506 l -15.7413,29.67887 23.2103,23.78267 c 12.7656,13.08047 22.5333,24.00831 21.706,24.28409 -1.2245,0.40819 -53.3277,-8.14025 -62.151,-10.19696 -1.9385,-0.45185 -5.8769,5.88447 -18.4229,29.63966 -8.7765,16.61792 -16.0516,30.34898 -16.1669,30.51346 -0.1152,0.16449 -2.3683,-15.10337 -5.0069,-33.92857 z"
         id="path829"
         inkscape:connector-curvature="0"
         transform="scale(0.01032448)" />
      <path
         style="color:#000000;overflow:visible;opacity:1;fill:#0000ff;fill-opacity:1;fill-rule:evenodd;stroke:none;stroke-width:53.9932518;stroke-miterlimit:4;stroke-dasharray:none;stroke-dashoffset:536.69293213;stroke-opacity:1"
         d="m 974.82372,934.39419 c -10.11728,-15.30945 -19.34194,-27.83537 -20.49923,-27.83537 -1.95089,0 -58.60839,15.12928 -63.12861,16.85726 -1.11258,0.42531 7.18562,-10.74715 18.44046,-24.82769 11.25484,-14.08055 20.97764,-26.27745 21.60622,-27.10423 0.67061,-0.88205 -6.47964,-13.13124 -17.3035,-29.64285 -10.14551,-15.4768 -17.89759,-28.13963 -17.22683,-28.13963 0.67075,0 14.76948,5.14286 31.33052,11.42857 16.56104,6.28571 30.39086,11.42857 30.73293,11.42857 0.34208,0 10.11196,-11.88761 21.71084,-26.41692 11.59889,-14.5293 21.19738,-26.26145 21.32998,-26.07143 0.1326,0.19002 -0.2756,10.95264 -0.9071,23.91692 -0.6315,12.96429 -1.34239,28.14013 -1.57972,33.72409 l -0.4315,10.15267 31.76532,11.98316 c 30.6308,11.55515 31.6009,12.03925 27.1603,13.55354 -2.5328,0.8637 -17.2425,4.98461 -32.6883,9.15757 l -28.08322,7.5872 -0.93374,17.99231 c -0.51355,9.89578 -1.37609,25.21466 -1.91676,34.04198 l -0.98302,16.04964 z"
         id="path833"
         inkscape:connector-curvature="0"
         transform="scale(0.01032448)" />
    </g>
  </g>
</svg>
