<?xml version="1.0" encoding="UTF-8" standalone="no"?>
<!-- Created with Inkscape (http://www.inkscape.org/) -->

<svg
   xmlns:dc="http://purl.org/dc/elements/1.1/"
   xmlns:cc="http://creativecommons.org/ns#"
   xmlns:rdf="http://www.w3.org/1999/02/22-rdf-syntax-ns#"
   xmlns:svg="http://www.w3.org/2000/svg"
   xmlns="http://www.w3.org/2000/svg"
   xmlns:xlink="http://www.w3.org/1999/xlink"
   xmlns:sodipodi="http://sodipodi.sourceforge.net/DTD/sodipodi-0.dtd"
   xmlns:inkscape="http://www.inkscape.org/namespaces/inkscape"
   width="798.38965mm"
   height="501.94116mm"
   viewBox="0 0 798.38966 501.94116"
   version="1.1"
   id="svg40107"
   sodipodi:docname="foundation-empire-flag.svg"
   inkscape:version="0.92.5 (2060ec1f9f, 2020-04-08)"
   inkscape:export-filename="/home/kavi/temp.png"
   inkscape:export-xdpi="79.598381"
   inkscape:export-ydpi="79.598381">
  <metadata
     id="metadata2113">
    <rdf:RDF>
      <cc:Work
         rdf:about="">
        <dc:format>image/svg+xml</dc:format>
        <dc:type
           rdf:resource="http://purl.org/dc/dcmitype/StillImage" />
        <dc:title />
      </cc:Work>
    </rdf:RDF>
  </metadata>
  <sodipodi:namedview
     id="namedview40109"
     pagecolor="#ffffff"
     bordercolor="#666666"
     borderopacity="1.0"
     inkscape:pageshadow="2"
     inkscape:pageopacity="0.0"
     inkscape:pagecheckerboard="0"
     inkscape:document-units="mm"
     showgrid="false"
     inkscape:zoom="0.28315273"
     inkscape:cx="1604.1117"
     inkscape:cy="915.84736"
     inkscape:window-width="1884"
     inkscape:window-height="1037"
     inkscape:window-x="1956"
     inkscape:window-y="27"
     inkscape:window-maximized="0"
     inkscape:current-layer="layer1"
     fit-margin-top="0"
     fit-margin-left="0"
     fit-margin-right="0"
     fit-margin-bottom="0" />
  <defs
     id="defs40104">
    <style
       id="style9632">.a{fill:#fff;}.b{fill:#b71234;}.c{fill:#584528;}.d{fill:#008542;}.e{fill:#bd8a5e;}</style>
    <clipPath
       clipPathUnits="userSpaceOnUse"
       id="clipPath8770">
      <path
         style="fill:#000000;stroke:none;stroke-width:17.90430069"
         d="m -4501.9344,1666.5542 c 0,-3.6655 2.7783,-6.6645 6.1739,-6.6645 3.3956,0 6.1739,-3.0754 6.1739,-6.8344 0,-3.7591 -4.489,-5.1119 -9.9757,-3.0064 -6.7329,2.5836 -24.8864,-9.2282 -55.8439,-36.3352 -25.2276,-22.0899 -51.9938,-41.391 -59.4808,-42.8914 -66.0374,-13.2335 -87.4075,-7.5477 -114.1329,30.3681 -18.6185,26.4141 -34.0244,36.6186 -30.675,20.3182 0.9362,-4.5561 -11.8165,-10.2777 -32.413,-14.5416 -18.676,-3.8669 -47.2503,-11.5995 -63.4983,-17.1841 -16.248,-5.585 -36.2523,-10.154 -44.454,-10.154 -8.2017,0 -17.744,-4.8621 -21.2051,-10.8043 -5.8572,-10.0564 -6.306,-9.9899 -6.4807,0.9569 -0.1749,10.9664 -0.9444,11.0765 -11.3851,1.6278 -8.4586,-7.6553 -12.9393,-8.3918 -18.3193,-3.0116 -7.5837,7.5837 -7.0217,8.4699 -18.3246,-28.8991 -4.4894,-14.8431 -9.7984,-19.1352 -26.7282,-21.6087 -11.6194,-1.6979 -32.8848,-11.064 -47.2565,-20.8139 -17.5737,-11.9216 -30.612,-16.5546 -39.8166,-14.1476 -15.6256,4.0862 -56.6627,-18.1931 -50.846,-27.6046 2.2368,-3.6191 7.2898,-2.9466 12.9114,1.7191 7.892,6.5497 8.9352,5.037 7.1677,-10.3914 -2.0997,-18.3277 -8.2693,-22.0966 -49.9992,-30.5419 -14.8667,-3.0089 -16.5368,-5.5419 -12.985,-19.694 l 4.0762,-16.2404 -49.4306,3.3883 c -27.1866,1.8633 -52.8905,1.2495 -57.1198,-1.3643 -13.2656,-8.199 -15.6963,-81.1302 -3.4908,-104.7336 20.3411,-39.3352 29.7624,-81.1645 21.6819,-96.2633 -8.356,-15.6131 -6.0509,-20.1776 46.7066,-92.4822 17.3769,-23.8151 33.48,-50.8126 35.7844,-59.9942 4.9533,-19.7359 93.9694,-111.85207 133.7076,-138.36424 26.9853,-18.00392 95.6413,-58.29185 128.7506,-75.55229 8.9849,-4.68412 21.8927,-13.41506 28.684,-19.40286 39.2927,-34.64156 258.6216,-123.34181 304.9879,-123.34181 6.3526,0 25.066,-3.96048 41.5853,-8.80079 16.5191,-4.84058 49.4828,-13.40109 73.2523,-19.02427 23.7695,-5.62319 48.7738,-12.52546 55.5651,-15.33873 69.3353,-28.7225 97.0813,-48.85208 108.575,-78.77068 3.2647,-8.4982 10.5376,-13.89144 18.7329,-13.89144 7.3679,0 33.9114,-9.86726 58.9855,-21.92723 37.7569,-18.16066 52.9832,-22.06498 88.626,-22.72576 31.1123,-0.57696 43.0367,-3.05467 43.0367,-8.94189 0,-9.57612 9.9491,-10.84599 15.4347,-1.97004 2.0987,3.39582 13.695,6.17416 25.7698,6.17416 25.2178,0 131.6648,47.45648 131.6648,58.69922 0,4.01496 5.491,12.26925 12.2022,18.34282 6.7112,6.07358 10.8828,13.17758 9.2701,15.78716 -3.6363,5.88359 39.4019,31.91212 46.0118,27.82675 2.6384,-1.63058 7.8581,3.75344 11.5994,11.9647 4.4409,9.74655 15.2206,17.19589 31.0531,21.45924 13.338,3.59167 27.6929,10.67751 31.9,15.74665 4.2069,5.06913 13.0479,9.21653 19.6468,9.21653 6.5987,0 17.3715,2.87614 23.9396,6.39125 6.9862,3.73892 11.9419,3.99206 11.9419,0.60993 0,-3.17984 8.659,2.30756 19.2424,12.19381 10.5833,9.88598 25.8445,19.63197 33.9137,21.65734 8.0693,2.02508 13.0687,6.27558 11.1097,9.44536 -4.9705,8.0425 28.0176,32.79418 45.6642,34.26298 8.0154,0.6672 18.5101,4.47988 23.3216,8.47333 11.8175,9.80747 11.4264,26.6189 -0.5124,22.0376 -5.0935,-1.95468 -9.2608,-0.79405 -9.2608,2.57913 0,3.37319 6.9456,8.77369 15.4347,12.00131 8.4891,3.22733 15.4348,9.96309 15.4348,14.9674 0,13.3318 35.7513,37.63644 69.5751,47.29918 21.7808,6.22249 33.4312,14.16441 44.7608,30.51288 19.3031,27.85469 19.2173,31.8758 -0.5205,24.3717 -21.4852,-8.16879 -23.2175,-7.71141 -18.1194,4.78303 2.4245,5.94254 9.5121,31.28151 15.7501,56.30924 l 11.3418,45.50463 -16.633,18.7552 c -9.1483,10.3154 -33.4071,35.9349 -53.9085,56.932 -58.2277,59.6355 -89.4878,99.3062 -138.6495,175.9554 -25.0463,39.05 -60.5267,90.3216 -78.8452,113.9375 -40.8588,52.6737 -51.9749,73.4811 -46.6583,87.336 2.7083,7.0579 1.7412,9.2115 -2.8595,6.368 -10.258,-6.3398 -29.8069,25.6452 -21.0353,34.4167 4.9725,4.9725 3.6493,10.3146 -4.8916,19.7482 -6.4394,7.1127 -18.1274,20.744 -25.9734,30.2919 -21.6798,26.3828 -58.1631,29.245 -99.4445,7.8014 -17.6581,-9.1724 -36.9581,-19.955 -42.8887,-23.9613 -8.3323,-5.6285 -13.5753,-5.5402 -23.0684,0.3884 -16.493,10.2997 -18.6273,9.7641 -18.6273,-4.6755 0,-6.8598 4.116,-12.3478 9.2609,-12.3478 10.3194,0 10.8316,-3.5858 3.0869,-21.6087 -4.5372,-10.5585 -5.3689,-10.782 -5.7399,-1.5434 -0.3532,8.7989 -6.1925,10.8044 -31.4563,10.8044 -27.7179,0 -31.6716,1.7077 -37.1178,16.0322 -3.3524,8.8178 -11.6184,17.4767 -18.3689,19.2419 -6.7504,1.7652 -12.2735,5.961 -12.2735,9.3238 0,3.3629 -4.2647,4.478 -9.4771,2.4777 -7.2915,-2.7981 -9.0713,0.1928 -7.7174,12.9695 1.4885,14.0456 -0.784,16.8217 -14.7384,18.0042 -9.074,0.7689 -24.3544,5.4533 -33.9564,10.4101 -9.6021,4.9565 -42.1702,16.5435 -72.3736,25.7486 -57.9546,17.6627 -84.7638,17.7493 -118.238,0.3827 -9.5439,-4.9515 -19.6353,-7.5918 -22.4255,-5.8673 -9.2951,5.7447 -5.2347,15.0925 8.8182,20.3005 10.9784,4.0689 4.1818,6.6872 -32.413,12.4869 -25.4674,4.0362 -53.9445,8.7963 -63.2826,10.5781 -10.0367,1.9153 -16.9782,0.5149 -16.9782,-3.4249 z"
         id="path8772"
         inkscape:connector-curvature="0" />
    </clipPath>
    <clipPath
       clipPathUnits="userSpaceOnUse"
       id="clipPath12821">
      <path
         style="fill:#000000;stroke:#000000;stroke-width:1px;stroke-linecap:butt;stroke-linejoin:miter;stroke-opacity:1"
         d="m 1166.9098,-1467.5047 c -2.2921,-12.7792 -4.5836,-20.1834 0.314,-34.8761 7.6668,-23.0003 36.7353,-33.2359 48.6136,-53.033 4.4142,-7.357 5.3541,-17.4734 11.0485,-24.3068 5.097,-6.1163 15.706,-8.499 19.8874,-15.4679 6.4152,-10.6921 11.1891,-22.3314 17.6777,-33.1457 2.1437,-3.5728 6.3388,-5.5055 8.8388,-8.8388 2.9032,-3.8709 3.6086,-9.4825 6.6291,-13.2582 1.9522,-2.4403 4.8957,-4.029 6.6292,-6.6292 9.9754,-14.9631 14.4248,-36.003 24.3067,-50.7955 3.6516,-5.4662 9.2738,-10.1649 13.2302,-15.4402 3.8416,-5.122 0.8543,-4.8095 4.4195,-11.0485 5.4981,-9.6217 8.1329,-9.1202 15.4679,-17.6777 16.5795,-19.3427 -3.743,2.781 6.6291,-11.0485 6.9268,-9.2356 14.5743,-17.7399 22.0971,-26.5165 10.4714,-12.2166 17.3445,-28.3931 28.7262,-39.7748 11.1308,-11.1308 32.9646,-22.8723 46.4039,-30.9359 13.624,-8.1744 24.0543,-22.3561 37.6379,-30.9845 15.594,-9.9053 31.238,-17.79 45.4992,-29.6743 7.8329,-6.5274 19.6705,-17.2441 24.3068,-26.5165 4.3001,-8.6002 0.1714,-5.5561 4.4194,-15.468 1.0461,-2.441 3.3733,-4.1881 4.4194,-6.6291 13.0091,-30.3546 18.9539,-106.8208 8.8389,-137.166 -0.962,-2.8857 -5.3121,-5.5462 -6.6292,-8.8388 -7.7303,-19.3259 -29.4823,-32.6005 -48.6136,-39.7747 -9.6896,-3.6337 -21.85,-5.8566 -30.9359,-11.0486 -9.4609,-5.4062 -17.515,-13.8864 -26.5165,-19.8874 -6.5888,-4.3925 -13.368,-7.1369 -19.8874,-11.0485 -4.707,-2.8243 -9.3618,-9.3619 -13.2582,-13.2583 -10.7275,-10.7275 -22.8091,-22.5717 -35.3554,-30.9359 -4.8717,-3.2478 -14.0277,-17.2305 -17.6776,-22.0971 -8.5704,-11.4271 -38.5049,-46.8738 -50.8233,-53.033 -27.4386,-13.7191 -59.3255,-22.2469 -88.3884,-33.1456 -17.7457,-6.6547 -31.3902,-21.3448 -48.6136,-28.7262 -6.1876,-2.6519 -13.8529,-2.4079 -19.8873,-4.4194 -6.3911,-2.1304 -30.9128,-14.8982 -37.5651,-19.8874 -4.1667,-3.125 -6.9815,-7.7949 -11.0485,-11.0486 -28.9258,-23.1406 -56.7156,-48.6134 -86.1786,-70.7106 -4.9873,-3.7404 -10.4165,-5.4712 -15.468,-8.8389 -2.5497,-1.6998 -4.0795,-4.9293 -6.6291,-6.6291 -23.08037,-15.3869 -69.06549,-22.8777 -95.2813,-26.6228 -31.07368,-4.4391 -71.05945,1.5399 -101.59481,6.6291 -4.49596,-0.7674 -7.15902,3.6416 -11.04854,4.4195 -4.73374,0.9467 -10.97262,0.4115 -15.46796,2.2097 -2.46579,0.9863 -4.16334,3.4331 -6.62913,4.4194 -5.03646,2.0146 -12.17936,2.2201 -17.67767,4.4194 -9.53096,3.8124 -17.13571,11.4476 -26.5165,15.468 -7.52488,3.2249 -17.4957,3.7305 -24.3068,8.8388 -7.18336,5.3875 -13.84675,11.3428 -22.09708,15.468 -17.9137,8.9568 -38.21607,12.9557 -55.24272,24.3068 -6.62913,4.4194 4.41942,0 -6.62913,6.6291 -1.9973,1.1984 -4.63182,1.0113 -6.62912,2.2097 -5.84739,3.5084 -11.61118,10.225 -17.67767,13.2582 -1.31762,0.6588 -3.02188,-0.4658 -4.41942,0 -3.03721,1.0124 -3.18232,5.2875 -4.41942,6.5248 -1.01045,1.0106 -3.27153,-1.0053 -4.28724,0 -1.15526,1.1434 -1.05406,3.2038 -2.20971,4.3468 -5.19483,5.138 -17.56408,6.5149 -22.06904,11.0486 -1.15219,1.1595 -0.87397,3.4115 -2.18219,4.3916 -6.52879,4.8913 -16.97831,2.9649 -24.3068,6.6291 -20.61134,10.3057 6.13073,0.5417 -13.25825,4.4195 -8.46148,1.6923 -15.09876,9.5138 -24.30679,11.0485 -12.1085,2.0181 -25.67124,3.6557 -37.56505,6.6291 -2.52088,0.6302 -5.81271,3.6629 -8.83884,4.4194 -7.01292,1.7533 -14.99109,2.643 -22.09708,4.4195 -10.33395,2.5834 -20.24045,9.2659 -30.93593,11.0485 -19.32561,3.2209 10.73396,-5.9079 -17.67767,2.2097 -7.04836,2.0138 -14.65078,5.3881 -22.09708,6.6291 -2.17965,0.3633 -4.4854,-0.5359 -6.62913,0 -3.84812,0.9621 -7.20042,3.4574 -11.04854,4.4195 -2.14373,0.5359 -4.4854,-0.536 -6.62913,0 -4.28439,1.0711 -8.78219,4.7108 -13.25825,6.6291 -5.5828,2.3926 -11.91545,2.4987 -17.67767,4.4194 -10.13759,3.3792 -20.36243,8.9338 -30.93592,11.0485 -16.06576,3.2132 -32.34291,9.1807 -48.81212,13.2979 -5.55315,1.3883 -10.11487,5.2909 -15.46796,6.6292 -6.62762,1.6569 -15.77811,3.5153 -22.00646,6.6291 -5.13216,2.5658 -13.0435,8.686 -17.53201,10.9304 -1.3176,0.6588 -3.02187,-0.4658 -4.41942,0 -1.97642,0.6588 -2.55602,3.4877 -4.41941,4.4194 -5.02651,2.5133 -10.6695,3.4302 -15.46796,6.6291 -6.35205,4.2347 -12.90677,9.768 -19.88738,13.2583 -4.16667,2.0833 -9.09159,2.3361 -13.25825,4.4194 -16.699005,8.3495 -30.603518,21.4557 -46.403887,30.9359 -1.997305,1.1984 -4.765736,0.8122 -6.629126,2.2097 -1.317616,0.9883 -1.04509,3.2548 -2.209709,4.4195 -3.238693,3.2387 -9.578566,3.8693 -13.258252,6.6291 -3.333334,2.5 -5.505502,6.3389 -8.838835,8.8389 -6.974769,5.2311 -2.758795,-1.6607 -11.048544,6.6291 -1.877891,1.8778 -2.541526,4.7513 -4.419417,6.6291 -5.72349,5.7236 -14.1638875,9.7445 -19.8873776,15.468 -7.0223271,7.0223 -12.7224454,17.1422 -19.8593264,24.279 -4.318742,4.3188 -10.658204,7.4413 -15.467959,11.0486 -11.31451,8.4859 -18.38475,18.1396 -30.90841,26.4887 -3.83908,2.5594 -11.628881,4.0698 -15.467961,6.6291 -4.69471,3.1298 -8.55682,7.9143 -13.25825,11.0486 -2.74081,1.8272 -6.5096,2.0902 -8.838836,4.4194 -1.16462,1.1646 -0.94443,3.365 -2.20971,4.4194 -6.30338,5.2528 -16.10307,9.474 -22.01508,15.386 -1.16462,1.1646 -1.04509,3.2548 -2.20971,4.4194 -5.35111,2.6755 -3.2548,1.0451 -6.62913,4.4194 -3.45433,3.4543 -5.1316,7.3413 -8.81132,11.021 -8.15105,8.1511 -0.89164,-5.2916 -8.83883,6.6292 -4.48949,6.7342 -12.88849,12.7036 -17.67767,19.8873 -2.35828,3.5375 -4.08319,7.654 -6.62913,11.0486 -4.2842,5.7123 -10.64532,8.4356 -15.46796,13.2582 -3.52628,3.5263 -23.75565,26.3345 -26.51651,30.936 -1.19838,1.9973 -1.01132,4.6318 -2.2097,6.6291 -5.01937,8.3656 -13.82373,14.5175 -19.88738,22.0971 -5.46104,6.8263 -7.79722,15.2708 -13.25825,22.0971 -9.46246,11.828 -19.63155,23.2291 -28.72622,35.3553 -5.69387,7.5918 -6.16579,14.0528 -10.97571,22.0693 -1.07187,1.7864 -3.48772,2.556 -4.41942,4.4194 -0.65881,1.3176 0.28891,2.9749 0,4.4194 -1.41496,7.0749 -5.8027,13.8533 -8.83883,19.8874 -1.48856,2.9584 0.7849,9.1978 0,12.3374 -6.25281,25.0112 -2.20971,55.2917 -2.20971,81.5375 0,8.289 -8.73948,39.0027 -6.85787,43.4427 3.33386,7.8667 4.36031,15.0345 6.02437,23.3548 0.8614,4.307 4.8602,7.3788 6.62913,10.8223 1.66826,3.2475 1.16941,8.8533 1.86228,12.3176 1.40442,7.0221 7.30522,16.4359 10.30514,20.644 0.67126,0.9416 13.0971,0.5883 15.45016,0 3.19569,-0.7989 5.75453,-3.2628 8.83884,-4.4194 6.51418,-2.4428 11.83573,-0.319 17.67766,-2.2097 11.59641,-3.7531 38.3299,-14.9419 49.52586,-4.2735 4.21899,4.0202 -3.79513,20.1178 0,24.6839 0.45444,0.5468 2.98789,0.8286 3.4203,1.3765 6.10959,7.7413 10.78622,13.5709 19.68237,19.5016 5.3412,3.5608 14.95751,6.974 19.85987,11.0486 1.20284,0.9997 0.96373,2.5632 3.69867,3.8875 10.42359,5.047 22.99695,9.3787 33.14563,15.4679 6.96962,4.1818 26.058046,23.6177 30.908406,30.9082 1.96261,2.9499 4.14706,8.5665 6.62913,11.0485 4.0551,4.0551 12.444581,7.8974 17.650151,11.0208 3.86943,2.3216 8.87777,9.5768 13.21563,11.0275 1.39709,0.4672 3.10181,-0.6588 4.41942,0 0.65881,0.3294 -0.51756,1.6856 0,2.2097 0.94591,0.9578 3.15156,-1.0127 4.03855,0 8.34821,9.5309 30.045158,19.1479 44.06199941,23.8202 8.60254909,2.8675 21.79298259,4.7913 30.93592159,6.6291 0.09273,0.019 8.726636,-0.019 8.783269,0 4.357143,1.4524 10.169699,3.6625 15.46796,4.4194 9.052363,1.2932 17.771923,0.024 26.516505,2.2097 2.821372,0.7054 3.537816,2.9536 4.419417,4.3151 3.073918,4.7471 20.339741,6.1871 25.287031,8.661 9.89898,4.9501 -9.11965,-0.8357 6.54605,4.3642 2.06545,0.6855 4.41893,-0.5336 6.52878,0 10.57999,2.6753 20.17612,6.6868 30.93592,8.8388 3.5412,0.7082 7.50734,-0.7082 11.04854,0 2.83095,0.5662 33.3069,11.5816 35.05378,13.2175 0.4972,0.4656 -0.49721,1.5779 0,2.0436 0.29722,0.2783 17.22719,5.7031 19.57825,6.4934 6.84841,2.3021 40.6813,-1.4851 43.80629,-4.4194 5.24335,-4.9233 13.66246,-13.3929 21.96222,-17.5428 7.54132,-3.7707 16.38019,-4.3644 24.30679,-6.6291 3.47997,-0.9943 5.88993,-3.4354 8.78327,-4.3917 6.5171,-2.154 15.77393,2.6405 22.06957,0 12.19033,-5.1127 34.50421,-6.7609 48.7749,-3.786 16.74861,3.4914 27.00221,22.5737 35.16329,34.8153 2.60686,3.9103 8.3039,7.755 11.04854,11.0485 1.72289,2.0675 7.79506,12.6583 8.81078,13.2308 2.41942,1.3636 17.40107,5.926 21.48046,6.6059 19.35555,3.2259 35.57056,6.229 54.25763,0 5.10158,-1.7005 9.51128,-6.8869 15.36708,-8.8388 6.54349,-2.1812 13.46853,-2.8147 19.88738,-4.4195 13.56585,-3.3914 26.41927,-12.7031 41.82855,-8.8388 3.40996,0.8552 27.19349,16.1728 28.69816,17.6777 0.51425,0.5143 -0.51431,1.6676 0,2.1819 0.51438,0.5143 1.4548,0 2.1822,0 1.46397,0.7274 3.23598,1.0263 4.3919,2.1822 1.16462,1.1646 1.04509,3.2548 2.20971,4.4194 3.49386,3.4939 9.02133,4.087 13.25825,6.6291 1.78645,1.0719 2.55841,3.483 4.41942,4.4195 6.2203,3.13 22.92495,0 29.15456,0 5.23065,0 16.29649,1.8135 21.90773,0 5.80714,-1.8769 5.77413,-4.6159 13.06889,-6.4395 2.85831,-0.7146 5.94978,0.5778 8.83884,0 6.67859,-1.3358 19.75582,-5.4585 26.5165,-8.8389 9.28855,-4.6442 15.66952,-11.8523 26.51651,-15.4679 2.09631,-0.6988 4.46233,0.4333 6.62912,0 5.70436,-1.1409 3.03139,-2.0157 6.62913,-4.4195 6.89504,-4.6066 22.51667,-12.0359 30.88035,-13.2307 3.86837,-0.5526 27.80942,-4.6632 30.63328,-6.6291 1.26238,-0.8789 2.8628,-6.4005 3.68734,-7.225 1.16462,-1.1646 3.50582,-0.8393 4.41942,-2.2097 0.81715,-1.2257 -0.46585,-3.0219 0,-4.4194 1.17379,-3.5214 5.76327,-6.804 6.60107,-10.993 1.40745,-7.0372 1.16065,-15.5795 4.41942,-22.0971 6.17384,-12.3477 15.70774,-19.9726 21.63745,-32.3372 4.60806,-9.6087 3.45561,-5.9147 14.48557,-10.3267 15.2786,-6.1115 24.37543,-3.35 39.55141,1.8137 2.51419,0.8555 4.10967,3.5796 6.62913,4.4194 2.32445,0.7748 6.94449,0.4613 8.81132,2.2097 0.39322,0.3683 1.71258,3.9271 2.04409,4.0877 9.42045,4.5621 21.25723,7.8408 30.88035,11.0485 1.97642,0.6588 2.56382,3.4722 4.41942,4.4194 3.7314,1.9048 7.7966,3.6245 12.1631,5.8078 10.5336,5.2668 22.5113,7.5038 33.1456,11.0485 3,1 5.1696,3.5021 8.8389,4.4195 2.8583,0.7145 5.9497,-0.5779 8.8388,0 17.5001,3.5 35.8923,2.2097 53.928,2.2097 5.407,0 14.3703,1.0581 19.8598,0 1.8314,-0.353 4.1178,-3.2213 5.8124,-3.7861 15.083,-5.0277 18.1071,-0.031 21.4389,-17.8126 z"
         id="path12823"
         inkscape:connector-curvature="0" />
    </clipPath>
    <style
       id="style13501">.a{fill:#fff;}.b{fill:#b71234;}.c{fill:#584528;}.d{fill:#008542;}.e{fill:#bd8a5e;}</style>
    <linearGradient
       id="a">
      <stop
         stop-color="#fff"
         offset="0"
         id="stop55644" />
      <stop
         stop-color="#f15770"
         offset="1"
         id="stop55646" />
    </linearGradient>
    <radialGradient
       id="b"
       xlink:href="#a"
       gradientUnits="userSpaceOnUse"
       cx="842.31"
       cy="103.66"
       r="25.858999"
       gradientTransform="matrix(0.18574,0.04718,-0.04532,0.18635,233.798,198.77)" />
    <radialGradient
       id="c"
       xlink:href="#a"
       gradientUnits="userSpaceOnUse"
       cx="651.52002"
       cy="550.46002"
       r="25.858999"
       gradientTransform="matrix(-0.17642,-0.07067,0.06515,-0.16392,430.544,377.876)" />
    <radialGradient
       id="d"
       xlink:href="#a"
       gradientUnits="userSpaceOnUse"
       cx="380.84"
       cy="740.37"
       r="25.858999"
       gradientTransform="matrix(0.0989,0.0037,-0.0045,0.1943,442.362,123.304)" />
    <style
       id="style57185">.a{fill:#fff;}.b{fill:#b71234;}.c{fill:#584528;}.d{fill:#008542;}.e{fill:#bd8a5e;}</style>
    <clipPath
       clipPathUnits="userSpaceOnUse"
       id="clipPath58895">
      <path
         style="fill:#b3b3b3;stroke:#000000;stroke-width:1px;stroke-linecap:butt;stroke-linejoin:miter;stroke-opacity:1"
         d="m 211.48633,806.21235 c -0.128,0.71291 -0.50032,1.42382 -0.38399,2.13871 0.0714,0.43836 0.61764,0.64036 0.89294,0.98886 0.24789,0.3138 0.47938,0.64327 0.67288,0.99325 0.52525,0.94997 0.91026,1.97272 1.42929,2.92612 0.35931,0.66002 0.83308,1.26227 1.11855,1.95743 0.51058,1.24338 -0.0263,2.59977 0.24889,3.66571 0.12282,0.47574 0.49846,0.74011 0.78101,1.09767 0.91239,1.15467 0.0813,0.16537 0.67149,1.20889 0.26733,0.4726 0.75706,0.83331 1.00342,1.31671 0.47436,0.93077 0.57118,1.9943 0.90577,2.97297 0.20489,0.59928 0.50211,1.20259 0.78609,1.75985 0.21063,0.41327 0.60689,0.63745 0.89053,0.98647 0.62061,0.76368 1.52763,1.38365 2.1138,2.19112 0.81618,1.12428 -0.44416,-0.27321 0.55859,0.87864 0.54092,0.62135 1.07523,1.24007 1.45834,1.98375 0.28658,0.55628 0.55,1.18036 0.78757,1.76129 0.088,0.21535 0.0791,0.47991 0.2258,0.66047 0.0837,0.10294 0.23827,0.12511 0.33278,0.21818 0.17581,0.17312 0.594,0.76647 0.6698,0.98816 0.32466,0.94964 -0.85019,2.45986 -1.41096,3.10114 -1.45678,1.6659 -3.06628,3.11263 -5.20403,3.83462 -1.25638,0.42433 -0.4113,0.10456 -1.68463,0.36729 -1.10451,0.2279 -2.23939,0.55504 -3.31525,0.88597 -1.94601,0.59861 -3.59976,1.85687 -5.56379,2.36394 -0.31554,0.0814 -0.7828,0.006 -1.10084,0.008 -0.84571,0.006 -4.21951,-0.9323 -4.75704,-1.24844 -0.006,-0.004 -0.8917,-0.88002 -0.8936,-0.88192 -0.67311,-0.66993 -1.37762,-1.3422 -2.10249,-1.9548 -1.64539,-1.39055 -2.76301,-2.07841 -3.78536,-4.09904 -0.22166,-0.4381 -0.34368,-0.92139 -0.55754,-1.36335 -0.32112,-0.66361 -1.58683,-2.69826 -1.86685,-3.09366 -0.82972,-1.17158 -1.94941,-2.00376 -2.3739,-3.44609 -0.22922,-0.77884 -0.19427,-1.6178 -0.25264,-2.4125 -0.0212,-0.2884 -0.22022,-1.3652 -0.24637,-1.63691 -0.081,-0.84097 0.0333,-1.7029 -0.0196,-2.54636 -0.18811,-2.99953 -0.5355,-6.07856 0.61702,-8.9274 0.83168,-2.05579 2.8469,-3.57581 4.51364,-4.93033 0.42262,-0.34346 0.77872,-0.77491 1.2055,-1.11294 0.80993,-0.64149 1.77783,-1.14759 2.6867,-1.6108 0.0941,-0.048 0.25277,0.0288 0.35531,-0.003 1.79294,-0.54968 3.66566,-0.67895 5.49977,-1.03396 1.11585,-0.21598 2.21302,-0.48092 3.32777,-0.69121 0.65557,-0.12367 1.10952,-0.35461 1.76559,-0.26322 z"
         id="path58897"
         inkscape:connector-curvature="0" />
    </clipPath>
    <clipPath
       clipPathUnits="userSpaceOnUse"
       id="clipPath59333">
      <path
         class="e"
         d="m 303.79512,439.16115 c -0.71,-0.19 -1,-0.18 -1.05,0.05 -0.05,0.23 0.19,0.6 0.89,0.91 0.7,0.31 0.83,0.33 1.11,0.2 0.48,-0.22 -0.08,-0.92 -0.95,-1.16 z m 11.74,-13.23 c 0.28,0 0.81,-0.45 1.12,-0.95 0.18,-0.3 0.56,-0.84 0.84,-1.2 a 29.263,29.263 0 0 0 2,-2.84 9.577,9.577 0 0 1 1,-1.21 8.555,8.555 0 0 0 1,-1.26 7.714,7.714 0 0 1 0.66,-1 17.2,17.2 0 0 0 1.54,-2.82 6.748,6.748 0 0 0 0.23,-1.22 c 0.06,-0.77 0.06,-0.81 -0.2,-1 a 0.9,0.9 0 0 0 -0.41,-0.24 c -0.24,0 -0.54,0.43 -0.67,0.95 a 23.892,23.892 0 0 1 -2.84,5.18 l -1.2,1.38 c -0.32,0.38 -0.7,0.81 -0.84,1 a 5.858,5.858 0 0 0 -1,1.54 c -0.26,0.48 -0.66,1.15 -0.9,1.49 -0.91,1.25 -1,1.7 -0.68,2 a 0.738,0.738 0 0 0 0.35,0.2 z m 23.39,19.52 a 6.76,6.76 0 0 0 -0.64,0.81 c -0.25,0.36 -0.73,1 -1.08,1.45 a 6.024,6.024 0 0 0 -0.76,1.16 c -0.1,0.32 -0.09,0.42 0.12,0.82 0.3,0.6 0.23,0.83 -0.46,1.45 a 2.848,2.848 0 0 0 -0.56,0.6 c 0,0.14 -0.53,0.55 -1,0.74 -0.47,0.19 -0.85,0.58 -0.85,0.77 a 0.755,0.755 0 0 0 0.22,0.32 c 0.32,0.31 0.6,0.27 1.29,-0.2 0.33,-0.22 0.74,-0.47 0.9,-0.55 a 11.6,11.6 0 0 0 1.94,-1.85 c 0.2,-0.33 0.15,-0.42 -0.38,-0.78 -0.53,-0.36 -0.65,-0.66 -0.09,-1.28 0.23,-0.26 0.6,-0.72 0.82,-1 a 2.757,2.757 0 0 1 0.55,-0.63 1.784,1.784 0 0 0 0.39,-0.53 1,1 0 0 0 0.18,-0.84 c -0.07,-0.51 -0.31,-0.68 -0.59,-0.46 z m 18.69,-29.72 a 3.349,3.349 0 0 0 0.89,0.64 0.91,0.91 0 0 0 0.67,-0.69 c 0,-0.38 -0.7,-1 -1.27,-1.15 -0.57,-0.15 -0.83,0 -0.93,0.32 -0.1,0.32 -0.01,0.33 0.64,0.88 z m 159.43,66.74 a 6.479,6.479 0 0 0 -1.11,-1.52 c -0.34,-0.35 -0.4,-0.37 -0.83,-0.35 a 0.791,0.791 0 0 1 -0.73,-0.21 1.146,1.146 0 0 1 -0.32,-0.52 c -0.06,-0.26 -0.54,-0.74 -0.75,-0.74 a 7.139,7.139 0 0 1 -0.87,-0.86 9.135,9.135 0 0 1 -0.87,-1.84 5.557,5.557 0 0 1 -0.72,-0.87 c -0.91,-1.51 -0.29,-2.37 -0.69,-3.9 -0.07,-1 -0.22,-0.63 -0.55,-1.77 a 1.887,1.887 0 0 1 0,-1.55 c 0.2,-0.28 0.78,-0.51 0.94,-0.37 0.16,0.14 1,-0.06 1,-0.46 0,-0.2 -0.48,-0.73 -0.66,-0.73 a 1.207,1.207 0 0 1 -0.45,-0.29 c -0.61,-0.56 -0.26,-1.19 0.59,-1.06 a 0.573,0.573 0 0 0 0.53,-0.09 c 0.11,-0.09 0.11,-0.19 -0.14,-0.38 a 1,1 0 0 0 -0.46,-0.22 5.622,5.622 0 0 0 -1.07,0.42 c -0.7,0.34 -0.95,0.41 -1.19,0.37 -0.24,-0.04 -0.45,-0.22 -0.55,-0.75 a 0.739,0.739 0 0 1 0.19,-0.71 c 0.28,-0.38 0.27,-0.4 -0.42,-0.71 a 1.2,1.2 0 0 0 -1.28,0 c -0.31,0.22 -0.33,0.39 -0.11,0.88 a 1.75,1.75 0 0 1 -0.07,1.41 c 0,0.27 0.3,1.71 -0.16,2.06 -0.46,0.35 -0.88,0.25 -1.47,0.15 -0.21,0 -0.17,-0.54 -0.25,-0.75 -0.2,-0.52 -0.19,-0.88 0,-0.94 a 1.435,1.435 0 0 0 0.47,-0.37 c 0.26,-0.28 0.28,-0.35 0.22,-0.78 -0.06,-0.43 -0.59,-1.23 -0.92,-1.27 a 3.427,3.427 0 0 1 -1.39,-0.5 c -0.62,-0.44 -0.86,-0.49 -1.14,-0.24 -0.28,0.25 -0.23,0.28 -0.21,1.13 v 0.92 l 0.47,0.39 a 1.219,1.219 0 0 1 0.52,0.75 5.461,5.461 0 0 0 0.27,1 c -0.57,1.86 -1.79,0.87 -2.35,-0.07 a 1.747,1.747 0 0 0 -0.53,-1.55 1.316,1.316 0 0 1 -0.48,-0.85 c -0.16,-0.71 -0.44,-0.87 -0.81,-0.46 a 2.857,2.857 0 0 0 -0.57,1.53 c 0,0.37 -0.13,0.49 -0.51,0.77 -0.58,0.44 -0.67,0.79 -0.35,1.39 a 2.926,2.926 0 0 0 0.72,0.8 2.632,2.632 0 0 1 1,1.61 1.241,1.241 0 0 1 -0.72,1.07 c -0.52,-0.24 -0.65,-0.23 -0.91,0.07 -0.26,0.3 -0.24,0.41 0.31,1.56 0.41,0.86 0.52,1.51 0.27,1.69 a 2.7,2.7 0 0 1 -0.53,0.22 2.818,2.818 0 0 0 -0.49,0.18 c -0.17,0.13 -0.14,0.43 0.09,0.8 a 1.19,1.19 0 0 1 -0.1,1.55 c -0.64,0.86 -0.72,1.66 -0.2,2 0.52,0.34 1.24,-0.31 1.05,-1.08 -0.09,-0.36 -0.07,-0.46 0.16,-0.9 0.33,-0.62 0.67,-0.87 1.17,-0.87 0.5,0 0.4,0 0.75,0.57 0.49,0.74 0.53,1 0.27,1.42 -0.26,0.42 -0.26,0.55 0.05,1.36 a 2.3,2.3 0 0 1 0.23,1.11 v 0.42 a 5.729,5.729 0 0 1 0.63,-0.18 c 0.52,-0.14 0.61,-0.2 0.79,-0.53 0.18,-0.33 0.27,-0.36 0.49,-0.36 0.42,0 0.54,0.13 1.13,1.14 0.45,0.79 0.52,1 0.5,1.35 -0.02,0.35 0,0.43 -0.47,0.5 -0.47,0.07 -0.65,0.31 -0.34,0.54 0.31,0.23 0.23,0.25 0.2,0.71 -0.03,0.46 -0.06,0.55 -0.34,0.67 a 0.618,0.618 0 0 0 -0.45,0.66 1.419,1.419 0 0 0 0.46,1.17 c 0.23,0.14 0.27,0.14 0.5,0 a 0.532,0.532 0 0 0 0.26,-0.34 c 0.74,0 0.77,-0.46 1.59,-0.64 0.46,-0.42 0.89,-0.35 1.67,0.49 a 1.6,1.6 0 0 1 0.59,0.39 3.312,3.312 0 0 1 1.86,2.47 c -0.32,0.33 -0.37,0.43 -0.35,0.8 a 1.5,1.5 0 0 0 0.46,1.18 c 0.4,0.25 0.57,0.16 1.09,-0.56 a 4.275,4.275 0 0 1 0.63,-0.68 1.358,1.358 0 0 0 0.59,-1 c 0,-0.39 0.24,-0.57 0.75,-0.57 a 1.069,1.069 0 0 0 0.55,-0.11 1.219,1.219 0 0 0 0.12,-0.64 3.092,3.092 0 0 1 0.15,-0.91 c 0.93,-1.43 1.4,-2.14 2.59,-0.79 0.11,0.54 0,1.15 -0.19,1.25 a 2.965,2.965 0 0 1 -0.56,0.17 c -0.52,0.12 -0.84,0.54 -0.66,0.86 0.18,0.32 0.62,0.73 0.78,0.73 a 1.193,1.193 0 0 0 0.44,-0.21 0.532,0.532 0 0 0 0.3,-0.53 c 0,-0.46 0.21,-0.78 0.5,-0.8 0.75,-0.05 1,-1.29 0.72,-3.62 a 3.64,3.64 0 0 0 -0.32,-1.68 z m 145.97,-32.59 c -0.17,0 -0.62,0.39 -0.62,0.54 a 3.111,3.111 0 0 0 0.17,0.65 l 0.17,0.5 0.36,-0.06 c 0.41,-0.07 0.82,-0.45 0.82,-0.76 a 2,2 0 0 0 -0.9,-0.87 z m -167.09,22.96 a 0.508,0.508 0 0 0 -0.23,-0.44 c -0.2,-0.13 -0.24,-0.13 -0.41,0 a 0.662,0.662 0 0 0 -0.18,0.45 3.008,3.008 0 0 1 -0.26,0.92 c -0.29,0.71 -0.24,0.87 0.29,1.17 a 0.8,0.8 0 0 0 0.48,0.13 l 0.48,-0.15 c 0.18,0 0.33,-0.13 0.33,-0.19 a 6.129,6.129 0 0 0 -0.25,-0.86 4.624,4.624 0 0 1 -0.25,-1.03 z"
         id="path59335"
         inkscape:connector-curvature="0"
         style="fill:#bd8a5e" />
    </clipPath>
    <clipPath
       clipPathUnits="userSpaceOnUse"
       id="clipPath60290">
      <path
         style="fill:#808080;stroke:#000000;stroke-width:1px;stroke-linecap:butt;stroke-linejoin:miter;stroke-opacity:1"
         d="m 221.7376,821.66788 c -1.20303,0.036 -0.31532,-1.26316 -0.23876,-1.87787 0.0795,-0.63787 -0.11324,-1.39214 -0.43605,-1.92002 -0.19802,-0.32382 -0.91071,-0.15635 -0.95739,-0.23746 -0.59658,-1.0363 -0.54797,-2.12166 -0.55676,-3.2651 -0.003,-0.35009 0.10436,-0.96812 -0.01,-1.2676 -0.10104,-0.26519 -0.40826,-0.46326 -0.55165,-0.69814 -0.0428,-0.0702 -0.0532,-0.15567 -0.0798,-0.23351 -0.10597,-0.20793 -0.19408,-0.42597 -0.31791,-0.62379 -0.3122,-0.49875 -0.77687,-0.96018 -1.11943,-1.43834 -0.30098,-0.42013 -0.4042,-0.90961 -0.74887,-1.31148 -0.0196,-0.85372 -0.85955,-0.411 -1.18577,-0.74484 -0.46131,-0.47208 -0.30704,-0.87505 -0.45836,-1.3917 -0.25216,-0.86096 -0.46255,-1.80675 -0.53977,-2.70595 -0.2115,-2.46289 1.19936,-3.13175 2.18217,-5.09948 0.13712,-0.27455 0.21486,-0.57513 0.33419,-0.85787 0.60181,-1.42611 0.5564,-1.06012 0.98956,-2.59023 0.51371,-1.81464 0.45579,-3.57612 0.72159,-5.40388 0.13035,-0.89632 0.37786,-1.80518 0.61947,-2.67803 0.16448,-0.59424 0.49919,-1.86208 1.01999,-2.27519 0.10392,-0.0824 0.26284,-0.0419 0.38959,-0.081 0.88612,-0.27328 1.66918,-0.44383 2.61639,-0.56145 0.52827,-0.0655 4.42663,-0.28862 4.573,-0.14358 0.23013,0.22805 -0.15876,0.16371 0.31623,0.38886 1.96188,0.92995 1.05728,0.28377 3.46628,0.91755 1.23477,0.32487 2.46748,0.6744 3.65862,1.13416 0.65685,0.25353 2.79055,1.1762 3.05266,2.24604 0.0527,0.21505 0.003,0.4428 0.005,0.66421 0.01,1.24954 -0.13598,2.56274 0.12704,3.79292 0.0515,0.24083 0.70543,1.95752 0.72412,2.0124 0.30446,0.89395 0.56147,1.82291 0.62606,2.76929 0.0976,1.42972 -0.21296,2.72451 -0.46182,4.11959 -0.27643,1.54961 -0.20049,1.52279 -0.32381,3.17023 -0.0311,0.41601 -0.12535,0.82985 -0.10954,1.24673 0.006,0.17703 0.15615,0.32546 0.17582,0.50151 0.0831,0.74363 -0.0698,1.51573 0.0174,2.259 0.0154,0.13174 0.08,0.25695 0.081,0.38959 0.001,0.1571 -0.27209,0.49956 -0.30735,0.6267 -0.0612,0.22075 -0.0775,0.47515 -0.15069,0.70254 -0.16106,0.50031 -1.1171,1.17738 -1.55466,1.47088 -0.55856,0.37465 -1.03018,0.86905 -1.57421,1.24305 -0.0409,0.0281 -0.11435,-0.0346 -0.14871,0.001 -0.23798,0.24753 0.15488,0.1138 -0.31035,0.23651 -0.2991,0.0789 -0.72551,-0.0451 -1.02098,0.008 -0.83029,0.14883 -1.59045,0.93661 -2.24419,1.34468 -0.0928,0.0579 -0.22299,0.0277 -0.31767,0.0825 -0.40248,0.23303 -0.61995,0.76767 -0.90028,1.09655 -0.0848,0.0996 -0.21285,0.15261 -0.31136,0.23859 -0.45894,0.40052 -1.02243,0.83727 -1.33908,1.36177 -0.13909,0.2304 -0.15097,0.52023 -0.27488,0.75911 -0.12075,0.23281 -0.32645,0.41363 -0.45264,0.64354 -0.37016,0.67443 -1.07296,2.83648 -1.72525,3.16892 -0.27992,0.14265 -0.35366,0.0357 -0.6237,0.0828 -0.2065,0.0361 -0.19947,0.11753 -0.38958,0.081 -0.37409,-0.0718 -0.89899,-0.2657 -1.17476,-0.53726 -0.23708,-0.23347 -0.18403,-0.50019 -0.55009,-0.62011 -0.4532,-0.14847 -0.46347,-0.057 -0.93556,0.25244 -0.0587,0.0385 -1.07757,0.77243 -1.35344,0.57868 -0.0289,-0.0203 -0.0254,-0.38431 -0.003,-0.4321 0.0927,-0.20103 0.35527,0.0393 0.30325,0.0397 -0.0717,5.5e-4 0.0265,-0.14912 -0.002,-0.21499 -0.0635,-0.14814 -0.15975,-0.28002 -0.23963,-0.42003 z"
         id="path60292"
         mask="none"
         inkscape:connector-curvature="0" />
    </clipPath>
    <clipPath
       clipPathUnits="userSpaceOnUse"
       id="clipPath60754">
      <path
         style="fill:#ff2a2a;stroke:#000000;stroke-width:1px;stroke-linecap:butt;stroke-linejoin:miter;stroke-opacity:1"
         d="m 208.7453,893.67528 c -3.1452,-3.8983 -0.73085,-0.27886 -2.45528,-4.97431 -0.38979,-1.0614 -2.11951,-2.86297 -1.38822,-4.18252 0.48722,-0.87916 2.31884,-2.32515 2.84204,-3.02249 0.96588,-1.28735 1.60325,-2.82949 2.53532,-4.07619 1.06852,-1.42922 3.40955,-2.14126 4.8531,-3.10147 1.0725,-0.71341 0.60296,-1.00889 1.41215,-1.65778 1.527,-1.22448 6.13016,-2.86883 7.16522,-3.9222 0.42525,-0.43277 0.55042,-1.10494 0.97879,-1.53461 0.55236,-0.55403 0.66317,0.0874 0.97106,-0.8331 0.033,-0.0987 -0.17024,-0.18002 -0.13932,-0.27935 0.39442,-1.2662 3.11312,-5.46218 4.15142,-6.83628 0.87163,-1.15353 -0.28241,0.16621 0.004,-0.69098 0.39904,-1.19327 1.45893,-3.04819 1.8137,-4.03958 0.058,-0.16195 -0.30846,-0.30856 -0.2303,-0.46178 0.46718,-0.91586 -0.79389,-7.06161 -0.41073,-9.15669 0.0529,-0.2895 0.18671,-0.55821 0.28006,-0.83731 -0.0462,-0.32579 -0.16417,-0.64931 -0.13859,-0.97736 0.0624,-0.80061 0.57998,-1.73405 0.8402,-2.51196 1.91752,-5.73229 5.39072,-8.90837 10.20371,-12.40114 4.19588,-3.04495 4.52806,-2.37296 9.47213,-2.3617 0.71173,0.002 1.47424,-0.0982 2.2281,0.27973 0.54239,0.2719 0.99869,0.69437 1.53461,0.9788 0.70474,0.37403 2.42859,0.92459 2.9299,1.67823 0.48929,0.73558 2.64258,4.1643 2.78699,4.88892 1.69268,8.49361 -6.95285,17.67577 -10.39653,24.593 -0.82141,1.64995 -1.72485,3.28755 -2.22747,5.0608 -0.13113,0.46263 0.0438,0.96386 -0.002,1.44258 -0.1719,1.81315 -0.85924,3.26474 -1.40104,4.88459 -0.57964,1.73297 -0.11759,3.84 -0.70877,5.61138 -0.91381,2.73809 -2.07925,5.52046 -2.99616,8.26175 -0.119,0.35578 0.0457,0.79111 -0.14075,1.11666 -0.21324,0.37227 -0.6744,0.53355 -0.97807,0.8366 -1.1331,1.13076 -2.23861,2.54629 -3.52109,3.51384 -3.92052,2.95776 -9.76525,5.71289 -14.78192,5.53817 -2.11389,-0.0736 -4.97811,-1.20301 -6.63846,-1.95796 -0.12122,-0.0551 -0.5634,0.35082 -0.69966,0.34894 -1.0415,-0.0146 -2.53268,0.12018 -3.62482,0.41684 -0.95526,0.25946 -0.80573,0.81895 -1.58156,0.78874 -0.78449,-0.0306 -1.80561,-0.27496 -2.54245,-0.4228 z"
         id="path60756"
         inkscape:connector-curvature="0" />
    </clipPath>
  </defs>
  <g
     inkscape:label="Layer 1"
     inkscape:groupmode="layer"
     id="layer1"
     transform="translate(535.93695,-613.90399)">
    <text
       xml:space="preserve"
       style="font-style:normal;font-variant:normal;font-weight:normal;font-stretch:normal;font-size:10.58329964px;line-height:1.25;font-family:'EB Garamond SC';-inkscape-font-specification:'EB Garamond SC';letter-spacing:0px;word-spacing:0px;fill:#000000;fill-opacity:1;stroke:none;stroke-width:0.26458299"
       x="-7.9467154"
       y="83.516083"
       id="text48434"><tspan
         sodipodi:role="line"
         id="tspan48432"
         style="stroke-width:0.26458299"
         x="-7.9467154"
         y="92.522469" /></text>
    <polygon
       style="fill:#584528"
       id="polygon13553"
       points=""
       class="c"
       transform="matrix(0.26458333,0,0,0.26458333,-19.900514,29.015204)" />
    <polygon
       style="fill:#584528"
       id="polygon13557"
       points=""
       class="c"
       transform="matrix(0.26458333,0,0,0.26458333,-19.900514,29.015204)" />
    <polygon
       style="fill:#584528"
       id="polygon13561"
       points=""
       class="c"
       transform="matrix(0.26458333,0,0,0.26458333,-19.900514,29.015204)" />
    <polygon
       style="fill:#ffffff"
       id="polygon13569"
       points=""
       class="a"
       transform="matrix(0.26458333,0,0,0.26458333,-19.900514,29.015204)" />
    <polygon
       style="fill:#ffffff"
       id="polygon13573"
       points=""
       class="a"
       transform="matrix(0.26458333,0,0,0.26458333,-19.900514,29.015204)" />
    <polygon
       style="fill:#ffffff"
       id="polygon13577"
       points=""
       class="a"
       transform="matrix(0.26458333,0,0,0.26458333,-19.900514,29.015204)" />
    <polygon
       style="fill:#bd8a5e"
       id="polygon13587"
       points=""
       class="e"
       transform="matrix(0.26458333,0,0,0.26458333,-19.900514,29.015204)" />
    <polygon
       style="fill:#bd8a5e"
       id="polygon13597"
       points=""
       class="e"
       transform="matrix(0.26458333,0,0,0.26458333,-19.900514,29.015204)" />
    <polygon
       style="fill:#584528"
       transform="matrix(0.26458333,0,0,0.26458333,-6.7731809,72.433633)"
       id="polygon57237"
       points=""
       class="c" />
    <polygon
       style="fill:#584528"
       transform="matrix(0.26458333,0,0,0.26458333,-6.7731809,72.433633)"
       id="polygon57241"
       points=""
       class="c" />
    <polygon
       style="fill:#584528"
       transform="matrix(0.26458333,0,0,0.26458333,-6.7731809,72.433633)"
       id="polygon57245"
       points=""
       class="c" />
    <polygon
       style="fill:#ffffff"
       transform="matrix(0.26458333,0,0,0.26458333,-6.7731809,72.433633)"
       id="polygon57253"
       points=""
       class="a" />
    <polygon
       style="fill:#ffffff"
       transform="matrix(0.26458333,0,0,0.26458333,-6.7731809,72.433633)"
       id="polygon57257"
       points=""
       class="a" />
    <polygon
       style="fill:#ffffff"
       transform="matrix(0.26458333,0,0,0.26458333,-6.7731809,72.433633)"
       id="polygon57261"
       points=""
       class="a" />
    <polygon
       style="fill:#bd8a5e"
       transform="matrix(0.26458333,0,0,0.26458333,-6.7731809,72.433633)"
       id="polygon57271"
       points=""
       class="e" />
    <polygon
       style="fill:#bd8a5e"
       transform="matrix(0.26458333,0,0,0.26458333,-6.7731809,72.433633)"
       id="polygon57281"
       points=""
       class="e" />
    <rect
       style="opacity:1;fill:#000000;fill-opacity:1;stroke:none;stroke-width:0.01802581;stroke-miterlimit:4;stroke-dasharray:none;stroke-opacity:1"
       id="rect1096-5"
       width="798.38965"
       height="501.94116"
       x="-535.93695"
       y="613.90399" />
    <g
       id="g2071"
       transform="matrix(4.6925226,0,0,4.6925226,-340.69659,636.97635)">
      <g
         id="g2206">
        <circle
           id="circle1921"
           r="0.62754762"
           cy="89.248825"
           cx="-22.585604"
           style="fill:#ffffff;stroke-width:1.39455032" />
        <circle
           id="circle1923"
           r="0.62754762"
           cy="54.391006"
           cx="59.505981"
           style="fill:#ffffff;stroke-width:1.39455032" />
        <circle
           id="circle1925"
           r="0.62754762"
           cy="-3.0633287"
           cx="-17.994232"
           style="fill:#ffffff;stroke-width:1.39455032" />
        <circle
           id="circle1927"
           r="0.62754762"
           cy="99.172096"
           cx="77.399483"
           style="fill:#ffffff;stroke-width:1.39455032" />
        <circle
           id="circle1929"
           r="0.62754762"
           cy="10.116016"
           cx="-24.735332"
           style="fill:#ffffff;stroke-width:1.39455032" />
        <circle
           id="circle1931"
           r="0.46996346"
           cy="77.046852"
           cx="-19.898127"
           style="fill:#ffffff;stroke-width:1.39455032" />
        <circle
           id="circle1933"
           r="0.471358"
           cy="27.184828"
           cx="26.387188"
           style="fill:#ffffff;stroke-width:1.39455032" />
        <circle
           id="circle1935"
           r="0.46996346"
           cy="31.301966"
           cx="-26.947889"
           style="fill:#ffffff;stroke-width:1.39455032" />
        <circle
           id="circle1939"
           r="0.46996346"
           cy="49.736992"
           cx="118.87396"
           style="fill:#ffffff;stroke-width:1.39455032" />
        <circle
           id="circle1947"
           r="0.46996346"
           cy="30.895714"
           cx="12.166101"
           style="fill:#ffffff;stroke-width:1.39455032" />
        <circle
           id="circle1949"
           r="0.46996346"
           cy="81.001999"
           cx="-30.690647"
           style="fill:#ffffff;stroke-width:1.39455032" />
        <circle
           id="circle1951"
           r="0.46996346"
           cy="71.158905"
           cx="35.365128"
           style="fill:#ffffff;stroke-width:1.39455032" />
        <circle
           id="circle1953"
           r="0.46996346"
           cy="55.714684"
           cx="63.721363"
           style="fill:#ffffff;stroke-width:1.39455032" />
        <circle
           id="circle1955"
           r="0.46996346"
           cy="18.448643"
           cx="124.32183"
           style="fill:#ffffff;stroke-width:1.39455032" />
        <circle
           id="circle1959"
           r="0.471358"
           cy="69.468407"
           cx="51.748089"
           style="fill:#ffffff;stroke-width:1.39455032" />
        <circle
           id="circle1963"
           r="0.471358"
           cy="16.979746"
           cx="83.045891"
           style="fill:#ffffff;stroke-width:1.39455032" />
        <circle
           id="circle1967"
           r="0.46996346"
           cy="63.717815"
           cx="-32.113911"
           style="fill:#ffffff;stroke-width:1.39455032" />
        <circle
           id="circle1971"
           r="0.46996346"
           cy="14.535924"
           cx="-39.168896"
           style="fill:#ffffff;stroke-width:1.39455032" />
        <circle
           id="circle1973"
           r="0.46996346"
           cy="80.968208"
           cx="51.733646"
           style="fill:#ffffff;stroke-width:1.39455032" />
        <circle
           id="circle1975"
           r="0.46996346"
           cy="56.042892"
           cx="122.53441"
           style="fill:#ffffff;stroke-width:1.39455032" />
        <circle
           id="circle1977"
           r="0.46996346"
           cy="33.671371"
           cx="10.310374"
           style="fill:#ffffff;stroke-width:1.39455032" />
        <circle
           id="circle1983"
           r="0.62754762"
           cy="90.648155"
           cx="66.599289"
           style="fill:#ffffff;stroke-width:1.39455032" />
        <circle
           id="circle1985"
           r="0.62754762"
           cy="78.429047"
           cx="-13.381884"
           style="fill:#ffffff;stroke-width:1.39455032" />
        <circle
           id="circle1989"
           r="0.62754762"
           cy="47.946869"
           cx="22.915762"
           style="fill:#ffffff;stroke-width:1.39455032" />
        <path
           id="path1991"
           d="m 118.91387,83.403233 1.5605,-0.149216 -1.55771,-0.08786 c -0.0488,-0.301223 -0.29007,-0.536902 -0.59408,-0.575949 l -0.14922,-1.553529 -0.0893,1.56608 c -0.2817,0.06275 -0.49785,0.298432 -0.53272,0.591287 l -1.59536,0.145034 1.60652,0.08646 c 0.0586,0.269148 0.27612,0.479725 0.54945,0.529929 l 0.14504,1.600944 0.0851,-1.598155 c 0.28867,-0.04881 0.51738,-0.270543 0.57176,-0.55503 z"
           inkscape:connector-curvature="0"
           style="fill:#ffffff;stroke-width:1.39455032" />
        <path
           id="path1993"
           d="m 25.121441,17.0106 1.5605,-0.149217 -1.55771,-0.08786 c -0.0474,-0.301223 -0.29007,-0.536902 -0.59408,-0.57595 l -0.14922,-1.553529 -0.0879,1.56608 c -0.28309,0.06276 -0.49925,0.298434 -0.53411,0.59129 l -1.59537,0.145033 1.60652,0.08646 c 0.0586,0.26915 0.27613,0.479727 0.54946,0.529929 l 0.14503,1.600944 0.0865,-1.598155 c 0.28867,-0.04742 0.51738,-0.270543 0.57037,-0.555031 z"
           inkscape:connector-curvature="0"
           style="fill:#ffffff;stroke-width:1.39455032" />
        <path
           id="path1997"
           d="m 2.9834939,72.409046 1.5605,-0.149217 -1.55771,-0.08786 c -0.0488,-0.301223 -0.29007,-0.536904 -0.59408,-0.575951 l -0.14922,-1.552135 -0.0879,1.564686 c -0.28309,0.06275 -0.49925,0.298434 -0.53411,0.591289 l -1.59537002,0.145035 1.60653002,0.08646 c 0.0586,0.269149 0.27612,0.48112 0.54945,0.529929 l 0.14503,1.600944 0.0865,-1.598155 c 0.28727,-0.04741 0.51737,-0.270543 0.57037,-0.555031 z"
           inkscape:connector-curvature="0"
           style="fill:#ffffff;stroke-width:1.39455032" />
        <path
           id="path1999"
           d="m -6.1930112,56.334014 1.5605,-0.149217 -1.55771,-0.08786 c -0.0474,-0.301224 -0.29007,-0.536903 -0.59408,-0.575951 l -0.14922,-1.553529 -0.0879,1.564687 c -0.2817,0.06275 -0.49785,0.298434 -0.53272,0.59129 l -1.59536,0.145031 1.60652,0.08646 c 0.0586,0.269147 0.27612,0.479726 0.54945,0.52993 l 0.14504,1.600942 0.0865,-1.598155 c 0.28588,-0.04602 0.51598,-0.269148 0.56897,-0.553636 z"
           inkscape:connector-curvature="0"
           style="fill:#ffffff;stroke-width:1.39455032" />
        <circle
           id="circle1921-4"
           r="0.62754756"
           cy="23.703281"
           cx="47.242702"
           style="fill:#ffffff;stroke-width:1.3945502" />
        <circle
           id="circle1925-4"
           r="0.62754756"
           cy="46.989731"
           cx="81.834183"
           style="fill:#ffffff;stroke-width:1.3945502" />
        <circle
           id="circle1927-4"
           r="0.62754756"
           cy="80.36805"
           cx="76.27446"
           style="fill:#ffffff;stroke-width:1.3945502" />
        <circle
           id="circle1929-3"
           r="0.62754756"
           cy="65.826721"
           cx="22.118767"
           style="fill:#ffffff;stroke-width:1.3945502" />
        <circle
           id="circle1931-0"
           r="0.46996343"
           cy="79.809242"
           cx="-12.563877"
           style="fill:#ffffff;stroke-width:1.3945502" />
        <circle
           id="circle1939-8"
           r="0.46996343"
           cy="29.185884"
           cx="-24.260344"
           style="fill:#ffffff;stroke-width:1.3945502" />
        <circle
           id="circle1941-8"
           r="0.46996343"
           cy="33.121189"
           cx="11.0884"
           style="fill:#ffffff;stroke-width:1.3945502" />
        <circle
           id="circle1943-4"
           r="0.46996343"
           cy="57.395325"
           cx="-4.7921805"
           style="fill:#ffffff;stroke-width:1.3945502" />
        <circle
           id="circle1945-3"
           r="0.46996343"
           cy="20.73564"
           cx="67.433517"
           style="fill:#ffffff;stroke-width:1.3945502" />
        <circle
           id="circle1947-1"
           r="0.46996343"
           cy="38.772778"
           cx="115.42057"
           style="fill:#ffffff;stroke-width:1.3945502" />
        <circle
           id="circle1949-4"
           r="0.46996343"
           cy="40.025177"
           cx="102.05515"
           style="fill:#ffffff;stroke-width:1.3945502" />
        <circle
           id="circle1951-9"
           r="0.46996343"
           cy="64.24189"
           cx="112.29041"
           style="fill:#ffffff;stroke-width:1.3945502" />
        <circle
           id="circle1953-2"
           r="0.46996343"
           cy="20.742167"
           cx="-40.532875"
           style="fill:#ffffff;stroke-width:1.3945502" />
        <circle
           id="circle1955-0"
           r="0.46996343"
           cy="58.3731"
           cx="-13.863335"
           style="fill:#ffffff;stroke-width:1.3945502" />
        <circle
           id="circle1959-8"
           r="0.471358"
           cy="102.58856"
           cx="110.80331"
           style="fill:#ffffff;stroke-width:1.3945502" />
        <circle
           id="circle1961-9"
           r="0.471358"
           cy="9.1262789"
           cx="112.29501"
           style="fill:#ffffff;stroke-width:1.3945502" />
        <circle
           id="circle1965-6"
           r="0.471358"
           cy="40.781738"
           cx="125.66035"
           style="fill:#ffffff;stroke-width:1.3945502" />
        <circle
           id="circle1967-6"
           r="0.46996343"
           cy="78.643227"
           cx="20.020096"
           style="fill:#ffffff;stroke-width:1.3945502" />
        <circle
           id="circle1973-5"
           r="0.46996343"
           cy="6.5565205"
           cx="69.42971"
           style="fill:#ffffff;stroke-width:1.3945502" />
        <circle
           id="circle1975-0"
           r="0.46996343"
           cy="5.578784"
           cx="110.01174"
           style="fill:#ffffff;stroke-width:1.3945502" />
        <circle
           id="circle1977-4"
           r="0.46996343"
           cy="-4.1741395"
           cx="46.001137"
           style="fill:#ffffff;stroke-width:1.3945502" />
        <circle
           id="circle1979-8"
           r="0.62754756"
           cy="34.01162"
           cx="19.762846"
           style="fill:#ffffff;stroke-width:1.3945502" />
        <circle
           id="circle1981-7"
           r="0.62754756"
           cy="101.96929"
           cx="-31.817266"
           style="fill:#ffffff;stroke-width:1.3945502" />
        <circle
           id="circle1987-2"
           r="0.62754756"
           cy="9.3915033"
           cx="-35.551685"
           style="fill:#ffffff;stroke-width:1.3945502" />
        <circle
           id="circle1989-7"
           r="0.62754756"
           cy="7.0435553"
           cx="-2.0078232"
           style="fill:#ffffff;stroke-width:1.3945502" />
        <path
           id="path1991-2"
           d="m -22.438738,43.997348 1.5605,-0.149217 -1.55771,-0.08786 c -0.0488,-0.301223 -0.29007,-0.536902 -0.59408,-0.57595 l -0.14922,-1.553529 -0.0892,1.56608 c -0.2817,0.06275 -0.49785,0.298434 -0.53272,0.59129 l -1.59536,0.145033 1.60652,0.08646 c 0.0586,0.269148 0.27612,0.479725 0.54945,0.529929 l 0.14503,1.600944 0.0851,-1.598155 c 0.28867,-0.04881 0.51738,-0.270543 0.57177,-0.555031 z"
           inkscape:connector-curvature="0"
           style="fill:#ffffff;stroke-width:1.3945502" />
        <path
           id="path1993-2"
           d="m -6.5664453,34.52234 1.56051,-0.149216 -1.55772,-0.08786 c -0.0474,-0.301224 -0.29006,-0.536903 -0.59408,-0.575949 l -0.14921,-1.553529 -0.0879,1.56608 c -0.2831,0.06275 -0.49925,0.298433 -0.53412,0.591289 l -1.59536,0.145032 1.60652,0.08646 c 0.0586,0.269151 0.27612,0.479728 0.54945,0.52993 l 0.14504,1.600943 0.0865,-1.598155 c 0.28867,-0.04742 0.51738,-0.270541 0.57037,-0.55503 z"
           inkscape:connector-curvature="0"
           style="fill:#ffffff;stroke-width:1.3945502" />
        <path
           id="path1995-6"
           d="m 8.6387333,99.020356 1.5604997,-0.14922 -1.5577197,-0.0879 c -0.0474,-0.30122 -0.29006,-0.536899 -0.59407,-0.575945 l -0.14922,-1.553528 -0.0879,1.566079 c -0.2817,0.06275 -0.49785,0.298434 -0.53272,0.591284 l -1.59536,0.14504 1.60652,0.0865 c 0.0586,0.26915 0.27612,0.47972 0.54945,0.52993 l 0.14503,1.600944 0.0865,-1.598164 c 0.28589,-0.0474 0.51459,-0.26914 0.56898,-0.55502 z"
           inkscape:connector-curvature="0"
           style="fill:#ffffff;stroke-width:1.3945502" />
        <path
           id="path1999-0"
           d="m 17.515566,86.425562 1.5605,-0.149217 -1.55771,-0.08786 c -0.0474,-0.301225 -0.29007,-0.536904 -0.59408,-0.575952 l -0.14922,-1.553531 -0.0879,1.564689 c -0.2817,0.06275 -0.49785,0.298434 -0.53272,0.591285 l -1.59536,0.145034 1.60652,0.08646 c 0.0586,0.26915 0.27612,0.479731 0.54945,0.529931 l 0.14504,1.60095 0.0865,-1.59816 c 0.28588,-0.046 0.51598,-0.269151 0.56897,-0.553633 z"
           inkscape:connector-curvature="0"
           style="fill:#ffffff;stroke-width:1.3945502" />
        <circle
           id="circle1921-6"
           r="0.62754756"
           cy="57.684174"
           cx="9.3143358"
           style="fill:#ffffff;stroke-width:1.3945502" />
        <circle
           id="circle1925-5"
           r="0.62754756"
           cy="0.80875593"
           cx="72.147858"
           style="fill:#ffffff;stroke-width:1.3945502" />
        <circle
           id="circle1927-9"
           r="0.62754756"
           cy="24.725758"
           cx="101.46745"
           style="fill:#ffffff;stroke-width:1.3945502" />
        <circle
           id="circle1933-0"
           r="0.471358"
           cy="57.778645"
           cx="-0.73576242"
           style="fill:#ffffff;stroke-width:1.3945502" />
        <circle
           id="circle1935-9"
           r="0.46996343"
           cy="38.334774"
           cx="7.4972763"
           style="fill:#ffffff;stroke-width:1.3945502" />
        <circle
           id="circle1937-1"
           r="0.471358"
           cy="46.295547"
           cx="102.19841"
           style="fill:#ffffff;stroke-width:1.3945502" />
        <circle
           id="circle1939-7"
           r="0.46996343"
           cy="49.669289"
           cx="100.76266"
           style="fill:#ffffff;stroke-width:1.3945502" />
        <circle
           id="circle1941-7"
           r="0.46996343"
           cy="77.395454"
           cx="-30.494884"
           style="fill:#ffffff;stroke-width:1.3945502" />
        <circle
           id="circle1945-1"
           r="0.46996343"
           cy="59.910759"
           cx="-2.4303157"
           style="fill:#ffffff;stroke-width:1.3945502" />
        <circle
           id="circle1947-5"
           r="0.46996343"
           cy="69.42363"
           cx="54.440792"
           style="fill:#ffffff;stroke-width:1.3945502" />
        <circle
           id="circle1949-9"
           r="0.46996343"
           cy="87.353546"
           cx="55.445732"
           style="fill:#ffffff;stroke-width:1.3945502" />
        <circle
           id="circle1951-7"
           r="0.46996343"
           cy="21.126659"
           cx="10.03053"
           style="fill:#ffffff;stroke-width:1.3945502" />
        <circle
           id="circle1953-7"
           r="0.46996343"
           cy="35.467567"
           cx="51.967552"
           style="fill:#ffffff;stroke-width:1.3945502" />
        <circle
           id="circle1955-6"
           r="0.46996343"
           cy="54.710873"
           cx="88.620544"
           style="fill:#ffffff;stroke-width:1.3945502" />
        <circle
           id="circle1957-7"
           r="0.46996343"
           cy="30.475639"
           cx="-6.5918159"
           style="fill:#ffffff;stroke-width:1.3945502" />
        <circle
           id="circle1961-6"
           r="0.471358"
           cy="39.500885"
           cx="101.3826"
           style="fill:#ffffff;stroke-width:1.3945502" />
        <circle
           id="circle1963-5"
           r="0.471358"
           cy="38.289791"
           cx="48.03603"
           style="fill:#ffffff;stroke-width:1.3945502" />
        <circle
           id="circle1965-63"
           r="0.471358"
           cy="35.448162"
           cx="112.73993"
           style="fill:#ffffff;stroke-width:1.3945502" />
        <circle
           id="circle1967-9"
           r="0.46996343"
           cy="74.841331"
           cx="117.24106"
           style="fill:#ffffff;stroke-width:1.3945502" />
        <circle
           id="circle1969-48"
           r="0.46996343"
           cy="20.788866"
           cx="10.888428"
           style="fill:#ffffff;stroke-width:1.3945502" />
        <circle
           id="circle1975-9"
           r="0.46996343"
           cy="32.764153"
           cx="-24.682503"
           style="fill:#ffffff;stroke-width:1.3945502" />
        <circle
           id="circle1977-3"
           r="0.46996343"
           cy="68.505318"
           cx="12.811444"
           style="fill:#ffffff;stroke-width:1.3945502" />
        <circle
           id="circle1979-9"
           r="0.62754756"
           cy="13.430816"
           cx="27.146534"
           style="fill:#ffffff;stroke-width:1.3945502" />
        <circle
           id="circle1981-0"
           r="0.62754756"
           cy="100.69727"
           cx="60.036919"
           style="fill:#ffffff;stroke-width:1.3945502" />
        <circle
           id="circle1985-8"
           r="0.62754756"
           cy="80.740334"
           cx="85.123955"
           style="fill:#ffffff;stroke-width:1.3945502" />
        <circle
           id="circle1989-0"
           r="0.62754756"
           cy="7.2562017"
           cx="19.624607"
           style="fill:#ffffff;stroke-width:1.3945502" />
        <path
           id="path1991-9"
           d="m 122.57273,36.035254 1.5605,-0.149217 -1.55771,-0.08786 c -0.0488,-0.301223 -0.29006,-0.536902 -0.59408,-0.57595 l -0.14921,-1.553529 -0.0892,1.56608 c -0.2817,0.06275 -0.49786,0.298434 -0.53272,0.59129 l -1.59537,0.145033 1.60652,0.08646 c 0.0586,0.269148 0.27612,0.479725 0.54946,0.529929 l 0.14503,1.600944 0.0851,-1.598155 c 0.28867,-0.04881 0.51738,-0.270543 0.57177,-0.555031 z"
           inkscape:connector-curvature="0"
           style="fill:#ffffff;stroke-width:1.3945502" />
        <path
           id="path1993-6"
           d="m 99.071846,53.630645 1.560504,-0.14921 -1.557715,-0.0879 c -0.04742,-0.30123 -0.290066,-0.5369 -0.594078,-0.57595 l -0.149217,-1.55353 -0.08786,1.56608 c -0.283094,0.0628 -0.49925,0.29843 -0.534112,0.59129 l -1.595367,0.14503 1.606522,0.0865 c 0.05857,0.26915 0.276121,0.47973 0.549453,0.52993 l 0.145033,1.60094 0.08646,-1.59815 c 0.288672,-0.0474 0.517378,-0.27054 0.570371,-0.55503 z"
           inkscape:connector-curvature="0"
           style="fill:#ffffff;stroke-width:1.3945502" />
        <path
           id="path1995-3"
           d="m 21.109076,24.014156 1.5605,-0.149213 -1.55771,-0.08786 c -0.0474,-0.301222 -0.29007,-0.536903 -0.59408,-0.575949 l -0.14921,-1.553527 -0.0879,1.566078 c -0.2817,0.06276 -0.49786,0.298434 -0.53272,0.59129 l -1.59537,0.145031 1.60652,0.0865 c 0.0586,0.26915 0.27612,0.47973 0.54946,0.52993 l 0.14503,1.60094 0.0865,-1.59815 c 0.28588,-0.0474 0.51459,-0.26915 0.56898,-0.55503 z"
           inkscape:connector-curvature="0"
           style="fill:#ffffff;stroke-width:1.3945502" />
        <path
           id="path1997-8"
           d="m 43.316948,16.016756 1.56051,-0.14922 -1.55772,-0.0879 c -0.0488,-0.30122 -0.29006,-0.5369 -0.59408,-0.57595 l -0.14921,-1.552124 -0.0879,1.564674 c -0.28309,0.0627 -0.49925,0.29843 -0.53411,0.59129 l -1.59537,0.14504 1.60652,0.0865 c 0.0586,0.26915 0.27612,0.48112 0.54946,0.52993 l 0.14503,1.60094 0.0865,-1.59815 c 0.28728,-0.0474 0.51738,-0.27054 0.57037,-0.55504 z"
           inkscape:connector-curvature="0"
           style="fill:#ffffff;stroke-width:1.3945502" />
        <circle
           id="circle1921-61"
           r="0.62754756"
           cy="15.476149"
           cx="-1.280072"
           style="fill:#ffffff;stroke-width:1.3945502" />
        <circle
           id="circle1925-9"
           r="0.62754756"
           cy="29.771353"
           cx="-40.732483"
           style="fill:#ffffff;stroke-width:1.3945502" />
        <circle
           id="circle1927-8"
           r="0.62754756"
           cy="57.154751"
           cx="-27.626333"
           style="fill:#ffffff;stroke-width:1.3945502" />
        <circle
           id="circle1929-48"
           r="0.62754756"
           cy="37.170101"
           cx="108.34782"
           style="fill:#ffffff;stroke-width:1.3945502" />
        <circle
           id="circle1935-0"
           r="0.46996343"
           cy="26.821802"
           cx="127.22707"
           style="fill:#ffffff;stroke-width:1.3945502" />
        <circle
           id="circle1937-4"
           r="0.471358"
           cy="47.111084"
           cx="-10.817857"
           style="fill:#ffffff;stroke-width:1.3945502" />
        <circle
           id="circle1939-4"
           r="0.46996343"
           cy="93.716621"
           cx="-34.29921"
           style="fill:#ffffff;stroke-width:1.3945502" />
        <circle
           id="circle1941-4"
           r="0.46996343"
           cy="28.623775"
           cx="35.805012"
           style="fill:#ffffff;stroke-width:1.3945502" />
        <circle
           id="circle1943-47"
           r="0.46996343"
           cy="50.037037"
           cx="4.4481182"
           style="fill:#ffffff;stroke-width:1.3945502" />
        <circle
           id="circle1951-75"
           r="0.46996343"
           cy="-0.75053054"
           cx="19.837366"
           style="fill:#ffffff;stroke-width:1.3945502" />
        <circle
           id="circle1953-9"
           r="0.46996343"
           cy="18.965889"
           cx="37.194027"
           style="fill:#ffffff;stroke-width:1.3945502" />
        <circle
           id="circle1955-62"
           r="0.46996343"
           cy="81.454956"
           cx="62.86454"
           style="fill:#ffffff;stroke-width:1.3945502" />
        <circle
           id="circle1957-1"
           r="0.46996343"
           cy="37.137184"
           cx="43.033485"
           style="fill:#ffffff;stroke-width:1.3945502" />
        <circle
           id="circle1959-7"
           r="0.471358"
           cy="93.192307"
           cx="29.328888"
           style="fill:#ffffff;stroke-width:1.3945502" />
        <circle
           id="circle1963-57"
           r="0.471358"
           cy="15.95381"
           cx="-11.571309"
           style="fill:#ffffff;stroke-width:1.3945502" />
        <circle
           id="circle1965-4"
           r="0.471358"
           cy="67.448196"
           cx="116.52967"
           style="fill:#ffffff;stroke-width:1.3945502" />
        <circle
           id="circle1967-1"
           r="0.46996343"
           cy="1.2131757"
           cx="93.412819"
           style="fill:#ffffff;stroke-width:1.3945502" />
        <circle
           id="circle1971-5"
           r="0.46996343"
           cy="26.269602"
           cx="15.023175"
           style="fill:#ffffff;stroke-width:1.3945502" />
        <circle
           id="circle1973-9"
           r="0.46996343"
           cy="87.103767"
           cx="96.114586"
           style="fill:#ffffff;stroke-width:1.3945502" />
        <circle
           id="circle1975-7"
           r="0.46996343"
           cy="3.4500332"
           cx="118.14855"
           style="fill:#ffffff;stroke-width:1.3945502" />
        <circle
           id="circle1977-5"
           r="0.46996343"
           cy="86.555054"
           cx="120.08711"
           style="fill:#ffffff;stroke-width:1.3945502" />
        <circle
           id="circle1983-83"
           r="0.62754756"
           cy="81.502937"
           cx="104.84232"
           style="fill:#ffffff;stroke-width:1.3945502" />
        <circle
           id="circle1985-1"
           r="0.62754756"
           cy="89.984077"
           cx="21.67243"
           style="fill:#ffffff;stroke-width:1.3945502" />
        <circle
           id="circle1987-8"
           r="0.62754756"
           cy="11.403201"
           cx="108.7787"
           style="fill:#ffffff;stroke-width:1.3945502" />
        <circle
           id="circle1989-9"
           r="0.62754756"
           cy="55.684235"
           cx="47.442585"
           style="fill:#ffffff;stroke-width:1.3945502" />
        <path
           id="path1991-6"
           d="m 93.122846,14.114879 1.5605,-0.149217 -1.55771,-0.08786 c -0.0488,-0.301223 -0.29006,-0.536902 -0.59408,-0.57595 l -0.14921,-1.553529 -0.0893,1.56608 c -0.2817,0.06275 -0.49786,0.298434 -0.53272,0.59129 l -1.59537,0.145033 1.60652,0.08646 c 0.0586,0.269148 0.27612,0.479725 0.54946,0.529929 l 0.14503,1.600944 0.0851,-1.598155 c 0.28867,-0.04881 0.51738,-0.270543 0.57177,-0.555031 z"
           inkscape:connector-curvature="0"
           style="fill:#ffffff;stroke-width:1.3945502" />
        <path
           id="path1995-33"
           d="m 22.081744,52.798779 1.5605,-0.149217 -1.55771,-0.08786 c -0.0474,-0.301222 -0.29007,-0.536903 -0.59408,-0.575949 l -0.14922,-1.553528 -0.0879,1.566079 c -0.2817,0.06275 -0.49785,0.298434 -0.53271,0.591289 l -1.59537,0.145032 1.60652,0.08646 c 0.0586,0.26915 0.27612,0.479726 0.54945,0.529931 l 0.14504,1.600943 0.0865,-1.598155 c 0.28588,-0.04742 0.51459,-0.269146 0.56897,-0.55503 z"
           inkscape:connector-curvature="0"
           style="fill:#ffffff;stroke-width:1.3945502" />
        <path
           id="path1997-3"
           d="m -15.041947,62.900853 1.5605,-0.149215 -1.55771,-0.08786 c -0.0488,-0.301226 -0.29006,-0.536905 -0.59408,-0.575952 l -0.14921,-1.552132 -0.0879,1.564681 c -0.28309,0.06275 -0.49925,0.298434 -0.53411,0.591292 l -1.59537,0.145034 1.60652,0.08646 c 0.0586,0.269152 0.27612,0.481124 0.54946,0.529929 l 0.14503,1.600947 0.0865,-1.598155 c 0.28728,-0.04742 0.51738,-0.270543 0.57037,-0.555037 z"
           inkscape:connector-curvature="0"
           style="fill:#ffffff;stroke-width:1.3945502" />
        <circle
           id="circle1921-60"
           r="0.62754756"
           cy="37.757942"
           cx="121.39408"
           style="fill:#ffffff;stroke-width:1.3945502" />
        <circle
           id="circle1923-4"
           r="0.62754756"
           cy="8.2846155"
           cx="92.523346"
           style="fill:#ffffff;stroke-width:1.3945502" />
        <circle
           id="circle1925-8"
           r="0.62754756"
           cy="2.7344928"
           cx="47.554405"
           style="fill:#ffffff;stroke-width:1.3945502" />
        <circle
           id="circle1927-88"
           r="0.62754756"
           cy="58.360039"
           cx="28.906246"
           style="fill:#ffffff;stroke-width:1.3945502" />
        <circle
           id="circle1929-9"
           r="0.62754756"
           cy="4.6247163"
           cx="3.9506919"
           style="fill:#ffffff;stroke-width:1.3945502" />
        <circle
           id="circle1931-7"
           r="0.46996343"
           cy="87.330528"
           cx="80.630821"
           style="fill:#ffffff;stroke-width:1.3945502" />
        <circle
           id="circle1933-76"
           r="0.471358"
           cy="45.330544"
           cx="-36.066036"
           style="fill:#ffffff;stroke-width:1.3945502" />
        <circle
           id="circle1935-4"
           r="0.46996343"
           cy="47.262508"
           cx="4.4707975"
           style="fill:#ffffff;stroke-width:1.3945502" />
        <circle
           id="circle1937-3"
           r="0.471358"
           cy="100.30697"
           cx="4.499505"
           style="fill:#ffffff;stroke-width:1.3945502" />
        <circle
           id="circle1939-0"
           r="0.46996343"
           cy="43.598999"
           cx="37.667027"
           style="fill:#ffffff;stroke-width:1.3945502" />
        <circle
           id="circle1943-0"
           r="0.46996343"
           cy="4.1608515"
           cx="121.84708"
           style="fill:#ffffff;stroke-width:1.3945502" />
        <circle
           id="circle1945-9"
           r="0.46996343"
           cy="59.571033"
           cx="107.45494"
           style="fill:#ffffff;stroke-width:1.3945502" />
        <circle
           id="circle1947-2"
           r="0.46996343"
           cy="75.183289"
           cx="6.9180937"
           style="fill:#ffffff;stroke-width:1.3945502" />
        <circle
           id="circle1949-5"
           r="0.46996343"
           cy="88.348709"
           cx="-30.521671"
           style="fill:#ffffff;stroke-width:1.3945502" />
        <circle
           id="circle1955-5"
           r="0.46996343"
           cy="51.966988"
           cx="85.235619"
           style="fill:#ffffff;stroke-width:1.3945502" />
        <circle
           id="circle1959-4"
           r="0.471358"
           cy="79.314354"
           cx="-26.010006"
           style="fill:#ffffff;stroke-width:1.3945502" />
        <circle
           id="circle1961-69"
           r="0.471358"
           cy="53.29586"
           cx="69.575325"
           style="fill:#ffffff;stroke-width:1.3945502" />
        <circle
           id="circle1965-47"
           r="0.471358"
           cy="59.482674"
           cx="108.56923"
           style="fill:#ffffff;stroke-width:1.3945502" />
        <circle
           id="circle1967-7"
           r="0.46996343"
           cy="32.198956"
           cx="80.205658"
           style="fill:#ffffff;stroke-width:1.3945502" />
        <circle
           id="circle1973-8"
           r="0.46996343"
           cy="101.83273"
           cx="55.099407"
           style="fill:#ffffff;stroke-width:1.3945502" />
        <circle
           id="circle1975-1"
           r="0.46996343"
           cy="92.385612"
           cx="57.990681"
           style="fill:#ffffff;stroke-width:1.3945502" />
        <circle
           id="circle1977-2"
           r="0.46996343"
           cy="35.568497"
           cx="17.856888"
           style="fill:#ffffff;stroke-width:1.3945502" />
        <circle
           id="circle1979-89"
           r="0.62754756"
           cy="49.722332"
           cx="118.46623"
           style="fill:#ffffff;stroke-width:1.3945502" />
        <circle
           id="circle1981-3"
           r="0.62754756"
           cy="36.105007"
           cx="-14.165915"
           style="fill:#ffffff;stroke-width:1.3945502" />
        <circle
           id="circle1983-6"
           r="0.62754756"
           cy="22.238911"
           cx="48.177433"
           style="fill:#ffffff;stroke-width:1.3945502" />
        <circle
           id="circle1985-80"
           r="0.62754756"
           cy="51.491039"
           cx="-23.60651"
           style="fill:#ffffff;stroke-width:1.3945502" />
        <circle
           id="circle1987-21"
           r="0.62754756"
           cy="77.659821"
           cx="94.302818"
           style="fill:#ffffff;stroke-width:1.3945502" />
        <path
           id="path1993-1"
           d="m 5.5268994,100.98126 1.560502,-0.14922 -1.557713,-0.0879 c -0.04741,-0.30123 -0.290066,-0.53691 -0.594078,-0.57595 l -0.149217,-1.55353 -0.08786,1.56608 c -0.283093,0.0628 -0.499249,0.29843 -0.534112,0.59129 l -1.595366,0.14503 1.606522,0.0865 c 0.05857,0.26915 0.276121,0.47973 0.549453,0.52993 l 0.145033,1.60094 0.08646,-1.59815 c 0.288672,-0.0474 0.517378,-0.27054 0.570371,-0.55503 z"
           inkscape:connector-curvature="0"
           style="fill:#ffffff;stroke-width:1.3945502" />
        <path
           id="path1999-06"
           d="m 110.42353,54.303712 1.5605,-0.149217 -1.55771,-0.08786 c -0.0474,-0.301226 -0.29007,-0.536905 -0.59408,-0.575952 l -0.14922,-1.553532 -0.0879,1.56469 c -0.2817,0.06275 -0.49785,0.298434 -0.53271,0.591285 l -1.59537,0.145033 1.60652,0.08646 c 0.0586,0.269144 0.27612,0.479724 0.54945,0.529929 l 0.14504,1.600945 0.0865,-1.598153 c 0.28588,-0.04602 0.51598,-0.269152 0.56897,-0.553636 z"
           inkscape:connector-curvature="0"
           style="fill:#ffffff;stroke-width:1.3945502" />
      </g>
    </g>
    <g
       id="g2595"
       transform="matrix(1.497236,0,0,1.497236,3.8851773,-379.02243)">
      <path
         id="path2003"
         d="m -178.78348,716.98438 2.52439,3.56 c 25.57157,-13.74222 80.255591,19.98953 125.972161,77.53014 9.896531,12.45394 18.596531,24.95492 25.96379,37.14139 28.2114543,46.69062 36.868939,88.91349 17.3762007,106.14908 -5.9641897,5.27439 -24.1897287,7.34404 -48.0652827,-3.40185 -0.33317,0.4177 0.201449,1.54842 0.619083,1.8252 20.609562,8.28701 40.351456,11.44529 50.3183761,3.52899 C 19.875867,924.28442 1.4760641,857.07361 -47.757884,795.10415 -94.462354,736.31849 -150.96293,702.6981 -178.78348,716.98438 Z"
         style="fill:#ff0000;stroke-width:4.69252205"
         inkscape:connector-curvature="0" />
      <circle
         r="86.721352"
         cy="830.79553"
         cx="-93.924606"
         id="path2112"
         style="opacity:1;fill:#ffdd55;fill-opacity:1;stroke:#000000;stroke-width:2.29999995;stroke-miterlimit:4;stroke-dasharray:none;stroke-opacity:1" />
      <path
         id="path2106"
         d="m -178.78348,716.98438 c -1.50674,0.77372 -2.9507,1.65233 -4.28294,2.71095 -20.14031,16.0015 -11.87201,62.76689 15.88895,111.8929 l 8.97206,14.88488 c 5.90319,9.21141 12.45834,18.40849 19.60036,27.39937 5.21807,6.56953 9.96231,11.85799 12.39304,15.1474 0.49271,0.66638 1.46882,2.14005 2.78743,4.10154 l 4.47207,6.49936 c 5.56064,7.83648 13.13416,17.46086 19.06551,20.26698 8.934564,4.2327 11.341955,-3.3791 6.973216,-7.5179 -3.411464,-3.22839 -11.684626,-8.6201 -20.295406,-16.71008 l -5.61206,-5.66375 c -1.49691,-1.6283 -2.97522,-3.34094 -4.40645,-5.14284 -4.15288,-5.2275 -9.89651,-12.22859 -14.20895,-17.65784 -5.7671,-7.25932 -11.10218,-14.59404 -15.99179,-21.91906 l -9.48366,-15.14274 c -28.01905,-47.86373 -35.68681,-92.34411 -16.69148,-107.43996 1.04398,-0.82952 2.17498,-1.52072 3.34449,-2.14921 z"
         style="fill:#ff0000;stroke-width:4.69252205"
         inkscape:connector-curvature="0" />
    </g>
  </g>
</svg>
