<?xml version="1.0" encoding="UTF-8" standalone="no"?>
<!-- Created with Inkscape (http://www.inkscape.org/) -->

<svg
   xmlns:dc="http://purl.org/dc/elements/1.1/"
   xmlns:cc="http://creativecommons.org/ns#"
   xmlns:rdf="http://www.w3.org/1999/02/22-rdf-syntax-ns#"
   xmlns:svg="http://www.w3.org/2000/svg"
   xmlns="http://www.w3.org/2000/svg"
   xmlns:sodipodi="http://sodipodi.sourceforge.net/DTD/sodipodi-0.dtd"
   xmlns:inkscape="http://www.inkscape.org/namespaces/inkscape"
   width="238.125mm"
   height="158.75mm"
   viewBox="0 0 238.125 158.75"
   version="1.1"
   id="svg8"
   inkscape:version="0.92.5 (2060ec1f9f, 2020-04-08)"
   sodipodi:docname="honest-japan-flag.svg">
  <defs
     id="defs2" />
  <sodipodi:namedview
     id="base"
     pagecolor="#ffffff"
     bordercolor="#666666"
     borderopacity="1.0"
     inkscape:pageopacity="0.0"
     inkscape:pageshadow="2"
     inkscape:zoom="0.7"
     inkscape:cx="449.84947"
     inkscape:cy="356.88134"
     inkscape:document-units="mm"
     inkscape:current-layer="layer1"
     showgrid="false"
     inkscape:window-width="1848"
     inkscape:window-height="1016"
     inkscape:window-x="72"
     inkscape:window-y="27"
     inkscape:window-maximized="1" />
  <metadata
     id="metadata5">
    <rdf:RDF>
      <cc:Work
         rdf:about="">
        <dc:format>image/svg+xml</dc:format>
        <dc:type
           rdf:resource="http://purl.org/dc/dcmitype/StillImage" />
        <dc:title></dc:title>
      </cc:Work>
    </rdf:RDF>
  </metadata>
  <g
     inkscape:label="Layer 1"
     inkscape:groupmode="layer"
     id="layer1"
     transform="translate(-105.07738,-145.80952)">
    <g
       id="g841"
       transform="matrix(0.26458333,0,0,0.26458333,105.07738,145.80952)">
      <rect
         id="rect827"
         width="900"
         height="600"
         x="0"
         y="0"
         style="fill:#ffffff" />
      <circle
         id="circle829"
         r="180"
         cy="300"
         cx="450"
         style="fill:#693042;fill-opacity:1" />
      <g
         transform="matrix(5.3532647,0,0,5.3532647,-125.5911,-1072.5854)"
         id="g845">
        <path
           sodipodi:nodetypes="sccccccccscccccccccccccccccccccsccccccccccccccccccccc"
           inkscape:connector-curvature="0"
           id="path5797"
           d="m 107.52158,245.70801 c -0.37132,0 -0.73828,0.0192 -1.1,0.0564 v 0.87508 h -3.26056 c -3.707694,1.66448 -6.304974,5.38185 -6.332454,9.69296 h 21.385894 c -0.0274,-4.31111 -2.6247,-8.02848 -6.33234,-9.69296 h -3.26056 v -0.87508 c -0.36172,-0.0372 -0.72868,-0.0564 -1.09998,-0.0564 z m -2.87508,2.80241 h 5.75014 c 0.5983,0.217 1.16458,0.49973 1.69002,0.83984 h -9.13018 c 0.52542,-0.3401 1.09174,-0.62283 1.69002,-0.83984 z m -3.8503,2.85977 h 13.45064 c 0.23692,0.31689 0.45276,0.6506 0.64368,1.00014 H 100.1525 c 0.191,-0.34954 0.40672,-0.68325 0.6437,-1.00014 z m -1.426284,3.02018 h 16.303204 c 0.0832,0.34039 0.146,0.68885 0.1866,1.04438 H 99.183436 c 0.0404,-0.35553 0.10339,-0.70399 0.1866,-1.04438 z m -2.52739,2.56759 c 0.26297,5.09121 4.110724,9.25725 9.058994,10.01397 v -2.33268 c -1.5419,-0.29935 -2.93064,-1.01781 -4.04316,-2.03367 h 4.74316 v 4.44944 c 0.30338,0.026 0.6101,0.0401 0.92006,0.0401 3.23326,0 6.1374,-1.44621 8.10048,-3.72473 h -3.41096 c -1.09826,0.73884 -2.38212,1.22461 -3.76958,1.3747 v -2.13951 c 2.59402,0 5.18804,0 7.78206,0 0.31674,-0.44285 0.60064,-0.91075 0.848,-1.40003 -2.87668,0 -5.75338,0 -8.63006,0 v -0.76481 c 2.9934,0 5.9868,0 8.98022,0 0.44446,-1.08412 0.71544,-2.25667 0.77876,-3.48279 z m 2.51313,1.39806 h 16.331824 c -0.055,0.23219 -0.1196,0.46053 -0.1934,0.6847 H 99.549016 c -0.0738,-0.22417 -0.13841,-0.45251 -0.1934,-0.6847 z m 0.801294,2.08472 h 6.44457 v 0.76481 h -5.96946 c -0.17121,-0.24575 -0.33044,-0.50067 -0.47511,-0.76481 z"
           style="color:#000000;font-style:normal;font-variant:normal;font-weight:normal;font-stretch:normal;font-size:medium;line-height:normal;font-family:sans-serif;font-variant-ligatures:normal;font-variant-position:normal;font-variant-caps:normal;font-variant-numeric:normal;font-variant-alternates:normal;font-feature-settings:normal;text-indent:0;text-align:start;text-decoration:none;text-decoration-line:none;text-decoration-style:solid;text-decoration-color:#000000;letter-spacing:normal;word-spacing:normal;text-transform:none;writing-mode:lr-tb;direction:ltr;text-orientation:mixed;dominant-baseline:auto;baseline-shift:baseline;text-anchor:start;white-space:normal;shape-padding:0;clip-rule:nonzero;display:inline;overflow:visible;visibility:visible;opacity:1;isolation:auto;mix-blend-mode:normal;color-interpolation:sRGB;color-interpolation-filters:linearRGB;solid-color:#000000;solid-opacity:1;vector-effect:none;fill:#ffffff;fill-opacity:1;fill-rule:nonzero;stroke:none;stroke-width:2.29999995;stroke-linecap:butt;stroke-linejoin:miter;stroke-miterlimit:4;stroke-dasharray:none;stroke-dashoffset:0;stroke-opacity:1;paint-order:markers fill stroke;color-rendering:auto;image-rendering:auto;shape-rendering:auto;text-rendering:auto;enable-background:accumulate" />
        <path
           inkscape:connector-curvature="0"
           id="rect2715"
           d="m 107.58231,227.80751 c -2.15536,-0.0217 -4.28112,1.11035 -5.35523,3.23338 l -0.42368,0.83532 -0.64487,-0.49882 c -2.904187,-2.24907 -7.168967,-1.44733 -8.904817,1.67384 -0.48116,0.86517 -0.89357,2.65352 -0.75536,3.26935 0.0962,0.4285 0.0888,0.43442 -0.4054,0.3367 -0.27622,-0.0546 -0.9469,-0.13859 -1.49224,-0.18342 -4.248958,-0.3493 -7.511404,4.16862 -5.778906,8.0024 0.199895,0.44234 0.358249,0.86912 0.35297,0.94962 -0.0053,0.0805 -0.489059,0.28252 -1.07458,0.4478 -1.762509,0.4975 -2.941719,1.51399 -3.773789,3.25146 -0.354988,0.74126 -0.400336,1.00942 -0.393148,2.30184 0.0069,1.24929 0.06394,1.58393 0.389934,2.27773 0.435644,0.92717 1.133762,1.75787 1.980611,2.3589 0.32082,0.22769 0.511658,0.41484 0.423685,0.41484 -0.408861,0 -1.8513,1.5363 -2.312086,2.46397 -0.445729,0.89735 -0.485315,1.08881 -0.488171,2.43724 -0.0028,1.33711 0.03948,1.54597 0.463662,2.42197 0.528387,1.09122 1.697771,2.31167 2.649788,2.76169 0.342304,0.16181 0.994004,0.37687 1.446435,0.47471 0.452431,0.0978 0.841089,0.18772 0.862839,0.2013 0.02175,0.0136 -0.13373,0.39201 -0.34393,0.84134 -1.391861,2.97526 -0.11846,6.37096 2.913962,7.77418 0.855306,0.39579 1.141121,0.45276 2.250814,0.45362 0.69921,5.3e-4 1.53103,-0.0552 1.84842,-0.12616 l 0.57737,-0.12917 -0.0982,0.43573 c -0.13828,0.61612 0.27409,2.40398 0.75536,3.26935 0.82358,1.48085 2.52766,2.63439 4.30817,2.91798 1.4628,0.23299 3.29879,-0.21936 4.397157,-1.08181 0.95496,-0.74984 0.86264,-0.75748 1.26201,0.0962 0.71015,1.51802 2.33383,2.74238 4.14826,3.12811 1.06737,0.22692 1.13397,0.23035 2.17407,0.0422 1.78654,-0.3232 3.45093,-1.52778 4.23444,-3.06222 l 0.42991,-0.84436 0.6294,0.48677 c 2.33402,1.80751 5.55247,1.70594 7.71351,-0.24348 1.25137,-1.12883 1.86112,-2.50094 1.88841,-4.25513 0.008,-0.54911 0.0335,-0.99764 0.0552,-0.99764 0.0217,0 0.32286,0.0986 0.67259,0.21938 1.78572,0.61657 4.33522,-0.0741 5.77891,-1.56557 1.94826,-2.01272 2.20982,-4.74705 0.6969,-7.29626 -0.0258,-0.0435 0.32762,-0.15519 0.78609,-0.24931 1.82247,-0.3741 3.35183,-1.56811 4.16694,-3.25146 0.42588,-0.87953 0.46189,-1.07949 0.45442,-2.42198 -0.007,-1.24928 -0.0639,-1.58111 -0.38993,-2.27492 -0.43147,-0.91827 -1.13038,-1.75702 -1.95289,-2.34081 l -0.55889,-0.39676 0.60188,-0.40862 c 2.23062,-1.51279 3.02652,-4.77703 1.76867,-7.25709 -0.70405,-1.38816 -2.58423,-2.81012 -3.96122,-2.99914 -0.99643,-0.13678 -0.98503,-0.11289 -0.46668,-1.18387 0.43692,-0.90273 0.48215,-1.12367 0.48215,-2.38601 0,-1.25237 -0.048,-1.48503 -0.46688,-2.35006 -1.20339,-2.48527 -3.89456,-3.83096 -6.56501,-3.28139 -0.57579,0.11849 -1.05554,0.21636 -1.06554,0.21636 -0.01,0 -0.0254,-0.4186 -0.0368,-0.93155 -0.10652,-4.80765 -5.71425,-7.44067 -9.52818,-4.4745 -0.30454,0.23684 -0.59401,0.42971 -0.64487,0.42971 -0.0509,0 -0.24711,-0.33045 -0.43594,-0.73326 -0.18883,-0.40282 -0.68898,-1.07088 -1.11154,-1.48441 -1.173,-1.14793 -2.66149,-1.70097 -4.1362,-1.71583 z m -0.0922,1.22304 c 0.30485,3.9e-4 0.61679,0.0266 0.93355,0.084 1.66838,0.30225 3.06076,1.53747 3.55883,3.15543 l 0.23043,0.74512 -1.58445,8.10767 c -0.24703,1.26514 -0.42814,2.17982 -0.62699,3.18919 a 12.34291,12.34291 0 0 1 0.63322,0.16152 l 0.40198,-1.55974 c 2.60549,-10.09678 2.53528,-9.90037 3.93049,-10.84224 0.79035,-0.53354 1.50312,-0.75672 2.48104,-0.75717 0.1397,-6e-5 0.28452,0.006 0.43614,0.0151 1.75676,0.10143 3.13537,1.05771 3.912,2.71347 0.46922,1.00038 0.56957,2.2156 0.25795,3.12832 -0.0853,0.24973 -3.77271,5.19521 -7.00738,9.46611 a 12.34291,12.34291 0 0 1 0.50063,0.39335 c 0.53733,-0.62621 0.94597,-1.1048 1.52298,-1.7761 6.49134,-7.55211 6.44224,-7.50835 8.34914,-7.62371 0.11419,-0.007 0.22603,-0.01 0.3377,-0.009 3.46187,0.0146 5.67139,3.51257 4.07171,6.64717 -0.17705,0.34695 -0.53139,0.82633 -0.78609,1.06373 -0.25307,0.23586 -5.88627,3.18795 -10.48947,5.54145 a 12.34291,12.34291 0 0 1 0.25092,0.5611 c 1.09341,-0.47614 1.21808,-0.5303 2.44829,-1.06615 4.44206,-1.93481 8.29125,-3.56249 8.55486,-3.61789 0.0773,-0.0162 0.16897,-0.0257 0.2702,-0.0271 0.70863,-0.01 1.92577,0.3253 2.60077,0.7423 2.55417,1.57793 2.92738,4.9689 0.77686,7.06182 -1.27783,1.2436 -1.11345,1.21686 -8.57615,1.4394 -1.63895,0.0489 -3.40163,0.0982 -5.02516,0.14243 a 12.34291,12.34291 0 0 1 0.0102,0.2915 12.34291,12.34291 0 0 1 -0.009,0.17237 c 5.18565,0.1317 11.41593,0.37087 11.82179,0.48737 0.70411,0.20211 1.95485,1.16469 2.43202,1.87213 0.20226,0.29985 0.4739,0.95564 0.60489,1.45748 0.73067,2.7992 -1.56577,5.61866 -4.55366,5.59248 -0.75376,-0.007 -1.50195,-0.29768 -7.83023,-3.05921 -1.23279,-0.53796 -2.40996,-1.0545 -3.52348,-1.54427 a 12.34291,12.34291 0 0 1 -0.25071,0.51911 c 0.51552,0.25735 0.8687,0.43272 1.46512,0.73065 9.12239,4.55695 9.13835,4.56698 9.93038,6.12123 0.81469,1.59872 0.419,3.72493 -0.93958,5.05448 -1.11325,1.08947 -2.97934,1.60117 -4.40942,1.21099 -1.40427,-0.38314 -1.72903,-0.70465 -7.55983,-7.48851 -0.56714,-0.65983 -0.97758,-1.1383 -1.50871,-1.75661 a 12.34291,12.34291 0 0 1 -0.49842,0.41183 c 3.23489,4.2541 6.93114,9.19563 7.01842,9.45245 0.093,0.27365 0.16999,0.86819 0.16875,1.31907 -0.005,1.74493 -1.00966,3.30419 -2.64999,4.11691 -0.86138,0.42678 -2.64712,0.55036 -3.50037,0.24047 -1.17491,-0.42671 -2.08915,-1.18302 -2.59775,-2.14554 -0.22128,-0.41875 -1.6622,-5.91425 -2.89227,-10.81773 a 12.34291,12.34291 0 0 1 -0.5161,0.11572 c 0.12697,0.617 0.21609,1.04757 0.34996,1.69895 1.24054,6.03617 1.78792,8.99021 1.74717,9.44763 -0.13063,1.4663 -1.19593,2.95516 -2.61302,3.65727 -0.9853,0.48818 -2.65079,0.55243 -3.71553,0.14123 -0.41753,-0.16124 -1.0358,-0.52666 -1.37572,-0.81141 -0.7877,-0.65984 -1.53673,-2.1094 -1.54749,-2.99894 -0.004,-0.33184 1.09669,-6.06451 2.10055,-11.11525 a 12.34291,12.34291 0 0 1 -0.58882,-0.15026 c -0.27268,1.02787 -0.53997,2.03562 -0.89458,3.36516 -1.45538,5.45665 -2.06833,7.53391 -2.34604,7.9333 -0.43811,0.63007 -1.691997,1.51765 -2.441057,1.72788 -0.68977,0.1936 -2.20532,0.16739 -2.76671,-0.048 -1.24164,-0.47642 -2.19396,-1.30798 -2.79121,-2.44005 -0.47466,-0.8997 -0.55336,-2.45007 -0.17498,-3.39571 0.16368,-0.40907 2.59142,-3.69267 6.00913,-8.12555 l 0.93737,-1.2154 a 12.34291,12.34291 0 0 1 -0.48636,-0.38712 c -3.21152,3.76437 -7.1315,8.29174 -7.4397,8.55003 -0.75384,0.63177 -2.4445,0.99448 -3.56807,0.76641 -2.834167,-0.57529 -4.473647,-3.4344 -3.472851,-6.05212 0.643215,-1.68242 0.700833,-1.72077 9.230261,-5.99206 0.84313,-0.42222 1.46798,-0.73439 2.25423,-1.12781 a 12.34291,12.34291 0 0 1 -0.24168,-0.54021 c -0.98554,0.43296 -1.64501,0.72351 -2.93987,1.29235 -7.308426,3.2106 -7.654095,3.34553 -8.524125,3.33564 -0.498754,-0.006 -1.157028,-0.0998 -1.464467,-0.21034 -2.609385,-0.93801 -3.869632,-3.72073 -2.794432,-6.17547 0.414076,-0.94537 1.507733,-2.01333 2.422778,-2.36191 0.713525,-0.27182 1.434027,-0.31602 8.631596,-0.52896 1.24083,-0.0367 2.45711,-0.0698 3.62292,-0.10044 a 12.34291,12.34291 0 0 1 -0.007,-0.2017 12.34291,12.34291 0 0 1 0.0125,-0.25071 c -1.22228,-0.0364 -2.49945,-0.0752 -3.80935,-0.11712 -8.985298,-0.2877 -8.701289,-0.24866 -9.893608,-1.4155 -2.925721,-2.86321 -0.814908,-7.80091 3.334835,-7.80091 0.78447,0 1.379336,0.23294 7.645813,2.98388 1.63146,0.7162 2.57281,1.13107 3.7535,1.65014 a 12.34291,12.34291 0 0 1 0.27158,-0.5621 c -0.57211,-0.28955 -1.11071,-0.56108 -1.71603,-0.86867 -5.54727,-2.81871 -8.560948,-4.43062 -8.926297,-4.77504 -1.197054,-1.12848 -1.588654,-3.24249 -0.887347,-4.79593 0.432278,-0.95752 1.518837,-2.02402 2.471796,-2.428 0.556087,-0.23574 1.203288,-0.3513 1.848418,-0.34554 0.64514,0.006 1.28965,0.13292 1.83336,0.37848 0.76416,0.34513 1.23614,0.8451 6.4298,6.79141 0.66633,0.7629 1.30815,1.50013 1.92919,2.21405 a 12.34291,12.34291 0 0 1 0.5175,-0.43091 c -0.34888,-0.45031 -0.67107,-0.86382 -1.03721,-1.33836 -3.19804,-4.14481 -5.90459,-7.78712 -6.01537,-8.0926 -0.30226,-0.83349 -0.17736,-2.45028 0.25474,-3.28742 0.43309,-0.83906 1.35818,-1.73753 2.25704,-2.19376 0.47167,-0.23941 1.23733,-0.36241 1.99889,-0.36663 0.76156,-0.004 1.51658,0.11141 1.96213,0.34573 0.726247,0.38195 1.785387,1.36236 2.088087,1.93521 0.12756,0.2414 1.69646,6.02797 2.96017,10.82275 a 12.34291,12.34291 0 0 1 0.55607,-0.12495 c -0.25549,-1.24598 -0.30758,-1.49597 -0.67601,-3.29346 l -1.55973,-7.60864 0.2272,-0.88052 c 0.56512,-2.1652 2.34595,-3.51859 4.47994,-3.51584 z"
           style="display:inline;opacity:1;fill:#ffffff;fill-opacity:1;stroke:#60441c;stroke-width:0;stroke-linecap:round;stroke-linejoin:miter;stroke-miterlimit:4;stroke-dasharray:none;stroke-opacity:1" />
      </g>
    </g>
  </g>
</svg>
