<?xml version="1.0" encoding="UTF-8" standalone="no"?>
<!-- Created with Inkscape (http://www.inkscape.org/) -->

<svg
   width="198.4375mm"
   height="132mm"
   viewBox="0 0 198.4375 132"
   version="1.1"
   id="svg5"
   xml:space="preserve"
   sodipodi:docname="iberian-union-flag.svg"
   inkscape:version="1.2.1 (1:1.2.1+202210291244+9c6d41e410)"
   xmlns:inkscape="http://www.inkscape.org/namespaces/inkscape"
   xmlns:sodipodi="http://sodipodi.sourceforge.net/DTD/sodipodi-0.dtd"
   xmlns:xlink="http://www.w3.org/1999/xlink"
   xmlns="http://www.w3.org/2000/svg"
   xmlns:svg="http://www.w3.org/2000/svg"><sodipodi:namedview
     id="namedview7"
     pagecolor="#ffffff"
     bordercolor="#666666"
     borderopacity="1.0"
     inkscape:showpageshadow="2"
     inkscape:pageopacity="0.0"
     inkscape:pagecheckerboard="0"
     inkscape:deskcolor="#d1d1d1"
     inkscape:document-units="mm"
     showgrid="false"
     inkscape:zoom="1.2948428"
     inkscape:cx="422.44512"
     inkscape:cy="175.69701"
     inkscape:window-width="1848"
     inkscape:window-height="1016"
     inkscape:window-x="72"
     inkscape:window-y="27"
     inkscape:window-maximized="1"
     inkscape:current-layer="layer1" /><defs
     id="defs2" /><g
     inkscape:label="Layer 1"
     inkscape:groupmode="layer"
     id="layer1"
     transform="translate(67.713753,-147.64569)"><rect
       width="198"
       height="132"
       fill="#ff0000"
       id="rect132"
       x="-67.495003"
       y="147.64569"
       style="fill:#ad1519;fill-opacity:1;stroke-width:0.33" /><rect
       y="180.57277"
       width="138.39024"
       height="66.145836"
       fill="#fabd00"
       id="rect313"
       x="-7.6664944"
       style="stroke-width:0.220955" /><rect
       width="79.199997"
       height="132"
       fill="#006600"
       id="rect134"
       x="-67.495003"
       y="147.64569"
       style="stroke-width:0.33" /><g
       id="g242"
       transform="matrix(0.33,0,0,0.33,-67.494999,147.64569)"><path
         fill="#ffffff"
         stroke="#000000"
         stroke-width="0.67037"
         d="m 180.6,211.01 c 0,16.271 6.6628,30.987 17.457,41.742 10.815,10.778 25.512,17.579 41.809,17.579 16.381,0 31.247,-6.6525 42.016,-17.389 10.769,-10.735 17.443,-25.552 17.446,-41.88 h -0.002 v -79.189 l -118.74,-0.14111 0.0123,79.278 h 0.002 z"
         id="path180" /><path
         fill="#ff0000"
         stroke="#000000"
         stroke-width="0.50734"
         d="m 182.82,211.12 v 0.045 c 0,15.557 6.4414,29.724 16.775,40.009 10.354,10.305 24.614,16.712 40.214,16.712 15.681,0 29.912,-6.3606 40.222,-16.626 10.308,-10.265 16.697,-24.433 16.699,-40.044 h -0.002 V 134.39 l -113.84,-0.0185 -0.0697,76.748"
         id="path182"
         sodipodi:nodetypes="cscscccccc"
         style="fill:#b50027;fill-opacity:1" /><g
         transform="matrix(0.12660605,0,0,0.13438258,182.13382,115.65215)"
         id="g1517"><g
           id="g2902"><g
             id="g3105"><path
               d="m 455.95545,903.768 c -60.60072,0 -120.66586,-15.257 -171.16453,-40.63 -37.22301,-18.935 -61.90364,-57.112 -61.90364,-100.797 V 603.92 h 465.21904 v 158.42 c 0,43.685 -24.67966,81.862 -61.90754,100.797 -50.49379,25.373 -109.62118,40.63 -170.24138,40.63"
               fill="#b2b2b2"
               stroke-width="0.986807"
               id="path1111"
               style="fill:#ffffff" /><g
               transform="matrix(0.97378721,0,0,1,11.927959,0)"
               id="g1507"><path
                 d="m 455.98,903.768 c -62.232,0 -123.914,-15.257 -175.772,-40.63 -38.225,-18.935 -63.57,-57.112 -63.57,-100.797 V 603.92 H 694.38 v 158.42 c 0,43.685 -25.344,81.862 -63.574,100.797 -51.853,25.373 -112.572,40.63 -174.824,40.63 z"
                 fill="none"
                 stroke="#000000"
                 stroke-width="2.465"
                 id="path1113" /><path
                 d="m 455.143,762.154 c 0,62.606 -53.05,113.352 -119.135,113.352 -66.108,0 -119.69,-50.746 -119.69,-113.352 V 603.498 h 238.825 z"
                 fill="#b50027"
                 id="path1115" /><g
                 stroke="#000000"
                 id="g1129"><g
                   fill="#a07e00"
                   id="g1125"><path
                     d="m 268.491,855.7 c 7.463,3.96 17.714,10.557 28.664,13.196 l -0.694,-270.988 h -27.97 z"
                     fill="#9f7e00"
                     stroke-width="2.465"
                     id="path1117"
                     style="fill:#fabd00;fill-opacity:1" /><path
                     d="m 215.925,760.018 c 0.728,33.435 14.001,58.29 27.275,74.567 v -235.36 h -26.94 z"
                     fill="#9f7e00"
                     stroke-linejoin="round"
                     stroke-width="2.387"
                     id="path1119"
                     style="fill:#fabd00;fill-opacity:1" /><g
                     stroke-width="2.465"
                     id="g1123"><path
                       d="m 321.738,874.836 c 10.946,1.101 19.108,0.881 27.97,0 V 597.908 h -27.97 z m 52.562,-5.94 c 10.95,-2.199 23.294,-9.015 28.669,-12.536 V 597.908 h -27.97 z m 54.66,-36.951 c 11.645,-10.336 22.595,-33.875 26.575,-60.709 l 0.695,-173.328 h -27.97 z"
                       fill="#9f7e00"
                       id="path1121"
                       style="fill:#fabd00;fill-opacity:1" /></g></g><path
                   d="m 455.143,762.154 c 0,62.606 -53.05,113.352 -119.135,113.352 -66.108,0 -119.69,-50.746 -119.69,-113.352 V 603.498 h 238.825 z"
                   fill="none"
                   stroke-width="2.465"
                   id="path1127" /></g><path
                 d="m 216.332,603.652 h 238.72 V 338.604 h -238.72 z"
                 fill="#b50027"
                 id="path1131" /><g
                 stroke="#000000"
                 id="g1363"><path
                   d="m 263.632,553.228 v -19.305 h 20.788 l -0.116,-34.06 -0.115,-34.06 -10.166,-0.252 10e-4,-10.082 c 10e-4,-5.544 0.135,-13.226 0.297,-17.07 l 0.295,-6.99 2.301,-0.002 c 1.266,-10e-4 4.589,-0.132 7.384,-0.29 l 5.083,-0.288 v -16.728 h -9.488 l 0.002,-5.658 c 10e-4,-3.112 0.134,-7.606 0.294,-9.985 l 0.292,-4.327 h 8.448 v 1.95 c 0,2.105 0.416,2.488 2.71,2.488 2.295,0 2.711,-0.383 2.711,-2.489 v -1.95 h 12.096 l 0.299,1.958 c 0.32,2.1 0.802,2.48 3.139,2.48 1.9,0 2.538,-0.69 2.538,-2.75 v -1.687 h 8.584 v 19.94 l -9.714,0.252 -0.123,8.321 -0.122,8.321 h 13.573 v -41.272 h -9.036 v -19.971 h 9.067 l -0.3,2.22 -0.299,2.218 h 1.583 c 0.87,0 2.218,-0.125 2.995,-0.277 1.323,-0.26 1.412,-0.4 1.412,-2.219 v -1.942 h 11.746 v 1.909 c 0,2.386 0.587,2.973 2.972,2.973 2.216,0 2.69,-0.455 3.116,-2.995 l 0.317,-1.887 h 8.504 v 19.971 h -9.487 v 41.272 h 11.315 l -0.246,-16.642 -8.81,-0.254 0.04,-8.083 c 0.021,-4.446 0.174,-9.082 0.338,-10.302 l 0.3,-2.219 4.179,-0.128 4.179,-0.127 v 2.147 c 0,2.516 0.55,3.212 2.538,3.212 2.414,0 2.842,-0.367 3.158,-2.707 l 0.293,-2.175 h 3.493 c 1.922,0 4.437,-0.127 5.59,-0.282 l 2.096,-0.283 v 5.447 h 2.655 c 2.98,0 3.524,-0.383 3.746,-2.636 0.171,-1.742 0.58,-1.923 5.458,-2.41 l 3.05,-0.305 v 20.318 l -2.096,0.283 c -1.153,0.155 -3.288,0.282 -4.744,0.282 h -2.648 v 16.727 l 5.493,0.29 c 3.02,0.16 6.782,0.29 8.358,0.29 h 2.866 v 8.765 c 10e-4,4.821 0.135,12.503 0.297,17.07 l 0.296,8.306 -4.928,0.126 -4.928,0.127 v 67.9 l 9.601,0.12 9.6,0.119 v 38.592 h -144.12 z"
                   fill="#2b1100"
                   stroke-miterlimit="3.864"
                   stroke-width="0.045"
                   id="path1133" /><path
                   d="m 285.557,464.162 v 71.031 l -19.923,0.06 v 36.55 l 140.116,-0.204 v -36.55 l -19.27,-0.073 v -70.814 z"
                   fill="#9f7e00"
                   stroke-width="1.5"
                   id="path1135"
                   style="fill:#fabd00;fill-opacity:1" /><g
                   fill="#9f7e00"
                   id="g1139"><path
                     d="m 265.634,571.804 138.591,-0.205 M 265.58,562.79 405.611,562.666 m -139.977,-8.839 139.977,0.123 m -140.031,-8.882 140.031,-0.123 m -139.955,-9.68 140.11,-0.289 M 285.883,525.55 386.535,525.5 M 285.557,516.317 H 386.48 M 285.557,508.466 H 386.48 M 285.557,499.605 H 386.48 M 285.557,490.744 H 386.48"
                     id="path1137"
                     style="fill:#fabd00;fill-opacity:1" /></g><path
                   d="M 285.557,481.884 H 386.48"
                   fill="#dead00"
                   id="path1141" /><path
                   d="m 365.649,473.24 v 8.384 m -80.092,-8.601 H 386.48"
                   fill="#9f7e00"
                   id="path1143"
                   style="fill:#fabd00;fill-opacity:1" /><path
                   d="m 285.557,571.6 v -8.862"
                   fill="#dead00"
                   id="path1145" /><path
                   d="m 285.557,553.878 v -8.861 m -8.873,8.861 v 8.86"
                   fill="#9f7e00"
                   id="path1147"
                   style="fill:#fabd00;fill-opacity:1" /><path
                   d="m 295.502,562.738 v -8.86"
                   fill="#dead00"
                   id="path1149" /><g
                   fill="#9f7e00"
                   id="g1153"><path
                     d="m 305.946,535.048 v -9.477 m 0.154,-9.306 -0.154,-7.799 m -10.444,36.551 v -9.969"
                     id="path1151"
                     style="fill:#fabd00;fill-opacity:1" /></g><path
                   d="m 276.684,545.017 v -9.969"
                   fill="#dead00"
                   id="path1155" /><g
                   fill="#9f7e00"
                   id="g1159"><path
                     d="m 295.502,516.317 v 8.86 m 20.094,-8.86 v 8.86 m 19.836,-8.686 0.077,9.11 m -10.19,-9.047 v -8.088 m 10.221,-8.861 v 8.861 m -9.948,-35.443 v 8.86 m 10,-17.721 v 8.86 m -19.996,-8.86 v 8.86 m -18.966,-8.86 v 8.86 m 89.85,98.578 v -8.862 m 0,-8.86 v -8.861 m 8.873,8.861 v 8.86 m -19.999,0 v -8.86 m -9.62,-18.83 -0.054,-9.594 m 0,-9.065 v -7.923"
                     id="path1157"
                     style="fill:#fabd00;fill-opacity:1" /></g><path
                   d="m 375.354,545.017 v -9.969"
                   fill="#dead00"
                   id="path1161" /><path
                   d="m 395.353,545.017 v -9.969"
                   fill="#9f7e00"
                   id="path1163"
                   style="fill:#fabd00;fill-opacity:1" /><path
                   d="m 375.361,516.286 0.11,9.27"
                   fill="#dead00"
                   id="path1165" /><g
                   fill="#9f7e00"
                   id="g1169"><path
                     d="m 355.365,516.286 v 9.27 m -9.557,-9.146 v -7.944 m 0,-17.658 v 8.861"
                     id="path1167"
                     style="fill:#fabd00;fill-opacity:1" /></g><path
                   d="m 335.318,481.884 v 8.86"
                   fill="#dead00"
                   id="path1171" /><g
                   fill="#9f7e00"
                   id="g1189"><path
                     d="m 345.808,473.023 v 8.86 m 9.557,-17.312 v 8.282 m 19.989,-8.294 v 8.307 m -50.035,26.739 v -8.86"
                     id="path1173"
                     style="fill:#fabd00;fill-opacity:1" /><g
                     transform="translate(-4.59,-4.878)"
                     id="g1183"><path
                       d="m 360.089,576.487 v -23.968 c 0,-4.565 -1.954,-18.26 -20.512,-18.26 -17.582,0 -19.536,13.695 -19.536,18.26 v 23.968 z"
                       id="path1175"
                       style="fill:#fabd00;fill-opacity:1" /><path
                       d="m 350.622,558.815 19.517,0.093 -0.022,-9.13 -6.634,-9.914 -13.521,9.553 c 1.412,3.36 0.66,7.181 0.66,9.397 z m -4.987,-14.151 4.33969,-14.15472 -20.09269,-0.12128 4.646,14.017 c 3.67574,-0.73879 7.46985,-0.64998 11.107,0.26 z m 14.829,-31.314 v -20.903 c 0,-5.701 3.531,-10.452 9.71,-10.452 6.179,0 9.71,4.75 9.71,10.452 v 20.903 z"
                       id="path1177"
                       style="fill:#fabd00;fill-opacity:1" /><rect
                       x="310.53601"
                       y="567.60699"
                       width="19.405001"
                       height="8.7659998"
                       rx="0.035999998"
                       id="rect1179"
                       style="fill:#fabd00;fill-opacity:1" /><path
                       d="m 350.785,567.64 h 19.519 v 8.766 h -19.519 z m -20.894,-9.015 -19.354,0.186 0.17,-9.021 5.743,-9.563 13.781,9.056 c -0.835,3.685 -0.259,3.489 -0.34,9.342 z"
                       id="path1181"
                       style="fill:#fabd00;fill-opacity:1" /></g><path
                     d="m 305.786,473.243 v 8.386"
                     id="path1185"
                     style="fill:#fabd00;fill-opacity:1" /><path
                     d="M 295.524,508.503 V 487.45 c 0,-5.742 3.673,-10.527 10.102,-10.527 6.429,0 10.103,4.785 10.103,10.527 v 21.054 z"
                     id="path1187"
                     style="fill:#fabd00;fill-opacity:1" /></g><g
                   fill="#a07e00"
                   stroke-width="2.746"
                   id="g1193"><path
                     transform="matrix(0.56363,0,0,0.52949,637.454,389.965)"
                     d="m -614.733,43.702 h 35.54 v 98.378 h -35.54 z m 61.549,-44.729 h 35.386 v 143.03 h -35.386 z m 58.937,44.729 h 35.54 v 98.378 h -35.54 z"
                     fill="#9f7e00"
                     id="path1191"
                     style="fill:#fabd00;fill-opacity:1" /></g><g
                   fill="#9f7e00"
                   id="g1201"><path
                     d="m 325.979,435.777 19.754,0.036 m -19.963,7.456 19.755,0.036 m 13.395,-25.327 h 19.794 m -19.867,9.823 h 19.794 m -19.794,7.668 h 19.794 m -19.486,8.245 h 19.794 m -10.051,-25.911 v -4.776 m 0.077,22.14 v -7.209 m -0.231,23.122 v -7.21 m -77.806,-8.047 h 19.794 m -19.486,8.246 h 19.794"
                     id="path1195"
                     style="fill:#fabd00;fill-opacity:1" /><path
                     d="m 275.869,465.274 v -32.938 l 15.048,-0.085 4.47,2.914 0.192,15.958 12.687,0.035 -0.103,-16.474 3.856,-2.552 12.99,-0.013 4.432,3.286 -0.039,15.801 13.131,0.049 0.192,-15.646 3.357,-3.418 12.899,-0.012 3.92,3.19 0.512,15.32 11.978,0.06 -0.218,-15.14 4.138,-3.478 16.55,0.048 v 32.855 z"
                     fill-rule="evenodd"
                     stroke-width="1.5"
                     id="path1197"
                     style="fill:#fabd00;fill-opacity:1" /><path
                     d="m 275.74,455.734 h 119.92 m -110.12,0.034 v 9.505 m 20.263,-9.6 v 9.505"
                     id="path1199"
                     style="fill:#fabd00;fill-opacity:1" /></g><path
                   d="m 325.838,455.776 v 9.504"
                   fill="#dead00"
                   id="path1203" /><g
                   fill="#9f7e00"
                   id="g1207"><path
                     d="m 345.819,455.725 v 9.504 m 19.871,-9.453 v 9.504 m 20.787,-9.534 v 9.504 m -90.964,-18.809 v 9.504 m -0.256,-18.519 H 275.93 m 19.446,9.651 h -19.325 m 53.243,-9.718 h -21.02 m 54.676,-0.03 -20.403,-0.072 m 53.324,0 H 375.16 m -45.923,9.82 -21.097,-0.073 m 55.066,0.073 h -20.634 m 53.153,-0.03 -20.48,-0.073 m -89.743,-9.382 v 9.505 m 30.105,-0.065 0.038,8.817 m 10.192,-18.485 0.022,9.595 m 19.957,-9.544 0.022,9.595 m 40.656,-9.91 0.022,9.92 m -71.006,-14.783 0.022,5.273"
                     id="path1205"
                     style="fill:#fabd00;fill-opacity:1" /></g><path
                   d="m 335.592,451.216 v 4.539"
                   fill="#dead00"
                   id="path1209" /><path
                   d="m 355.376,447.058 0.038,8.528 m -0.134,-23.613 0.022,5.274"
                   fill="#9f7e00"
                   id="path1211"
                   style="fill:#fabd00;fill-opacity:1" /><path
                   d="m 375.365,446.984 0.039,8.744"
                   fill="#dead00"
                   id="path1213" /><g
                   fill="#0044ad"
                   stroke-width="1.831"
                   id="g1219"><path
                     transform="matrix(0.56363,0,0,0.52949,481.001,385.915)"
                     d="M -239.334,350.749 V 313.02 c 0,-6.288 1.32,-25.249 -19.543,-23.607 -21.22,-1.224 -17.401,17.32 -17.401,23.607 v 37.729 z"
                     stroke-width="2.746"
                     id="path1215" /><path
                     transform="matrix(0.56363,0,0,0.52949,481.001,385.915)"
                     d="m -195.138,224.826 v -29.623 c 0,-7.795 -3.178,-15.591 -9.534,-15.591 -6.357,0 -9.535,7.795 -9.535,15.59 v 29.624 z m -106.513,-0.317 v -29.623 c 0,-7.795 -3.178,-15.591 -9.535,-15.591 -6.356,0 -9.534,7.795 -9.534,15.59 v 29.624 z"
                     id="path1217" /></g><g
                   fill="#9f7e00"
                   id="g1223"><path
                     d="m 325.652,428.106 19.755,0.036 m -19.755,-9.688 19.755,0.036 m -19.755,-8.195 19.755,0.036 m -19.755,-8.628 19.755,0.036 m -19.755,-7.594 20.19,0.036 m -10.262,7.531 v -7.647"
                     id="path1221"
                     style="fill:#fabd00;fill-opacity:1" /></g><path
                   d="m 335.58,418.138 v -7.647"
                   fill="#dead00"
                   id="path1225" /><g
                   fill="#9f7e00"
                   id="g1229"><path
                     d="m 335.58,435.834 v -7.647 m 0,22.786 v -7.647 m -44.57,-24.993 h 19.795 m -19.867,9.823 h 19.794 m -9.743,-9.999 v -5.029 m 0.077,22.394 v -7.21"
                     id="path1227"
                     style="fill:#fabd00;fill-opacity:1" /></g><g
                   fill="#dead00"
                   id="g1247"><path
                     d="m 300.835,451.435 v -7.21"
                     id="path1231" /><g
                     stroke-width="1.831"
                     id="g1245"><path
                       transform="matrix(0.56363,0,0,0.52949,481.001,385.915)"
                       d="m -291.456,-29.178 -0.298,35.88 68.693,-0.274 -0.23,-35.41 -11.905,0.273 -0.547,8.773 -12.775,-0.273 v -8.608 h -17.75 v 8.608 h -13.156 l 0.273,-8.97 z"
                       fill="#9f7e00"
                       stroke-width="2.746"
                       id="path1233"
                       style="fill:#fabd00;fill-opacity:1" /><path
                       transform="matrix(0.56363,0,0,0.52949,481.001,385.915)"
                       d="m -291.44,-8.428 68.606,0.067 M -258.011,6.478 V -7.964"
                       id="path1235" /><path
                       transform="matrix(0.56363,0,0,0.52949,446.138,410.174)"
                       d="m -291.456,-29.178 -0.298,35.88 68.693,-0.274 -0.23,-35.41 -11.905,0.273 -0.547,8.773 -12.775,-0.273 v -8.608 h -17.75 v 8.608 h -13.156 l 0.273,-8.97 z"
                       fill="#9f7e00"
                       stroke-width="2.746"
                       id="path1237"
                       style="fill:#fabd00;fill-opacity:1" /><path
                       transform="matrix(0.56363,0,0,0.52949,446.138,410.174)"
                       d="m -291.44,-8.428 68.606,0.067 M -258.011,6.478 V -7.964"
                       id="path1239" /><path
                       transform="matrix(0.56363,0,0,0.52949,514.519,409.934)"
                       d="m -291.456,-29.178 -0.298,35.88 68.693,-0.274 -0.23,-35.41 -11.905,0.273 -0.547,8.773 -12.775,-0.273 v -8.608 h -17.75 v 8.608 h -13.156 l 0.273,-8.97 z"
                       fill="#9f7e00"
                       stroke-width="2.746"
                       id="path1241"
                       style="fill:#fabd00;fill-opacity:1" /><path
                       transform="matrix(0.56363,0,0,0.52949,514.519,409.934)"
                       d="m -291.44,-8.428 68.606,0.067 M -258.011,6.478 V -7.964"
                       id="path1243" /></g></g><g
                   fill="none"
                   id="g1255"><path
                     d="m 216.332,603.652 h 238.72 V 338.604 h -238.72 z"
                     stroke-width="2.465"
                     id="path1249" /><g
                     stroke-width="1.067"
                     id="g1253"><path
                       d="m 620.122,669.574 -8.51,-3.532 -15.38,17.358 5.157,7.298 z m 6.624,5.28 5.152,7.319 -15.375,17.357 -8.49,-3.552 z"
                       id="path1251" /></g></g><path
                   d="m 694.595,603.498 v 158.656 c 0,62.606 -53.654,113.352 -119.762,113.352 -66.09,0 -119.69,-50.746 -119.69,-113.352 V 603.498 Z"
                   fill="#b60028"
                   stroke-width="2.465"
                   id="path1257" /><g
                   stroke-width="1.067"
                   id="g1347"><path
                     d="m 490.072,619.628 c -7.651,0 -13.838,5.909 -13.838,13.171 0,5.76 3.893,10.736 9.337,12.505 v 20.507 l -8.837,2.5 v 22.675 l 8.67,2.5 v -7.335 h 0.167 V 672.98 h 8.503 v -27.51 c 0.363,-0.107 0.986,-0.205 1.334,-0.333 l 27.175,30.51 -5.001,7.503 15.505,17.172 8.503,-3.668 21.507,24.175 c -0.368,0.65 -0.588,1.296 -0.833,2 h -14.005 l -2.501,-8.502 h -23.841 l -2.668,8.503 H 502.91 c -1.313,-4.048 -4.589,-7.33 -8.836,-8.67 v -28.01 h -8.503 v 7.337 h -0.167 l 0.167,20.673 c -4.697,1.416 -8.43,5.028 -9.503,9.67 -0.01,0.05 0.01,0.116 0,0.167 -0.154,0.8 -0.334,1.637 -0.334,2.5 0,5.873 4.063,10.828 9.67,12.505 v 13.338 l -8.836,3 1.334,22.675 8.836,2 c 1.19,6.294 3.128,12.267 5.669,18.007 l -0.667,0.833 c -4.989,5.5 -4.327,13.784 1.5,18.507 3.767,3.066 8.755,3.799 13.171,2.5 3.834,4.307 8.176,8.3 12.838,11.838 l -2,8.836 c 6.434,4.33 13.382,8.082 20.84,10.837 l 6.669,-6.335 a 94.981,94.981 0 0 0 17.172,4.001 c 1.375,5.893 6.86,10.337 13.505,10.337 6.66,0 12.17,-4.408 13.504,-10.337 5.532,-0.833 11.024,-2.097 16.172,-3.834 l -0.167,-0.167 c 2.329,-0.794 4.596,-1.536 6.836,-2.501 l -4.168,-7.336 c 4.25,-1.809 8.336,-3.892 12.17,-6.336 l 4.169,7.17 c -3.87,2.402 -7.923,4.672 -12.171,6.502 -2.21,0.948 -4.36,1.888 -6.669,2.667 l 6.502,6.169 c 7.463,-2.755 14.406,-6.508 20.84,-10.837 L 630.62,831.7 c 4.62,-3.519 8.865,-7.563 12.67,-11.838 4.396,1.299 9.41,0.566 13.172,-2.5 5.827,-4.723 6.625,-13.007 1.667,-18.507 l -0.834,-0.833 c 2.549,-5.74 4.49,-11.713 5.669,-18.007 l 8.836,-2 1.334,-22.675 -8.836,-3 v -13.338 c 5.617,-1.677 9.67,-6.632 9.67,-12.505 0,-0.863 -0.15,-1.7 -0.334,-2.5 -0.01,-0.053 0.01,-0.115 0,-0.167 -1.078,-4.64 -4.797,-8.255 -9.503,-9.67 l 0.167,-20.674 8.836,-2.5 V 668.31 l -8.836,-2.5 v -20.508 c 5.632,-1.681 9.67,-6.6 9.67,-12.504 0,-7.263 -6.187,-13.17 -13.839,-13.171 -6.164,0 -11.366,3.88 -13.17,9.17 H 623.45 v 8.17 h -14.004 v -8.17 h -21.34 c -1.81,-5.29 -7.003,-9.17 -13.172,-9.17 -6.17,0 -11.362,3.88 -13.171,9.17 h -21.007 v 8.17 H 526.75 v -8.17 h -23.508 c -1.794,-5.29 -6.987,-9.17 -13.171,-9.17 z"
                     fill="#9f7e00"
                     id="path1259"
                     style="fill:#fabd00;fill-opacity:1" /><g
                     fill="#c8b100"
                     id="g1263"><path
                       d="m 521.583,620.295 -2.501,8.336 h 29.01 l -2.501,-8.336 z m 83.195,0 -2.668,8.336 h 29.01 l -2.5,-8.336 z m -114.706,6.835 c 3.271,0 6.002,2.567 6.002,5.67 0,3.107 -2.73,5.668 -6.002,5.668 -3.276,0 -6.002,-2.561 -6.002,-5.669 0,-3.102 2.726,-5.668 6.002,-5.668 z"
                       id="path1261" /></g><path
                     d="m 503.41,636.968 h 15.672 l 2.5,8.502 h 24.009 l 2.5,-8.502 h 13.672 c 1.406,4.068 4.72,7.235 9.003,8.502 v 9.67 l -8.836,2.501 v 22.675 l 8.836,2.5 v 31.511 c -0.47,0.164 -1.045,0.447 -1.5,0.667 l -21.174,-23.675 5.168,-7.336 -15.672,-17.339 -8.336,3.668 -27.342,-30.343 a 12.309,12.309 0 0 0 1.5,-3.001 z"
                     fill="#b50027"
                     id="path1265" /><path
                     d="m 587.939,636.968 h 14.171 l 2.668,8.502 h 23.841 l 2.501,-8.502 h 15.839 c 0.189,0.582 0.567,0.979 0.833,1.5 l -27.676,31.177 -8.503,-3.5 -15.338,17.338 5.168,7.336 5.002,-5.502 8.836,-10.17 6.67,5.335 -13.839,15.672 8.336,3.501 15.506,-17.339 -5.169,-7.336 27.01,-30.51 c 0.613,0.307 1.174,0.63 1.833,0.834 v 20.507 l -9.003,2.5 v 22.675 l 9.003,2.5 v 20.841 c -4.221,1.34 -7.522,4.455 -8.836,8.503 h -15.839 l -2.667,-8.503 h -23.842 l -2.5,8.503 h -13.338 c -0.363,-1.155 -0.67,-2.192 -1.334,-3.168 l 20.84,-23.508 4.835,-5.668 -6.502,-5.169 -25.675,29.177 c -0.384,-0.113 -1.118,-0.226 -1.5,-0.334 v -38.68 h -8.504 v -13.17 h 8.67 v 20.506 l 8.836,-2.5 V 657.64 l -8.836,-2.5 v -9.837 c 4.094,-1.32 7.148,-4.416 8.503,-8.337 z"
                     fill="#b50027"
                     id="path1267" /><path
                     d="m 494.24,665.81 v 27.677 l 8.837,-2.501 V 668.31 Z"
                     fill="#c8b100"
                     id="path1269" /><path
                     d="m 655.628,672.98 h 8.67 v 13.17 h -8.67 z m -121.541,2.834 9.003,10.003 -6.502,5.336 -9.17,-10.17 z"
                     fill="#b50027"
                     id="path1271" /><path
                     d="m 489.739,720.996 c 2.265,0 4.177,1.178 5.168,2.834 0.02,0.045 -0.02,0.12 0,0.167 0.364,0.817 0.667,1.631 0.667,2.5 0,3.118 -2.539,5.67 -5.835,5.67 -3.277,0 -6.002,-2.552 -6.002,-5.67 0,-0.864 0.299,-1.61 0.667,-2.333 0.025,-0.045 -0.025,-0.121 0,-0.167 0.996,-1.756 3.09,-3.001 5.335,-3.001 z m 170.391,0 c 2.325,0 4.182,1.343 5.168,3.168 h 0.167 c 0.303,0.753 0.5,1.534 0.5,2.334 0,3.118 -2.539,5.668 -5.835,5.668 -3.272,0 -6.002,-2.55 -6.002,-5.668 0,-0.92 0.248,-1.745 0.666,-2.501 0.967,-1.717 3.015,-3.001 5.336,-3.001 z"
                     fill="#c8b100"
                     id="path1273" /><path
                     d="m 526.084,722.83 h 14.505 v 7.836 h 21.841 c 0.286,0.833 0.56,1.629 1,2.334 l -20.34,22.507 -8.503,-3.667 -15.505,17.339 5.168,7.336 -16.839,18.673 c -2.34,-0.87 -5.059,-1.176 -7.502,-0.834 -2.065,-4.745 -3.52,-9.686 -4.502,-14.838 -0.428,-2.246 -0.792,-4.521 -1,-6.836 h -8.67 a 79.993,79.993 0 0 1 -0.333,-7.336 v -6.002 l 8.836,0.167 v 5.835 c 0,2.49 -0.03,4.916 0.167,7.336 0.188,2.309 0.563,4.582 1,6.835 l 8.836,-2.834 c 0,0 -1.063,-15.14 -0.833,-11.337 0.189,3.26 -0.334,-11.337 -0.334,-11.337 l -8.836,-2.168 v -12.837 c 4.038,-1.314 7.113,-4.478 8.503,-8.336 h 23.341 z m 83.529,0 h 14.004 v 7.836 h 23.342 c 1.39,3.859 4.6,7.022 8.67,8.336 v 12.838 l -9.004,2.167 c 0,0 -0.36,14.598 -0.167,11.337 0.246,-3.803 -1,11.337 -1,11.337 l 9.003,2.835 c -0.987,5.162 -2.607,10.084 -4.668,14.838 -2.454,-0.343 -4.975,-0.035 -7.336,0.834 l -16.84,-18.673 5.003,-7.336 -15.506,-17.34 -8.503,3.668 -19.34,-22.174 c 0.507,-0.807 1.012,-1.58 1.334,-2.5 l 21.007,-0.167 v -7.835 z"
                     fill="#b50027"
                     id="path1275" /><g
                     fill="#dead00"
                     id="g1303"><g
                       fill="#9f7e00"
                       id="g1291"><path
                         d="m 664.298,759.412 -0.02,-20.368 c 5.617,-1.66 9.685,-6.654 9.685,-12.527 0,-5.862 -4.125,-10.907 -9.742,-12.604 l 0.057,-27.866 h -8.607 l -0.035,28.03 c -4.222,1.334 -7.499,4.451 -8.812,8.49 l -23.235,0.034 v 8.147 h 23.388 c 1.39,3.86 4.534,6.89 8.602,8.204 l 0.015,20.51 8.684,-0.05 z m 0.056,-114.1 -0.077,27.508 h -8.607 v -27.616 c -0.66,-0.2 -1.308,-0.47 -1.922,-0.777 l -31.837,35.855 -6.583,-5.229 32.445,-36.555 c -0.266,-0.52 -0.552,-1.063 -0.74,-1.64 H 623.49 v -8.147 h 23.47 c 1.805,-5.28 7.003,-9.067 13.167,-9.067 7.651,0 13.877,5.877 13.877,13.125 0,5.893 -4.018,10.866 -9.65,12.543 z m -84.907,-0.108 -0.076,16.944 h -8.603 l 0.02,-16.8 c -4.283,-1.263 -7.656,-4.432 -9.062,-8.49 H 540.73 v -8.147 h 20.996 c 1.81,-5.28 6.982,-9.067 13.151,-9.067 6.17,0 11.383,3.787 13.192,9.067 h 21.411 v 8.147 h -21.467 a 13.349,13.349 0 0 1 -8.566,8.346 z m 39.509,136.631 -8.484,3.603 -15.533,-17.23 5.1,-7.34 z"
                         id="path1277"
                         style="fill:#fabd00;fill-opacity:1" /><path
                         d="m 548.136,636.878 -2.622,8.47 h -23.91 l -2.586,-8.47 z m 0,-8.203 -2.622,-8.454 h -23.91 l -2.586,8.454 z"
                         id="path1279"
                         style="fill:#fabd00;fill-opacity:1" /><path
                         d="m 530.799,781.835 8.49,3.603 15.527,-17.23 -5.1,-7.34 z m -6.583,-5.321 -5.091,-7.37 15.538,-17.23 8.464,3.619 z"
                         id="path1281"
                         style="fill:#fabd00;fill-opacity:1" /><path
                         d="m 529.935,828.898 -4.237,7.299 c -7.258,-4.508 -13.724,-10.074 -19.28,-16.315 -4.415,1.298 -9.404,0.526 -13.17,-2.54 -5.828,-4.723 -6.533,-13.013 -1.544,-18.513 l 0.725,-0.772 c -3.511,-7.932 -5.888,-16.457 -6.7,-25.397 l 8.678,0.035 a 69.857,69.857 0 0 0 5.551,21.702 15.394,15.394 0 0 1 7.39,0.813 l 21.718,-24.028 6.542,5.28 -21.579,23.992 c 2.913,4.431 2.796,10.145 -0.531,14.51 4.789,5.3 10.293,10.023 16.437,13.933 z"
                         id="path1283"
                         style="fill:#fabd00;fill-opacity:1" /><path
                         d="m 523.5,824.226 c 7.488,5.842 16.187,10.585 25.592,13.59 l 1.978,-8.596 c -7.728,-2.433 -14.89,-6 -21.186,-10.631 z m -4.298,7.427 c 7.595,5.714 16.279,10.294 25.586,13.468 l -6.65,6.215 a 98.928,98.928 0 0 1 -20.91,-10.723 z"
                         id="path1285"
                         style="fill:#fabd00;fill-opacity:1" /><path
                         d="m 485.463,759.412 0.01,-20.368 c -5.607,-1.66 -9.68,-6.654 -9.68,-12.527 0,-5.862 4.129,-10.907 9.746,-12.604 l -0.066,-27.866 h 8.612 l 0.015,28.03 c 4.247,1.334 7.519,4.451 8.832,8.49 l 23.22,0.034 v 8.147 h -23.368 c -1.39,3.86 -4.57,6.89 -8.607,8.204 l -0.015,20.51 -8.7,-0.05"
                         id="path1287"
                         style="fill:#fabd00;fill-opacity:1" /><path
                         d="m 486.792,779.938 -8.924,-1.998 -1.258,-22.601 8.853,-2.924 0.01,12.962 c 0,5.03 0.444,9.788 1.318,14.561 z m 7.406,-28.024 8.888,2.09 c 0,0 0.455,14.526 0.266,11.266 -0.23,-3.803 0.971,11.356 0.971,11.356 l -8.965,2.955 c -0.894,-4.616 -1.196,-9.338 -1.196,-14.204 l 0.015,-13.463 h 0.02 z m -8.623,-86.143 -8.924,2.505 v 22.642 l 8.924,2.448 z m 8.664,0 8.903,2.505 v 22.642 l -8.903,2.448 z m 24.988,56.816 2.607,-8.454 h 23.925 l 2.581,8.454 z"
                         id="path1289"
                         style="fill:#fabd00;fill-opacity:1" /></g><path
                       d="m 519.227,730.77 2.607,8.469 h 23.925 l 2.581,-8.47 z"
                       id="path1293" /><g
                       fill="#9f7e00"
                       id="g1301"><path
                         d="m 588.274,840.827 c 6.818,-1.078 13.1,-2.954 19.305,-5.566 l 4.263,7.263 c -7.136,3.062 -14.828,5.265 -22.842,6.47 -1.334,5.93 -6.87,10.381 -13.53,10.381 -6.644,0 -12.185,-4.395 -13.56,-10.288 -8.464,-1.155 -16.493,-3.338 -24.012,-6.563 l 4.283,-7.263 c 6.527,2.755 13.494,4.595 20.721,5.602 1.528,-3.312 4.324,-5.873 8,-7.064 l 0.076,-35.563 h 8.581 l 0.077,35.436 c 3.808,1.14 7.023,3.73 8.622,7.155 h 0.015 z"
                         id="path1295"
                         style="fill:#fabd00;fill-opacity:1" /><path
                         d="m 626.25,824.226 c -7.498,5.842 -16.202,10.585 -25.581,13.59 l -1.978,-8.596 c 7.707,-2.433 14.883,-6 21.165,-10.631 z m 4.304,7.427 c -7.621,5.714 -16.274,10.294 -25.587,13.468 l 6.645,6.215 a 98.882,98.882 0 0 0 20.92,-10.723 z m -50.954,-26.404 8.924,-2.505 v -22.622 l -8.924,-2.453 z m -8.658,0 -8.909,-2.505 v -22.622 l 8.909,-2.453 z"
                         id="path1297"
                         style="fill:#fabd00;fill-opacity:1" /><path
                         d="m 602.074,636.878 2.632,8.47 h 23.9 l 2.592,-8.47 z m 0,-8.203 2.632,-8.454 h 23.9 l 2.592,8.454 z"
                         id="path1299"
                         style="fill:#fabd00;fill-opacity:1" /></g></g><path
                     d="m 519.249,730.833 2.667,8.336 h 23.842 l 2.5,-8.336 z"
                     fill="#9f7e00"
                     id="path1305"
                     style="fill:#fabd00;fill-opacity:1" /><path
                     d="m 601.943,730.833 2.501,8.336 h 23.842 l 2.667,-8.336 z"
                     fill="#dead00"
                     id="path1307" /><g
                     fill="#b50027"
                     id="g1313"><path
                       d="m 569.933,738.502 a 4.9,4.9 0 0 0 1,0.333 v 38.847 l -8.836,2.5 v 22.508 l 8.836,2.501 v 28.677 c -3.675,1.19 -6.475,3.69 -8.003,7.002 -4.713,-0.657 -9.396,-1.613 -13.838,-3.001 l 2,-8.67 c -7.727,-2.432 -14.876,-6.04 -21.173,-10.67 l -6.502,5.669 a 84.36,84.36 0 0 0 5.835,4.168 c -2.032,-1.325 -3.948,-2.674 -5.835,-4.168 -3.554,-2.815 -6.83,-5.841 -9.837,-9.17 3.328,-4.365 3.414,-10.074 0.5,-14.505 l 16.673,-18.673 8.502,3.668 15.506,-17.34 -5.002,-7.335 z m 10.837,0.167 24.341,27.676 6.502,-5.169 9.003,10.004 -6.502,5.335 -9.003,-10.17 -5.002,-5.502 -5.168,7.336 15.505,17.339 8.503,-3.668 16.84,18.673 c -2.894,4.431 -2.813,10.14 0.5,14.505 -3.016,3.345 -6.432,6.344 -10.004,9.17 a 77.88,77.88 0 0 1 -5.835,4.168 84.602,84.602 0 0 0 5.835,-4.168 l -6.502,-5.669 c -6.282,4.63 -13.466,8.237 -21.174,10.67 l 2,8.67 c -3.977,1.294 -8.05,2.323 -12.337,3.001 -1.6,-3.424 -4.862,-6.03 -8.67,-7.17 v -28.509 l 9.004,-2.5 v -22.508 l -9.003,-2.501 v -38.513 c 0.475,-0.128 0.722,-0.357 1.167,-0.5 z m 83.528,20.673 v 6.002 c 0,2.515 -0.113,4.921 -0.334,7.336 h -8.67 c 0.198,-2.42 0.334,-4.846 0.334,-7.336 v -5.835 l 8.67,-0.166 z"
                       id="path1309" /><path
                       d="m 538.088,761.176 6.67,5.169 -9.17,10.17 -6.503,-5.335 z m 32.845,23.842 h 8.67 v 13.17 h -8.67 z m -41.014,43.848 c 3.832,2.444 8.082,4.527 12.338,6.335 l -4.335,7.336 a 92.757,92.757 0 0 1 -12.171,-6.335 z"
                       id="path1311" /></g><path
                     d="m 563.383,733.075 c -0.435,-0.721 -0.762,-1.493 -1.048,-2.326 h -21.718 v -8.147 h 21.57 c 0.245,-0.685 0.587,-1.37 0.945,-2.019 l -26.624,-29.614 6.542,-5.3 26.292,29.113 c 0.455,-0.22 0.915,-0.414 1.406,-0.578 l 0.02,-38.788 h 8.582 v 38.553 c 0.383,0.108 0.97,0.215 1.354,0.343 l 25.658,-29.185 6.599,5.25 -25.766,29.02 c 0.665,0.971 1.12,2.055 1.482,3.205 h 20.9 v 8.147 l -21.017,0.057 c -0.302,0.92 -0.833,1.768 -1.33,2.576 l 24.402,27.743 -6.548,5.3 -24.283,-27.779 c -0.444,0.164 -0.67,0.343 -1.165,0.47 l -0.056,45.872 h -8.602 l -0.025,-46.071 c -0.358,-0.108 -0.66,-0.292 -1.002,-0.45 l -25.28,27.958 -6.542,-5.3 25.254,-28.05"
                     fill="#9f7e00"
                     id="path1315"
                     style="fill:#fabd00;fill-opacity:1" /><path
                     d="m 497.24,803.599 c 2.136,-2.382 5.882,-2.653 8.377,-0.634 2.494,2.02 2.8,5.587 0.67,7.933 -2.142,2.361 -5.884,2.647 -8.378,0.628 -2.494,-2.034 -2.796,-5.566 -0.67,-7.927 z m -13.51,-77.082 c 0,-3.123 2.658,-5.643 5.934,-5.643 3.276,0 5.924,2.52 5.924,5.643 0,3.118 -2.648,5.602 -5.924,5.602 -3.276,0 -5.934,-2.484 -5.934,-5.602 z"
                     fill="#b50027"
                     id="path1317" /><path
                     d="m 619.815,828.898 4.247,7.299 c 7.248,-4.508 13.724,-10.074 19.28,-16.315 4.395,1.298 9.404,0.526 13.166,-2.54 5.827,-4.723 6.496,-13.013 1.539,-18.513 l -0.736,-0.772 c 3.521,-7.932 5.903,-16.457 6.68,-25.397 l -8.638,0.035 c -0.685,7.626 -2.607,14.889 -5.56,21.702 -2.454,-0.342 -5.04,-0.056 -7.402,0.813 l -21.697,-24.028 -6.547,5.28 21.564,23.992 c -2.893,4.431 -2.78,10.145 0.531,14.51 -4.779,5.3 -10.278,10.023 -16.427,13.933 z"
                     fill="#9f7e00"
                     id="path1319"
                     style="fill:#fabd00;fill-opacity:1" /><path
                     d="m 652,803.7 c -2.131,-2.382 -5.862,-2.653 -8.352,-0.634 -2.499,2.02 -2.8,5.587 -0.67,7.933 2.132,2.361 5.884,2.647 8.378,0.628 2.494,-2.034 2.775,-5.566 0.644,-7.927 z"
                     fill="#b50027"
                     id="path1321" /><g
                     fill="#a07e00"
                     id="g1325"><path
                       d="m 662.948,779.938 8.924,-1.998 1.258,-22.601 -8.832,-2.924 -0.02,12.962 c 0,5.03 -0.44,9.788 -1.33,14.561 z m -7.385,-28.024 -8.889,2.09 c 0,0 -0.48,14.526 -0.286,11.266 0.246,-3.803 -0.97,11.356 -0.97,11.356 l 8.964,2.955 c 0.895,-4.616 1.196,-9.338 1.196,-14.204 l -0.015,-13.463 m 0.03,-86.143 -8.903,2.505 v 22.642 l 8.903,2.448 z m 8.664,0 8.929,2.505 v 22.642 l -8.93,2.448 z m -38.717,110.743 5.09,-7.37 -15.533,-17.23 -8.469,3.619 z"
                       fill="#9f7e00"
                       id="path1323"
                       style="fill:#fabd00;fill-opacity:1" /></g><path
                     d="m 484.15,632.784 c 0,-3.097 2.662,-5.622 5.938,-5.622 3.272,0 5.92,2.525 5.92,5.622 0,3.103 -2.648,5.607 -5.92,5.607 -3.276,0 -5.939,-2.504 -5.939,-5.607 z"
                     fill="none"
                     id="path1327" /><path
                     d="m 654.131,726.517 c 0,-3.123 2.668,-5.643 5.94,-5.643 3.296,0 5.918,2.52 5.918,5.643 0,3.118 -2.622,5.602 -5.918,5.602 -3.272,0 -5.94,-2.484 -5.94,-5.602 z"
                     fill="#b50027"
                     id="path1329" /><path
                     d="m 630.983,722.587 -2.622,-8.454 h -23.91 l -2.581,8.454 z m 0,8.183 -2.622,8.469 h -23.91 l -2.581,-8.47 z"
                     fill="#9f7e00"
                     id="path1331"
                     style="fill:#fabd00;fill-opacity:1" /><g
                     fill="#b50027"
                     id="g1335"><path
                       d="m 569.531,846.235 c 0,-3.118 2.663,-5.638 5.94,-5.638 3.27,0 5.913,2.52 5.913,5.638 0,3.102 -2.642,5.607 -5.913,5.607 -3.277,0 -5.94,-2.505 -5.94,-5.607 z m 84.662,-213.451 c 0,-3.097 2.642,-5.622 5.934,-5.622 3.276,0 5.924,2.525 5.924,5.622 0,3.103 -2.648,5.607 -5.924,5.607 -3.292,0 -5.934,-2.504 -5.934,-5.607 z m -85.249,0 c 0,-3.097 2.662,-5.622 5.934,-5.622 3.276,0 5.923,2.525 5.923,5.622 0,3.103 -2.647,5.607 -5.923,5.607 -3.272,0 -5.934,-2.504 -5.934,-5.607 z"
                       id="path1333" /></g><g
                     fill="#9f7e00"
                     id="g1341"><path
                       d="m 495.476,645.133 32.006,35.813 6.552,-5.3 -32.185,-35.67 c 0.644,-0.956 1.1,-1.999 1.482,-3.118 h 23.415 v -8.147 h -23.43 c -1.794,-5.28 -7.043,-9.067 -13.228,-9.067 -7.651,0 -13.876,5.877 -13.876,13.125 0,5.75 3.894,10.651 9.338,12.415 l -0.051,27.636 h 8.602 v -27.452 c 0.363,-0.108 1.027,-0.108 1.375,-0.235 z"
                       id="path1337"
                       style="fill:#fabd00;fill-opacity:1" /><path
                       d="m 529.173,670.239 8.495,-3.604 15.533,17.235 -5.1,7.35 z m -6.578,5.336 -5.08,7.375 15.528,17.214 8.469,-3.624 z"
                       id="path1339"
                       style="fill:#fabd00;fill-opacity:1" /></g><path
                     d="m 570.845,655.12 -8.909,2.504 v 22.637 l 8.909,2.454 z m 8.566,0 8.904,2.504 v 22.637 l -8.904,2.454 z"
                     fill="#9f7e00"
                     id="path1343"
                     style="fill:#fabd00;fill-opacity:1" /><path
                     d="m 561.415,726.839 c 0,-7.283 6.225,-13.177 13.897,-13.177 7.652,0 13.872,5.894 13.872,13.177 0,7.247 -6.22,13.12 -13.872,13.12 -7.672,0 -13.897,-5.873 -13.897,-13.12"
                     fill="#006f46"
                     id="path1345" /></g><path
                   d="m 470.303,603.01 h 20.694 v -4.934 h -20.694 z"
                   fill="#c8b100"
                   id="path1349" /><path
                   d="m 470.303,603.01 h 20.694 v -4.934 h -20.694 z"
                   fill="#dead00"
                   id="path1351" /><g
                   stroke-width="2.467"
                   id="g1361"><path
                     d="m 467.468,833.44 c 9.953,2.994 14.997,10.409 14.997,19.088 0,11.305 -10.964,19.884 -25.2,19.884 -14.232,0 -25.776,-8.58 -25.776,-19.884 0,-8.545 4.747,-18.092 14.643,-18.781 0,0 -0.301,-0.896 -1.154,-2.367 -1.025,-1.097 -3.051,-3.142 -3.051,-3.142 0,0 3.78,-0.709 5.959,0.12 2.193,0.828 3.635,2.213 3.635,2.213 0,0 1.035,-2.027 2.482,-3.598 1.46,-1.557 3.353,-2.534 3.353,-2.534 0,0 2.189,1.84 2.907,3.07 0.714,1.27 1.179,2.774 1.179,2.774 0,0 2.011,-1.657 3.76,-2.333 1.743,-0.69 3.995,-1.23 3.995,-1.23 0,0 -0.642,2.179 -1.068,3.29 a 30.9,30.9 0 0 0 -0.81,2.444 l -0.425,0.769 z"
                     fill="#f6cb7e"
                     id="path1353" /><path
                     d="m 455.162,884.68 c 0,0 -18.926,-12.757 -27.131,-14.481 -10.49,-2.213 -22.28,-0.422 -27.38,-0.69 0.143,0.149 6.116,4.407 8.737,7.041 2.625,2.62 11.366,7.856 16.305,9.092 15.357,3.851 29.469,-0.963 29.469,-0.963 m 5.403,1.111 c 0,0 12.124,-12.602 24.813,-14.341 14.998,-2.079 24.812,1.236 30.637,2.754 0.134,0 -4.814,2.347 -7.43,4.139 -2.629,1.791 -9.383,7.448 -19.71,7.568 -10.347,0.154 -21.762,-1.082 -23.654,-0.795 a 330.84,330.84 0 0 0 -4.656,0.675"
                     fill="#006f46"
                     id="path1355" /><path
                     d="m 454.595,867.62 c -4.766,-4.425 -5.397,-8.132 -5.397,-15.106 0,-6.96 2.984,-13.245 7.746,-17.651 a 24.003,24.003 0 0 1 7.688,17.651 c 0,6.974 -0.226,10.454 -4.968,14.88 l -2.629,1.831 z"
                     fill="#b50027"
                     id="path1357" /><path
                     d="m 451.913,894.987 c 0,0 3.124,-6.17 3.407,-12.387 0.249,-5.202 -0.733,-10.337 -0.733,-10.337 h 3.784 c 0,0 1.892,5.523 1.892,10.337 0,4.829 -0.876,11.252 -0.876,11.252 0,0 -2.62,0.403 -3.492,0.81 -0.858,0.421 -3.12,1.507 -3.12,1.507 l -1.375,0.36 z"
                     fill="#006f46"
                     id="path1359" /></g></g><path
                 d="M 454.965,603.652 H 694.36 V 338.604 H 454.965 Z"
                 fill="#b2b2b2"
                 id="path1365"
                 style="fill:#ffffff" /><path
                 d="M 454.965,603.652 H 694.36 V 338.604 H 454.965 Z"
                 fill="none"
                 stroke="#000000"
                 stroke-width="2.465"
                 id="path1367" /><g
                 stroke="#000000"
                 id="g1479"><g
                   fill="#b50027"
                   id="g1371"><path
                     d="m 604.393,568.991 c 0,0 -2.96,3.056 -1.892,5.605 1.087,2.553 2.96,5.22 2.96,5.22 0,0 -0.105,-3.798 1.092,-4.828 1.73,-1.523 4.958,-1.791 4.958,-1.791 0,0 -2.553,-2.28 -3.372,-2.534 -0.786,-0.273 -3.746,-1.672 -3.746,-1.672 z m 14.787,4.474 c 0,0 -1.48,3.684 1.356,6.098 2.816,2.433 5.245,2.687 5.245,2.687 0,0 -2.16,-3.837 -1.48,-5.863 0.694,-2.112 2.548,-3.43 2.548,-3.43 0,0 -3.497,-1.164 -4.033,-1.03 -0.532,0.12 -3.636,1.538 -3.636,1.538 z m -41.604,-165.463 0.268,-2.94 0.407,-1.639 c 0,0 -7.664,0.627 -11.698,-0.508 -4.033,-1.145 -7.668,-2.802 -11.438,-5.978 -3.756,-3.195 -5.24,-5.187 -7.933,-5.59 -6.457,-1.03 -11.434,1.892 -11.434,1.892 0,0 4.853,1.787 8.493,6.232 3.617,4.479 7.564,6.74 9.274,7.281 2.821,0.862 12.631,0.254 15.323,0.355 2.692,0.134 8.737,0.91 8.737,0.91 v -0.015 z"
                     id="path1369" /></g><g
                   fill="#ffffff"
                   id="g1375"><path
                     d="m 564.006,412.208 1.6,-2.534 1.585,2.3 -3.185,0.234 m 3.884,-0.12 1.888,-2.534 2.021,2.28 -3.909,0.254 m -1.743,-15.658 3.904,1.403 -3.497,1.772 -0.407,-3.175 m 4.703,1.283 3.497,0.882 -2.816,2.16 z"
                     id="path1373" /></g><path
                   d="m 613.415,397.225 c 0,0 0.02,3.43 0.355,6.706 0.32,3.142 -1.016,5.896 -0.498,7.635 0.498,1.758 0.747,3.142 1.427,4.407 0.642,1.27 0.997,4.479 0.997,4.479 0,0 -1.835,-1.303 -3.535,-2.568 a 55.675,55.675 0 0 0 -2.874,-2.079 c 0,0 0.345,3.43 0.502,4.9 0.182,1.471 1.04,4.24 2.43,5.878 1.374,1.605 4.123,4.24 4.971,6.352 0.882,2.131 0.704,6.825 0.704,6.825 0,0 -2.232,-3.563 -4.148,-4.205 -1.882,-0.661 -6.021,-2.956 -6.021,-2.956 0,0 3.794,3.765 3.794,7.348 0,3.578 -1.547,7.65 -1.547,7.65 0,0 -1.715,-3.243 -3.943,-5.37 -2.246,-2.112 -5.35,-4.239 -5.35,-4.239 0,0 2.424,5.537 2.424,9.274 0,3.765 -0.676,11.754 -0.676,11.754 0,0 -1.892,-3.09 -3.784,-4.593 -1.907,-1.452 -4.134,-2.755 -4.833,-3.717 -0.676,-0.978 2.251,3.075 2.567,5.523 0.336,2.452 1.5,11.184 9.135,22.336 4.46,6.519 11.362,17.92 26.15,14.169 14.805,-3.732 9.311,-23.63 6.207,-32.923 -3.104,-9.273 -4.656,-19.562 -4.474,-23.16 0.158,-3.563 2.745,-14.154 2.405,-16.132 -0.34,-1.94 -1.145,-9.509 0.694,-15.606 1.892,-6.352 3.464,-8.819 4.48,-11.439 1.01,-2.6 1.867,-4.071 2.212,-6.352 0.34,-2.28 0.34,-6.538 0.34,-6.538 0,0 2.745,5.068 3.44,6.86 0.68,1.805 0.68,7.16 0.68,7.16 0,0 0.512,-5.355 4.656,-7.956 4.138,-2.634 8.952,-5.389 10.16,-6.86 1.202,-1.484 1.556,-2.447 1.556,-2.447 0,0 -0.354,9.14 -2.927,12.737 -1.71,2.333 -8.45,9.934 -8.45,9.934 0,0 3.46,-1.317 5.864,-1.45 2.41,-0.188 4.124,0 4.124,0 0,0 -2.927,2.28 -6.71,7.816 -3.78,5.528 -2.243,6.017 -4.992,10.577 -2.769,4.56 -4.996,4.728 -8.44,7.501 -5.174,4.153 -2.386,20.674 -1.71,23.126 0.694,2.434 9.632,22.667 9.81,27.553 0.158,4.895 1.034,15.812 -7.583,22.82 -5.547,4.545 -14.624,4.579 -16.694,5.877 -2.074,1.284 -6.174,5.355 -6.174,13.839 0,8.497 3.07,9.78 5.48,11.908 2.424,2.126 5.513,0.982 6.203,2.62 0.7,1.619 1.035,2.6 2.074,3.578 1.035,0.963 1.73,2.112 1.375,3.885 -0.34,1.81 -4.302,5.882 -5.676,8.837 -1.39,2.903 -4.139,10.591 -4.139,11.722 0,1.15 -0.321,4.732 0.857,6.538 0,0 4.302,5.02 1.37,5.997 -1.887,0.642 -3.74,-1.183 -4.632,-0.977 -2.572,0.675 -3.913,2.26 -4.656,2.127 -1.714,-0.321 -1.714,-1.164 -1.892,-3.583 -0.158,-2.434 -0.072,-3.43 -0.838,-3.43 -1.035,0 -1.557,0.848 -1.73,2.132 -0.186,1.298 -0.186,4.22 -1.374,4.22 -1.212,0 -2.927,-2.113 -3.961,-2.582 -1.035,-0.494 -3.957,-0.982 -4.125,-2.28 -0.172,-1.303 1.72,-4.072 3.607,-4.565 1.892,-0.489 3.622,-1.451 2.41,-2.429 -1.212,-0.982 -2.41,-0.982 -3.602,0 -1.212,0.978 -3.785,0.149 -3.622,-1.317 0.177,-1.47 0.518,-3.248 0.336,-4.071 -0.158,-0.796 -2.228,-2.434 0.503,-3.924 2.764,-1.45 3.956,1.323 6.706,0.83 2.764,-0.47 4.139,-1.486 5.173,-3.09 1.035,-1.624 0.853,-5.054 -1.034,-7.162 -1.893,-2.131 -3.78,-2.466 -4.48,-3.77 -0.694,-1.297 -1.71,-4.392 -1.71,-4.392 0,0 0.499,5.696 0.159,6.524 -0.336,0.81 -0.158,4.22 -0.158,4.22 0,0 -1.892,-2.112 -3.444,-3.731 -1.533,-1.638 -3.085,-6.52 -3.085,-6.52 0,0 -0.163,4.56 -0.163,6.367 0,1.772 2.05,3.41 1.375,4.071 -0.695,0.642 -3.957,-3.43 -4.814,-4.071 -0.877,-0.657 -3.622,-2.77 -4.834,-5.068 -1.197,-2.28 -2.074,-5.523 -2.41,-6.687 -0.344,-1.136 -0.91,-6.218 -0.344,-7.501 0.857,-1.945 2.237,-5.375 2.237,-5.375 h -6.711 c -3.602,0 -6.189,-1.13 -7.564,1.303 -1.37,2.448 -0.694,7.348 1.02,13.7 1.73,6.332 2.745,9.44 2.247,10.59 -0.503,1.13 -2.745,3.751 -3.602,4.225 -0.877,0.508 -3.286,0.336 -4.32,-0.134 -1.016,-0.493 -2.726,-1.322 -6.012,-1.322 -3.262,0 -5.332,0.154 -6.524,-0.134 -1.212,-0.335 -4.139,-1.806 -5.533,-1.485 -1.375,0.336 -3.75,1.552 -3.104,3.43 1.054,2.936 -1.015,3.597 -2.404,3.43 -1.375,-0.173 -2.554,-0.661 -4.302,-1.136 -1.71,-0.503 -4.301,0 -3.957,-1.973 0.336,-1.96 1.035,-2.113 1.888,-3.564 0.871,-1.49 1.192,-2.433 0.225,-2.534 -1.207,-0.12 -2.42,-0.254 -3.363,0.522 -0.91,0.762 -2.39,2.4 -3.607,1.792 -1.217,-0.642 -2.155,-2.046 -2.155,-5.12 0,-3.057 -3.234,-5.725 -0.269,-5.59 2.96,0.133 6.725,2.298 7.4,0.641 0.662,-1.672 0.255,-2.414 -1.35,-3.717 -1.614,-1.265 -3.626,-2.026 -1.47,-3.684 2.145,-1.638 2.682,-1.638 3.5,-2.548 0.806,-0.881 1.96,-3.75 3.464,-3.042 2.956,1.404 0.14,3.444 3.1,6.74 2.964,3.31 4.837,4.479 9.814,3.952 4.972,-0.503 6.333,-1.145 6.333,-2.549 0,-1.403 -0.417,-3.937 -0.56,-4.967 -0.12,-1.015 0.684,-4.713 0.684,-4.713 0,0 -2.285,1.418 -2.96,2.802 -0.647,1.403 -2.002,3.803 -2.002,3.803 0,0 -0.551,-2.855 -0.393,-5.187 0.09,-1.366 0.575,-3.751 0.522,-4.22 -0.13,-1.27 -1.073,-4.46 -1.073,-4.46 0,0 -0.81,3.444 -1.336,4.46 -0.537,1.01 -0.805,5.101 -0.805,5.101 0,0 -3.157,-2.754 -2.28,-7.381 0.656,-3.57 -0.542,-8.278 0.531,-9.815 1.054,-1.538 3.603,-7.775 9.796,-8.043 6.189,-0.234 11.022,0.269 13.183,0.154 2.15,-0.154 9.81,-1.538 9.81,-1.538 0,0 -14.117,-7.247 -17.34,-9.427 -3.23,-2.146 -8.206,-7.755 -9.83,-10.303 -1.61,-2.553 -3.085,-7.501 -3.085,-7.501 0,0 -2.534,0.115 -4.833,1.384 -2.285,1.25 -4.565,3.195 -5.906,4.694 -1.36,1.538 -3.497,4.987 -3.497,4.987 0,0 0.393,-4.46 0.393,-5.863 0,-1.37 -0.268,-4.086 -0.268,-4.086 0,0 -1.605,6.112 -4.834,8.392 -3.228,2.313 -6.993,5.49 -6.993,5.49 0,0 0.412,-3.411 0.412,-4.187 0,-0.762 0.805,-4.714 0.805,-4.714 0,0 -2.285,3.41 -5.782,4.086 -3.497,0.628 -8.617,0.494 -9.025,2.673 -0.393,2.141 0.944,5.082 0.144,6.6 -0.81,1.538 -2.553,2.554 -2.553,2.554 0,0 -2.012,-1.672 -3.765,-1.792 -1.749,-0.134 -3.368,0.776 -3.368,0.776 0,0 -1.48,-1.925 -0.948,-3.19 0.55,-1.27 3.228,-3.176 2.567,-3.952 -0.675,-0.761 -2.83,0.268 -4.172,0.896 -1.336,0.642 -4.172,1.265 -3.904,-0.896 0.269,-2.165 0.944,-3.43 0.269,-4.967 -0.67,-1.504 -0.269,-2.534 0.819,-2.922 1.068,-0.354 5.37,0.115 5.777,-0.862 0.393,-1.03 -1.068,-2.3 -3.904,-2.941 -2.822,-0.623 -4.172,-2.294 -2.692,-3.698 1.48,-1.404 1.887,-1.772 2.558,-3.056 0.671,-1.284 0.934,-3.569 3.501,-2.419 2.534,1.135 1.998,3.937 4.714,4.833 2.658,0.91 8.99,-0.373 10.322,-1.13 1.36,-0.781 5.658,-3.957 7.138,-4.733 1.485,-0.742 7.654,-5.336 7.654,-5.336 0,0 -3.621,-2.52 -4.977,-3.818 -1.336,-1.269 -3.746,-4.31 -4.938,-4.953 -1.217,-0.656 -7.138,-2.922 -9.154,-3.056 -2.017,-0.134 -8.206,-2.28 -8.206,-2.28 0,0 2.822,-0.91 3.765,-1.671 0.943,-0.761 3.066,-2.688 4.173,-2.554 1.053,0.14 1.317,0.14 1.317,0.14 0,0 -5.758,-0.274 -6.975,-0.628 -1.207,-0.407 -4.703,-2.568 -6.04,-2.568 -1.36,0 -4.033,0.523 -4.033,0.523 0,0 3.621,-2.295 6.581,-2.803 2.96,-0.488 5.246,-0.388 5.246,-0.388 0,0 -4.565,-1.269 -5.657,-2.787 -1.069,-1.538 -2.137,-3.804 -2.96,-4.834 -0.8,-1.01 -1.337,-2.682 -2.817,-2.802 -1.48,-0.134 -4.038,1.792 -5.514,1.653 -1.46,-0.115 -2.553,-1.03 -2.697,-3.176 -0.1,-2.175 0,-1.418 -0.512,-2.548 -0.537,-1.164 -2.692,-3.837 -0.68,-4.46 2.035,-0.642 6.332,0.374 6.725,-0.388 0.412,-0.762 -2.28,-3.056 -4.028,-3.952 -1.749,-0.881 -4.57,-2.419 -3.09,-3.683 1.485,-1.27 2.955,-1.773 3.765,-2.922 0.805,-1.15 1.748,-4.326 3.497,-3.315 1.748,1.016 4.167,5.997 5.513,5.61 1.356,-0.389 1.456,-3.953 1.212,-5.471 -0.268,-1.538 0,-4.206 1.322,-3.957 1.356,0.254 2.424,2.031 4.584,2.18 2.137,0.12 5.365,-0.503 5.097,0.996 -0.269,1.523 -1.485,3.416 -2.96,5.087 -1.442,1.672 -2.122,4.968 -1.193,7.128 0.939,2.18 3.372,5.628 5.513,7.013 2.137,1.398 6.17,2.433 8.737,4.071 2.549,1.672 8.474,6.366 10.49,6.874 2.013,0.522 4.03,1.537 4.03,1.537 0,0 2.28,-1.015 5.388,-1.015 3.085,0 10.203,0.508 12.895,-0.642 2.692,-1.164 6.189,-3.056 5.116,-5.49 -1.064,-2.4 -6.989,-4.579 -6.452,-6.47 0.536,-1.907 2.692,-2.041 6.308,-2.175 3.626,-0.12 8.603,0.641 9.532,-4.46 0.944,-5.087 1.212,-8.028 -3.87,-9.159 -5.12,-1.15 -8.89,-1.264 -9.81,-4.967 -0.953,-3.683 -1.892,-4.574 -0.824,-5.609 1.092,-0.996 2.96,-1.518 6.725,-1.753 3.765,-0.273 8.062,-0.273 9.279,-1.183 1.212,-0.862 1.46,-3.296 2.94,-4.326 1.476,-0.996 7.277,-1.91 7.277,-1.91 0,0 6.907,3.38 13.326,8.142 5.743,4.292 10.936,10.63 10.936,10.63"
                   fill="#d85aac"
                   stroke-linejoin="round"
                   stroke-width="1.20287"
                   id="path1377" /><path
                   d="m 563.862,393.642 c 0,0 -0.805,-2.295 -0.944,-2.937 -0.124,-0.627 -0.229,-1.372 -0.229,-1.372 0,0 3.865,-0.031 3.726,1.233 -0.13,1.284 -1.341,1.284 -1.61,1.778 -0.263,0.522 -0.943,1.298 -0.943,1.298"
                   id="path1379" /><path
                   d="m 582.965,387.003 -0.283,-2.04 c 0,0 3.636,0.033 5.384,1.264 2.697,1.91 4.426,4.847 4.302,4.967 -0.47,0.455 -2.553,-1.27 -4.033,-1.772 0,0 -1.073,0.254 -2.156,0.254 -1.073,0 -1.61,-0.508 -1.753,-1.016 -0.12,-0.522 0.143,-1.403 0.143,-1.403 l -1.604,-0.235 v -0.02 z"
                   stroke-width="0.75"
                   id="path1381" /><path
                   d="m 609.186,415.79 c 0,0 -1.624,-2.298 -2.017,-3.074 -0.412,-0.743 -1.087,-2.28 -1.087,-2.28"
                   fill="none"
                   stroke-linecap="round"
                   id="path1383" /><path
                   d="m 510.74,392.866 c 0,0 2.284,1.638 4.033,1.892 1.748,0.268 3.64,0.268 3.909,0.268 0.263,0 0.819,-2.567 0.531,-4.32 -0.943,-5.744 -6.189,-7.013 -6.189,-7.013 0,0 1.567,3.482 0.805,5.087 -1.073,2.294 -3.09,4.086 -3.09,4.086"
                   fill="#db4446"
                   id="path1385" /><path
                   d="m 510.74,392.866 c 0,0 2.284,1.638 4.033,1.892 1.748,0.268 3.64,0.268 3.909,0.268 0.263,0 0.819,-2.567 0.531,-4.32 -0.943,-5.744 -6.189,-7.013 -6.189,-7.013 0,0 1.567,3.482 0.805,5.087 -1.073,2.294 -3.09,4.086 -3.09,4.086 z"
                   fill="#b50027"
                   id="path1387" /><path
                   d="m 499.842,397.833 c 0,0 -2.017,-3.698 -6.313,-3.195 -4.302,0.508 -7.138,3.837 -7.138,3.837 0,0 4.747,-0.153 5.921,0.623 1.753,1.15 2.285,4.09 2.285,4.09 0,0 2.572,-1.537 3.372,-2.553 0.8,-1.03 1.873,-2.802 1.873,-2.802"
                   fill="#db4446"
                   id="path1389" /><path
                   d="m 499.842,397.833 c 0,0 -2.017,-3.698 -6.313,-3.195 -4.302,0.508 -7.138,3.837 -7.138,3.837 0,0 4.747,-0.153 5.921,0.623 1.753,1.15 2.285,4.09 2.285,4.09 0,0 2.572,-1.537 3.372,-2.553 0.8,-1.03 1.873,-2.802 1.873,-2.802 z"
                   fill="#b50027"
                   id="path1391" /><path
                   d="m 494.597,412.716 c 0,0 -3.621,0.522 -5.633,2.821 -2.036,2.294 -1.749,6.62 -1.749,6.62 0,0 2.405,-2.534 4.565,-2.534 2.16,0 5.514,0.762 5.514,0.762 0,0 -1.073,-2.702 -1.073,-3.837 0,-1.145 -1.624,-3.832 -1.624,-3.832"
                   fill="#db4446"
                   id="path1393" /><path
                   d="m 494.597,412.716 c 0,0 -3.621,0.522 -5.633,2.821 -2.036,2.294 -1.749,6.62 -1.749,6.62 0,0 2.405,-2.534 4.565,-2.534 2.16,0 5.514,0.762 5.514,0.762 0,0 -1.073,-2.702 -1.073,-3.837 0,-1.145 -1.624,-3.832 -1.624,-3.832 z"
                   fill="#b50027"
                   id="path1395" /><path
                   d="m 544.625,427.632 c 0,0 -3.828,1.116 -5.24,3.176 -1.744,2.548 -1.62,5.101 -1.62,5.101 0,0 3.229,-2.668 7.401,-1.537 4.177,1.15 4.565,1.537 6.333,1.417 1.748,-0.134 6.05,-1.671 6.05,-1.671 0,0 -3.497,4.071 -3.105,6.893 0.407,2.787 0.925,4.052 0.815,5.475 -0.288,3.444 -2.831,7.65 -2.831,7.65 0,0 1.48,-0.91 4.977,-1.672 3.477,-0.762 6.457,-2.434 8.33,-3.818 1.873,-1.418 4.296,-4.848 4.296,-4.848 0,0 -0.78,4.714 0,6.754 0.805,2.046 1.073,7.909 1.073,7.909 0,0 2.247,-1.993 4.029,-2.941 0.944,-0.523 3.372,-1.792 4.32,-3.31 0.657,-1.083 1.48,-5.068 1.48,-5.068 0,0 0.532,4.292 1.869,6.37 1.36,2.008 3.353,8.278 3.353,8.278 0,0 1.36,-4.072 2.84,-5.743 1.461,-1.658 3.229,-3.818 3.354,-5.102 0.124,-1.27 -0.393,-4.057 -0.393,-4.057 l 1.873,4.057 m -54.315,2.922 c 0,0 2.285,-3.937 4.44,-5.221 2.16,-1.284 5.121,-3.564 5.921,-3.818 0.786,-0.254 4.301,-2.18 4.301,-2.18 m 4.71,24.598 c 0,0 5.172,-2.654 6.72,-3.583 3.233,-1.892 5.513,-5.336 5.513,-5.336"
                   fill="none"
                   stroke-linejoin="round"
                   id="path1397" /><path
                   d="m 506.83,460.86 c 0,0 -2.011,-2.145 -5.508,-1.523 -3.497,0.642 -5.781,4.599 -5.781,4.599 0,0 2.96,-0.781 4.713,-0.393 1.744,0.393 2.96,2.165 2.96,2.165 0,0 1.605,-1.404 2.141,-2.165 0.537,-0.757 1.461,-2.683 1.461,-2.683"
                   fill="#db4446"
                   id="path1399" /><path
                   d="m 506.83,460.86 c 0,0 -2.011,-2.145 -5.508,-1.523 -3.497,0.642 -5.781,4.599 -5.781,4.599 0,0 2.96,-0.781 4.713,-0.393 1.744,0.393 2.96,2.165 2.96,2.165 0,0 1.605,-1.404 2.141,-2.165 0.537,-0.757 1.461,-2.683 1.461,-2.683 h 0.015 z"
                   fill="#b50027"
                   id="path1401" /><path
                   d="m 502.802,474.996 c 0,0 -2.96,-0.503 -5.508,1.538 -2.553,2.045 -2.697,5.982 -2.697,5.982 0,0 2.429,-2.045 4.32,-1.772 1.874,0.235 4.154,1.265 4.154,1.265 0,0 0.412,-2.434 0.531,-3.056 0.417,-1.778 -0.8,-3.957 -0.8,-3.957"
                   fill="#db4446"
                   id="path1403" /><path
                   d="m 502.802,474.996 c 0,0 -2.96,-0.503 -5.508,1.538 -2.553,2.045 -2.697,5.982 -2.697,5.982 0,0 2.429,-2.045 4.32,-1.772 1.874,0.235 4.154,1.265 4.154,1.265 0,0 0.412,-2.434 0.531,-3.056 0.417,-1.778 -0.8,-3.957 -0.8,-3.957 z"
                   fill="#b50027"
                   id="path1405" /><path
                   d="m 509.671,488.006 c 0,0 -0.196,3.784 1.605,6.097 1.892,2.434 5.389,2.807 5.389,2.807 0,0 -1.178,-2.533 -1.356,-3.822 -0.268,-1.906 1.605,-3.564 1.605,-3.564 0,0 -1.73,-1.772 -3.478,-1.772 -1.753,0 -3.765,0.254 -3.765,0.254"
                   fill="#db4446"
                   id="path1407" /><path
                   d="m 509.671,488.006 c 0,0 -0.196,3.784 1.605,6.097 1.892,2.434 5.389,2.807 5.389,2.807 0,0 -1.178,-2.533 -1.356,-3.822 -0.268,-1.906 1.605,-3.564 1.605,-3.564 0,0 -1.73,-1.772 -3.478,-1.772 -1.753,0 -3.765,0.254 -3.765,0.254 z"
                   fill="#b50027"
                   id="path1409" /><path
                   d="m 589.015,494.357 c 0,0 9.685,5.997 9.417,10.965 -0.288,4.967 -5.389,11.467 -5.389,11.467"
                   fill="none"
                   id="path1411" /><path
                   d="m 544.625,521.503 c 0,0 -2.42,-3.056 -5.772,-2.937 -3.373,0.134 -6.874,3.291 -6.874,3.291 0,0 4.182,-0.354 5.245,1.03 1.092,1.423 2.16,3.176 2.16,3.176 0,0 1.878,-0.997 2.697,-1.639 0.805,-0.622 2.544,-2.921 2.544,-2.921"
                   fill="#db4446"
                   id="path1413" /><path
                   d="m 544.625,521.503 c 0,0 -2.42,-3.056 -5.772,-2.937 -3.373,0.134 -6.874,3.291 -6.874,3.291 0,0 4.182,-0.354 5.245,1.03 1.092,1.423 2.16,3.176 2.16,3.176 0,0 1.878,-0.997 2.697,-1.639 0.805,-0.622 2.544,-2.921 2.544,-2.921 z"
                   fill="#b50027"
                   id="path1415" /><path
                   d="m 534.269,534.867 c 0,0 -4.422,-0.642 -6.582,1.652 -2.16,2.285 -2.017,6.49 -2.017,6.49 0,0 2.697,-2.921 5.102,-2.672 2.428,0.254 5.12,1.538 5.12,1.538 0,0 -0.412,-2.549 -0.68,-3.698 -0.268,-1.15 -0.943,-3.31 -0.943,-3.31"
                   fill="#db4446"
                   id="path1417" /><path
                   d="m 534.269,534.867 c 0,0 -4.422,-0.642 -6.582,1.652 -2.16,2.285 -2.017,6.49 -2.017,6.49 0,0 2.697,-2.921 5.102,-2.672 2.428,0.254 5.12,1.538 5.12,1.538 0,0 -0.412,-2.549 -0.68,-3.698 -0.268,-1.15 -0.943,-3.31 -0.943,-3.31 z"
                   fill="#b50027"
                   id="path1419" /><path
                   d="m 543.83,549.007 c 0,0 -2.16,3.056 -0.537,5.47 1.605,2.434 4.963,3.583 4.963,3.583 0,0 -1.198,-1.772 -0.661,-3.837 0.426,-1.619 3.228,-3.817 3.228,-3.817 l -6.993,-1.385"
                   fill="#db4446"
                   id="path1421" /><g
                   fill="#b50027"
                   id="g1427"><path
                     d="m 543.83,549.007 c 0,0 -2.16,3.056 -0.537,5.47 1.605,2.434 4.963,3.583 4.963,3.583 0,0 -1.198,-1.772 -0.661,-3.837 0.426,-1.619 3.228,-3.817 3.228,-3.817 l -6.993,-1.385 v -0.015 z m 59.023,5.743 c 0,0 -3.885,-0.915 -6.045,0.37 -2.141,1.269 -3.89,6.624 -3.89,6.624 0,0 3.497,-2.922 6.05,-2.568 2.549,0.403 4.44,1.418 4.44,1.418 0,0 0.389,-2.18 0.12,-3.683 -0.157,-0.91 -0.675,-2.16 -0.675,-2.16"
                     id="path1423" /><path
                     d="m 602.853,554.75 c 0,0 -3.885,-0.915 -6.045,0.37 -2.141,1.269 -3.89,6.624 -3.89,6.624 0,0 3.497,-2.922 6.05,-2.568 2.549,0.403 4.44,1.418 4.44,1.418 0,0 0.389,-2.18 0.12,-3.683 -0.157,-0.91 -0.675,-2.16 -0.675,-2.16 z"
                     id="path1425" /></g><g
                   transform="translate(-4.336,-0.793)"
                   fill="#9f7e00"
                   id="g1477"><g
                     stroke-width="0.75"
                     id="g1433"><path
                       d="m 614.988,377.612 -1.375,0.101 c -0.063,0.168 -0.68,1.15 -1.265,1.69 -1.216,1.165 -3.05,1.299 -4.086,0.322 a 2.34,2.34 0 0 1 -0.66,-1.945 c -0.805,0.407 -1.644,0.407 -2.43,-0.033 -1.23,-0.71 -1.537,-2.4 -0.641,-3.804 0.143,-0.268 0.287,-0.622 0.503,-0.824 l -0.091,-1.537 -1.662,0.388 -0.48,0.91 c -1.034,1.169 -2.567,1.47 -3.333,0.78 -0.374,-0.32 -0.453,-0.592 -0.623,-1.25 -0.373,0.318 -0.397,0.403 -0.824,0.503 -2.548,0.628 -3.564,-4.981 -3.621,-6.433 l -0.838,1.184 c 0,0 0.752,3.357 0.373,6.198 -0.373,2.836 -1.375,5.676 -1.375,5.676 3.555,0.91 8.872,3.799 14.146,7.87 5.283,4.038 9.436,8.43 11.15,11.506 0,0 2.731,-1.523 5.6,-2.433 2.841,-0.93 6.458,-0.949 6.458,-0.949 l 1.03,-1.01 c -1.514,0.22 -7.521,0.474 -7.401,-2.046 0.006,-0.382 -0.073,-0.43 0.486,-0.98 -0.951,0 -1.104,0.084 -1.535,-0.184 -0.872,-0.575 -0.853,-2.045 0.11,-3.262 l 0.838,-0.608 0.053,-1.62 -1.61,0.221 c -0.143,0.201 -0.512,0.436 -0.728,0.642 -1.265,1.097 -3.085,1.178 -4.086,0.148 -0.604,-0.589 -0.79,-1.384 -0.532,-2.213 -0.733,0.22 -1.499,0.154 -2.146,-0.22 -1.226,-0.742 -1.46,-2.481 -0.512,-3.832 0.44,-0.661 1.317,-1.437 1.47,-1.518 l -0.33,-1.423"
                       id="path1429"
                       style="fill:#fabd00;fill-opacity:1" /><path
                       d="m 608.794,384.687 -1.552,-1.197 c -0.282,-0.22 -0.373,-0.575 -0.191,-0.776 0.177,-0.187 0.55,-0.187 0.838,0.014 l 1.547,1.217 1.59,1.202 c 0.269,0.202 0.37,0.556 0.197,0.776 -0.197,0.187 -0.57,0.168 -0.857,-0.033 l -1.572,-1.202 m -8.292,-5.677 -1.23,-0.723 c -0.307,-0.187 -0.465,-0.541 -0.322,-0.776 0.125,-0.254 0.498,-0.288 0.8,-0.106 l 1.227,0.729 1.255,0.728 c 0.302,0.167 0.445,0.522 0.32,0.776 -0.143,0.22 -0.497,0.268 -0.819,0.086 l -1.23,-0.714"
                       id="path1431"
                       style="fill:#fabd00;fill-opacity:1" /></g><ellipse
                     transform="matrix(0.82291,0.56817,-0.612,0.79086,0,0)"
                     cx="723.16699"
                     cy="-29.360001"
                     rx="0.958"
                     ry="0.713"
                     fill-rule="evenodd"
                     stroke-width="0.751"
                     id="ellipse1435"
                     style="fill:#fabd00;fill-opacity:1" /><path
                     d="m 616.52,391.293 1.016,0.982 c 0.25,0.235 0.642,0.32 0.857,0.134 0.216,-0.168 0.187,-0.508 -0.052,-0.743 l -1.001,-0.996 -1.035,-1.015 c -0.249,-0.235 -0.642,-0.302 -0.857,-0.115 -0.23,0.148 -0.197,0.522 0.072,0.757 l 1,0.996"
                     stroke-width="0.75"
                     id="path1437"
                     style="fill:#fabd00;fill-opacity:1" /><ellipse
                     transform="matrix(0.59251,0.80556,-0.83654,0.54791,0,0)"
                     cx="670.96997"
                     cy="-266.31699"
                     rx="0.958"
                     ry="0.713"
                     fill-rule="evenodd"
                     stroke-width="0.751"
                     id="ellipse1439"
                     style="fill:#fabd00;fill-opacity:1" /><g
                     stroke-width="0.75"
                     id="g1475"><path
                       d="m 607.951,366.428 -2.812,0.086 -0.55,4.139 0.3,0.656 0.734,-0.048 3.602,-2.42 c -0.4,-0.818 -0.831,-1.619 -1.274,-2.413 z"
                       id="path1441"
                       style="fill:#fabd00;fill-opacity:1" /><path
                       d="m 600.325,368.727 -0.076,2.582 4.373,0.541 0.68,-0.287 -0.057,-0.71 -2.549,-3.395 c -0.844,0.342 -1.62,0.769 -2.37,1.269 z"
                       id="path1443"
                       style="fill:#fabd00;fill-opacity:1" /><path
                       d="m 609.364,373.876 -2.333,1.303 -2.553,-3.41 -0.052,-0.695 0.68,-0.287 4.388,0.522 c 0.055,0.874 0.036,1.714 -0.13,2.567 z"
                       id="path1445"
                       style="fill:#fabd00;fill-opacity:1" /><circle
                       cx="604.75201"
                       cy="371.14401"
                       r="1.47"
                       fill-rule="evenodd"
                       id="circle1447"
                       style="fill:#fabd00;fill-opacity:1" /><path
                       d="m 593.475,366.413 c -0.072,0.015 -0.613,-2.18 -1.216,-3.396 -0.407,-0.881 -1.854,-2.026 -1.854,-2.026 0.143,-0.273 1.964,-0.93 4.139,0.436 1.762,1.456 -0.144,4.124 -0.144,4.124 0,0 -0.464,0.642 -0.91,0.862"
                       id="path1449"
                       style="fill:#fabd00;fill-opacity:1" /><path
                       d="m 598.39,367.898 -1.993,1.725 -3.247,-2.822 0.282,-0.407 0.115,-0.694 4.402,-0.321 c 0.187,0.834 0.326,1.674 0.441,2.52 z"
                       id="path1451"
                       style="fill:#fabd00;fill-opacity:1" /><path
                       d="m 592.84,366.428 c 0.024,-0.751 0.491,-1.34 1.013,-1.344 0.53,0.024 0.93,0.626 0.915,1.36 -0.025,0.75 -0.498,1.321 -1.013,1.343 -0.554,-0.021 -0.944,-0.622 -0.916,-1.359 m 25.89,6.739 -2.802,-0.301 -1.174,4.038 0.216,0.69 0.732,0.018 3.923,-1.91 c -0.296,-0.846 -0.593,-1.691 -0.895,-2.535 z"
                       id="path1453"
                       style="fill:#fabd00;fill-opacity:1" /><path
                       d="m 610.825,374.417 -0.44,2.554 4.244,1.11 0.713,-0.2 0.053,-0.69 -2.017,-3.736 c -0.868,0.277 -1.71,0.62 -2.553,0.962 z"
                       id="path1455"
                       style="fill:#fabd00;fill-opacity:1" /><path
                       d="m 619.035,380.702 -2.514,0.996 -2.017,-3.717 0.052,-0.709 0.714,-0.186 4.244,1.116 c -0.115,0.843 -0.28,1.679 -0.479,2.5 z"
                       id="path1457"
                       style="fill:#fabd00;fill-opacity:1" /><circle
                       cx="614.86798"
                       cy="377.57401"
                       r="1.47"
                       fill-rule="evenodd"
                       id="circle1459"
                       style="fill:#fabd00;fill-opacity:1" /><path
                       d="m 628.132,381.904 0.512,2.65 -4.153,1.384 -0.733,-0.149 -0.086,-0.694 1.73,-3.837 c 0.914,0.199 1.821,0.424 2.73,0.646 z"
                       id="path1461"
                       style="fill:#fabd00;fill-opacity:1" /><path
                       d="m 627.384,389.487 -2.658,0.59 -1.47,-3.953 0.167,-0.675 0.733,-0.1 4.047,1.657 c -0.27,0.828 -0.543,1.655 -0.819,2.481 z"
                       id="path1463"
                       style="fill:#fabd00;fill-opacity:1" /><path
                       d="m 620.175,382.153 -0.857,2.453 4.052,1.638 0.743,-0.1 0.143,-0.676 -1.441,-3.937 c -0.88,0.205 -1.76,0.414 -2.64,0.622 z"
                       id="path1465"
                       style="fill:#fabd00;fill-opacity:1" /><circle
                       cx="623.73297"
                       cy="385.60699"
                       r="1.47"
                       fill-rule="evenodd"
                       id="circle1467"
                       style="fill:#fabd00;fill-opacity:1" /><path
                       d="m 631.197,395.33 c -0.015,0.068 2.376,0.12 3.751,0.422 0.977,0.206 2.496,1.303 2.496,1.303 0.268,-0.2 0.536,-2.012 -1.337,-3.75 -1.873,-1.337 -4.215,1.015 -4.215,1.015 0,0 -0.565,0.556 -0.695,1.01"
                       id="path1469"
                       style="fill:#fabd00;fill-opacity:1" /><path
                       d="m 628.63,391.072 -1.37,2.213 3.602,2.434 0.44,-0.388 0.59,-0.201 -0.551,-4.158 c -0.904,0.036 -1.807,0.07 -2.711,0.1 z"
                       id="path1471"
                       style="fill:#fabd00;fill-opacity:1" /><path
                       d="m 631.308,395.936 c 0.745,-0.135 1.267,-0.67 1.149,-1.156 -0.13,-0.51 -0.833,-0.806 -1.58,-0.666 -0.75,0.153 -1.262,0.657 -1.137,1.18 0.113,0.485 0.822,0.782 1.568,0.642"
                       id="path1473"
                       style="fill:#fabd00;fill-opacity:1" /></g></g></g><path
                 d="m 585.72,387.846 c 0,0 0.277,0.425 0.217,0.642 -0.05,0.183 -0.433,0.37 -0.433,0.37 0.853,0.298 1.298,0.084 1.639,-0.127 -0.065,-0.534 -0.488,-0.686 -0.855,-0.85 -0.173,-0.078 -0.568,-0.035 -0.568,-0.035 z"
                 fill="#ffffff"
                 id="path1481" /><g
                 transform="matrix(0.84817,0.52972,-0.57498,0.81817,-4.336,-0.793)"
                 fill="#9f7e00"
                 fill-rule="evenodd"
                 stroke="#000000"
                 stroke-width="0.751"
                 id="g1487"><ellipse
                   cx="705.09998"
                   cy="3.237"
                   rx="0.958"
                   ry="0.713"
                   id="ellipse1483"
                   style="fill:#fabd00;fill-opacity:1" /><ellipse
                   cx="715.31201"
                   cy="3.039"
                   rx="0.958"
                   ry="0.713"
                   id="ellipse1485"
                   style="fill:#fabd00;fill-opacity:1" /></g><path
                 d="m 378.352,602.502 c 0,-48.059 34.623,-87.016 77.327,-87.016 42.718,0 77.341,38.957 77.341,87.016 0,48.059 -34.623,87.016 -77.34,87.016 -42.705,0 -77.328,-38.957 -77.328,-87.016"
                 fill="#ce1126"
                 id="path1489" /><path
                 d="m 378.352,602.502 c 0,-48.059 34.623,-87.016 77.327,-87.016 42.718,0 77.341,38.957 77.341,87.016 0,48.059 -34.623,87.016 -77.34,87.016 -42.705,0 -77.328,-38.957 -77.328,-87.016 z"
                 fill="#b50027"
                 stroke="#000000"
                 stroke-width="2.882"
                 id="path1491" /><path
                 d="m 401.292,602.334 c 0,-35.24 24.348,-63.803 54.42,-63.803 30.054,0 54.407,28.563 54.407,63.803 0,35.255 -24.353,63.837 -54.406,63.837 -30.073,0 -54.42,-28.582 -54.42,-63.837"
                 fill="#005bbf"
                 fill-opacity="0.941"
                 id="path1493" /><g
                 stroke="#000000"
                 id="g1505"><path
                   d="m 401.292,602.334 c 0,-35.24 24.348,-63.803 54.42,-63.803 30.054,0 54.407,28.563 54.407,63.803 0,35.255 -24.353,63.837 -54.406,63.837 -30.073,0 -54.42,-28.582 -54.42,-63.837 z"
                   fill="#0044ad"
                   stroke-width="2.882"
                   id="path1495" /><g
                   fill="#9f7e00"
                   id="g1503"><path
                     d="m 430.009,558.41 c 0,0 -6.462,7.08 -6.462,13.632 0,6.591 2.73,12.061 2.73,12.061 -0.977,-2.6 -3.616,-4.474 -6.72,-4.474 -3.923,0 -7.118,3.009 -7.118,6.74 0,1.083 0.66,2.769 1.16,3.698 l 2.317,4.68 c 0.767,-1.725 2.573,-2.687 4.676,-2.687 2.811,0 5.101,2.146 5.101,4.818 0,0.403 -0.053,0.81 -0.158,1.179 l -5.8,0.02 v 4.934 h 5.172 l -3.85,7.635 5.1,-1.993 3.852,4.34 3.995,-4.34 5.087,1.993 -3.837,-7.635 h 5.173 v -4.934 l -5.815,-0.02 c -0.105,-0.37 -0.124,-0.776 -0.124,-1.179 0,-2.672 2.246,-4.818 5.063,-4.818 2.103,0 3.909,0.962 4.69,2.687 l 2.299,-4.68 c 0.503,-0.93 1.164,-2.615 1.164,-3.698 0,-3.731 -3.176,-6.74 -7.119,-6.74 -3.104,0 -5.724,1.873 -6.706,4.474 0,0 2.712,-5.47 2.712,-12.061 0,-6.553 -6.596,-13.632 -6.596,-13.632"
                     id="path1497"
                     style="fill:#fabd00;fill-opacity:1" /><path
                     d="m 419.734,603.01 h 20.708 v -4.934 h -20.708 z m 60.844,-44.6 c 0,0 -6.457,7.08 -6.457,13.632 0,6.591 2.711,12.061 2.711,12.061 -0.963,-2.6 -3.602,-4.474 -6.706,-4.474 -3.942,0 -7.118,3.009 -7.118,6.74 0,1.083 0.661,2.769 1.16,3.698 l 2.298,4.68 c 0.79,-1.725 2.592,-2.687 4.695,-2.687 2.816,0 5.082,2.146 5.082,4.818 0,0.403 -0.035,0.81 -0.139,1.179 l -5.8,0.02 v 4.934 h 5.172 l -3.85,7.635 5.082,-1.993 3.87,4.34 3.98,-4.34 5.102,1.993 -3.856,-7.635 h 5.173 v -4.934 l -5.796,-0.02 c -0.11,-0.37 -0.143,-0.776 -0.143,-1.179 0,-2.672 2.265,-4.818 5.087,-4.818 2.103,0 3.904,0.962 4.67,2.687 l 2.319,-4.68 c 0.503,-0.93 1.154,-2.615 1.154,-3.698 0,-3.731 -3.185,-6.74 -7.113,-6.74 -3.1,0 -5.748,1.873 -6.72,4.474 0,0 2.725,-5.47 2.725,-12.061 0,-6.553 -6.596,-13.632 -6.596,-13.632 m -25.278,43.498 c 0,0 -6.457,7.08 -6.457,13.652 0,6.572 2.73,12.042 2.73,12.042 -0.981,-2.601 -3.606,-4.474 -6.725,-4.474 -3.923,0 -7.118,3.008 -7.118,6.74 0,1.096 0.661,2.768 1.16,3.697 l 2.318,4.68 c 0.785,-1.724 2.567,-2.701 4.67,-2.701 2.822,0 5.106,2.16 5.106,4.833 0,0.421 -0.052,0.824 -0.162,1.197 l -5.796,0.015 v 4.934 h 5.192 l -3.856,7.636 5.087,-2.008 3.851,4.34 3.995,-4.34 5.102,2.008 -3.87,-7.636 h 5.187 v -4.934 l -5.796,-0.015 a 4.408,4.408 0 0 1 -0.144,-1.197 c 0,-2.673 2.271,-4.833 5.088,-4.833 2.098,0 3.884,0.977 4.675,2.701 l 2.318,-4.68 c 0.494,-0.929 1.16,-2.6 1.16,-3.697 0,-3.732 -3.196,-6.74 -7.119,-6.74 -3.104,0 -5.724,1.873 -6.725,4.474 0,0 2.73,-5.47 2.73,-12.042 0,-6.572 -6.62,-13.652 -6.62,-13.652"
                     id="path1499"
                     style="fill:#fabd00;fill-opacity:1" /><path
                     d="m 445.012,646.523 h 20.707 v -4.934 h -20.707 z m 25.272,-43.513 h 20.708 v -4.934 h -20.708 z"
                     id="path1501"
                     style="fill:#fabd00;fill-opacity:1" /></g></g></g><g
               stroke="#000000"
               id="g1515"><path
                 d="m 455.88241,903.768 c -60.60169,0 -120.66684,-15.257 -171.16451,-40.63 -37.22302,-18.935 -61.90366,-57.112 -61.90366,-100.797 V 603.92 l -0.29798,-265.316 h 465.49756 l 0.0186,265.316 v 158.42 c 0,43.685 -24.68064,81.862 -61.90756,100.797 -50.49378,25.373 -109.62214,40.63 -170.24235,40.63 z"
                 fill="none"
                 stroke-width="3.97335"
                 id="path1509" /></g></g></g></g><g
         id="castle3"><g
           id="castle"
           fill="#ffff00"
           stroke="#000000"
           stroke-width="0.5"><path
             stroke="none"
             d="m 190.19,154.43 c 0.13493,-5.521 4.0524,-6.828 4.0806,-6.8474 0.0282,-0.0185 4.2314,1.4076 4.2173,6.8986 l -8.2978,-0.0512"
             id="path184"
             style="fill:#fabd00;fill-opacity:1" /><path
             d="m 186.81,147.69 -0.68172,6.3447 4.1406,0.009 c 0.0397,-5.2493 3.9739,-6.1225 4.0691,-6.1031 0.0891,-0.005 3.9889,1.1606 4.0929,6.1031 h 4.1511 l -0.74962,-6.3932 -15.022,0.0379 v 0.002 z"
             id="path186"
             style="fill:#fabd00;fill-opacity:1" /><path
             d="m 185.85,154.06 h 16.946 c 0.35717,0 0.64908,0.35277 0.64908,0.78404 0,0.43039 -0.29191,0.78141 -0.64908,0.78141 H 185.85 c -0.35717,0 -0.64908,-0.35102 -0.64908,-0.78141 0,-0.43127 0.29191,-0.78404 0.64908,-0.78404 z"
             id="path188"
             style="fill:#fabd00;fill-opacity:1" /><path
             d="m 192.01,154.03 c 0.0185,-3.3126 2.2621,-4.2501 2.2736,-4.2483 8.8e-4,0 2.3423,0.96661 2.3609,4.2483 h -4.6344"
             id="path190"
             style="fill:#fabd00;fill-opacity:1" /><path
             d="m 186.21,145.05 h 16.245 c 0.34218,0 0.62263,0.31839 0.62263,0.70468 0,0.38717 -0.28045,0.70467 -0.62263,0.70467 H 186.21 c -0.34218,0 -0.62263,-0.31573 -0.62263,-0.70467 0,-0.38629 0.28045,-0.70468 0.62263,-0.70468 z"
             id="path192"
             style="fill:#fabd00;fill-opacity:1" /><path
             d="m 186.55,146.47 h 15.538 c 0.32719,0 0.59529,0.31662 0.59529,0.70379 0,0.38805 -0.2681,0.70467 -0.59529,0.70467 H 186.55 c -0.32719,0 -0.59529,-0.31662 -0.59529,-0.70467 0,-0.38717 0.2681,-0.70379 0.59529,-0.70379 z"
             id="path194"
             style="fill:#fabd00;fill-opacity:1" /><path
             d="m 191.57,135.88 1.2267,0.002 v 0.87136 h 0.89513 v -0.89076 l 1.2567,0.004 v 0.88723 h 0.89778 v -0.89076 h 1.2576 l -0.002,2.0117 c 0,0.31574 -0.25398,0.52035 -0.54854,0.52035 h -4.4113 c -0.29633,0 -0.56972,-0.23724 -0.5706,-0.52652 l -0.003,-1.9879 h 8.8e-4 z"
             id="path196"
             style="fill:#fabd00;fill-opacity:1" /><path
             d="m 196.19,138.57 0.27691,6.4514 -4.3028,-0.0159 0.28486,-6.4523 3.741,0.0168"
             id="path198"
             style="fill:#fabd00;fill-opacity:1" /><path
             id="cp1"
             d="m 190.94,141.56 0.13141,3.4775 -4.1256,0.002 0.11641,-3.4793 h 3.8786 -8.9e-4 z"
             style="fill:#fabd00;fill-opacity:1" /><use
             xlink:href="#cp1"
             x="10.609"
             id="use201"
             style="fill:#fabd00;fill-opacity:1" /><path
             id="cp2"
             d="m 186.3,139.04 1.1994,0.003 v 0.87224 h 0.8775 v -0.89253 l 1.2294,0.004 v 0.889 h 0.87926 v -0.89253 l 1.2302,0.002 -0.002,2.0117 c 0,0.31398 -0.2487,0.51859 -0.5362,0.51859 h -4.3169 c -0.28926,0 -0.55824,-0.23548 -0.55913,-0.52564 l -0.003,-1.9888 h 8.8e-4 z"
             style="fill:#fabd00;fill-opacity:1" /><use
             xlink:href="#cp2"
             x="10.609"
             id="use204"
             style="fill:#fabd00;fill-opacity:1" /><path
             fill="#000000"
             stroke="none"
             d="m 193.9,140.61 c -0.0265,-0.62706 0.87661,-0.63411 0.86603,0 v 1.5364 h -0.866 v -1.536"
             id="path206" /><path
             id="cp3"
             fill="#000000"
             stroke="none"
             d="m 188.57,142.84 c -0.003,-0.6059 0.83693,-0.61824 0.82635,0 v 1.1871 h -0.826 v -1.187" /><use
             xlink:href="#cp3"
             x="10.641"
             id="use209"
             style="fill:#fabd00;fill-opacity:1" /></g><use
           xlink:href="#castle"
           y="46.319801"
           id="use212"
           style="fill:#fabd00;fill-opacity:1" /><use
           xlink:href="#castle"
           transform="rotate(-45.202042,312.76611,180.00356)"
           id="use214"
           style="fill:#fabd00;fill-opacity:1" /></g><use
         xlink:href="#castle"
         x="45.713799"
         id="use217"
         style="fill:#fabd00;fill-opacity:1" /><use
         xlink:href="#castle3"
         transform="matrix(-1,0,0,1,479.79195,0)"
         id="use219"
         style="fill:#fabd00;fill-opacity:1" /></g></g></svg>
