<?xml version="1.0" encoding="UTF-8" standalone="no"?>
<svg
   xmlns:dc="http://purl.org/dc/elements/1.1/"
   xmlns:cc="http://creativecommons.org/ns#"
   xmlns:rdf="http://www.w3.org/1999/02/22-rdf-syntax-ns#"
   xmlns:svg="http://www.w3.org/2000/svg"
   xmlns="http://www.w3.org/2000/svg"
   xmlns:xlink="http://www.w3.org/1999/xlink"
   xmlns:sodipodi="http://sodipodi.sourceforge.net/DTD/sodipodi-0.dtd"
   xmlns:inkscape="http://www.inkscape.org/namespaces/inkscape"
   height="682"
   viewBox="0 0 102300 68200"
   width="1023"
   version="1.1"
   id="svg849"
   sodipodi:docname="los-angeles-flag.svg"
   inkscape:version="0.92.5 (2060ec1f9f, 2020-04-08)"
   style="fill-rule:evenodd;image-rendering:optimizeQuality;shape-rendering:geometricPrecision;text-rendering:geometricPrecision">
  <metadata
     id="metadata855">
    <rdf:RDF>
      <cc:Work
         rdf:about="">
        <dc:format>image/svg+xml</dc:format>
        <dc:type
           rdf:resource="http://purl.org/dc/dcmitype/StillImage" />
      </cc:Work>
    </rdf:RDF>
  </metadata>
  <defs
     id="defs853" />
  <sodipodi:namedview
     pagecolor="#ffffff"
     bordercolor="#666666"
     borderopacity="1"
     objecttolerance="10"
     gridtolerance="10"
     guidetolerance="10"
     inkscape:pageopacity="0"
     inkscape:pageshadow="2"
     inkscape:window-width="1884"
     inkscape:window-height="1037"
     id="namedview851"
     showgrid="false"
     inkscape:zoom="0.48937595"
     inkscape:cx="337.16283"
     inkscape:cy="282.09975"
     inkscape:window-x="1956"
     inkscape:window-y="27"
     inkscape:window-maximized="0"
     inkscape:current-layer="svg849" />
  <linearGradient
     id="a">
    <stop
       offset="0"
       stop-color="#009544"
       id="stop2" />
    <stop
       offset="1"
       stop-color="#7abb30"
       id="stop4" />
  </linearGradient>
  <linearGradient
     id="b"
     gradientUnits="userSpaceOnUse"
     x1="43364"
     x2="43364"
     xlink:href="#a"
     y1="34490"
     y2="33559" />
  <linearGradient
     id="c">
    <stop
       offset="0"
       stop-color="#322073"
       id="stop8" />
    <stop
       offset="1"
       stop-color="#9d487c"
       id="stop10" />
  </linearGradient>
  <linearGradient
     id="d"
     gradientUnits="userSpaceOnUse"
     x1="51155"
     x2="51145"
     xlink:href="#c"
     y1="27065"
     y2="26673" />
  <linearGradient
     id="e"
     gradientUnits="userSpaceOnUse"
     x1="51688"
     x2="51672"
     xlink:href="#c"
     y1="27110"
     y2="26628" />
  <linearGradient
     id="f"
     gradientUnits="userSpaceOnUse"
     x1="50768"
     x2="50751"
     xlink:href="#c"
     y1="26708"
     y2="26287" />
  <linearGradient
     id="g"
     gradientUnits="userSpaceOnUse"
     x1="50583"
     x2="50570"
     xlink:href="#c"
     y1="26302"
     y2="25864" />
  <linearGradient
     id="h"
     gradientUnits="userSpaceOnUse"
     x1="51539"
     x2="51526"
     xlink:href="#c"
     y1="26427"
     y2="26038" />
  <linearGradient
     id="i"
     gradientUnits="userSpaceOnUse"
     x1="50901"
     x2="50888"
     xlink:href="#c"
     y1="26067"
     y2="25716" />
  <linearGradient
     id="j"
     gradientUnits="userSpaceOnUse"
     x1="51223"
     x2="51206"
     xlink:href="#c"
     y1="26666"
     y2="26183" />
  <linearGradient
     id="k"
     gradientUnits="userSpaceOnUse"
     x1="50944"
     x2="50931"
     xlink:href="#c"
     y1="26388"
     y2="25993" />
  <linearGradient
     id="l"
     gradientUnits="userSpaceOnUse"
     x1="51773"
     x2="51760"
     xlink:href="#c"
     y1="26662"
     y2="26224" />
  <linearGradient
     id="m"
     gradientUnits="userSpaceOnUse"
     x1="51453"
     x2="51439"
     xlink:href="#c"
     y1="26875"
     y2="26437" />
  <linearGradient
     id="n"
     gradientUnits="userSpaceOnUse"
     x1="51155"
     x2="51145"
     xlink:href="#c"
     y1="25770"
     y2="25378" />
  <linearGradient
     id="o"
     gradientUnits="userSpaceOnUse"
     x1="51243"
     x2="51229"
     xlink:href="#c"
     y1="26261"
     y2="25823" />
  <linearGradient
     id="p"
     gradientUnits="userSpaceOnUse"
     x1="51540"
     x2="51524"
     xlink:href="#c"
     y1="26028"
     y2="25588" />
  <linearGradient
     id="q"
     gradientUnits="userSpaceOnUse"
     x1="43467"
     x2="43467"
     xlink:href="#a"
     y1="35739"
     y2="34657" />
  <linearGradient
     id="r"
     gradientUnits="userSpaceOnUse"
     x1="51901"
     x2="51885"
     xlink:href="#c"
     y1="26199"
     y2="25714" />
  <linearGradient
     id="s">
    <stop
       offset="0"
       stop-color="#e07124"
       id="stop28" />
    <stop
       offset="1"
       stop-color="#d52c27"
       id="stop30" />
  </linearGradient>
  <linearGradient
     id="t"
     gradientUnits="userSpaceOnUse"
     x1="58941"
     x2="59065"
     xlink:href="#s"
     y1="32747"
     y2="34022" />
  <linearGradient
     id="u"
     gradientUnits="userSpaceOnUse"
     x1="59006"
     x2="59135"
     xlink:href="#s"
     y1="33772"
     y2="35101" />
  <linearGradient
     id="v"
     gradientUnits="userSpaceOnUse"
     x1="43135"
     x2="43135"
     xlink:href="#a"
     y1="36194"
     y2="35468" />
  <linearGradient
     id="w"
     gradientUnits="userSpaceOnUse"
     x1="43178"
     x2="43178"
     xlink:href="#a"
     y1="35301"
     y2="34337" />
  <path
     style="fill:#ffd100;fill-opacity:1;fill-rule:evenodd;image-rendering:optimizeQuality;shape-rendering:geometricPrecision;text-rendering:geometricPrecision"
     inkscape:connector-curvature="0"
     d="M 0,0 H 102300 V 68200 H 0 Z"
     id="path1919" />
  <path
     style="fill:#18a455;fill-opacity:1;fill-rule:evenodd;image-rendering:optimizeQuality;shape-rendering:geometricPrecision;text-rendering:geometricPrecision"
     inkscape:connector-curvature="0"
     d="m 0,0 h 29249 l 7009,7578 -7009,7578 7009,7578 -7009,7577 7009,7578 -7009,7578 7009,7578 -7009,7577 7009,7578 H 0 Z"
     id="path1921" />
  <path
     style="fill:#a21933;fill-opacity:1;fill-rule:evenodd;image-rendering:optimizeQuality;shape-rendering:geometricPrecision;text-rendering:geometricPrecision"
     inkscape:connector-curvature="0"
     d="m 66218,0 7008,7578 -7008,7578 7008,7578 -7008,7577 7008,7578 -7008,7578 7008,7578 -7008,7577 7008,7578 h 29074 V 0 Z"
     id="path1923" />
  <g
     style="fill:#003b5c;fill-opacity:1;fill-rule:evenodd;image-rendering:optimizeQuality;shape-rendering:geometricPrecision;text-rendering:geometricPrecision"
     transform="matrix(100,0,0,100,21427.631,4032.4614)"
     id="g1676">
    <path
       sodipodi:nodetypes="cccccccccccccccccccccccccccccccccccccccccccccccccccccccccccccccccccccccccccccccccccccccccccccccccccccccccccccccccccccccccccccccccccccccccccccccccccccccccccccccccccccccccccccccccccccccccccccccccccccccccccccccccccccccccccccccccccccccccccccccccccccccccccccccccccccccccccccccccccccccccccccccccccccccccccccccccccccccccccccccccccccccccccccccccccccccccccccccccccccccccccccccccccccccccccccccccccccccccccccccccccccccccccccccccccccccccccccccccccccccccccccccccccccccccccccccccccccccccccccccccccccccccccccccccccccccccccccccccccccccccccccccccccccccccccccccccccccccccccccc"
       inkscape:connector-curvature="0"
       style="opacity:1;fill:#2774ae;fill-opacity:1;fill-rule:evenodd;stroke:none;stroke-width:0.75740093;stroke-linecap:butt;stroke-linejoin:miter;stroke-miterlimit:4;stroke-dasharray:none;stroke-dashoffset:0"
       d="m 318.54706,14.918021 c -2.0413,0.948823 -3.54881,3.70988 -4.41005,5.888886 -2.04387,6.08325 -4.14572,12.153804 -6.19986,18.226266 -1.072,2.730892 -2.10652,5.509485 -3.18629,8.218943 -1.9817,-0.267309 0.78198,-3.652914 0.62947,-5.101549 0.65497,-2.97364 2.11054,-5.8804 2.23537,-8.915109 -0.49818,-2.27243 0.0506,-5.221552 -1.07777,-7.070795 -1.68372,3.88528 -3.81688,7.607035 -5.26591,11.580224 -1.08968,4.767551 -2.55256,9.450258 -3.16374,14.314983 -0.36517,2.518275 -0.80779,5.001414 -1.62561,7.415819 -2.0164,-0.188139 -1.48385,-3.741682 -2.66985,-5.206662 -1.07629,-3.422483 -3.24345,-6.383776 -4.80976,-9.596436 -0.80038,-0.79568 -2.63968,-6.389844 -2.60647,-3.272351 -0.17999,2.252472 -0.33495,4.50702 -0.54105,6.757326 -4.48123,-8.374809 -8.97604,-16.742355 -13.4626,-25.114323 0.36507,2.719622 -0.0114,5.65115 0.97693,8.220534 2.1761,4.691015 4.16437,9.466769 6.24284,14.201267 -1.09371,1.035049 -1.31402,-0.675624 -1.86055,-1.370918 -4.14534,-7.318773 -8.29068,-14.637553 -12.43603,-21.956333 -1.67422,1.176228 -0.50841,3.344489 -0.72415,5.040396 0.68372,2.3778 2.2595,4.507021 3.33253,6.75916 1.96186,3.6706 3.97835,7.323506 5.9934,10.955827 -1.44428,1.592042 -2.23035,-2.915978 -3.26439,-3.931555 -3.74865,-6.502817 -7.45834,-13.029371 -11.31813,-19.467174 -1.69122,0.584438 -2.21439,1.823285 -1.93003,3.462348 -0.2797,1.641937 0.40045,3.03866 1.35052,4.358333 2.90038,5.019909 5.82803,10.024042 8.75239,15.030015 -0.99099,1.150492 -1.29387,-0.529892 -1.87125,-1.202563 -4.70569,-7.446379 -9.41139,-14.892759 -14.11709,-22.339134 -1.14515,-0.515135 -2.76428,-1.8894 -2.398,0.392478 -0.54426,2.856468 2.56006,4.853472 3.57519,7.32413 4.18563,6.475573 8.49859,12.986533 12.66667,19.399234 -0.87262,1.176009 -1.2727,-0.325811 -1.83548,-0.971541 -2.64461,-3.750672 -5.28923,-7.501352 -7.93385,-11.252031 -0.98735,-0.256918 -2.25608,-0.898369 -1.88318,0.703693 -0.0655,1.017175 -0.33665,2.08995 0.52678,2.855985 4.23049,6.349262 8.54026,12.666319 12.72165,19.035492 1.3566,2.774807 2.5928,5.633223 4.02361,8.356496 2.4158,2.486153 4.83159,4.972314 7.24739,7.458468 -1.73412,1.396258 -3.49112,-3.035792 -5.21825,-3.836244 -1.82929,-2.058911 -4.28955,-3.704402 -5.32253,-6.340604 -1.25473,-1.961555 -1.9748,-4.303757 -3.91063,-5.738411 -2.14406,-1.608818 -3.79167,-4.539277 -6.27863,-5.267503 -0.80368,1.772666 -0.1481,5.76039 2.25972,7.130217 0.23998,0.660954 3.61621,2.934778 1.7628,2.468408 -3.63526,-0.399241 -7.04959,-1.671167 -10.45598,-2.926885 -2.05836,1.974559 4.91427,3.555157 1.00076,4.360456 -2.83067,0.03863 -5.01395,-2.528008 -7.60102,-3.478834 -6.44869,-3.526262 -13.05566,-6.774179 -19.64947,-10.007758 -1.36889,-0.412958 -2.73778,-0.825923 -4.10667,-1.238881 -0.38086,2.388025 3.35038,3.061748 4.59018,4.75048 5.00214,2.70105 10.12693,5.260505 15.1391,7.97347 -0.16051,1.506606 -1.52023,0.367422 -2.42949,0.222047 -9.38046,-3.020704 -18.76091,-6.041401 -28.14136,-9.062098 -1.57562,-0.376693 -1.30097,0.450207 -0.66341,1.513181 0.15707,1.229179 1.37835,1.290415 2.33162,1.645772 7.36348,2.470877 14.72031,4.962673 22.08793,7.420514 0.29009,1.160725 0.53334,2.333212 0.78631,3.502662 -1.67372,-1.378803 -3.32354,-2.955447 -5.61624,-3.104526 -4.79586,-1.18784 -9.73772,-0.180815 -14.59989,-0.125327 -2.59458,-0.621842 -2.9309,1.472402 -0.34711,1.919337 2.07642,1.613536 4.75314,0.707541 7.16691,0.835716 3.92568,-0.11739 7.85111,-0.243095 11.77605,-0.382995 0.69503,2.236567 -3.83268,0.739731 -4.00441,2.556031 -0.45266,2.156699 3.61722,2.157131 5.08614,1.716104 2.24512,0.03764 3.80112,-3.290119 5.70915,-2.723341 -0.49863,2.134462 -4.24635,2.611314 -4.67156,4.819683 -0.28216,2.212297 4.23257,1.561049 5.53118,0.616009 1.50678,-1.251847 4.10085,-3.142055 4.23949,0.211459 0.43849,3.030313 4.44541,1.857031 6.62408,2.883142 3.88325,0.592189 7.85932,0.838042 11.7072,1.474077 3.68114,1.670629 7.37479,3.328595 11.04819,5.007048 -0.75549,2.08458 -3.9933,-1.075918 -5.67098,-0.953113 -2.78002,-0.775912 -5.34087,-2.353926 -8.29349,-2.383003 -2.55306,-0.468672 -5.11686,-0.414238 -7.6793,-0.116003 -7.76211,0.648562 -15.53977,1.174554 -23.29217,1.899599 -7.21529,1.218446 -14.44846,2.385464 -21.66228,3.577863 -1.83253,0.569066 -5.817,1.642939 -2.00153,2.382769 8.19136,-0.38454 16.36592,-1.073859 24.54246,-1.691769 0.59107,1.430034 -1.16575,0.941942 -2.04552,1.170359 l -20.4001,2.070204 c -2.09326,1.547983 -4.88726,2.399923 -6.02839,4.932313 0.32793,3.60498 4.84088,0.30823 7.07681,0.54804 5.88386,-0.989246 11.74487,-1.925788 17.41799,-3.740937 1.69017,0.135037 5.91553,-2.883228 6.17136,-0.714827 -6.41469,1.978831 -12.84541,3.984804 -19.31438,5.777794 -1.37734,0.32181 -2.75467,0.64362 -4.13201,0.96542 -0.40212,3.3111 4.60587,1.37993 6.64791,1.90621 4.48921,-1.04978 8.76734,-2.86118 13.20442,-4.11955 2.36592,-0.19456 5.95,-2.96797 7.66432,-1.829058 -1.52312,1.555288 -5.06097,2.375758 -7.27285,3.662688 -4.56492,1.99695 -9.19438,3.830995 -13.64355,6.098345 -2.93045,2.96899 3.11372,2.69645 4.59782,1.15915 4.75331,-2.18031 9.44771,-4.482225 14.1307,-6.830125 1.14795,0.94944 -0.53983,1.40342 -1.13776,2.05503 -2.65296,2.076585 -5.24081,4.224865 -8.19914,5.858085 -1.14573,0.92032 -3.0197,1.24173 -3.24409,2.92845 2.59873,1.47771 5.08151,-0.31436 7.4104,-1.47732 6.08795,-3.9415 12.24608,-7.796835 18.44258,-11.556385 2.67921,-1.19986 5.42772,-2.238817 8.14905,-3.335874 1.05158,1.049583 -0.6669,1.368343 -1.31855,1.984284 -2.99025,2.00105 -5.99175,3.98838 -8.97499,5.99797 -3.26138,3.373285 -6.21418,7.083025 -10.06553,9.821045 -1.79608,1.50234 -3.62926,2.85506 -5.04875,4.51164 -2.81615,2.83267 -5.73233,5.5646 -8.52273,8.4227 -0.87051,2.88715 -2.72562,5.60116 -2.52056,8.69855 0.0357,3.33493 -0.34336,6.7064 -0.0292,10.01872 0.34224,1.37628 1.13642,4.51446 1.40534,1.37734 0.15123,-1.43438 1.14127,-6.38042 2.2037,-2.90984 0.584,1.29832 1.15833,5.21226 1.85028,4.53334 1.01363,-2.00878 1.20133,-4.8267 2.83283,-6.34929 1.45333,0.84815 2.60184,2.94096 3.98665,0.53322 1.75732,-2.04605 1.49691,-5.12134 2.37127,-7.61247 0.75346,-3.23238 1.50932,-6.46418 2.26769,-9.6954 1.37704,-0.39861 1.051,1.26904 1.3941,2.12485 0.44075,1.99218 0.8815,3.98436 1.32225,5.97654 3.00616,-1.30279 1.77883,-5.36626 2.74804,-7.93711 0.19253,-1.92647 0.80518,-6.99948 2.87421,-3.12726 1.21555,2.91489 4.5831,-0.44544 4.48066,-2.56503 0.68747,-3.35878 1.34572,-6.72362 2.04917,-10.07909 0.90202,1.60753 1.8427,3.19289 2.76401,4.78935 3.13881,-0.14553 4.21864,-3.29358 6.25487,-5.15969 1.82964,-1.89952 3.4615,-4.10053 5.49215,-5.753355 2.31393,-1.19258 4.48209,-2.78591 6.86236,-3.81242 2.32224,2.14669 -1.1826,5.04479 -2.5019,6.886175 -2.94441,3.63788 -6.5787,6.63456 -9.66135,10.15681 -1.21678,1.4045 -3.12039,2.58344 -2.60988,4.67386 1.54674,0.6896 3.15989,1.31629 4.71787,2.01547 -2.35298,1.17956 -4.882,2.19386 -7.05298,3.6218 -2.10224,1.81849 -4.3717,3.43254 -6.57642,5.12294 -0.59525,1.59986 -0.97982,3.40642 1.38684,2.74119 1.68977,-0.29097 6.23978,0.43142 2.66385,2.09582 -3.36092,2.19672 -7.25236,3.56785 -10.57947,5.74245 -0.92134,1.2301 -3.39449,3.16067 -0.38124,3.07377 2.01253,-0.28947 5.02519,-3.35626 6.52038,-1.80366 -2.11538,2.33747 -4.85703,4.5929 -7.17212,6.92818 -1.17892,0.91232 -3.7939,3.44922 -2.24602,4.16223 3.66794,-1.7536 6.24499,-5.04949 9.3697,-7.56075 1.0981,-1.74429 4.04054,-3.2939 3.10886,0.10664 -3.62782,4.51662 -7.13468,9.16164 -10.86749,13.56001 0.37592,4.41709 3.21616,-1.26764 4.61526,-2.45288 2.18185,-2.57555 4.21022,-5.33524 7.06216,-7.21847 0.99004,-0.21507 3.60104,-3.93507 3.73905,-2.41433 -0.0666,1.26469 0.324,2.67646 -0.75077,3.66073 -2.25575,3.04067 -3.76344,6.51889 -5.6112,9.80695 -0.30514,1.41939 -0.62123,5.49789 1.42966,3.57415 2.4417,-4.55364 5.42088,-8.81232 7.34327,-13.63412 1.97047,-4.13564 3.30002,-8.57468 4.95178,-12.81455 1.39005,-2.07447 2.06947,-1.37133 1.87583,0.79716 0.22433,2.01693 0.13907,6.3321 1.53152,6.63706 2.53113,-5.78281 5.70823,-11.25169 8.40672,-16.94846 0.93399,-2.7795 2.04372,-5.50945 3.19734,-8.21352 1.4538,-0.15237 0.78598,1.42585 0.92928,2.34246 -0.0978,1.83881 0.19466,3.7415 -0.14308,5.54105 -1.56815,4.50272 -2.7439,9.1467 -4.9306,13.4092 -1.32582,2.741 -3.19931,5.21129 -4.4812,7.96762 -1.28475,1.67328 -0.80794,1.68575 0.63962,0.70214 2.56013,-1.17218 4.27919,-3.37007 6.05433,-5.46131 2.79212,-2.23915 0.7191,2.85246 0.0756,3.93247 -1.5186,4.3051 -2.50129,8.82216 -4.21996,13.0741 -0.0214,1.28846 -0.46822,4.25053 1.17339,1.9829 3.08143,-2.40908 4.20312,-6.26832 6.04638,-9.56008 1.11767,1.63309 3.22048,2.57669 4.23908,0.56311 -0.17107,-2.54309 -1.34392,-5.17882 -0.19891,-7.64191 1.13067,-4.074 2.05935,-8.22494 2.69709,-12.40074 0.30687,-2.53902 0.47797,-5.10633 0.79227,-7.63631 1.41288,-0.7276 0.81569,1.51493 0.92927,2.36628 v 5.8066 c 1.38381,0.15207 3.92361,-2.30038 4.64639,-0.691 -1.39685,1.19667 -3.52996,1.93759 -4.79484,3.23919 -0.0538,1.62074 -0.10753,3.24148 -0.1613,4.86221 1.72353,-1.04842 3.44706,-2.09684 5.17059,-3.14525 1.22218,0.85966 -0.39771,1.45455 -0.95192,2.16521 -1.41417,1.3195 -2.82833,2.63899 -4.2425,3.95849 -5.08316,35.89397 -4.94281,388.89484 -5.41894,414.43789 -0.46396,3.20144 -3.37869,6.4711 -1.10982,9.50555 0.87311,2.46351 3.67135,3.51301 5.76629,4.76553 2.4742,-0.39033 4.84939,-1.61344 7.426,-1.70975 3.79772,-0.58856 7.66042,-0.8003 11.44547,-1.41167 1.59951,-1.16646 3.58173,-2.26635 1.17065,-3.76229 -1.91947,-2.35606 -1.46328,-5.71426 -2.57647,-8.3898 -7.54763,-19.25156 -2.94632,-400.99949 -3.47883,-415.4846 -1.07911,0.95825 -5.5983,4.60992 -3.94616,0.98516 1.10773,-1.26946 2.23653,-3.49018 3.46679,-3.92189 0.80508,-0.41318 0.0701,-1.9115 0.25788,-2.75964 0.18577,-2.10031 -1.09506,-3.88917 -1.72153,-5.81699 -0.0436,-0.7877 -1.52015,-2.16446 -0.26466,-2.39773 1.36687,1.16085 2.01363,4.31318 3.12151,6.17864 1.68428,3.8988 3.60789,7.712 5.09073,11.68783 0.81955,3.30832 1.69223,6.60584 1.8109,10.03143 0.8412,-0.3066 2.41089,0.20091 2.35276,-1.11076 0.19637,-1.29051 1.12854,-2.62098 0.30974,-3.85637 -3.6902,-10.0425 -7.88656,-19.88463 -11.78848,-29.84504 0.92569,-0.96108 1.23193,0.3495 1.59505,1.12987 2.26977,4.52478 3.75229,9.39146 5.64339,14.08419 1.91923,5.08831 3.93769,10.14779 6.248,15.07086 3.55515,-2.06832 0.6152,-5.77223 0.11317,-8.7814 -1.66144,-5.50364 -3.90767,-10.81333 -5.83299,-16.22945 -0.57147,-0.96253 -1.82055,-1.41415 -2.65185,-2.18079 -1.22403,-0.90268 -2.47888,-1.8174 -3.68511,-2.71203 1.00297,-1.89364 3.22889,1.43539 4.76748,1.59989 2.64618,2.7883 3.29798,-1.49729 5.64584,-1.9898 0.65819,2.41615 -3.80495,4.37144 -1.42846,7.16167 1.71266,5.8426 3.24927,11.74427 5.5176,17.40367 0.37567,1.02003 0.755,2.03871 1.12846,3.05955 -0.76733,1.10299 0.32539,5.82324 1.88971,4.60616 0.53627,-2.548 2.16583,-5.06999 0.78168,-7.64548 -2.03143,-7.76426 -4.82038,-15.30634 -7.16786,-22.97884 0.0309,-2.79645 1.77777,1.1919 1.97267,2.39396 2.6988,7.32932 5.61855,14.59129 8.00416,22.02775 -0.50706,2.18439 -0.49102,6.80418 2.35893,4.19366 0.12778,-2.9164 0.35544,-5.90302 -0.85779,-8.64943 -2.46744,-6.56657 -4.42875,-13.32542 -6.62408,-19.99138 -1.25395,1.36403 -3.61234,0.0576 -3.9786,-1.44871 0.421,-3.31223 -2.31368,-3.21955 -4.78363,-3.00706 -1.08042,-0.10521 1.88561,-1.65317 2.23346,-2.21597 1.33421,-0.73352 4.17798,-2.97799 1.43576,-3.58007 -0.87604,-0.4024 -1.74752,-0.81478 -2.62715,-1.20928 1.30855,-2.25214 2.66433,-4.46279 4.39803,-6.42289 1.06808,-1.94714 0.2566,-5.440505 -1.81534,-6.627775 -1.50297,-0.82582 -1.33376,-2.72977 -1.92819,-4.140623 -0.78433,-0.830869 0.002,-2.431659 0.62798,-1.227224 l 1.17177,4.026627 c 2.26311,1.21431 3.31354,3.20718 3.26115,5.719535 1.0323,2.34502 -1.68808,3.76743 -2.6915,5.54249 -0.59791,0.86944 -1.10251,1.80632 -1.66572,2.70096 1.25992,0.59371 2.54649,1.13359 3.7886,1.76325 0.26069,2.36777 -3.82585,3.93332 -3.52649,4.74169 3.96642,-1.06447 1.55866,4.46351 4.55252,4.91658 1.01743,-0.01 1.90209,-1.02182 2.8651,-1.44247 1.71803,0.32473 -0.72089,1.12513 -0.31659,1.89286 3.20129,8.70481 6.48885,17.41684 9.53065,26.15699 -0.29006,3.1623 2.72257,3.57507 4.59874,4.88466 0.25997,1.68584 1.06645,4.88745 2.84514,4.19992 0.0764,-4.50996 0.35907,-9.04612 0.37158,-13.54035 0.25748,-1.53965 -2.35838,-5.27072 -0.21445,-5.45653 1.20384,3.52654 2.79729,6.96465 3.62382,10.59442 0.5823,2.35778 -0.57814,6.18804 2.8035,6.53876 1.49227,0.60678 0.33731,-4.81231 1.93618,-3.33698 l 2.64487,2.09683 c 3.57868,0.0859 0.91786,-3.83813 0.97693,-5.83776 -1.12574,-2.79821 -2.19381,-5.63055 -3.31204,-8.43499 1.66611,-0.68937 -0.89508,0.24395 -0.41257,-1.54301 -0.38469,-2.76691 -2.17755,-4.84788 -3.78269,-7.01104 -0.68069,-1.46598 -0.63506,-3.20249 -1.90653,-1.12036 -1.51279,1.25278 -0.84639,3.31922 0.21515,4.64009 1.7256,2.67148 1.55497,6.2017 3.71034,8.61694 0.94799,1.55601 2.21999,3.12531 1.89037,5.05539 0.0844,0.88869 0.15481,2.65507 -0.9531,1.79976 -0.14802,-1.50769 0.40496,-3.13845 -0.52815,-4.33647 -1.14257,-2.24667 -2.78239,-3.64868 -3.23662,-6.17278 -0.49537,-2.53785 -1.91073,-4.70718 -2.97846,-7.00532 0.2392,-0.55783 -3.5604,0.30608 -3.26565,-0.88163 1.05095,-0.14748 0.86466,-0.61052 2.64614,-0.21445 1.34856,-1.14035 1.33548,-3.28844 0.4289,-4.71786 -1.78954,-4.01012 -4.54583,-7.52543 -6.5526,-11.41344 -0.5061,-2.5375 0.50202,-5.66155 -1.93135,-7.4297 -2.51448,-2.4485 -3.78679,-5.75112 -5.19312,-8.892225 -1.61555,-2.25154 -4.24583,-3.57803 -6.1237,-5.623319 -1.02243,0.323743 -4.87704,0.443912 -2.96299,-0.710548 2.63764,-1.054992 4.45244,0.450229 6.13207,2.235517 1.91402,1.48806 3.94671,3.02706 4.58806,5.47099 1.1937,2.853445 2.74755,5.493035 4.9589,7.682455 1.94836,1.8294 0.94211,4.75375 1.4614,7.10004 2.39815,4.35009 5.60605,8.32128 7.21978,13.05754 -0.3487,2.07145 0.57229,-0.66289 1.5561,-0.42143 -0.0933,-2.34574 0.72359,-5.51735 -0.79362,-7.7038 -1.5841,-2.94501 -3.4286,-5.78427 -4.86084,-8.79239 -0.99676,-2.14707 -2.21666,-4.8323 -3.32777,-7.17553 -1.16639,-2.70792 -2.86114,-5.138575 -4.46386,-7.597595 1.59758,-1.6711 2.42978,3.14262 3.66945,3.979205 2.79043,4.9358 4.54646,10.38848 7.59684,15.18525 0.89,2.10575 2.77662,3.95278 3.17546,6.1951 0.30669,1.34069 -0.53202,5.68299 0.55607,5.3229 0.54334,-1.04656 1.09614,-2.08829 1.63386,-3.13772 0.86946,-0.41224 2.59014,-0.14942 2.79915,-1.10115 0.30123,-2.92641 -2.64577,-5.0568 -2.94211,-7.92952 -0.83281,-3.9185 -2.40331,-7.62426 -4.35187,-11.11056 -2.09111,-4.590555 -5.16052,-8.667935 -6.8154,-13.459938 -0.43804,-2.795317 1.82885,0.773382 1.87632,2.078217 1.60928,3.661866 3.95925,6.951556 5.62149,10.602291 1.5837,2.9698 3.09797,5.96474 3.96841,9.23512 0.59596,3.07526 1.86482,5.91818 3.46581,8.61177 0.27506,1.229 -0.0362,2.18671 1.0115,2.29838 0.48416,1.12933 -1.86783,0.55781 -0.93804,2.28785 0.26777,1.08322 -0.28111,5.17473 -1.09276,2.84629 0.0713,-1.92021 0.97624,-5.04277 -1.76676,-3.57234 -0.73067,0.63291 -1.00996,1.84027 -1.57124,2.68875 -0.46219,1.15365 -2.18928,1.07226 -1.01332,2.70937 1.53812,2.29095 3.58528,4.32978 3.98761,7.18202 0.32623,2.54351 2.43883,4.26626 3.71709,6.46403 1.38603,1.42399 3.01113,5.78432 4.40134,5.00157 0.62128,-2.70758 -1.75672,-4.51431 -2.62635,-6.86668 -1.86007,-3.97904 -3.54793,-8.03845 -5.32427,-12.05622 1.44374,1.04138 3.2834,1.64806 4.10652,3.35679 3.30492,4.40213 6.55429,8.84908 9.95178,13.17958 3.55905,1.70922 1.3734,-2.72711 0.28593,-4.12217 -2.7143,-5.47778 -6.43039,-10.37795 -9.63727,-15.57339 -0.69659,-0.71048 -2.92416,-4.16699 -0.84403,-3.1029 3.66056,4.51778 7.32112,9.03557 10.98168,13.55335 1.23698,0.84497 3.47043,1.54884 2.72728,-0.55556 -3.13929,-5.73254 -7.13602,-10.93737 -10.63133,-16.45779 -3.65433,-5.19836 -6.75869,-10.75517 -10.03816,-16.20237 1.72571,-1.3965 3.99028,2.10969 5.91361,2.56824 3.0764,1.6803 5.81841,3.82669 8.33709,6.25256 4.24479,3.691 8.32516,7.59701 12.736,11.08205 2.19835,1.20402 3.91243,3.30733 6.27668,4.09157 0.0392,-0.79409 -2.41751,-3.77642 -1.38536,-3.75716 2.47766,0.69799 4.82009,1.72688 7.10877,2.87116 1.53353,0.75484 6.33131,2.55962 3.92677,-0.56748 -0.76473,-1.56442 -4.40928,-2.41151 -3.81437,-4.10891 0.67664,-0.36389 1.77488,0.77895 2.61381,0.99473 1.92531,1.15745 4.08973,1.6825 6.29968,1.99428 3.23037,-0.14462 1.20059,-3.50878 -0.98126,-3.5308 -5.00751,-2.66741 -9.97583,-5.4135 -14.95943,-8.12091 1.03332,-2.09266 4.41351,1.2298 6.36198,1.1199 1.13862,-0.35818 5.3211,0.5017 3.85725,-1.4726 -0.61927,-0.75866 -1.90001,-0.784 -2.78696,-1.24591 -6.82829,-2.47325 -13.66972,-4.91585 -20.48981,-7.40824 -2.90992,-1.95999 -5.86804,-3.86011 -8.79239,-5.790105 0.44708,-1.79187 3.37897,0.51683 4.837,0.33359 2.5546,0.66746 5.12237,1.218675 7.77628,1.186615 1.7045,0.047 5.27869,0.48035 5.8989,0.19672 -1.12885,-0.609305 -6.10901,-2.050655 -3.266,-2.827415 1.42626,-0.0879 5.9083,-0.17788 2.08732,-0.32012 -2.71049,-0.28152 -5.54257,-0.18474 -8.15987,-0.90449 0.33469,-0.96836 1.68919,-0.60355 3.45743,-0.41556 1.93051,0.6618 5.84126,-0.47222 6.59597,1.14728 1.91612,0.61341 5.28178,-0.17449 7.74802,-0.0253 3.41259,-0.30002 7.16682,0.17087 10.36374,-0.67187 1.11483,-1.73633 4.44842,-2.29946 4.3873,-4.552722 -0.22236,-2.091048 -0.24661,-4.246414 -0.59027,-6.298077 -0.70994,-0.775321 -0.8603,-2.351442 -2.0629,-2.421706 -3.22254,-0.528795 -6.30427,-1.414613 -9.35987,-2.512147 -6.35947,-0.155086 -12.74457,-0.09786 -19.08593,-0.47655 -2.0552,-0.133764 -4.50146,1.727223 -6.86236,1.59645 -3.64734,0.366575 -7.37293,0.06536 -10.91051,1.193043 -1.36391,1.057475 -3.26044,-0.468142 -1.07479,-0.740314 2.7324,-0.723204 5.49693,-1.217931 8.33284,-1.174903 2.88326,-0.09215 5.78232,-0.307361 8.4553,-1.487884 1.63906,-1.111849 2.00169,0.776965 2.32276,-1.284825 1.49963,-0.568573 6.30022,-0.166135 5.16946,-1.747195 -5.92319,0.201022 -11.84999,0.272642 -17.77541,0.381246 -2.13112,-0.210808 -4.8489,1.106153 -6.95767,2.120654 -2.47142,0.999383 -0.43242,-1.50613 1.09607,-1.572622 2.6234,-1.555679 5.8872,-1.169965 8.43498,-2.859314 3.98207,-1.855572 7.72374,-4.203833 11.60406,-6.242839 1.00808,-0.892181 3.81351,-2.282898 0.8453,-2.571543 -2.32873,-0.53699 -4.81835,0.804443 -7.23111,0.832126 -3.18153,0.562029 0.004,-2.210641 1.19971,-2.74498 3.71565,-1.910226 7.35133,-3.9991 10.90473,-6.21421 1.12741,-0.860392 4.45444,-1.447249 3.38352,-2.883145 -3.01235,1.006079 -5.99451,2.445959 -9.07832,3.288219 -1.04273,0.248579 -5.77377,0.833307 -3.43703,-1.011138 4.54199,-2.999694 9.01259,-6.109711 13.51611,-9.163264 1.50039,-2.015391 0.41343,-2.067076 -1.38717,-1.244243 -2.0854,0.634785 -3.63967,2.33974 -5.58209,3.331125 -0.6668,1.168874 -4.4037,2.158638 -2.41956,0.133484 2.01179,-1.748293 3.97729,-3.555209 6.07678,-5.198815 1.06118,-1.477492 2.14945,-4.996089 -0.73313,-3.338244 -1.85764,0.978266 -4.24664,1.124059 -5.54125,2.930922 -2.28735,2.377708 -4.61813,4.738444 -6.87847,7.126711 -1.65244,-1.549521 2.62157,-3.258415 3.14811,-4.899286 1.85651,-2.12604 3.81133,-4.193191 5.47749,-6.466492 0.35228,-1.864184 0.43388,-3.176744 -1.45818,-1.877802 -0.91976,0.395598 -1.83954,0.791204 -2.75931,1.186802 0.27669,1.922935 -3.80426,3.931115 -5.09911,5.837766 -2.19184,1.870909 -5.1723,2.656834 -7.10063,4.884668 -1.54088,-1.644946 2.69862,-2.89387 3.78858,-3.860078 3.08224,-1.499745 5.16726,-4.324426 7.64868,-6.600257 -2.7155,0.550857 -5.84414,0.438785 -7.43423,3.145251 -4.11114,3.90778 -8.1118,7.953058 -12.31888,11.747023 -5.12944,3.556763 -10.34239,7.042322 -15.60709,10.365017 -2.40784,0.969776 -5.82995,0.172755 -6.97044,3.076631 -2.01132,2.828968 -4.39355,5.359747 -6.63514,8.00321 2.4098,-0.530643 4.69815,0.01999 6.87432,1.088347 2.09165,0.731839 3.86939,2.177959 5.87346,3.081493 -0.44702,1.991275 -3.19401,3.500753 -5.35645,3.135436 -1.35861,-0.03704 -2.58348,-0.955477 -3.88867,-1.348363 0.12924,-1.566661 1.45803,-0.302529 2.34503,-0.08097 1.7417,0.943086 4.10451,0.575519 5.3878,-0.969851 -0.66962,-1.375024 -4.22292,-2.763696 -6.28534,-3.53189 -1.87173,-1.124793 -4.01644,-0.350752 -6.04623,-0.325788 -2.40102,0.54498 0.67044,-1.58187 1.02512,-2.412739 2.65728,-2.986421 5.19982,-6.065892 7.50518,-9.334281 -0.16745,-2.412504 2.50782,-4.116959 3.39806,-6.342892 2.6214,-3.862715 3.97435,-8.415361 5.98464,-12.612551 0.85554,-1.750929 0.41425,-3.796359 0.63681,-5.69102 -0.0639,-1.028065 0.3004,-2.148549 -0.0595,-3.112721 -1.86555,3.432216 -3.78436,6.861288 -5.57566,10.317361 -2.20736,0.127486 -0.22755,-3.370744 0.40879,-4.279103 1.69649,-3.428852 3.61006,-6.799385 5.19595,-10.254398 0.0459,-1.446 0.0918,-2.891992 0.13772,-4.337984 -1.42894,-1.242425 -2.14892,2.996233 -3.28364,3.989413 -2.48348,4.135045 -4.77708,8.407589 -7.36622,12.465039 -0.25406,1.371918 -2.99679,2.368688 -1.89714,0.425493 3.7,-6.806111 7.49889,-13.587447 11.29421,-20.322143 1.52507,-2.704377 1.03547,-5.862003 1.25279,-8.829028 -1.46222,-2.310497 -2.48281,1.243646 -3.65415,2.161594 -1.49858,1.861342 -2.04993,4.305718 -3.20117,6.396293 -1.8678,4.056162 -3.80439,8.086383 -5.70184,12.124496 -2.12293,-0.874677 1.22487,-4.045149 1.25307,-5.8282 1.82007,-4.702899 3.63113,-9.409276 5.4425,-14.115526 -0.90764,-1.8876 -2.94545,3.093234 -3.90774,4.241318 -1.72837,3.861872 -3.7349,7.59297 -5.64714,11.365781 -2.04458,-0.891067 1.24729,-4.030911 1.15815,-5.740342 0.98987,-2.858452 2.29257,-5.6896 3.24996,-8.508582 -0.14391,-1.064128 1.36382,-3.830244 0.0239,-3.883904 z m 13.10519,51.277056 c 0.47055,1.88024 -2.36192,2.737186 -3.52649,4.193668 -1.46408,0.54642 -6.69902,1.831267 -4.44563,3.008526 1.4894,-0.789189 2.98221,-1.571978 4.46946,-2.365182 1.90309,1.806349 4.7825,3.73977 4.55753,6.498399 -1.80869,0.453622 -1.0367,-3.544224 -3.18978,-3.916063 -0.99254,-1.716778 -2.24803,-1.278523 -3.58433,-0.333802 -1.06216,0.572452 -2.14626,1.10523 -3.19229,1.706846 -1.77772,-2.427853 0.1925,-4.389878 2.75018,-4.679569 2.53661,-0.395946 4.01381,-2.581654 5.92308,-4.041339 l 0.0525,-0.04325 z m 13.48644,5.242078 c 0.17596,2.122056 -3.55593,1.196572 -4.56186,2.98675 -1.62789,0.787118 -3.27461,3.205166 -4.72838,3.18461 -1.60508,-0.312768 1.9289,-1.863153 2.49187,-2.73602 2.03422,-1.630575 4.11081,-3.132895 6.79837,-3.43534 z m 17.29886,8.292015 c -0.41269,0.394825 -0.12311,0.316192 0,0 z m -48.87047,2.073006 c 2.21128,0.831778 4.56785,1.360345 6.44022,2.888757 2.41906,0.855886 2.53355,3.622513 3.23564,5.711432 0.0679,1.345621 -1.09511,5.62777 -2.31539,4.71162 0.49291,-1.973843 2.2438,-4.406122 0.76475,-6.663897 -0.19502,-2.481858 -2.77172,-3.171555 -4.51646,-4.368128 -1.31412,-0.466051 -2.62823,-0.932103 -3.94234,-1.398154 0.11119,-0.293879 0.22239,-0.587758 0.33358,-0.88163 z m 62.28543,0.238278 c 4.49187,0.183981 9.02129,0.380284 13.48644,0.810147 0.49759,0.525893 -0.89721,0.557538 -0.69101,0.833966 -5.78462,-0.263416 -11.5686,-0.966648 -17.35945,-0.487183 -2.71127,-0.348594 -5.07926,1.722497 -7.82495,1.137859 -1.46328,0.286396 -4.83201,-0.495068 -2.52713,-1.103405 2.62987,0.294667 5.30736,0.32672 7.76111,-0.800898 2.32488,-0.423266 4.7874,-0.140437 7.15499,-0.390486 z m -6.91002,3.764768 c 4.64045,0.660718 9.30129,1.072351 13.99205,1.01597 2.95587,0.165371 6.41349,-0.130349 9.06896,0.340891 -0.44132,1.968205 -4.56907,0.06953 -6.33279,0.657446 -5.20964,-0.06195 -10.42968,-0.0612 -15.5845,-0.918235 -0.99764,0.02818 -1.30685,-0.128924 -1.14372,-1.096072 z m 5.02763,5.194422 c 1.90942,1.989147 4.6427,2.347155 7.39091,1.900781 3.23328,-0.2093 6.5461,0.66644 9.68242,-0.537543 2.72708,-0.253676 -0.19874,1.534803 -1.62652,1.356963 -3.16918,0.66528 -6.40811,-0.21437 -9.60904,0.18677 -2.55709,0.90476 -4.65238,-1.250876 -6.48807,-1.730637 -1.37305,0.811116 -2.88134,0.987151 -4.43233,0.872844 h -6.68822 c -0.45143,-1.486399 1.26114,-0.80882 2.15183,-0.953105 2.22841,-0.01606 4.4647,0.03196 6.68822,-0.02386 0.96594,-0.377859 1.90524,-0.87735 2.9308,-1.072244 z m -91.09302,3.026111 c 2.32224,0.95595 -1.88745,3.25536 -1.2018,4.76751 0.10344,1.586315 0.29052,2.713395 1.035,0.52222 0.34074,-1.02486 0.65588,-2.05839 1.02459,-3.07376 0.9385,1.54831 2.17242,2.41478 3.95538,2.43042 0.7621,1.30724 1.12687,4.269575 1.92938,1.532835 0.73447,-1.412585 1.30206,-3.044475 2.3596,-4.201525 1.71899,0.98183 -0.238,4.477025 0.2621,6.266655 -0.14139,2.82069 0.45806,5.64356 0.0588,8.47117 0.24676,1.68346 -1.41399,5.96806 1.57856,3.92521 1.03305,-0.49138 1.16856,-1.94736 1.80169,-2.86853 1.1459,-2.21738 0.72244,-4.91846 1.46947,-7.26423 2.22055,-0.56925 0.20443,6.16928 2.34678,4.03145 0.62468,-2.28027 -1.06483,-4.2012 -1.25072,-6.72397 v -4.479585 c 1.4864,-0.45143 0.80882,1.26114 0.95311,2.15183 -0.10944,1.795505 0.0791,3.580715 0.85779,5.234725 2.44792,1.32125 2.05473,-3.23105 4.00305,-4.146 2.12096,-0.847725 0.92963,-5.270855 3.07376,-4.789355 -0.19944,2.72591 -1.71745,4.980685 -3.59797,6.838525 -0.77048,1.29906 -1.12905,4.43355 -3.33587,3.16908 1.60087,1.64172 -0.21618,5.08575 -2.19214,4.50342 -0.43691,-1.45914 -0.47182,-3.16758 -0.70462,-0.67286 -0.0691,2.08129 -1.52441,3.72835 -2.27383,5.60518 -1.79927,0.98799 -5.03487,2.07044 -3.85169,-1.27677 0.21944,-3.58619 0.47974,-7.17572 0.0392,-10.75618 -0.0419,-1.17621 0.59879,-4.875495 0.0148,-4.148075 -0.82678,1.672905 -1.61745,3.375965 -2.44515,5.053525 -1.02414,-1.53271 -0.61653,-5.151155 -3.04242,-4.784365 -1.34525,-0.26728 -1.82043,-1.87306 -2.152,0.30477 -0.59571,0.643915 -1.33581,4.243795 -2.40659,2.621035 -0.26102,-1.98059 -0.0972,-5.056075 -2.35894,-2.644855 -0.4156,-1.60966 -0.80877,-3.22502 -1.21521,-4.83702 1.33318,-0.80904 1.09689,1.01565 1.45117,1.8493 -0.0766,2.73658 2.85039,0.0696 3.19521,-1.34891 0.20493,-0.42174 0.41154,-0.84264 0.61953,-1.26287 z m 37.36172,12.080605 c 2.53966,5.14679 5.23169,10.23399 7.95843,15.29734 1.47257,3.59292 3.25147,7.10162 3.87191,10.96863 -0.5822,1.83602 3.74629,4.32716 1.63226,4.80526 -2.33413,-1.824 -2.5747,-4.72141 -3.21672,-7.38656 -1.5247,-4.75509 -3.72277,-9.28821 -6.16268,-13.64695 -1.75921,-3.12902 -3.2533,-6.38151 -4.89334,-9.56117 0.27004,-0.15885 0.5401,-0.3177 0.81014,-0.47655 z m -5.19442,5.62332 c 2.42811,0.2782 -2.20633,2.80429 0.81346,3.08881 1.56398,0.25642 1.16059,2.46757 2.57772,2.8394 3.56695,0.20381 -0.38619,5.27817 3.28055,4.53212 1.75984,1.38534 -0.0903,4.97121 2.66869,5.88543 2.29298,1.10233 1.643,3.82003 2.71476,5.70337 0.25484,1.44371 1.08127,1.22605 2.07779,0.51404 0.74148,-0.49111 2.22462,-1.25653 1.94539,0.0991 -1.29271,0.64295 -2.58684,1.28306 -3.87862,1.92788 -1.02946,-1.99465 -1.94634,-4.05065 -2.16832,-6.31432 -2.0192,-1.51886 -3.84874,-3.20834 -3.53235,-5.98323 0.47981,-2.12796 -3.57405,0.0395 -2.50387,-2.63908 1.4045,-2.72188 -1.73878,-2.3717 -2.38764,-4.19855 -0.17943,-1.83244 -2.92771,-1.53323 -3.08488,-3.14365 0.4519,-0.79585 1.02157,-1.51731 1.47732,-2.31128 z m -14.55869,26.28187 c -0.3986,1.185 -4.21193,4.74382 -1.3923,2.49477 1.45848,-0.88236 1.66669,-0.30854 1.40302,-2.2644 l -0.008,-0.16534 z m -21.63549,426.37383 c -5.62801,0.15502 -11.27499,-0.0269 -16.89379,0.1668 -2.42803,1.54764 -5.23412,2.56435 -7.13357,4.80365 -1.43722,2.0202 2.41388,3.7505 4.39339,3.29774 0.99793,0.66283 4.56106,-0.634 3.95539,1.23904 -0.9325,2.70432 -3.97388,3.17953 -5.98073,4.81318 -1.23796,2.57105 1.69987,5.76475 3.90773,3.31204 1.30855,-1.24292 2.43767,-1.38583 3.36468,0.14795 1.53191,1.20112 -1.07327,4.43474 2.28247,4.26017 2.19225,-1.10426 4.14844,-3.03309 6.20744,-4.49522 1.3662,-1.74659 3.57738,-3.68854 4.44351,-0.38945 2.0062,1.71581 4.52271,1.28957 6.92003,1.13108 2.94457,-0.1007 6.1865,-0.49597 7.87881,-3.27 2.75244,-1.31498 5.37648,1.37012 6.76441,3.52489 1.8583,1.22054 4.95721,1.38177 4.00986,-1.71008 -0.72997,-2.02326 -0.0986,-4.16242 2.33342,-2.85875 2.66409,0.50866 4.7314,2.52647 7.28688,3.23051 -0.15469,-1.94259 -0.18136,-5.60142 2.51507,-3.11532 2.27333,1.64703 4.64785,3.24448 7.39722,3.97312 0.0981,-1.14762 -0.20444,-2.4029 0.1668,-3.47884 1.76693,-1.81631 5.30232,3.51204 4.52725,-0.54803 0.36818,-1.39364 -1.54048,-4.475 0.40506,-4.26515 2.68562,1.13282 5.51957,1.91591 8.38733,2.43042 -1.89852,-3.15707 -5.28817,-4.89117 -8.17288,-7.00532 -2.7854,-1.15941 -5.7293,-2.07884 -8.77663,-2.02117 -3.28861,-0.29982 -6.65771,-0.16273 -9.90279,-0.64424 -1.3897,-1.00978 -1.16056,-0.10823 -0.90689,0.18733 -1.94007,2.78069 -5.40618,2.24219 -8.34097,2.7672 -4.10039,0.39193 -8.24285,0.80196 -12.12696,2.26044 -2.6844,0.34924 -5.05931,-2.0189 -7.00252,-3.6704 -0.85394,-1.18316 -1.25846,-2.73761 -1.90902,-4.07359 z"
       id="path1664" />
  </g>
</svg>
