<?xml version="1.0" encoding="UTF-8" standalone="no"?>
<!-- Created with Inkscape (http://www.inkscape.org/) -->

<svg
   width="326.76041mm"
   height="171.97916mm"
   viewBox="0 0 326.76041 171.97916"
   version="1.1"
   id="svg13074"
   xml:space="preserve"
   inkscape:version="1.2.1 (1:1.2.1+202210291244+9c6d41e410)"
   sodipodi:docname="usa-cartogram.svg"
   xmlns:inkscape="http://www.inkscape.org/namespaces/inkscape"
   xmlns:sodipodi="http://sodipodi.sourceforge.net/DTD/sodipodi-0.dtd"
   xmlns="http://www.w3.org/2000/svg"
   xmlns:svg="http://www.w3.org/2000/svg"><sodipodi:namedview
     id="namedview13076"
     pagecolor="#ffffff"
     bordercolor="#666666"
     borderopacity="1.0"
     inkscape:showpageshadow="2"
     inkscape:pageopacity="0.0"
     inkscape:pagecheckerboard="0"
     inkscape:deskcolor="#d1d1d1"
     inkscape:document-units="mm"
     showgrid="false"
     inkscape:zoom="0.8287873"
     inkscape:cx="30.164555"
     inkscape:cy="339.65289"
     inkscape:window-width="1848"
     inkscape:window-height="1016"
     inkscape:window-x="72"
     inkscape:window-y="27"
     inkscape:window-maximized="1"
     inkscape:current-layer="g13224" /><defs
     id="defs13071" /><g
     inkscape:label="Layer 1"
     inkscape:groupmode="layer"
     id="layer1"
     transform="translate(35.495494,-99.548068)"><g
       id="g13250"
       transform="matrix(0.04409722,0,0,0.04409722,-35.495494,99.548068)"><rect
         width="7410"
         height="3900"
         fill="#b22234"
         id="rect13195"
         x="0"
         y="0"
         style="fill:#8080ff;fill-opacity:1" /><path
         d="m 0,450 h 7410 m 0,600 H 0 m 0,600 h 7410 m 0,600 H 0 m 0,600 h 7410 m 0,600 H 0"
         stroke="#ffffff"
         stroke-width="300"
         id="path13197"
         style="fill:#ff0000" /><rect
         width="2964"
         height="2100"
         fill="#3c3b6e"
         id="rect13199"
         x="0"
         y="0"
         style="fill:#000000" /><g
         fill="#ffffff"
         id="g13224"><path
           id="s"
           d="M 247,90 317.53423,307.08204 132.87322,172.91796 H 361.12678 L 176.46577,307.08204 Z"
           style="fill:#8080ff;fill-opacity:1" /><path
           id="use13202"
           d="M 247,510 317.53423,727.08204 132.87322,592.91796 H 361.12678 L 176.46577,727.08204 Z"
           style="fill:#8080ff;fill-opacity:1" /><path
           id="use13204"
           d="m 247,930 70.53423,217.082 -184.66101,-134.164 h 228.25356 l -184.66101,134.164 z" /><path
           id="use13206"
           d="m 247,1350 70.53423,217.082 -184.66101,-134.164 h 228.25356 l -184.66101,134.164 z"
           style="fill:#ff8080;fill-opacity:1" /><path
           id="use13209"
           d="m 247,1770 70.53423,217.082 -184.66101,-134.164 h 228.25356 l -184.66101,134.164 z"
           style="fill:#ff8080;fill-opacity:1" /><path
           id="path13582"
           d="M 494,300 564.53423,517.08204 379.87322,382.91796 H 608.12678 L 423.46577,517.08204 Z"
           style="fill:#8080ff;fill-opacity:1" /><path
           id="use13584"
           d="M 494,720 564.53423,937.08204 379.87322,802.91796 H 608.12678 L 423.46577,937.08204 Z" /><path
           id="use13586"
           d="m 494,1140 70.53423,217.082 -184.66101,-134.164 h 228.25356 l -184.66101,134.164 z" /><path
           id="use13588"
           d="m 494,1560 70.53423,217.082 -184.66101,-134.164 h 228.25356 l -184.66101,134.164 z"
           style="fill:#ff8080;fill-opacity:1" /><path
           id="path13486"
           d="M 741,90 811.53423,307.08204 626.87322,172.91796 H 855.12678 L 670.46577,307.08204 Z"
           style="fill:#8080ff;fill-opacity:1" /><path
           id="use13488"
           d="M 741,510 811.53423,727.08204 626.87322,592.91796 H 855.12678 L 670.46577,727.08204 Z"
           style="fill:#8080ff;fill-opacity:1" /><path
           id="use13490"
           d="m 741,930 70.53423,217.082 -184.66101,-134.164 h 228.25356 l -184.66101,134.164 z" /><path
           id="use13492"
           d="m 741,1350 70.53423,217.082 -184.66101,-134.164 h 228.25356 l -184.66101,134.164 z"
           style="fill:#ff8080;fill-opacity:1" /><path
           id="use13496"
           d="m 741,1770 70.53423,217.082 -184.66101,-134.164 h 228.25356 l -184.66101,134.164 z"
           style="fill:#ff8080;fill-opacity:1" /><path
           id="path13622"
           d="M 988,300 1058.5342,517.08204 873.87322,382.91796 H 1102.1268 L 917.46577,517.08204 Z"
           style="fill:#8080ff;fill-opacity:1" /><path
           id="use13624"
           d="M 988,720 1058.5342,937.08204 873.87322,802.91796 H 1102.1268 L 917.46577,937.08204 Z" /><path
           id="use13626"
           d="m 988,1140 70.5342,217.082 -184.66098,-134.164 h 228.25358 l -184.66103,134.164 z" /><path
           id="use13628"
           d="m 988,1560 70.5342,217.082 -184.66098,-134.164 h 228.25358 l -184.66103,134.164 z"
           style="fill:#ff8080;fill-opacity:1" /><path
           id="path13418"
           d="m 1235,90 70.5342,217.08204 -184.661,-134.16408 h 228.2536 l -184.661,134.16408 z"
           style="fill:#8080ff;fill-opacity:1" /><path
           id="use13420"
           d="M 1235,727.08204 1305.5342,510 1120.8732,644.16408 h 228.2536 L 1164.4658,510 Z"
           style="fill:#8080ff;fill-opacity:1" /><path
           id="use13422"
           d="m 1235,930 70.5342,217.082 -184.661,-134.164 h 228.2536 l -184.661,134.164 z" /><path
           id="use13424"
           d="m 1235,1350 70.5342,217.082 -184.661,-134.164 h 228.2536 l -184.661,134.164 z"
           style="fill:#ff8080;fill-opacity:1" /><path
           id="use13428"
           d="m 1235,1770 70.5342,217.082 -184.661,-134.164 h 228.2536 l -184.661,134.164 z"
           style="fill:#ff8080;fill-opacity:1" /><path
           id="path13602"
           d="m 1482,300 70.5342,217.08204 -184.661,-134.16408 h 228.2536 l -184.661,134.16408 z"
           style="fill:#8080ff;fill-opacity:1" /><path
           id="use13604"
           d="m 1482,720 70.5342,217.08204 -184.661,-134.16408 h 228.2536 l -184.661,134.16408 z" /><path
           id="use13606"
           d="m 1482,1140 70.5342,217.082 -184.661,-134.164 h 228.2536 l -184.661,134.164 z" /><path
           id="use13608"
           d="m 1482,1560 70.5342,217.082 -184.661,-134.164 h 228.2536 l -184.661,134.164 z"
           style="fill:#ff8080;fill-opacity:1" /><path
           id="path13468"
           d="m 1729,90 70.5342,217.08204 -184.661,-134.16408 h 228.2536 l -184.661,134.16408 z"
           style="fill:#8080ff;fill-opacity:1" /><path
           id="use13470"
           d="m 1729,510 70.5342,217.08204 -184.661,-134.16408 h 228.2536 l -184.661,134.16408 z"
           style="fill:#ff80ff;fill-opacity:1" /><path
           id="use13472"
           d="m 1729,930 70.5342,217.082 -184.661,-134.164 h 228.2536 l -184.661,134.164 z" /><path
           id="use13474"
           d="m 1729,1350 70.5342,217.082 -184.661,-134.164 h 228.2536 l -184.661,134.164 z"
           style="fill:#ff8080;fill-opacity:1" /><path
           id="use13478"
           d="m 1729,1770 70.5342,217.082 -184.661,-134.164 h 228.2536 l -184.661,134.164 z"
           style="fill:#ff8080;fill-opacity:1" /><path
           id="path13612"
           d="m 1976,300 70.5342,217.08204 -184.661,-134.16408 h 228.2536 l -184.661,134.16408 z"
           style="fill:#8080ff;fill-opacity:1" /><path
           id="use13614"
           d="m 1976,720 70.5342,217.08204 -184.661,-134.16408 h 228.2536 l -184.661,134.16408 z" /><g
           id="g1059"
           transform="translate(-25.1264,-25.38415)"><path
             id="use13616"
             d="m 1976,1140 70.5342,217.082 -184.661,-134.164 h 228.2536 l -184.661,134.164 z"
             style="fill:#ff8080;fill-opacity:1" /><path
             id="use13616-3"
             d="m 2026.2528,1190.7683 70.5342,217.082 -184.661,-134.164 h 228.2536 l -184.661,134.164 z"
             style="fill:#ff8080;fill-opacity:1" /></g><path
           id="use13618"
           d="m 1976,1560 70.5342,217.082 -184.661,-134.164 h 228.2536 l -184.661,134.164 z"
           style="fill:#ff8080;fill-opacity:1" /><path
           id="path13450"
           d="m 2223,90 70.5342,217.08204 -184.661,-134.16408 h 228.2536 l -184.661,134.16408 z"
           style="fill:#8080ff;fill-opacity:1" /><path
           id="use13452"
           d="m 2223,510 70.5342,217.08204 -184.661,-134.16408 h 228.2536 l -184.661,134.16408 z" /><path
           id="use13454"
           d="m 2223,930 70.5342,217.082 -184.661,-134.164 h 228.2536 l -184.661,134.164 z" /><path
           id="use13456"
           d="m 2223,1350 70.5342,217.082 -184.661,-134.164 h 228.2536 l -184.661,134.164 z"
           style="fill:#ff8080;fill-opacity:1" /><path
           id="use13460"
           d="m 2223,1770 70.5342,217.082 -184.661,-134.164 h 228.2536 l -184.661,134.164 z"
           style="fill:#ff8080;fill-opacity:1" /><path
           id="path13592"
           d="m 2470,300 70.5342,217.08204 -184.661,-134.16408 h 228.2536 l -184.661,134.16408 z"
           style="fill:#8080ff;fill-opacity:1" /><path
           id="use13594"
           d="m 2470,720 70.5342,217.08204 -184.661,-134.16408 h 228.2536 l -184.661,134.16408 z" /><path
           id="use13596"
           d="m 2470,1140 70.5342,217.082 -184.661,-134.164 h 228.2536 l -184.661,134.164 z"
           style="fill:#ff8080;fill-opacity:1" /><path
           id="use13598"
           d="m 2470,1560 70.5342,217.082 -184.661,-134.164 h 228.2536 l -184.661,134.164 z"
           style="fill:#ff8080;fill-opacity:1" /><path
           id="path13530"
           d="m 2717,90 70.5342,217.08204 -184.661,-134.16408 h 228.2536 l -184.661,134.16408 z"
           style="fill:#8080ff;fill-opacity:1" /><path
           id="use13532"
           d="m 2717,510 70.5342,217.08204 -184.661,-134.16408 h 228.2536 l -184.661,134.16408 z" /><path
           id="use13534"
           d="m 2717,930 70.5342,217.082 -184.661,-134.164 h 228.2536 l -184.661,134.164 z" /><path
           id="use13536"
           d="m 2717,1350 70.5342,217.082 -184.661,-134.164 h 228.2536 l -184.661,134.164 z"
           style="fill:#ff8080;fill-opacity:1" /><path
           id="use13540"
           d="m 2717,1770 70.5342,217.082 -184.661,-134.164 h 228.2536 l -184.661,134.164 z"
           style="fill:#ff8080;fill-opacity:1" /></g></g></g></svg>
